<svg width="24" height="24" viewBox="0 0 20 20" fill="none" xmlns="http://www.w3.org/2000/svg"><path fill-rule="evenodd" clip-rule="evenodd" d="M15.833 10.833H17.5V4.167h-1.667v6.666zM14.167 10h-.834a.833.833 0 00-.765.504l-2.284 5.33H9.167V12.5a.834.834 0 00-.834-.833H3.498l1.364-7.5h5.811l3.494 1.397V10zm4.166-7.5H15a.834.834 0 00-.833.833v.435L11.143 2.56a.843.843 0 00-.31-.059H4.167a.834.834 0 00-.82.684L1.68 12.351a.834.834 0 00.82.982h5v3.334c0 .46.373.833.833.833h2.5a.831.831 0 00.766-.505l2.284-5.328h.284c0 .46.373.833.833.833h3.333c.46 0 .834-.373.834-.833V3.333a.834.834 0 00-.834-.833z" fill="#ED1A34"/></svg>