<svg width="44" height="42" fill="none" xmlns="http://www.w3.org/2000/svg"><path fill-rule="evenodd" clip-rule="evenodd" d="M29.414 19.414l-2.828-2.828L22 21.172l-4.586-4.586-2.828 2.828L19.172 24l-4.586 4.586 2.828 2.828L22 26.828l4.586 4.586 2.828-2.828L24.828 24l4.586-4.586z" fill="#ED1A34"/><path fill-rule="evenodd" clip-rule="evenodd" d="M40 4h-6V0h-4v12h4V8h6v30H4V8h4V4H4C1.792 4 0 5.792 0 8v30c0 2.208 1.792 4 4 4h36c2.208 0 4-1.792 4-4V8c0-2.208-1.792-4-4-4z" fill="#ED1A34"/><path fill-rule="evenodd" clip-rule="evenodd" d="M28 4H14V0h-4v12h4V8h14V4z" fill="#ED1A34"/></svg>