<svg xmlns="http://www.w3.org/2000/svg" width="20" height="20"><path fill="#58C30E" fill-rule="evenodd" d="M10 20C4.477 20 0 15.523 0 10S4.477 0 10 0s10 4.477 10 10-4.477 10-10 10zM8.37 7.13c.14.34.483 1.176.524 1.262.042.086.083.202.024.315-.054.117-.102.169-.188.268-.086.1-.168.175-.254.281-.079.093-.168.192-.068.364.099.168.442.727.946 1.176.651.58 1.18.765 1.368.844.14.058.308.044.411-.066.13-.14.292-.373.456-.603.117-.165.264-.185.418-.127.158.055.991.466 1.163.552.17.086.284.127.325.199.041.072.041.411-.1.81-.14.397-.699.726-1.144.822-.305.065-.703.117-2.044-.439-1.714-.71-2.818-2.452-2.904-2.565-.082-.113-.692-.922-.692-1.76 0-.836.425-1.244.596-1.419.141-.144.374-.21.597-.21.072 0 .137.004.196.008.17.007.257.017.37.288zm1.628-2.963A5.839 5.839 0 004.167 10a5.79 5.79 0 001.11 3.419l-.726 2.167 2.242-.716c.922.61 2.022.963 3.209.963A5.839 5.839 0 0015.833 10a5.839 5.839 0 00-5.831-5.833h-.004z"/></svg>