<?xml version="1.0" encoding="utf-8"?>
<!-- Generator: Adobe Illustrator 26.2.1, SVG Export Plug-In . SVG Version: 6.00 Build 0)  -->
<svg version="1.1" id="_x33_" xmlns="http://www.w3.org/2000/svg" xmlns:xlink="http://www.w3.org/1999/xlink" x="0px" y="0px"
	 viewBox="0 0 177.6 145" style="enable-background:new 0 0 177.6 145;" xml:space="preserve">
<style type="text/css">
	.st0{filter:url(#Adobe_OpacityMaskFilter);}
	.st1{filter:url(#Adobe_OpacityMaskFilter_00000132060406581310060420000012175478065100002444_);}
	.st2{mask:url(#SVGID_1_);fill:url(#SVGID_00000003064828029115477340000007277613352153063856_);}
	.st3{fill:url(#SVGID_00000159432247651748989500000002253373459857177234_);}
	.st4{fill:#C0C4EE;}
	.st5{fill:url(#SVGID_00000047040106330685025290000007668744142343214492_);}
	.st6{fill:#FFFFFF;}
	.st7{fill:url(#SVGID_00000030487150391828477100000012474711584973324949_);}
	.st8{opacity:0.2;}
	.st9{fill-rule:evenodd;clip-rule:evenodd;fill:#E4EBB3;}
	.st10{fill-rule:evenodd;clip-rule:evenodd;fill:#A9C751;}
	.st11{fill-rule:evenodd;clip-rule:evenodd;fill:#D9EAF7;}
	.st12{fill-rule:evenodd;clip-rule:evenodd;fill:#2A2124;}
	.st13{fill-rule:evenodd;clip-rule:evenodd;fill:#7F953D;}
	.st14{fill-rule:evenodd;clip-rule:evenodd;fill:#80ACDB;}
	.st15{fill-rule:evenodd;clip-rule:evenodd;fill:#10090E;}
	.st16{fill-rule:evenodd;clip-rule:evenodd;fill:#A4C7E9;}
	.st17{fill:#D9EAF7;}
	.st18{fill-rule:evenodd;clip-rule:evenodd;fill:#EA6A67;}
	.st19{fill-rule:evenodd;clip-rule:evenodd;fill:#E84F53;}
	.st20{fill-rule:evenodd;clip-rule:evenodd;fill:#F0A6A4;}
	.st21{fill-rule:evenodd;clip-rule:evenodd;fill:#4F5059;}
	.st22{fill-rule:evenodd;clip-rule:evenodd;fill:#EBEEF3;}
	.st23{fill-rule:evenodd;clip-rule:evenodd;fill:#FAFAFC;}
	.st24{fill-rule:evenodd;clip-rule:evenodd;fill:#E2E5EA;}
</style>
<g>
	<defs>
		<filter id="Adobe_OpacityMaskFilter" filterUnits="userSpaceOnUse" x="77.2" y="53.7" width="99.8" height="90.4">
			<feFlood  style="flood-color:white;flood-opacity:1" result="back"/>
			<feBlend  in="SourceGraphic" in2="back" mode="normal"/>
		</filter>
	</defs>
	<mask maskUnits="userSpaceOnUse" x="77.2" y="53.7" width="99.8" height="90.4" id="SVGID_1_">
		<g class="st0">
			<defs>
				
					<filter id="Adobe_OpacityMaskFilter_00000181793021724123760130000003518040665778925477_" filterUnits="userSpaceOnUse" x="77.2" y="53.7" width="99.8" height="90.4">
					<feFlood  style="flood-color:white;flood-opacity:1" result="back"/>
					<feBlend  in="SourceGraphic" in2="back" mode="normal"/>
				</filter>
			</defs>
			<mask maskUnits="userSpaceOnUse" x="77.2" y="53.7" width="99.8" height="90.4" id="SVGID_1_">
				<g style="filter:url(#Adobe_OpacityMaskFilter_00000181793021724123760130000003518040665778925477_);">
				</g>
			</mask>
			
				<linearGradient id="SVGID_00000111171309326063360960000010554717830701312677_" gradientUnits="userSpaceOnUse" x1="77.1967" y1="98.8972" x2="176.995" y2="98.8972">
				<stop  offset="0" style="stop-color:#FFFFFF"/>
				<stop  offset="1" style="stop-color:#000000"/>
			</linearGradient>
			<path style="mask:url(#SVGID_1_);fill:url(#SVGID_00000111171309326063360960000010554717830701312677_);" d="M101.3,53.7H77.2
				l71.1,41c3.2,1.9,3.2,6.5,0,8.3l-71.1,41h24.1c2.3,0,4.7-0.6,6.7-1.8l65.9-38.1c4.1-2.4,4.1-8.3,0-10.7L108,55.5
				C105.9,54.3,103.6,53.7,101.3,53.7z"/>
		</g>
	</mask>
	
		<linearGradient id="SVGID_00000168076632139099727690000016224116727032183711_" gradientUnits="userSpaceOnUse" x1="77.1967" y1="98.8972" x2="176.995" y2="98.8972">
		<stop  offset="1.032873e-03" style="stop-color:#CED2DA"/>
		<stop  offset="1" style="stop-color:#F5F5F5"/>
	</linearGradient>
	<path style="fill:url(#SVGID_00000168076632139099727690000016224116727032183711_);" d="M101.3,53.7H77.2l71.1,41
		c3.2,1.9,3.2,6.5,0,8.3l-71.1,41h24.1c2.3,0,4.7-0.6,6.7-1.8l65.9-38.1c4.1-2.4,4.1-8.3,0-10.7L108,55.5
		C105.9,54.3,103.6,53.7,101.3,53.7z"/>
	<g>
		<path class="st4" d="M154,99.7c-0.1-1.9-1.5-3.8-4.2-5.3L86.3,57.8c-5-2.9-12.6-3.2-17-0.7l-66,38.1c-2.1,1.2-3,2.8-2.9,4.5
			c0.1,1.9,1.5,3.8,4.2,5.3l63.6,36.7c5,2.9,12.6,3.2,17,0.7l66-38.1C153.2,103.1,154.1,101.4,154,99.7z"/>
		
			<linearGradient id="SVGID_00000000222296087410096550000000281620451580918690_" gradientUnits="userSpaceOnUse" x1="152.4672" y1="110.3634" x2="-0.67" y2="110.3634">
			<stop  offset="0.3962" style="stop-color:#D4D8FD"/>
			<stop  offset="0.6076" style="stop-color:#F3F4FF"/>
		</linearGradient>
		<path style="fill:url(#SVGID_00000000222296087410096550000000281620451580918690_);" d="M154,98.4L154,98.4l0-6.3l-25.8,12.5
			L86.3,80.4c-5-2.9-12.6-3.2-17-0.7l-43.1,24.9L0.3,92.1v5.8c0,0.2,0,0.3,0,0.5c0.1,1.9,1.5,3.8,4.2,5.3l63.6,36.7
			c2.6,1.5,5.9,2.3,9.1,2.4l0,0l0,0c3,0.1,5.8-0.5,7.9-1.7l66-38.1C153.2,101.7,154.1,100.1,154,98.4z"/>
		<path class="st6" d="M154,92.1c-0.1-1.9-1.5-3.8-4.2-5.3L86.3,50.1c-5-2.9-12.6-3.2-17-0.7l-66,38.1c-2.1,1.2-3,2.8-2.9,4.5
			c0.1,1.9,1.5,3.8,4.2,5.3L68.1,134c5,2.9,12.6,3.2,17,0.7l66-38.1C153.2,95.4,154.1,93.7,154,92.1z"/>
		
			<linearGradient id="SVGID_00000005240292766251468010000007696841900404748452_" gradientUnits="userSpaceOnUse" x1="0.3385" y1="91.504" x2="154.0468" y2="91.504">
			<stop  offset="0" style="stop-color:#FDFDFF"/>
			<stop  offset="1" style="stop-color:#FCFCFF"/>
		</linearGradient>
		<path style="fill:url(#SVGID_00000005240292766251468010000007696841900404748452_);" d="M154,91.5c-0.1-1.9-1.5-3.8-4.2-5.3
			L86.3,49.5c-5-2.9-12.6-3.2-17-0.7L3.3,87c-2.1,1.2-3,2.8-2.9,4.5c0.1,1.9,1.5,3.8,4.2,5.3l63.6,36.7c5,2.9,12.6,3.2,17,0.7
			l66-38.1C153.2,94.8,154.1,93.2,154,91.5z"/>
		<g class="st8">
			<path class="st6" d="M31.2,90.3c0.4,0.2,0.4,0.6,0,0.9c-0.4,0.2-1.1,0.2-1.5,0c-0.4-0.2-0.4-0.6,0-0.9
				C30.1,90.1,30.8,90.1,31.2,90.3z"/>
			<path class="st6" d="M39.2,85.7c0.4,0.2,0.4,0.6,0,0.9c-0.4,0.2-1.1,0.2-1.5,0c-0.4-0.2-0.4-0.6,0-0.9S38.8,85.5,39.2,85.7z"/>
			<path class="st6" d="M47.2,81.1c0.4,0.2,0.4,0.6,0,0.9s-1.1,0.2-1.5,0c-0.4-0.2-0.4-0.6,0-0.9C46.1,80.9,46.7,80.9,47.2,81.1z"/>
			<path class="st6" d="M55.2,76.5c0.4,0.2,0.4,0.6,0,0.9c-0.4,0.2-1.1,0.2-1.5,0c-0.4-0.2-0.4-0.6,0-0.9
				C54.1,76.2,54.7,76.2,55.2,76.5z"/>
			<path class="st6" d="M39.2,95c0.4,0.2,0.4,0.6,0,0.9c-0.4,0.2-1.1,0.2-1.5,0c-0.4-0.2-0.4-0.6,0-0.9C38.1,94.7,38.8,94.7,39.2,95
				z"/>
			<path class="st6" d="M47.2,90.3c0.4,0.2,0.4,0.6,0,0.9c-0.4,0.2-1.1,0.2-1.5,0s-0.4-0.6,0-0.9C46.1,90.1,46.7,90.1,47.2,90.3z"/>
			<path class="st6" d="M55.2,85.7c0.4,0.2,0.4,0.6,0,0.9c-0.4,0.2-1.1,0.2-1.5,0c-0.4-0.2-0.4-0.6,0-0.9
				C54.1,85.5,54.7,85.5,55.2,85.7z"/>
			<path class="st6" d="M63.2,81.1c0.4,0.2,0.4,0.6,0,0.9c-0.4,0.2-1.1,0.2-1.5,0c-0.4-0.2-0.4-0.6,0-0.9
				C62.1,80.9,62.7,80.9,63.2,81.1z"/>
			<path class="st6" d="M47.2,99.6c0.4,0.2,0.4,0.6,0,0.9c-0.4,0.2-1.1,0.2-1.5,0c-0.4-0.2-0.4-0.6,0-0.9
				C46.1,99.3,46.7,99.3,47.2,99.6z"/>
			<path class="st6" d="M55.2,95c0.4,0.2,0.4,0.6,0,0.9c-0.4,0.2-1.1,0.2-1.5,0c-0.4-0.2-0.4-0.6,0-0.9C54.1,94.7,54.7,94.7,55.2,95
				z"/>
			<path class="st6" d="M63.2,90.3c0.4,0.2,0.4,0.6,0,0.9c-0.4,0.2-1.1,0.2-1.5,0s-0.4-0.6,0-0.9C62.1,90.1,62.7,90.1,63.2,90.3z"/>
			<path class="st6" d="M71.2,85.7c0.4,0.2,0.4,0.6,0,0.9c-0.4,0.2-1.1,0.2-1.5,0s-0.4-0.6,0-0.9C70.1,85.5,70.7,85.5,71.2,85.7z"/>
			<path class="st6" d="M55.2,104.2c0.4,0.2,0.4,0.6,0,0.9c-0.4,0.2-1.1,0.2-1.5,0c-0.4-0.2-0.4-0.6,0-0.9
				C54.1,104,54.7,104,55.2,104.2z"/>
			<path class="st6" d="M63.2,99.6c0.4,0.2,0.4,0.6,0,0.9c-0.4,0.2-1.1,0.2-1.5,0c-0.4-0.2-0.4-0.6,0-0.9
				C62.1,99.3,62.7,99.3,63.2,99.6z"/>
			<path class="st6" d="M71.2,95c0.4,0.2,0.4,0.6,0,0.9c-0.4,0.2-1.1,0.2-1.5,0c-0.4-0.2-0.4-0.6,0-0.9C70.1,94.7,70.7,94.7,71.2,95
				z"/>
			<path class="st6" d="M79.2,90.3c0.4,0.2,0.4,0.6,0,0.9c-0.4,0.2-1.1,0.2-1.5,0c-0.4-0.2-0.4-0.6,0-0.9
				C78.1,90.1,78.7,90.1,79.2,90.3z"/>
			<path class="st6" d="M63.2,108.8c0.4,0.2,0.4,0.6,0,0.9s-1.1,0.2-1.5,0c-0.4-0.2-0.4-0.6,0-0.9C62.1,108.6,62.7,108.6,63.2,108.8
				z"/>
			<path class="st6" d="M71.2,104.2c0.4,0.2,0.4,0.6,0,0.9c-0.4,0.2-1.1,0.2-1.5,0c-0.4-0.2-0.4-0.6,0-0.9
				C70.1,104,70.7,104,71.2,104.2z"/>
			<path class="st6" d="M79.2,99.6c0.4,0.2,0.4,0.6,0,0.9c-0.4,0.2-1.1,0.2-1.5,0c-0.4-0.2-0.4-0.6,0-0.9
				C78.1,99.3,78.7,99.3,79.2,99.6z"/>
			<path class="st6" d="M87.2,95c0.4,0.2,0.4,0.6,0,0.9c-0.4,0.2-1.1,0.2-1.5,0c-0.4-0.2-0.4-0.6,0-0.9C86.1,94.7,86.7,94.7,87.2,95
				z"/>
			<path class="st6" d="M87.2,95c0.4,0.2,0.4,0.6,0,0.9c-0.4,0.2-1.1,0.2-1.5,0c-0.4-0.2-0.4-0.6,0-0.9C86.1,94.7,86.7,94.7,87.2,95
				z"/>
			<path class="st6" d="M63.2,71.9c0.4,0.2,0.4,0.6,0,0.9c-0.4,0.2-1.1,0.2-1.5,0c-0.4-0.2-0.4-0.6,0-0.9
				C62.1,71.6,62.7,71.6,63.2,71.9z"/>
			<path class="st6" d="M71.2,67.3c0.4,0.2,0.4,0.6,0,0.9c-0.4,0.2-1.1,0.2-1.5,0c-0.4-0.2-0.4-0.6,0-0.9C70.1,67,70.7,67,71.2,67.3
				z"/>
			<path class="st6" d="M79.2,62.6c0.4,0.2,0.4,0.6,0,0.9c-0.4,0.2-1.1,0.2-1.5,0c-0.4-0.2-0.4-0.6,0-0.9S78.7,62.4,79.2,62.6z"/>
			<path class="st6" d="M71.2,76.5c0.4,0.2,0.4,0.6,0,0.9c-0.4,0.2-1.1,0.2-1.5,0c-0.4-0.2-0.4-0.6,0-0.9
				C70.1,76.2,70.7,76.2,71.2,76.5z"/>
			<path class="st6" d="M79.2,71.9c0.4,0.2,0.4,0.6,0,0.9c-0.4,0.2-1.1,0.2-1.5,0c-0.4-0.2-0.4-0.6,0-0.9
				C78.1,71.6,78.7,71.6,79.2,71.9z"/>
			<path class="st6" d="M87.2,67.3c0.4,0.2,0.4,0.6,0,0.9c-0.4,0.2-1.1,0.2-1.5,0c-0.4-0.2-0.4-0.6,0-0.9C86.1,67,86.7,67,87.2,67.3
				z"/>
			<path class="st6" d="M79.2,81.1c0.4,0.2,0.4,0.6,0,0.9c-0.4,0.2-1.1,0.2-1.5,0c-0.4-0.2-0.4-0.6,0-0.9
				C78.1,80.9,78.7,80.9,79.2,81.1z"/>
			<path class="st6" d="M87.2,76.5c0.4,0.2,0.4,0.6,0,0.9c-0.4,0.2-1.1,0.2-1.5,0c-0.4-0.2-0.4-0.6,0-0.9
				C86.1,76.2,86.7,76.2,87.2,76.5z"/>
			<path class="st6" d="M95.1,71.9c0.4,0.2,0.4,0.6,0,0.9c-0.4,0.2-1.1,0.2-1.5,0c-0.4-0.2-0.4-0.6,0-0.9
				C94.1,71.6,94.7,71.6,95.1,71.9z"/>
			<path class="st6" d="M87.2,85.7c0.4,0.2,0.4,0.6,0,0.9c-0.4,0.2-1.1,0.2-1.5,0c-0.4-0.2-0.4-0.6,0-0.9
				C86.1,85.5,86.7,85.5,87.2,85.7z"/>
			<path class="st6" d="M95.1,81.1c0.4,0.2,0.4,0.6,0,0.9c-0.4,0.2-1.1,0.2-1.5,0c-0.4-0.2-0.4-0.6,0-0.9
				C94.1,80.9,94.7,80.9,95.1,81.1z"/>
			<path class="st6" d="M103.1,76.5c0.4,0.2,0.4,0.6,0,0.9c-0.4,0.2-1.1,0.2-1.5,0c-0.4-0.2-0.4-0.6,0-0.9
				C102.1,76.2,102.7,76.2,103.1,76.5z"/>
			<path class="st6" d="M95.1,90.3c0.4,0.2,0.4,0.6,0,0.9c-0.4,0.2-1.1,0.2-1.5,0c-0.4-0.2-0.4-0.6,0-0.9
				C94.1,90.1,94.7,90.1,95.1,90.3z"/>
			<path class="st6" d="M103.1,85.7c0.4,0.2,0.4,0.6,0,0.9c-0.4,0.2-1.1,0.2-1.5,0c-0.4-0.2-0.4-0.6,0-0.9
				C102.1,85.5,102.7,85.5,103.1,85.7z"/>
			<path class="st6" d="M111.1,81.1c0.4,0.2,0.4,0.6,0,0.9c-0.4,0.2-1.1,0.2-1.5,0c-0.4-0.2-0.4-0.6,0-0.9
				C110.1,80.9,110.7,80.9,111.1,81.1z"/>
			<path class="st6" d="M71.2,113.4c0.4,0.2,0.4,0.6,0,0.9c-0.4,0.2-1.1,0.2-1.5,0c-0.4-0.2-0.4-0.6,0-0.9
				C70.1,113.2,70.7,113.2,71.2,113.4z"/>
			<path class="st6" d="M79.2,108.8c0.4,0.2,0.4,0.6,0,0.9c-0.4,0.2-1.1,0.2-1.5,0c-0.4-0.2-0.4-0.6,0-0.9
				C78.1,108.6,78.7,108.6,79.2,108.8z"/>
			<path class="st6" d="M87.2,104.2c0.4,0.2,0.4,0.6,0,0.9c-0.4,0.2-1.1,0.2-1.5,0c-0.4-0.2-0.4-0.6,0-0.9
				C86.1,104,86.7,104,87.2,104.2z"/>
			<path class="st6" d="M95.1,99.6c0.4,0.2,0.4,0.6,0,0.9c-0.4,0.2-1.1,0.2-1.5,0c-0.4-0.2-0.4-0.6,0-0.9
				C94.1,99.3,94.7,99.3,95.1,99.6z"/>
			<path class="st6" d="M79.2,118c0.4,0.2,0.4,0.6,0,0.9c-0.4,0.2-1.1,0.2-1.5,0c-0.4-0.2-0.4-0.6,0-0.9
				C78.1,117.8,78.7,117.8,79.2,118z"/>
			<path class="st6" d="M87.2,113.4c0.4,0.2,0.4,0.6,0,0.9s-1.1,0.2-1.5,0c-0.4-0.2-0.4-0.6,0-0.9C86.1,113.2,86.7,113.2,87.2,113.4
				z"/>
			<path class="st6" d="M95.1,108.8c0.4,0.2,0.4,0.6,0,0.9c-0.4,0.2-1.1,0.2-1.5,0c-0.4-0.2-0.4-0.6,0-0.9
				C94.1,108.6,94.7,108.6,95.1,108.8z"/>
			<path class="st6" d="M103.1,104.2c0.4,0.2,0.4,0.6,0,0.9c-0.4,0.2-1.1,0.2-1.5,0c-0.4-0.2-0.4-0.6,0-0.9
				C102.1,104,102.7,104,103.1,104.2z"/>
			<path class="st6" d="M103.1,95c0.4,0.2,0.4,0.6,0,0.9c-0.4,0.2-1.1,0.2-1.5,0s-0.4-0.6,0-0.9C102.1,94.7,102.7,94.7,103.1,95z"/>
			<path class="st6" d="M111.1,90.3c0.4,0.2,0.4,0.6,0,0.9c-0.4,0.2-1.1,0.2-1.5,0c-0.4-0.2-0.4-0.6,0-0.9S110.7,90.1,111.1,90.3z"
				/>
			<path class="st6" d="M119.1,85.7c0.4,0.2,0.4,0.6,0,0.9c-0.4,0.2-1.1,0.2-1.5,0c-0.4-0.2-0.4-0.6,0-0.9
				C118.1,85.5,118.7,85.5,119.1,85.7z"/>
			<path class="st6" d="M111.1,99.6c0.4,0.2,0.4,0.6,0,0.9c-0.4,0.2-1.1,0.2-1.5,0c-0.4-0.2-0.4-0.6,0-0.9
				C110.1,99.3,110.7,99.3,111.1,99.6z"/>
			<path class="st6" d="M119.1,95c0.4,0.2,0.4,0.6,0,0.9c-0.4,0.2-1.1,0.2-1.5,0c-0.4-0.2-0.4-0.6,0-0.9
				C118.1,94.7,118.7,94.7,119.1,95z"/>
			<path class="st6" d="M127.1,90.3c0.4,0.2,0.4,0.6,0,0.9c-0.4,0.2-1.1,0.2-1.5,0c-0.4-0.2-0.4-0.6,0-0.9
				C126.1,90.1,126.7,90.1,127.1,90.3z"/>
		</g>
	</g>
</g>
<g>
	<path class="st9" d="M25.2,99.3c-0.8-0.4-1.4-1.4-1.4-2.8v-38c0-2.5,1.6-5.3,3.6-6.3l56.4-28.2c0.9-0.4,1.6-0.4,2.3-0.1l0,0
		l2.7,1.3l-0.8,1c0,0.2,0.1,0.5,0.1,0.8v38c0,2.5-1.6,5.3-3.6,6.3L29.4,98.8l-1.5,1.9L25.2,99.3L25.2,99.3L25.2,99.3z"/>
	<path class="st10" d="M90.2,27.9c0-2.5-1.6-3.7-3.6-2.7L30.1,53.4c-2,1-3.6,3.8-3.6,6.3v38c0,2.5,1.6,3.7,3.6,2.7l56.4-28.2
		c2-1,3.6-3.8,3.6-6.3V27.9L90.2,27.9z"/>
	<path class="st11" d="M35.1,84c2.1-1.1,3.8,0.1,3.8,2.7c0,2.5-1.7,5.5-3.8,6.5c-2.1,1.1-3.8-0.1-3.8-2.7S33,85.1,35.1,84L35.1,84z"
		/>
	<polygon class="st12" points="90.2,32.3 26.5,64.2 26.5,73.7 90.2,41.9 90.2,32.3 	"/>
	<path class="st11" d="M74.3,57.7l-43,21.5V81l43-21.5V57.7L74.3,57.7z M74.3,55.5l-43,21.5v1.9l43-21.5V55.5L74.3,55.5z M74.3,53.4
		l-43,21.5v1.9l43-21.5V53.4L74.3,53.4z"/>
	<path class="st13" d="M90.2,40.3V66c0,2.5-1.6,5.3-3.6,6.3L41.5,94.8V65.1l0-0.5L90.2,40.3L90.2,40.3z"/>
	<path class="st14" d="M46.8,71.4l-5.3,2.7v1.9l5.3-2.7V71.4L46.8,71.4z M46.8,69.3L41.5,72v1.9l5.3-2.7V69.3L46.8,69.3z M46.8,67.2
		l-5.3,2.7v1.9l5.3-2.7V67.2L46.8,67.2z"/>
	<path class="st15" d="M90.2,41.9L41.5,66.3v-1.6c0.2-2.4,1.7-4.9,3.6-5.9l45.1-22.6V41.9L90.2,41.9z"/>
	<path class="st16" d="M47.3,108.2c-0.8-0.4-1.4-1.4-1.4-2.8v-38c0-2.5,1.6-5.3,3.6-6.3L106,32.8c0.9-0.4,1.6-0.4,2.3-0.1v0l2.7,1.3
		l-0.8,1c0,0.2,0.1,0.5,0.1,0.8v38c0,2.5-1.6,5.3-3.6,6.3l-55.1,27.5l-1.5,1.9L47.3,108.2L47.3,108.2L47.3,108.2z"/>
	<path class="st14" d="M112.3,36.9c0-2.5-1.6-3.7-3.6-2.7L52.2,62.4c-2,1-3.6,3.8-3.6,6.3v38c0,2.5,1.6,3.7,3.6,2.7l56.4-28.2
		c2-1,3.6-3.8,3.6-6.3V36.9L112.3,36.9z"/>
	<path class="st11" d="M106.5,43.1c0.6,0.6,0.9,1.5,0.9,2.7c0,1.2-0.3,2.5-0.9,3.6l-0.6-0.2c0.5-1,0.8-2.1,0.8-3.1
		c0-1-0.3-1.8-0.8-2.3L106.5,43.1L106.5,43.1z M105.5,44.4c0.5,0.4,0.7,1.1,0.7,2c0,0.9-0.3,1.9-0.7,2.8l-0.6-0.2
		c0.4-0.7,0.6-1.5,0.6-2.2c0-0.8-0.2-1.3-0.6-1.6L105.5,44.4L105.5,44.4z M104.6,45.6c0.4,0.2,0.6,0.7,0.6,1.3
		c0,0.6-0.2,1.3-0.6,1.9l-0.7-0.2c0.3-0.3,0.5-0.9,0.5-1.3c0-0.5-0.2-0.8-0.5-0.8L104.6,45.6L104.6,45.6z M103.5,47.1
		c0.3-0.1,0.5,0,0.5,0.4c0,0.4-0.2,0.8-0.5,0.9c-0.3,0.1-0.5,0-0.5-0.4C103,47.7,103.3,47.2,103.5,47.1L103.5,47.1z"/>
	<path class="st11" d="M62.9,79.8c-0.1,1-0.8,2-1.6,2.4l-6.2,3.1c-0.8,0.4-1.4,0-1.6-0.8l7-3.5c0,0,0.1,0,0.1-0.1L62.9,79.8
		L62.9,79.8z M53.5,80.5l2.3-1.1v3.2l-2.3,1.1V80.5L53.5,80.5z M56.5,79v3.2l3.6-1.8v-3.2L56.5,79L56.5,79z M63,75.8V79l-2.2,1.1
		v-3.2L63,75.8L63,75.8z M53.5,79.7c0.1-1,0.8-2,1.6-2.4l6.2-3.1c0.8-0.4,1.4,0,1.6,0.8l-2.7,1.3c0,0-0.1,0-0.1,0L56,78.5
		c0,0-0.1,0-0.1,0L53.5,79.7L53.5,79.7z"/>
	<path class="st17" d="M53.5,92.6v-1.9c0-0.2,0-0.4,0.1-0.5c0-0.2,0.1-0.3,0.2-0.4c0.1-0.1,0.1-0.2,0.3-0.3c0.1-0.1,0.2-0.2,0.3-0.2
		c0.1-0.1,0.2-0.1,0.3-0.2c0.1-0.1,0.2-0.1,0.3-0.1c0.1,0,0.2-0.1,0.3-0.1c0.1,0,0.2,0,0.3,0c0.1,0,0.1,0.1,0.2,0.2
		c0,0.1,0.1,0.3,0.1,0.5v1.9c0,0.2,0,0.4-0.1,0.5c0,0.2-0.1,0.3-0.2,0.4c-0.1,0.1-0.2,0.2-0.3,0.3c-0.1,0.1-0.2,0.2-0.3,0.2
		c-0.1,0.1-0.2,0.1-0.3,0.2c-0.1,0.1-0.2,0.1-0.3,0.1c-0.1,0-0.2,0.1-0.3,0.1c-0.1,0-0.2,0-0.3,0s-0.1-0.1-0.2-0.2
		C53.5,92.9,53.5,92.8,53.5,92.6L53.5,92.6z M54.2,90.3v2c0,0.2,0,0.3,0.1,0.3c0,0,0.2,0,0.4-0.1c0.2-0.1,0.3-0.2,0.4-0.3
		c0-0.1,0.1-0.2,0.1-0.4v-2c0-0.2,0-0.3-0.1-0.3c0,0-0.2,0-0.4,0.1c-0.2,0.1-0.3,0.2-0.4,0.3C54.2,90,54.2,90.1,54.2,90.3L54.2,90.3
		z"/>
	<path class="st17" d="M56.6,91v-1.9c0-0.2,0-0.4,0.1-0.5c0-0.2,0.1-0.3,0.2-0.4c0.1-0.1,0.1-0.2,0.3-0.3c0.1-0.1,0.2-0.2,0.3-0.2
		c0.1-0.1,0.2-0.1,0.3-0.2c0.1-0.1,0.2-0.1,0.3-0.1c0.1,0,0.2-0.1,0.3-0.1c0.1,0,0.2,0,0.3,0c0.1,0,0.1,0.1,0.2,0.2
		c0,0.1,0.1,0.3,0.1,0.5v1.9c0,0.2,0,0.4-0.1,0.5c0,0.2-0.1,0.3-0.2,0.4c-0.1,0.1-0.2,0.2-0.3,0.3c-0.1,0.1-0.2,0.2-0.3,0.2
		c-0.1,0.1-0.2,0.1-0.3,0.2c-0.1,0.1-0.2,0.1-0.3,0.1c-0.1,0-0.2,0.1-0.3,0.1c-0.1,0-0.2,0-0.3,0c-0.1,0-0.1-0.1-0.2-0.2
		C56.7,91.4,56.6,91.2,56.6,91L56.6,91z M57.3,88.7v2c0,0.2,0,0.3,0.1,0.3c0,0,0.2,0,0.4-0.1c0.2-0.1,0.3-0.2,0.4-0.3
		c0-0.1,0.1-0.2,0.1-0.4v-2c0-0.2,0-0.3-0.1-0.3c0,0-0.2,0-0.4,0.1c-0.2,0.1-0.3,0.2-0.4,0.3C57.4,88.4,57.3,88.5,57.3,88.7
		L57.3,88.7z"/>
	<path class="st17" d="M59.8,89.4v-1.9c0-0.2,0-0.4,0.1-0.5c0-0.2,0.1-0.3,0.2-0.4c0.1-0.1,0.1-0.2,0.3-0.3c0.1-0.1,0.2-0.2,0.3-0.2
		c0.1-0.1,0.2-0.1,0.3-0.2c0.1-0.1,0.2-0.1,0.3-0.1c0.1,0,0.2-0.1,0.3-0.1c0.1,0,0.2,0,0.3,0c0.1,0,0.1,0.1,0.2,0.2
		c0,0.1,0.1,0.3,0.1,0.5v1.9c0,0.2,0,0.4-0.1,0.5c0,0.2-0.1,0.3-0.2,0.4c-0.1,0.1-0.2,0.2-0.3,0.3c-0.1,0.1-0.2,0.2-0.3,0.2
		c-0.1,0.1-0.2,0.1-0.3,0.2c-0.1,0.1-0.2,0.1-0.3,0.1c-0.1,0-0.2,0.1-0.3,0.1c-0.1,0-0.2,0-0.3,0c-0.1,0-0.1-0.1-0.2-0.2
		C59.8,89.8,59.8,89.6,59.8,89.4L59.8,89.4z M60.5,87.1v2c0,0.2,0,0.3,0.1,0.3c0,0,0.2,0,0.4-0.1c0.2-0.1,0.3-0.2,0.4-0.3
		c0-0.1,0.1-0.2,0.1-0.4v-2c0-0.2,0-0.3-0.1-0.3c0,0-0.2,0-0.4,0.1c-0.2,0.1-0.3,0.2-0.4,0.3C60.5,86.8,60.5,87,60.5,87.1L60.5,87.1
		z"/>
	<path class="st17" d="M63,87.9V86c0-0.2,0-0.4,0.1-0.5c0-0.2,0.1-0.3,0.2-0.4c0.1-0.1,0.1-0.2,0.3-0.3c0.1-0.1,0.2-0.2,0.3-0.2
		c0.1-0.1,0.2-0.1,0.3-0.2c0.1-0.1,0.2-0.1,0.3-0.1c0.1,0,0.2-0.1,0.3-0.1c0.1,0,0.2,0,0.3,0c0.1,0,0.1,0.1,0.2,0.2
		c0,0.1,0.1,0.3,0.1,0.5v1.9c0,0.2,0,0.4-0.1,0.5c0,0.2-0.1,0.3-0.2,0.4c-0.1,0.1-0.2,0.2-0.3,0.3c-0.1,0.1-0.2,0.2-0.3,0.2
		c-0.1,0.1-0.2,0.1-0.3,0.2c-0.1,0.1-0.2,0.1-0.3,0.1c-0.1,0-0.2,0.1-0.3,0.1c-0.1,0-0.2,0-0.3,0c-0.1,0-0.1-0.1-0.2-0.2
		C63,88.2,63,88.1,63,87.9L63,87.9z M63.6,85.6v2c0,0.2,0,0.3,0.1,0.3c0,0,0.2,0,0.4-0.1c0.2-0.1,0.3-0.2,0.4-0.3
		c0-0.1,0.1-0.2,0.1-0.4v-2c0-0.2,0-0.3-0.1-0.3c0,0-0.2,0-0.4,0.1c-0.2,0.1-0.3,0.2-0.4,0.3C63.7,85.2,63.6,85.4,63.6,85.6
		L63.6,85.6z"/>
	<path class="st17" d="M67.6,85.5v-1.9c0-0.2,0-0.4,0.1-0.5c0-0.2,0.1-0.3,0.2-0.4c0.1-0.1,0.1-0.2,0.3-0.3c0.1-0.1,0.2-0.2,0.3-0.2
		c0.1-0.1,0.2-0.1,0.3-0.2c0.1-0.1,0.2-0.1,0.3-0.1c0.1,0,0.2-0.1,0.3-0.1c0.1,0,0.2,0,0.3,0c0.1,0,0.1,0.1,0.2,0.2
		c0,0.1,0.1,0.3,0.1,0.5v1.9c0,0.2,0,0.4-0.1,0.5c0,0.2-0.1,0.3-0.2,0.4c-0.1,0.1-0.2,0.2-0.3,0.3c-0.1,0.1-0.2,0.2-0.3,0.2
		c-0.1,0.1-0.2,0.1-0.3,0.2c-0.1,0.1-0.2,0.1-0.3,0.1c-0.1,0-0.2,0.1-0.3,0.1c-0.1,0-0.2,0-0.3,0c-0.1,0-0.1-0.1-0.2-0.2
		C67.7,85.9,67.6,85.7,67.6,85.5L67.6,85.5z M68.3,83.2v2c0,0.2,0,0.3,0.1,0.3c0,0,0.2,0,0.4-0.1c0.2-0.1,0.3-0.2,0.4-0.3
		s0.1-0.2,0.1-0.4v-2c0-0.2,0-0.3-0.1-0.3c0,0-0.2,0-0.4,0.1c-0.2,0.1-0.3,0.2-0.4,0.3C68.4,82.9,68.3,83,68.3,83.2L68.3,83.2z"/>
	<path class="st17" d="M70.8,83.9V82c0-0.2,0-0.4,0.1-0.5c0-0.2,0.1-0.3,0.2-0.4c0.1-0.1,0.1-0.2,0.3-0.3c0.1-0.1,0.2-0.2,0.3-0.2
		c0.1-0.1,0.2-0.1,0.3-0.2c0.1-0.1,0.2-0.1,0.3-0.1c0.1,0,0.2-0.1,0.3-0.1c0.1,0,0.2,0,0.3,0c0.1,0,0.1,0.1,0.2,0.2
		c0,0.1,0.1,0.3,0.1,0.5v1.9c0,0.2,0,0.4-0.1,0.5c0,0.2-0.1,0.3-0.2,0.4c-0.1,0.1-0.2,0.2-0.3,0.3c-0.1,0.1-0.2,0.2-0.3,0.2
		c-0.1,0.1-0.2,0.1-0.3,0.2c-0.1,0.1-0.2,0.1-0.3,0.1c-0.1,0-0.2,0.1-0.3,0.1c-0.1,0-0.2,0-0.3,0s-0.1-0.1-0.2-0.2
		C70.8,84.3,70.8,84.1,70.8,83.9L70.8,83.9z M71.5,81.6v2c0,0.2,0,0.3,0.1,0.3c0,0,0.2,0,0.4-0.1c0.2-0.1,0.3-0.2,0.4-0.3
		c0-0.1,0.1-0.2,0.1-0.4v-2c0-0.2,0-0.3-0.1-0.3c0,0-0.2,0-0.4,0.1c-0.2,0.1-0.3,0.2-0.4,0.3C71.5,81.3,71.5,81.5,71.5,81.6
		L71.5,81.6z"/>
	<path class="st17" d="M74,82.4v-1.9c0-0.2,0-0.4,0.1-0.5c0-0.2,0.1-0.3,0.2-0.4c0.1-0.1,0.1-0.2,0.3-0.3c0.1-0.1,0.2-0.2,0.3-0.2
		c0.1-0.1,0.2-0.1,0.3-0.2c0.1-0.1,0.2-0.1,0.3-0.1c0.1,0,0.2-0.1,0.3-0.1c0.1,0,0.2,0,0.3,0c0.1,0,0.1,0.1,0.2,0.2
		c0,0.1,0.1,0.3,0.1,0.5v1.9c0,0.2,0,0.4-0.1,0.5c0,0.2-0.1,0.3-0.2,0.4c-0.1,0.1-0.2,0.2-0.3,0.3c-0.1,0.1-0.2,0.2-0.3,0.2
		c-0.1,0.1-0.2,0.1-0.3,0.2C74.9,83,74.8,83,74.7,83c-0.1,0-0.2,0.1-0.3,0.1c-0.1,0-0.2,0-0.3,0c-0.1,0-0.1-0.1-0.2-0.2
		C74,82.7,74,82.6,74,82.4L74,82.4z M74.6,80.1v2c0,0.2,0,0.3,0.1,0.3c0,0,0.2,0,0.4-0.1c0.2-0.1,0.3-0.2,0.4-0.3
		c0-0.1,0.1-0.2,0.1-0.4v-2c0-0.2,0-0.3-0.1-0.3c0,0-0.2,0-0.4,0.1c-0.2,0.1-0.3,0.2-0.4,0.3C74.7,79.7,74.6,79.9,74.6,80.1
		L74.6,80.1z"/>
	<path class="st17" d="M77.1,80.8v-1.9c0-0.2,0-0.4,0.1-0.5c0-0.2,0.1-0.3,0.2-0.4c0.1-0.1,0.1-0.2,0.3-0.3c0.1-0.1,0.2-0.2,0.3-0.2
		c0.1-0.1,0.2-0.1,0.3-0.2c0.1-0.1,0.2-0.1,0.3-0.1c0.1,0,0.2-0.1,0.3-0.1c0.1,0,0.2,0,0.3,0c0.1,0,0.1,0.1,0.2,0.2
		c0,0.1,0.1,0.3,0.1,0.5v1.9c0,0.2,0,0.4-0.1,0.5c0,0.2-0.1,0.3-0.2,0.4c-0.1,0.1-0.2,0.2-0.3,0.3c-0.1,0.1-0.2,0.2-0.3,0.2
		c-0.1,0.1-0.2,0.1-0.3,0.2c-0.1,0.1-0.2,0.1-0.3,0.1c-0.1,0-0.2,0.1-0.3,0.1c-0.1,0-0.2,0-0.3,0c-0.1,0-0.1-0.1-0.2-0.2
		C77.1,81.1,77.1,81,77.1,80.8L77.1,80.8z M77.8,78.5v2c0,0.2,0,0.3,0.1,0.3c0,0,0.2,0,0.4-0.1c0.2-0.1,0.3-0.2,0.4-0.3
		c0-0.1,0.1-0.2,0.1-0.4v-2c0-0.2,0-0.3-0.1-0.3c0,0-0.2,0-0.4,0.1c-0.2,0.1-0.3,0.2-0.4,0.3C77.8,78.2,77.8,78.3,77.8,78.5
		L77.8,78.5z"/>
	<path class="st17" d="M81.8,78.4v-1.9c0-0.2,0-0.4,0.1-0.5c0-0.2,0.1-0.3,0.2-0.4c0.1-0.1,0.1-0.2,0.3-0.3c0.1-0.1,0.2-0.2,0.3-0.2
		c0.1-0.1,0.2-0.1,0.3-0.2c0.1-0.1,0.2-0.1,0.3-0.1c0.1,0,0.2-0.1,0.3-0.1c0.1,0,0.2,0,0.3,0c0.1,0,0.1,0.1,0.2,0.2
		c0,0.1,0.1,0.3,0.1,0.5v1.9c0,0.2,0,0.4-0.1,0.5c0,0.2-0.1,0.3-0.2,0.4c-0.1,0.1-0.2,0.2-0.3,0.3c-0.1,0.1-0.2,0.2-0.3,0.2
		c-0.1,0.1-0.2,0.1-0.3,0.2c-0.1,0.1-0.2,0.1-0.3,0.1c-0.1,0-0.2,0.1-0.3,0.1c-0.1,0-0.2,0-0.3,0c-0.1,0-0.1-0.1-0.2-0.2
		C81.8,78.8,81.8,78.6,81.8,78.4L81.8,78.4z M82.5,76.1v2c0,0.2,0,0.3,0.1,0.3c0,0,0.2,0,0.4-0.1c0.2-0.1,0.3-0.2,0.4-0.3
		c0-0.1,0.1-0.2,0.1-0.4v-2c0-0.2,0-0.3-0.1-0.3c0,0-0.2,0-0.4,0.1c-0.2,0.1-0.3,0.2-0.4,0.3C82.5,75.8,82.5,76,82.5,76.1L82.5,76.1
		z"/>
	<path class="st17" d="M85,76.9V75c0-0.2,0-0.4,0.1-0.5c0-0.2,0.1-0.3,0.2-0.4c0.1-0.1,0.1-0.2,0.3-0.3c0.1-0.1,0.2-0.2,0.3-0.2
		c0.1-0.1,0.2-0.1,0.3-0.2c0.1-0.1,0.2-0.1,0.3-0.1c0.1,0,0.2-0.1,0.3-0.1c0.1,0,0.2,0,0.3,0c0.1,0,0.1,0.1,0.2,0.2s0.1,0.3,0.1,0.5
		v1.9c0,0.2,0,0.4-0.1,0.5c0,0.2-0.1,0.3-0.2,0.4c-0.1,0.1-0.2,0.2-0.3,0.3c-0.1,0.1-0.2,0.2-0.3,0.2c-0.1,0.1-0.2,0.1-0.3,0.2
		c-0.1,0.1-0.2,0.1-0.3,0.1c-0.1,0-0.2,0.1-0.3,0.1c-0.1,0-0.2,0-0.3,0c-0.1,0-0.1-0.1-0.2-0.2C85,77.2,85,77.1,85,76.9L85,76.9z
		 M85.6,74.6v2c0,0.2,0,0.3,0.1,0.3c0,0,0.2,0,0.4-0.1c0.2-0.1,0.3-0.2,0.4-0.3c0-0.1,0.1-0.2,0.1-0.4v-2c0-0.2,0-0.3-0.1-0.3
		c0,0-0.2,0-0.4,0.1c-0.2,0.1-0.3,0.2-0.4,0.3C85.7,74.2,85.6,74.4,85.6,74.6L85.6,74.6z"/>
	<path class="st17" d="M88.1,75.3v-1.9c0-0.2,0-0.4,0.1-0.5c0-0.2,0.1-0.3,0.2-0.4c0.1-0.1,0.1-0.2,0.3-0.3c0.1-0.1,0.2-0.2,0.3-0.2
		c0.1-0.1,0.2-0.1,0.3-0.2c0.1-0.1,0.2-0.1,0.3-0.1c0.1,0,0.2-0.1,0.3-0.1c0.1,0,0.2,0,0.3,0c0.1,0,0.1,0.1,0.2,0.2
		c0,0.1,0.1,0.3,0.1,0.5v1.9c0,0.2,0,0.4-0.1,0.5c0,0.2-0.1,0.3-0.2,0.4c-0.1,0.1-0.2,0.2-0.3,0.3c-0.1,0.1-0.2,0.2-0.3,0.2
		c-0.1,0.1-0.2,0.1-0.3,0.2c-0.1,0.1-0.2,0.1-0.3,0.1c-0.1,0-0.2,0.1-0.3,0.1c-0.1,0-0.2,0-0.3,0c-0.1,0-0.1-0.1-0.2-0.2
		C88.1,75.6,88.1,75.5,88.1,75.3L88.1,75.3z M88.8,73v2c0,0.2,0,0.3,0.1,0.3c0,0,0.2,0,0.4-0.1c0.2-0.1,0.3-0.2,0.4-0.3
		c0-0.1,0.1-0.2,0.1-0.4v-2c0-0.2,0-0.3-0.1-0.3c0,0-0.2,0-0.4,0.1c-0.2,0.1-0.3,0.2-0.4,0.3C88.8,72.7,88.8,72.8,88.8,73L88.8,73z"
		/>
	<path class="st17" d="M91.3,73.7v-1.9c0-0.2,0-0.4,0.1-0.5c0-0.2,0.1-0.3,0.2-0.4c0.1-0.1,0.1-0.2,0.3-0.3c0.1-0.1,0.2-0.2,0.3-0.2
		c0.1-0.1,0.2-0.1,0.3-0.2c0.1-0.1,0.2-0.1,0.3-0.1c0.1,0,0.2-0.1,0.3-0.1c0.1,0,0.2,0,0.3,0c0.1,0,0.1,0.1,0.2,0.2
		c0,0.1,0.1,0.3,0.1,0.5v1.9c0,0.2,0,0.4-0.1,0.5c0,0.2-0.1,0.3-0.2,0.4c-0.1,0.1-0.2,0.2-0.3,0.3c-0.1,0.1-0.2,0.2-0.3,0.2
		c-0.1,0.1-0.2,0.1-0.3,0.2c-0.1,0.1-0.2,0.1-0.3,0.1c-0.1,0-0.2,0.1-0.3,0.1c-0.1,0-0.2,0-0.3,0c-0.1,0-0.1-0.1-0.2-0.2
		C91.3,74.1,91.3,73.9,91.3,73.7L91.3,73.7z M92,71.4v2c0,0.2,0,0.3,0.1,0.3c0,0,0.2,0,0.4-0.1c0.2-0.1,0.3-0.2,0.4-0.3
		c0-0.1,0.1-0.2,0.1-0.4v-2c0-0.2,0-0.3-0.1-0.3c0,0-0.2,0-0.4,0.1c-0.2,0.1-0.3,0.2-0.4,0.3C92,71.1,92,71.2,92,71.4L92,71.4z"/>
	<path class="st17" d="M96,71.4v-1.9c0-0.2,0-0.4,0.1-0.5c0-0.2,0.1-0.3,0.2-0.4c0.1-0.1,0.1-0.2,0.3-0.3c0.1-0.1,0.2-0.2,0.3-0.2
		c0.1-0.1,0.2-0.1,0.3-0.2c0.1-0.1,0.2-0.1,0.3-0.1c0.1,0,0.2-0.1,0.3-0.1c0.1,0,0.2,0,0.3,0c0.1,0,0.1,0.1,0.2,0.2
		c0,0.1,0.1,0.3,0.1,0.5v1.9c0,0.2,0,0.4-0.1,0.5c0,0.2-0.1,0.3-0.2,0.4c-0.1,0.1-0.2,0.2-0.3,0.3c-0.1,0.1-0.2,0.2-0.3,0.2
		c-0.1,0.1-0.2,0.1-0.3,0.2C96.9,72,96.8,72,96.7,72c-0.1,0-0.2,0.1-0.3,0.1c-0.1,0-0.2,0-0.3,0c-0.1,0-0.1-0.1-0.2-0.2
		C96,71.7,96,71.6,96,71.4L96,71.4z M96.6,69.1v2c0,0.2,0,0.3,0.1,0.3c0,0,0.2,0,0.4-0.1c0.2-0.1,0.3-0.2,0.4-0.3
		c0-0.1,0.1-0.2,0.1-0.4v-2c0-0.2,0-0.3-0.1-0.3c0,0-0.2,0-0.4,0.1c-0.2,0.1-0.3,0.2-0.4,0.3C96.7,68.7,96.6,68.9,96.6,69.1
		L96.6,69.1z"/>
	<path class="st17" d="M99.1,69.8v-1.9c0-0.2,0-0.4,0.1-0.5c0-0.2,0.1-0.3,0.2-0.4c0.1-0.1,0.1-0.2,0.3-0.3c0.1-0.1,0.2-0.2,0.3-0.2
		c0.1-0.1,0.2-0.1,0.3-0.2c0.1-0.1,0.2-0.1,0.3-0.1c0.1,0,0.2-0.1,0.3-0.1c0.1,0,0.2,0,0.3,0c0.1,0,0.1,0.1,0.2,0.2
		c0,0.1,0.1,0.3,0.1,0.5v1.9c0,0.2,0,0.4-0.1,0.5c0,0.2-0.1,0.3-0.2,0.4c-0.1,0.1-0.2,0.2-0.3,0.3c-0.1,0.1-0.2,0.2-0.3,0.2
		c-0.1,0.1-0.2,0.1-0.3,0.2c-0.1,0.1-0.2,0.1-0.3,0.1c-0.1,0-0.2,0.1-0.3,0.1c-0.1,0-0.2,0-0.3,0c-0.1,0-0.1-0.1-0.2-0.2
		C99.1,70.1,99.1,70,99.1,69.8L99.1,69.8z M99.8,67.5v2c0,0.2,0,0.3,0.1,0.3c0,0,0.2,0,0.4-0.1c0.2-0.1,0.3-0.2,0.4-0.3
		c0-0.1,0.1-0.2,0.1-0.4v-2c0-0.2,0-0.3-0.1-0.3c0,0-0.2,0-0.4,0.1c-0.2,0.1-0.3,0.2-0.4,0.3C99.8,67.2,99.8,67.3,99.8,67.5
		L99.8,67.5z"/>
	<path class="st17" d="M102.3,68.2v-1.9c0-0.2,0-0.4,0.1-0.5c0-0.2,0.1-0.3,0.2-0.4c0.1-0.1,0.1-0.2,0.3-0.3
		c0.1-0.1,0.2-0.2,0.3-0.2c0.1-0.1,0.2-0.1,0.3-0.2c0.1-0.1,0.2-0.1,0.3-0.1c0.1,0,0.2-0.1,0.3-0.1c0.1,0,0.2,0,0.3,0
		c0.1,0,0.1,0.1,0.2,0.2c0,0.1,0.1,0.3,0.1,0.5v1.9c0,0.2,0,0.4-0.1,0.5c0,0.2-0.1,0.3-0.2,0.4c-0.1,0.1-0.2,0.2-0.3,0.3
		c-0.1,0.1-0.2,0.2-0.3,0.2c-0.1,0.1-0.2,0.1-0.3,0.2c-0.1,0.1-0.2,0.1-0.3,0.1c-0.1,0-0.2,0.1-0.3,0.1c-0.1,0-0.2,0-0.3,0
		c-0.1,0-0.1-0.1-0.2-0.2C102.3,68.6,102.3,68.4,102.3,68.2L102.3,68.2z M103,65.9v2c0,0.2,0,0.3,0.1,0.3c0,0,0.2,0,0.4-0.1
		c0.2-0.1,0.3-0.2,0.4-0.3c0-0.1,0.1-0.2,0.1-0.4v-2c0-0.2,0-0.3-0.1-0.3c0,0-0.2,0-0.4,0.1c-0.2,0.1-0.3,0.2-0.4,0.3
		C103,65.6,103,65.7,103,65.9L103,65.9z"/>
	<path class="st17" d="M105.4,66.6v-1.9c0-0.2,0-0.4,0.1-0.5c0-0.2,0.1-0.3,0.2-0.4c0.1-0.1,0.1-0.2,0.3-0.3
		c0.1-0.1,0.2-0.2,0.3-0.2c0.1-0.1,0.2-0.1,0.3-0.2c0.1-0.1,0.2-0.1,0.3-0.1c0.1,0,0.2-0.1,0.3-0.1c0.1,0,0.2,0,0.3,0
		c0.1,0,0.1,0.1,0.2,0.2c0,0.1,0.1,0.3,0.1,0.5v1.9c0,0.2,0,0.4-0.1,0.5c0,0.2-0.1,0.3-0.2,0.4c-0.1,0.1-0.2,0.2-0.3,0.3
		c-0.1,0.1-0.2,0.2-0.3,0.2c-0.1,0.1-0.2,0.1-0.3,0.2c-0.1,0.1-0.2,0.1-0.3,0.1c-0.1,0-0.2,0.1-0.3,0.1c-0.1,0-0.2,0-0.3,0
		s-0.1-0.1-0.2-0.2C105.5,67,105.4,66.8,105.4,66.6L105.4,66.6z M106.1,64.3v2c0,0.2,0,0.3,0.1,0.3s0.2,0,0.4-0.1
		c0.2-0.1,0.3-0.2,0.4-0.3c0-0.1,0.1-0.2,0.1-0.4v-2c0-0.2,0-0.3-0.1-0.3c0,0-0.2,0-0.4,0.1c-0.2,0.1-0.3,0.2-0.4,0.3
		C106.1,64,106.1,64.1,106.1,64.3L106.1,64.3z"/>
	<path class="st17" d="M79.5,84V83c0-0.1,0-0.2,0-0.3c0-0.1,0.1-0.2,0.1-0.2c0-0.1,0.1-0.1,0.1-0.2c0.1-0.1,0.1-0.1,0.2-0.1
		c0.1,0,0.1-0.1,0.2-0.1c0.1,0,0.1-0.1,0.2-0.1c0,0,0.1,0,0.2,0c0.1,0,0.1,0,0.1,0c0,0,0.1,0.1,0.1,0.1c0,0.1,0,0.2,0,0.3v1.1
		c0,0.1,0,0.2,0,0.3c0,0.1-0.1,0.2-0.1,0.2c0,0.1-0.1,0.1-0.1,0.2c-0.1,0.1-0.1,0.1-0.2,0.1c0,0-0.1,0.1-0.2,0.1
		c-0.1,0-0.1,0.1-0.2,0.1c0,0-0.1,0-0.2,0c-0.1,0-0.1,0-0.1,0c0,0-0.1-0.1-0.1-0.1C79.5,84.2,79.5,84.1,79.5,84L79.5,84z M79.9,82.7
		v1.1c0,0.1,0,0.2,0,0.2c0,0,0.1,0,0.2-0.1c0.1-0.1,0.2-0.1,0.2-0.1c0,0,0-0.1,0-0.2v-1.1c0-0.1,0-0.2,0-0.2c0,0-0.1,0-0.2,0.1
		c-0.1,0.1-0.2,0.1-0.2,0.1C79.9,82.6,79.9,82.6,79.9,82.7L79.9,82.7z"/>
	<path class="st17" d="M81.3,83.1v-1.1c0-0.1,0-0.2,0-0.3c0-0.1,0.1-0.2,0.1-0.2c0-0.1,0.1-0.1,0.1-0.2c0.1-0.1,0.1-0.1,0.2-0.1
		c0,0,0.1-0.1,0.2-0.1c0.1,0,0.1-0.1,0.2-0.1c0,0,0.1,0,0.2,0c0.1,0,0.1,0,0.1,0c0,0,0.1,0.1,0.1,0.1c0,0.1,0,0.2,0,0.3v1.1
		c0,0.1,0,0.2,0,0.3c0,0.1-0.1,0.2-0.1,0.2c0,0.1-0.1,0.1-0.1,0.2c-0.1,0.1-0.1,0.1-0.2,0.1c0,0-0.1,0.1-0.2,0.1
		c-0.1,0-0.1,0.1-0.2,0.1c0,0-0.1,0-0.2,0c-0.1,0-0.1,0-0.1,0c0,0-0.1-0.1-0.1-0.1C81.3,83.3,81.3,83.3,81.3,83.1L81.3,83.1z
		 M81.6,81.9V83c0,0.1,0,0.2,0,0.2c0,0,0.1,0,0.2-0.1C82,83.1,82,83,82.1,83c0,0,0-0.1,0-0.2v-1.1c0-0.1,0-0.2,0-0.2
		c0,0-0.1,0-0.2,0.1c-0.1,0.1-0.2,0.1-0.2,0.1C81.6,81.7,81.6,81.8,81.6,81.9L81.6,81.9z"/>
	<polygon class="st17" points="84,80.1 83.1,82.8 82.9,82.9 83.7,80.2 84,80.1 	"/>
	<path class="st17" d="M84.4,81.6v-1.1c0-0.1,0-0.2,0-0.3c0-0.1,0.1-0.2,0.1-0.2c0-0.1,0.1-0.1,0.1-0.2c0.1-0.1,0.1-0.1,0.2-0.1
		c0,0,0.1-0.1,0.2-0.1c0.1,0,0.1-0.1,0.2-0.1c0,0,0.1,0,0.2,0c0.1,0,0.1,0,0.1,0c0,0,0.1,0.1,0.1,0.1c0,0.1,0,0.2,0,0.3V81
		c0,0.1,0,0.2,0,0.3c0,0.1-0.1,0.2-0.1,0.2c0,0.1-0.1,0.1-0.1,0.2c-0.1,0.1-0.1,0.1-0.2,0.1c0,0-0.1,0.1-0.2,0.1
		c-0.1,0-0.1,0.1-0.2,0.1c-0.1,0-0.1,0-0.2,0c-0.1,0-0.1,0-0.1,0c0,0-0.1-0.1-0.1-0.1C84.4,81.8,84.4,81.7,84.4,81.6L84.4,81.6z
		 M84.8,80.3v1.1c0,0.1,0,0.2,0,0.2c0,0,0.1,0,0.2-0.1c0.1-0.1,0.2-0.1,0.2-0.1c0,0,0-0.1,0-0.2v-1.1c0-0.1,0-0.2,0-0.2
		c0,0-0.1,0-0.2,0.1c-0.1,0.1-0.2,0.1-0.2,0.1C84.8,80.1,84.8,80.2,84.8,80.3L84.8,80.3z"/>
	<path class="st17" d="M86.1,80.7v-1.1c0-0.1,0-0.2,0-0.3c0-0.1,0.1-0.2,0.1-0.2c0-0.1,0.1-0.1,0.1-0.2c0.1-0.1,0.1-0.1,0.2-0.1
		c0,0,0.1-0.1,0.2-0.1c0.1,0,0.1-0.1,0.2-0.1c0,0,0.1,0,0.2,0c0.1,0,0.1,0,0.1,0c0,0,0.1,0.1,0.1,0.1c0,0.1,0,0.2,0,0.3v1.1
		c0,0.1,0,0.2,0,0.3c0,0.1-0.1,0.2-0.1,0.2c0,0.1-0.1,0.1-0.1,0.2c-0.1,0.1-0.1,0.1-0.2,0.1c0,0-0.1,0.1-0.2,0.1
		c-0.1,0-0.1,0.1-0.2,0.1c-0.1,0-0.1,0-0.2,0c-0.1,0-0.1,0-0.1,0c0,0-0.1-0.1-0.1-0.1C86.1,80.9,86.1,80.8,86.1,80.7L86.1,80.7z
		 M86.5,79.4v1.1c0,0.1,0,0.2,0,0.2c0,0,0.1,0,0.2-0.1c0.1-0.1,0.2-0.1,0.2-0.1c0,0,0-0.1,0-0.2v-1.1c0-0.1,0-0.2,0-0.2
		s-0.1,0-0.2,0.1c-0.1,0.1-0.2,0.1-0.2,0.1C86.5,79.2,86.5,79.3,86.5,79.4L86.5,79.4z"/>
	<path class="st17" d="M54.7,101.9c-0.2,0.1-0.3,0.2-0.5,0.3c-0.1,0-0.1,0.1-0.2,0.1c-0.1,0-0.1,0-0.2,0c-0.1,0-0.1,0-0.2,0
		c0,0-0.1-0.1-0.1-0.1c0-0.1,0-0.2,0-0.3v-1c0-0.5,0.2-0.8,0.7-1c0.1-0.1,0.3-0.1,0.5-0.2v0.4c-0.2,0-0.3,0.1-0.5,0.1
		c-0.1,0-0.1,0-0.1,0.1c0,0-0.1,0-0.1,0.1c0,0-0.1,0.1-0.1,0.1c0,0,0,0.1,0,0.2v1c0,0.2,0.1,0.2,0.4,0.1c0.1-0.1,0.3-0.2,0.4-0.3
		V101.9L54.7,101.9z"/>
	<path class="st17" d="M56.4,101.1l-0.4,0.2l-0.1-0.5l-0.5,0.3l-0.1,0.7l-0.3,0.2l0.5-2.5l0.4-0.2L56.4,101.1L56.4,101.1z
		 M55.9,100.4l-0.2-0.8l0,0l-0.2,0.9L55.9,100.4L55.9,100.4z"/>
	<path class="st17" d="M58.1,100.2l-0.4,0.2l-0.4-0.7l-0.2,0.1v0.9l-0.3,0.2v-2.3l0.7-0.3c0.2-0.1,0.3-0.1,0.4-0.1
		c0.1,0,0.1,0.1,0.1,0.3v0.4c0,0.1,0,0.3-0.1,0.4c-0.1,0.1-0.1,0.2-0.2,0.3L58.1,100.2L58.1,100.2z M57.7,98.9v-0.2
		c0-0.1,0-0.1,0-0.1c0,0-0.1,0-0.2,0l-0.3,0.2v0.6l0.3-0.1c0.1,0,0.1-0.1,0.2-0.1C57.7,99.1,57.7,99,57.7,98.9L57.7,98.9z"/>
	<path class="st17" d="M59.8,97.8v0.9c0,0.3-0.1,0.5-0.2,0.6c-0.1,0.1-0.3,0.3-0.5,0.4l-0.6,0.3v-2.3l0.6-0.3
		c0.2-0.1,0.4-0.2,0.5-0.1C59.8,97.4,59.8,97.5,59.8,97.8L59.8,97.8z M59.5,98.9v-0.9c0-0.1,0-0.2-0.1-0.2c-0.1,0-0.1,0-0.3,0.1
		L58.9,98v1.5l0.3-0.1c0.1-0.1,0.2-0.1,0.3-0.2C59.5,99.1,59.5,99,59.5,98.9L59.5,98.9z"/>
	<polygon class="st17" points="61.7,98.4 61.3,98.6 61.3,97.6 60.7,98 60.7,98.9 60.4,99.1 60.4,96.8 60.7,96.7 60.7,97.6 
		61.3,97.3 61.3,96.4 61.7,96.2 61.7,98.4 	"/>
	<path class="st17" d="M63.6,95.9v1c0,0.1,0,0.2-0.1,0.4c0,0.1-0.1,0.2-0.2,0.3c-0.1,0.1-0.1,0.2-0.2,0.2c-0.1,0.1-0.2,0.1-0.2,0.1
		c-0.1,0-0.2,0.1-0.2,0.1c-0.1,0-0.1,0-0.2,0c-0.1,0-0.1,0-0.2-0.1c0-0.1-0.1-0.2-0.1-0.3v-1c0-0.1,0-0.2,0.1-0.3
		c0-0.1,0.1-0.2,0.1-0.3c0-0.1,0.1-0.1,0.2-0.2c0.1-0.1,0.1-0.1,0.2-0.1c0.1,0,0.1-0.1,0.2-0.1c0.1,0,0.1-0.1,0.2-0.1
		c0.1,0,0.1,0,0.2,0c0.1,0,0.1,0,0.2,0c0,0,0.1,0.1,0.1,0.1C63.5,95.7,63.6,95.8,63.6,95.9L63.6,95.9z M63.2,97.1v-1
		c0-0.1,0-0.2-0.1-0.2c-0.1,0-0.1,0-0.3,0.1c-0.1,0.1-0.2,0.1-0.3,0.2c-0.1,0.1-0.1,0.2-0.1,0.3v1c0,0.1,0,0.1,0,0.1c0,0,0,0,0.1,0
		c0,0,0.1,0,0.1,0c0,0,0.1,0,0.1-0.1c0,0,0.1,0,0.1-0.1c0,0,0.1-0.1,0.1-0.1c0,0,0.1-0.1,0.1-0.1C63.2,97.2,63.2,97.1,63.2,97.1
		L63.2,97.1z"/>
	<polygon class="st17" points="65.1,96.7 64.1,97.2 64.1,95 64.4,94.8 64.4,96.7 65.1,96.3 65.1,96.7 	"/>
	<path class="st17" d="M66.9,94.3v0.9c0,0.3-0.1,0.5-0.2,0.6c-0.1,0.1-0.3,0.3-0.5,0.4l-0.6,0.3v-2.3l0.6-0.3
		c0.2-0.1,0.4-0.2,0.5-0.1C66.8,93.8,66.9,94,66.9,94.3L66.9,94.3z M66.5,95.3v-0.9c0-0.1,0-0.2-0.1-0.2c-0.1,0-0.1,0-0.3,0.1
		l-0.3,0.1v1.5l0.3-0.1c0.1-0.1,0.2-0.1,0.3-0.2C66.5,95.6,66.5,95.5,66.5,95.3L66.5,95.3z"/>
	<polygon class="st17" points="68.5,95 67.4,95.6 67.4,93.3 68.5,92.8 68.5,93.1 67.7,93.5 67.7,94 68.4,93.7 68.4,94.1 67.7,94.4 
		67.7,95 68.5,94.6 68.5,95 	"/>
	<path class="st17" d="M70.3,94.1l-0.4,0.2l-0.4-0.7l-0.2,0.1v0.9L69,94.8v-2.3l0.7-0.3c0.2-0.1,0.3-0.1,0.4-0.1
		c0.1,0,0.1,0.1,0.1,0.3v0.4c0,0.1,0,0.3-0.1,0.4c-0.1,0.1-0.1,0.2-0.2,0.3L70.3,94.1L70.3,94.1z M69.8,92.9v-0.2c0-0.1,0-0.1,0-0.1
		c0,0-0.1,0-0.2,0l-0.3,0.1v0.6l0.3-0.1c0.1,0,0.1-0.1,0.2-0.1C69.8,93,69.8,93,69.8,92.9L69.8,92.9z"/>
	<polygon class="st17" points="72.8,92.9 72.5,93 71.8,91.8 71.8,93.4 71.4,93.6 71.4,91.3 71.8,91.1 72.5,92.3 72.5,90.8 
		72.8,90.6 72.8,92.9 	"/>
	<path class="st17" d="M74.7,91.9l-0.4,0.2l-0.1-0.5l-0.5,0.3l-0.1,0.7l-0.3,0.2l0.5-2.5l0.4-0.2L74.7,91.9L74.7,91.9z M74.1,91.3
		l-0.2-0.8l0,0l-0.2,0.9L74.1,91.3L74.1,91.3z"/>
	<polygon class="st17" points="76.7,90.9 76.4,91.1 76.4,89.4 76.4,89.4 76.1,91.2 75.8,91.4 75.4,89.9 75.4,89.9 75.4,91.6 
		75.1,91.7 75.1,89.5 75.6,89.2 75.9,90.7 76.3,88.9 76.7,88.6 76.7,90.9 	"/>
	<polygon class="st17" points="78.4,90.1 77.3,90.6 77.3,88.4 78.4,87.8 78.4,88.2 77.6,88.6 77.6,89.1 78.3,88.8 78.3,89.1 
		77.6,89.5 77.6,90.1 78.4,89.7 78.4,90.1 	"/>
	<g>
		<path class="st18" d="M120.9,72.4L120.9,72.4v30.7l0,0c0,0.5-0.5,1-1.3,1.5l-29.2,14.6c-1.5,0.8-3.7,0.9-4.9,0.3l-4.4-2.2
			c-0.5-0.3-0.8-0.6-0.8-1l0,0V85.6l0,0c0,0.4,0.3,0.7,0.8,1l4.4,2.2c1.2,0.6,3.4,0.5,4.9-0.3l29.2-14.6
			C120.5,73.5,120.9,72.9,120.9,72.4L120.9,72.4z"/>
		<path class="st19" d="M86.4,89.1c1.2,0.2,2.8,0,4-0.6l29.2-14.6c0.9-0.4,1.3-1,1.3-1.5l0,0v30.7l0,0c0,0.5-0.5,1-1.3,1.5
			l-29.2,14.6c-1.2,0.6-2.8,0.8-4,0.6V89.1L86.4,89.1z"/>
		<path class="st20" d="M119.6,73.9c1.5-0.8,1.8-1.9,0.5-2.5l-4.4-2.2c-1.2-0.6-3.4-0.5-4.9,0.3L81.7,84.1c-1.5,0.8-1.8,1.9-0.5,2.5
			l4.4,2.2c1.2,0.6,3.4,0.5,4.9-0.3L119.6,73.9L119.6,73.9z"/>
		<path class="st21" d="M90.2,82.4c2.1,0,3.7,0.8,3.7,1.9c0,1-1.7,1.9-3.7,1.9c-2.1,0-3.7-0.8-3.7-1.9
			C86.5,83.2,88.1,82.4,90.2,82.4L90.2,82.4z"/>
		<path class="st21" d="M112.1,71.4c2.1,0,3.7,0.8,3.7,1.9c0,1-1.7,1.9-3.7,1.9c-2.1,0-3.7-0.8-3.7-1.9
			C108.3,72.3,110,71.4,112.1,71.4L112.1,71.4z"/>
		<path class="st22" d="M87,84.2c0-5.4,0-8.9,0-14.3c0-6.4,2.8-12.7,6.9-17.4c2.9-3.2,6.7-5.8,10.9-6c0.2,0,0.3,0,0.5,0
			c3,0,5.8,1.5,7.6,4c0.7,0.9,1.2,2,1.6,3.1c0,0,0,0.1,0,0.1c0.6,1.7,0.8,3.5,0.8,5.3c0,4.4,0,9.9,0,14.2l-6.4,0.1
			c0-5.4,0-8.9,0-14.3c0-1.5-0.2-3.2-1-4.5c-0.6-0.9-1.5-1.6-2.6-1.6c0,0,0,0-0.1,0c-1.7,0-3.3,1-4.7,2c-2,1.6-3.6,3.8-4.8,6.1
			c-1.4,2.7-2.3,5.8-2.3,8.8c0,4.4,0,10,0,14.4H87L87,84.2z"/>
		<path class="st22" d="M90.2,82.6c1.8,0,3.2,0.7,3.2,1.6c0,0.9-1.4,1.6-3.2,1.6c-1.8,0-3.2-0.7-3.2-1.6
			C87,83.4,88.4,82.6,90.2,82.6L90.2,82.6z"/>
		<path class="st22" d="M112.1,71.7c1.8,0,3.2,0.7,3.2,1.6s-1.4,1.6-3.2,1.6c-1.8,0-3.2-0.7-3.2-1.6S110.3,71.7,112.1,71.7
			L112.1,71.7z"/>
		<path class="st23" d="M95.5,53.6c-7,7.8-7.3,18.7-7.5,16.9c-0.5-6.4,2.5-12.9,6.7-17.5c2.9-3.2,6.7-5.8,10.9-6c0.2,0,0.8,0,1,0
			C102.5,47.8,98.4,50.4,95.5,53.6L95.5,53.6z"/>
		<path class="st24" d="M115.3,73.4c0-5.6,0-8,0-12.1c0-13.6-11.1-12.9-16.4-8.5c-4.5,3.7-8.1,8-8.4,25.3c0,0.8,0,6.9,0,7.8
			c1.3-0.1,2.9-0.6,2.9-1.6c0-0.9,0-5.2,0-6.1c-0.1-6,0.2-11.2,1.9-16.2c2.3-5,4.3-6.6,7.2-8.3c4.4-2.6,10.7-0.8,10.6,7.8
			c0,1.1,0,11.4-0.1,13.3C114.1,74.6,115.2,74.1,115.3,73.4L115.3,73.4z"/>
		<path class="st21" d="M103.6,98.5c-1.5,0.1-2.5-1.1-2.5-3c0-2.5,1.7-5.4,3.8-6.4c2.1-1,3.8,0.1,3.8,2.6c0,2-1,4.1-2.5,5.5v5.1
			c0,0.7-0.6,1.6-1.3,2c-0.7,0.4-1.3,0.1-1.3-0.6V98.5L103.6,98.5z"/>
	</g>
</g>
</svg>
