<svg xmlns="http://www.w3.org/2000/svg" width="12" height="12"><g fill="none" fill-rule="evenodd"><circle cx="6" cy="6" r="6" fill="#E8E9EB"/><path d="M5.353 7.5a23.895 23.895 0 01-.005-.305c0-.374.065-.682.195-.923.13-.243.39-.514.78-.817.39-.302.623-.5.697-.594a.762.762 0 00.177-.49c0-.247-.104-.459-.311-.636-.208-.177-.487-.265-.839-.265-.339 0-.623.093-.852.277-.227.184-.384.466-.47.843L3.5 4.445c.034-.542.276-1.001.724-1.379C4.673 2.69 5.26 2.5 5.99 2.5c.766 0 1.376.192 1.83.574.453.382.68.826.68 1.335 0 .28-.084.546-.25.797-.167.25-.522.592-1.067 1.024-.283.224-.458.404-.526.54s-.099.379-.092.73H5.353zm.049 1h1.177v1H5.402z" fill="#8F96A3"/></g></svg>