<svg xmlns="http://www.w3.org/2000/svg" width="30" height="16"><path d="M25.62 13.806c0 .939.689 1.46 1.523 1.46 1.25 0 2.15-1.064 2.15-2.211 0-.856-.48-1.503-1.5-1.503-1.293 0-2.17 1.128-2.17 2.254M12.164 6.441c.292-.104.542-.188.771-.063.23.126.23.48.084 1.127l-1.168 5.446a4.29 4.29 0 00-.105.959c0 .689.459 1.335 1.356 1.335 1.461 0 2.733-1.043 3.63-2.336l-.48-.46s-.73.732-1.377.732c-.27 0-.438-.146-.312-.647L15.71 7.61c.146-.647.271-1.064.271-1.46 0-.376-.124-1.336-1.335-1.336-.939 0-1.836.439-2.566 1.5l.084.127zm1.543-4.856c-.083.94.584 1.69 1.46 1.69A1.712 1.712 0 0016.9 1.712C16.983.811 16.315 0 15.439 0c-.9.003-1.65.69-1.732 1.585m11.288 11.261c-.293.563-1.712 2.4-4.152 2.4-2.337 0-3.506-1.67-3.506-3.84 0-1.856.898-3.9 2.296-5.11 1.335-1.17 2.545-1.482 3.776-1.482 1.857 0 2.608 1.022 2.608 2.045 0 .813-.564 1.815-1.69 1.815-.626 0-1.127-.334-1.356-1 .292-.25.396-.647.396-1a.725.725 0 00-.75-.71c-1.315 0-2.65 1.628-2.65 4.382 0 1.481.773 2.754 2.274 2.754.773 0 1.585-.146 2.358-.75l.396.496zM7.156 7.984c-.292 1.336-.459 1.879-.939 2.838-.48.94-1.293 2.087-2.315 2.087-.96 0-1.232-.689-1.232-1.65 0-2.17 1.941-5.405 3.881-5.405.5 0 .814.104 1 .334l-.395 1.796zm3.463 4.466s-.668.772-1.377.772c-.292 0-.438-.25-.334-.71l1.544-7.136c-.188-.145-1.522-.563-3.15-.563-1.836 0-3.609.543-5.174 2.317C.5 8.986 0 11.072 0 12.303c0 1.544.667 2.942 2.253 2.942 1.585 0 3.443-1.4 4.694-4.55l.063.021s-.918 2.17-.918 3.234c0 .627.167 1.294 1.19 1.294 1.377 0 2.92-1.043 3.817-2.337l-.48-.457z" fill="#8F96A3"/></svg>