<svg xmlns="http://www.w3.org/2000/svg" width="52" height="40"><path fill="#BCC1CC" fill-rule="evenodd" d="M46.872 0c1.783 0 2.43.186 3.082.534.652.349 1.163.86 1.512 1.512.348.652.534 1.299.534 3.082v29.744c0 1.783-.186 2.43-.534 3.082a3.635 3.635 0 01-1.512 1.512c-.652.348-1.299.534-3.082.534H5.128c-1.783 0-2.43-.186-3.082-.534a3.635 3.635 0 01-1.512-1.512C.186 37.302 0 36.655 0 34.872V5.128c0-1.783.186-2.43.534-3.082A3.635 3.635 0 012.046.534C2.698.186 3.345 0 5.128 0h41.744zM8 32H4v4h4v-4zm8 0h-4v4h4v-4zm8 0h-4v4h4v-4zm8 0h-4v4h4v-4zm8 0h-4v4h4v-4zm8 0h-4v4h4v-4zM23.403 14.105c-.937-.338-1.403.192-1.403.856v10.071c0 .663.8 1.17 1.38.889l9.42-4.714s1.2-.536 1.2-1.2c0-.664-1.2-1.2-1.2-1.2zM8 4H4v4h4V4zm8 0h-4v4h4V4zm8 0h-4v4h4V4zm8 0h-4v4h4V4zm8 0h-4v4h4V4zm8 0h-4v4h4V4z"/></svg>