<svg xmlns="http://www.w3.org/2000/svg" width="20" height="20" fill="none"><path d="M10 20c5.523 0 10-4.477 10-10S15.523 0 10 0 0 4.477 0 10s4.477 10 10 10z" fill="#1E96C8"/><path d="M4.162 9.913l6.734-2.774c.665-.29 2.919-1.214 2.919-1.214s1.04-.405.954.578c-.03.404-.26 1.82-.492 3.352l-.722 4.538s-.058.665-.55.78c-.49.116-1.3-.404-1.444-.52-.116-.087-2.168-1.387-2.92-2.023-.202-.173-.433-.52.03-.925a111.39 111.39 0 003.034-2.89c.347-.347.694-1.156-.751-.173l-4.075 2.745s-.463.29-1.33.03-1.878-.608-1.878-.608-.694-.433.49-.896z" fill="#fff"/></svg>