<svg width="40" height="40" xmlns="http://www.w3.org/2000/svg"><path d="M20 0c11.046 0 20 8.954 20 20s-8.954 20-20 20S0 31.046 0 20 8.954 0 20 0zm5.367 11H14.633C12.63 11 11 12.586 11 14.536v9.928C11 26.414 12.63 28 14.633 28h10.734C27.37 28 29 26.414 29 24.464v-9.928C29 12.586 27.37 11 25.367 11zM20 14.747c2.693 0 4.884 2.132 4.884 4.753S22.693 24.253 20 24.253c-2.693 0-4.884-2.132-4.884-4.753s2.191-4.753 4.884-4.753zm0 1.545c-1.818 0-3.296 1.44-3.296 3.208 0 1.768 1.478 3.207 3.296 3.207 1.818 0 3.296-1.439 3.296-3.207 0-1.768-1.478-3.208-3.296-3.208zm4.859-2.515c.458 0 .828.36.828.806 0 .445-.37.806-.828.806a.817.817 0 01-.828-.806c0-.446.371-.806.828-.806z" fill="#111214" fill-rule="evenodd"/></svg>