<svg xmlns="http://www.w3.org/2000/svg" viewBox="0 0 284.72 159.92"><defs><style>.cls-1{fill:#121212;}.cls-2{fill:#6a6f73;}.cls-3{fill:#52575a;}.cls-4{fill:#c1c4c7;}.cls-5{fill:#95999e;}.cls-6{fill:#a6aaaf;}.cls-7{fill:#81858a;}.cls-8{fill:#6f7479;}.cls-9{fill:#6c7176;}</style></defs><title>sbp</title><g id="Layer_2" data-name="Layer 2"><g id="Layer_1-2" data-name="Layer 1"><path class="cls-1" d="M284.72,59.35V99.22H270.66v-28H257.12v28H243.05V59.35Z"/><path class="cls-1" d="M236.38,81.55c0,11.61-9.67,19.28-22.69,19.28-13.47,0-23.29-8.11-23.29-26.49,0-15.78,10.08-28.77,25-29,6.53,0,20.56-.31,20.56-.31l-6.32,11.6-12.65,0a13.26,13.26,0,0,0-13.1,11.46A19.17,19.17,0,0,1,217.34,63C229.24,63,236.38,70.32,236.38,81.55Zm-14.43,0c0-5.2-3.35-8.25-8.18-8.25-5,0-8.34,3.12-8.34,8.33,0,4.91,3.35,8.48,8.34,8.48C219,90.11,222,86.24,222,81.55Z"/><path class="cls-1" d="M179.25,87.17a22.09,22.09,0,0,1-8.47,2.28c-5.84.17-11-3.42-11-9.82,0-6.25,4.59-9.82,10.88-9.82,3.86,0,9,2.61,9,2.61s3.73-6.7,5.67-10.05a22.82,22.82,0,0,0-13.76-4.07c-13.86,0-24.6,8.84-24.6,21.25,0,12.57,10.09,21.2,24.6,20.94,4.06-.15,9.65-1.54,13.06-3.68Z"/><polygon class="cls-2" points="0 34.81 19.43 69.43 19.43 90.53 0.03 125.08 0 34.81"/><polygon class="cls-3" points="74.59 56.83 92.8 45.71 130.04 45.68 74.59 79.55 74.59 56.83"/><polygon class="cls-4" points="74.49 34.61 74.59 80.43 55.12 68.51 55.12 0 74.49 34.61"/><polygon class="cls-5" points="130.04 45.68 92.8 45.71 74.49 34.61 55.12 0 130.04 45.68"/><polygon class="cls-6" points="74.59 125.28 74.59 103.04 55.12 91.34 55.13 159.92 74.59 125.28"/><polygon class="cls-7" points="92.75 114.26 19.43 69.43 0 34.81 129.97 114.22 92.75 114.26"/><polygon class="cls-8" points="55.13 159.92 74.59 125.28 92.75 114.26 129.97 114.22 55.13 159.92"/><polygon class="cls-9" points="0.03 125.08 55.27 91.34 36.7 79.98 19.43 90.53 0.03 125.08"/></g></g></svg>