<svg width="16" height="16" fill="none" xmlns="http://www.w3.org/2000/svg"><path d="M4.465 6.35L2.343 8.47a3.666 3.666 0 105.186 5.186l.706-.707a1 1 0 10-1.413-1.414l-.708.707a1.667 1.667 0 01-2.357-2.357L5.88 7.763a1.667 1.667 0 011.787-.373c.108.043.208.087.303.13l.309.145c.413.187.731.267 1.136-.137.581-.581.43-1.118-.278-1.607a3.668 3.668 0 00-4.671.428zM8.47 2.342l-.706.706a1 1 0 001.413 1.415l.707-.707a1.666 1.666 0 112.358 2.356L10.12 8.235a1.666 1.666 0 01-1.787.373 5.56 5.56 0 01-.303-.13l-.309-.145c-.413-.187-.732-.267-1.136.137-.581.581-.43 1.118.278 1.607a3.667 3.667 0 004.671-.428l2.122-2.122A3.667 3.667 0 108.47 2.342z" fill="#8F96A3"/></svg>