<svg width="20" height="17" fill="none" xmlns="http://www.w3.org/2000/svg"><path opacity=".8" d="M1.226 7.404L13.14 2.358C14.316 1.832 18.305.15 18.305.15s1.84-.736 1.687 1.051c-.051.736-.46 3.312-.87 6.097l-1.277 8.253s-.103 1.208-.972 1.419c-.87.21-2.3-.736-2.556-.946-.205-.158-3.835-2.523-5.165-3.68-.358-.315-.767-.946.051-1.682 1.841-1.734 4.04-3.89 5.37-5.256.613-.63 1.226-2.102-1.33-.315l-7.21 4.993s-.818.526-2.352.053C2.146 9.664.357 9.033.357 9.033s-1.227-.788.87-1.63z" fill="#fff"/></svg>