<svg xmlns="http://www.w3.org/2000/svg" viewBox="0 0 84.02 87.91"><g id="Layer_2" data-name="Layer 2"><path d="M1.87 49.1l-.44-.25zM69 57.93l.24.44zm13.6-9.08a10.89 10.89 0 01-4.12 14.84 8.46 8.46 0 01-.79.41A9.84 9.84 0 0072 72a10.75 10.75 0 01-11.83 9.55c-.34 0-.68-.09-1-.16l.12-.49-.12.49a9.72 9.72 0 00-9.16 3l-.37-.39.38.33a10.66 10.66 0 01-15.02.85 7.74 7.74 0 01-.81-.81l.37-.33-.37.33a9.67 9.67 0 00-9.16-3A10.74 10.74 0 0112.3 73a9 9 0 01-.16-1 12.23 12.23 0 00-.21-1.21h-.35a1 1 0 01-.71-.35 1 1 0 01-.35-.73l1 .11-1-.11v-.34c0-.23.07-.56.12-1v-.27a9.76 9.76 0 00-4.36-4A10.89 10.89 0 011 49.62a8 8 0 01.4-.77l.88.5A9.86 9.86 0 006 62.8c.25.14.51.27.77.39l-.19.41-.09.2.28-.61a10.69 10.69 0 014.11 3.31c.07-.56.14-1.18.21-1.87s.16-1.47.25-2.29a8.13 8.13 0 00-.81-.47 9.87 9.87 0 01-4.78-5.31 1.5 1.5 0 01-2.37-1.86l1.69-2.16A10.21 10.21 0 016.22 48l.43.23-.44-.23a9.38 9.38 0 000-8.64 10.06 10.06 0 014.36-13.55l.11-.06a9.23 9.23 0 005-6.94 9.87 9.87 0 0111.22-8.34h.3l-.09.49.1-.49a7.22 7.22 0 001.31.16L31.42 8a.57.57 0 01.21-.13l.13-.07h.38l3.21.2a9.57 9.57 0 0113.54-.22c.13.12.24.24.36.36l-.36.35.36-.35a7.83 7.83 0 00.9.83l14.36 1a1 1 0 01.93 1.03l-.19 2.1a10.07 10.07 0 011.26 1.35l2.38-3.36a9.66 9.66 0 00-9.57-3.51l-.1-.48.1.49a10.67 10.67 0 01-10.08-3.38l.38-.33-.38.33a9.69 9.69 0 00-13.67-.73 10.05 10.05 0 00-.73.73 10.67 10.67 0 01-10.15 3.31l.12-.52-.12.49a9.75 9.75 0 00-11.52 7.58 8 8 0 00-.15 1 10.84 10.84 0 01-6.25 8.66 9.85 9.85 0 00-4.88 13.06c.13.28.27.56.42.82a10.93 10.93 0 010 10.74l-.87-.5a10 10 0 000-9.75 10.87 10.87 0 014.08-14.82c.27-.15.54-.29.82-.42A9.83 9.83 0 0012 16v-.05a10.75 10.75 0 0111.85-9.57c.34 0 .68.09 1 .16l-.1.49.1-.49a9.68 9.68 0 009.16-3l.35.31-.36-.31a10.67 10.67 0 0115.1-.81q.42.39.81.81l-.13.14.22-.16a9.72 9.72 0 009.16 3 10.66 10.66 0 0110.39 3.67l2.75-3.88a1.5 1.5 0 012.44 1.74L71.21 13a11.09 11.09 0 01.79 2.93V16l-.5.05.5-.05a9.81 9.81 0 005.68 7.88A10.89 10.89 0 0183 38.3c-.13.27-.26.54-.41.8a10 10 0 000 9.75l-.87.5a10.93 10.93 0 010-10.74A9.87 9.87 0 0078 25.16c-.25-.14-.5-.27-.76-.39A10.84 10.84 0 0171 16.11a10.61 10.61 0 00-.48-2.11l-1.88 2.72 1.55.12a1 1 0 01.93 1.07l-.53 5.86A8.64 8.64 0 0073.46 26a9.93 9.93 0 014.45 13.31l-.1.19-.44-.24.41.22a9.09 9.09 0 000 8.54 10 10 0 01-4.06 13.55l-.13.07a9.12 9.12 0 00-4.91 7 10 10 0 01-2.63 5.52l-.53 5.48A9.78 9.78 0 0071 71.91a10.81 10.81 0 016.25-8.66 9.85 9.85 0 004.84-13.07c-.12-.26-.25-.52-.39-.77zM64.52 79.62v.48zm7.56-40A7.65 7.65 0 0070 30.34l-2.59 28.73A8.29 8.29 0 0169 57.93l.24.44-.24-.44a7.81 7.81 0 003.19-10.33 9 9 0 01-.07-8zm-3.64 29.06zm2.08-43.61l-.37 4.09a8.65 8.65 0 012.91 10.9 8 8 0 00.08 7.09 8.83 8.83 0 01-3.62 11.65 8.15 8.15 0 00-2.25 1.88l-1.06 11.73a9 9 0 001.48-3.87 10.11 10.11 0 015.45-7.71A9 9 0 0077 48.71v-.13a10.19 10.19 0 010-9.48A8.94 8.94 0 0073.2 27a.61.61 0 01-.14-.07l.21-.45L73 27a9.29 9.29 0 01-2.48-1.93zm-3.18-6.5l-2.83 4-4.57 50.21-1-.09-.07 1L19 71.21l-.17.2-.57 4.33 45.39 2.82L69 18.68zM36.06 79.33l-.36.34.36-.34a8.65 8.65 0 0012.17.28l-12.71-.8.55.49zm22-7.7l4.12-45.81-4.42 6.23a1.52 1.52 0 01-1.13.63 1.47 1.47 0 01-1.2-.49l-3.74-4.12-10.94 15.48a1.48 1.48 0 01-1.1.62 1.5 1.5 0 01-1.19-.43l-3.06-3.06h-2.7l-6.05 7a1.48 1.48 0 01-2.1.17 1.1 1.1 0 01-.27-.3l-5.34-7.87-3.64 4.64c-.3 2.83-.6 5.63-.89 8.28-.52 4.8-1 9.1-1.34 12.21-.17 1.55-.31 2.8-.41 3.67v.29zM12.79 42.68l.78-1c.45-4.2.89-8.39 1.28-12.19A8 8 0 0012 39.42a9.44 9.44 0 01.79 3.26zm-.67 12.53q.15-1.37.3-2.79c.18-1.65.36-3.36.55-5.09l-1.79 2.28a8.22 8.22 0 00.94 5.6zm13.54-11l1-1.12-1.83-.09zM65.2 14.3l-.2 2.09h.14l.86-1.16c-.27-.32-.53-.63-.8-.93zM36.75 8l11.87.79A8.58 8.58 0 0036.75 8zm-5.68 16.28a1 1 0 01-.87.09l.34-.94-.34.94a19.46 19.46 0 00-12.83 0c-.4 4.14-.92 9.16-1.47 14.34l1.94-2.48A1.51 1.51 0 0120 36a2.27 2.27 0 01.3.32l.29.42.64-8.15a1 1 0 011.08-.9l8.16.65a1 1 0 01.92 1.07l-.66 8.44-1-.08-.08 1-8.09-.65 1.87 2.74 4.9.39 2.64-3a1.48 1.48 0 011.03-.57h4a1.5 1.5 0 011.06.44l2.24 2.24 3-4.29-7.8-.39a1 1 0 11.1-2l9.14.46 6.58-9.33a1.51 1.51 0 011.14-.63 1.49 1.49 0 011.2.49l3.74 4.12 6.32-8.92.73-8.09-30.42-2v.56c-.09.94-.23 2.27-.38 3.76-.31 3-.7 6.69-1 9.49a1 1 0 01-.58.69zm-2.3 12.4l.51-6.44-6.18-.48-.5 6.43zm2.07-25.44L19.76 21.68a20.86 20.86 0 019.93.4c.3-2.58.62-5.67.89-8.24.1-.95.19-1.84.26-2.6zM16 18.89l.26.05zM6.17 51.14L11.79 44a8.35 8.35 0 00-.73-4.12A8.93 8.93 0 0115 28.28c.18-1.75.35-3.43.5-5a1 1 0 01.31-.63l11.76-11.07-.48-.06a8.84 8.84 0 00-10.26 7.15V19a10.24 10.24 0 01-5.63 7.68l-.21-.42.22.45a9.06 9.06 0 00-4 12.16v.09l-.44.23.39-.2a10.37 10.37 0 01-.06 9.57 9.16 9.16 0 00-.93 2.58zm5.28 10.11c.16-1.37.32-2.87.49-4.46A9.35 9.35 0 0110 51.08l-3.57 4.6A9 9 0 0011 61l-.22.44L11 61zm1.07 10.68zm50.34 8.58l-13.28-.83c-.06.06-.13.11-.19.18a.08.08 0 010-.07.57.57 0 01-.08.13l-.21-.2.21.2-.17-.24.24.22a9.66 9.66 0 01-13.66.48l-.34-.38a9.36 9.36 0 00-1.72-1.36l-16.59-1a.94.94 0 01-.71-.36 1.06 1.06 0 01-.22-.77l.55-4.24a8.55 8.55 0 01-.58-1.27l-3.27-.2c.07.33.13.67.17 1h-.5.5a9.75 9.75 0 0010.7 8.7c.32 0 .63-.08.94-.15l.12.48-.12-.48a10.72 10.72 0 0110.12 3.32l-.38.33.38-.33a9.67 9.67 0 0013.65.74 8.61 8.61 0 00.74-.74 10.69 10.69 0 0110.11-3.27l-.1.48.1-.48a9.43 9.43 0 003.59.11zm19.75-31.66l-.43.25zm-54.84.83l-6.17-.49.21-2.67L20 43.89 19.52 50a1 1 0 00.91 1.08l8.17.64a1 1 0 001.07-.91l.33-4.3-2.21 2.54zm26.8-14.8l-4-.2a1 1 0 00-.1 2l4 .2a1 1 0 00.1-2zm-23.88 3l-1-.08-.08 1a1 1 0 001.08-.91zm19.89 24.8l-18-1a1 1 0 10-.12 2l18 1a1 1 0 00.12-2zM29.35 55.4l-.66 8.44-1-.08-.08 1-8.17-.64a1 1 0 01-.92-1.07l.67-8.43a1 1 0 011.07-.92l8.16.65a1 1 0 01.93 1.05zm-2.07.84l-6.18-.48-.5 6.43 6.17.49zm32.66 16.54l-1-.09-.07 1a1 1 0 001.07-.91zm-26.49-23.1l14 1a1 1 0 00.14-2l-14-1a1 1 0 10-.14 2zm-5.84 15.07a1 1 0 001.08-.91l-1-.08z" fill="#52565a" id="Layer_1-2" data-name="Layer 1"/></g></svg>