<svg version="1.1" id="Layer_1" xmlns="http://www.w3.org/2000/svg" x="0" y="0" viewBox="0 0 284.7 159.9" xml:space="preserve"><style>.st0{fill-rule:evenodd;clip-rule:evenodd;fill:#9ea3a8}</style><g id="layer1" transform="translate(-7.843 -312.841)"><g id="g706" transform="translate(.5 -.5)"><path id="rect3828" class="st0" d="M90.7 356.9l-26.8 36.4 26.8 36v-72.4z"/><path id="B" d="M126.4 336.2h-20.6l-15.1 20.6v74.6H137c9.5 0 26.8-5.5 26.8-28.2 0-15.4-9.9-21.2-18.6-23.6v-.5c3.7-1.6 6.7-3.2 8.8-7.1 2.1-3.9 3.2-8 3.2-12.4-.2-9-4.4-16.6-10.8-20.1-5.7-2.8-12-3.3-20-3.3zm-11.6 18.4h7.2c4.9-.1 11.2 1.3 11.2 8.6s-5.1 9.8-11.2 9.8h-7.2v-18.4zm0 36.7h13.8c6 0 10.9 4.9 10.9 10.9s-4.9 10.9-10.9 10.9h-13.8v-21.8z"/><path id="R" d="M202.9 336.2h-41.6v95.3H186v-33.9c1.6 0 3.3.1 5 0l20.8 33.9H241l-25-39.1c9.6-4.4 16.4-12.5 16.4-27.4 0-28.4-26.2-28.8-29.5-28.8zm-17 19H196s10.5-.6 10.5 11.3c0 13.4-12.6 12.8-20.7 12.8v-24.1z" fill-rule="evenodd" clip-rule="evenodd"/><path id="L" d="M236.4 431.5h55.1v-21.2h-29.8v-74h-25.3v95.2z"/><path id="X" d="M8 354.6l28.6 38.7L8 431.5h27.6l14.6-19.8 14.6 19.8h27.6l-28.6-38.3 28.6-38.7h-27L50.2 375 35 354.6H8z"/><path id="slogan" class="st0" d="M66.8 442.6c-.7 0-1.2.1-1.7.3-.5.2-.9.4-1.2.6-.3.3-.6.6-.7 1-.2.4-.2.7-.2 1.1 0 .4.1.7.2 1 .1.3.3.6.6.8.2.2.5.4.9.6s.7.3 1.1.4c.8.2 1.4.4 1.8.6.4.2.6.5.6.8 0 .2-.1.3-.1.4l-.3.3c-.1.1-.3.2-.5.2s-.4.1-.5.1c-.3 0-.6 0-.9-.1-.3-.1-.5-.2-.7-.3-.2-.1-.4-.3-.6-.4-.2-.1-.3-.3-.5-.4l-1.5 1.5c.2.2.4.4.7.6.3.2.6.4 1 .5.4.1.7.3 1.2.4.4.1.9.1 1.5.1s1.1-.1 1.6-.2.9-.4 1.3-.6c.4-.3.6-.6.9-1 .2-.4.3-.8.3-1.2 0-.5-.1-.9-.3-1.3-.2-.4-.4-.7-.7-.9-.3-.2-.6-.4-1-.6-.4-.1-.8-.3-1.1-.4-.7-.1-1.2-.3-1.6-.5-.4-.2-.6-.5-.6-.8 0-.1 0-.2.1-.4l.3-.3c.1-.1.3-.1.4-.2.2 0 .3-.1.5-.1.3 0 .5 0 .7.1.2.1.4.1.6.2.2.1.4.2.5.3.2.1.3.2.4.3l1.4-1.4-.4-.4c-.2-.1-.4-.3-.7-.4-.3-.1-.6-.3-1.1-.4-.7.2-1.2.1-1.7.1zm35 0c-.7 0-1.2.1-1.7.3-.5.2-.9.4-1.2.6-.3.3-.6.6-.7 1-.2.4-.2.7-.2 1.1 0 .4.1.7.2 1 .1.3.3.6.6.8.2.2.6.4.9.6.3.2.7.3 1.1.4.8.2 1.4.4 1.8.6.4.2.6.5.6.8 0 .2 0 .3-.1.4-.1.1-.2.2-.4.3-.1.1-.3.2-.5.2s-.4.1-.5.1c-.3 0-.6 0-.9-.1-.3-.1-.5-.2-.8-.3-.2-.1-.4-.3-.6-.4-.2-.1-.3-.3-.5-.4l-1.6 1.5c.2.2.5.4.7.6.3.2.6.4 1 .5.4.1.7.3 1.2.4.4.1.9.1 1.5.1s1.1-.1 1.6-.2.9-.4 1.3-.6c.4-.3.6-.6.9-1 .2-.4.3-.8.3-1.2 0-.5-.1-.9-.3-1.3-.2-.4-.4-.7-.7-.9-.3-.2-.6-.4-1-.6-.4-.1-.8-.3-1.2-.4-.7-.1-1.2-.3-1.6-.5-.4-.2-.6-.5-.6-.8 0-.1 0-.2.1-.4l.3-.3c.1-.1.3-.1.4-.2.2 0 .3-.1.5-.1.3 0 .5 0 .7.1.2.1.4.1.6.2.2.1.4.2.5.3.2.1.3.2.4.3l1.4-1.4-.4-.4c-.2-.1-.4-.3-.7-.4-.3-.1-.6-.3-1.1-.4-.3.2-.7.1-1.3.1zm9.4 0c-.7 0-1.2.1-1.7.3-.5.2-.9.4-1.2.6-.3.3-.6.6-.7 1-.2.4-.2.7-.2 1.1 0 .4.1.7.2 1 .1.3.3.6.6.8.2.2.6.4.9.6.3.2.7.3 1.1.4.8.2 1.4.4 1.8.6.4.2.6.5.6.8 0 .2 0 .3-.1.4-.1.1-.2.2-.4.3-.1.1-.3.2-.5.2s-.4.1-.5.1c-.3 0-.6 0-.9-.1-.3-.1-.5-.2-.8-.3-.2-.1-.4-.3-.6-.4-.2-.1-.4-.3-.5-.4l-1.5 1.5c.2.2.5.4.7.6.3.2.6.4 1 .5.4.1.7.3 1.2.4.4.1.9.1 1.5.1s1.1-.1 1.6-.2.9-.4 1.3-.6c.4-.3.6-.6.9-1 .2-.4.3-.8.3-1.2 0-.5-.1-.9-.3-1.3-.2-.4-.4-.7-.7-.9-.3-.2-.6-.4-1-.6-.4-.1-.8-.3-1.2-.4-.7-.1-1.2-.3-1.6-.5-.4-.2-.6-.5-.6-.8 0-.1 0-.2.1-.4l.3-.3c.1-.1.3-.1.4-.2.2 0 .3-.1.5-.1.3 0 .5 0 .7.1.2.1.4.1.6.2.2.1.4.2.5.3.2.1.3.2.4.3l1.4-1.4-.4-.4c-.2-.1-.4-.3-.7-.4-.3-.1-.6-.3-1.1-.4-.4.2-.8.1-1.4.1zm42.4 0c-.8 0-1.5.1-2.2.4-.7.3-1.2.6-1.7 1.1-.5.5-.9 1-1.2 1.6-.3.6-.4 1.3-.4 2s.1 1.4.4 2c.3.6.7 1.2 1.2 1.6.5.5 1.1.8 1.7 1.1.7.3 1.4.4 2.2.4.8 0 1.5-.1 2.2-.4.7-.3 1.3-.6 1.8-1.1.5-.5.9-1 1.1-1.6.3-.6.4-1.3.4-2s-.1-1.4-.4-2c-.3-.6-.7-1.2-1.1-1.6-.5-.5-1.1-.8-1.8-1.1-.7-.2-1.5-.4-2.2-.4zm61.3 0c-.7 0-1.2.1-1.7.3-.5.2-.9.4-1.2.6-.3.3-.6.6-.7 1-.2.4-.2.7-.2 1.1 0 .4.1.7.2 1s.3.6.6.8c.2.2.6.4.9.6s.7.3 1.1.4c.8.2 1.4.4 1.8.6.4.2.6.5.6.8 0 .2 0 .3-.1.4-.1.1-.2.2-.4.3-.1.1-.3.2-.5.2s-.4.1-.5.1c-.3 0-.6 0-.9-.1-.3-.1-.5-.2-.8-.3-.2-.1-.4-.3-.6-.4-.2-.1-.3-.3-.5-.4l-1.5 1.5c.2.2.5.4.7.6.3.2.6.4.9.5.4.1.7.3 1.2.4.4.1.9.1 1.5.1s1.1-.1 1.6-.2.9-.4 1.3-.6c.4-.3.6-.6.9-1 .2-.4.3-.8.3-1.2 0-.5-.1-.9-.3-1.3-.2-.4-.4-.7-.7-.9-.3-.2-.6-.4-1-.6-.4-.1-.8-.3-1.1-.4-.7-.1-1.2-.3-1.6-.5-.4-.2-.6-.5-.6-.8 0-.1 0-.2.1-.4l.3-.3c.1-.1.3-.1.4-.2.2 0 .3-.1.5-.1.3 0 .5 0 .7.1.2.1.4.1.6.2.2.1.4.2.5.3.2.1.3.2.4.3l1.4-1.4-.4-.4c-.2-.1-.4-.3-.7-.4-.3-.1-.6-.3-1.1-.4-.4.2-.9.1-1.4.1zm-13.7 0c-.8 0-1.6.1-2.2.4-.7.3-1.3.6-1.7 1.1-.5.5-.9 1-1.1 1.6-.3.6-.4 1.3-.4 2s.1 1.4.4 2 .6 1.2 1.1 1.6 1.1.8 1.7 1c.7.2 1.5.4 2.3.4.9 0 1.8-.1 2.5-.3.7-.2 1.4-.6 1.9-1v-4.2h-4.1v1.8h1.9v1.2c-.3.2-.6.4-.9.4-.4.1-.7.1-1.2.1s-.9-.1-1.3-.2-.7-.3-1-.6c-.3-.3-.5-.6-.7-1-.2-.4-.2-.8-.2-1.3 0-.4.1-.8.2-1.2s.3-.7.6-1 .6-.5 1-.7c.4-.2.8-.2 1.3-.2.6 0 1.1.1 1.5.3.4.2.8.5 1.1.9l1.6-1.4c-.5-.6-1.1-1-1.8-1.4-.7-.1-1.5-.3-2.5-.3zm-193.6.3v1.9H11v7.7h2.4v-7.7h3.4v-1.9H7.6zm10.7 0v9.7h2.4v-4h4.6v4h2.4v-9.7h-2.4v3.7h-4.6v-3.7h-2.4zm11.5 0v9.7h7.6v-1.9h-5.2v-2.1H36v-1.8h-3.8v-1.9H37V443h-7.2zm12.7 0v9.7h4c.6 0 1.2 0 1.7-.1s1-.3 1.3-.5c.4-.2.6-.5.8-.9.2-.3.3-.8.3-1.3 0-.4-.1-.7-.2-1-.2-.3-.3-.5-.6-.7-.2-.2-.5-.3-.7-.4-.2-.1-.5-.2-.6-.2.1 0 .3-.1.5-.2s.4-.2.5-.4c.2-.2.3-.4.4-.6.1-.2.2-.5.2-.8 0-.3-.1-.6-.2-.9-.1-.3-.3-.6-.6-.8-.3-.2-.7-.4-1.1-.6-.5-.1-1-.2-1.7-.2l-4-.1zm9.6 0v6c0 .6.1 1.1.3 1.6.2.5.5.9.9 1.2.4.3.9.6 1.4.8.6.2 1.2.3 1.8.3.7 0 1.3-.1 1.8-.3.6-.2 1-.5 1.4-.8.4-.3.7-.8.9-1.2.2-.5.3-1 .3-1.6v-6h-2.4v5.7c0 .3 0 .6-.1.9-.1.3-.2.5-.3.7-.2.2-.4.3-.6.4-.3.1-.6.2-1 .2s-.7-.1-1-.2c-.3-.1-.5-.2-.6-.4-.2-.2-.3-.4-.3-.7-.1-.3-.1-.5-.1-.9v-5.7h-2.4zm20.3 0v9.7h2.4v-9.7h-2.4zm5.1 0v9.7h2.4v-6.4l4.7 6.4h2.2v-9.7h-2.4v6.3l-4.6-6.3h-2.3zm11.3 0v9.7h7.6v-1.9h-5.2v-2.1H95v-1.8h-3.8v-1.9H96V443h-7.2zm31.6 0v9.7h2.3V449h1.3l2 3.6h2.6l-2.3-3.9c.6-.3 1-.6 1.3-1.1.3-.5.5-1 .5-1.7 0-.4-.1-.8-.2-1.2-.2-.4-.4-.7-.7-1-.3-.3-.7-.5-1.2-.6-.5-.2-1-.2-1.6-.2h-4zm9.6 0v9.7h7.6v-1.9h-5.2v-2.1h3.8v-1.8h-3.8v-1.9h4.8V443H130zm9.3 0v9.7h2.3v-3.4h1.6c.5 0 .9-.1 1.4-.2s.8-.3 1.1-.6c.3-.3.6-.6.8-1 .2-.4.3-.8.3-1.4 0-.4-.1-.8-.2-1.2-.1-.4-.4-.7-.7-1-.3-.3-.7-.5-1.1-.7-.5-.2-1-.3-1.7-.3l-3.8.1zm21.4 0v9.7h2.3V449h1.3l2 3.6h2.6l-2.3-3.9c.6-.3 1-.6 1.3-1.1.3-.5.4-1 .4-1.7 0-.4-.1-.8-.2-1.2-.2-.4-.4-.7-.7-1-.3-.3-.7-.5-1.2-.6-.5-.2-1-.2-1.6-.2h-3.9zm9 0v1.9h3.4v7.7h2.4v-7.7h3.4v-1.9h-9.2zm10.6 0v9.7h2.4v-9.7h-2.4zm4.5 0v9.7h2.4v-6.4l4.7 6.4h2.2v-9.7h-2.4v6.3l-4.6-6.3h-2.3zm35 0v1.9h3.4v7.7h2.4v-7.7h3.4v-1.9h-9.2zm12 0l-4 9.7h2.5l.8-2.2h3.7l.8 2.2h2.6l-3.9-9.7h-2.5zm7.7 0v9.7h2.4v-6.4l4.7 6.4h2.2v-9.7h-2.4v6.3l-4.6-6.3h-2.3zm11.4 0v9.7h4c.8 0 1.6-.1 2.3-.3.7-.2 1.3-.5 1.8-.9s.9-.9 1.2-1.5c.3-.6.4-1.3.4-2.1s-.1-1.6-.4-2.2c-.3-.6-.7-1.1-1.2-1.5-.5-.4-1.1-.7-1.8-.9-.7-.2-1.4-.3-2.3-.3h-4zm13.8 0l-4 9.7h2.5l.8-2.2h3.7l.8 2.2h2.6l-3.9-9.7h-2.5zm7.7 0v9.7h2.3V449h1.3l2 3.6h2.6l-2.3-3.9c.6-.3 1-.6 1.3-1.1.3-.5.4-1 .4-1.7 0-.4-.1-.8-.2-1.2-.2-.4-.4-.7-.7-1-.3-.3-.7-.5-1.2-.6-.5-.2-1-.2-1.6-.2h-3.9zm9.7 0v9.7h4c.8 0 1.6-.1 2.3-.3.7-.2 1.3-.5 1.8-.9s.9-.9 1.2-1.5c.3-.6.4-1.3.4-2.1s-.1-1.6-.4-2.2c-.3-.6-.7-1.1-1.2-1.5-.5-.4-1.1-.7-1.8-.9-.7-.2-1.4-.3-2.3-.3h-4zm-237.3 1.7h1.4c.2 0 .3 0 .5.1.2 0 .3.1.5.2.1.1.3.2.3.3.1.1.1.3.1.5s0 .4-.1.5l-.3.3c-.1.1-.3.2-.5.2s-.4.1-.5.1h-1.4v-2.2zm108.8.1c.5 0 .9.1 1.3.3.4.2.7.4 1 .6.3.3.5.6.6 1 .1.4.2.8.2 1.2 0 .4-.1.8-.2 1.2-.1.4-.3.7-.6 1-.3.3-.6.5-1 .7-.4.2-.8.3-1.3.3s-.9-.1-1.3-.3c-.4-.2-.7-.4-1-.7-.3-.3-.5-.6-.6-1-.1-.4-.2-.7-.2-1.2s.1-.8.2-1.2c.1-.4.3-.7.6-1 .3-.3.6-.5 1-.6.4-.3.8-.3 1.3-.3zm-12 0h1.4c.4 0 .8.1 1.1.4.3.3.4.6.4 1s-.1.7-.4 1c-.3.2-.6.4-1.1.4h-1.4v-2.8zm-18.9 0h1.5c.4 0 .8.1 1.1.3.3.2.4.6.4 1s-.1.7-.4.9c-.3.2-.6.4-1.1.4h-1.5v-2.6zm40.4 0h1.5c.4 0 .8.1 1 .3.3.2.4.6.4 1s-.1.7-.4.9c-.3.2-.6.4-1 .4h-1.5v-2.6zm111.7 0h1.5c.4 0 .8.1 1.1.3.3.2.4.6.4 1s-.1.7-.4.9c-.3.2-.6.4-1.1.4h-1.5v-2.6zm-21.5.1h1.5c.6 0 1.1.1 1.5.2.4.1.8.3 1 .6.3.3.5.6.6.9.1.4.2.8.2 1.2 0 .9-.3 1.6-.9 2.1s-1.4.8-2.4.8h-1.5v-5.8zm31.2 0h1.5c.6 0 1.1.1 1.5.2.4.1.8.3 1 .6.3.3.5.6.6.9.1.4.2.8.2 1.2 0 .9-.3 1.6-.9 2.1s-1.4.8-2.4.8h-1.5v-5.8zm-51.5.2l1.3 3.7h-2.6l1.3-3.7zm33 0l1.3 3.7h-2.6l1.3-3.7zm-221.2 3.4h1.6c.2 0 .4 0 .6.1.2 0 .4.1.6.2.2.1.3.2.4.4.1.2.2.4.2.6 0 .3-.1.5-.2.7-.1.2-.3.3-.4.4-.2.1-.4.2-.6.2h-2.2v-2.6z"/><text transform="matrix(.9588 0 0 1 266.131 341.981)" font-size="8.684" font-family="Verdana-Bold">TM</text></g></g></svg>