<svg version="1.1" id="Layer_1" xmlns="http://www.w3.org/2000/svg" x="0" y="0" viewBox="0 0 284.7 159.9" xml:space="preserve"><g id="Layer_2_1_"><g id="Layer_1-2"><path d="M66.4 38.7h22.2c1.4 0 2.6 1.2 2.6 2.6v88c0 1.4-1.2 2.6-2.6 2.6H66.4c-1.4 0-2.6-1.2-2.6-2.6v-88c0-1.4 1.2-2.6 2.6-2.6zm64.1 0h22.2c1.4 0 2.6 1.2 2.6 2.6v88c0 1.4-1.2 2.6-2.6 2.6h-22.2c-1.4 0-2.6-1.2-2.6-2.6v-88c.1-1.4 1.2-2.6 2.6-2.6zm33.5 0h22.2c1.4 0 2.6 1.2 2.6 2.6v88c0 1.4-1.2 2.6-2.6 2.6H164c-1.4 0-2.6-1.2-2.6-2.6v-88c0-1.4 1.2-2.6 2.6-2.6z" fill="#aaafb3"/><path d="M198.5 32h19.4c1.6 0 3 1.3 3 3v40.3c0 1.6-1.3 3-3 3h-19.4c-1.6 0-3-1.3-3-3V34.9c.1-1.6 1.4-2.9 3-2.9zM99.9 74.4h19.4c1.6 0 3 1.3 3 3v40.3c0 1.6-1.3 3-3 3H99.9c-1.6 0-3-1.3-3-3V77.4c0-1.7 1.4-3 3-3z" fill="#90959a"/></g></g></svg>