<svg xmlns="http://www.w3.org/2000/svg" viewBox="0 0 284.72 159.92"><g id="Layer_2" data-name="Layer 2"><g id="Layer_1-2" data-name="Layer 1"><path d="M284.72 59.35v39.87h-14.06v-28h-13.54v28h-14.07V59.35zm-48.34 22.2c0 11.61-9.67 19.28-22.69 19.28-13.47 0-23.29-8.11-23.29-26.49 0-15.78 10.08-28.77 25-29 6.53 0 20.56-.31 20.56-.31l-6.32 11.6h-12.65a13.26 13.26 0 00-13.1 11.46A19.17 19.17 0 01217.34 63c11.9 0 19.04 7.32 19.04 18.55zm-14.43 0c0-5.2-3.35-8.25-8.18-8.25-5 0-8.34 3.12-8.34 8.33 0 4.91 3.35 8.48 8.34 8.48 5.23 0 8.23-3.87 8.23-8.56zm-42.7 5.62a22.09 22.09 0 01-8.47 2.28c-5.84.17-11-3.42-11-9.82 0-6.25 4.59-9.82 10.88-9.82 3.86 0 9 2.61 9 2.61s3.73-6.7 5.67-10.05a22.82 22.82 0 00-13.76-4.07c-13.86 0-24.6 8.84-24.6 21.25 0 12.57 10.09 21.2 24.6 20.94 4.06-.15 9.65-1.54 13.06-3.68z" fill="#121212"/><path fill="#6a6f73" d="M0 34.81l19.43 34.62v21.1L.03 125.08 0 34.81z"/><path fill="#52575a" d="M74.59 56.83L92.8 45.71l37.24-.03-55.45 33.87V56.83z"/><path fill="#c1c4c7" d="M74.49 34.61l.1 45.82-19.47-11.92V0l19.37 34.61z"/><path fill="#95999e" d="M130.04 45.68l-37.24.03-18.31-11.1L55.12 0l74.92 45.68z"/><path fill="#a6aaaf" d="M74.59 125.28v-22.24l-19.47-11.7.01 68.58 19.46-34.64z"/><path fill="#81858a" d="M92.75 114.26L19.43 69.43 0 34.81l129.97 79.41-37.22.04z"/><path fill="#6f7479" d="M55.13 159.92l19.46-34.64 18.16-11.02 37.22-.04-74.84 45.7z"/><path fill="#6c7176" d="M.03 125.08l55.24-33.74L36.7 79.98 19.43 90.53.03 125.08z"/></g></g></svg>