<svg xmlns="http://www.w3.org/2000/svg" width="32" height="16"><g fill="none" fill-rule="evenodd"><path fill="#8552CC" d="M2.564 0h26.872c.892 0 1.215.093 1.54.267.327.174.583.43.757.756.174.326.267.65.267 1.54v10.873c0 .892-.093 1.215-.267 1.54a1.81 1.81 0 01-.756.757c-.326.174-.65.267-1.54.267H2.563c-.892 0-1.215-.093-1.54-.267a1.817 1.817 0 01-.757-.756C.093 14.65 0 14.327 0 13.437V2.563c0-.892.093-1.215.267-1.54a1.81 1.81 0 01.756-.757C1.35.093 1.673 0 2.563 0z"/><path fill="#FFF" fill-rule="nonzero" d="M4.801 12l3.51-8.001h1.314L13.134 12h-1.852l-.651-1.486H7.28L6.632 12H4.8zm4.15-5.372L7.899 9.017h2.08l-1.028-2.39zM15.803 12H14.03V3.999h3.235c2.549 0 3.235 1.28 3.235 2.606 0 1.029-.606 1.966-1.566 2.343L21.164 12h-2.138l-1.954-2.732h-1.27V12zm1.429-6.344h-1.43v1.955H17.3c.869 0 1.36-.366 1.36-1.006 0-.571-.297-.949-1.428-.949zM26.267 4v5.498c0 1.714-.96 2.64-2.423 2.64-1.395 0-2.172-.731-2.56-1.531l1.291-.995c.274.56.64.869 1.109.869.594 0 .811-.446.811-1.326V3.999h1.772z"/></g></svg>