<svg xmlns="http://www.w3.org/2000/svg" width="40" height="16"><g fill="none" fill-rule="evenodd"><path fill="#2AA65E" d="M2.564 0h34.872c.892 0 1.215.093 1.54.267.327.174.583.43.757.756.174.326.267.65.267 1.54v10.873c0 .892-.093 1.215-.267 1.54a1.81 1.81 0 01-.756.757c-.326.174-.65.267-1.54.267H2.563c-.892 0-1.215-.093-1.54-.267a1.817 1.817 0 01-.757-.756C.093 14.65 0 14.327 0 13.437V2.563c0-.892.093-1.215.267-1.54a1.81 1.81 0 01.756-.757C1.35.093 1.673 0 2.563 0z"/><path fill="#FFF" fill-rule="nonzero" d="M12.496 3.999L9.604 7.942 12.588 12h-2.16L8.552 9.383 6.667 12h-2.16L7.5 7.942 4.632 4H6.77l1.794 2.48L10.347 4h2.15zM13.531 12V3.999h1.771v6.344h4.32V12h-6.091zm11.31-2.217c0-1.395-4.458-.63-4.458-3.532 0-1.269 1.2-2.435 3.097-2.435 1.36 0 2.446.56 3.132 1.475l-1.188 1.143c-.458-.503-1.12-.96-2.012-.96-.823 0-1.2.297-1.2.754 0 1.223 4.457.526 4.457 3.417 0 1.452-1.303 2.538-3.029 2.538-1.931 0-3.154-.915-3.703-1.955l1.292-1.074c.526.846 1.383 1.372 2.366 1.372.891 0 1.246-.343 1.246-.743zM35.2 3.999l-2.89 3.943L35.292 12h-2.16l-1.874-2.617L29.373 12h-2.16l2.994-4.058L27.338 4h2.137l1.795 2.48L33.053 4h2.149z"/></g></svg>