<svg xmlns="http://www.w3.org/2000/svg" width="32" height="16"><g fill="none" fill-rule="evenodd"><path fill="#111214" d="M2.564 0h26.872c.892 0 1.215.093 1.54.267.327.174.583.43.757.756.174.326.267.65.267 1.54v10.873c0 .892-.093 1.215-.267 1.54a1.81 1.81 0 01-.756.757c-.326.174-.65.267-1.54.267H2.563c-.892 0-1.215-.093-1.54-.267a1.817 1.817 0 01-.757-.756C.093 14.65 0 14.327 0 13.437V2.563c0-.892.093-1.215.267-1.54a1.81 1.81 0 01.756-.757C1.35.093 1.673 0 2.563 0z"/><path fill="#FFF" fill-rule="nonzero" d="M5.21 12V3.999h2.538c3.429 0 4.606 1.806 4.606 3.898 0 2.286-1.417 4.103-4.778 4.103H5.21zm2.515-6.344h-.743v4.687h.743c2 0 2.8-.96 2.8-2.446 0-1.35-.72-2.24-2.8-2.24zM13.44 12V3.999h3.577c2.092 0 2.766.846 2.766 2.046 0 .789-.331 1.326-.777 1.714.652.31 1.04.87 1.04 1.864 0 1.68-1.314 2.377-3.12 2.377H13.44zm3.394-3.28h-1.623v1.623h1.532c1.063 0 1.452-.24 1.452-.823 0-.56-.355-.8-1.36-.8zm-.114-3.064h-1.509V7.12h1.658c.708 0 1.074-.263 1.074-.674 0-.526-.251-.789-1.223-.789zM21.19 12V3.999h6.057v1.657h-4.286v1.75h4v1.656h-4V12h-1.772z"/></g></svg>