<svg width="24" height="24" viewBox="0 0 19 16" fill="none" xmlns="http://www.w3.org/2000/svg"><path fill-rule="evenodd" clip-rule="evenodd" d="M15.14 13.833H9.326l-3.494-1.397V8h.834a.831.831 0 00.765-.505l2.285-5.328h1.117V5.5c0 .46.373.833.833.833h4.835l-1.363 7.5zm-12.64 0h1.667V7.167H2.5v6.666zm15.64-8.867a.836.836 0 00-.64-.3h-5V1.334A.833.833 0 0011.668.5h-2.5a.831.831 0 00-.765.504l-2.285 5.33h-.284A.833.833 0 005 5.5H1.667a.834.834 0 00-.834.833v8.334c0 .46.374.833.834.833H5a.833.833 0 00.833-.833v-.434l3.024 1.208c.1.039.205.059.31.059h6.667a.833.833 0 00.82-.684l1.666-9.167a.833.833 0 00-.18-.683z" fill="#2AA65E"/></svg>