<svg xmlns="http://www.w3.org/2000/svg" width="32" height="16"><g fill="none" fill-rule="evenodd"><path fill="#3060BF" d="M2.564 0h26.872c.892 0 1.215.093 1.54.267.327.174.583.43.757.756.174.326.267.65.267 1.54v10.873c0 .892-.093 1.215-.267 1.54a1.81 1.81 0 01-.756.757c-.326.174-.65.267-1.54.267H2.563c-.892 0-1.215-.093-1.54-.267a1.817 1.817 0 01-.757-.756C.093 14.65 0 14.327 0 13.437V2.563c0-.892.093-1.215.267-1.54a1.81 1.81 0 01.756-.757C1.35.093 1.673 0 2.563 0z"/><path fill="#FFF" fill-rule="nonzero" d="M4.187 12V3.999h2.538c3.429 0 4.606 1.806 4.606 3.898C11.33 10.183 9.914 12 6.553 12H4.187zm2.515-6.344h-.743v4.687h.743c2 0 2.8-.96 2.8-2.446 0-1.35-.72-2.24-2.8-2.24zM12.017 8c0-2.31 1.806-4.138 4.126-4.138 2.286 0 4.115 1.76 4.115 4.138 0 2.354-1.83 4.137-4.115 4.137-2.286 0-4.126-1.76-4.126-4.138zm1.84 0c0 1.485 1.074 2.423 2.286 2.423 1.257 0 2.274-.938 2.274-2.423 0-1.486-1.108-2.424-2.274-2.424-1.212 0-2.286.938-2.286 2.424zM27.39 9.36l1.052 1.131c-.72 1.052-1.99 1.646-3.407 1.646-2.491 0-4.092-1.657-4.092-4.138 0-2.285 1.658-4.137 4.138-4.137 1.463 0 2.663.617 3.235 1.52l-1.2 1.097c-.48-.594-1.258-.903-1.91-.903-1.428 0-2.422.938-2.422 2.424 0 1.44 1.017 2.423 2.4 2.423A2.75 2.75 0 0027.39 9.36z"/></g></svg>