<svg xmlns="http://www.w3.org/2000/svg" width="24" height="18"><g fill="none" fill-rule="evenodd"><path fill="#ED1A34" d="M23.753 3.884s-.235-1.764-.954-2.542C21.887.324 20.864.318 20.395.26 17.038 0 12.002 0 12.002 0h-.012S6.954 0 3.597.26c-.469.058-1.49.064-2.404 1.083C.475 2.119.24 3.884.24 3.884S0 5.955 0 8.026v1.94c0 2.073.24 4.143.24 4.143s.234 1.764.953 2.54c.914 1.018 2.111.987 2.645 1.094 1.92.196 8.158.257 8.158.257s5.042-.009 8.4-.266c.468-.06 1.49-.066 2.403-1.085.719-.775.954-2.54.954-2.54s.24-2.07.24-4.142v-1.94c0-2.072-.24-4.143-.24-4.143z"/><path fill="#FFF" fill-rule="nonzero" d="M9 4.5v9L16.5 9z"/></g></svg>