<svg xmlns="http://www.w3.org/2000/svg" width="32" height="16"><g fill="none" fill-rule="evenodd"><path fill="#111214" d="M2.564 0h26.872c.892 0 1.215.093 1.54.267.327.174.583.43.757.756.174.326.267.65.267 1.54v10.873c0 .892-.093 1.215-.267 1.54a1.81 1.81 0 01-.756.757c-.326.174-.65.267-1.54.267H2.563c-.892 0-1.215-.093-1.54-.267a1.817 1.817 0 01-.757-.756C.093 14.65 0 14.327 0 13.437V2.563c0-.892.093-1.215.267-1.54a1.81 1.81 0 01.756-.757C1.35.093 1.673 0 2.563 0z"/><path fill="#FFF" fill-rule="nonzero" d="M6.519 12H4.747V3.999h3.235c2.549 0 3.235 1.28 3.235 2.606 0 1.029-.606 1.966-1.566 2.343L11.879 12H9.742L7.788 9.268h-1.27V12zm1.429-6.344h-1.43v1.955h1.498c.869 0 1.36-.366 1.36-1.006 0-.571-.297-.949-1.428-.949zM11.834 12l3.509-8.001h1.314L20.167 12h-1.852l-.652-1.486h-3.349L13.663 12h-1.83zm4.149-5.372L14.93 9.017h2.08l-1.028-2.39zM22.635 12h-1.772V3.999h3.235c2.549 0 3.235 1.28 3.235 2.606 0 1.029-.606 1.966-1.566 2.343L27.996 12h-2.138l-1.954-2.732h-1.269V12zm1.429-6.344h-1.429v1.955h1.497c.87 0 1.36-.366 1.36-1.006 0-.571-.297-.949-1.428-.949z"/></g></svg>