<svg xmlns="http://www.w3.org/2000/svg" width="40" height="16"><g fill="none" fill-rule="evenodd"><path fill="#E8E9EB" d="M2.564 0h26.872c.892 0 1.215.093 1.54.267.327.174.583.43.757.756.174.326.267.65.267 1.54v10.873c0 .892-.093 1.215-.267 1.54a1.81 1.81 0 01-.756.757c-.326.174-.65.267-1.54.267H2.563c-.892 0-1.215-.093-1.54-.267a1.817 1.817 0 01-.757-.756C.093 14.65 0 14.327 0 13.437V2.563c0-.892.093-1.215.267-1.54a1.81 1.81 0 01.756-.757C1.35.093 1.673 0 2.563 0z"/><path fill="#8F96A3" d="M16 7h2v2h-2V7zm-2-2h2v2h-2V5zm0 4h2v2h-2V9z"/></g></svg>