<?xml version="1.0" encoding="utf-8"?>
<!-- Generator: Adobe Illustrator 26.2.1, SVG Export Plug-In . SVG Version: 6.00 Build 0)  -->
<svg version="1.1" id="_x34_" xmlns="http://www.w3.org/2000/svg" xmlns:xlink="http://www.w3.org/1999/xlink" x="0px" y="0px"
	 viewBox="0 0 177.6 145" style="enable-background:new 0 0 177.6 145;" xml:space="preserve">
<style type="text/css">
	.st0{filter:url(#Adobe_OpacityMaskFilter);}
	.st1{filter:url(#Adobe_OpacityMaskFilter_00000111913960680133714670000005275378795358115986_);}
	.st2{mask:url(#SVGID_1_);fill:url(#SVGID_00000171683191431278022520000005244781350408543927_);}
	.st3{fill:url(#SVGID_00000019661902558098483390000008784513005848239756_);}
	.st4{fill:#C0C4EE;}
	.st5{fill:url(#SVGID_00000034770688393035910020000016540923126039099265_);}
	.st6{fill:#FFFFFF;}
	.st7{fill:url(#SVGID_00000128463758596721413550000014726223811793125820_);}
	.st8{opacity:0.2;}
	.st9{fill-rule:evenodd;clip-rule:evenodd;fill:#C8DA80;}
	.st10{fill-rule:evenodd;clip-rule:evenodd;fill:#E4EBB3;}
	.st11{fill-rule:evenodd;clip-rule:evenodd;fill:#A9C751;}
	.st12{fill-rule:evenodd;clip-rule:evenodd;fill:#7F953D;}
	.st13{fill-rule:evenodd;clip-rule:evenodd;fill:#D9EAF7;}
	.st14{fill-rule:evenodd;clip-rule:evenodd;fill:#A4C7E9;}
</style>
<g>
	<defs>
		<filter id="Adobe_OpacityMaskFilter" filterUnits="userSpaceOnUse" x="77.2" y="53.7" width="99.8" height="90.4">
			<feFlood  style="flood-color:white;flood-opacity:1" result="back"/>
			<feBlend  in="SourceGraphic" in2="back" mode="normal"/>
		</filter>
	</defs>
	<mask maskUnits="userSpaceOnUse" x="77.2" y="53.7" width="99.8" height="90.4" id="SVGID_1_">
		<g class="st0">
			<defs>
				
					<filter id="Adobe_OpacityMaskFilter_00000082355308489374735420000009839115522182841754_" filterUnits="userSpaceOnUse" x="77.2" y="53.7" width="99.8" height="90.4">
					<feFlood  style="flood-color:white;flood-opacity:1" result="back"/>
					<feBlend  in="SourceGraphic" in2="back" mode="normal"/>
				</filter>
			</defs>
			<mask maskUnits="userSpaceOnUse" x="77.2" y="53.7" width="99.8" height="90.4" id="SVGID_1_">
				<g style="filter:url(#Adobe_OpacityMaskFilter_00000082355308489374735420000009839115522182841754_);">
				</g>
			</mask>
			
				<linearGradient id="SVGID_00000018929387869611966230000000223208870525502396_" gradientUnits="userSpaceOnUse" x1="77.1967" y1="98.8972" x2="176.995" y2="98.8972">
				<stop  offset="0" style="stop-color:#FFFFFF"/>
				<stop  offset="1" style="stop-color:#000000"/>
			</linearGradient>
			<path style="mask:url(#SVGID_1_);fill:url(#SVGID_00000018929387869611966230000000223208870525502396_);" d="M101.3,53.7H77.2
				l71.1,41c3.2,1.9,3.2,6.5,0,8.3l-71.1,41h24.1c2.3,0,4.7-0.6,6.7-1.8l65.9-38.1c4.1-2.4,4.1-8.3,0-10.7L108,55.5
				C105.9,54.3,103.6,53.7,101.3,53.7z"/>
		</g>
	</mask>
	
		<linearGradient id="SVGID_00000062181310337003811340000000044735727476332172_" gradientUnits="userSpaceOnUse" x1="77.1967" y1="98.8972" x2="176.995" y2="98.8972">
		<stop  offset="1.032873e-03" style="stop-color:#CED2DA"/>
		<stop  offset="1" style="stop-color:#F5F5F5"/>
	</linearGradient>
	<path style="fill:url(#SVGID_00000062181310337003811340000000044735727476332172_);" d="M101.3,53.7H77.2l71.1,41
		c3.2,1.9,3.2,6.5,0,8.3l-71.1,41h24.1c2.3,0,4.7-0.6,6.7-1.8l65.9-38.1c4.1-2.4,4.1-8.3,0-10.7L108,55.5
		C105.9,54.3,103.6,53.7,101.3,53.7z"/>
	<g>
		<path class="st4" d="M154,99.7c-0.1-1.9-1.5-3.8-4.2-5.3L86.3,57.8c-5-2.9-12.6-3.2-17-0.7l-66,38.1c-2.1,1.2-3,2.8-2.9,4.5
			c0.1,1.9,1.5,3.8,4.2,5.3l63.6,36.7c5,2.9,12.6,3.2,17,0.7l66-38.1C153.2,103.1,154.1,101.4,154,99.7z"/>
		
			<linearGradient id="SVGID_00000101808456959491871470000016563905022960853150_" gradientUnits="userSpaceOnUse" x1="152.4672" y1="110.3634" x2="-0.67" y2="110.3634">
			<stop  offset="0.3962" style="stop-color:#D4D8FD"/>
			<stop  offset="0.6076" style="stop-color:#F3F4FF"/>
		</linearGradient>
		<path style="fill:url(#SVGID_00000101808456959491871470000016563905022960853150_);" d="M154,98.4L154,98.4l0-6.3l-25.8,12.5
			L86.3,80.4c-5-2.9-12.6-3.2-17-0.7l-43.1,24.9L0.3,92.1v5.8c0,0.2,0,0.3,0,0.5c0.1,1.9,1.5,3.8,4.2,5.3l63.6,36.7
			c2.6,1.5,5.9,2.3,9.1,2.4l0,0l0,0c3,0.1,5.8-0.5,7.9-1.7l66-38.1C153.2,101.7,154.1,100.1,154,98.4z"/>
		<path class="st6" d="M154,92.1c-0.1-1.9-1.5-3.8-4.2-5.3L86.3,50.1c-5-2.9-12.6-3.2-17-0.7l-66,38.1c-2.1,1.2-3,2.8-2.9,4.5
			c0.1,1.9,1.5,3.8,4.2,5.3L68.1,134c5,2.9,12.6,3.2,17,0.7l66-38.1C153.2,95.4,154.1,93.7,154,92.1z"/>
		
			<linearGradient id="SVGID_00000121989715393539950650000012928970271813711018_" gradientUnits="userSpaceOnUse" x1="0.3385" y1="91.504" x2="154.0468" y2="91.504">
			<stop  offset="0" style="stop-color:#FDFDFF"/>
			<stop  offset="1" style="stop-color:#FCFCFF"/>
		</linearGradient>
		<path style="fill:url(#SVGID_00000121989715393539950650000012928970271813711018_);" d="M154,91.5c-0.1-1.9-1.5-3.8-4.2-5.3
			L86.3,49.5c-5-2.9-12.6-3.2-17-0.7L3.3,87c-2.1,1.2-3,2.8-2.9,4.5c0.1,1.9,1.5,3.8,4.2,5.3l63.6,36.7c5,2.9,12.6,3.2,17,0.7
			l66-38.1C153.2,94.8,154.1,93.2,154,91.5z"/>
		<g class="st8">
			<path class="st6" d="M31.2,90.3c0.4,0.2,0.4,0.6,0,0.9c-0.4,0.2-1.1,0.2-1.5,0c-0.4-0.2-0.4-0.6,0-0.9
				C30.1,90.1,30.8,90.1,31.2,90.3z"/>
			<path class="st6" d="M39.2,85.7c0.4,0.2,0.4,0.6,0,0.9c-0.4,0.2-1.1,0.2-1.5,0c-0.4-0.2-0.4-0.6,0-0.9S38.8,85.5,39.2,85.7z"/>
			<path class="st6" d="M47.2,81.1c0.4,0.2,0.4,0.6,0,0.9s-1.1,0.2-1.5,0c-0.4-0.2-0.4-0.6,0-0.9C46.1,80.9,46.7,80.9,47.2,81.1z"/>
			<path class="st6" d="M55.2,76.5c0.4,0.2,0.4,0.6,0,0.9c-0.4,0.2-1.1,0.2-1.5,0c-0.4-0.2-0.4-0.6,0-0.9
				C54.1,76.2,54.7,76.2,55.2,76.5z"/>
			<path class="st6" d="M39.2,95c0.4,0.2,0.4,0.6,0,0.9c-0.4,0.2-1.1,0.2-1.5,0c-0.4-0.2-0.4-0.6,0-0.9C38.1,94.7,38.8,94.7,39.2,95
				z"/>
			<path class="st6" d="M47.2,90.3c0.4,0.2,0.4,0.6,0,0.9c-0.4,0.2-1.1,0.2-1.5,0s-0.4-0.6,0-0.9C46.1,90.1,46.7,90.1,47.2,90.3z"/>
			<path class="st6" d="M55.2,85.7c0.4,0.2,0.4,0.6,0,0.9c-0.4,0.2-1.1,0.2-1.5,0c-0.4-0.2-0.4-0.6,0-0.9
				C54.1,85.5,54.7,85.5,55.2,85.7z"/>
			<path class="st6" d="M63.2,81.1c0.4,0.2,0.4,0.6,0,0.9c-0.4,0.2-1.1,0.2-1.5,0c-0.4-0.2-0.4-0.6,0-0.9
				C62.1,80.9,62.7,80.9,63.2,81.1z"/>
			<path class="st6" d="M47.2,99.6c0.4,0.2,0.4,0.6,0,0.9c-0.4,0.2-1.1,0.2-1.5,0c-0.4-0.2-0.4-0.6,0-0.9
				C46.1,99.3,46.7,99.3,47.2,99.6z"/>
			<path class="st6" d="M55.2,95c0.4,0.2,0.4,0.6,0,0.9c-0.4,0.2-1.1,0.2-1.5,0c-0.4-0.2-0.4-0.6,0-0.9C54.1,94.7,54.7,94.7,55.2,95
				z"/>
			<path class="st6" d="M63.2,90.3c0.4,0.2,0.4,0.6,0,0.9c-0.4,0.2-1.1,0.2-1.5,0s-0.4-0.6,0-0.9C62.1,90.1,62.7,90.1,63.2,90.3z"/>
			<path class="st6" d="M71.2,85.7c0.4,0.2,0.4,0.6,0,0.9c-0.4,0.2-1.1,0.2-1.5,0s-0.4-0.6,0-0.9C70.1,85.5,70.7,85.5,71.2,85.7z"/>
			<path class="st6" d="M55.2,104.2c0.4,0.2,0.4,0.6,0,0.9c-0.4,0.2-1.1,0.2-1.5,0c-0.4-0.2-0.4-0.6,0-0.9
				C54.1,104,54.7,104,55.2,104.2z"/>
			<path class="st6" d="M63.2,99.6c0.4,0.2,0.4,0.6,0,0.9c-0.4,0.2-1.1,0.2-1.5,0c-0.4-0.2-0.4-0.6,0-0.9
				C62.1,99.3,62.7,99.3,63.2,99.6z"/>
			<path class="st6" d="M71.2,95c0.4,0.2,0.4,0.6,0,0.9c-0.4,0.2-1.1,0.2-1.5,0c-0.4-0.2-0.4-0.6,0-0.9C70.1,94.7,70.7,94.7,71.2,95
				z"/>
			<path class="st6" d="M79.2,90.3c0.4,0.2,0.4,0.6,0,0.9c-0.4,0.2-1.1,0.2-1.5,0c-0.4-0.2-0.4-0.6,0-0.9
				C78.1,90.1,78.7,90.1,79.2,90.3z"/>
			<path class="st6" d="M63.2,108.8c0.4,0.2,0.4,0.6,0,0.9s-1.1,0.2-1.5,0c-0.4-0.2-0.4-0.6,0-0.9C62.1,108.6,62.7,108.6,63.2,108.8
				z"/>
			<path class="st6" d="M71.2,104.2c0.4,0.2,0.4,0.6,0,0.9c-0.4,0.2-1.1,0.2-1.5,0c-0.4-0.2-0.4-0.6,0-0.9
				C70.1,104,70.7,104,71.2,104.2z"/>
			<path class="st6" d="M79.2,99.6c0.4,0.2,0.4,0.6,0,0.9c-0.4,0.2-1.1,0.2-1.5,0c-0.4-0.2-0.4-0.6,0-0.9
				C78.1,99.3,78.7,99.3,79.2,99.6z"/>
			<path class="st6" d="M87.2,95c0.4,0.2,0.4,0.6,0,0.9c-0.4,0.2-1.1,0.2-1.5,0c-0.4-0.2-0.4-0.6,0-0.9C86.1,94.7,86.7,94.7,87.2,95
				z"/>
			<path class="st6" d="M87.2,95c0.4,0.2,0.4,0.6,0,0.9c-0.4,0.2-1.1,0.2-1.5,0c-0.4-0.2-0.4-0.6,0-0.9C86.1,94.7,86.7,94.7,87.2,95
				z"/>
			<path class="st6" d="M63.2,71.9c0.4,0.2,0.4,0.6,0,0.9c-0.4,0.2-1.1,0.2-1.5,0c-0.4-0.2-0.4-0.6,0-0.9
				C62.1,71.6,62.7,71.6,63.2,71.9z"/>
			<path class="st6" d="M71.2,67.3c0.4,0.2,0.4,0.6,0,0.9c-0.4,0.2-1.1,0.2-1.5,0c-0.4-0.2-0.4-0.6,0-0.9C70.1,67,70.7,67,71.2,67.3
				z"/>
			<path class="st6" d="M79.2,62.6c0.4,0.2,0.4,0.6,0,0.9c-0.4,0.2-1.1,0.2-1.5,0c-0.4-0.2-0.4-0.6,0-0.9S78.7,62.4,79.2,62.6z"/>
			<path class="st6" d="M71.2,76.5c0.4,0.2,0.4,0.6,0,0.9c-0.4,0.2-1.1,0.2-1.5,0c-0.4-0.2-0.4-0.6,0-0.9
				C70.1,76.2,70.7,76.2,71.2,76.5z"/>
			<path class="st6" d="M79.2,71.9c0.4,0.2,0.4,0.6,0,0.9c-0.4,0.2-1.1,0.2-1.5,0c-0.4-0.2-0.4-0.6,0-0.9
				C78.1,71.6,78.7,71.6,79.2,71.9z"/>
			<path class="st6" d="M87.2,67.3c0.4,0.2,0.4,0.6,0,0.9c-0.4,0.2-1.1,0.2-1.5,0c-0.4-0.2-0.4-0.6,0-0.9C86.1,67,86.7,67,87.2,67.3
				z"/>
			<path class="st6" d="M79.2,81.1c0.4,0.2,0.4,0.6,0,0.9c-0.4,0.2-1.1,0.2-1.5,0c-0.4-0.2-0.4-0.6,0-0.9
				C78.1,80.9,78.7,80.9,79.2,81.1z"/>
			<path class="st6" d="M87.2,76.5c0.4,0.2,0.4,0.6,0,0.9c-0.4,0.2-1.1,0.2-1.5,0c-0.4-0.2-0.4-0.6,0-0.9
				C86.1,76.2,86.7,76.2,87.2,76.5z"/>
			<path class="st6" d="M95.1,71.9c0.4,0.2,0.4,0.6,0,0.9c-0.4,0.2-1.1,0.2-1.5,0c-0.4-0.2-0.4-0.6,0-0.9
				C94.1,71.6,94.7,71.6,95.1,71.9z"/>
			<path class="st6" d="M87.2,85.7c0.4,0.2,0.4,0.6,0,0.9c-0.4,0.2-1.1,0.2-1.5,0c-0.4-0.2-0.4-0.6,0-0.9
				C86.1,85.5,86.7,85.5,87.2,85.7z"/>
			<path class="st6" d="M95.1,81.1c0.4,0.2,0.4,0.6,0,0.9c-0.4,0.2-1.1,0.2-1.5,0c-0.4-0.2-0.4-0.6,0-0.9
				C94.1,80.9,94.7,80.9,95.1,81.1z"/>
			<path class="st6" d="M103.1,76.5c0.4,0.2,0.4,0.6,0,0.9c-0.4,0.2-1.1,0.2-1.5,0c-0.4-0.2-0.4-0.6,0-0.9
				C102.1,76.2,102.7,76.2,103.1,76.5z"/>
			<path class="st6" d="M95.1,90.3c0.4,0.2,0.4,0.6,0,0.9c-0.4,0.2-1.1,0.2-1.5,0c-0.4-0.2-0.4-0.6,0-0.9
				C94.1,90.1,94.7,90.1,95.1,90.3z"/>
			<path class="st6" d="M103.1,85.7c0.4,0.2,0.4,0.6,0,0.9c-0.4,0.2-1.1,0.2-1.5,0c-0.4-0.2-0.4-0.6,0-0.9
				C102.1,85.5,102.7,85.5,103.1,85.7z"/>
			<path class="st6" d="M111.1,81.1c0.4,0.2,0.4,0.6,0,0.9c-0.4,0.2-1.1,0.2-1.5,0c-0.4-0.2-0.4-0.6,0-0.9
				C110.1,80.9,110.7,80.9,111.1,81.1z"/>
			<path class="st6" d="M71.2,113.4c0.4,0.2,0.4,0.6,0,0.9c-0.4,0.2-1.1,0.2-1.5,0c-0.4-0.2-0.4-0.6,0-0.9
				C70.1,113.2,70.7,113.2,71.2,113.4z"/>
			<path class="st6" d="M79.2,108.8c0.4,0.2,0.4,0.6,0,0.9c-0.4,0.2-1.1,0.2-1.5,0c-0.4-0.2-0.4-0.6,0-0.9
				C78.1,108.6,78.7,108.6,79.2,108.8z"/>
			<path class="st6" d="M87.2,104.2c0.4,0.2,0.4,0.6,0,0.9c-0.4,0.2-1.1,0.2-1.5,0c-0.4-0.2-0.4-0.6,0-0.9
				C86.1,104,86.7,104,87.2,104.2z"/>
			<path class="st6" d="M95.1,99.6c0.4,0.2,0.4,0.6,0,0.9c-0.4,0.2-1.1,0.2-1.5,0c-0.4-0.2-0.4-0.6,0-0.9
				C94.1,99.3,94.7,99.3,95.1,99.6z"/>
			<path class="st6" d="M79.2,118c0.4,0.2,0.4,0.6,0,0.9c-0.4,0.2-1.1,0.2-1.5,0c-0.4-0.2-0.4-0.6,0-0.9
				C78.1,117.8,78.7,117.8,79.2,118z"/>
			<path class="st6" d="M87.2,113.4c0.4,0.2,0.4,0.6,0,0.9s-1.1,0.2-1.5,0c-0.4-0.2-0.4-0.6,0-0.9C86.1,113.2,86.7,113.2,87.2,113.4
				z"/>
			<path class="st6" d="M95.1,108.8c0.4,0.2,0.4,0.6,0,0.9c-0.4,0.2-1.1,0.2-1.5,0c-0.4-0.2-0.4-0.6,0-0.9
				C94.1,108.6,94.7,108.6,95.1,108.8z"/>
			<path class="st6" d="M103.1,104.2c0.4,0.2,0.4,0.6,0,0.9c-0.4,0.2-1.1,0.2-1.5,0c-0.4-0.2-0.4-0.6,0-0.9
				C102.1,104,102.7,104,103.1,104.2z"/>
			<path class="st6" d="M103.1,95c0.4,0.2,0.4,0.6,0,0.9c-0.4,0.2-1.1,0.2-1.5,0s-0.4-0.6,0-0.9C102.1,94.7,102.7,94.7,103.1,95z"/>
			<path class="st6" d="M111.1,90.3c0.4,0.2,0.4,0.6,0,0.9c-0.4,0.2-1.1,0.2-1.5,0c-0.4-0.2-0.4-0.6,0-0.9S110.7,90.1,111.1,90.3z"
				/>
			<path class="st6" d="M119.1,85.7c0.4,0.2,0.4,0.6,0,0.9c-0.4,0.2-1.1,0.2-1.5,0c-0.4-0.2-0.4-0.6,0-0.9
				C118.1,85.5,118.7,85.5,119.1,85.7z"/>
			<path class="st6" d="M111.1,99.6c0.4,0.2,0.4,0.6,0,0.9c-0.4,0.2-1.1,0.2-1.5,0c-0.4-0.2-0.4-0.6,0-0.9
				C110.1,99.3,110.7,99.3,111.1,99.6z"/>
			<path class="st6" d="M119.1,95c0.4,0.2,0.4,0.6,0,0.9c-0.4,0.2-1.1,0.2-1.5,0c-0.4-0.2-0.4-0.6,0-0.9
				C118.1,94.7,118.7,94.7,119.1,95z"/>
			<path class="st6" d="M127.1,90.3c0.4,0.2,0.4,0.6,0,0.9c-0.4,0.2-1.1,0.2-1.5,0c-0.4-0.2-0.4-0.6,0-0.9
				C126.1,90.1,126.7,90.1,127.1,90.3z"/>
		</g>
	</g>
</g>
<g>
	<path class="st9" d="M87,4.4c-2.3-1-4.4-2.4-6.5-4.2c-8.6,15.7-18.7,27.3-30.8,33.7c0,0-3.3,46,4.3,58.1c4,6.4,9.9,9.3,14.2,10.7
		c-2.9-2-5.5-4.3-7.3-7.2c-7.6-12-4.3-58.1-4.3-58.1C68.5,31,78.5,19.7,87,4.4L87,4.4z"/>
	<path class="st10" d="M118.1,6.6l-6.9-3.4c-8,3.7-15.1,4.3-21.5,2.2c8,5.5,17.4,6.3,28.3,1.3L118.1,6.6L118.1,6.6z"/>
	<path class="st11" d="M87.4,110.5c0,0-19.3-3.8-26.5-15.1c-7.6-12-4.3-58.1-4.3-58.1c12.1-6.5,22.2-18.1,30.8-33.7
		c8.6,7.1,18.7,8.6,30.8,3c0,0,3.3,42.8-4.3,62.4C106.7,87.4,87.4,110.5,87.4,110.5L87.4,110.5z"/>
	<path class="st12" d="M102.2,32.1c0.7-1.5,1.7-2.7,2.9-3.3c2-1,3.7,0.3,3.7,2.9c0,1.1-0.3,2.3-0.8,3.3l0,0l0,0
		c-0.1,0.3-0.3,0.6-0.4,0.8L84.9,78.7l0,0c-0.7,1.4-1.7,2.6-2.9,3.2c-1.1,0.5-2,0.4-2.7-0.2l0,0l0,0l0,0l0,0L68.1,71.5
		c-0.1-0.1-0.3-0.2-0.4-0.3l0,0l0,0c-0.5-0.6-0.8-1.4-0.8-2.5c0-2.6,1.7-5.6,3.7-6.6c1-0.5,2-0.4,2.7,0.1l0,0l0,0
		c0,0,0.1,0.1,0.1,0.1l8.6,7.8L102.2,32.1L102.2,32.1L102.2,32.1z"/>
	<path class="st10" d="M87.4,3.7c0,0-3.9-1.9-6.9-3.4c-8.6,15.7-18.7,27.2-30.8,33.7l6.9,3.4c12-6.5,22.1-18,30.7-33.6L87.4,3.7
		L87.4,3.7z"/>
	<path class="st13" d="M108.7,35.4c0.7-1.5,1.7-2.7,2.9-3.3c2-1,3.7,0.3,3.7,2.9c0,1.1-0.3,2.3-0.8,3.3l0,0l0,0
		c-0.1,0.3-0.3,0.6-0.4,0.8L91.4,81.9l0,0c-0.7,1.4-1.7,2.6-2.9,3.2c-1.1,0.5-2,0.4-2.7-0.2l0,0l0,0l0,0l0,0L74.6,74.8
		c-0.1-0.1-0.3-0.2-0.4-0.3l0,0l0,0c-0.5-0.6-0.8-1.4-0.8-2.5c0-2.6,1.7-5.6,3.7-6.6c1-0.5,2-0.4,2.7,0.1l0,0l0,0
		c0,0,0.1,0.1,0.1,0.1l8.6,7.8L108.7,35.4L108.7,35.4L108.7,35.4z"/>
	<path class="st14" d="M86.3,85.2L86.3,85.2l-3.5-1.7l0,0c-0.2-0.1-0.3-0.2-0.5-0.3l0,0l0,0l0,0l0,0L71.2,73.1
		c-0.1-0.1-0.3-0.2-0.4-0.3l0,0l0,0c-0.5-0.6-0.8-1.4-0.8-2.5c0-2.6,1.7-5.6,3.7-6.6c0.9-0.4,1.7-0.4,2.3-0.1l0,0l3.3,1.6l0,0
		c-0.6-0.3-1.3-0.2-2.1,0.2c-2,1-3.7,4-3.7,6.6c0,1.1,0.3,2,0.8,2.5l0,0l0,0c0.1,0.1,0.2,0.2,0.4,0.3l11.2,10.1l0,0l0,0l0,0l0,0
		C86,85.1,86.1,85.2,86.3,85.2L86.3,85.2z M85.6,70.7l19.7-37l0,0c0.7-1.5,1.7-2.7,2.9-3.3c0.9-0.4,1.6-0.4,2.3-0.1l0,0l3.5,1.7l0,0
		c-0.6-0.3-1.4-0.3-2.3,0.1c-1.2,0.6-2.2,1.8-2.9,3.3l0,0l-20.2,38L85.6,70.7L85.6,70.7z"/>
</g>
</svg>
