<svg xmlns="http://www.w3.org/2000/svg" width="32" height="16"><g fill="none" fill-rule="evenodd"><path fill="#111214" d="M2.564 0h26.872c.892 0 1.215.093 1.54.267.327.174.583.43.757.756.174.326.267.65.267 1.54v10.873c0 .892-.093 1.215-.267 1.54a1.81 1.81 0 01-.756.757c-.326.174-.65.267-1.54.267H2.563c-.892 0-1.215-.093-1.54-.267a1.817 1.817 0 01-.757-.756C.093 14.65 0 14.327 0 13.437V2.563c0-.892.093-1.215.267-1.54a1.81 1.81 0 01.756-.757C1.35.093 1.673 0 2.563 0z"/><path fill="#FFF" fill-rule="nonzero" d="M4.461 12V3.999h1.646l2.56 3.829 2.435-3.829h1.6V12h-1.771V7.2l-2.08 3.188h-.47L6.234 7.165V12H4.461zm11.499 0h-1.772V3.999h3.315c2.72 0 3.395 1.44 3.395 2.755 0 1.348-.869 2.731-3.395 2.731H15.96V12zm1.589-6.344H15.96v2.172h1.52c1.109 0 1.578-.411 1.578-1.086 0-.628-.39-1.086-1.51-1.086zm5.372.949l-1.417-.663c.457-1.223 1.474-2.046 3.36-2.046 1.657 0 2.812.789 2.812 2.138 0 .765-.366 1.314-1.04 1.634.765.274 1.303.834 1.303 1.852 0 1.531-1.166 2.571-3.052 2.571-1.635 0-2.892-.457-3.52-2.114l1.554-.697c.217.651.846 1.154 1.783 1.154.857 0 1.406-.354 1.406-.914s-.526-.812-1.292-.812h-1.166v-1.6h.938c.8 0 1.257-.354 1.257-.8 0-.457-.332-.755-1.143-.755-.983 0-1.509.458-1.783 1.052z"/></g></svg>