<svg xmlns="http://www.w3.org/2000/svg" width="40" height="16"><g fill="none" fill-rule="evenodd"><path fill="#111214" d="M2.564 0h34.872c.892 0 1.215.093 1.54.267.327.174.583.43.757.756.174.326.267.65.267 1.54v10.873c0 .892-.093 1.215-.267 1.54a1.81 1.81 0 01-.756.757c-.326.174-.65.267-1.54.267H2.563c-.892 0-1.215-.093-1.54-.267a1.817 1.817 0 01-.757-.756C.093 14.65 0 14.327 0 13.437V2.563c0-.892.093-1.215.267-1.54a1.81 1.81 0 01.756-.757C1.35.093 1.673 0 2.563 0z"/><path fill="#FFF" fill-rule="nonzero" d="M7.284 12H5.512V3.999h3.315c2.72 0 3.395 1.44 3.395 2.755 0 1.348-.869 2.731-3.395 2.731H7.284V12zm1.589-6.344H7.284v2.172h1.52c1.109 0 1.578-.411 1.578-1.086 0-.628-.389-1.086-1.51-1.086zM15.023 12H13.25V3.999h3.314c2.72 0 3.395 1.44 3.395 2.755 0 1.348-.869 2.731-3.395 2.731h-1.543V12zm1.588-6.344h-1.589v2.172h1.52c1.11 0 1.578-.411 1.578-1.086 0-.628-.389-1.086-1.509-1.086zm3.635 0V4h6.903v1.657h-2.571V12h-1.772V5.656h-2.56zM35.139 4l-2.892 3.943L35.23 12h-2.16l-1.874-2.617L29.31 12h-2.16l2.994-4.058L27.275 4h2.138l1.794 2.48L32.99 4h2.149z"/></g></svg>