<svg xmlns="http://www.w3.org/2000/svg" viewBox="0 0 84.02 87.91"><defs><style>.cls-1{fill:#52565a;}</style></defs><title>monitor</title><g id="Layer_2" data-name="Layer 2"><g id="Layer_1-2" data-name="Layer 1"><path class="cls-1" d="M1.87,49.1l-.44-.25h0ZM69,57.93l.24.44Zm13.6-9.08a10.89,10.89,0,0,1-4.12,14.84,8.46,8.46,0,0,1-.79.41h0A9.84,9.84,0,0,0,72,72h0a10.75,10.75,0,0,1-11.83,9.55c-.34,0-.68-.09-1-.16h0l.12-.49h0l-.12.49h0a9.72,9.72,0,0,0-9.16,3h0L49.64,84h0l.38.33h0A10.66,10.66,0,0,1,35,85.18a7.74,7.74,0,0,1-.81-.81h0l.37-.33h0l-.37.33h0a9.67,9.67,0,0,0-9.16-3h0A10.74,10.74,0,0,1,12.3,73a9,9,0,0,1-.16-1h0a12.23,12.23,0,0,0-.21-1.21h-.35a1,1,0,0,1-.71-.35,1,1,0,0,1-.35-.73l1,.11h0l-1-.11h0v-.34c0-.23.07-.56.12-1V68.1a9.76,9.76,0,0,0-4.36-4A10.89,10.89,0,0,1,1,49.62a8,8,0,0,1,.4-.77l.88.5A9.86,9.86,0,0,0,6,62.8c.25.14.51.27.77.39h0l-.19.41-.09.2.28-.61a10.69,10.69,0,0,1,4.11,3.31c.07-.56.14-1.18.21-1.87s.16-1.47.25-2.29a8.13,8.13,0,0,0-.81-.47h0a9.87,9.87,0,0,1-4.78-5.31h0A1.5,1.5,0,0,1,3.38,54.7h0l1.69-2.16A10.21,10.21,0,0,1,6.22,48h0l.43.23h0L6.21,48a9.38,9.38,0,0,0,0-8.64,10.06,10.06,0,0,1,4.36-13.55l.11-.06h0a9.23,9.23,0,0,0,5-6.94h0A9.87,9.87,0,0,1,26.9,10.47l.3,0h0l-.09.49h0l.1-.49a7.22,7.22,0,0,0,1.31.16L31.42,8h0a.57.57,0,0,1,.21-.13l.13-.07h.38L35.35,8a9.57,9.57,0,0,1,13.54-.22c.13.12.24.24.36.36h0l-.36.35h0l.36-.35h0a7.83,7.83,0,0,0,.9.83l14.36,1A1,1,0,0,1,65.44,11l-.19,2.1a10.07,10.07,0,0,1,1.26,1.35l2.38-3.36a9.66,9.66,0,0,0-9.57-3.51h0l-.1-.48h0l.1.49A10.67,10.67,0,0,1,49.24,4.21h0l.38-.33h0l-.38.33h0a9.69,9.69,0,0,0-13.67-.73,10.05,10.05,0,0,0-.73.73h0A10.67,10.67,0,0,1,24.69,7.52h0L24.81,7h0l-.12.49h0a9.75,9.75,0,0,0-11.52,7.58,8,8,0,0,0-.15,1h0a10.84,10.84,0,0,1-6.25,8.66A9.85,9.85,0,0,0,1.89,37.79c.13.28.27.56.42.82h0a10.93,10.93,0,0,1,0,10.74l-.87-.5a10,10,0,0,0,0-9.75A10.87,10.87,0,0,1,5.52,24.28c.27-.15.54-.29.82-.42h0A9.83,9.83,0,0,0,12,16v-.05h0A10.75,10.75,0,0,1,23.85,6.38c.34,0,.68.09,1,.16l-.1.49h0l.1-.49h0a9.68,9.68,0,0,0,9.16-3h0l.35.31L34,3.54A10.67,10.67,0,0,1,49.1,2.73q.42.39.81.81h0l-.13.14L50,3.52h0a9.72,9.72,0,0,0,9.16,3h0a10.66,10.66,0,0,1,10.39,3.67l2.75-3.88a1.5,1.5,0,0,1,2.44,1.74L71.21,13A11.09,11.09,0,0,1,72,15.93h0V16l-.5.05h0L72,16a9.81,9.81,0,0,0,5.68,7.88A10.89,10.89,0,0,1,83,38.3c-.13.27-.26.54-.41.8h0a10,10,0,0,0,0,9.75l-.87.5a10.93,10.93,0,0,1,0-10.74A9.87,9.87,0,0,0,78,25.16c-.25-.14-.5-.27-.76-.39h0A10.84,10.84,0,0,1,71,16.11h0A10.61,10.61,0,0,0,70.52,14l-1.88,2.72,1.55.12a1,1,0,0,1,.93,1.07v0l-.53,5.86A8.64,8.64,0,0,0,73.46,26h0a9.93,9.93,0,0,1,4.45,13.31l-.1.19-.44-.24h0l.41.22h0a9.09,9.09,0,0,0,0,8.54h0a10,10,0,0,1-4.06,13.55l-.13.07h0a9.12,9.12,0,0,0-4.91,7h0a10,10,0,0,1-2.63,5.52l-.53,5.48A9.78,9.78,0,0,0,71,71.91h0a10.81,10.81,0,0,1,6.25-8.66,9.85,9.85,0,0,0,4.84-13.07c-.12-.26-.25-.52-.39-.77ZM64.52,79.62h0v.48h0Zm7.56-40A7.65,7.65,0,0,0,70,30.34L67.41,59.07A8.29,8.29,0,0,1,69,57.93l.24.44h0L69,57.93A7.81,7.81,0,0,0,72.19,47.6h0a9,9,0,0,1-.07-8ZM68.44,68.68h0Zm2.08-43.61-.37,4.09a8.65,8.65,0,0,1,2.91,10.9h0a8,8,0,0,0,.08,7.09h0A8.83,8.83,0,0,1,69.52,58.8h0a8.15,8.15,0,0,0-2.25,1.88L66.21,72.41a9,9,0,0,0,1.48-3.87h0a10.11,10.11,0,0,1,5.45-7.71h0A9,9,0,0,0,77,48.71L77,48.58h0a10.19,10.19,0,0,1,0-9.48A8.94,8.94,0,0,0,73.2,27a.61.61,0,0,1-.14-.07h0l.21-.45h0L73,27A9.29,9.29,0,0,1,70.52,25.07Zm-3.18-6.5-2.83,4L59.94,72.78l-1-.09-.07,1L19,71.21l-.17.2-.57,4.33,45.39,2.82L69,18.68ZM36.06,79.33l-.36.34h0l.36-.34a8.65,8.65,0,0,0,12.17.28l-12.71-.8.55.49h0Zm22-7.7,4.12-45.81-4.42,6.23a1.52,1.52,0,0,1-1.13.63,1.47,1.47,0,0,1-1.2-.49l-3.74-4.12L40.75,43.55a1.48,1.48,0,0,1-1.1.62,1.5,1.5,0,0,1-1.19-.43L35.4,40.68H32.7l-6.05,7a1.48,1.48,0,0,1-2.1.17,1.1,1.1,0,0,1-.27-.3l-5.34-7.87L15.3,44.32c-.3,2.83-.6,5.63-.89,8.28-.52,4.8-1,9.1-1.34,12.21-.17,1.55-.31,2.8-.41,3.67v.29ZM12.79,42.68l.78-1c.45-4.2.89-8.39,1.28-12.19A8,8,0,0,0,12,39.42,9.44,9.44,0,0,1,12.79,42.68Zm-.67,12.53q.15-1.37.3-2.79c.18-1.65.36-3.36.55-5.09l-1.79,2.28A8.22,8.22,0,0,0,12.12,55.21Zm13.54-11,1-1.12L24.83,43ZM65.2,14.3,65,16.39h.14L66,15.23C65.73,14.91,65.47,14.6,65.2,14.3ZM36.75,8l11.87.79h0A8.58,8.58,0,0,0,36.75,8ZM31.07,24.28a1,1,0,0,1-.87.09l.34-.94h0l-.34.94a19.46,19.46,0,0,0-12.83,0c-.4,4.14-.92,9.16-1.47,14.34l1.94-2.48A1.51,1.51,0,0,1,20,36a2.27,2.27,0,0,1,.3.32l.29.42.64-8.15a1,1,0,0,1,1.08-.9l8.16.65a1,1,0,0,1,.92,1.07l-.66,8.44-1-.08-.08,1-8.09-.65,1.87,2.74,4.9.39,2.64-3A1.48,1.48,0,0,1,32,37.68h4a1.5,1.5,0,0,1,1.06.44l2.24,2.24,3-4.29-7.8-.39a1,1,0,1,1,.1-2l9.14.46,6.58-9.33a1.51,1.51,0,0,1,1.14-.63,1.49,1.49,0,0,1,1.2.49l3.74,4.12,6.32-8.92.73-8.09-30.42-2v.56c-.09.94-.23,2.27-.38,3.76-.31,3-.7,6.69-1,9.49A1,1,0,0,1,31.07,24.28Zm-2.3,12.4.51-6.44-6.18-.48-.5,6.43Zm2.07-25.44L19.76,21.68a20.86,20.86,0,0,1,9.93.4c.3-2.58.62-5.67.89-8.24C30.68,12.89,30.77,12,30.84,11.24ZM16,18.89l.26.05h0ZM6.17,51.14,11.79,44a8.35,8.35,0,0,0-.73-4.12A8.93,8.93,0,0,1,15,28.28c.18-1.75.35-3.43.5-5a1,1,0,0,1,.31-.63L27.57,11.58l-.48-.06h0a8.84,8.84,0,0,0-10.26,7.15c0,.11,0,.22,0,.33h0a10.24,10.24,0,0,1-5.63,7.68h0l-.21-.42h0l.22.45a9.06,9.06,0,0,0-4,12.16l0,.09-.44.23h0l.39-.2h0a10.37,10.37,0,0,1-.06,9.57h0A9.16,9.16,0,0,0,6.17,51.14Zm5.28,10.11c.16-1.37.32-2.87.49-4.46A9.35,9.35,0,0,1,10,51.08l-3.57,4.6A9,9,0,0,0,11,61h0l-.22.44h0L11,61Zm1.07,10.68Zm50.34,8.58-13.28-.83c-.06.06-.13.11-.19.18h0a.08.08,0,0,1,0-.07h0a.57.57,0,0,1-.08.13l-.21-.2h0l.21.2h0l-.17-.24h0l.24.22a9.66,9.66,0,0,1-13.66.48L35.38,80h0a9.36,9.36,0,0,0-1.72-1.36l-16.59-1a.94.94,0,0,1-.71-.36,1.06,1.06,0,0,1-.22-.77l.55-4.24A8.55,8.55,0,0,1,16.11,71l-3.27-.2c.07.33.13.67.17,1h0l-.5,0h0l.5,0a9.75,9.75,0,0,0,10.7,8.7c.32,0,.63-.08.94-.15h0l.12.48h0l-.12-.48h0a10.72,10.72,0,0,1,10.12,3.32h0l-.38.33h0l.38-.33h0a9.67,9.67,0,0,0,13.65.74,8.61,8.61,0,0,0,.74-.74h0A10.69,10.69,0,0,1,59.27,80.4l-.1.48h0l.1-.48h0A9.43,9.43,0,0,0,62.86,80.51ZM82.61,48.85h0l-.43.25Zm-54.84.83-6.17-.49.21-2.67L20,43.89,19.52,50a1,1,0,0,0,.91,1.08h0l8.17.64a1,1,0,0,0,1.07-.91L30,46.51l-2.21,2.54Zm26.8-14.8-4-.2a1,1,0,0,0-.1,2l4,.2a1,1,0,0,0,.1-2Zm-23.88,3-1-.08-.08,1a1,1,0,0,0,1.08-.91v0Zm19.89,24.8-18-1a1,1,0,1,0-.12,2l18,1a1,1,0,0,0,.12-2ZM29.35,55.4l-.66,8.44-1-.08-.08,1-8.17-.64a1,1,0,0,1-.92-1.07v0l.67-8.43a1,1,0,0,1,1.07-.92h0l8.16.65A1,1,0,0,1,29.35,55.4Zm-2.07.84-6.18-.48-.5,6.43,6.17.49ZM59.94,72.78l-1-.09-.07,1A1,1,0,0,0,59.94,72.78ZM33.45,49.68l14,1a1,1,0,0,0,.14-2l-14-1a1,1,0,1,0-.14,2ZM27.61,64.75a1,1,0,0,0,1.08-.91l-1-.08Z"/></g></g></svg>