<?xml version="1.0" encoding="utf-8"?>
<!-- Generator: Adobe Illustrator 26.2.1, SVG Export Plug-In . SVG Version: 6.00 Build 0)  -->
<svg version="1.1" id="_x36_" xmlns="http://www.w3.org/2000/svg" xmlns:xlink="http://www.w3.org/1999/xlink" x="0px" y="0px"
	 viewBox="0 0 177.6 145" style="enable-background:new 0 0 177.6 145;" xml:space="preserve">
<style type="text/css">
	.st0{filter:url(#Adobe_OpacityMaskFilter);}
	.st1{filter:url(#Adobe_OpacityMaskFilter_00000088125651185638700250000012531510428875614120_);}
	.st2{mask:url(#SVGID_1_);fill:url(#SVGID_00000078737669981290288060000009660847523040660132_);}
	.st3{fill:url(#SVGID_00000103229299561185872590000014940870213834463924_);}
	.st4{fill:#C0C4EE;}
	.st5{fill:url(#SVGID_00000168085458424459596930000012768649157606981558_);}
	.st6{fill:#FFFFFF;}
	.st7{fill:url(#SVGID_00000000934262961211995550000007528703930800734636_);}
	.st8{opacity:0.2;}
	.st9{enable-background:new    ;}
	.st10{clip-path:url(#SVGID_00000023277516732049288080000018055645087245517727_);enable-background:new    ;}
	.st11{fill:#21539C;}
	.st12{fill:#205197;}
	.st13{clip-path:url(#SVGID_00000108285057454879854770000000451708523554115723_);enable-background:new    ;}
	.st14{fill:#1B447F;}
	.st15{fill:#22549E;}
	.st16{fill:#1A417A;}
	.st17{clip-path:url(#SVGID_00000180330731353749405210000010005156802402212272_);enable-background:new    ;}
	.st18{clip-path:url(#SVGID_00000168103364858008181820000000307170308065479592_);enable-background:new    ;}
	.st19{fill:#2660B4;}
	.st20{clip-path:url(#SVGID_00000013912947516393611950000006416318661650832819_);enable-background:new    ;}
	.st21{fill:#2358A6;}
	.st22{fill:#2256A1;}
	.st23{fill:#1F4E92;}
	.st24{fill:#1E4B8E;}
	.st25{fill:#1D4989;}
	.st26{fill:#1C4684;}
	.st27{clip-path:url(#SVGID_00000018216244689406815690000016269848269628131243_);enable-background:new    ;}
	.st28{fill:#255EB0;}
	.st29{fill:#2660B5;}
	.st30{fill:#245BAB;}
	.st31{fill:#2865BD;}
	.st32{clip-path:url(#SVGID_00000119105054335631378620000014364585353902623390_);enable-background:new    ;}
	.st33{fill:#B8B8B8;}
	.st34{fill:#B3B3B3;}
	.st35{fill:#ADADAD;}
	.st36{fill:#A8A8A8;}
	.st37{fill:#A3A3A3;}
	.st38{fill:#9E9E9E;}
	.st39{clip-path:url(#SVGID_00000020364280044987925520000014146666679813601439_);enable-background:new    ;}
	.st40{fill:#BDBDBD;}
	.st41{clip-path:url(#SVGID_00000160188005918665357360000006421340354020261788_);enable-background:new    ;}
	.st42{clip-path:url(#SVGID_00000124878160607516019380000009794824953498791336_);enable-background:new    ;}
	.st43{fill:#858585;}
	.st44{fill:#BCBCBC;}
	.st45{clip-path:url(#SVGID_00000070804279325617137840000001942326998138176692_);enable-background:new    ;}
	.st46{clip-path:url(#SVGID_00000067948126434736699520000016836642526946595502_);enable-background:new    ;}
	.st47{fill:#2967C2;}
	.st48{fill:#1B427C;}
	.st49{clip-path:url(#SVGID_00000164503891482392469590000004993946998034703259_);enable-background:new    ;}
	.st50{clip-path:url(#SVGID_00000077296375176465401770000001526514177107463562_);enable-background:new    ;}
	.st51{clip-path:url(#SVGID_00000134930564054470635080000000895877065669853066_);enable-background:new    ;}
	.st52{fill:#808080;}
	.st53{fill:#D4D4D4;}
	.st54{clip-path:url(#SVGID_00000178199513366445410180000005376856170944601000_);enable-background:new    ;}
	.st55{fill:#8A8A8A;}
	.st56{fill:#8F8F8F;}
	.st57{fill:#949494;}
	.st58{fill:#999999;}
	.st59{clip-path:url(#SVGID_00000170974036932371658440000011691017360014032000_);enable-background:new    ;}
	.st60{clip-path:url(#SVGID_00000125563284770281900540000012634630513795230852_);enable-background:new    ;}
	.st61{fill:#205095;}
	.st62{clip-path:url(#SVGID_00000009583908235602226720000011134940602229641382_);enable-background:new    ;}
	.st63{clip-path:url(#SVGID_00000133500286923541293310000006703401048131637397_);enable-background:new    ;}
	.st64{fill:#2760B5;}
	.st65{fill:#2358A4;}
	.st66{fill:#265FB2;}
	.st67{clip-path:url(#SVGID_00000103982312380634027780000012193895026737706894_);enable-background:new    ;}
	.st68{clip-path:url(#SVGID_00000155851980021642425440000002062220359363161474_);enable-background:new    ;}
	.st69{clip-path:url(#SVGID_00000142143388065177735140000004233073352762369977_);enable-background:new    ;}
	.st70{clip-path:url(#SVGID_00000165943855093761176110000012390494916242548923_);enable-background:new    ;}
	.st71{fill:#2A68C3;}
	.st72{fill:#1D4887;}
	.st73{clip-path:url(#SVGID_00000034055657427352541780000002900826115692822439_);enable-background:new    ;}
	.st74{fill:#2B6CCB;}
</style>
<g>
	<defs>
		<filter id="Adobe_OpacityMaskFilter" filterUnits="userSpaceOnUse" x="77.2" y="53.7" width="99.8" height="90.4">
			<feFlood  style="flood-color:white;flood-opacity:1" result="back"/>
			<feBlend  in="SourceGraphic" in2="back" mode="normal"/>
		</filter>
	</defs>
	<mask maskUnits="userSpaceOnUse" x="77.2" y="53.7" width="99.8" height="90.4" id="SVGID_1_">
		<g class="st0">
			<defs>
				
					<filter id="Adobe_OpacityMaskFilter_00000065055426155285615270000011077576162808771457_" filterUnits="userSpaceOnUse" x="77.2" y="53.7" width="99.8" height="90.4">
					<feFlood  style="flood-color:white;flood-opacity:1" result="back"/>
					<feBlend  in="SourceGraphic" in2="back" mode="normal"/>
				</filter>
			</defs>
			<mask maskUnits="userSpaceOnUse" x="77.2" y="53.7" width="99.8" height="90.4" id="SVGID_1_">
				<g style="filter:url(#Adobe_OpacityMaskFilter_00000065055426155285615270000011077576162808771457_);">
				</g>
			</mask>
			
				<linearGradient id="SVGID_00000089550331564886030000000012686627354368918419_" gradientUnits="userSpaceOnUse" x1="77.1967" y1="98.8972" x2="176.995" y2="98.8972">
				<stop  offset="0" style="stop-color:#FFFFFF"/>
				<stop  offset="1" style="stop-color:#000000"/>
			</linearGradient>
			<path style="mask:url(#SVGID_1_);fill:url(#SVGID_00000089550331564886030000000012686627354368918419_);" d="M101.3,53.7H77.2
				l71.1,41c3.2,1.9,3.2,6.5,0,8.3l-71.1,41h24.1c2.3,0,4.7-0.6,6.7-1.8l65.9-38.1c4.1-2.4,4.1-8.3,0-10.7L108,55.5
				C105.9,54.3,103.6,53.7,101.3,53.7z"/>
		</g>
	</mask>
	
		<linearGradient id="SVGID_00000181074461979698078850000000409262239169557139_" gradientUnits="userSpaceOnUse" x1="77.1967" y1="98.8972" x2="176.995" y2="98.8972">
		<stop  offset="1.032873e-03" style="stop-color:#CED2DA"/>
		<stop  offset="1" style="stop-color:#F5F5F5"/>
	</linearGradient>
	<path style="fill:url(#SVGID_00000181074461979698078850000000409262239169557139_);" d="M101.3,53.7H77.2l71.1,41
		c3.2,1.9,3.2,6.5,0,8.3l-71.1,41h24.1c2.3,0,4.7-0.6,6.7-1.8l65.9-38.1c4.1-2.4,4.1-8.3,0-10.7L108,55.5
		C105.9,54.3,103.6,53.7,101.3,53.7z"/>
	<g>
		<path class="st4" d="M154,99.7c-0.1-1.9-1.5-3.8-4.2-5.3L86.3,57.8c-5-2.9-12.6-3.2-17-0.7l-66,38.1c-2.1,1.2-3,2.8-2.9,4.5
			c0.1,1.9,1.5,3.8,4.2,5.3l63.6,36.7c5,2.9,12.6,3.2,17,0.7l66-38.1C153.2,103.1,154.1,101.4,154,99.7z"/>
		
			<linearGradient id="SVGID_00000031195170832652859450000009056012774149558405_" gradientUnits="userSpaceOnUse" x1="152.4672" y1="110.3634" x2="-0.67" y2="110.3634">
			<stop  offset="0.3962" style="stop-color:#D4D8FD"/>
			<stop  offset="0.6076" style="stop-color:#F3F4FF"/>
		</linearGradient>
		<path style="fill:url(#SVGID_00000031195170832652859450000009056012774149558405_);" d="M154,98.4L154,98.4l0-6.3l-25.8,12.5
			L86.3,80.4c-5-2.9-12.6-3.2-17-0.7l-43.1,24.9L0.3,92.1v5.8c0,0.2,0,0.3,0,0.5c0.1,1.9,1.5,3.8,4.2,5.3l63.6,36.7
			c2.6,1.5,5.9,2.3,9.1,2.4l0,0l0,0c3,0.1,5.8-0.5,7.9-1.7l66-38.1C153.2,101.7,154.1,100.1,154,98.4z"/>
		<path class="st6" d="M154,92.1c-0.1-1.9-1.5-3.8-4.2-5.3L86.3,50.1c-5-2.9-12.6-3.2-17-0.7l-66,38.1c-2.1,1.2-3,2.8-2.9,4.5
			c0.1,1.9,1.5,3.8,4.2,5.3L68.1,134c5,2.9,12.6,3.2,17,0.7l66-38.1C153.2,95.4,154.1,93.7,154,92.1z"/>
		
			<linearGradient id="SVGID_00000003795041060016987050000012637236948793579175_" gradientUnits="userSpaceOnUse" x1="0.3385" y1="91.504" x2="154.0468" y2="91.504">
			<stop  offset="0" style="stop-color:#FDFDFF"/>
			<stop  offset="1" style="stop-color:#FCFCFF"/>
		</linearGradient>
		<path style="fill:url(#SVGID_00000003795041060016987050000012637236948793579175_);" d="M154,91.5c-0.1-1.9-1.5-3.8-4.2-5.3
			L86.3,49.5c-5-2.9-12.6-3.2-17-0.7L3.3,87c-2.1,1.2-3,2.8-2.9,4.5c0.1,1.9,1.5,3.8,4.2,5.3l63.6,36.7c5,2.9,12.6,3.2,17,0.7
			l66-38.1C153.2,94.8,154.1,93.2,154,91.5z"/>
		<g class="st8">
			<path class="st6" d="M31.2,90.3c0.4,0.2,0.4,0.6,0,0.9c-0.4,0.2-1.1,0.2-1.5,0c-0.4-0.2-0.4-0.6,0-0.9
				C30.1,90.1,30.8,90.1,31.2,90.3z"/>
			<path class="st6" d="M39.2,85.7c0.4,0.2,0.4,0.6,0,0.9c-0.4,0.2-1.1,0.2-1.5,0c-0.4-0.2-0.4-0.6,0-0.9S38.8,85.5,39.2,85.7z"/>
			<path class="st6" d="M47.2,81.1c0.4,0.2,0.4,0.6,0,0.9s-1.1,0.2-1.5,0c-0.4-0.2-0.4-0.6,0-0.9C46.1,80.9,46.7,80.9,47.2,81.1z"/>
			<path class="st6" d="M55.2,76.5c0.4,0.2,0.4,0.6,0,0.9c-0.4,0.2-1.1,0.2-1.5,0c-0.4-0.2-0.4-0.6,0-0.9
				C54.1,76.2,54.7,76.2,55.2,76.5z"/>
			<path class="st6" d="M39.2,95c0.4,0.2,0.4,0.6,0,0.9c-0.4,0.2-1.1,0.2-1.5,0c-0.4-0.2-0.4-0.6,0-0.9C38.1,94.7,38.8,94.7,39.2,95
				z"/>
			<path class="st6" d="M47.2,90.3c0.4,0.2,0.4,0.6,0,0.9c-0.4,0.2-1.1,0.2-1.5,0s-0.4-0.6,0-0.9C46.1,90.1,46.7,90.1,47.2,90.3z"/>
			<path class="st6" d="M55.2,85.7c0.4,0.2,0.4,0.6,0,0.9c-0.4,0.2-1.1,0.2-1.5,0c-0.4-0.2-0.4-0.6,0-0.9
				C54.1,85.5,54.7,85.5,55.2,85.7z"/>
			<path class="st6" d="M63.2,81.1c0.4,0.2,0.4,0.6,0,0.9c-0.4,0.2-1.1,0.2-1.5,0c-0.4-0.2-0.4-0.6,0-0.9
				C62.1,80.9,62.7,80.9,63.2,81.1z"/>
			<path class="st6" d="M47.2,99.6c0.4,0.2,0.4,0.6,0,0.9c-0.4,0.2-1.1,0.2-1.5,0c-0.4-0.2-0.4-0.6,0-0.9
				C46.1,99.3,46.7,99.3,47.2,99.6z"/>
			<path class="st6" d="M55.2,95c0.4,0.2,0.4,0.6,0,0.9c-0.4,0.2-1.1,0.2-1.5,0c-0.4-0.2-0.4-0.6,0-0.9C54.1,94.7,54.7,94.7,55.2,95
				z"/>
			<path class="st6" d="M63.2,90.3c0.4,0.2,0.4,0.6,0,0.9c-0.4,0.2-1.1,0.2-1.5,0s-0.4-0.6,0-0.9C62.1,90.1,62.7,90.1,63.2,90.3z"/>
			<path class="st6" d="M71.2,85.7c0.4,0.2,0.4,0.6,0,0.9c-0.4,0.2-1.1,0.2-1.5,0s-0.4-0.6,0-0.9C70.1,85.5,70.7,85.5,71.2,85.7z"/>
			<path class="st6" d="M55.2,104.2c0.4,0.2,0.4,0.6,0,0.9c-0.4,0.2-1.1,0.2-1.5,0c-0.4-0.2-0.4-0.6,0-0.9
				C54.1,104,54.7,104,55.2,104.2z"/>
			<path class="st6" d="M63.2,99.6c0.4,0.2,0.4,0.6,0,0.9c-0.4,0.2-1.1,0.2-1.5,0c-0.4-0.2-0.4-0.6,0-0.9
				C62.1,99.3,62.7,99.3,63.2,99.6z"/>
			<path class="st6" d="M71.2,95c0.4,0.2,0.4,0.6,0,0.9c-0.4,0.2-1.1,0.2-1.5,0c-0.4-0.2-0.4-0.6,0-0.9C70.1,94.7,70.7,94.7,71.2,95
				z"/>
			<path class="st6" d="M79.2,90.3c0.4,0.2,0.4,0.6,0,0.9c-0.4,0.2-1.1,0.2-1.5,0c-0.4-0.2-0.4-0.6,0-0.9
				C78.1,90.1,78.7,90.1,79.2,90.3z"/>
			<path class="st6" d="M63.2,108.8c0.4,0.2,0.4,0.6,0,0.9s-1.1,0.2-1.5,0c-0.4-0.2-0.4-0.6,0-0.9C62.1,108.6,62.7,108.6,63.2,108.8
				z"/>
			<path class="st6" d="M71.2,104.2c0.4,0.2,0.4,0.6,0,0.9c-0.4,0.2-1.1,0.2-1.5,0c-0.4-0.2-0.4-0.6,0-0.9
				C70.1,104,70.7,104,71.2,104.2z"/>
			<path class="st6" d="M79.2,99.6c0.4,0.2,0.4,0.6,0,0.9c-0.4,0.2-1.1,0.2-1.5,0c-0.4-0.2-0.4-0.6,0-0.9
				C78.1,99.3,78.7,99.3,79.2,99.6z"/>
			<path class="st6" d="M87.2,95c0.4,0.2,0.4,0.6,0,0.9c-0.4,0.2-1.1,0.2-1.5,0c-0.4-0.2-0.4-0.6,0-0.9C86.1,94.7,86.7,94.7,87.2,95
				z"/>
			<path class="st6" d="M87.2,95c0.4,0.2,0.4,0.6,0,0.9c-0.4,0.2-1.1,0.2-1.5,0c-0.4-0.2-0.4-0.6,0-0.9C86.1,94.7,86.7,94.7,87.2,95
				z"/>
			<path class="st6" d="M63.2,71.9c0.4,0.2,0.4,0.6,0,0.9c-0.4,0.2-1.1,0.2-1.5,0c-0.4-0.2-0.4-0.6,0-0.9
				C62.1,71.6,62.7,71.6,63.2,71.9z"/>
			<path class="st6" d="M71.2,67.3c0.4,0.2,0.4,0.6,0,0.9c-0.4,0.2-1.1,0.2-1.5,0c-0.4-0.2-0.4-0.6,0-0.9C70.1,67,70.7,67,71.2,67.3
				z"/>
			<path class="st6" d="M79.2,62.6c0.4,0.2,0.4,0.6,0,0.9c-0.4,0.2-1.1,0.2-1.5,0c-0.4-0.2-0.4-0.6,0-0.9S78.7,62.4,79.2,62.6z"/>
			<path class="st6" d="M71.2,76.5c0.4,0.2,0.4,0.6,0,0.9c-0.4,0.2-1.1,0.2-1.5,0c-0.4-0.2-0.4-0.6,0-0.9
				C70.1,76.2,70.7,76.2,71.2,76.5z"/>
			<path class="st6" d="M79.2,71.9c0.4,0.2,0.4,0.6,0,0.9c-0.4,0.2-1.1,0.2-1.5,0c-0.4-0.2-0.4-0.6,0-0.9
				C78.1,71.6,78.7,71.6,79.2,71.9z"/>
			<path class="st6" d="M87.2,67.3c0.4,0.2,0.4,0.6,0,0.9c-0.4,0.2-1.1,0.2-1.5,0c-0.4-0.2-0.4-0.6,0-0.9C86.1,67,86.7,67,87.2,67.3
				z"/>
			<path class="st6" d="M79.2,81.1c0.4,0.2,0.4,0.6,0,0.9c-0.4,0.2-1.1,0.2-1.5,0c-0.4-0.2-0.4-0.6,0-0.9
				C78.1,80.9,78.7,80.9,79.2,81.1z"/>
			<path class="st6" d="M87.2,76.5c0.4,0.2,0.4,0.6,0,0.9c-0.4,0.2-1.1,0.2-1.5,0c-0.4-0.2-0.4-0.6,0-0.9
				C86.1,76.2,86.7,76.2,87.2,76.5z"/>
			<path class="st6" d="M95.1,71.9c0.4,0.2,0.4,0.6,0,0.9c-0.4,0.2-1.1,0.2-1.5,0c-0.4-0.2-0.4-0.6,0-0.9
				C94.1,71.6,94.7,71.6,95.1,71.9z"/>
			<path class="st6" d="M87.2,85.7c0.4,0.2,0.4,0.6,0,0.9c-0.4,0.2-1.1,0.2-1.5,0c-0.4-0.2-0.4-0.6,0-0.9
				C86.1,85.5,86.7,85.5,87.2,85.7z"/>
			<path class="st6" d="M95.1,81.1c0.4,0.2,0.4,0.6,0,0.9c-0.4,0.2-1.1,0.2-1.5,0c-0.4-0.2-0.4-0.6,0-0.9
				C94.1,80.9,94.7,80.9,95.1,81.1z"/>
			<path class="st6" d="M103.1,76.5c0.4,0.2,0.4,0.6,0,0.9c-0.4,0.2-1.1,0.2-1.5,0c-0.4-0.2-0.4-0.6,0-0.9
				C102.1,76.2,102.7,76.2,103.1,76.5z"/>
			<path class="st6" d="M95.1,90.3c0.4,0.2,0.4,0.6,0,0.9c-0.4,0.2-1.1,0.2-1.5,0c-0.4-0.2-0.4-0.6,0-0.9
				C94.1,90.1,94.7,90.1,95.1,90.3z"/>
			<path class="st6" d="M103.1,85.7c0.4,0.2,0.4,0.6,0,0.9c-0.4,0.2-1.1,0.2-1.5,0c-0.4-0.2-0.4-0.6,0-0.9
				C102.1,85.5,102.7,85.5,103.1,85.7z"/>
			<path class="st6" d="M111.1,81.1c0.4,0.2,0.4,0.6,0,0.9c-0.4,0.2-1.1,0.2-1.5,0c-0.4-0.2-0.4-0.6,0-0.9
				C110.1,80.9,110.7,80.9,111.1,81.1z"/>
			<path class="st6" d="M71.2,113.4c0.4,0.2,0.4,0.6,0,0.9c-0.4,0.2-1.1,0.2-1.5,0c-0.4-0.2-0.4-0.6,0-0.9
				C70.1,113.2,70.7,113.2,71.2,113.4z"/>
			<path class="st6" d="M79.2,108.8c0.4,0.2,0.4,0.6,0,0.9c-0.4,0.2-1.1,0.2-1.5,0c-0.4-0.2-0.4-0.6,0-0.9
				C78.1,108.6,78.7,108.6,79.2,108.8z"/>
			<path class="st6" d="M87.2,104.2c0.4,0.2,0.4,0.6,0,0.9c-0.4,0.2-1.1,0.2-1.5,0c-0.4-0.2-0.4-0.6,0-0.9
				C86.1,104,86.7,104,87.2,104.2z"/>
			<path class="st6" d="M95.1,99.6c0.4,0.2,0.4,0.6,0,0.9c-0.4,0.2-1.1,0.2-1.5,0c-0.4-0.2-0.4-0.6,0-0.9
				C94.1,99.3,94.7,99.3,95.1,99.6z"/>
			<path class="st6" d="M79.2,118c0.4,0.2,0.4,0.6,0,0.9c-0.4,0.2-1.1,0.2-1.5,0c-0.4-0.2-0.4-0.6,0-0.9
				C78.1,117.8,78.7,117.8,79.2,118z"/>
			<path class="st6" d="M87.2,113.4c0.4,0.2,0.4,0.6,0,0.9s-1.1,0.2-1.5,0c-0.4-0.2-0.4-0.6,0-0.9C86.1,113.2,86.7,113.2,87.2,113.4
				z"/>
			<path class="st6" d="M95.1,108.8c0.4,0.2,0.4,0.6,0,0.9c-0.4,0.2-1.1,0.2-1.5,0c-0.4-0.2-0.4-0.6,0-0.9
				C94.1,108.6,94.7,108.6,95.1,108.8z"/>
			<path class="st6" d="M103.1,104.2c0.4,0.2,0.4,0.6,0,0.9c-0.4,0.2-1.1,0.2-1.5,0c-0.4-0.2-0.4-0.6,0-0.9
				C102.1,104,102.7,104,103.1,104.2z"/>
			<path class="st6" d="M103.1,95c0.4,0.2,0.4,0.6,0,0.9c-0.4,0.2-1.1,0.2-1.5,0s-0.4-0.6,0-0.9C102.1,94.7,102.7,94.7,103.1,95z"/>
			<path class="st6" d="M111.1,90.3c0.4,0.2,0.4,0.6,0,0.9c-0.4,0.2-1.1,0.2-1.5,0c-0.4-0.2-0.4-0.6,0-0.9S110.7,90.1,111.1,90.3z"
				/>
			<path class="st6" d="M119.1,85.7c0.4,0.2,0.4,0.6,0,0.9c-0.4,0.2-1.1,0.2-1.5,0c-0.4-0.2-0.4-0.6,0-0.9
				C118.1,85.5,118.7,85.5,119.1,85.7z"/>
			<path class="st6" d="M111.1,99.6c0.4,0.2,0.4,0.6,0,0.9c-0.4,0.2-1.1,0.2-1.5,0c-0.4-0.2-0.4-0.6,0-0.9
				C110.1,99.3,110.7,99.3,111.1,99.6z"/>
			<path class="st6" d="M119.1,95c0.4,0.2,0.4,0.6,0,0.9c-0.4,0.2-1.1,0.2-1.5,0c-0.4-0.2-0.4-0.6,0-0.9
				C118.1,94.7,118.7,94.7,119.1,95z"/>
			<path class="st6" d="M127.1,90.3c0.4,0.2,0.4,0.6,0,0.9c-0.4,0.2-1.1,0.2-1.5,0c-0.4-0.2-0.4-0.6,0-0.9
				C126.1,90.1,126.7,90.1,127.1,90.3z"/>
		</g>
	</g>
</g>
<g>
	<g>
		<g class="st9">
			<g class="st9">
				<defs>
					<path id="SVGID_00000119116725834203259310000001428043127711352730_" class="st9" d="M103.8,21.8l16.4,6
						c-0.2-0.1-0.3-0.1-0.5-0.1l-16.4-6C103.5,21.7,103.7,21.8,103.8,21.8z"/>
				</defs>
				<clipPath id="SVGID_00000042716810298155396070000007258491799502566029_">
					<use xlink:href="#SVGID_00000119116725834203259310000001428043127711352730_"  style="overflow:visible;"/>
				</clipPath>
				<g style="clip-path:url(#SVGID_00000042716810298155396070000007258491799502566029_);enable-background:new    ;">
					<path class="st11" d="M119.7,27.8l-16.4-6c0.1,0,0.1,0,0.2,0l16.4,6C119.8,27.8,119.7,27.8,119.7,27.8"/>
					<path class="st12" d="M119.8,27.8l-16.4-6c0.1,0,0.2,0.1,0.3,0.1l16.4,6C120.1,27.8,120,27.8,119.8,27.8"/>
				</g>
			</g>
			<g class="st9">
				<defs>
					<path id="SVGID_00000092423328040671930080000008281877623908103073_" class="st9" d="M88,114.3l-16.4-6
						c-0.2-0.1-0.3-0.1-0.5-0.2l16.4,6C87.7,114.2,87.8,114.3,88,114.3z"/>
				</defs>
				<clipPath id="SVGID_00000015345375670887708030000012209980768396487823_">
					<use xlink:href="#SVGID_00000092423328040671930080000008281877623908103073_"  style="overflow:visible;"/>
				</clipPath>
				<g style="clip-path:url(#SVGID_00000015345375670887708030000012209980768396487823_);enable-background:new    ;">
					<path class="st14" d="M88,114.3l-16.4-6c-0.2-0.1-0.3-0.1-0.5-0.2l16.4,6C87.7,114.2,87.8,114.3,88,114.3"/>
				</g>
			</g>
			<g>
				<polygon class="st15" points="115.1,27.1 98.7,21 103.3,21.7 119.7,27.8 				"/>
			</g>
			<g>
				<polygon class="st16" points="87.5,114.1 71.2,108 67.2,105.5 83.6,111.6 				"/>
			</g>
			<g class="st9">
				<defs>
					<path id="SVGID_00000145749108606317872970000013936296436026059696_" class="st9" d="M114.6,26.9l-16.4-6
						c0.2,0.1,0.3,0.1,0.5,0.1l16.4,6C114.9,27,114.8,27,114.6,26.9z"/>
				</defs>
				<clipPath id="SVGID_00000153668868921733548690000002456042561990692754_">
					<use xlink:href="#SVGID_00000145749108606317872970000013936296436026059696_"  style="overflow:visible;"/>
				</clipPath>
				<g style="clip-path:url(#SVGID_00000153668868921733548690000002456042561990692754_);enable-background:new    ;">
					<path class="st12" d="M114.6,26.9l-16.4-6c0.1,0,0.2,0.1,0.3,0.1l16.4,6C114.8,27,114.7,27,114.6,26.9"/>
					<path class="st11" d="M114.9,27l-16.4-6c0.1,0,0.1,0,0.2,0l16.4,6C115,27,115,27,114.9,27"/>
				</g>
			</g>
			<g class="st9">
				<defs>
					<path id="SVGID_00000135666379499736747810000007736686071977340844_" class="st9" d="M66.7,105.3l16.4,6
						c0.2,0.1,0.3,0.1,0.5,0.2l-16.4-6C67.1,105.4,66.9,105.3,66.7,105.3z"/>
				</defs>
				<clipPath id="SVGID_00000123421721519915662700000002943801441107340433_">
					<use xlink:href="#SVGID_00000135666379499736747810000007736686071977340844_"  style="overflow:visible;"/>
				</clipPath>
				<g style="clip-path:url(#SVGID_00000123421721519915662700000002943801441107340433_);enable-background:new    ;">
					<path class="st14" d="M83.6,111.6l-16.4-6c-0.2-0.1-0.3-0.2-0.5-0.2l16.4,6C83.3,111.4,83.4,111.5,83.6,111.6"/>
				</g>
			</g>
			<g>
				<polygon class="st19" points="90.9,84.8 74.5,78.8 91.3,45 107.6,51 				"/>
			</g>
			<g class="st9">
				<defs>
					<path id="SVGID_00000147918470200509302580000009799562643209088384_" class="st9" d="M90.8,36.8c-0.2-0.1-0.4-0.3-0.6-0.3
						l16.4,6c0.2,0.1,0.4,0.2,0.6,0.3c1.9,1.3,2.1,5,0.5,8.2l-16.4-6C92.8,41.8,92.6,38.1,90.8,36.8z"/>
				</defs>
				<clipPath id="SVGID_00000156573767846417733940000007379794237684785086_">
					<use xlink:href="#SVGID_00000147918470200509302580000009799562643209088384_"  style="overflow:visible;"/>
				</clipPath>
				<g style="clip-path:url(#SVGID_00000156573767846417733940000007379794237684785086_);enable-background:new    ;">
					<path class="st21" d="M107.6,51l-16.4-6c0-0.1,0.1-0.2,0.1-0.3l16.4,6C107.7,50.8,107.7,50.9,107.6,51"/>
					<path class="st22" d="M107.8,50.7l-16.4-6c0.1-0.2,0.2-0.4,0.2-0.5l16.4,6C107.9,50.4,107.8,50.6,107.8,50.7"/>
					<path class="st11" d="M108,50.2l-16.4-6c0.1-0.2,0.1-0.4,0.2-0.5l16.4,6C108.1,49.8,108.1,50,108,50.2"/>
					<path class="st12" d="M108.2,49.7l-16.4-6c0.1-0.2,0.1-0.4,0.2-0.5l16.4,6C108.3,49.3,108.2,49.5,108.2,49.7"/>
					<path class="st23" d="M108.3,49.1l-16.4-6c0-0.2,0.1-0.4,0.1-0.5l16.4,6C108.4,48.8,108.4,49,108.3,49.1"/>
					<path class="st24" d="M108.5,48.6l-16.4-6c0-0.2,0.1-0.4,0.1-0.6l16.4,6C108.5,48.2,108.5,48.4,108.5,48.6"/>
					<path class="st25" d="M108.6,48l-16.4-6c0-0.2,0.1-0.4,0.1-0.7l16.4,6C108.6,47.6,108.6,47.8,108.6,48"/>
					<path class="st26" d="M108.7,47.3l-16.4-6c0-0.3,0-0.5,0-0.8l16.4,6C108.7,46.8,108.7,47.1,108.7,47.3"/>
					<path class="st14" d="M108.7,46.6l-16.4-6c0-1.6-0.6-3-1.5-3.7c-0.2-0.1-0.4-0.3-0.6-0.3l16.4,6c0.2,0.1,0.4,0.2,0.6,0.3
						C108.1,43.5,108.7,44.9,108.7,46.6"/>
				</g>
			</g>
			<g class="st9">
				<defs>
					<path id="SVGID_00000098914383620850629330000002293394987160644001_" class="st9" d="M87.6,88.4l-16.4-6
						c1.3-0.6,2.5-1.9,3.3-3.5l16.4,6C90.1,86.5,88.9,87.8,87.6,88.4z"/>
				</defs>
				<clipPath id="SVGID_00000155130463548348130830000017654201591646556093_">
					<use xlink:href="#SVGID_00000098914383620850629330000002293394987160644001_"  style="overflow:visible;"/>
				</clipPath>
				<g style="clip-path:url(#SVGID_00000155130463548348130830000017654201591646556093_);enable-background:new    ;">
					<path class="st28" d="M87.6,88.4l-16.4-6c0.1,0,0.2-0.1,0.3-0.1l16.4,6C87.8,88.3,87.7,88.3,87.6,88.4"/>
					<path class="st29" d="M87.9,88.2l-16.4-6c0.7-0.4,1.4-1,2-1.7l16.4,6C89.3,87.2,88.6,87.8,87.9,88.2"/>
					<path class="st28" d="M89.9,86.5l-16.4-6c0.2-0.2,0.4-0.5,0.5-0.8l16.4,6C90.2,86,90,86.2,89.9,86.5"/>
					<path class="st30" d="M90.4,85.7l-16.4-6c0.1-0.2,0.2-0.4,0.4-0.6l16.4,6C90.6,85.3,90.5,85.5,90.4,85.7"/>
					<path class="st21" d="M90.7,85.1l-16.4-6c0-0.1,0.1-0.2,0.1-0.3l16.4,6C90.8,84.9,90.8,85,90.7,85.1"/>
				</g>
			</g>
			<g>
				<polygon class="st31" points="87.4,88.4 71.1,82.4 71.2,82.3 87.6,88.4 				"/>
			</g>
			<g class="st9">
				<defs>
					<path id="SVGID_00000008840880461594330870000001117753069779512243_" class="st9" d="M90.1,36.4l16.4,6
						c-0.7-0.2-1.4-0.2-2.2,0.1l-16.4-6C88.7,36.2,89.5,36.2,90.1,36.4z"/>
				</defs>
				<clipPath id="SVGID_00000070825356924333265950000017023993944917933698_">
					<use xlink:href="#SVGID_00000008840880461594330870000001117753069779512243_"  style="overflow:visible;"/>
				</clipPath>
				<g style="clip-path:url(#SVGID_00000070825356924333265950000017023993944917933698_);enable-background:new    ;">
					<path class="st33" d="M104.3,42.6l-16.4-6c0.1,0,0.1-0.1,0.2-0.1l16.4,6C104.5,42.5,104.4,42.6,104.3,42.6"/>
					<path class="st34" d="M104.6,42.5l-16.4-6c0.2-0.1,0.3-0.1,0.5-0.1l16.4,6C104.9,42.4,104.7,42.4,104.6,42.5"/>
					<path class="st35" d="M105.1,42.4l-16.4-6c0.1,0,0.3,0,0.4-0.1l16.4,6C105.3,42.3,105.2,42.3,105.1,42.4"/>
					<path class="st36" d="M105.5,42.3l-16.4-6c0.1,0,0.3,0,0.4,0l16.4,6C105.7,42.3,105.6,42.3,105.5,42.3"/>
					<path class="st37" d="M105.8,42.3l-16.4-6c0.1,0,0.2,0,0.3,0.1l16.4,6C106.1,42.4,106,42.3,105.8,42.3"/>
					<path class="st38" d="M106.2,42.4l-16.4-6c0.1,0,0.2,0.1,0.3,0.1l16.4,6C106.4,42.4,106.3,42.4,106.2,42.4"/>
				</g>
			</g>
			<g class="st9">
				<defs>
					<path id="SVGID_00000047743968673126187570000017194758075376471738_" class="st9" d="M100.9,46.2l-16.4-6
						c0.9-1.8,2.2-3.1,3.4-3.6l16.4,6C103.1,43.1,101.8,44.4,100.9,46.2z"/>
				</defs>
				<clipPath id="SVGID_00000112627080216137692800000005138427868144933550_">
					<use xlink:href="#SVGID_00000047743968673126187570000017194758075376471738_"  style="overflow:visible;"/>
				</clipPath>
				<g style="clip-path:url(#SVGID_00000112627080216137692800000005138427868144933550_);enable-background:new    ;">
					<path class="st35" d="M100.9,46.2l-16.4-6c0-0.1,0.1-0.2,0.1-0.3l16.4,6C101,46,100.9,46.1,100.9,46.2"/>
					<path class="st34" d="M101,45.9l-16.4-6c0.1-0.2,0.2-0.4,0.4-0.6l16.4,6C101.3,45.5,101.2,45.7,101,45.9"/>
					<path class="st33" d="M101.4,45.3l-16.4-6c0.2-0.3,0.3-0.5,0.5-0.7l16.4,6C101.7,44.8,101.6,45,101.4,45.3"/>
					<path class="st40" d="M101.9,44.5l-16.4-6c0.6-0.8,1.3-1.4,2-1.7l16.4,6C103.2,43.2,102.5,43.8,101.9,44.5"/>
					<path class="st33" d="M103.9,42.8l-16.4-6c0.1-0.1,0.3-0.1,0.4-0.2l16.4,6C104.2,42.6,104,42.7,103.9,42.8"/>
				</g>
			</g>
			<g class="st9">
				<defs>
					<path id="SVGID_00000029046719341146837740000018293829042198276524_" class="st9" d="M68.9,82.5c0.7,0.2,1.4,0.2,2.2-0.1
						c4.8,1.8,9.6,3.6,14.4,5.3l1.9,0.7c-0.8,0.3-1.5,0.4-2.2,0.1C80.3,86.7,73.8,84.3,68.9,82.5z"/>
				</defs>
				<clipPath id="SVGID_00000046301593930381911230000010630372208694163121_">
					<use xlink:href="#SVGID_00000029046719341146837740000018293829042198276524_"  style="overflow:visible;"/>
				</clipPath>
				<g style="clip-path:url(#SVGID_00000046301593930381911230000010630372208694163121_);enable-background:new    ;">
					<path class="st12" d="M85.3,88.5l-16.4-6c0.1,0,0.2,0.1,0.3,0.1l16.4,6C85.5,88.6,85.4,88.6,85.3,88.5"/>
					<path class="st11" d="M85.6,88.6l-16.4-6c0.1,0,0.2,0,0.4,0.1l16.4,6C85.8,88.7,85.7,88.7,85.6,88.6"/>
					<path class="st22" d="M85.9,88.7l-16.4-6c0.1,0,0.3,0,0.4,0l16.4,6C86.2,88.7,86.1,88.7,85.9,88.7"/>
					<path class="st21" d="M86.3,88.7l-16.4-6c0.1,0,0.3,0,0.4-0.1l16.4,6C86.6,88.7,86.4,88.7,86.3,88.7"/>
					<path class="st30" d="M86.7,88.6l-16.4-6c0.2,0,0.3-0.1,0.5-0.1l16.4,6C87.1,88.6,86.9,88.6,86.7,88.6"/>
					<path class="st28" d="M87.2,88.5l-16.4-6c0.1,0,0.1-0.1,0.2-0.1l16.4,6C87.4,88.5,87.3,88.5,87.2,88.5"/>
				</g>
			</g>
			<g class="st9">
				<defs>
					<path id="SVGID_00000057846480849820963610000017071631118743591844_" class="st9" d="M85.3,88.5l-16.4-6
						c-0.4-0.1-0.7-0.3-1-0.6l16.4,6C84.6,88.2,84.9,88.4,85.3,88.5z"/>
				</defs>
				<clipPath id="SVGID_00000075848500102661412600000015672564141593542283_">
					<use xlink:href="#SVGID_00000057846480849820963610000017071631118743591844_"  style="overflow:visible;"/>
				</clipPath>
				<g style="clip-path:url(#SVGID_00000075848500102661412600000015672564141593542283_);enable-background:new    ;">
					<path class="st43" d="M85.3,88.5l-16.4-6c-0.4-0.1-0.7-0.3-1-0.6l16.4,6C84.6,88.2,84.9,88.4,85.3,88.5"/>
				</g>
			</g>
			<g>
				<polygon class="st44" points="87.4,73.5 71,67.4 84.5,40.1 100.9,46.2 				"/>
			</g>
			<g class="st9">
				<defs>
					<path id="SVGID_00000093155301498863092760000004016589981605644732_" class="st9" d="M92.7,11.1l16.4,6
						c-0.6-0.2-1.4-0.2-2.2,0.1c-0.2,0.1-0.4,0.2-0.6,0.3l-16.4-6c0.2-0.1,0.4-0.2,0.6-0.3C91.3,10.9,92,10.8,92.7,11.1z"/>
				</defs>
				<clipPath id="SVGID_00000153679288283935051580000003146511814222409108_">
					<use xlink:href="#SVGID_00000093155301498863092760000004016589981605644732_"  style="overflow:visible;"/>
				</clipPath>
				<g style="clip-path:url(#SVGID_00000153679288283935051580000003146511814222409108_);enable-background:new    ;">
					<path class="st29" d="M106.3,17.5l-16.4-6c0,0,0.1-0.1,0.1-0.1l16.4,6C106.4,17.5,106.3,17.5,106.3,17.5"/>
					<path class="st28" d="M106.4,17.4l-16.4-6c0.1-0.1,0.3-0.1,0.4-0.2c0.1,0,0.1-0.1,0.2-0.1l16.4,6c-0.1,0-0.1,0.1-0.2,0.1
						C106.7,17.3,106.6,17.4,106.4,17.4"/>
					<path class="st30" d="M107.1,17.2l-16.4-6c0.2-0.1,0.3-0.1,0.5-0.1l16.4,6C107.4,17,107.3,17.1,107.1,17.2"/>
					<path class="st21" d="M107.6,17l-16.4-6c0.1,0,0.3,0,0.4-0.1l16.4,6C107.9,17,107.7,17,107.6,17"/>
					<path class="st22" d="M108,17l-16.4-6c0.1,0,0.3,0,0.4,0l16.4,6C108.3,17,108.1,17,108,17"/>
					<path class="st11" d="M108.4,17l-16.4-6c0.1,0,0.2,0,0.4,0.1l16.4,6C108.6,17,108.5,17,108.4,17"/>
					<path class="st12" d="M108.7,17l-16.4-6c0.1,0,0.2,0.1,0.3,0.1l16.4,6C109,17.1,108.8,17.1,108.7,17"/>
				</g>
			</g>
			<g class="st9">
				<defs>
					<path id="SVGID_00000062172650485315240600000010338593192332850094_" class="st9" d="M72.6,115l-16.4-6
						c-0.8-0.3-1.5-1-1.9-2.1l16.4,6C71.1,114,71.8,114.7,72.6,115z"/>
				</defs>
				<clipPath id="SVGID_00000032651027467369602880000004689508165894733711_">
					<use xlink:href="#SVGID_00000062172650485315240600000010338593192332850094_"  style="overflow:visible;"/>
				</clipPath>
				<g style="clip-path:url(#SVGID_00000032651027467369602880000004689508165894733711_);enable-background:new    ;">
					<path class="st14" d="M72.6,115l-16.4-6c-0.8-0.3-1.5-1-1.9-2.1l16.4,6C71.1,114,71.8,114.7,72.6,115"/>
				</g>
			</g>
			<g>
				<polygon class="st47" points="101.3,20.5 85,14.4 89.9,11.5 106.3,17.5 				"/>
			</g>
			<g>
				<polygon class="st48" points="70.8,112.9 54.4,106.9 52.6,101.3 68.9,107.4 				"/>
			</g>
			<g class="st9">
				<defs>
					<path id="SVGID_00000160907329425627719750000002210014919523681470_" class="st9" d="M98.6,20.9l-16.4-6
						c0.7,0.2,1.4,0.2,2.2-0.1c0.2-0.1,0.4-0.2,0.6-0.3l16.4,6c-0.2,0.1-0.4,0.2-0.6,0.3C100,21.1,99.2,21.1,98.6,20.9z"/>
				</defs>
				<clipPath id="SVGID_00000094611486616710107090000000665144004312158911_">
					<use xlink:href="#SVGID_00000160907329425627719750000002210014919523681470_"  style="overflow:visible;"/>
				</clipPath>
				<g style="clip-path:url(#SVGID_00000094611486616710107090000000665144004312158911_);enable-background:new    ;">
					<path class="st12" d="M98.6,20.9l-16.4-6c0.1,0,0.2,0.1,0.3,0.1l16.4,6C98.8,20.9,98.7,20.9,98.6,20.9"/>
					<path class="st11" d="M98.9,21l-16.4-6c0.1,0,0.2,0,0.4,0.1l16.4,6C99.1,21,99,21,98.9,21"/>
					<path class="st22" d="M99.2,21l-16.4-6c0.1,0,0.2,0,0.4,0l16.4,6C99.5,21,99.4,21,99.2,21"/>
					<path class="st21" d="M99.6,21l-16.4-6c0.1,0,0.3,0,0.4-0.1l16.4,6C99.9,21,99.8,21,99.6,21"/>
					<path class="st30" d="M100,21l-16.4-6c0.2,0,0.3-0.1,0.5-0.1l16.4,6C100.4,20.9,100.2,20.9,100,21"/>
					<path class="st28" d="M100.5,20.8l-16.4-6c0.1,0,0.1-0.1,0.2-0.1c0.1-0.1,0.3-0.1,0.4-0.2l16.4,6c-0.1,0.1-0.3,0.1-0.4,0.2
						C100.7,20.8,100.6,20.8,100.5,20.8"/>
					<path class="st29" d="M101.2,20.5l-16.4-6c0,0,0.1-0.1,0.1-0.1l16.4,6C101.3,20.5,101.2,20.5,101.2,20.5"/>
				</g>
			</g>
			<g class="st9">
				<defs>
					<path id="SVGID_00000134936920867392524380000015842708106377716613_" class="st9" d="M50.7,99.2l16.4,6
						c0.8,0.3,1.5,1.1,1.8,2.1l-16.4-6C52.2,100.3,51.6,99.5,50.7,99.2z"/>
				</defs>
				<clipPath id="SVGID_00000049944386777493343570000017210809864769609864_">
					<use xlink:href="#SVGID_00000134936920867392524380000015842708106377716613_"  style="overflow:visible;"/>
				</clipPath>
				<g style="clip-path:url(#SVGID_00000049944386777493343570000017210809864769609864_);enable-background:new    ;">
					<path class="st14" d="M68.9,107.4l-16.4-6c-0.4-1.1-1-1.8-1.8-2.1l16.4,6C67.9,105.6,68.6,106.3,68.9,107.4"/>
				</g>
			</g>
			<g>
				<polygon class="st16" points="87.4,73.5 71,67.4 64.4,60.6 80.8,66.7 				"/>
			</g>
			<g class="st9">
				<defs>
					<path id="SVGID_00000140700253739554897520000014466961732811843982_" class="st9" d="M64.4,60.6c-0.3-0.3-0.6-0.5-1-0.7
						l16.4,6c0.4,0.1,0.7,0.3,1,0.7C75.9,64.9,68.8,63.5,64.4,60.6z"/>
				</defs>
				<clipPath id="SVGID_00000083808025561151780260000008414679229252997782_">
					<use xlink:href="#SVGID_00000140700253739554897520000014466961732811843982_"  style="overflow:visible;"/>
				</clipPath>
				<g style="clip-path:url(#SVGID_00000083808025561151780260000008414679229252997782_);enable-background:new    ;">
					<path class="st14" d="M80.8,66.7l-16.4-6c-0.3-0.3-0.6-0.5-1-0.7l16.4,6C80.2,66.1,80.5,66.4,80.8,66.7"/>
				</g>
			</g>
			<g>
				<polygon class="st52" points="84.3,87.9 67.9,81.8 58,71.6 74.3,77.6 				"/>
			</g>
			<g>
				<path class="st53" d="M104.3,42.6c1-0.4,2-0.4,2.8,0.2c1.9,1.3,2.1,5,0.5,8.2L90.9,84.8c-0.8,1.7-2,2.9-3.3,3.5l-0.2,0.1
					c-1.2,0.5-2.3,0.3-3.2-0.5l-10-10.3c-1.7-1.7-1.5-5.5,0.2-8.6c0.9-1.5,2-2.5,3.1-2.9c1.2-0.5,2.3-0.3,3.2,0.5l6.6,6.8l13.5-27.3
					C101.8,44.4,103.1,43.1,104.3,42.6z"/>
			</g>
			<g class="st9">
				<defs>
					<path id="SVGID_00000118379959629773401350000003008891800147612060_" class="st9" d="M63.5,60l16.4,6
						c-0.7-0.2-1.4-0.2-2.2,0.1c-1.1,0.5-2.2,1.5-3.1,2.9c-1.8,3-1.9,6.9-0.2,8.6l-16.4-6c-1.7-1.7-1.5-5.5,0.2-8.6
						c0.9-1.5,2-2.5,3.1-2.9C62,59.8,62.8,59.7,63.5,60z"/>
				</defs>
				<clipPath id="SVGID_00000142154180650003354380000013952205286283369135_">
					<use xlink:href="#SVGID_00000118379959629773401350000003008891800147612060_"  style="overflow:visible;"/>
				</clipPath>
				<g style="clip-path:url(#SVGID_00000142154180650003354380000013952205286283369135_);enable-background:new    ;">
					<path class="st43" d="M74.3,77.6l-16.4-6c-0.8-0.8-1.1-2-1.2-3.4l16.4,6C73.2,75.6,73.5,76.8,74.3,77.6"/>
					<path class="st55" d="M73.1,74.2l-16.4-6c0-0.3,0-0.5,0-0.8l16.4,6C73.1,73.7,73.1,73.9,73.1,74.2"/>
					<path class="st56" d="M73.2,73.4l-16.4-6c0-0.2,0-0.4,0.1-0.7l16.4,6C73.2,73,73.2,73.2,73.2,73.4"/>
					<path class="st57" d="M73.2,72.7l-16.4-6c0-0.2,0.1-0.4,0.1-0.6l16.4,6C73.3,72.3,73.3,72.5,73.2,72.7"/>
					<path class="st58" d="M73.3,72.1l-16.4-6c0-0.2,0.1-0.4,0.1-0.6l16.4,6C73.4,71.8,73.4,72,73.3,72.1"/>
					<path class="st38" d="M73.5,71.6l-16.4-6c0-0.2,0.1-0.4,0.2-0.5l16.4,6C73.6,71.2,73.5,71.4,73.5,71.6"/>
					<path class="st37" d="M73.6,71.1l-16.4-6c0.1-0.2,0.1-0.4,0.2-0.5l16.4,6C73.8,70.7,73.7,70.9,73.6,71.1"/>
					<path class="st36" d="M73.8,70.5l-16.4-6c0.1-0.2,0.1-0.4,0.2-0.5l16.4,6C74,70.2,73.9,70.4,73.8,70.5"/>
					<path class="st35" d="M74.1,70l-16.4-6c0.1-0.2,0.2-0.4,0.3-0.6l16.4,6C74.2,69.6,74.1,69.8,74.1,70"/>
					<path class="st34" d="M74.3,69.4l-16.4-6c0.1-0.1,0.1-0.3,0.2-0.4c0-0.1,0.1-0.2,0.1-0.2l16.4,6c0,0.1-0.1,0.1-0.1,0.2
						C74.5,69.2,74.4,69.3,74.3,69.4"/>
					<path class="st33" d="M74.7,68.8l-16.4-6c0.2-0.3,0.3-0.5,0.5-0.8l16.4,6C75,68.3,74.9,68.6,74.7,68.8"/>
					<path class="st40" d="M75.2,68.1l-16.4-6c0.6-0.8,1.3-1.4,2-1.7l16.4,6C76.5,66.7,75.8,67.3,75.2,68.1"/>
					<path class="st33" d="M77.2,66.3l-16.4-6c0.1-0.1,0.3-0.1,0.4-0.2c0.1,0,0.1-0.1,0.2-0.1l16.4,6c-0.1,0-0.1,0.1-0.2,0.1
						C77.5,66.2,77.3,66.3,77.2,66.3"/>
					<path class="st34" d="M77.9,66l-16.4-6c0.2-0.1,0.3-0.1,0.5-0.1l16.4,6C78.2,65.9,78,66,77.9,66"/>
					<path class="st35" d="M78.4,65.9l-16.4-6c0.1,0,0.3,0,0.4-0.1l16.4,6C78.6,65.9,78.5,65.9,78.4,65.9"/>
					<path class="st36" d="M78.8,65.9l-16.4-6c0.1,0,0.3,0,0.4,0l16.4,6C79,65.9,78.9,65.9,78.8,65.9"/>
					<path class="st37" d="M79.1,65.9l-16.4-6c0.1,0,0.2,0,0.3,0.1l16.4,6C79.4,65.9,79.3,65.9,79.1,65.9"/>
					<path class="st38" d="M79.5,65.9l-16.4-6c0.1,0,0.2,0.1,0.3,0.1l16.4,6C79.7,66,79.6,65.9,79.5,65.9"/>
				</g>
			</g>
			<g class="st9">
				<defs>
					<path id="SVGID_00000079469477652707442460000002829578764633909376_" class="st9" d="M77.3,11.8l16.4,6
						c-0.7-0.2-1.4-0.2-2.2,0.1c-0.9,0.4-1.9,1.2-2.7,2.3l-16.4-6c0.8-1.2,1.8-2,2.7-2.3C75.9,11.6,76.6,11.6,77.3,11.8z"/>
				</defs>
				<clipPath id="SVGID_00000078043144359002121590000007791717401218712255_">
					<use xlink:href="#SVGID_00000079469477652707442460000002829578764633909376_"  style="overflow:visible;"/>
				</clipPath>
				<g style="clip-path:url(#SVGID_00000078043144359002121590000007791717401218712255_);enable-background:new    ;">
					<path class="st28" d="M88.8,20.3l-16.4-6c0.1-0.1,0.2-0.3,0.3-0.4l16.4,6C89,20,88.9,20.2,88.8,20.3"/>
					<path class="st29" d="M89.1,19.9l-16.4-6c0.6-0.8,1.3-1.4,2-1.7l16.4,6C90.3,18.5,89.7,19.1,89.1,19.9"/>
					<path class="st28" d="M91,18.2l-16.4-6c0.1-0.1,0.3-0.1,0.4-0.2c0.1,0,0.1-0.1,0.2-0.1l16.4,6c-0.1,0-0.1,0.1-0.2,0.1
						C91.3,18,91.2,18.1,91,18.2"/>
					<path class="st30" d="M91.7,17.9l-16.4-6c0.2-0.1,0.3-0.1,0.5-0.1l16.4,6C92,17.8,91.9,17.8,91.7,17.9"/>
					<path class="st21" d="M92.2,17.7l-16.4-6c0.1,0,0.3,0,0.4-0.1l16.4,6C92.5,17.7,92.3,17.7,92.2,17.7"/>
					<path class="st22" d="M92.6,17.7l-16.4-6c0.1,0,0.3,0,0.4,0l16.4,6C92.9,17.7,92.7,17.7,92.6,17.7"/>
					<path class="st11" d="M93,17.7l-16.4-6c0.1,0,0.2,0,0.3,0.1l16.4,6C93.2,17.7,93.1,17.7,93,17.7"/>
					<path class="st12" d="M93.3,17.7l-16.4-6c0.1,0,0.2,0.1,0.3,0.1l16.4,6C93.5,17.8,93.4,17.8,93.3,17.7"/>
				</g>
			</g>
			<g class="st9">
				<defs>
					<path id="SVGID_00000096759899960195067610000018326478803563669402_" class="st9" d="M61.5,104.3l-16.4-6
						c-1.5-0.6-2.4-2.6-2.1-5.1l16.4,6C59.1,101.7,60,103.7,61.5,104.3z"/>
				</defs>
				<clipPath id="SVGID_00000167366306354005329430000004262575523177507757_">
					<use xlink:href="#SVGID_00000096759899960195067610000018326478803563669402_"  style="overflow:visible;"/>
				</clipPath>
				<g style="clip-path:url(#SVGID_00000167366306354005329430000004262575523177507757_);enable-background:new    ;">
					<path class="st14" d="M61.5,104.3l-16.4-6c-1.3-0.5-2.1-2-2.2-4.1l16.4,6C59.4,102.3,60.2,103.8,61.5,104.3"/>
					<path class="st26" d="M59.3,100.2l-16.4-6c0-0.3,0-0.5,0-0.8l16.4,6C59.3,99.7,59.3,100,59.3,100.2"/>
					<path class="st25" d="M59.4,99.4l-16.4-6c0-0.1,0-0.2,0-0.3l16.4,6C59.4,99.3,59.4,99.3,59.4,99.4"/>
				</g>
			</g>
			<g>
				<polygon class="st31" points="84.7,26.1 68.4,20.1 72.4,14.3 88.8,20.3 				"/>
			</g>
			<g>
				<polygon class="st61" points="59.4,99.2 43,93.1 43.8,86.1 60.1,92.1 				"/>
			</g>
			<g class="st9">
				<defs>
					<path id="SVGID_00000051358993586235675710000001891089174233980325_" class="st9" d="M81.5,28.6l-16.4-6
						c0.2,0,0.4-0.1,0.6-0.2c1-0.4,1.9-1.2,2.7-2.4l16.4,6c-0.8,1.1-1.7,2-2.7,2.4C81.8,28.5,81.6,28.6,81.5,28.6z"/>
				</defs>
				<clipPath id="SVGID_00000106108978229939098700000017545214222565384105_">
					<use xlink:href="#SVGID_00000051358993586235675710000001891089174233980325_"  style="overflow:visible;"/>
				</clipPath>
				<g style="clip-path:url(#SVGID_00000106108978229939098700000017545214222565384105_);enable-background:new    ;">
					<path class="st30" d="M81.5,28.6l-16.4-6c0.1,0,0.2-0.1,0.4-0.1l16.4,6C81.7,28.6,81.6,28.6,81.5,28.6"/>
					<path class="st28" d="M81.8,28.5l-16.4-6c0.1,0,0.1-0.1,0.2-0.1c0.1-0.1,0.3-0.1,0.4-0.2l16.4,6c-0.1,0.1-0.3,0.1-0.4,0.2
						C82,28.5,81.9,28.5,81.8,28.5"/>
					<path class="st29" d="M82.5,28.2l-16.4-6c0.7-0.4,1.4-1,2-1.7l16.4,6C83.8,27.3,83.2,27.9,82.5,28.2"/>
					<path class="st28" d="M84.4,26.5l-16.4-6c0.1-0.1,0.2-0.3,0.3-0.4l16.4,6C84.6,26.2,84.5,26.4,84.4,26.5"/>
				</g>
			</g>
			<g class="st9">
				<defs>
					<path id="SVGID_00000092431746811120368530000013640015832721851297_" class="st9" d="M60.1,92.1l-16.4-6
						c0.2-1.6-0.1-3.1-0.8-4.1l16.4,6C60,89,60.3,90.5,60.1,92.1z"/>
				</defs>
				<clipPath id="SVGID_00000010305234044837737230000002252401011508340635_">
					<use xlink:href="#SVGID_00000092431746811120368530000013640015832721851297_"  style="overflow:visible;"/>
				</clipPath>
				<g style="clip-path:url(#SVGID_00000010305234044837737230000002252401011508340635_);enable-background:new    ;">
					<path class="st25" d="M60.1,92.1l-16.4-6c0-0.1,0-0.2,0-0.2l16.4,6C60.1,92,60.1,92.1,60.1,92.1"/>
					<path class="st26" d="M60.1,91.9l-16.4-6c0-0.3,0-0.5,0-0.8l16.4,6C60.2,91.4,60.2,91.6,60.1,91.9"/>
					<path class="st14" d="M60.2,91.1l-16.4-6c0-1.2-0.3-2.3-0.9-3.1l16.4,6C59.9,88.8,60.2,89.9,60.2,91.1"/>
				</g>
			</g>
			<g>
				<polygon class="st64" points="76.5,29.8 60.1,23.7 65.1,22.6 81.5,28.6 				"/>
			</g>
			<g>
				<polygon class="st16" points="59.3,88.1 42.9,82 40,77.9 56.3,83.9 				"/>
			</g>
			<g>
				<polygon class="st65" points="69.8,42.4 53.4,36.4 55.4,29.3 71.8,35.3 				"/>
			</g>
			<g>
				<polygon class="st66" points="56.4,76.6 40.1,70.5 43.2,63.9 59.5,69.9 				"/>
			</g>
			<g class="st9">
				<defs>
					<path id="SVGID_00000018233545773607058220000007524477887921944707_" class="st9" d="M71.8,35.3l-16.4-6
						c0.7-2.6,2.4-4.7,4.1-5.4c0.2-0.1,0.4-0.1,0.6-0.2l16.4,6c-0.2,0-0.4,0.1-0.6,0.2C74.2,30.7,72.5,32.8,71.8,35.3z"/>
				</defs>
				<clipPath id="SVGID_00000164479493821253506730000014074910619984169138_">
					<use xlink:href="#SVGID_00000018233545773607058220000007524477887921944707_"  style="overflow:visible;"/>
				</clipPath>
				<g style="clip-path:url(#SVGID_00000164479493821253506730000014074910619984169138_);enable-background:new    ;">
					<path class="st12" d="M71.8,35.3l-16.4-6c0-0.1,0.1-0.3,0.1-0.4l16.4,6C71.9,35,71.8,35.2,71.8,35.3"/>
					<path class="st11" d="M71.9,34.9l-16.4-6c0.1-0.2,0.1-0.4,0.2-0.5l16.4,6C72,34.5,72,34.7,71.9,34.9"/>
					<path class="st22" d="M72.1,34.4l-16.4-6c0.1-0.2,0.1-0.4,0.2-0.5l16.4,6C72.3,34,72.2,34.2,72.1,34.4"/>
					<path class="st21" d="M72.3,33.8l-16.4-6c0.1-0.2,0.2-0.4,0.3-0.6l16.4,6C72.5,33.5,72.4,33.6,72.3,33.8"/>
					<path class="st30" d="M72.6,33.3l-16.4-6c0.1-0.2,0.2-0.4,0.4-0.6l16.4,6C72.9,32.9,72.7,33.1,72.6,33.3"/>
					<path class="st28" d="M73,32.7l-16.4-6c0.2-0.3,0.3-0.5,0.5-0.8l16.4,6C73.3,32.1,73.1,32.4,73,32.7"/>
					<path class="st29" d="M73.5,31.9l-16.4-6c0.6-0.8,1.3-1.4,2-1.7l16.4,6C74.8,30.6,74.1,31.2,73.5,31.9"/>
					<path class="st28" d="M75.5,30.2l-16.4-6c0.1-0.1,0.3-0.2,0.4-0.2c0.1,0,0.1-0.1,0.2-0.1l16.4,6c-0.1,0-0.1,0.1-0.2,0.1
						C75.8,30,75.6,30.1,75.5,30.2"/>
					<path class="st30" d="M76.1,29.9l-16.4-6c0.1,0,0.2-0.1,0.4-0.1l16.4,6C76.4,29.8,76.3,29.8,76.1,29.9"/>
				</g>
			</g>
			<g class="st9">
				<defs>
					<path id="SVGID_00000069384292574440065810000015031494635175478932_" class="st9" d="M67.4,46.7l-16.4-6
						c1.1-1.1,2-2.6,2.4-4.2l16.4,6C69.3,44.1,68.4,45.6,67.4,46.7z"/>
				</defs>
				<clipPath id="SVGID_00000054953698686540798600000011072813306224196769_">
					<use xlink:href="#SVGID_00000069384292574440065810000015031494635175478932_"  style="overflow:visible;"/>
				</clipPath>
				<g style="clip-path:url(#SVGID_00000054953698686540798600000011072813306224196769_);enable-background:new    ;">
					<path class="st29" d="M67.4,46.7l-16.4-6c0.2-0.2,0.5-0.5,0.7-0.8l16.4,6C67.8,46.2,67.6,46.4,67.4,46.7"/>
					<path class="st28" d="M68.1,45.9l-16.4-6c0.2-0.2,0.4-0.5,0.5-0.8l16.4,6C68.4,45.4,68.2,45.6,68.1,45.9"/>
					<path class="st30" d="M68.6,45.1l-16.4-6c0.1-0.2,0.2-0.4,0.4-0.6l16.4,6C68.8,44.7,68.7,44.9,68.6,45.1"/>
					<path class="st21" d="M68.9,44.5l-16.4-6c0.1-0.2,0.2-0.4,0.3-0.6l16.4,6C69.1,44.1,69,44.3,68.9,44.5"/>
					<path class="st22" d="M69.2,44l-16.4-6c0.1-0.2,0.2-0.4,0.2-0.5l16.4,6C69.4,43.6,69.3,43.8,69.2,44"/>
					<path class="st11" d="M69.5,43.4l-16.4-6c0.1-0.2,0.1-0.4,0.2-0.5l16.4,6C69.6,43.1,69.5,43.2,69.5,43.4"/>
					<path class="st12" d="M69.7,42.9l-16.4-6c0-0.1,0.1-0.3,0.1-0.4l16.4,6C69.7,42.6,69.7,42.7,69.7,42.9"/>
				</g>
			</g>
			<g class="st9">
				<defs>
					<path id="SVGID_00000059271182834353042680000018201220829618852513_" class="st9" d="M59.5,69.9l-16.4-6
						c0.7-1.6,1.1-3.3,0.9-4.8l16.4,6C60.6,66.6,60.3,68.4,59.5,69.9z"/>
				</defs>
				<clipPath id="SVGID_00000039822867971190144180000004934024490642708118_">
					<use xlink:href="#SVGID_00000059271182834353042680000018201220829618852513_"  style="overflow:visible;"/>
				</clipPath>
				<g style="clip-path:url(#SVGID_00000039822867971190144180000004934024490642708118_);enable-background:new    ;">
					<path class="st21" d="M59.5,69.9l-16.4-6c0,0,0,0,0-0.1L59.5,69.9C59.6,69.9,59.6,69.9,59.5,69.9"/>
					<path class="st22" d="M59.6,69.9l-16.4-6c0.1-0.2,0.2-0.4,0.2-0.5l16.4,6C59.7,69.5,59.7,69.7,59.6,69.9"/>
					<path class="st11" d="M59.8,69.3l-16.4-6c0.1-0.2,0.1-0.4,0.2-0.5l16.4,6C59.9,69,59.9,69.1,59.8,69.3"/>
					<path class="st12" d="M60,68.8l-16.4-6c0.1-0.2,0.1-0.4,0.2-0.5l16.4,6C60.1,68.4,60.1,68.6,60,68.8"/>
					<path class="st23" d="M60.2,68.2l-16.4-6c0.1-0.2,0.1-0.4,0.1-0.6l16.4,6C60.3,67.9,60.2,68,60.2,68.2"/>
					<path class="st24" d="M60.3,67.7l-16.4-6c0-0.2,0.1-0.4,0.1-0.6l16.4,6C60.4,67.3,60.3,67.5,60.3,67.7"/>
					<path class="st25" d="M60.4,67.1l-16.4-6c0-0.2,0.1-0.4,0.1-0.7l16.4,6C60.5,66.7,60.4,66.9,60.4,67.1"/>
					<path class="st26" d="M60.5,66.4l-16.4-6c0-0.3,0-0.5,0-0.8l16.4,6C60.5,65.9,60.5,66.2,60.5,66.4"/>
					<path class="st14" d="M60.5,65.7l-16.4-6c0-0.2,0-0.4,0-0.5l16.4,6C60.5,65.3,60.5,65.5,60.5,65.7"/>
				</g>
			</g>
			<g class="st9">
				<defs>
					<path id="SVGID_00000124841309158998347900000007570216689124401077_" class="st9" d="M56.3,83.9l-16.4-6
						c-1.2-1.7-1.2-4.7,0.1-7.3l16.4,6C55.2,79.2,55.1,82.3,56.3,83.9z"/>
				</defs>
				<clipPath id="SVGID_00000173845245873724282250000000355258804015119291_">
					<use xlink:href="#SVGID_00000124841309158998347900000007570216689124401077_"  style="overflow:visible;"/>
				</clipPath>
				<g style="clip-path:url(#SVGID_00000173845245873724282250000000355258804015119291_);enable-background:new    ;">
					<path class="st14" d="M56.3,83.9l-16.4-6c-0.6-0.8-0.8-1.8-0.9-3l16.4,6C55.5,82.1,55.8,83.1,56.3,83.9"/>
					<path class="st26" d="M55.5,80.9l-16.4-6c0-0.3,0-0.5,0-0.8l16.4,6C55.5,80.3,55.5,80.6,55.5,80.9"/>
					<path class="st25" d="M55.5,80.1l-16.4-6c0-0.2,0-0.4,0.1-0.7l16.4,6C55.5,79.6,55.5,79.9,55.5,80.1"/>
					<path class="st24" d="M55.6,79.4l-16.4-6c0-0.2,0.1-0.4,0.1-0.6l16.4,6C55.6,79,55.6,79.2,55.6,79.4"/>
					<path class="st23" d="M55.7,78.8l-16.4-6c0-0.2,0.1-0.4,0.1-0.6l16.4,6C55.8,78.5,55.7,78.6,55.7,78.8"/>
					<path class="st12" d="M55.8,78.3l-16.4-6c0-0.2,0.1-0.4,0.2-0.5l16.4,6C55.9,77.9,55.9,78.1,55.8,78.3"/>
					<path class="st11" d="M56,77.7l-16.4-6c0.1-0.2,0.1-0.4,0.2-0.5l16.4,6C56.1,77.4,56,77.6,56,77.7"/>
					<path class="st22" d="M56.2,77.2l-16.4-6c0.1-0.2,0.1-0.4,0.2-0.5l16.4,6C56.3,76.8,56.2,77,56.2,77.2"/>
					<path class="st21" d="M56.4,76.7l-16.4-6c0,0,0,0,0-0.1L56.4,76.7C56.4,76.6,56.4,76.6,56.4,76.7"/>
				</g>
			</g>
			<g>
				<polygon class="st71" points="62.7,51.2 46.3,45.1 51,40.6 67.4,46.7 				"/>
			</g>
			<g>
				<polygon class="st72" points="60.5,65.1 44.1,59.1 43.6,52.6 59.9,58.6 				"/>
			</g>
			<g class="st9">
				<defs>
					<path id="SVGID_00000073692764337490220650000005931551626485850276_" class="st9" d="M59.9,58.6l-16.4-6
						c-0.2-2.6,0.9-5.6,2.8-7.4l16.4,6C60.8,53,59.7,56,59.9,58.6z"/>
				</defs>
				<clipPath id="SVGID_00000029003806302870407900000011360480558769577138_">
					<use xlink:href="#SVGID_00000073692764337490220650000005931551626485850276_"  style="overflow:visible;"/>
				</clipPath>
				<g style="clip-path:url(#SVGID_00000029003806302870407900000011360480558769577138_);enable-background:new    ;">
					<path class="st14" d="M59.9,58.6l-16.4-6c0-0.2,0-0.4,0-0.5l16.4,6C59.9,58.3,59.9,58.4,59.9,58.6"/>
					<path class="st26" d="M59.9,58.1l-16.4-6c0-0.3,0-0.5,0-0.8l16.4,6C59.9,57.6,59.9,57.8,59.9,58.1"/>
					<path class="st25" d="M59.9,57.3l-16.4-6c0-0.2,0-0.4,0.1-0.7l16.4,6C60,56.9,59.9,57.1,59.9,57.3"/>
					<path class="st24" d="M60,56.6l-16.4-6c0-0.2,0.1-0.4,0.1-0.6l16.4,6C60.1,56.2,60,56.4,60,56.6"/>
					<path class="st23" d="M60.1,56.1l-16.4-6c0-0.2,0.1-0.4,0.1-0.6l16.4,6C60.2,55.7,60.1,55.9,60.1,56.1"/>
					<path class="st12" d="M60.2,55.5l-16.4-6c0-0.2,0.1-0.4,0.2-0.5l16.4,6C60.3,55.1,60.3,55.3,60.2,55.5"/>
					<path class="st11" d="M60.4,55l-16.4-6c0.1-0.2,0.1-0.4,0.2-0.5l16.4,6C60.5,54.6,60.5,54.8,60.4,55"/>
					<path class="st22" d="M60.6,54.4l-16.4-6c0.1-0.2,0.1-0.4,0.2-0.5l16.4,6C60.7,54.1,60.7,54.2,60.6,54.4"/>
					<path class="st21" d="M60.8,53.9l-16.4-6c0.1-0.2,0.2-0.4,0.3-0.6l16.4,6C61,53.5,60.9,53.7,60.8,53.9"/>
					<path class="st30" d="M61.1,53.3l-16.4-6c0.1-0.2,0.2-0.4,0.4-0.6l16.4,6C61.3,52.9,61.2,53.1,61.1,53.3"/>
					<path class="st28" d="M61.4,52.7l-16.4-6c0.2-0.3,0.3-0.5,0.5-0.7L62,52C61.8,52.2,61.6,52.5,61.4,52.7"/>
					<path class="st29" d="M62,52l-16.4-6c0.2-0.3,0.5-0.6,0.7-0.8l16.4,6C62.4,51.4,62.2,51.7,62,52"/>
				</g>
			</g>
			<g>
				<path class="st74" d="M125.3,48.3c1.2,1.7,1.2,4.7-0.1,7.3l-3.1,6.7c-0.7,1.6-1.1,3.3-0.9,4.8l0.6,6.5c0.2,2.6-0.9,5.6-2.8,7.4
					l-4.7,4.5c-1.1,1-2,2.6-2.4,4.2l-2,7.1c-0.7,2.6-2.4,4.7-4.1,5.4c-0.2,0.1-0.4,0.1-0.6,0.2l-5,1.2c-0.2,0-0.4,0.1-0.6,0.2
					c-1,0.4-1.9,1.2-2.7,2.3l-4,5.8c-0.8,1.2-1.8,2-2.7,2.3c-0.9,0.4-1.9,0.4-2.7-0.1l-3.9-2.5c-0.8-0.5-1.7-0.5-2.7-0.1
					c-0.2,0.1-0.4,0.2-0.6,0.3l-5,2.9c-0.2,0.1-0.4,0.2-0.6,0.3c-1.8,0.7-3.4-0.1-4-2l-1.8-5.5c-0.4-1.3-1.3-2.1-2.4-2.3l-4.6-0.7
					c-1.8-0.3-2.9-2.4-2.6-5.2l0.7-7c0.2-1.6-0.1-3.1-0.8-4.1l-3-4.2c-1.2-1.7-1.2-4.7,0.1-7.3l3.1-6.7c0.7-1.6,1.1-3.3,0.9-4.8
					l-0.6-6.5c-0.2-2.6,0.9-5.6,2.8-7.4l4.7-4.5c1.1-1.1,2-2.6,2.4-4.2l2-7.1c0.7-2.6,2.4-4.7,4.1-5.4c0.2-0.1,0.4-0.1,0.6-0.2
					l5-1.1c0.2,0,0.4-0.1,0.6-0.2c1-0.4,1.9-1.2,2.7-2.4l4-5.8c0.8-1.2,1.8-2,2.7-2.3c0.9-0.4,1.9-0.4,2.7,0.1l3.9,2.5
					c0.8,0.5,1.7,0.5,2.7,0.1c0.2-0.1,0.4-0.2,0.6-0.3l5-2.9c0.2-0.1,0.4-0.2,0.6-0.3c1.8-0.7,3.4,0.1,4,2l1.8,5.5
					c0.4,1.3,1.3,2.1,2.3,2.3l4.6,0.7c1.8,0.3,2.9,2.4,2.6,5.2l-0.7,7c-0.2,1.6,0.1,3.1,0.8,4.1L125.3,48.3z M107.6,51
					c1.6-3.2,1.4-6.9-0.5-8.2c-0.8-0.6-1.8-0.6-2.8-0.2c-1.3,0.5-2.6,1.8-3.4,3.6L87.4,73.5l-6.6-6.8c-0.8-0.9-2-1-3.2-0.5
					c-1.1,0.5-2.2,1.5-3.1,2.9c-1.8,3-1.9,6.9-0.2,8.6l10,10.3c0.8,0.8,2,1,3.2,0.5l0.2-0.1c1.3-0.6,2.5-1.9,3.3-3.5L107.6,51"/>
			</g>
		</g>
	</g>
</g>
</svg>
