<?xml version="1.0" standalone="no"?>
<!DOCTYPE svg PUBLIC "-//W3C//DTD SVG 1.1//EN" "http://www.w3.org/Graphics/SVG/1.1/DTD/svg11.dtd" >
<svg xmlns="http://www.w3.org/2000/svg" xmlns:xlink="http://www.w3.org/1999/xlink" version="1.1">
<metadata>
Created by FontForge 20170910 at Tue Oct  9 14:46:30 2018
 By Jimmy Wärting
Copyright (c) 2017 ParaType Inc., ParaType Ltd. All rights reserved.
</metadata>
<defs>
<font id="PT_RussiaText" horiz-adv-x="550" >
  <font-face 
    font-family="PT_Russia Text"
    font-weight="400"
    font-stretch="normal"
    units-per-em="1000"
    panose-1="2 0 5 3 0 0 0 2 0 4"
    ascent="774"
    descent="-226"
    x-height="530"
    cap-height="700"
    bbox="-399 -210 1240 955"
    underline-thickness="50"
    underline-position="-100"
    unicode-range="U+000D-FEFF"
  />
<missing-glyph horiz-adv-x="500" 
d="M442 8v496h-384v-496h384zM50 512h400v-512h-400v512z" />
    <glyph glyph-name=".notdef" horiz-adv-x="500" 
d="M442 8v496h-384v-496h384zM50 512h400v-512h-400v512z" />
    <glyph glyph-name=".null" horiz-adv-x="0" 
 />
    <glyph glyph-name=".null" horiz-adv-x="0" 
 />
    <glyph glyph-name="nonmarkingreturn" unicode="&#xd;" horiz-adv-x="250" 
 />
    <glyph glyph-name="space" unicode=" " horiz-adv-x="250" 
 />
    <glyph glyph-name="exclam" unicode="!" horiz-adv-x="300" 
d="M103 700h94v-480h-94v480zM150 -10q-29 0 -49.5 20.5t-20.5 49.5q0 30 20.5 50t49.5 20t49.5 -20t20.5 -50q0 -29 -20.5 -49.5t-49.5 -20.5z" />
    <glyph glyph-name="quotedbl" unicode="&#x22;" horiz-adv-x="360" 
d="M58 700h84v-200h-84v200zM218 700h84v-200h-84v200z" />
    <glyph glyph-name="numbersign" unicode="#" horiz-adv-x="600" 
d="M341 216h-134l-42 -216h-90l42 216h-92v78h107l25 132h-92v78h107l39 196h90l-39 -196h134l39 196h90l-39 -196h89v-78h-104l-25 -132h89v-78h-104l-42 -216h-90zM222 294h134l25 132h-134z" />
    <glyph glyph-name="dollar" unicode="$" horiz-adv-x="635" 
d="M273 -8q-53 5 -92.5 21.5t-66.5 42t-41.5 58.5t-17.5 71h95q5 -41 34 -71t89 -38v249q-50 12 -87.5 28.5t-62 40t-37 55.5t-12.5 76q0 35 13 66t38.5 55t62.5 40t85 21v93h84v-93q96 -10 147 -61t56 -121h-94q-5 35 -30.5 62.5t-78.5 35.5v-229q59 -14 100.5 -31
t67.5 -41.5t38 -58t12 -78.5q0 -38 -14.5 -71t-42 -58.5t-68.5 -42t-93 -21.5v-92h-84v92zM481 185q0 45 -28 72.5t-96 47.5v-229q63 8 93.5 38t30.5 71zM168 525q0 -42 25 -68t80 -43v208q-52 -8 -78.5 -35t-26.5 -62z" />
    <glyph glyph-name="percent" unicode="%" horiz-adv-x="900" 
d="M215 360q-36 0 -66.5 12t-52.5 34.5t-34 54t-12 69.5v10q0 38 12.5 69t34 53.5t52 35t66.5 12.5t66.5 -12t52.5 -34.5t34 -54t12 -69.5v-10q0 -38 -12.5 -69t-34 -53.5t-52 -35t-66.5 -12.5zM215 434q38 0 59.5 23.5t21.5 72.5v10q0 49 -21.5 72.5t-59.5 23.5
t-59.5 -23.5t-21.5 -72.5v-10q0 -48 21.5 -72t59.5 -24zM685 -10q-36 0 -66.5 12t-52.5 34.5t-34 54t-12 69.5v10q0 38 12.5 69t34 53.5t52 35t66.5 12.5t66.5 -12t52.5 -34.5t34 -54t12 -69.5v-10q0 -38 -12.5 -69t-34 -53.5t-52 -35t-66.5 -12.5zM685 64q38 0 59.5 23.5
t21.5 72.5v10q0 49 -21.5 72.5t-59.5 23.5t-59.5 -23.5t-21.5 -72.5v-10q0 -48 21.5 -72t59.5 -24zM634 700h96l-464 -700h-96z" />
    <glyph glyph-name="ampersand" unicode="&#x26;" horiz-adv-x="700" 
d="M493 63q-40 -35 -91.5 -54t-111.5 -19q-53 0 -95 15t-71 41.5t-44 63t-15 80.5q0 28 6.5 53.5t21.5 50.5t39.5 50t61.5 53q-24 28 -38.5 49t-22.5 39.5t-10.5 36t-2.5 38.5q0 32 11.5 59.5t32.5 47.5t50.5 31.5t65.5 11.5t65.5 -11.5t50.5 -31.5t32.5 -47.5t11.5 -59.5
q0 -18 -5.5 -37.5t-19 -40.5t-37.5 -44.5t-60 -50.5l169 -188q25 58 25 131h88q0 -60 -13.5 -110t-38.5 -90l117 -130h-114zM290 68q87 0 147 58l-190 211q-30 -23 -48.5 -41.5t-28.5 -35.5t-13.5 -34t-3.5 -36q0 -54 35.5 -88t101.5 -34zM208 560q0 -13 2.5 -24.5t8.5 -24
t17 -28t29 -36.5q30 22 47.5 38.5t26 30t11 24t2.5 20.5q0 31 -20.5 51.5t-51.5 20.5q-30 0 -51 -21t-21 -51z" />
    <glyph glyph-name="quotesingle" unicode="'" horiz-adv-x="200" 
d="M58 700h84v-200h-84v200z" />
    <glyph glyph-name="parenleft" unicode="(" horiz-adv-x="360" 
d="M65 260q0 106 24.5 187t54.5 138q35 66 80 115h106q-48 -50 -86 -117q-16 -29 -31.5 -63.5t-27.5 -75t-19 -87t-7 -97.5v-20q0 -52 7 -98t19 -86.5t27.5 -75.5t31.5 -63q38 -67 86 -117h-110q-44 49 -78 115q-29 57 -53 138t-24 187v20z" />
    <glyph glyph-name="parenright" unicode=")" horiz-adv-x="360" 
d="M295 240q0 -106 -25 -187t-55 -138q-35 -66 -79 -115h-106q47 50 85 117q16 28 31.5 63t27.5 75.5t19.5 86.5t7.5 98v20q0 51 -7.5 97.5t-19.5 87t-27.5 75t-31.5 63.5q-38 67 -85 117h110q43 -49 77 -115q15 -28 29 -62.5t25 -75.5t17.5 -88t6.5 -99v-20z" />
    <glyph glyph-name="asterisk" unicode="*" horiz-adv-x="450" 
d="M195 473l-109 -69l-36 62l115 59l-115 59l36 62l109 -69l-6 123h72l-6 -123l109 69l36 -62l-115 -59l115 -59l-36 -62l-109 69l6 -123h-72z" />
    <glyph glyph-name="plus" unicode="+" 
d="M229 319h-179v82h179v184h92v-184h179v-82h-179v-184h-92v184z" />
    <glyph glyph-name="comma" unicode="," horiz-adv-x="300" 
d="M95 0v110h110v-110l-88 -150h-52z" />
    <glyph glyph-name="hyphen" unicode="-" horiz-adv-x="400" 
d="M60 313h280v-76h-280v76z" />
    <glyph glyph-name="period" unicode="." horiz-adv-x="300" 
d="M150 -10q-29 0 -49.5 20.5t-20.5 49.5q0 30 20.5 50t49.5 20t49.5 -20t20.5 -50q0 -29 -20.5 -49.5t-49.5 -20.5z" />
    <glyph glyph-name="slash" unicode="/" horiz-adv-x="500" 
d="M361 700h94l-316 -900h-94z" />
    <glyph glyph-name="zero" unicode="0" horiz-adv-x="620" 
d="M310 -10q-53 0 -100 17t-82.5 58.5t-56.5 110.5t-21 173v20q0 97 20.5 162.5t56 105t83 56.5t100.5 17q58 0 105.5 -17t82 -56.5t53.5 -105t19 -162.5v-20q0 -104 -20.5 -173t-55.5 -110.5t-82.5 -58.5t-101.5 -17zM310 74q30 0 60 11t53.5 41.5t38 84t14.5 138.5v20
q0 78 -13 127.5t-35.5 78.5t-53 40t-64.5 11q-30 0 -59.5 -11t-53 -40t-38.5 -78.5t-15 -127.5v-20q0 -84 15 -137.5t38.5 -84t53 -42t59.5 -11.5z" />
    <glyph glyph-name="one" unicode="1" 
d="M90 82h168v515l-168 -121v103l168 121h94v-618h138v-82h-400v82z" />
    <glyph glyph-name="two" unicode="2" horiz-adv-x="570" 
d="M45 70l275 250q31 28 50.5 50t30.5 41.5t15.5 38t4.5 40.5q0 29 -9 54.5t-26 44t-41.5 29t-54.5 10.5q-73 0 -114 -40.5t-41 -112.5h-90q0 51 17.5 94.5t50 74.5t77.5 48.5t100 17.5q53 0 95 -16.5t71 -46t44 -69.5t15 -88q0 -36 -10.5 -66.5t-29.5 -58.5t-45.5 -55
t-58.5 -55l-197 -173h356v-82h-485v70z" />
    <glyph glyph-name="three" unicode="3" horiz-adv-x="570" 
d="M280 -10q-57 0 -101.5 15.5t-75.5 42t-47 62t-16 75.5h94q0 -47 36.5 -79t109.5 -32t109.5 33.5t36.5 87.5q0 55 -37 89.5t-108 34.5h-76v82h76q69 0 102 30.5t33 83.5q0 52 -32.5 81.5t-103.5 29.5q-68 0 -102 -29.5t-34 -71.5h-94q0 37 15.5 71t45 59t72 40t97.5 15
t98 -15t72.5 -40t44.5 -59t15 -71q0 -60 -31.5 -101.5t-88.5 -58.5q60 -19 95 -62t35 -118q0 -40 -16 -75.5t-46.5 -62t-75.5 -42t-102 -15.5z" />
    <glyph glyph-name="four" unicode="4" horiz-adv-x="580" 
d="M371 169h-351v70l337 461h108v-449h85v-82h-85v-169h-94v169zM371 251v332l-238 -332h238z" />
    <glyph glyph-name="five" unicode="5" horiz-adv-x="590" 
d="M303 -10q-57 0 -99.5 15.5t-71.5 41t-44.5 57.5t-17.5 66h94q2 -19 13 -36t29 -30.5t43 -21.5t54 -8q63 0 103.5 42.5t40.5 118.5q0 43 -13 74t-34 50t-47 28t-53 9q-54 0 -84 -19.5t-46 -45.5h-85v369h415v-82h-321v-191q50 53 136 53q104 0 164.5 -63t60.5 -182
q0 -56 -17 -101.5t-48 -77.5t-75 -49t-97 -17z" />
    <glyph glyph-name="six" unicode="6" horiz-adv-x="580" 
d="M305 -10q-58 0 -105 19t-80.5 58.5t-51.5 99.5t-18 143v20q0 103 19 175.5t53 118t82 66t106 20.5q39 0 74 -9.5t63.5 -29t49 -48.5t28.5 -68h-94q-11 36 -44 53.5t-77 17.5q-36 0 -67 -13t-54 -43t-37 -80t-16 -125q14 24 34 41.5t43.5 29t48.5 16.5t48 5q52 0 94.5 -15
t72.5 -44.5t46.5 -72t16.5 -96.5v-10q0 -50 -18.5 -92t-50.5 -72.5t-75 -47.5t-91 -17zM305 74q65 0 103 38.5t38 106.5v10q0 71 -37.5 107.5t-113.5 36.5q-72 0 -111.5 -37t-39.5 -97v-10q0 -34 11.5 -62.5t33 -49t51 -32t65.5 -11.5z" />
    <glyph glyph-name="seven" unicode="7" horiz-adv-x="510" 
d="M394 618h-374v82h470v-70l-250 -630h-100z" />
    <glyph glyph-name="eight" unicode="8" horiz-adv-x="620" 
d="M310 -10q-62 0 -109 15t-78.5 41t-47 61.5t-15.5 77.5q0 60 38 107.5t112 67.5q-27 9 -50.5 24.5t-41.5 36.5t-28 47.5t-10 56.5q0 39 15 73t44 58.5t72 39t99 14.5t99 -14.5t72 -39t44 -58.5t15 -73q0 -60 -37.5 -102t-92.5 -63q75 -25 112.5 -66t37.5 -109
q0 -42 -15.5 -77.5t-47 -61.5t-78.5 -41t-109 -15zM310 74q39 0 67.5 9.5t47 25t27 37t8.5 45.5q0 28 -12 51t-32.5 40t-48 27t-57.5 13q-31 -3 -58.5 -13.5t-47.5 -27t-32 -39.5t-12 -51q0 -24 8.5 -45.5t27 -37t47 -25t67.5 -9.5zM310 626q-63 0 -96.5 -27.5t-33.5 -78.5
q0 -28 10.5 -49t28.5 -36t41.5 -24.5t49.5 -12.5q25 3 48.5 12.5t41.5 24.5t29 36t11 49q0 51 -34.5 78.5t-95.5 27.5z" />
    <glyph glyph-name="nine" unicode="9" horiz-adv-x="580" 
d="M275 710q60 0 107.5 -18.5t80 -57.5t50 -99.5t17.5 -144.5v-20q0 -106 -18 -178.5t-51 -117.5t-80 -64.5t-106 -19.5q-37 0 -71 9t-62.5 27.5t-48.5 48t-28 70.5h94q11 -39 43.5 -55t72.5 -16q37 0 67.5 12.5t52.5 43t34.5 80.5t14.5 125q-14 -24 -34 -41.5t-43.5 -29
t-48.5 -16.5t-48 -5q-53 0 -95.5 15t-72.5 44.5t-46 72t-16 96.5v10q0 50 18.5 92t50.5 72.5t75 47.5t91 17zM275 626q-65 0 -103 -38.5t-38 -106.5v-10q0 -71 37.5 -107.5t113.5 -36.5q72 0 111.5 37t39.5 97v10q0 34 -11.5 62.5t-33 49t-51 32t-65.5 11.5z" />
    <glyph glyph-name="colon" unicode=":" horiz-adv-x="300" 
d="M150 -10q-29 0 -49.5 20.5t-20.5 49.5q0 30 20.5 50t49.5 20t49.5 -20t20.5 -50q0 -29 -20.5 -49.5t-49.5 -20.5zM150 400q-29 0 -49.5 20.5t-20.5 49.5q0 30 20.5 50t49.5 20t49.5 -20t20.5 -50q0 -29 -20.5 -49.5t-49.5 -20.5z" />
    <glyph glyph-name="semicolon" unicode=";" horiz-adv-x="300" 
d="M95 0v110h110v-110l-88 -150h-52zM150 400q-29 0 -49.5 20.5t-20.5 49.5q0 30 20.5 50t49.5 20t49.5 -20t20.5 -50q0 -29 -20.5 -49.5t-49.5 -20.5z" />
    <glyph glyph-name="less" unicode="&#x3c;" 
d="M50 310v100l450 190v-94l-350 -144l350 -144v-98z" />
    <glyph glyph-name="equal" unicode="=" 
d="M50 301h450v-82h-450v82zM50 501h450v-82h-450v82z" />
    <glyph glyph-name="greater" unicode="&#x3e;" 
d="M499.939 409.95v-99.9883l-449.945 -189.977v93.9883l349.957 143.982l-349.957 143.982v97.9883z" />
    <glyph glyph-name="question" unicode="?" horiz-adv-x="500" 
d="M202 252q0 19 3 35t12 32t25 34t42 40q42 36 59 65t17 62q0 48 -29.5 77t-80.5 29t-80.5 -29t-29.5 -77h-100q0 41 14.5 75.5t42 60t66.5 40t87 14.5t87 -14.5t66.5 -40t42 -60t14.5 -75.5q0 -28 -9 -53t-24.5 -47.5t-35.5 -43t-41 -38.5q-17 -14 -27.5 -26.5t-16.5 -24
t-8 -23t-2 -24.5v-20h-94v32zM250 -10q-29 0 -49.5 20.5t-20.5 49.5q0 30 20.5 50t49.5 20t49.5 -20t20.5 -50q0 -29 -20.5 -49.5t-49.5 -20.5z" />
    <glyph glyph-name="at" unicode="@" horiz-adv-x="1020" 
d="M520 -210q-101 0 -185.5 34t-145.5 95t-95 145.5t-34 185.5q0 99 34.5 183.5t95 146t142.5 96t178 34.5q101 0 184 -32t142 -88t91.5 -133t32.5 -167q0 -69 -16 -121t-44 -86t-66.5 -51t-83.5 -17q-22 0 -42 4.5t-37 15.5t-29 30t-17 48q-23 -44 -56.5 -71t-93.5 -27
q-41 0 -75 14t-58.5 42t-38 70.5t-13.5 98.5v20q0 56 13.5 98.5t38 70.5t58.5 42t75 14q57 0 90.5 -25t46.5 -55v70h73v-284q0 -29 4 -48t12 -30t20 -15.5t29 -4.5q27 0 49.5 10t38.5 33.5t25 61t9 92.5q0 83 -29.5 147t-79.5 107.5t-115.5 65.5t-137.5 22q-78 0 -144 -28
t-114.5 -78t-76 -120.5t-27.5 -155.5q0 -87 27 -157.5t76 -120.5t117.5 -77t151.5 -27t138.5 15.5t91.5 36.5v-85q-38 -20 -92.5 -32.5t-137.5 -12.5zM490 93q54 0 88 34t34 88v70q0 54 -34 88t-88 34q-51 0 -81.5 -35t-30.5 -112v-20q0 -77 30.5 -112t81.5 -35z" />
    <glyph glyph-name="A" unicode="A" horiz-adv-x="670" 
d="M483 174h-301l-64 -174h-98l265 700h100l265 -700h-102zM213 256h240l-120 324z" />
    <glyph glyph-name="B" unicode="B" horiz-adv-x="670" 
d="M100 700h260q61 0 105.5 -14t73.5 -38.5t43 -59t14 -75.5q0 -54 -30.5 -92.5t-74.5 -55.5q58 -14 93.5 -56.5t35.5 -110.5q0 -43 -13.5 -79t-43 -62.5t-75 -41.5t-108.5 -15h-280v700zM380 82q82 0 114 32t32 87t-32 87t-115 32h-185v-238h186zM360 400q40 0 67.5 8
t44 22.5t23.5 34.5t7 44q0 49 -31 79t-111 30h-166v-218h166z" />
    <glyph glyph-name="C" unicode="C" horiz-adv-x="670" 
d="M355 -10q-62 0 -116 20t-94 62.5t-62.5 110t-22.5 162.5v20q0 91 22.5 156.5t62.5 107.5t94 61.5t116 19.5q55 0 101.5 -14t82 -41.5t58 -67.5t28.5 -92h-94q-14 66 -60.5 98.5t-115.5 32.5q-41 0 -76.5 -13.5t-62 -44t-41.5 -80.5t-15 -123v-20q0 -77 16.5 -129
t45 -83.5t65.5 -45t78 -13.5q72 0 114.5 37t51.5 97h94q-8 -58 -31.5 -99t-58.5 -67.5t-81 -39t-99 -12.5z" />
    <glyph glyph-name="D" unicode="D" horiz-adv-x="695" 
d="M100 700h232q71 0 127.5 -19t95.5 -59.5t59.5 -104t20.5 -152.5v-20q0 -93 -23 -158.5t-64.5 -107t-100.5 -60.5t-131 -19h-216v700zM314 82q47 0 87.5 13t70 43.5t46.5 81t17 125.5v20q0 71 -14.5 119.5t-41.5 78t-64.5 42.5t-82.5 13h-138v-536h120z" />
    <glyph glyph-name="E" unicode="E" horiz-adv-x="610" 
d="M100 700h450v-82h-356v-217h324v-82h-324v-237h356v-82h-450v700z" />
    <glyph glyph-name="F" unicode="F" horiz-adv-x="595" 
d="M100 700h450v-82h-356v-227h324v-82h-324v-309h-94v700z" />
    <glyph glyph-name="G" unicode="G" horiz-adv-x="700" 
d="M375 -10q-66 0 -123.5 20t-100 62.5t-67 110t-24.5 162.5v20q0 91 24.5 156.5t66 107.5t97 61.5t117.5 19.5q109 0 184 -53t96 -162h-94q-20 70 -69 100.5t-117 30.5q-41 0 -78 -13.5t-65.5 -44t-45 -80.5t-16.5 -123v-20q0 -77 18.5 -129t48.5 -83.5t68.5 -45
t79.5 -13.5t74.5 11.5t57.5 35.5t37 62t13 91h-192v80h285v-40q0 -89 -21 -150.5t-58 -100t-87.5 -56t-108.5 -17.5z" />
    <glyph glyph-name="H" unicode="H" horiz-adv-x="750" 
d="M100 700h94v-299h362v299h94v-700h-94v319h-362v-319h-94v700z" />
    <glyph glyph-name="I" unicode="I" horiz-adv-x="304" 
d="M105 700h94v-700h-94v700z" />
    <glyph glyph-name="J" unicode="J" horiz-adv-x="545" 
d="M225 -10q-97 0 -146.5 50.5t-53.5 138.5h94q4 -50 29.5 -77.5t76.5 -27.5q33 0 56.5 8t39 28.5t23 54.5t7.5 85v450h94v-450q0 -140 -54 -200t-166 -60z" />
    <glyph glyph-name="K" unicode="K" horiz-adv-x="675" 
d="M194 317l314 383h112l-241 -290l281 -410h-114l-228 337l-124 -149v-188h-94v700h94v-383z" />
    <glyph glyph-name="L" unicode="L" horiz-adv-x="570" 
d="M100 700h94v-618h356v-82h-450v700z" />
    <glyph glyph-name="M" unicode="M" horiz-adv-x="850" 
d="M100 700h96l231 -425l231 425h92v-700h-92v530l-198 -365h-70l-198 365v-530h-92v700z" />
    <glyph glyph-name="N" unicode="N" horiz-adv-x="750" 
d="M100 700h92l366 -545v545h92v-700h-92l-366 545v-545h-92v700z" />
    <glyph glyph-name="O" unicode="O" horiz-adv-x="740" 
d="M370 710q62 0 118.5 -19.5t99 -61.5t67.5 -107.5t25 -156.5v-20q0 -95 -25 -162t-67.5 -110t-99 -63t-118.5 -20t-118.5 20t-99 63t-67.5 110t-25 162v20q0 91 25 156.5t67.5 107.5t99 61.5t118.5 19.5zM370 626q-41 0 -78.5 -13.5t-67 -44t-47 -80.5t-17.5 -123v-20
q0 -77 18 -129t47.5 -83.5t67.5 -45t77 -13.5q42 0 80.5 13.5t67 45t45.5 83.5t17 129v20q0 73 -17.5 123t-46.5 80.5t-67 44t-79 13.5z" />
    <glyph glyph-name="P" unicode="P" horiz-adv-x="660" 
d="M100 700h255q128 0 191.5 -59t63.5 -159q0 -108 -63.5 -168t-191.5 -60h-161v-254h-94v700zM350 336q88 0 127 37t39 109q0 65 -39 100.5t-127 35.5h-156v-282h156z" />
    <glyph glyph-name="Q" unicode="Q" horiz-adv-x="740" 
d="M370 710q62 0 118.5 -19.5t99 -61.5t67.5 -107.5t25 -156.5v-20q0 -85 -20.5 -147.5t-55.5 -105.5l66 -65l-57 -57l-69 68q-38 -25 -82 -36.5t-92 -11.5q-62 0 -118.5 20t-99 63t-67.5 110t-25 162v20q0 91 25 156.5t67.5 107.5t99 61.5t118.5 19.5zM370 626
q-41 0 -78.5 -13.5t-67 -44t-47 -80.5t-17.5 -123v-20q0 -77 18 -129t47.5 -83.5t67.5 -45t77 -13.5q30 0 58 6.5t52 21.5l-110 111l57 57l110 -111q20 32 31.5 77.5t11.5 108.5v20q0 73 -17.5 123t-46.5 80.5t-67 44t-79 13.5z" />
    <glyph glyph-name="R" unicode="R" horiz-adv-x="680" 
d="M389 284h-24h-171v-284h-94v700h265q59 0 105 -15.5t77 -42.5t47 -64.5t16 -80.5q0 -69 -33.5 -120t-97.5 -75l151 -302h-103zM360 366q80 0 118 35t38 96q0 54 -38 87.5t-118 33.5h-166v-252h166z" />
    <glyph glyph-name="S" unicode="S" horiz-adv-x="635" 
d="M315 -10q-63 0 -110.5 15t-79.5 41.5t-49.5 62t-20.5 76.5h95q3 -23 14 -43.5t31 -35.5t49.5 -23.5t70.5 -8.5q84 0 125 32t41 79q0 27 -9.5 47.5t-31.5 36t-57 28t-87 23.5q-56 12 -97.5 28t-69 40t-41.5 57.5t-14 79.5q0 39 16 72.5t47 58.5t76 39.5t102 14.5
q58 0 102.5 -14.5t75 -39.5t47.5 -58.5t20 -72.5h-94q-6 42 -41.5 71.5t-109.5 29.5q-72 0 -109.5 -29.5t-37.5 -71.5q0 -53 40 -80.5t128 -45.5q65 -14 110.5 -31t74 -42t41.5 -59t13 -82q0 -41 -17 -76.5t-50 -62t-81.5 -41.5t-111.5 -15z" />
    <glyph glyph-name="T" unicode="T" horiz-adv-x="590" 
d="M248 618h-228v82h550v-82h-228v-618h-94v618z" />
    <glyph glyph-name="U" unicode="U" horiz-adv-x="710" 
d="M355 -10q-59 0 -107.5 18t-83.5 54t-54.5 90.5t-19.5 127.5v420h94v-420q0 -107 47 -157t124 -50t124 50t47 157v420h94v-420q0 -73 -19.5 -127.5t-54.5 -90.5t-83.5 -54t-107.5 -18z" />
    <glyph glyph-name="V" unicode="V" horiz-adv-x="660" 
d="M15 700h102l224 -590l206 590h98l-255 -700h-100z" />
    <glyph glyph-name="W" unicode="W" horiz-adv-x="940" 
d="M20 700h102l133 -575l160 575h110l164 -575l133 575h98l-170 -700h-110l-172 575l-168 -575h-110z" />
    <glyph glyph-name="X" unicode="X" horiz-adv-x="620" 
d="M257 367l-227 333h104l177 -261l179 261h100l-226 -331l246 -369h-106l-195 298l-197 -298h-102z" />
    <glyph glyph-name="Y" unicode="Y" horiz-adv-x="630" 
d="M278 277l-268 423h108l206 -326l192 326h104l-248 -423v-277h-94v277z" />
    <glyph glyph-name="Z" unicode="Z" horiz-adv-x="590" 
d="M40 78l404 540h-394v82h500v-78l-404 -540h404v-82h-510v78z" />
    <glyph glyph-name="bracketleft" unicode="[" horiz-adv-x="360" 
d="M85 700h215v-82h-121v-736h121v-82h-215v900z" />
    <glyph glyph-name="backslash" unicode="\" horiz-adv-x="500" 
d="M45 700h98l312 -900h-98z" />
    <glyph glyph-name="bracketright" unicode="]" horiz-adv-x="360" 
d="M275 -200h-215v82h121v736h-121v82h215v-900z" />
    <glyph glyph-name="asciicircum" unicode="^" 
d="M225 700h100l170 -260h-102l-120 190l-120 -190h-98z" />
    <glyph glyph-name="underscore" unicode="_" horiz-adv-x="500" 
d="M0 -62h500v-76h-500v76z" />
    <glyph glyph-name="grave" unicode="`" horiz-adv-x="250" 
d="M20 740h102l108 -160h-78z" />
    <glyph glyph-name="a" unicode="a" horiz-adv-x="575" 
d="M231 -10q-85 0 -133 45.5t-48 119.5q0 79 47.5 114t132.5 35h176v36q0 68 -29.5 95t-86.5 27q-64 0 -92.5 -20t-31.5 -47h-86q3 31 19 58t43 46t64.5 30t83.5 11q47 0 85 -11.5t64.5 -35t40.5 -60.5t14 -88v-210q0 -41 0.5 -71t5.5 -64h-78q-5 28 -5 45.5v42.5
q-10 -19 -27.5 -36.5t-41.5 -31t-53.5 -22t-63.5 -8.5zM247 66q31 0 59.5 9.5t50.5 27t35.5 42.5t13.5 57v35h-161q-49 0 -75 -20t-26 -62q0 -35 24.5 -62t78.5 -27z" />
    <glyph glyph-name="b" unicode="b" horiz-adv-x="615" 
d="M80 700h88v-260q24 45 68.5 72.5t108.5 27.5q103 0 164 -65.5t61 -194.5v-21q0 -135 -63 -202t-172 -67q-30 0 -58 8.5t-50.5 23t-40 32.5t-26.5 38v-92h-80v700zM330 68q32 0 59.5 12.5t48 36.5t32.5 60t12 83v20q0 90 -42.5 136t-109.5 46q-31 0 -60 -10t-51.5 -29.5
t-36.5 -47.5t-14 -65v-80q0 -41 14 -71.5t36.5 -50.5t51.5 -30t60 -10z" />
    <glyph glyph-name="c" unicode="c" horiz-adv-x="545" 
d="M285 -10q-51 0 -95 16.5t-76 50t-50.5 84t-18.5 118.5v22q0 64 20 112.5t53 81t76.5 49t90.5 16.5t85 -13t66 -36t45.5 -54t23.5 -67h-84q-6 19 -16 35.5t-26 29t-39.5 20t-54.5 7.5q-29 0 -56.5 -10.5t-48.5 -32.5t-34 -56.5t-13 -82.5v-21q0 -52 13 -88t34 -59
t48.5 -33.5t56.5 -10.5q52 0 87 25t49 67h84q-8 -39 -27.5 -70.5t-48.5 -53.5t-66 -34t-78 -12z" />
    <glyph glyph-name="d" unicode="d" horiz-adv-x="615" 
d="M535 0h-80v88q-23 -44 -71 -71t-114 -27q-47 0 -87.5 16t-71.5 48t-48.5 81t-17.5 115v20q0 70 18.5 121t50.5 84t75 49t91 16q60 0 104 -26t63 -64v250h88v-700zM287 462q-28 0 -55.5 -10.5t-49.5 -33.5t-35.5 -59.5t-13.5 -88.5v-20q0 -48 12.5 -82.5t33.5 -56.5
t49 -32.5t59 -10.5q30 0 58.5 10t51 29.5t36.5 47.5t14 65v80q0 41 -14 71.5t-36.5 50.5t-51 30t-58.5 10z" />
    <glyph glyph-name="e" unicode="e" horiz-adv-x="570" 
d="M295 -10q-49 0 -94 16.5t-79.5 50t-55.5 84.5t-21 119v20q0 66 20 115t53.5 81.5t78 48t93.5 15.5q110 0 172.5 -62.5t62.5 -172.5v-66h-392q0 -46 15 -78.5t38 -53t52 -30t57 -9.5q63 0 98 20.5t43 56.5h79q-8 -38 -28.5 -67t-49.5 -48.5t-65.5 -29.5t-76.5 -10z
M290 462q-29 0 -57 -8.5t-50 -26.5t-36 -47t-14 -69h309q-1 40 -13.5 69t-33 47t-48 26.5t-57.5 8.5z" />
    <glyph glyph-name="f" unicode="f" horiz-adv-x="360" 
d="M105 454h-75v76h75v20q0 76 37.5 113t117.5 37h70v-76h-60q-44 0 -60.5 -16t-16.5 -58v-20h137v-76h-137v-454h-88v454z" />
    <glyph glyph-name="g" unicode="g" horiz-adv-x="615" 
d="M455 530h80v-509q0 -115 -61 -173t-180 -58q-58 0 -100.5 11.5t-70.5 31t-42.5 46t-15.5 56.5h90q5 -26 37 -47.5t96 -21.5q84 0 121.5 35t37.5 121v78q-16 -45 -63.5 -72.5t-113.5 -27.5q-47 0 -87.5 16t-71.5 48t-48.5 81t-17.5 115v10q0 70 18.5 121t50.5 84t75 49
t91 16q60 0 107 -27.5t68 -74.5v92zM447 300q0 41 -14 71.5t-36.5 50.5t-51 30t-58.5 10q-28 0 -55.5 -10.5t-49.5 -33.5t-35.5 -59.5t-13.5 -88.5v-10q0 -48 12.5 -82.5t33.5 -56.5t49 -32.5t59 -10.5q30 0 58.5 10t51 29.5t36.5 47.5t14 65v70z" />
    <glyph glyph-name="h" unicode="h" horiz-adv-x="610" 
d="M80 700h88v-255q9 18 24.5 35.5t37 30.5t49.5 21t62 8q194 0 194 -225v-315h-88v310q0 75 -30.5 113.5t-101.5 38.5q-39 0 -66.5 -13t-45.5 -34t-26.5 -48.5t-8.5 -56.5v-310h-88v700z" />
    <glyph glyph-name="i" unicode="i" horiz-adv-x="278" 
d="M95 530h88v-530h-88v530zM139 599q-26 0 -43.5 17.5t-17.5 43.5t17.5 43.5t43.5 17.5t43.5 -17.5t17.5 -43.5t-17.5 -43.5t-43.5 -17.5z" />
    <glyph glyph-name="j" unicode="j" horiz-adv-x="278" 
d="M-27 -123h41q23 0 38.5 5.5t25 19t13.5 37.5t4 61v530h88v-530q0 -58 -8.5 -96.5t-26.5 -61.5t-47.5 -32.5t-71.5 -9.5h-56v77zM139 599q-26 0 -43.5 17.5t-17.5 43.5t17.5 43.5t43.5 17.5t43.5 -17.5t17.5 -43.5t-17.5 -43.5t-43.5 -17.5z" />
    <glyph glyph-name="k" unicode="k" horiz-adv-x="555" 
d="M75 700h88v-415l234 245h108l-210 -216l240 -314h-108l-191 254l-73 -75v-179h-88v700z" />
    <glyph glyph-name="l" unicode="l" horiz-adv-x="320" 
d="M246 0q-87 0 -124 37.5t-37 127.5v535h88v-535q0 -52 17 -70.5t60 -18.5h50v-76h-54z" />
    <glyph glyph-name="m" unicode="m" horiz-adv-x="885" 
d="M80 530h80v-95q9 21 25 40.5t37 33.5t45 22.5t48 8.5q69 0 106 -29.5t51 -75.5q26 49 68.5 77t95.5 28q82 0 128 -48t46 -142v-350h-88v317q0 80 -28.5 112.5t-83.5 32.5q-24 0 -45.5 -10.5t-38.5 -29.5t-27 -45.5t-10 -59.5v-317h-88v317q0 80 -28 112.5t-83 32.5
q-24 0 -46 -10.5t-39 -29.5t-27 -45.5t-10 -59.5v-317h-88v530z" />
    <glyph glyph-name="n" unicode="n" horiz-adv-x="610" 
d="M80 530h80v-100q19 45 64 77.5t117 32.5q97 0 145.5 -55t48.5 -170v-315h-88v310q0 75 -30.5 113.5t-101.5 38.5q-39 0 -66.5 -13t-45.5 -34t-26.5 -48.5t-8.5 -56.5v-310h-88v530z" />
    <glyph glyph-name="o" unicode="o" horiz-adv-x="600" 
d="M300 -10q-51 0 -97 16.5t-81 50t-56 84.5t-21 119v20q0 64 21 113t56 81.5t81 49t97 16.5t97 -16.5t81 -49t56 -81.5t21 -113v-20q0 -68 -21 -119t-56 -84.5t-81 -50t-97 -16.5zM300 68q31 0 61 10.5t53.5 33.5t38 59.5t14.5 88.5v20q0 48 -14.5 82.5t-38 56.5
t-53.5 32.5t-61 10.5t-61 -10.5t-53.5 -32.5t-38 -56.5t-14.5 -82.5v-20q0 -52 14.5 -88.5t38 -59.5t53.5 -33.5t61 -10.5z" />
    <glyph glyph-name="p" unicode="p" horiz-adv-x="615" 
d="M80 530h80v-100q23 49 72 79.5t113 30.5q103 0 164 -65.5t61 -194.5v-20q0 -136 -63 -203t-172 -67q-57 0 -102.5 27.5t-64.5 72.5v-290h-88v730zM330 68q32 0 59.5 12.5t48 36.5t32.5 60t12 83v20q0 90 -42.5 136t-109.5 46q-36 0 -66 -11.5t-51 -32t-33 -48.5t-12 -60
v-80q0 -36 12 -66t33 -51t51 -33t66 -12z" />
    <glyph glyph-name="q" unicode="q" horiz-adv-x="585" 
d="M535 -200h-88v290q-16 -45 -63.5 -72.5t-113.5 -27.5q-47 0 -87.5 16t-71.5 48t-48.5 81t-17.5 115v20q0 70 18.5 121t50.5 84t75 49t91 16q60 0 107 -27.5t68 -74.5v92h80v-730zM287 462q-28 0 -55.5 -10.5t-49.5 -33.5t-35.5 -59.5t-13.5 -88.5v-20q0 -48 12.5 -82.5
t33.5 -56.5t49 -32.5t59 -10.5q30 0 58.5 10t51 29.5t36.5 47.5t14 65v80q0 41 -14 71.5t-36.5 50.5t-51 30t-58.5 10z" />
    <glyph glyph-name="r" unicode="r" horiz-adv-x="390" 
d="M80 530h80v-90q9 19 23.5 37.5t34.5 32t44.5 22t52.5 8.5q11 0 21 -1t18 -2q9 -1 16 -2v-84q-9 2 -20 4q-10 2 -22.5 3.5t-27.5 1.5q-61 0 -96.5 -36.5t-35.5 -103.5v-320h-88v530z" />
    <glyph glyph-name="s" unicode="s" horiz-adv-x="530" 
d="M265 -10q-53 0 -92 12.5t-66 33.5t-41 49t-16 60h90q4 -32 32 -54.5t93 -22.5q70 0 98.5 22.5t28.5 54.5q0 14 -5.5 26.5t-21.5 23.5t-43.5 20t-70.5 17q-88 17 -137 53t-49 105q0 30 13 57t38.5 48t62.5 33t86 12q47 0 83.5 -12.5t61.5 -33.5t39 -49t16 -60h-90
q-4 35 -28.5 56t-81.5 21q-60 0 -86 -21t-26 -51q0 -15 5.5 -27t20 -22t39.5 -18t63 -15q99 -18 149 -54t50 -109q0 -32 -13 -60t-40 -49t-67.5 -33.5t-94.5 -12.5z" />
    <glyph glyph-name="t" unicode="t" horiz-adv-x="370" 
d="M253 0q-76 0 -112 36t-36 114v304h-75v76h75v120h88v-120h137v-76h-137v-294q0 -45 18.5 -64.5t56.5 -19.5h72v-76h-87z" />
    <glyph glyph-name="u" unicode="u" horiz-adv-x="595" 
d="M275 -10q-100 0 -150 51.5t-50 158.5v330h88v-325q0 -72 34.5 -104.5t95.5 -32.5q66 0 100 38.5t34 103.5v320h88v-530h-80v90q-9 -21 -25 -39.5t-37 -32t-46 -21t-52 -7.5z" />
    <glyph glyph-name="v" unicode="v" horiz-adv-x="560" 
d="M20 530h98l172 -440l156 440h94l-200 -530h-100z" />
    <glyph glyph-name="w" unicode="w" horiz-adv-x="810" 
d="M30 530h96l103 -430l121 430h110l133 -430l97 430h90l-130 -530h-110l-138 430l-122 -430h-110z" />
    <glyph glyph-name="x" unicode="x" horiz-adv-x="540" 
d="M215 277l-175 253h102l130 -185l130 185h98l-175 -248l195 -282h-104l-148 215l-148 -215h-100z" />
    <glyph glyph-name="y" unicode="y" horiz-adv-x="560" 
d="M110 -122q28 0 48 5t35 18t27.5 34.5t24.5 54.5l-225 540h98l172 -440l156 440h94l-205 -540q-21 -56 -41.5 -92.5t-46 -58t-58.5 -30.5t-79 -9v78z" />
    <glyph glyph-name="z" unicode="z" horiz-adv-x="530" 
d="M50 74l328 378h-318v78h420v-74l-328 -378h328v-78h-430v74z" />
    <glyph glyph-name="braceleft" unicode="{" horiz-adv-x="360" 
d="M250 -200q-86 0 -125.5 39.5t-39.5 125.5v195q0 23 -13.5 36.5t-36.5 13.5v90q23 0 36.5 13.5t13.5 36.5v185q0 86 39.5 125.5t125.5 39.5h50v-82h-40q-43 0 -62 -19t-19 -64v-220q0 -26 -12.5 -40.5t-31.5 -19.5q19 -5 31.5 -19.5t12.5 -40.5v-230q0 -45 19 -64t62 -19
h40v-82h-50z" />
    <glyph glyph-name="bar" unicode="|" horiz-adv-x="320" 
d="M113 700h94v-900h-94v900z" />
    <glyph glyph-name="braceright" unicode="}" horiz-adv-x="360" 
d="M110 700q86 0 125.5 -39.5t39.5 -125.5v-195q0 -23 13.5 -36.5t36.5 -13.5v-90q-23 0 -36.5 -13.5t-13.5 -36.5v-185q0 -86 -39.5 -125.5t-125.5 -39.5h-50v82h40q43 0 62 19t19 64v220q0 26 12.5 40.5t31.5 19.5q-19 5 -31.5 19.5t-12.5 40.5v230q0 45 -19 64t-62 19
h-40v82h50z" />
    <glyph glyph-name="asciitilde" unicode="~" 
d="M370 280q-32 0 -58 12t-49 26t-44.5 26t-43.5 12q-20 0 -34 -11t-24 -24q-11 -15 -19 -34l-63 38q13 31 33 57q17 22 44.5 40t67.5 18q32 0 58 -12t49 -26.5t44 -26.5t44 -12q20 0 34 10.5t24 24.5q11 15 19 35l63 -38q-13 -32 -33 -58q-17 -22 -45 -39.5t-67 -17.5z" />
    <glyph glyph-name="uni00A0" unicode="&#xa0;" horiz-adv-x="250" 
 />
    <glyph glyph-name="exclamdown" unicode="&#xa1;" horiz-adv-x="300" 
d="M103 310h94v-510h-94v510zM150 400q-29 0 -49.5 20.5t-20.5 49.5q0 30 20.5 50t49.5 20t49.5 -20t20.5 -50q0 -29 -20.5 -49.5t-49.5 -20.5z" />
    <glyph glyph-name="cent" unicode="&#xa2;" 
d="M239 -6q-42 7 -77 27t-60.5 53t-39.5 79t-14 106v22q0 55 15 99t41 76t61 51.5t74 27.5v95h78v-91q40 -4 73 -19t57.5 -37.5t40 -51t20.5 -61.5h-84q-6 19 -16 35.5t-26 29t-39.5 20t-54.5 7.5q-29 0 -56.5 -10.5t-48.5 -32.5t-34 -56.5t-13 -82.5v-21q0 -52 13 -88
t34 -59t48.5 -33.5t56.5 -10.5q52 0 87 25t49 67h84q-14 -72 -66.5 -116t-124.5 -52v-92h-78v94z" />
    <glyph glyph-name="sterling" unicode="&#xa3;" 
d="M50 82h75v224h-65v72h65v122q0 49 14 88t39.5 66t61 41.5t78.5 14.5q41 0 75.5 -13.5t60 -38.5t40 -59t16.5 -74h-94q-4 48 -30 74.5t-68 26.5q-47 0 -73 -29.5t-26 -96.5v-122h161v-72h-161v-224h291v-82h-460v82z" />
    <glyph glyph-name="currency" unicode="&#xa4;" 
d="M375 198q-45 -28 -100 -28q-29 0 -54 7.5t-48 21.5l-79 -79l-59 59l79 79q-14 23 -21.5 48t-7.5 54q0 55 28 100l-78 78l62 62l78 -78q45 28 100 28q28 0 53.5 -8t47.5 -22l80 80l59 -59l-80 -80q14 -22 22 -47.5t8 -53.5q0 -55 -28 -100l78 -78l-62 -62zM275 248
q45 0 75.5 32t30.5 80t-30.5 80t-75.5 32t-75.5 -32t-30.5 -80t30.5 -80t75.5 -32z" />
    <glyph glyph-name="yen" unicode="&#xa5;" 
d="M238 162h-153v72h153v72h-153v72h103l-163 322h104l155 -321l141 321h100l-148 -322h108v-72h-153v-72h153v-72h-153v-162h-94v162z" />
    <glyph glyph-name="brokenbar" unicode="&#xa6;" horiz-adv-x="310" 
d="M108 170h94v-370h-94v370zM108 700h94v-370h-94v370z" />
    <glyph glyph-name="section" unicode="&#xa7;" 
d="M275 -210q-85 0 -130 43.5t-45 116.5h94q0 -75 81 -75t81 77q0 18 -7 32t-25 27.5t-48.5 27.5t-78.5 33q-60 24 -96 69.5t-36 108.5q0 57 33 100.5t90 67.5q-39 23 -63.5 52.5t-24.5 77.5q0 74 45.5 118t129.5 44q85 0 130 -43.5t45 -116.5h-94q0 76 -81 76
q-40 0 -60.5 -20t-20.5 -58q0 -18 7 -32t25 -27.5t49 -27.5t78 -33q60 -24 96 -70.5t36 -108.5q0 -57 -33.5 -100t-89.5 -67q38 -22 63 -52t25 -78q0 -74 -45.5 -118t-129.5 -44zM275 142q51 0 84.5 30t33.5 77q0 23 -9 43t-25 34.5t-37.5 23t-46.5 8.5q-51 0 -84.5 -30.5
t-33.5 -77.5t33.5 -77.5t84.5 -30.5z" />
    <glyph glyph-name="dieresis" unicode="&#xa8;" horiz-adv-x="360" 
d="M78 602q-24 0 -41 17t-17 41t17 41t41 17t41 -17t17 -41t-17 -41t-41 -17zM282 602q-24 0 -41 17t-17 41t17 41t41 17t41 -17t17 -41t-17 -41t-41 -17z" />
    <glyph glyph-name="copyright" unicode="&#xa9;" horiz-adv-x="820" 
d="M410 -10q-76 0 -141.5 28t-114 76.5t-76.5 114t-28 141.5q0 75 28 140.5t77 114.5t114.5 77t140.5 28q76 0 141.5 -28t114 -76.5t76.5 -114t28 -141.5q0 -75 -28 -140.5t-77 -114.5t-114.5 -77t-140.5 -28zM410 66q59 0 110 21.5t89 59.5t59.5 90t21.5 113
q0 60 -21.5 112t-59.5 90.5t-89 60t-110 21.5t-110 -21.5t-89 -60t-59.5 -90.5t-21.5 -112t21.5 -112t59.5 -90.5t89 -60t110 -21.5zM410 140q-40 0 -73 13.5t-57 40t-37 64.5t-13 87v10q0 48 13.5 86.5t37.5 64.5t57 40t72 14q38 0 68 -10.5t51.5 -28t34 -41.5t16.5 -51
h-82q-8 27 -29 45t-59 18q-45 0 -72.5 -32t-27.5 -105v-10q0 -72 28 -104.5t72 -32.5q42 0 62 17.5t28 48.5h80q-4 -27 -17 -51.5t-34.5 -43t-51.5 -29t-67 -10.5z" />
    <glyph glyph-name="ordfeminine" unicode="&#xaa;" horiz-adv-x="360" 
d="M150 370q-62 0 -91 27t-29 75q0 45 30.5 72.5t94.5 27.5h95v13q0 65 -60 65q-30 0 -43 -10.5t-17 -29.5h-80q4 45 36 72.5t104 27.5q75 0 107.5 -30.5t32.5 -94.5v-125q0 -26 1 -45.5t4 -34.5h-70q-3 15 -4 25t-1 26q-12 -23 -40 -42t-70 -19zM165 430q42 0 63.5 20
t21.5 50v16h-85q-29 0 -42 -11.5t-13 -32.5q0 -19 13 -30.5t42 -11.5z" />
    <glyph glyph-name="guillemotleft" unicode="&#xab;" 
d="M40 245v60l220 195v-98l-144 -125l144 -125v-102zM260 245v60l220 195v-98l-144 -125l144 -125v-102z" />
    <glyph glyph-name="logicalnot" unicode="&#xac;" 
d="M418 319h-368v82h450v-250h-82v168z" />
    <glyph glyph-name="uni00AD" unicode="&#xad;" horiz-adv-x="400" 
d="M60 313h280v-76h-280v76z" />
    <glyph glyph-name="registered" unicode="&#xae;" horiz-adv-x="630" 
d="M315 140q-59 0 -111 22.5t-90.5 61t-61 90.5t-22.5 111t22.5 111t61 90.5t90.5 61t111 22.5t111 -22.5t90.5 -61t61 -90.5t22.5 -111t-22.5 -111t-61 -90.5t-90.5 -61t-111 -22.5zM315 200q45 0 85 17.5t69.5 48t47 71.5t17.5 88t-17.5 88t-47 71.5t-69.5 48t-85 17.5
t-85 -17.5t-69.5 -48t-47 -71.5t-17.5 -88t17.5 -88t47 -71.5t69.5 -48t85 -17.5zM337 383h-7h-56v-108h-64v300h120q54 0 82 -26.5t28 -69.5q0 -58 -48 -83l58 -121h-66zM274 521v-84h51q28 0 39.5 11t11.5 31t-11.5 31t-39.5 11h-51z" />
    <glyph glyph-name="macron" unicode="&#xaf;" horiz-adv-x="320" 
d="M20 693h280v-66h-280v66z" />
    <glyph glyph-name="degree" unicode="&#xb0;" horiz-adv-x="350" 
d="M175 410q-33 0 -61.5 12t-49 32t-32.5 47.5t-12 58.5t12 58.5t32.5 47.5t49 32t61.5 12t61.5 -12t49 -32t32.5 -47.5t12 -58.5t-12 -58.5t-32.5 -47.5t-49 -32t-61.5 -12zM175 488q32 0 52.5 20t20.5 52t-20.5 52t-52.5 20t-52.5 -20t-20.5 -52t20.5 -52t52.5 -20z" />
    <glyph glyph-name="plusminus" unicode="&#xb1;" 
d="M50 172h450v-82h-450v82zM229 364h-179v82h179v184h92v-184h179v-82h-179v-104h-92v104z" />
    <glyph glyph-name="twosuperior" unicode="&#xb2;" horiz-adv-x="360" 
d="M30 440l151 132q18 16 29 28t16.5 23t7.5 21t2 21q0 20 -16.5 35.5t-44.5 15.5t-44.5 -15.5t-16.5 -35.5h-84q0 53 38.5 89t106.5 36t106.5 -36t38.5 -89q0 -39 -22 -71t-69 -70l-89 -74h190v-70h-300v60z" />
    <glyph glyph-name="threesuperior" unicode="&#xb3;" horiz-adv-x="370" 
d="M185 370q-38 0 -66.5 9.5t-48.5 26t-30 38.5t-10 46h84q0 -22 16.5 -36t54.5 -14t54.5 16t16.5 42t-17 40t-55 14h-50v66h50q32 0 47 14t15 37t-15 37t-46 14q-35 0 -50.5 -13t-15.5 -32h-84q0 48 37.5 81.5t112.5 33.5q72 0 108.5 -32.5t36.5 -81.5q0 -39 -17.5 -57
t-47.5 -29q30 -11 52.5 -33.5t22.5 -64.5q0 -25 -10 -47.5t-30 -39t-49 -26t-66 -9.5z" />
    <glyph glyph-name="acute" unicode="&#xb4;" horiz-adv-x="250" 
d="M130 740h100l-134 -160h-76z" />
    <glyph glyph-name="mu" unicode="&#xb5;" horiz-adv-x="600" 
d="M80 530h88v-327q0 -70 34.5 -102.5t95.5 -32.5q66 0 100 40t34 112v310h88v-530h-80v90q-9 -21 -25 -39.5t-37 -32t-46 -21t-52 -7.5q-73 0 -112 33v-223h-88v730z" />
    <glyph glyph-name="mu" unicode="&#x3bc;" horiz-adv-x="600" 
d="M80 530h88v-327q0 -70 34.5 -102.5t95.5 -32.5q66 0 100 40t34 112v310h88v-530h-80v90q-9 -21 -25 -39.5t-37 -32t-46 -21t-52 -7.5q-73 0 -112 33v-223h-88v730z" />
    <glyph glyph-name="paragraph" unicode="&#xb6;" horiz-adv-x="625" 
d="M431 618h-139v-818h-94v505q-33 8 -61 26t-48.5 44t-32 58t-11.5 67q0 41 16 77.5t43 63.5t63.5 43t77.5 16h280v-900h-94v818z" />
    <glyph glyph-name="periodcentered" unicode="&#xb7;" horiz-adv-x="300" 
d="M150 205q-29 0 -49.5 20.5t-20.5 49.5q0 30 20.5 50t49.5 20t49.5 -20t20.5 -50q0 -29 -20.5 -49.5t-49.5 -20.5z" />
    <glyph glyph-name="cedilla" unicode="&#xb8;" horiz-adv-x="210" 
d="M75 -210q-12 0 -22 0.5t-18 1.5q-9 1 -15 3v58q7 -2 15 -3q7 -1 14.5 -1.5t15.5 -0.5q28 0 39.5 9.5t11.5 25.5q0 14 -12.5 23t-48.5 9l20 95h60l-11 -52q37 -8 51.5 -29.5t14.5 -46.5q0 -41 -28.5 -66.5t-86.5 -25.5z" />
    <glyph glyph-name="onesuperior" unicode="&#xb9;" horiz-adv-x="320" 
d="M30 450h100v243l-100 -68v87l100 68h80v-330h80v-70h-260v70z" />
    <glyph glyph-name="ordmasculine" unicode="&#xba;" horiz-adv-x="390" 
d="M195 370q-36 0 -66.5 12t-52.5 34t-34 52.5t-12 66.5v10q0 36 12.5 66.5t34 52t52 34t66.5 12.5t66.5 -12t52.5 -34t34 -52.5t12 -66.5v-10q0 -36 -12.5 -66.5t-34 -52t-52 -34t-66.5 -12.5zM195 444q38 0 59.5 23t21.5 68v10q0 45 -21.5 68t-59.5 23t-59.5 -23
t-21.5 -68v-10q0 -45 21.5 -68t59.5 -23z" />
    <glyph glyph-name="guillemotright" unicode="&#xbb;" 
d="M290 305v-60l-220 -195v98l144 125l-144 125v102zM510 305v-60l-220 -195v98l144 125l-144 125v102z" />
    <glyph glyph-name="onequarter" unicode="&#xbc;" horiz-adv-x="870" 
d="M50 371h100v243l-100 -68v87l100 68h80v-330h80v-70h-260v70zM644 700h96l-464 -700h-96zM700 86h-200v60l187 255h93v-245h40v-70h-40v-85h-80v85zM700 156v150l-110 -150h110z" />
    <glyph glyph-name="onehalf" unicode="&#xbd;" horiz-adv-x="940" 
d="M50 371h100v243l-100 -68v87l100 68h80v-330h80v-70h-260v70zM644 700h96l-464 -700h-96zM590 61l151 132q18 16 29 28t16.5 23t7.5 21t2 21q0 20 -16.5 35.5t-44.5 15.5t-44.5 -15.5t-16.5 -35.5h-84q0 53 38.5 89t106.5 36t106.5 -36t38.5 -89q0 -39 -22 -71t-69 -70
l-89 -74h190v-70h-300v60z" />
    <glyph glyph-name="threequarters" unicode="&#xbe;" horiz-adv-x="895" 
d="M205 271q-38 0 -66.5 9.5t-48.5 26t-30 38.5t-10 46h84q0 -22 16.5 -36t54.5 -14t54.5 16t16.5 42t-17 40t-55 14h-50v66h50q32 0 47 14t15 37t-15 37t-46 14q-35 0 -50.5 -13t-15.5 -32h-84q0 48 37.5 81.5t112.5 33.5q72 0 108.5 -32.5t36.5 -81.5q0 -39 -17.5 -57
t-47.5 -29q30 -11 52.5 -33.5t22.5 -64.5q0 -25 -10 -47.5t-30 -39t-49 -26t-66 -9.5zM669 700h96l-464 -700h-96zM725 86h-200v60l187 255h93v-245h40v-70h-40v-85h-80v85zM725 156v150l-110 -150h110z" />
    <glyph glyph-name="questiondown" unicode="&#xbf;" horiz-adv-x="500" 
d="M250 -210q-48 0 -87 14.5t-66.5 40t-42 60t-14.5 75.5q0 28 9 53t24.5 47.5t35.5 43t41 38.5q17 14 27.5 26.5t16.5 24t8 23t2 24.5v50h94v-62q0 -19 -3 -35t-12 -32t-25 -34t-42 -40q-42 -36 -59 -65t-17 -62q0 -48 29.5 -77t80.5 -29t80.5 29t29.5 77h100
q0 -41 -14.5 -75.5t-42 -60t-66.5 -40t-87 -14.5zM250 400q-29 0 -49.5 20.5t-20.5 49.5q0 30 20.5 50t49.5 20t49.5 -20t20.5 -50q0 -29 -20.5 -49.5t-49.5 -20.5z" />
    <glyph glyph-name="Agrave" unicode="&#xc0;" horiz-adv-x="670" 
d="M483 174h-301l-64 -174h-98l265 700h100l265 -700h-102zM213 256h240l-120 324zM155 900h104l116 -150h-80z" />
    <glyph glyph-name="Aacute" unicode="&#xc1;" horiz-adv-x="670" 
d="M483 174h-301l-64 -174h-98l265 700h100l265 -700h-102zM213 256h240l-120 324zM414 900h102l-142 -150h-78z" />
    <glyph glyph-name="Acircumflex" unicode="&#xc2;" horiz-adv-x="670" 
d="M483 174h-301l-64 -174h-98l265 700h100l265 -700h-102zM213 256h240l-120 324zM297 900h76l117 -150h-80l-75 85l-77 -85h-78z" />
    <glyph glyph-name="Atilde" unicode="&#xc3;" horiz-adv-x="670" 
d="M483 174h-301l-64 -174h-98l265 700h100l265 -700h-102zM213 256h240l-120 324zM395 765q-26 0 -42.5 8t-29.5 17t-24.5 17t-28.5 8q-14 0 -23.5 -6.5t-16.5 -14.5q-8 -10 -13 -21l-52 27q9 24 25 42q13 16 34 29.5t51 13.5q24 0 40.5 -8t29.5 -17t25.5 -17t29.5 -8
q13 0 23 6.5t17 14.5q8 9 13 21l52 -27q-10 -25 -25 -43q-14 -16 -34.5 -29t-50.5 -13z" />
    <glyph glyph-name="Adieresis" unicode="&#xc4;" horiz-adv-x="670" 
d="M483 174h-301l-64 -174h-98l265 700h100l265 -700h-102zM213 256h240l-120 324zM225 765q-25 0 -42.5 17.5t-17.5 42.5t17.5 42.5t42.5 17.5t42.5 -17.5t17.5 -42.5t-17.5 -42.5t-42.5 -17.5zM445 765q-25 0 -42.5 17.5t-17.5 42.5t17.5 42.5t42.5 17.5t42.5 -17.5
t17.5 -42.5t-17.5 -42.5t-42.5 -17.5z" />
    <glyph glyph-name="Aring" unicode="&#xc5;" horiz-adv-x="670" 
d="M483 174h-301l-64 -174h-98l265 700h100l265 -700h-102zM213 256h240l-120 324zM335 735q-54 0 -87 31.5t-33 78.5t33 78.5t87 31.5t87 -31.5t33 -78.5t-33 -78.5t-87 -31.5zM335 797q22 0 35.5 13.5t13.5 34.5t-13.5 34.5t-35.5 13.5t-35.5 -13.5t-13.5 -34.5
t13.5 -34.5t35.5 -13.5z" />
    <glyph glyph-name="AE" unicode="&#xc6;" horiz-adv-x="957" 
d="M407 700h490v-82h-356v-217h324v-82h-324v-237h356v-82h-450v174h-233l-96 -174h-103zM447 256v344l-188 -344h188z" />
    <glyph glyph-name="Ccedilla" unicode="&#xc7;" horiz-adv-x="670" 
d="M355 -10q-62 0 -116 20t-94 62.5t-62.5 110t-22.5 162.5v20q0 91 22.5 156.5t62.5 107.5t94 61.5t116 19.5q55 0 101.5 -14t82 -41.5t58 -67.5t28.5 -92h-94q-14 66 -60.5 98.5t-115.5 32.5q-41 0 -76.5 -13.5t-62 -44t-41.5 -80.5t-15 -123v-20q0 -77 16.5 -129
t45 -83.5t65.5 -45t78 -13.5q72 0 114.5 37t51.5 97h94q-8 -58 -31.5 -99t-58.5 -67.5t-81 -39t-99 -12.5zM325 -210q-12 0 -23 0.5t-19 1.5q-10 1 -18 3v58q8 -2 17 -3q8 -1 16.5 -1.5t16.5 -0.5q32 0 44 9.5t12 25.5q0 14 -13 23t-53 9l20 95h60l-11 -52q41 -8 56 -29.5
t15 -46.5q0 -41 -29 -66.5t-91 -25.5z" />
    <glyph glyph-name="Egrave" unicode="&#xc8;" horiz-adv-x="610" 
d="M100 700h450v-82h-356v-217h324v-82h-324v-237h356v-82h-450v700zM145 900h104l116 -150h-80z" />
    <glyph glyph-name="Eacute" unicode="&#xc9;" horiz-adv-x="610" 
d="M100 700h450v-82h-356v-217h324v-82h-324v-237h356v-82h-450v700zM404 900h102l-142 -150h-78z" />
    <glyph glyph-name="Ecircumflex" unicode="&#xca;" horiz-adv-x="610" 
d="M100 700h450v-82h-356v-217h324v-82h-324v-237h356v-82h-450v700zM287 900h76l117 -150h-80l-75 85l-77 -85h-78z" />
    <glyph glyph-name="Edieresis" unicode="&#xcb;" horiz-adv-x="610" 
d="M100 700h450v-82h-356v-217h324v-82h-324v-237h356v-82h-450v700zM215 765q-25 0 -42.5 17.5t-17.5 42.5t17.5 42.5t42.5 17.5t42.5 -17.5t17.5 -42.5t-17.5 -42.5t-42.5 -17.5zM435 765q-25 0 -42.5 17.5t-17.5 42.5t17.5 42.5t42.5 17.5t42.5 -17.5t17.5 -42.5
t-17.5 -42.5t-42.5 -17.5z" />
    <glyph glyph-name="Igrave" unicode="&#xcc;" horiz-adv-x="304" 
d="M105 700h94v-700h-94v700zM-27 900h104l116 -150h-80z" />
    <glyph glyph-name="Iacute" unicode="&#xcd;" horiz-adv-x="304" 
d="M105 700h94v-700h-94v700zM231 900h102l-142 -150h-78z" />
    <glyph glyph-name="Icircumflex" unicode="&#xce;" horiz-adv-x="304" 
d="M105 700h94v-700h-94v700zM115 900h76l117 -150h-80l-75 85l-77 -85h-78z" />
    <glyph glyph-name="Idieresis" unicode="&#xcf;" horiz-adv-x="304" 
d="M105 700h94v-700h-94v700zM43 765q-25 0 -42.5 17.5t-17.5 42.5t17.5 42.5t42.5 17.5t42.5 -17.5t17.5 -42.5t-17.5 -42.5t-42.5 -17.5zM263 765q-25 0 -42.5 17.5t-17.5 42.5t17.5 42.5t42.5 17.5t42.5 -17.5t17.5 -42.5t-17.5 -42.5t-42.5 -17.5z" />
    <glyph glyph-name="Eth" unicode="&#xd0;" horiz-adv-x="695" 
d="M10 396h90v304h232q71 0 127.5 -19t95.5 -59.5t59.5 -104t20.5 -152.5v-20q0 -93 -23 -158.5t-64.5 -107t-100.5 -60.5t-131 -19h-216v324h-90v72zM314 82q47 0 87.5 13t70 43.5t46.5 81t17 125.5v20q0 71 -14.5 119.5t-41.5 78t-64.5 42.5t-82.5 13h-138v-222h171v-72
h-171v-242h120z" />
    <glyph glyph-name="Ntilde" unicode="&#xd1;" horiz-adv-x="750" 
d="M100 700h92l366 -545v545h92v-700h-92l-366 545v-545h-92v700zM435 765q-26 0 -42.5 8t-29.5 17t-24.5 17t-28.5 8q-14 0 -23.5 -6.5t-16.5 -14.5q-8 -10 -13 -21l-52 27q9 24 25 42q13 16 34 29.5t51 13.5q24 0 40.5 -8t29.5 -17t25.5 -17t29.5 -8q13 0 23 6.5t17 14.5
q8 9 13 21l52 -27q-10 -25 -25 -43q-14 -16 -34.5 -29t-50.5 -13z" />
    <glyph glyph-name="Ograve" unicode="&#xd2;" horiz-adv-x="740" 
d="M370 710q62 0 118.5 -19.5t99 -61.5t67.5 -107.5t25 -156.5v-20q0 -95 -25 -162t-67.5 -110t-99 -63t-118.5 -20t-118.5 20t-99 63t-67.5 110t-25 162v20q0 91 25 156.5t67.5 107.5t99 61.5t118.5 19.5zM370 626q-41 0 -78.5 -13.5t-67 -44t-47 -80.5t-17.5 -123v-20
q0 -77 18 -129t47.5 -83.5t67.5 -45t77 -13.5q42 0 80.5 13.5t67 45t45.5 83.5t17 129v20q0 73 -17.5 123t-46.5 80.5t-67 44t-79 13.5zM190 900h104l116 -150h-80z" />
    <glyph glyph-name="Oacute" unicode="&#xd3;" horiz-adv-x="740" 
d="M370 710q62 0 118.5 -19.5t99 -61.5t67.5 -107.5t25 -156.5v-20q0 -95 -25 -162t-67.5 -110t-99 -63t-118.5 -20t-118.5 20t-99 63t-67.5 110t-25 162v20q0 91 25 156.5t67.5 107.5t99 61.5t118.5 19.5zM370 626q-41 0 -78.5 -13.5t-67 -44t-47 -80.5t-17.5 -123v-20
q0 -77 18 -129t47.5 -83.5t67.5 -45t77 -13.5q42 0 80.5 13.5t67 45t45.5 83.5t17 129v20q0 73 -17.5 123t-46.5 80.5t-67 44t-79 13.5zM449 900h102l-142 -150h-78z" />
    <glyph glyph-name="Ocircumflex" unicode="&#xd4;" horiz-adv-x="740" 
d="M370 710q62 0 118.5 -19.5t99 -61.5t67.5 -107.5t25 -156.5v-20q0 -95 -25 -162t-67.5 -110t-99 -63t-118.5 -20t-118.5 20t-99 63t-67.5 110t-25 162v20q0 91 25 156.5t67.5 107.5t99 61.5t118.5 19.5zM370 626q-41 0 -78.5 -13.5t-67 -44t-47 -80.5t-17.5 -123v-20
q0 -77 18 -129t47.5 -83.5t67.5 -45t77 -13.5q42 0 80.5 13.5t67 45t45.5 83.5t17 129v20q0 73 -17.5 123t-46.5 80.5t-67 44t-79 13.5zM332 900h76l117 -150h-80l-75 85l-77 -85h-78z" />
    <glyph glyph-name="Otilde" unicode="&#xd5;" horiz-adv-x="740" 
d="M370 710q62 0 118.5 -19.5t99 -61.5t67.5 -107.5t25 -156.5v-20q0 -95 -25 -162t-67.5 -110t-99 -63t-118.5 -20t-118.5 20t-99 63t-67.5 110t-25 162v20q0 91 25 156.5t67.5 107.5t99 61.5t118.5 19.5zM370 626q-41 0 -78.5 -13.5t-67 -44t-47 -80.5t-17.5 -123v-20
q0 -77 18 -129t47.5 -83.5t67.5 -45t77 -13.5q42 0 80.5 13.5t67 45t45.5 83.5t17 129v20q0 73 -17.5 123t-46.5 80.5t-67 44t-79 13.5zM430 765q-26 0 -42.5 8t-29.5 17t-24.5 17t-28.5 8q-14 0 -23.5 -6.5t-16.5 -14.5q-8 -10 -13 -21l-52 27q9 24 25 42q13 16 34 29.5
t51 13.5q24 0 40.5 -8t29.5 -17t25.5 -17t29.5 -8q13 0 23 6.5t17 14.5q8 9 13 21l52 -27q-10 -25 -25 -43q-14 -16 -34.5 -29t-50.5 -13z" />
    <glyph glyph-name="Odieresis" unicode="&#xd6;" horiz-adv-x="740" 
d="M370 710q62 0 118.5 -19.5t99 -61.5t67.5 -107.5t25 -156.5v-20q0 -95 -25 -162t-67.5 -110t-99 -63t-118.5 -20t-118.5 20t-99 63t-67.5 110t-25 162v20q0 91 25 156.5t67.5 107.5t99 61.5t118.5 19.5zM370 626q-41 0 -78.5 -13.5t-67 -44t-47 -80.5t-17.5 -123v-20
q0 -77 18 -129t47.5 -83.5t67.5 -45t77 -13.5q42 0 80.5 13.5t67 45t45.5 83.5t17 129v20q0 73 -17.5 123t-46.5 80.5t-67 44t-79 13.5zM260 765q-25 0 -42.5 17.5t-17.5 42.5t17.5 42.5t42.5 17.5t42.5 -17.5t17.5 -42.5t-17.5 -42.5t-42.5 -17.5zM480 765
q-25 0 -42.5 17.5t-17.5 42.5t17.5 42.5t42.5 17.5t42.5 -17.5t17.5 -42.5t-17.5 -42.5t-42.5 -17.5z" />
    <glyph glyph-name="multiply" unicode="&#xd7;" 
d="M75 219l141 141l-141 141l59 59l141 -141l141 141l59 -59l-141 -141l141 -141l-59 -59l-141 141l-141 -141z" />
    <glyph glyph-name="Oslash" unicode="&#xd8;" horiz-adv-x="740" 
d="M370 710q51 0 97.5 -13t85.5 -40l61 83l55 -40l-66 -89q35 -42 56 -103t21 -143v-20q0 -95 -25 -162t-67.5 -110t-99 -63t-118.5 -20q-51 0 -97.5 13t-85.5 40l-61 -83l-55 40l66 90q-36 43 -56.5 106t-20.5 149v20q0 91 25 156.5t67.5 107.5t99 61.5t118.5 19.5z
M580 365q0 54 -9.5 94.5t-26.5 70.5l-303 -413q28 -23 61 -33t68 -10q42 0 80.5 13.5t67 45t45.5 83.5t17 129v20zM370 626q-41 0 -78.5 -13.5t-67 -44t-47 -80.5t-17.5 -123v-20q0 -57 10 -99.5t27 -73.5l302 412q-27 22 -60.5 32t-68.5 10z" />
    <glyph glyph-name="Ugrave" unicode="&#xd9;" horiz-adv-x="710" 
d="M355 -10q-59 0 -107.5 18t-83.5 54t-54.5 90.5t-19.5 127.5v420h94v-420q0 -107 47 -157t124 -50t124 50t47 157v420h94v-420q0 -73 -19.5 -127.5t-54.5 -90.5t-83.5 -54t-107.5 -18zM175 900h104l116 -150h-80z" />
    <glyph glyph-name="Uacute" unicode="&#xda;" horiz-adv-x="710" 
d="M355 -10q-59 0 -107.5 18t-83.5 54t-54.5 90.5t-19.5 127.5v420h94v-420q0 -107 47 -157t124 -50t124 50t47 157v420h94v-420q0 -73 -19.5 -127.5t-54.5 -90.5t-83.5 -54t-107.5 -18zM434 900h102l-142 -150h-78z" />
    <glyph glyph-name="Ucircumflex" unicode="&#xdb;" horiz-adv-x="710" 
d="M355 -10q-59 0 -107.5 18t-83.5 54t-54.5 90.5t-19.5 127.5v420h94v-420q0 -107 47 -157t124 -50t124 50t47 157v420h94v-420q0 -73 -19.5 -127.5t-54.5 -90.5t-83.5 -54t-107.5 -18zM317 900h76l117 -150h-80l-75 85l-77 -85h-78z" />
    <glyph glyph-name="Udieresis" unicode="&#xdc;" horiz-adv-x="710" 
d="M355 -10q-59 0 -107.5 18t-83.5 54t-54.5 90.5t-19.5 127.5v420h94v-420q0 -107 47 -157t124 -50t124 50t47 157v420h94v-420q0 -73 -19.5 -127.5t-54.5 -90.5t-83.5 -54t-107.5 -18zM245 765q-25 0 -42.5 17.5t-17.5 42.5t17.5 42.5t42.5 17.5t42.5 -17.5t17.5 -42.5
t-17.5 -42.5t-42.5 -17.5zM465 765q-25 0 -42.5 17.5t-17.5 42.5t17.5 42.5t42.5 17.5t42.5 -17.5t17.5 -42.5t-17.5 -42.5t-42.5 -17.5z" />
    <glyph glyph-name="Yacute" unicode="&#xdd;" horiz-adv-x="630" 
d="M278 277l-268 423h108l206 -326l192 326h104l-248 -423v-277h-94v277zM396 900h102l-142 -150h-78z" />
    <glyph glyph-name="Thorn" unicode="&#xde;" horiz-adv-x="660" 
d="M100 700h94v-116h161q126 0 190.5 -60.5t64.5 -162.5q0 -103 -64 -163t-191 -60h-161v-138h-94v700zM350 220q83 0 121.5 36t38.5 105t-38.5 105t-121.5 36h-156v-282h156z" />
    <glyph glyph-name="germandbls" unicode="&#xdf;" horiz-adv-x="575" 
d="M75 490q0 103 58.5 161.5t161.5 58.5q49 0 88 -14t66 -39.5t41.5 -60.5t14.5 -76q0 -48 -24.5 -86t-71.5 -60q59 -20 87.5 -61.5t28.5 -100.5v-20q0 -92 -53 -142t-162 -50h-60v76h60q63 0 95 31t32 85v20q0 57 -32 88.5t-95 31.5h-60v76h50q57 0 87 29t30 83
q0 50 -32.5 81t-89.5 31q-61 0 -96.5 -36.5t-35.5 -105.5v-490h-88v490z" />
    <glyph glyph-name="agrave" unicode="&#xe0;" horiz-adv-x="575" 
d="M231 -10q-85 0 -133 45.5t-48 119.5q0 79 47.5 114t132.5 35h176v36q0 68 -29.5 95t-86.5 27q-64 0 -92.5 -20t-31.5 -47h-86q3 31 19 58t43 46t64.5 30t83.5 11q47 0 85 -11.5t64.5 -35t40.5 -60.5t14 -88v-210q0 -41 0.5 -71t5.5 -64h-78q-5 28 -5 45.5v42.5
q-10 -19 -27.5 -36.5t-41.5 -31t-53.5 -22t-63.5 -8.5zM247 66q31 0 59.5 9.5t50.5 27t35.5 42.5t13.5 57v35h-161q-49 0 -75 -20t-26 -62q0 -35 24.5 -62t78.5 -27zM116 740h102l108 -160h-78z" />
    <glyph glyph-name="aacute" unicode="&#xe1;" horiz-adv-x="575" 
d="M231 -10q-85 0 -133 45.5t-48 119.5q0 79 47.5 114t132.5 35h176v36q0 68 -29.5 95t-86.5 27q-64 0 -92.5 -20t-31.5 -47h-86q3 31 19 58t43 46t64.5 30t83.5 11q47 0 85 -11.5t64.5 -35t40.5 -60.5t14 -88v-210q0 -41 0.5 -71t5.5 -64h-78q-5 28 -5 45.5v42.5
q-10 -19 -27.5 -36.5t-41.5 -31t-53.5 -22t-63.5 -8.5zM247 66q31 0 59.5 9.5t50.5 27t35.5 42.5t13.5 57v35h-161q-49 0 -75 -20t-26 -62q0 -35 24.5 -62t78.5 -27zM359 740h100l-134 -160h-76z" />
    <glyph glyph-name="acircumflex" unicode="&#xe2;" horiz-adv-x="575" 
d="M231 -10q-85 0 -133 45.5t-48 119.5q0 79 47.5 114t132.5 35h176v36q0 68 -29.5 95t-86.5 27q-64 0 -92.5 -20t-31.5 -47h-86q3 31 19 58t43 46t64.5 30t83.5 11q47 0 85 -11.5t64.5 -35t40.5 -60.5t14 -88v-210q0 -41 0.5 -71t5.5 -64h-78q-5 28 -5 45.5v42.5
q-10 -19 -27.5 -36.5t-41.5 -31t-53.5 -22t-63.5 -8.5zM247 66q31 0 59.5 9.5t50.5 27t35.5 42.5t13.5 57v35h-161q-49 0 -75 -20t-26 -62q0 -35 24.5 -62t78.5 -27zM250 740h74l108 -160h-78l-67 85l-69 -85h-76z" />
    <glyph glyph-name="atilde" unicode="&#xe3;" horiz-adv-x="575" 
d="M231 -10q-85 0 -133 45.5t-48 119.5q0 79 47.5 114t132.5 35h176v36q0 68 -29.5 95t-86.5 27q-64 0 -92.5 -20t-31.5 -47h-86q3 31 19 58t43 46t64.5 30t83.5 11q47 0 85 -11.5t64.5 -35t40.5 -60.5t14 -88v-210q0 -41 0.5 -71t5.5 -64h-78q-5 28 -5 45.5v42.5
q-10 -19 -27.5 -36.5t-41.5 -31t-53.5 -22t-63.5 -8.5zM247 66q31 0 59.5 9.5t50.5 27t35.5 42.5t13.5 57v35h-161q-49 0 -75 -20t-26 -62q0 -35 24.5 -62t78.5 -27zM342 605q-24 0 -39.5 7t-27.5 15l-22.5 15t-25.5 7q-14 0 -23 -6t-15 -14q-7 -9 -12 -19l-50 25
q9 22 24 40q13 15 32.5 27.5t48.5 12.5q22 0 37.5 -7t27.5 -15t23.5 -15t26.5 -7q13 0 22.5 5.5t15.5 13.5q7 9 12 20l50 -25q-9 -22 -24 -40q-13 -15 -33 -27.5t-48 -12.5z" />
    <glyph glyph-name="adieresis" unicode="&#xe4;" horiz-adv-x="575" 
d="M231 -10q-85 0 -133 45.5t-48 119.5q0 79 47.5 114t132.5 35h176v36q0 68 -29.5 95t-86.5 27q-64 0 -92.5 -20t-31.5 -47h-86q3 31 19 58t43 46t64.5 30t83.5 11q47 0 85 -11.5t64.5 -35t40.5 -60.5t14 -88v-210q0 -41 0.5 -71t5.5 -64h-78q-5 28 -5 45.5v42.5
q-10 -19 -27.5 -36.5t-41.5 -31t-53.5 -22t-63.5 -8.5zM247 66q31 0 59.5 9.5t50.5 27t35.5 42.5t13.5 57v35h-161q-49 0 -75 -20t-26 -62q0 -35 24.5 -62t78.5 -27zM185 602q-24 0 -41 17t-17 41t17 41t41 17t41 -17t17 -41t-17 -41t-41 -17zM389 602q-24 0 -41 17t-17 41
t17 41t41 17t41 -17t17 -41t-17 -41t-41 -17z" />
    <glyph glyph-name="aring" unicode="&#xe5;" horiz-adv-x="575" 
d="M231 -10q-85 0 -133 45.5t-48 119.5q0 79 47.5 114t132.5 35h176v36q0 68 -29.5 95t-86.5 27q-64 0 -92.5 -20t-31.5 -47h-86q3 31 19 58t43 46t64.5 30t83.5 11q47 0 85 -11.5t64.5 -35t40.5 -60.5t14 -88v-210q0 -41 0.5 -71t5.5 -64h-78q-5 28 -5 45.5v42.5
q-10 -19 -27.5 -36.5t-41.5 -31t-53.5 -22t-63.5 -8.5zM247 66q31 0 59.5 9.5t50.5 27t35.5 42.5t13.5 57v35h-161q-49 0 -75 -20t-26 -62q0 -35 24.5 -62t78.5 -27zM287 570q-54 0 -87 31.5t-33 78.5t33 78.5t87 31.5t87 -31.5t33 -78.5t-33 -78.5t-87 -31.5zM287 630
q23 0 37 14t14 36t-14 36t-37 14t-37 -14t-14 -36t14 -36t37 -14z" />
    <glyph glyph-name="ae" unicode="&#xe6;" horiz-adv-x="930" 
d="M655 -10q-64 0 -117.5 28t-85.5 85q-29 -49 -83.5 -81t-127.5 -32q-42 0 -77.5 12t-60.5 33.5t-39 52t-14 67.5q0 82 47.5 118.5t131.5 36.5h178v30q0 68 -31 95t-96 27q-57 0 -84 -20t-30 -47h-86q3 31 18.5 58t42 46t62 30t77.5 11q66 0 111 -24.5t68 -70.5
q30 47 79 71t112 24q110 0 172.5 -62.5t62.5 -172.5v-65h-392q0 -46 15 -78.5t38 -53.5t51.5 -30.5t57.5 -9.5q63 0 98 20.5t43 56.5h79q-8 -38 -28.5 -67t-49.5 -48.5t-65.5 -29.5t-76.5 -10zM257 66q27 0 54 9.5t48.5 27t34.5 42.5t13 57v38h-161q-50 0 -76 -20.5
t-26 -64.5q0 -18 6.5 -34t20 -28t35 -19.5t51.5 -7.5zM650 462q-29 0 -57 -8.5t-50 -26.5t-36 -47t-14 -70h309q-1 41 -13.5 70t-33 47t-48 26.5t-57.5 8.5z" />
    <glyph glyph-name="ccedilla" unicode="&#xe7;" horiz-adv-x="545" 
d="M285 -10q-51 0 -95 16.5t-76 50t-50.5 84t-18.5 118.5v22q0 64 20 112.5t53 81t76.5 49t90.5 16.5t85 -13t66 -36t45.5 -54t23.5 -67h-84q-6 19 -16 35.5t-26 29t-39.5 20t-54.5 7.5q-29 0 -56.5 -10.5t-48.5 -32.5t-34 -56.5t-13 -82.5v-21q0 -52 13 -88t34 -59
t48.5 -33.5t56.5 -10.5q52 0 87 25t49 67h84q-8 -39 -27.5 -70.5t-48.5 -53.5t-66 -34t-78 -12zM255 -210q-12 0 -22 0.5t-18 1.5q-9 1 -15 3v58q7 -2 15 -3q7 -1 14.5 -1.5t15.5 -0.5q28 0 39.5 9.5t11.5 25.5q0 14 -12.5 23t-48.5 9l20 95h60l-11 -52q37 -8 51.5 -29.5
t14.5 -46.5q0 -41 -28.5 -66.5t-86.5 -25.5z" />
    <glyph glyph-name="egrave" unicode="&#xe8;" horiz-adv-x="570" 
d="M295 -10q-49 0 -94 16.5t-79.5 50t-55.5 84.5t-21 119v20q0 66 20 115t53.5 81.5t78 48t93.5 15.5q110 0 172.5 -62.5t62.5 -172.5v-66h-392q0 -46 15 -78.5t38 -53t52 -30t57 -9.5q63 0 98 20.5t43 56.5h79q-8 -38 -28.5 -67t-49.5 -48.5t-65.5 -29.5t-76.5 -10z
M290 462q-29 0 -57 -8.5t-50 -26.5t-36 -47t-14 -69h309q-1 40 -13.5 69t-33 47t-48 26.5t-57.5 8.5zM114 740h102l108 -160h-78z" />
    <glyph glyph-name="eacute" unicode="&#xe9;" horiz-adv-x="570" 
d="M295 -10q-49 0 -94 16.5t-79.5 50t-55.5 84.5t-21 119v20q0 66 20 115t53.5 81.5t78 48t93.5 15.5q110 0 172.5 -62.5t62.5 -172.5v-66h-392q0 -46 15 -78.5t38 -53t52 -30t57 -9.5q63 0 98 20.5t43 56.5h79q-8 -38 -28.5 -67t-49.5 -48.5t-65.5 -29.5t-76.5 -10z
M290 462q-29 0 -57 -8.5t-50 -26.5t-36 -47t-14 -69h309q-1 40 -13.5 69t-33 47t-48 26.5t-57.5 8.5zM357 740h100l-134 -160h-76z" />
    <glyph glyph-name="ecircumflex" unicode="&#xea;" horiz-adv-x="570" 
d="M295 -10q-49 0 -94 16.5t-79.5 50t-55.5 84.5t-21 119v20q0 66 20 115t53.5 81.5t78 48t93.5 15.5q110 0 172.5 -62.5t62.5 -172.5v-66h-392q0 -46 15 -78.5t38 -53t52 -30t57 -9.5q63 0 98 20.5t43 56.5h79q-8 -38 -28.5 -67t-49.5 -48.5t-65.5 -29.5t-76.5 -10z
M290 462q-29 0 -57 -8.5t-50 -26.5t-36 -47t-14 -69h309q-1 40 -13.5 69t-33 47t-48 26.5t-57.5 8.5zM248 740h74l108 -160h-78l-67 85l-69 -85h-76z" />
    <glyph glyph-name="edieresis" unicode="&#xeb;" horiz-adv-x="570" 
d="M295 -10q-49 0 -94 16.5t-79.5 50t-55.5 84.5t-21 119v20q0 66 20 115t53.5 81.5t78 48t93.5 15.5q110 0 172.5 -62.5t62.5 -172.5v-66h-392q0 -46 15 -78.5t38 -53t52 -30t57 -9.5q63 0 98 20.5t43 56.5h79q-8 -38 -28.5 -67t-49.5 -48.5t-65.5 -29.5t-76.5 -10z
M290 462q-29 0 -57 -8.5t-50 -26.5t-36 -47t-14 -69h309q-1 40 -13.5 69t-33 47t-48 26.5t-57.5 8.5zM183 602q-24 0 -41 17t-17 41t17 41t41 17t41 -17t17 -41t-17 -41t-41 -17zM387 602q-24 0 -41 17t-17 41t17 41t41 17t41 -17t17 -41t-17 -41t-41 -17z" />
    <glyph glyph-name="igrave" unicode="&#xec;" horiz-adv-x="278" 
d="M95 530h88v-530h-88v530zM-31 740h102l108 -160h-78z" />
    <glyph glyph-name="iacute" unicode="&#xed;" horiz-adv-x="278" 
d="M95 530h88v-530h-88v530zM211 740h100l-134 -160h-76z" />
    <glyph glyph-name="icircumflex" unicode="&#xee;" horiz-adv-x="278" 
d="M95 530h88v-530h-88v530zM103 740h74l108 -160h-78l-67 85l-69 -85h-76z" />
    <glyph glyph-name="idieresis" unicode="&#xef;" horiz-adv-x="278" 
d="M95 530h88v-530h-88v530zM38 602q-24 0 -41 17t-17 41t17 41t41 17t41 -17t17 -41t-17 -41t-41 -17zM242 602q-24 0 -41 17t-17 41t17 41t41 17t41 -17t17 -41t-17 -41t-41 -17z" />
    <glyph glyph-name="eth" unicode="&#xf0;" horiz-adv-x="565" 
d="M160 582l77 39q-23 20 -47.5 39.5t-49.5 39.5h113l52 -44l104 54v-62l-60 -31q34 -33 65 -71t54.5 -82t37.5 -95t14 -109v-20q0 -58 -17.5 -104t-49 -78.5t-75.5 -50t-98 -17.5q-55 0 -99 17t-75.5 49.5t-48.5 78.5t-17 105v20q0 58 17 104t47 78.5t71.5 50t89.5 17.5
q56 0 100 -21q-18 24 -39.5 47t-45.5 46l-120 -62v62zM280 68q70 0 111 43.5t41 128.5v28q-2 81 -43 122.5t-109 41.5q-70 0 -111 -43.5t-41 -128.5v-20q0 -84 41.5 -128t110.5 -44z" />
    <glyph glyph-name="ntilde" unicode="&#xf1;" horiz-adv-x="610" 
d="M80 530h80v-100q19 45 64 77.5t117 32.5q97 0 145.5 -55t48.5 -170v-315h-88v310q0 75 -30.5 113.5t-101.5 38.5q-39 0 -66.5 -13t-45.5 -34t-26.5 -48.5t-8.5 -56.5v-310h-88v530zM362 605q-24 0 -39.5 7t-27.5 15l-22.5 15t-25.5 7q-14 0 -23 -6t-15 -14q-7 -9 -12 -19
l-50 25q9 22 24 40q13 15 32.5 27.5t48.5 12.5q22 0 37.5 -7t27.5 -15t23.5 -15t26.5 -7q13 0 22.5 5.5t15.5 13.5q7 9 12 20l50 -25q-9 -22 -24 -40q-13 -15 -33 -27.5t-48 -12.5z" />
    <glyph glyph-name="ograve" unicode="&#xf2;" horiz-adv-x="600" 
d="M300 -10q-51 0 -97 16.5t-81 50t-56 84.5t-21 119v20q0 64 21 113t56 81.5t81 49t97 16.5t97 -16.5t81 -49t56 -81.5t21 -113v-20q0 -68 -21 -119t-56 -84.5t-81 -50t-97 -16.5zM300 68q31 0 61 10.5t53.5 33.5t38 59.5t14.5 88.5v20q0 48 -14.5 82.5t-38 56.5
t-53.5 32.5t-61 10.5t-61 -10.5t-53.5 -32.5t-38 -56.5t-14.5 -82.5v-20q0 -52 14.5 -88.5t38 -59.5t53.5 -33.5t61 -10.5zM129 740h102l108 -160h-78z" />
    <glyph glyph-name="oacute" unicode="&#xf3;" horiz-adv-x="600" 
d="M300 -10q-51 0 -97 16.5t-81 50t-56 84.5t-21 119v20q0 64 21 113t56 81.5t81 49t97 16.5t97 -16.5t81 -49t56 -81.5t21 -113v-20q0 -68 -21 -119t-56 -84.5t-81 -50t-97 -16.5zM300 68q31 0 61 10.5t53.5 33.5t38 59.5t14.5 88.5v20q0 48 -14.5 82.5t-38 56.5
t-53.5 32.5t-61 10.5t-61 -10.5t-53.5 -32.5t-38 -56.5t-14.5 -82.5v-20q0 -52 14.5 -88.5t38 -59.5t53.5 -33.5t61 -10.5zM372 740h100l-134 -160h-76z" />
    <glyph glyph-name="ocircumflex" unicode="&#xf4;" horiz-adv-x="600" 
d="M300 -10q-51 0 -97 16.5t-81 50t-56 84.5t-21 119v20q0 64 21 113t56 81.5t81 49t97 16.5t97 -16.5t81 -49t56 -81.5t21 -113v-20q0 -68 -21 -119t-56 -84.5t-81 -50t-97 -16.5zM300 68q31 0 61 10.5t53.5 33.5t38 59.5t14.5 88.5v20q0 48 -14.5 82.5t-38 56.5
t-53.5 32.5t-61 10.5t-61 -10.5t-53.5 -32.5t-38 -56.5t-14.5 -82.5v-20q0 -52 14.5 -88.5t38 -59.5t53.5 -33.5t61 -10.5zM263 740h74l108 -160h-78l-67 85l-69 -85h-76z" />
    <glyph glyph-name="otilde" unicode="&#xf5;" horiz-adv-x="600" 
d="M300 -10q-51 0 -97 16.5t-81 50t-56 84.5t-21 119v20q0 64 21 113t56 81.5t81 49t97 16.5t97 -16.5t81 -49t56 -81.5t21 -113v-20q0 -68 -21 -119t-56 -84.5t-81 -50t-97 -16.5zM300 68q31 0 61 10.5t53.5 33.5t38 59.5t14.5 88.5v20q0 48 -14.5 82.5t-38 56.5
t-53.5 32.5t-61 10.5t-61 -10.5t-53.5 -32.5t-38 -56.5t-14.5 -82.5v-20q0 -52 14.5 -88.5t38 -59.5t53.5 -33.5t61 -10.5zM355 605q-24 0 -39.5 7t-27.5 15l-22.5 15t-25.5 7q-14 0 -23 -6t-15 -14q-7 -9 -12 -19l-50 25q9 22 24 40q13 15 32.5 27.5t48.5 12.5
q22 0 37.5 -7t27.5 -15t23.5 -15t26.5 -7q13 0 22.5 5.5t15.5 13.5q7 9 12 20l50 -25q-9 -22 -24 -40q-13 -15 -33 -27.5t-48 -12.5z" />
    <glyph glyph-name="odieresis" unicode="&#xf6;" horiz-adv-x="600" 
d="M300 -10q-51 0 -97 16.5t-81 50t-56 84.5t-21 119v20q0 64 21 113t56 81.5t81 49t97 16.5t97 -16.5t81 -49t56 -81.5t21 -113v-20q0 -68 -21 -119t-56 -84.5t-81 -50t-97 -16.5zM300 68q31 0 61 10.5t53.5 33.5t38 59.5t14.5 88.5v20q0 48 -14.5 82.5t-38 56.5
t-53.5 32.5t-61 10.5t-61 -10.5t-53.5 -32.5t-38 -56.5t-14.5 -82.5v-20q0 -52 14.5 -88.5t38 -59.5t53.5 -33.5t61 -10.5zM198 602q-24 0 -41 17t-17 41t17 41t41 17t41 -17t17 -41t-17 -41t-41 -17zM402 602q-24 0 -41 17t-17 41t17 41t41 17t41 -17t17 -41t-17 -41
t-41 -17z" />
    <glyph glyph-name="divide" unicode="&#xf7;" 
d="M50 401h450v-82h-450v82zM275 125q-29 0 -49.5 20.5t-20.5 49.5q0 30 20.5 50t49.5 20t49.5 -20t20.5 -50q0 -29 -20.5 -49.5t-49.5 -20.5zM275 455q-29 0 -49.5 20.5t-20.5 49.5q0 30 20.5 50t49.5 20t49.5 -20t20.5 -50q0 -29 -20.5 -49.5t-49.5 -20.5z" />
    <glyph glyph-name="oslash" unicode="&#xf8;" horiz-adv-x="600" 
d="M55 0l54 70q-30 34 -47 81t-17 109v20q0 64 21 113t56 81.5t81 49t97 16.5q79 0 141 -38l52 68l52 -40l-54 -69q29 -32 46.5 -77.5t17.5 -103.5v-20q0 -68 -21 -119t-56 -84.5t-81 -50t-97 -16.5q-38 0 -74 9t-67 29l-52 -68zM300 68q31 0 61 10.5t53.5 33.5t38 59.5
t14.5 88.5v20q0 35 -7.5 62.5t-21.5 48.5l-229 -298q20 -13 43.5 -19t47.5 -6zM133 260q0 -38 7.5 -67.5t21.5 -52.5l229 297q-21 13 -44.5 19t-46.5 6q-31 0 -61 -10.5t-53.5 -32.5t-38 -56.5t-14.5 -82.5v-20z" />
    <glyph glyph-name="ugrave" unicode="&#xf9;" horiz-adv-x="595" 
d="M275 -10q-100 0 -150 51.5t-50 158.5v330h88v-325q0 -72 34.5 -104.5t95.5 -32.5q66 0 100 38.5t34 103.5v320h88v-530h-80v90q-9 -21 -25 -39.5t-37 -32t-46 -21t-52 -7.5zM124 740h102l108 -160h-78z" />
    <glyph glyph-name="uacute" unicode="&#xfa;" horiz-adv-x="595" 
d="M275 -10q-100 0 -150 51.5t-50 158.5v330h88v-325q0 -72 34.5 -104.5t95.5 -32.5q66 0 100 38.5t34 103.5v320h88v-530h-80v90q-9 -21 -25 -39.5t-37 -32t-46 -21t-52 -7.5zM367 740h100l-134 -160h-76z" />
    <glyph glyph-name="ucircumflex" unicode="&#xfb;" horiz-adv-x="595" 
d="M275 -10q-100 0 -150 51.5t-50 158.5v330h88v-325q0 -72 34.5 -104.5t95.5 -32.5q66 0 100 38.5t34 103.5v320h88v-530h-80v90q-9 -21 -25 -39.5t-37 -32t-46 -21t-52 -7.5zM258 740h74l108 -160h-78l-67 85l-69 -85h-76z" />
    <glyph glyph-name="udieresis" unicode="&#xfc;" horiz-adv-x="595" 
d="M275 -10q-100 0 -150 51.5t-50 158.5v330h88v-325q0 -72 34.5 -104.5t95.5 -32.5q66 0 100 38.5t34 103.5v320h88v-530h-80v90q-9 -21 -25 -39.5t-37 -32t-46 -21t-52 -7.5zM193 602q-24 0 -41 17t-17 41t17 41t41 17t41 -17t17 -41t-17 -41t-41 -17zM397 602
q-24 0 -41 17t-17 41t17 41t41 17t41 -17t17 -41t-17 -41t-41 -17z" />
    <glyph glyph-name="yacute" unicode="&#xfd;" horiz-adv-x="560" 
d="M110 -122q28 0 48 5t35 18t27.5 34.5t24.5 54.5l-225 540h98l172 -440l156 440h94l-205 -540q-21 -56 -41.5 -92.5t-46 -58t-58.5 -30.5t-79 -9v78zM354 740h100l-134 -160h-76z" />
    <glyph glyph-name="thorn" unicode="&#xfe;" horiz-adv-x="615" 
d="M80 700h88v-260q24 45 68.5 72.5t108.5 27.5q103 0 164 -65.5t61 -194.5v-21q0 -135 -63 -202t-172 -67q-57 0 -102.5 27.5t-64.5 72.5v-290h-88v900zM330 68q32 0 59.5 12.5t48 36.5t32.5 60t12 83v20q0 90 -42.5 136t-109.5 46q-36 0 -66 -11.5t-51 -32t-33 -48.5
t-12 -60v-80q0 -36 12 -66t33 -51t51 -33t66 -12z" />
    <glyph glyph-name="ydieresis" unicode="&#xff;" horiz-adv-x="560" 
d="M110 -122q28 0 48 5t35 18t27.5 34.5t24.5 54.5l-225 540h98l172 -440l156 440h94l-205 -540q-21 -56 -41.5 -92.5t-46 -58t-58.5 -30.5t-79 -9v78zM180 602q-24 0 -41 17t-17 41t17 41t41 17t41 -17t17 -41t-17 -41t-41 -17zM384 602q-24 0 -41 17t-17 41t17 41t41 17
t41 -17t17 -41t-17 -41t-41 -17z" />
    <glyph glyph-name="dotlessi" unicode="&#x131;" horiz-adv-x="278" 
d="M95 530h88v-530h-88v530z" />
    <glyph glyph-name="Lslash" unicode="&#x141;" horiz-adv-x="568" 
d="M10 310l90 47v343h94v-294l196 102v-82l-196 -102v-242h356v-82h-450v275l-90 -47v82z" />
    <glyph glyph-name="lslash" unicode="&#x142;" horiz-adv-x="319" 
d="M-5 351l90 48v301h88v-254l117 62v-76l-117 -62v-205q0 -52 17 -70.5t60 -18.5h50v-76h-54q-87 0 -124 37.5t-37 127.5v158l-90 -48v76z" />
    <glyph glyph-name="OE" unicode="&#x152;" horiz-adv-x="1090" 
d="M580 78q-37 -47 -90 -67.5t-120 -20.5q-70 0 -127 23t-97.5 68t-63 111t-22.5 153v20q0 83 22.5 147t63 108t97.5 67t127 23q67 0 120 -21t90 -66v77h450v-82h-356v-217h324v-82h-324v-237h356v-82h-450v78zM370 626q-47 0 -85.5 -16t-66.5 -48.5t-43 -81.5t-15 -115v-20
q0 -69 15.5 -120t43.5 -84.5t66.5 -50t84.5 -16.5q45 0 82.5 14.5t65 45.5t44 79.5t18.5 116.5v48q-2 65 -18.5 112t-44 77t-65.5 44.5t-82 14.5z" />
    <glyph glyph-name="oe" unicode="&#x153;" horiz-adv-x="990" 
d="M715 -10q-69 0 -122 29t-84 86q-31 -57 -84.5 -86t-124.5 -29q-51 0 -97 16.5t-81 50t-56 84.5t-21 119v20q0 64 21 113t56 81.5t81 49t97 16.5q69 0 122 -28t85 -81q58 109 203 109q110 0 172.5 -62.5t62.5 -172.5v-66h-392q0 -46 15 -78.5t38 -53t52 -30t57 -9.5
q63 0 98 20.5t43 56.5h79q-8 -38 -28.5 -67t-49.5 -48.5t-65.5 -29.5t-76.5 -10zM300 68q31 0 61 10.5t53.5 33.5t38 59.5t14.5 88.5v20q0 48 -14.5 82.5t-38 56.5t-53.5 32.5t-61 10.5t-61 -10.5t-53.5 -32.5t-38 -56.5t-14.5 -82.5v-20q0 -52 14.5 -88.5t38 -59.5
t53.5 -33.5t61 -10.5zM710 462q-29 0 -57 -8.5t-50 -26.5t-36 -47t-14 -69h309q-1 40 -13.5 69t-33 47t-48 26.5t-57.5 8.5z" />
    <glyph glyph-name="Scaron" unicode="&#x160;" horiz-adv-x="635" 
d="M315 -10q-63 0 -110.5 15t-79.5 41.5t-49.5 62t-20.5 76.5h95q3 -23 14 -43.5t31 -35.5t49.5 -23.5t70.5 -8.5q84 0 125 32t41 79q0 27 -9.5 47.5t-31.5 36t-57 28t-87 23.5q-56 12 -97.5 28t-69 40t-41.5 57.5t-14 79.5q0 39 16 72.5t47 58.5t76 39.5t102 14.5
q58 0 102.5 -14.5t75 -39.5t47.5 -58.5t20 -72.5h-94q-6 42 -41.5 71.5t-109.5 29.5q-72 0 -109.5 -29.5t-37.5 -71.5q0 -53 40 -80.5t128 -45.5q65 -14 110.5 -31t74 -42t41.5 -59t13 -82q0 -41 -17 -76.5t-50 -62t-81.5 -41.5t-111.5 -15zM160 900h80l75 -85l77 85h78
l-117 -150h-76z" />
    <glyph glyph-name="scaron" unicode="&#x161;" horiz-adv-x="530" 
d="M265 -10q-53 0 -92 12.5t-66 33.5t-41 49t-16 60h90q4 -32 32 -54.5t93 -22.5q70 0 98.5 22.5t28.5 54.5q0 14 -5.5 26.5t-21.5 23.5t-43.5 20t-70.5 17q-88 17 -137 53t-49 105q0 30 13 57t38.5 48t62.5 33t86 12q47 0 83.5 -12.5t61.5 -33.5t39 -49t16 -60h-90
q-4 35 -28.5 56t-81.5 21q-60 0 -86 -21t-26 -51q0 -15 5.5 -27t20 -22t39.5 -18t63 -15q99 -18 149 -54t50 -109q0 -32 -13 -60t-40 -49t-67.5 -33.5t-94.5 -12.5zM120 740h78l67 -85l69 85h76l-108 -160h-74z" />
    <glyph glyph-name="Ydieresis" unicode="&#x178;" horiz-adv-x="630" 
d="M278 277l-268 423h108l206 -326l192 326h104l-248 -423v-277h-94v277zM207 765q-25 0 -42.5 17.5t-17.5 42.5t17.5 42.5t42.5 17.5t42.5 -17.5t17.5 -42.5t-17.5 -42.5t-42.5 -17.5zM427 765q-25 0 -42.5 17.5t-17.5 42.5t17.5 42.5t42.5 17.5t42.5 -17.5t17.5 -42.5
t-17.5 -42.5t-42.5 -17.5z" />
    <glyph glyph-name="Zcaron" unicode="&#x17d;" horiz-adv-x="590" 
d="M40 78l404 540h-394v82h500v-78l-404 -540h404v-82h-510v78zM145 900h80l75 -85l77 85h78l-117 -150h-76z" />
    <glyph glyph-name="zcaron" unicode="&#x17e;" horiz-adv-x="530" 
d="M50 74l328 378h-318v78h420v-74l-328 -378h328v-78h-430v74zM126 740h78l67 -85l69 85h76l-108 -160h-74z" />
    <glyph glyph-name="florin" unicode="&#x192;" 
d="M100 -124h38q44 0 60.5 16t16.5 58v504h-95v76h95v20q0 76 37.5 113t117.5 37h70v-76h-60q-44 0 -60.5 -16t-16.5 -58v-20h137v-76h-137v-504q0 -76 -37.5 -113t-117.5 -37h-48v76z" />
    <glyph glyph-name="dotlessj" unicode="&#x237;" horiz-adv-x="278" 
d="M-27 -123h41q23 0 38.5 5.5t25 19t13.5 37.5t4 61v530h88v-530q0 -58 -8.5 -96.5t-26.5 -61.5t-47.5 -32.5t-71.5 -9.5h-56v77z" />
    <glyph glyph-name="afii57929" unicode="&#x2bc;" horiz-adv-x="250" 
d="M81 420v110h110v-110l-88 -150h-52z" />
    <glyph glyph-name="circumflex" unicode="&#x2c6;" horiz-adv-x="330" 
d="M128 740h74l108 -160h-78l-67 85l-69 -85h-76z" />
    <glyph glyph-name="caron" unicode="&#x2c7;" horiz-adv-x="330" 
d="M20 740h78l67 -85l69 85h76l-108 -160h-74z" />
    <glyph glyph-name="dotaccent" unicode="&#x2d9;" horiz-adv-x="162" 
d="M81 599q-26 0 -43.5 17.5t-17.5 43.5t17.5 43.5t43.5 17.5t43.5 -17.5t17.5 -43.5t-17.5 -43.5t-43.5 -17.5z" />
    <glyph glyph-name="ring" unicode="&#x2da;" horiz-adv-x="280" 
d="M140 570q-54 0 -87 31.5t-33 78.5t33 78.5t87 31.5t87 -31.5t33 -78.5t-33 -78.5t-87 -31.5zM140 630q23 0 37 14t14 36t-14 36t-37 14t-37 -14t-14 -36t14 -36t37 -14z" />
    <glyph glyph-name="tilde" unicode="&#x2dc;" horiz-adv-x="360" 
d="M235 605q-24 0 -39.5 7t-27.5 15l-22.5 15t-25.5 7q-14 0 -23 -6t-15 -14q-7 -9 -12 -19l-50 25q9 22 24 40q13 15 32.5 27.5t48.5 12.5q22 0 37.5 -7t27.5 -15t23.5 -15t26.5 -7q13 0 22.5 5.5t15.5 13.5q7 9 12 20l50 -25q-9 -22 -24 -40q-13 -15 -33 -27.5t-48 -12.5z
" />
    <glyph glyph-name="Delta" unicode="&#x394;" horiz-adv-x="670" 
d="M285 700h100l265 -700h-630zM148 82h369l-184 498z" />
    <glyph glyph-name="Delta" unicode="&#x2206;" horiz-adv-x="670" 
d="M285 700h100l265 -700h-630zM148 82h369l-184 498z" />
    <glyph glyph-name="afii10023" unicode="&#x401;" horiz-adv-x="610" 
d="M100 700h450v-82h-356v-217h324v-82h-324v-237h356v-82h-450v700zM215 765q-25 0 -42.5 17.5t-17.5 42.5t17.5 42.5t42.5 17.5t42.5 -17.5t17.5 -42.5t-17.5 -42.5t-42.5 -17.5zM435 765q-25 0 -42.5 17.5t-17.5 42.5t17.5 42.5t42.5 17.5t42.5 -17.5t17.5 -42.5
t-17.5 -42.5t-42.5 -17.5z" />
    <glyph glyph-name="afii10051" unicode="&#x402;" horiz-adv-x="775" 
d="M248 618h-228v82h550v-82h-228v-273q9 18 24.5 35.5t37 30.5t49.5 21t62 8q96 0 148 -54.5t52 -165.5v-20q0 -96 -52.5 -148t-152.5 -52h-30v84h30q111 0 111 116v20q0 68 -33.5 102t-98.5 34q-33 0 -60 -10.5t-46.5 -30t-30 -46t-10.5 -58.5v-211h-94v618z" />
    <glyph glyph-name="afii10052" unicode="&#x403;" horiz-adv-x="560" 
d="M100 700h440v-82h-346v-618h-94v700zM399 900h102l-142 -150h-78z" />
    <glyph glyph-name="afii10053" unicode="&#x404;" horiz-adv-x="670" 
d="M350 -10q-66 0 -120 21.5t-91.5 65.5t-58 112t-20.5 161v20q0 85 20.5 148.5t58.5 106t91.5 64t119.5 21.5q52 0 98.5 -14t82.5 -41.5t59.5 -68t29.5 -94.5h-94q-9 61 -53.5 97.5t-122.5 36.5q-85 0 -137.5 -53.5t-58.5 -172.5h293v-82h-293q3 -66 18 -112.5t40.5 -75.5
t60.5 -42.5t77 -13.5q67 0 115 32t62 99h93q-6 -52 -29 -92t-58.5 -67.5t-82 -41.5t-100.5 -14z" />
    <glyph glyph-name="afii10054" unicode="&#x405;" horiz-adv-x="635" 
d="M315 -10q-63 0 -110.5 15t-79.5 41.5t-49.5 62t-20.5 76.5h95q3 -23 14 -43.5t31 -35.5t49.5 -23.5t70.5 -8.5q84 0 125 32t41 79q0 27 -9.5 47.5t-31.5 36t-57 28t-87 23.5q-56 12 -97.5 28t-69 40t-41.5 57.5t-14 79.5q0 39 16 72.5t47 58.5t76 39.5t102 14.5
q58 0 102.5 -14.5t75 -39.5t47.5 -58.5t20 -72.5h-94q-6 42 -41.5 71.5t-109.5 29.5q-72 0 -109.5 -29.5t-37.5 -71.5q0 -53 40 -80.5t128 -45.5q65 -14 110.5 -31t74 -42t41.5 -59t13 -82q0 -41 -17 -76.5t-50 -62t-81.5 -41.5t-111.5 -15z" />
    <glyph glyph-name="afii10055" unicode="&#x406;" horiz-adv-x="304" 
d="M105 700h94v-700h-94v700z" />
    <glyph glyph-name="afii10056" unicode="&#x407;" horiz-adv-x="304" 
d="M105 700h94v-700h-94v700zM43 765q-25 0 -42.5 17.5t-17.5 42.5t17.5 42.5t42.5 17.5t42.5 -17.5t17.5 -42.5t-17.5 -42.5t-42.5 -17.5zM263 765q-25 0 -42.5 17.5t-17.5 42.5t17.5 42.5t42.5 17.5t42.5 -17.5t17.5 -42.5t-17.5 -42.5t-42.5 -17.5z" />
    <glyph glyph-name="afii10057" unicode="&#x408;" horiz-adv-x="545" 
d="M225 -10q-97 0 -146.5 50.5t-53.5 138.5h94q4 -50 29.5 -77.5t76.5 -27.5q33 0 56.5 8t39 28.5t23 54.5t7.5 85v450h94v-450q0 -140 -54 -200t-166 -60z" />
    <glyph glyph-name="afii10058" unicode="&#x409;" horiz-adv-x="1055" 
d="M15 84q34 0 59 15t40.5 64t23 142t7.5 250v145h450v-274h155q127 0 191 -58.5t64 -154.5t-64 -154.5t-191 -58.5h-249v618h-262v-63q0 -183 -14 -294.5t-42.5 -171.5t-70.5 -79.5t-97 -19.5v94zM745 82q87 0 126.5 35.5t39.5 95.5t-39.5 95.5t-126.5 35.5h-150v-262h150z
" />
    <glyph glyph-name="afii10059" unicode="&#x40a;" horiz-adv-x="1050" 
d="M516 334h-322v-334h-94v700h94v-284h322v284h94v-284h135q64 0 111.5 -15t79.5 -42.5t48 -66t16 -84.5t-16 -84.5t-48 -66t-79.5 -42.5t-111.5 -15h-229v334zM740 82q86 0 126 35t40 91t-40 91t-126 35h-130v-252h130z" />
    <glyph glyph-name="afii10060" unicode="&#x40b;" horiz-adv-x="790" 
d="M248 618h-228v82h550v-82h-228v-273q9 18 24.5 35.5t37 30.5t49.5 21t62 8q96 0 148 -55t52 -170v-215h-94v210q0 75 -33.5 110.5t-98.5 35.5q-66 0 -106.5 -40.5t-40.5 -105.5v-210h-94v618z" />
    <glyph glyph-name="afii10061" unicode="&#x40c;" horiz-adv-x="685" 
d="M100 700h94v-299h120l218 299h108l-250 -336l280 -364h-114l-242 319h-120v-319h-94v700zM442 900h102l-142 -150h-78z" />
    <glyph glyph-name="afii10062" unicode="&#x40e;" horiz-adv-x="650" 
d="M155 72q32 0 54 3t37 10t25.5 19.5t18.5 32.5l9 21l-284 542h104l226 -437l192 437h98l-250 -563q-19 -42 -38 -70t-45 -45.5t-61 -24.5t-86 -7v82zM328 750q-85 0 -125 38t-40 112h88q0 -46 18.5 -66t58.5 -20q41 0 60 20t19 66h86q0 -74 -40 -112t-125 -38z" />
    <glyph glyph-name="afii10145" unicode="&#x40f;" horiz-adv-x="730" 
d="M320 0h-220v700h94v-618h342v618h94v-700h-220v-130h-90v130z" />
    <glyph glyph-name="afii10017" unicode="&#x410;" horiz-adv-x="670" 
d="M483 174h-301l-64 -174h-98l265 700h100l265 -700h-102zM213 256h240l-120 324z" />
    <glyph glyph-name="afii10018" unicode="&#x411;" horiz-adv-x="675" 
d="M100 700h465v-81h-371v-193h171q127 0 191 -58.5t64 -154.5t-64 -154.5t-191 -58.5h-265v700zM360 82q87 0 126.5 35.5t39.5 95.5t-39.5 95.5t-126.5 35.5h-166v-262h166z" />
    <glyph glyph-name="afii10019" unicode="&#x412;" horiz-adv-x="670" 
d="M100 700h260q61 0 105.5 -14t73.5 -38.5t43 -59t14 -75.5q0 -54 -30.5 -92.5t-74.5 -55.5q58 -14 93.5 -56.5t35.5 -110.5q0 -43 -13.5 -79t-43 -62.5t-75 -41.5t-108.5 -15h-280v700zM380 82q82 0 114 32t32 87t-32 87t-115 32h-185v-238h186zM360 400q40 0 67.5 8
t44 22.5t23.5 34.5t7 44q0 49 -31 79t-111 30h-166v-218h166z" />
    <glyph glyph-name="afii10020" unicode="&#x413;" horiz-adv-x="560" 
d="M100 700h440v-82h-346v-618h-94v700z" />
    <glyph glyph-name="afii10021" unicode="&#x414;" horiz-adv-x="715" 
d="M15 82h75q19 38 32 94t20 119.5t10 129.5t3 125v150h455v-618h85v-212h-90v130h-500v-130h-90v212zM516 82v536h-271v-68q0 -145 -15.5 -264t-45.5 -204h332z" />
    <glyph glyph-name="afii10022" unicode="&#x415;" horiz-adv-x="610" 
d="M100 700h450v-82h-356v-217h324v-82h-324v-237h356v-82h-450v700z" />
    <glyph glyph-name="afii10024" unicode="&#x416;" horiz-adv-x="950" 
d="M245 362l-195 338h106l167 -299h105v299h94v-299h105l168 299h104l-193 -336l219 -364h-108l-190 319h-105v-319h-94v319h-105l-192 -319h-106z" />
    <glyph glyph-name="afii10025" unicode="&#x417;" horiz-adv-x="635" 
d="M320 -10q-63 0 -112 15.5t-83.5 43.5t-55 66.5t-24.5 84.5h94q8 -57 56.5 -91.5t124.5 -34.5q93 0 132 33t39 89q0 54 -40 88t-131 34h-95v84h95q75 0 110.5 31t35.5 81t-35.5 81t-110.5 31q-81 0 -120.5 -30t-45.5 -81h-94q4 42 22 78t50.5 62t79 40.5t108.5 14.5
q121 0 180.5 -54t59.5 -142q0 -55 -31.5 -93.5t-83.5 -55.5q63 -15 101.5 -58t38.5 -111q0 -45 -16.5 -82.5t-49.5 -65t-82.5 -43t-116.5 -15.5z" />
    <glyph glyph-name="afii10026" unicode="&#x418;" horiz-adv-x="760" 
d="M100 700h94v-550l372 550h94v-700h-94v550l-372 -550h-94v700z" />
    <glyph glyph-name="afii10027" unicode="&#x419;" horiz-adv-x="760" 
d="M100 700h94v-550l372 550h94v-700h-94v550l-372 -550h-94v700zM380 750q-85 0 -125 38t-40 112h88q0 -46 18.5 -66t58.5 -20q41 0 60 20t19 66h86q0 -74 -40 -112t-125 -38z" />
    <glyph glyph-name="afii10028" unicode="&#x41a;" horiz-adv-x="685" 
d="M100 700h94v-299h120l218 299h108l-250 -336l280 -364h-114l-242 319h-120v-319h-94v700z" />
    <glyph glyph-name="afii10029" unicode="&#x41b;" horiz-adv-x="705" 
d="M15 84q34 0 59 15t41 64t23.5 142t7.5 250v145h459v-700h-94v618h-271v-63q0 -122 -6 -211.5t-18.5 -152.5t-31.5 -102t-44 -61t-56.5 -30t-68.5 -8v94z" />
    <glyph glyph-name="afii10030" unicode="&#x41c;" horiz-adv-x="850" 
d="M100 700h96l231 -425l231 425h92v-700h-92v530l-198 -365h-70l-198 365v-530h-92v700z" />
    <glyph glyph-name="afii10031" unicode="&#x41d;" horiz-adv-x="750" 
d="M100 700h94v-299h362v299h94v-700h-94v319h-362v-319h-94v700z" />
    <glyph glyph-name="afii10032" unicode="&#x41e;" horiz-adv-x="740" 
d="M370 710q62 0 118.5 -19.5t99 -61.5t67.5 -107.5t25 -156.5v-20q0 -95 -25 -162t-67.5 -110t-99 -63t-118.5 -20t-118.5 20t-99 63t-67.5 110t-25 162v20q0 91 25 156.5t67.5 107.5t99 61.5t118.5 19.5zM370 626q-41 0 -78.5 -13.5t-67 -44t-47 -80.5t-17.5 -123v-20
q0 -77 18 -129t47.5 -83.5t67.5 -45t77 -13.5q42 0 80.5 13.5t67 45t45.5 83.5t17 129v20q0 73 -17.5 123t-46.5 80.5t-67 44t-79 13.5z" />
    <glyph glyph-name="afii10033" unicode="&#x41f;" horiz-adv-x="740" 
d="M100 700h540v-700h-94v618h-352v-618h-94v700z" />
    <glyph glyph-name="afii10034" unicode="&#x420;" horiz-adv-x="660" 
d="M100 700h255q128 0 191.5 -59t63.5 -159q0 -108 -63.5 -168t-191.5 -60h-161v-254h-94v700zM350 336q88 0 127 37t39 109q0 65 -39 100.5t-127 35.5h-156v-282h156z" />
    <glyph glyph-name="afii10035" unicode="&#x421;" horiz-adv-x="670" 
d="M355 -10q-62 0 -116 20t-94 62.5t-62.5 110t-22.5 162.5v20q0 91 22.5 156.5t62.5 107.5t94 61.5t116 19.5q55 0 101.5 -14t82 -41.5t58 -67.5t28.5 -92h-94q-14 66 -60.5 98.5t-115.5 32.5q-41 0 -76.5 -13.5t-62 -44t-41.5 -80.5t-15 -123v-20q0 -77 16.5 -129
t45 -83.5t65.5 -45t78 -13.5q72 0 114.5 37t51.5 97h94q-8 -58 -31.5 -99t-58.5 -67.5t-81 -39t-99 -12.5z" />
    <glyph glyph-name="afii10036" unicode="&#x422;" horiz-adv-x="590" 
d="M248 618h-228v82h550v-82h-228v-618h-94v618z" />
    <glyph glyph-name="afii10037" unicode="&#x423;" horiz-adv-x="650" 
d="M155 72q32 0 54 3t37 10t25.5 19.5t18.5 32.5l9 21l-284 542h104l226 -437l192 437h98l-250 -563q-19 -42 -38 -70t-45 -45.5t-61 -24.5t-86 -7v82z" />
    <glyph glyph-name="afii10038" unicode="&#x424;" horiz-adv-x="850" 
d="M378 43q-160 0 -244 81.5t-84 225.5v20q0 64 21.5 117t63 91t102.5 58.5t141 20.5v73h94v-73q80 0 141 -20.5t102.5 -58.5t63 -91t21.5 -117v-20q0 -144 -84 -225.5t-244 -81.5v-73h-94v73zM706 370q0 93 -59 148t-175 55v-446q116 0 175 57.5t59 165.5v20zM144 350
q0 -108 59 -165.5t175 -57.5v446q-116 0 -175 -55t-59 -148v-20z" />
    <glyph glyph-name="afii10039" unicode="&#x425;" horiz-adv-x="620" 
d="M257 367l-227 333h104l177 -261l179 261h100l-226 -331l246 -369h-106l-195 298l-197 -298h-102z" />
    <glyph glyph-name="afii10040" unicode="&#x426;" horiz-adv-x="745" 
d="M635 0h-535v700h94v-618h342v618h94v-618h95v-212h-90v130z" />
    <glyph glyph-name="afii10041" unicode="&#x427;" horiz-adv-x="670" 
d="M476 304q-26 -17 -73 -29.5t-108 -12.5q-118 0 -176.5 55t-58.5 176v207h94v-207q0 -80 37.5 -113.5t113.5 -33.5q62 0 103.5 13.5t67.5 30.5v310h94v-700h-94v304z" />
    <glyph glyph-name="afii10042" unicode="&#x428;" horiz-adv-x="950" 
d="M100 700h94v-618h234v618h94v-618h234v618h94v-700h-750v700z" />
    <glyph glyph-name="afii10043" unicode="&#x429;" horiz-adv-x="965" 
d="M855 0h-755v700h94v-618h234v618h94v-618h234v618h94v-618h95v-212h-90v130z" />
    <glyph glyph-name="afii10044" unicode="&#x42a;" horiz-adv-x="740" 
d="M180 619h-160v81h254v-274h161q127 0 191 -58.5t64 -154.5t-64 -154.5t-191 -58.5h-255v619zM430 82q87 0 126.5 35.5t39.5 95.5t-39.5 95.5t-126.5 35.5h-156v-262h156z" />
    <glyph glyph-name="afii10045" unicode="&#x42b;" horiz-adv-x="874" 
d="M100 700h94v-274h141q127 0 191 -58.5t64 -154.5t-64 -154.5t-191 -58.5h-235v700zM330 82q87 0 126.5 35.5t39.5 95.5t-39.5 95.5t-126.5 35.5h-136v-262h136zM680 700h94v-700h-94v700z" />
    <glyph glyph-name="afii10046" unicode="&#x42c;" horiz-adv-x="660" 
d="M100 700h94v-274h161q127 0 191 -58.5t64 -154.5t-64 -154.5t-191 -58.5h-255v700zM350 82q87 0 126.5 35.5t39.5 95.5t-39.5 95.5t-126.5 35.5h-156v-262h156z" />
    <glyph glyph-name="afii10047" unicode="&#x42d;" horiz-adv-x="670" 
d="M223 400h292q-7 118 -59 172t-136 54q-78 0 -122.5 -36.5t-53.5 -97.5h-94q6 54 29.5 94.5t59.5 68t82.5 41.5t98.5 14q67 0 120.5 -21t91 -63.5t58 -106.5t20.5 -149v-20q0 -93 -20.5 -161t-58 -112t-91.5 -65.5t-120 -21.5q-54 0 -100.5 14t-82 41.5t-58.5 67.5t-29 92
h93q14 -67 62 -99t115 -32q42 0 76.5 13.5t60 42.5t40.5 75.5t18 112.5h-292v82z" />
    <glyph glyph-name="afii10048" unicode="&#x42e;" horiz-adv-x="950" 
d="M605 -10q-55 0 -105 20t-88.5 60.5t-62 102.5t-23.5 146h-132v-319h-94v700h94v-299h132q1 73 24 130t61.5 97t88.5 61t105 21q64 0 116.5 -19t90 -60.5t58 -106t20.5 -154.5v-20q0 -99 -22 -168t-60 -111.5t-90 -61.5t-113 -19zM605 74q36 0 69.5 13t59 44.5t41 85
t15.5 133.5v20q0 74 -15 123.5t-40.5 79t-59 41.5t-70.5 12q-32 0 -65 -12.5t-59.5 -41t-43.5 -76t-17 -116.5v-40q0 -76 17.5 -127t44.5 -82t60 -44t63 -13z" />
    <glyph glyph-name="afii10049" unicode="&#x42f;" horiz-adv-x="690" 
d="M210 303q-64 24 -97 74.5t-33 119.5q0 43 16 80.5t47 64.5t77 42.5t105 15.5h265v-700h-94v284h-171h-14.5t-13.5 1l-146 -285h-101zM174 497q0 -61 38 -96t118 -35h166v252h-166q-80 0 -118 -33.5t-38 -87.5z" />
    <glyph glyph-name="afii10065" unicode="&#x430;" horiz-adv-x="575" 
d="M231 -10q-85 0 -133 45.5t-48 119.5q0 79 47.5 114t132.5 35h176v36q0 68 -29.5 95t-86.5 27q-64 0 -92.5 -20t-31.5 -47h-86q3 31 19 58t43 46t64.5 30t83.5 11q47 0 85 -11.5t64.5 -35t40.5 -60.5t14 -88v-210q0 -41 0.5 -71t5.5 -64h-78q-5 28 -5 45.5v42.5
q-10 -19 -27.5 -36.5t-41.5 -31t-53.5 -22t-63.5 -8.5zM247 66q31 0 59.5 9.5t50.5 27t35.5 42.5t13.5 57v35h-161q-49 0 -75 -20t-26 -62q0 -35 24.5 -62t78.5 -27z" />
    <glyph glyph-name="afii10066" unicode="&#x431;" horiz-adv-x="590" 
d="M295 -10q-53 0 -98.5 20t-79 58.5t-53 94.5t-19.5 127v20q0 90 13 160.5t44.5 120t83 77.5t129.5 32q63 3 110 5.5t80 19.5v-85q-16 -9 -58.5 -14t-116.5 -7q-48 -1 -84.5 -12t-62 -35t-40 -62.5t-18.5 -94.5q24 53 74 84t116 31q51 0 93 -17.5t72.5 -49.5t47.5 -78.5
t17 -104.5v-20q0 -62 -19 -111.5t-52 -85t-79 -54.5t-100 -19zM295 68q35 0 64.5 12.5t51.5 37t34 60.5t12 82v20q0 39 -12 70.5t-34 54t-51.5 35t-64.5 12.5t-64.5 -12.5t-51.5 -35t-34 -54t-12 -70.5v-20q0 -44 13 -79.5t35 -60.5t51.5 -38.5t62.5 -13.5z" />
    <glyph glyph-name="afii10067" unicode="&#x432;" horiz-adv-x="570" 
d="M80 530h230q98 0 144 -40.5t46 -104.5q0 -17 -6 -34.5t-16.5 -32.5t-25 -26t-32.5 -17q49 -12 74.5 -45.5t25.5 -78.5q0 -69 -46 -110t-144 -41h-250v530zM330 76q56 0 79 20.5t23 58.5t-23 58t-79 20h-162v-157h162zM310 307q57 0 79.5 19.5t22.5 54.5t-22.5 54
t-79.5 19h-142v-147h142z" />
    <glyph glyph-name="afii10068" unicode="&#x433;" horiz-adv-x="465" 
d="M80 530h360v-76h-272v-454h-88v530z" />
    <glyph glyph-name="afii10069" unicode="&#x434;" horiz-adv-x="595" 
d="M15 78h65q11 15 20 46t16 72.5t10.5 90t3.5 98.5v145h370v-452h75v-203h-85v125h-389v-125h-86v203zM412 78v375h-196v-68q0 -96 -11.5 -176t-34.5 -131h242z" />
    <glyph glyph-name="afii10070" unicode="&#x435;" horiz-adv-x="570" 
d="M295 -10q-49 0 -94 16.5t-79.5 50t-55.5 84.5t-21 119v20q0 66 20 115t53.5 81.5t78 48t93.5 15.5q110 0 172.5 -62.5t62.5 -172.5v-66h-392q0 -46 15 -78.5t38 -53t52 -30t57 -9.5q63 0 98 20.5t43 56.5h79q-8 -38 -28.5 -67t-49.5 -48.5t-65.5 -29.5t-76.5 -10z
M290 462q-29 0 -57 -8.5t-50 -26.5t-36 -47t-14 -69h309q-1 40 -13.5 69t-33 47t-48 26.5t-57.5 8.5z" />
    <glyph glyph-name="afii10072" unicode="&#x436;" horiz-adv-x="790" 
d="M195 266l-160 264h98l133 -222h85v222h88v-222h85l135 222h96l-160 -256l175 -274h-102l-144 232h-85v-232h-88v232h-85l-148 -232h-98z" />
    <glyph glyph-name="afii10073" unicode="&#x437;" horiz-adv-x="530" 
d="M260 -10q-100 0 -157 42t-63 118h81q7 -39 43.5 -61.5t95.5 -22.5q69 0 100.5 25.5t31.5 58.5q0 39 -26 61t-90 22h-92v74h86q55 0 78.5 20.5t23.5 58.5q0 30 -28 54t-84 24q-61 0 -90 -21.5t-35 -57.5h-85q3 33 18.5 61.5t42.5 49.5t64.5 32.5t84.5 11.5
q51 0 88.5 -11.5t62.5 -32t37 -48.5t12 -62q0 -38 -19 -66.5t-61 -44.5q56 -15 78 -48t22 -77q0 -33 -13.5 -62t-41 -50.5t-69 -34.5t-96.5 -13z" />
    <glyph glyph-name="afii10074" unicode="&#x438;" horiz-adv-x="615" 
d="M80 530h86v-400l283 400h86v-530h-86v400l-283 -400h-86v530z" />
    <glyph glyph-name="afii10075" unicode="&#x439;" horiz-adv-x="615" 
d="M80 530h86v-400l283 400h86v-530h-86v400l-283 -400h-86v530zM307 595q-75 0 -110 33.5t-35 96.5h82q0 -38 15 -54t48 -16q35 0 50 16t15 54h80q0 -63 -35 -96.5t-110 -33.5z" />
    <glyph glyph-name="afii10076" unicode="&#x43a;" horiz-adv-x="565" 
d="M80 530h88v-222h90l168 222h104l-199 -255l219 -275h-112l-180 232h-90v-232h-88v530z" />
    <glyph glyph-name="afii10077" unicode="&#x43b;" horiz-adv-x="585" 
d="M15 76q58 0 79 60t21 189v205h390v-530h-88v454h-216v-148q0 -93 -12.5 -154t-36.5 -97t-58.5 -50.5t-78.5 -14.5v86z" />
    <glyph glyph-name="afii10078" unicode="&#x43c;" horiz-adv-x="710" 
d="M80 530h92l186 -325l186 325h86v-530h-86v385l-154 -265h-70l-154 265v-385h-86v530z" />
    <glyph glyph-name="afii10079" unicode="&#x43d;" horiz-adv-x="615" 
d="M80 530h88v-222h279v222h88v-530h-88v232h-279v-232h-88v530z" />
    <glyph glyph-name="afii10080" unicode="&#x43e;" horiz-adv-x="600" 
d="M300 -10q-51 0 -97 16.5t-81 50t-56 84.5t-21 119v20q0 64 21 113t56 81.5t81 49t97 16.5t97 -16.5t81 -49t56 -81.5t21 -113v-20q0 -68 -21 -119t-56 -84.5t-81 -50t-97 -16.5zM300 68q31 0 61 10.5t53.5 33.5t38 59.5t14.5 88.5v20q0 48 -14.5 82.5t-38 56.5
t-53.5 32.5t-61 10.5t-61 -10.5t-53.5 -32.5t-38 -56.5t-14.5 -82.5v-20q0 -52 14.5 -88.5t38 -59.5t53.5 -33.5t61 -10.5z" />
    <glyph glyph-name="afii10081" unicode="&#x43f;" horiz-adv-x="605" 
d="M80 530h445v-530h-88v454h-269v-454h-88v530z" />
    <glyph glyph-name="afii10082" unicode="&#x440;" horiz-adv-x="615" 
d="M80 530h80v-100q23 49 72 79.5t113 30.5q103 0 164 -65.5t61 -194.5v-20q0 -136 -63 -203t-172 -67q-57 0 -102.5 27.5t-64.5 72.5v-290h-88v730zM330 68q32 0 59.5 12.5t48 36.5t32.5 60t12 83v20q0 90 -42.5 136t-109.5 46q-36 0 -66 -11.5t-51 -32t-33 -48.5t-12 -60
v-80q0 -36 12 -66t33 -51t51 -33t66 -12z" />
    <glyph glyph-name="afii10083" unicode="&#x441;" horiz-adv-x="545" 
d="M285 -10q-51 0 -95 16.5t-76 50t-50.5 84t-18.5 118.5v22q0 64 20 112.5t53 81t76.5 49t90.5 16.5t85 -13t66 -36t45.5 -54t23.5 -67h-84q-6 19 -16 35.5t-26 29t-39.5 20t-54.5 7.5q-29 0 -56.5 -10.5t-48.5 -32.5t-34 -56.5t-13 -82.5v-21q0 -52 13 -88t34 -59
t48.5 -33.5t56.5 -10.5q52 0 87 25t49 67h84q-8 -39 -27.5 -70.5t-48.5 -53.5t-66 -34t-78 -12z" />
    <glyph glyph-name="afii10084" unicode="&#x442;" horiz-adv-x="480" 
d="M196 454h-171v76h430v-76h-171v-454h-88v454z" />
    <glyph glyph-name="afii10085" unicode="&#x443;" horiz-adv-x="560" 
d="M110 -122q28 0 48 5t35 18t27.5 34.5t24.5 54.5l-225 540h98l172 -440l156 440h94l-205 -540q-21 -56 -41.5 -92.5t-46 -58t-58.5 -30.5t-79 -9v78z" />
    <glyph glyph-name="afii10086" unicode="&#x444;" horiz-adv-x="740" 
d="M326 -10q-139 0 -210 69.5t-71 199.5v20q0 124 71 192.5t210 68.5v160h88v-160q139 0 210 -68.5t71 -192.5v-20q0 -130 -71 -199.5t-210 -69.5v-190h-88v190zM607 279q0 91 -47 137t-147 46v-394q100 0 147 47t47 144v20zM133 259q0 -97 47 -144t147 -47v394
q-100 0 -147 -46t-47 -137v-20z" />
    <glyph glyph-name="afii10087" unicode="&#x445;" horiz-adv-x="540" 
d="M215 277l-175 253h102l130 -185l130 185h98l-175 -248l195 -282h-104l-148 215l-148 -215h-100z" />
    <glyph glyph-name="afii10088" unicode="&#x446;" horiz-adv-x="625" 
d="M519 0h-439v530h88v-454h264v454h88v-454h85v-201h-86v125z" />
    <glyph glyph-name="afii10089" unicode="&#x447;" horiz-adv-x="555" 
d="M387 211q-23 -14 -56 -25.5t-82 -11.5q-93 0 -143.5 44.5t-50.5 142.5v169h88v-155q0 -68 28.5 -95.5t97.5 -27.5q42 0 73.5 10.5t44.5 20.5v247h88v-530h-88v211z" />
    <glyph glyph-name="afii10090" unicode="&#x448;" horiz-adv-x="810" 
d="M80 530h88v-454h193v454h88v-454h193v454h88v-530h-650v530z" />
    <glyph glyph-name="afii10091" unicode="&#x449;" horiz-adv-x="835" 
d="M729 0h-649v530h88v-454h193v454h88v-454h193v454h88v-454h85v-201h-86v125z" />
    <glyph glyph-name="afii10092" unicode="&#x44a;" horiz-adv-x="625" 
d="M165 453h-140v77h228v-192h142q98 0 146.5 -45.5t48.5 -124.5q0 -78 -48.5 -123t-146.5 -45h-230v453zM390 76q60 0 86 23.5t26 69.5t-26 69.5t-86 23.5h-137v-186h137z" />
    <glyph glyph-name="afii10093" unicode="&#x44b;" horiz-adv-x="700" 
d="M80 530h88v-192h112q98 0 146.5 -45.5t48.5 -124.5q0 -78 -48.5 -123t-146.5 -45h-200v530zM275 76q60 0 86 23.5t26 69.5t-26 69.5t-86 23.5h-107v-186h107zM552 530h88v-530h-88v530z" />
    <glyph glyph-name="afii10094" unicode="&#x44c;" horiz-adv-x="540" 
d="M80 530h88v-192h142q98 0 146.5 -45.5t48.5 -124.5q0 -78 -48.5 -123t-146.5 -45h-230v530zM305 76q60 0 86 23.5t26 69.5t-26 69.5t-86 23.5h-137v-186h137z" />
    <glyph glyph-name="afii10095" unicode="&#x44d;" horiz-adv-x="545" 
d="M199 308h212q-7 77 -46.5 115.5t-99.5 38.5q-55 0 -90.5 -26t-48.5 -66h-86q7 39 27.5 70.5t50 53.5t67.5 34t80 12q52 0 95.5 -17.5t74.5 -51t48 -82t17 -109.5v-20q0 -65 -17.5 -115.5t-48.5 -85t-74 -52t-95 -17.5q-47 0 -86.5 13t-69 36t-47.5 54t-22 67h83
q6 -18 18.5 -34.5t30.5 -29.5t41.5 -20.5t51.5 -7.5q60 0 99.5 39.5t46.5 123.5h-212v77z" />
    <glyph glyph-name="afii10096" unicode="&#x44e;" horiz-adv-x="775" 
d="M487 -10q-47 0 -89.5 15t-75 45t-53 75.5t-24.5 106.5h-77v-232h-88v530h88v-222h77q4 57 24.5 100.5t53 73t75 44t89.5 14.5q50 0 94 -16.5t77 -49t52.5 -81.5t19.5 -113v-20q0 -68 -19.5 -119t-52.5 -84.5t-77 -50t-94 -16.5zM487 68q30 0 58 10.5t49.5 33.5t34.5 59.5
t13 88.5v20q0 48 -13 82.5t-34.5 56.5t-49.5 32.5t-58 10.5t-58 -10.5t-49.5 -32.5t-34.5 -56.5t-13 -82.5v-20q0 -52 13 -88.5t34.5 -59.5t49.5 -33.5t58 -10.5z" />
    <glyph glyph-name="afii10097" unicode="&#x44f;" horiz-adv-x="570" 
d="M182 208q-68 16 -95 57t-27 101q0 78 47.5 121t152.5 43h230v-530h-88v202h-132l-132 -202h-98zM402 278v176h-147q-59 0 -83 -21.5t-24 -66.5t24 -66.5t83 -21.5h147z" />
    <glyph glyph-name="afii10071" unicode="&#x451;" horiz-adv-x="570" 
d="M295 -10q-49 0 -94 16.5t-79.5 50t-55.5 84.5t-21 119v20q0 66 20 115t53.5 81.5t78 48t93.5 15.5q110 0 172.5 -62.5t62.5 -172.5v-66h-392q0 -46 15 -78.5t38 -53t52 -30t57 -9.5q63 0 98 20.5t43 56.5h79q-8 -38 -28.5 -67t-49.5 -48.5t-65.5 -29.5t-76.5 -10z
M290 462q-29 0 -57 -8.5t-50 -26.5t-36 -47t-14 -69h309q-1 40 -13.5 69t-33 47t-48 26.5t-57.5 8.5zM183 602q-24 0 -41 17t-17 41t17 41t41 17t41 -17t17 -41t-17 -41t-41 -17zM387 602q-24 0 -41 17t-17 41t17 41t41 17t41 -17t17 -41t-17 -41t-41 -17z" />
    <glyph glyph-name="afii10099" unicode="&#x452;" horiz-adv-x="620" 
d="M0 623h90v77h88v-77h182v-66h-182v-152q9 18 24.5 35.5t37 30.5t49.5 21t62 8q194 0 194 -225v-275q0 -58 -8.5 -96.5t-26.5 -61.5t-47.5 -32.5t-71.5 -9.5h-56v77h41q23 0 38.5 5.5t25 19t13.5 37.5t4 61v270q0 75 -30.5 113.5t-101.5 38.5q-39 0 -66.5 -13t-45.5 -34
t-26.5 -48.5t-8.5 -56.5v-270h-88v557h-90v66z" />
    <glyph glyph-name="afii10100" unicode="&#x453;" horiz-adv-x="465" 
d="M80 530h360v-76h-272v-454h-88v530zM332 740h100l-134 -160h-76z" />
    <glyph glyph-name="afii10101" unicode="&#x454;" horiz-adv-x="545" 
d="M280 -10q-52 0 -95 17.5t-74 52t-48.5 85t-17.5 115.5v20q0 61 17.5 109t48.5 81.5t74.5 51.5t94.5 18q41 0 78.5 -12t67.5 -34t50.5 -53.5t28.5 -70.5h-86q-13 40 -50 66t-89 26q-61 0 -100.5 -38t-45.5 -116h212v-77h-212q6 -84 46 -123.5t100 -39.5q28 0 51.5 7.5
t41.5 20.5t30.5 29.5t18.5 34.5h83q-4 -36 -22 -67t-47.5 -54t-69 -36t-86.5 -13z" />
    <glyph glyph-name="afii10102" unicode="&#x455;" horiz-adv-x="530" 
d="M265 -10q-53 0 -92 12.5t-66 33.5t-41 49t-16 60h90q4 -32 32 -54.5t93 -22.5q70 0 98.5 22.5t28.5 54.5q0 14 -5.5 26.5t-21.5 23.5t-43.5 20t-70.5 17q-88 17 -137 53t-49 105q0 30 13 57t38.5 48t62.5 33t86 12q47 0 83.5 -12.5t61.5 -33.5t39 -49t16 -60h-90
q-4 35 -28.5 56t-81.5 21q-60 0 -86 -21t-26 -51q0 -15 5.5 -27t20 -22t39.5 -18t63 -15q99 -18 149 -54t50 -109q0 -32 -13 -60t-40 -49t-67.5 -33.5t-94.5 -12.5z" />
    <glyph glyph-name="afii10103" unicode="&#x456;" horiz-adv-x="278" 
d="M95 530h88v-530h-88v530zM139 599q-26 0 -43.5 17.5t-17.5 43.5t17.5 43.5t43.5 17.5t43.5 -17.5t17.5 -43.5t-17.5 -43.5t-43.5 -17.5z" />
    <glyph glyph-name="afii10104" unicode="&#x457;" horiz-adv-x="278" 
d="M95 530h88v-530h-88v530zM38 602q-24 0 -41 17t-17 41t17 41t41 17t41 -17t17 -41t-17 -41t-41 -17zM242 602q-24 0 -41 17t-17 41t17 41t41 17t41 -17t17 -41t-17 -41t-41 -17z" />
    <glyph glyph-name="afii10105" unicode="&#x458;" horiz-adv-x="278" 
d="M-27 -123h41q23 0 38.5 5.5t25 19t13.5 37.5t4 61v530h88v-530q0 -58 -8.5 -96.5t-26.5 -61.5t-47.5 -32.5t-71.5 -9.5h-56v77zM139 599q-26 0 -43.5 17.5t-17.5 43.5t17.5 43.5t43.5 17.5t43.5 -17.5t17.5 -43.5t-17.5 -43.5t-43.5 -17.5z" />
    <glyph glyph-name="afii10106" unicode="&#x459;" horiz-adv-x="860" 
d="M407 454h-204v-148q0 -92 -13 -153t-37 -97t-59 -51t-79 -15v86q58 0 79 60t21 189v205h380v-192h135q98 0 146.5 -45.5t48.5 -124.5q0 -78 -48.5 -123t-146.5 -45h-223v454zM625 76q60 0 86 23.5t26 69.5t-26 69.5t-86 23.5h-130v-186h130z" />
    <glyph glyph-name="afii10107" unicode="&#x45a;" horiz-adv-x="835" 
d="M80 530h88v-208h244v208h88v-208h105q98 0 146.5 -44.5t48.5 -117.5q0 -72 -48.5 -116t-146.5 -44h-193v246h-244v-246h-88v530zM600 76q60 0 86 22.5t26 62.5t-26 62.5t-86 22.5h-100v-170h100z" />
    <glyph glyph-name="afii10108" unicode="&#x45b;" horiz-adv-x="620" 
d="M0 623h90v77h88v-77h182v-66h-182v-152q9 18 24.5 35.5t37 30.5t49.5 21t62 8q194 0 194 -225v-275h-88v270q0 75 -30.5 113.5t-101.5 38.5q-39 0 -66.5 -13t-45.5 -34t-26.5 -48.5t-8.5 -56.5v-270h-88v557h-90v66z" />
    <glyph glyph-name="afii10109" unicode="&#x45c;" horiz-adv-x="565" 
d="M80 530h88v-222h90l168 222h104l-199 -255l219 -275h-112l-180 232h-90v-232h-88v530zM369 740h100l-134 -160h-76z" />
    <glyph glyph-name="afii10110" unicode="&#x45e;" horiz-adv-x="560" 
d="M110 -122q28 0 48 5t35 18t27.5 34.5t24.5 54.5l-225 540h98l172 -440l156 440h94l-205 -540q-21 -56 -41.5 -92.5t-46 -58t-58.5 -30.5t-79 -9v78zM282 595q-75 0 -110 33.5t-35 96.5h82q0 -38 15 -54t48 -16q35 0 50 16t15 54h80q0 -63 -35 -96.5t-110 -33.5z" />
    <glyph glyph-name="afii10193" unicode="&#x45f;" horiz-adv-x="600" 
d="M257 0h-177v530h90v-454h260v454h90v-530h-177v-125h-86v125z" />
    <glyph glyph-name="afii10050" unicode="&#x490;" horiz-adv-x="558" 
d="M100 700h348v130h90v-212h-344v-618h-94v700z" />
    <glyph glyph-name="afii10098" unicode="&#x491;" horiz-adv-x="468" 
d="M85 530h273v125h85v-201h-268v-454h-90v530z" />
    <glyph glyph-name="uni2010" unicode="&#x2010;" horiz-adv-x="400" 
d="M60 313h280v-76h-280v76z" />
    <glyph glyph-name="uni2011" unicode="&#x2011;" horiz-adv-x="400" 
d="M60 313h280v-76h-280v76z" />
    <glyph glyph-name="figuredash" unicode="&#x2012;" horiz-adv-x="577" 
d="M58 401h461v-82h-461v82z" />
    <glyph glyph-name="endash" unicode="&#x2013;" horiz-adv-x="500" 
d="M50 401h400v-82h-400v82z" />
    <glyph glyph-name="emdash" unicode="&#x2014;" horiz-adv-x="750" 
d="M25 311h700v-82h-700v82z" />
    <glyph glyph-name="quoteleft" unicode="&#x2018;" horiz-adv-x="300" 
d="M205 550v-110h-110v110l88 150h52z" />
    <glyph glyph-name="quoteright" unicode="&#x2019;" horiz-adv-x="300" 
d="M95 590v110h110v-110l-88 -150h-52z" />
    <glyph glyph-name="quotesinglbase" unicode="&#x201a;" horiz-adv-x="300" 
d="M95 0v110h110v-110l-88 -150h-52z" />
    <glyph glyph-name="quotedblleft" unicode="&#x201c;" horiz-adv-x="500" 
d="M205 700v-110h-110v110l88 150h52zM405 700v-110h-110v110l88 150h52z" />
    <glyph glyph-name="quotedblright" unicode="&#x201d;" horiz-adv-x="500" 
d="M95 590v110h110v-110l-88 -150h-52zM295 590v110h110v-110l-88 -150h-52z" />
    <glyph glyph-name="quotedblbase" unicode="&#x201e;" horiz-adv-x="500" 
d="M95 0v110h110v-110l-88 -150h-52zM295 0v110h110v-110l-88 -150h-52z" />
    <glyph glyph-name="dagger" unicode="&#x2020;" horiz-adv-x="500" 
d="M203 448h-183v82h183v170h94v-170h183v-82h-183v-648h-94v648z" />
    <glyph glyph-name="daggerdbl" unicode="&#x2021;" horiz-adv-x="500" 
d="M203 0h-183v82h183v366h-183v82h183v170h94v-170h183v-82h-183v-366h183v-82h-183v-200h-94v200z" />
    <glyph glyph-name="bullet" unicode="&#x2022;" horiz-adv-x="400" 
d="M200 155q-25 0 -46.5 9.5t-38 26t-26 38t-9.5 46.5t9.5 46.5t26 38t38 26t46.5 9.5t46.5 -9.5t38 -26t26 -38t9.5 -46.5t-9.5 -46.5t-26 -38t-38 -26t-46.5 -9.5z" />
    <glyph glyph-name="ellipsis" unicode="&#x2026;" horiz-adv-x="960" 
d="M150 -10q-29 0 -49.5 20.5t-20.5 49.5q0 30 20.5 50t49.5 20t49.5 -20t20.5 -50q0 -29 -20.5 -49.5t-49.5 -20.5zM480 -10q-29 0 -49.5 20.5t-20.5 49.5q0 30 20.5 50t49.5 20t49.5 -20t20.5 -50q0 -29 -20.5 -49.5t-49.5 -20.5zM810 -10q-29 0 -49.5 20.5t-20.5 49.5
q0 30 20.5 50t49.5 20t49.5 -20t20.5 -50q0 -29 -20.5 -49.5t-49.5 -20.5z" />
    <glyph glyph-name="perthousand" unicode="&#x2030;" horiz-adv-x="1290" 
d="M215 360q-36 0 -66.5 12t-52.5 34.5t-34 54t-12 69.5v10q0 38 12.5 69t34 53.5t52 35t66.5 12.5t66.5 -12t52.5 -34.5t34 -54t12 -69.5v-10q0 -38 -12.5 -69t-34 -53.5t-52 -35t-66.5 -12.5zM215 434q38 0 59.5 23.5t21.5 72.5v10q0 49 -21.5 72.5t-59.5 23.5
t-59.5 -23.5t-21.5 -72.5v-10q0 -48 21.5 -72t59.5 -24zM685 -10q-36 0 -66.5 12t-52.5 34.5t-34 54t-12 69.5v10q0 38 12.5 69t34 53.5t52 35t66.5 12.5t66.5 -12t52.5 -34.5t34 -54t12 -69.5v-10q0 -38 -12.5 -69t-34 -53.5t-52 -35t-66.5 -12.5zM685 64q38 0 59.5 23.5
t21.5 72.5v10q0 49 -21.5 72.5t-59.5 23.5t-59.5 -23.5t-21.5 -72.5v-10q0 -48 21.5 -72t59.5 -24zM1075 -10q-36 0 -66.5 12t-52.5 34.5t-34 54t-12 69.5v10q0 38 12.5 69t34 53.5t52 35t66.5 12.5t66.5 -12t52.5 -34.5t34 -54t12 -69.5v-10q0 -38 -12.5 -69t-34 -53.5
t-52 -35t-66.5 -12.5zM1075 64q38 0 59.5 23.5t21.5 72.5v10q0 49 -21.5 72.5t-59.5 23.5t-59.5 -23.5t-21.5 -72.5v-10q0 -48 21.5 -72t59.5 -24zM634 700h96l-464 -700h-96z" />
    <glyph glyph-name="guilsinglleft" unicode="&#x2039;" horiz-adv-x="330" 
d="M40 245v60l220 195v-98l-144 -125l144 -125v-102z" />
    <glyph glyph-name="guilsinglright" unicode="&#x203a;" horiz-adv-x="330" 
d="M290 305v-60l-220 -195v98l144 125l-144 125v102z" />
    <glyph glyph-name="fraction" unicode="&#x2044;" horiz-adv-x="600" 
d="M484 700h96l-464 -700h-96z" />
    <glyph glyph-name="foursuperior" unicode="&#x2074;" horiz-adv-x="380" 
d="M220 465h-200v60l187 255h93v-245h40v-70h-40v-85h-80v85zM220 535v150l-110 -150h110z" />
    <glyph glyph-name="Euro" unicode="&#x20ac;" 
d="M25 463h65q8 67 28 114t49.5 76.5t68 43t84.5 13.5q39 0 74 -15.5t61.5 -43.5t43.5 -67.5t21 -88.5h-94q-4 65 -34 98t-72 33q-26 0 -48 -7.5t-38.5 -26t-27.5 -50t-17 -79.5h156v-72h-160v-26v-20v-26h160v-72h-156q5 -52 16.5 -85.5t29.5 -53t41.5 -27t53.5 -7.5
q35 0 63.5 33.5t32.5 100.5h94q-4 -50 -21 -90t-43.5 -68.5t-61.5 -44t-74 -15.5q-47 0 -85.5 13.5t-68 44t-49 79.5t-27.5 120h-65v72h60v26v20v26h-60v72z" />
    <glyph glyph-name="uni20B4" unicode="&#x20b4;" 
d="M40 466h291q18 23 27 42.5t9 46.5q0 35 -23 56t-69 21q-45 0 -65.5 -22.5t-24.5 -54.5h-90q2 31 14.5 59.5t35 49.5t55 33.5t75.5 12.5t76.5 -11.5t56.5 -32t35 -48t12 -58.5q0 -26 -8.5 -48.5t-21.5 -45.5h85v-72h-470v72zM275 -10q-45 0 -80.5 12t-60 33t-37 49.5
t-12.5 60.5q0 29 8 54t26 51h-79v72h470v-72h-292q-26 -27 -35.5 -51t-9.5 -54q0 -32 25.5 -54.5t76.5 -22.5t74 22.5t27 54.5h89q-2 -32 -14.5 -60.5t-36 -49.5t-58.5 -33t-81 -12z" />
    <glyph glyph-name="uni20BD" unicode="&#x20bd;" 
d="M105 117h-80v72h80v72h-80v82h80v357h165q120 0 182.5 -59.5t62.5 -159.5q0 -101 -62.5 -160.5t-182.5 -59.5h-71v-72h190v-72h-190v-117h-94v117zM270 343q76 0 113.5 36t37.5 102q0 67 -37.5 102t-113.5 35h-71v-275h71z" />
    <glyph glyph-name="afii61352" unicode="&#x2116;" horiz-adv-x="1110" 
d="M740 303h310v-66h-310v66zM895 360q-36 0 -66.5 12t-52.5 34.5t-34 54t-12 69.5v10q0 38 12.5 69t34 53.5t52 35t66.5 12.5t66.5 -12t52.5 -34.5t34 -54t12 -69.5v-10q0 -38 -12.5 -69t-34 -53.5t-52 -35t-66.5 -12.5zM895 432q38 0 60.5 24t22.5 74v10q0 50 -22.5 74
t-60.5 24t-60.5 -24t-22.5 -74v-10q0 -49 22.5 -73.5t60.5 -24.5zM100 700h92l366 -545v545h92v-700h-92l-366 545v-545h-92v700z" />
    <glyph glyph-name="trademark" unicode="&#x2122;" horiz-adv-x="870" 
d="M153 636h-133v64h340v-64h-133v-336h-74v336zM420 700h74l127 -241l128 241h71v-400h-70v280l-100 -190h-60l-99 190v-280h-71v400z" />
    <glyph glyph-name="arrowleft" unicode="&#x2190;" horiz-adv-x="800" 
d="M40 350l350 350h115l-307 -307h552v-86h-552l307 -307h-115z" />
    <glyph glyph-name="arrowup" unicode="&#x2191;" horiz-adv-x="800" 
d="M355 549l-305 -304v116l350 350l350 -350v-116l-305 304v-549h-90v549z" />
    <glyph glyph-name="arrowright" unicode="&#x2192;" horiz-adv-x="800" 
d="M601 306h-551v88h551l-306 306h115l350 -350l-350 -350h-115z" />
    <glyph glyph-name="arrowdown" unicode="&#x2193;" horiz-adv-x="800" 
d="M50 339v116l305 -304v549h90v-549l305 304v-116l-350 -350z" />
    <glyph glyph-name="arrownorthwest" unicode="&#x2196;" horiz-adv-x="800" 
d="M115 148v487h489l81 -81h-424l424 -425l-64 -64l-423 423v-423z" />
    <glyph glyph-name="arrownortheast" unicode="&#x2197;" horiz-adv-x="800" 
d="M115 127l426 427h-426l82 81h488v-487l-83 -83v424l-425 -424z" />
    <glyph glyph-name="arrowsoutheast" unicode="&#x2198;" horiz-adv-x="800" 
d="M115 147h424l-424 424l64 64l423 -423v423l83 -82v-488h-488z" />
    <glyph glyph-name="arrowsouthwest" unicode="&#x2199;" horiz-adv-x="800" 
d="M115 552l83 83v-424l425 424l62 -62l-426 -426h426l-81 -82h-489v487z" />
    <glyph glyph-name="minus" unicode="&#x2212;" 
d="M50 401h450v-82h-450v82z" />
    <glyph glyph-name="division" unicode="&#x2215;" 
d="M398 700h92l-338 -700h-92z" />
    <glyph glyph-name="radical" unicode="&#x221a;" horiz-adv-x="620" 
d="M0 391h136l130 -377l196 786h158v-82h-91l-209 -818h-100l-146 409h-74v82z" />
    <glyph glyph-name="approxequal" unicode="&#x2248;" 
d="M370 181q-32 0 -58 12t-49 26t-44.5 26t-43.5 12q-20 0 -34 -11t-24 -24q-11 -15 -19 -34l-63 38q13 31 33 57q17 22 44.5 40t67.5 18q32 0 58 -12t49 -26.5t44 -26.5t44 -12q20 0 34 10.5t24 24.5q11 15 19 35l63 -38q-13 -32 -33 -58q-17 -22 -45 -39.5t-67 -17.5z
M370 380q-32 0 -58 12t-49 26t-44.5 26t-43.5 12q-20 0 -34 -11t-24 -24q-11 -15 -19 -34l-63 38q13 31 33 57q17 22 44.5 40t67.5 18q32 0 58 -12t49 -26.5t44 -26.5t44 -12q20 0 34 10.5t24 24.5q11 15 19 35l63 -38q-13 -32 -33 -58q-17 -22 -45 -39.5t-67 -17.5z" />
    <glyph glyph-name="lessequal" unicode="&#x2264;" 
d="M50 182h450v-82h-450v82zM50 390v100l450 190v-94l-350 -144l350 -144v-98z" />
    <glyph glyph-name="greaterequal" unicode="&#x2265;" 
d="M50 182h450v-82h-450v82zM500 490v-100l-450 -190v94l350 144l-350 144v98z" />
    <glyph glyph-name="angleleft" unicode="&#x2329;" horiz-adv-x="360" 
d="M40 249l200 451h100l-203 -449l203 -451h-102z" />
    <glyph glyph-name="angleright" unicode="&#x232a;" horiz-adv-x="360" 
d="M319.961 250.97l-199.976 -450.945h-99.9873l202.975 448.945l-202.975 450.944h101.987z" />
    <glyph glyph-name="accent" unicode="&#xf400;" horiz-adv-x="0" 
d="M-229 740h100l-134 -160h-76z" />
    <glyph glyph-name="Accent" unicode="&#xf401;" horiz-adv-x="0" 
d="M-281 900h102l-142 -150h-78z" />
    <glyph glyph-name="Cedilla" unicode="&#xf407;" horiz-adv-x="220" 
d="M80 -210q-12 0 -23 0.5t-19 1.5q-10 1 -18 3v58q8 -2 17 -3q8 -1 16.5 -1.5t16.5 -0.5q32 0 44 9.5t12 25.5q0 14 -13 23t-53 9l20 95h60l-11 -52q41 -8 56 -29.5t15 -46.5q0 -41 -29 -66.5t-91 -25.5z" />
    <glyph glyph-name="Circumflex" unicode="&#xf408;" horiz-adv-x="350" 
d="M137 900h76l117 -150h-80l-75 85l-77 -85h-78z" />
    <glyph glyph-name="Apostrophe" unicode="&#xf40a;" horiz-adv-x="250" 
d="M81 590v110h110v-110l-88 -150h-52z" />
    <glyph glyph-name="Dotaccent" unicode="&#xf40b;" horiz-adv-x="168" 
d="M84 761q-26 0 -45 19t-19 45t19 45t45 19t45 -19t19 -45t-19 -45t-45 -19z" />
    <glyph glyph-name="Ring" unicode="&#xf40c;" horiz-adv-x="280" 
d="M140 735q-54 0 -87 31.5t-33 78.5t33 78.5t87 31.5t87 -31.5t33 -78.5t-33 -78.5t-87 -31.5zM140 797q22 0 35.5 13.5t13.5 34.5t-13.5 34.5t-35.5 13.5t-35.5 -13.5t-13.5 -34.5t13.5 -34.5t35.5 -13.5z" />
    <glyph glyph-name="Tilde" unicode="&#xf40d;" horiz-adv-x="380" 
d="M250 765q-26 0 -42.5 8t-29.5 17t-24.5 17t-28.5 8q-14 0 -23.5 -6.5t-16.5 -14.5q-8 -10 -13 -21l-52 27q9 24 25 42q13 16 34 29.5t51 13.5q24 0 40.5 -8t29.5 -17t25.5 -17t29.5 -8q13 0 23 6.5t17 14.5q8 9 13 21l52 -27q-10 -25 -25 -43q-14 -16 -34.5 -29
t-50.5 -13z" />
    <glyph glyph-name="uniF6BA" unicode="&#xf6ba;" horiz-adv-x="400" 
d="M60 388h280v-76h-280v76z" />
    <glyph glyph-name="uniF6BB" unicode="&#xf6bb;" horiz-adv-x="500" 
d="M50 392h400v-82h-400v82z" />
    <glyph glyph-name="uniF6BC" unicode="&#xf6bc;" horiz-adv-x="750" 
d="M25 391h700v-82h-700v82z" />
    <glyph glyph-name="Acute" unicode="&#xf6c9;" horiz-adv-x="260" 
d="M138 900h102l-142 -150h-78z" />
    <glyph glyph-name="Caron" unicode="&#xf6ca;" horiz-adv-x="350" 
d="M20 900h80l75 -85l77 85h78l-117 -150h-76z" />
    <glyph glyph-name="Dieresis" unicode="&#xf6cb;" horiz-adv-x="380" 
d="M80 765q-25 0 -42.5 17.5t-17.5 42.5t17.5 42.5t42.5 17.5t42.5 -17.5t17.5 -42.5t-17.5 -42.5t-42.5 -17.5zM300 765q-25 0 -42.5 17.5t-17.5 42.5t17.5 42.5t42.5 17.5t42.5 -17.5t17.5 -42.5t-17.5 -42.5t-42.5 -17.5z" />
    <glyph glyph-name="Grave" unicode="&#xf6ce;" horiz-adv-x="260" 
d="M20 900h104l116 -150h-80z" />
    <glyph glyph-name="Macron" unicode="&#xf6d0;" horiz-adv-x="340" 
d="M20 862h300v-74h-300v74z" />
    <glyph glyph-name="cyrBreve" unicode="&#xf6d1;" horiz-adv-x="370" 
d="M185 750q-85 0 -125 38t-40 112h88q0 -46 18.5 -66t58.5 -20q41 0 60 20t19 66h86q0 -74 -40 -112t-125 -38z" />
    <glyph glyph-name="cyrbreve" unicode="&#xf6d4;" horiz-adv-x="330" 
d="M165 595q-75 0 -110 33.5t-35 96.5h82q0 -38 15 -54t48 -16q35 0 50 16t15 54h80q0 -63 -35 -96.5t-110 -33.5z" />
    <glyph glyph-name="uniFEFF" unicode="&#xfeff;" horiz-adv-x="0" 
 />
    <glyph glyph-name="zerooldstyle" unicode="&#xf730;" horiz-adv-x="610" 
d="M305 -10q-122 0 -191 70t-69 200v20q0 59 18.5 107t52.5 82t82 52.5t107 18.5q122 0 191 -69t69 -191v-20q0 -130 -69 -200t-191 -70zM305 66q81 0 126.5 48t45.5 146v20q0 88 -47 136t-125 48q-79 0 -125.5 -48t-46.5 -136v-20q0 -46 13 -82t35.5 -61t54 -38t69.5 -13z
" />
    <glyph glyph-name="oneoldstyle" unicode="&#xf731;" horiz-adv-x="410" 
d="M212 0v431l-172 -125v103l166 121h94v-530h-88z" />
    <glyph glyph-name="twooldstyle" unicode="&#xf732;" horiz-adv-x="510" 
d="M40 64l183 133q41 30 68 51t42.5 39t22 36t6.5 42q0 43 -29 70t-83 27t-88 -34.5t-34 -92.5h-88q0 94 56 149.5t154 55.5q45 0 82 -14t63 -38t40.5 -55.5t14.5 -67.5t-8 -63t-29 -53t-58 -54.5t-96 -66.5l-80 -52h281v-76h-420v64z" />
    <glyph glyph-name="threeoldstyle" unicode="&#xf733;" horiz-adv-x="540" 
d="M265 -210q-51 0 -93 15.5t-71 42t-45 62t-16 75.5h88q0 -51 35.5 -84t101.5 -33t101.5 35t35.5 100q0 60 -36.5 95.5t-99.5 35.5h-71v82h71q61 0 93.5 31.5t32.5 90.5q0 124 -127 124q-61 0 -94 -30.5t-33 -76.5h-88q0 37 15 71t43 59t68 40t89 15q50 0 90 -15t67.5 -41
t42.5 -61t15 -75q0 -66 -31 -107.5t-84 -60.5q56 -19 90.5 -63t34.5 -124q0 -43 -16 -80t-45 -64.5t-70.5 -43t-93.5 -15.5z" />
    <glyph glyph-name="fouroldstyle" unicode="&#xf734;" horiz-adv-x="570" 
d="M377 0h-357v64l343 466h102v-454h85v-76h-85v-200h-88v200zM377 76v337l-244 -337h244z" />
    <glyph glyph-name="fiveoldstyle" unicode="&#xf735;" horiz-adv-x="590" 
d="M303 -210q-57 0 -99.5 15.5t-71.5 41t-44.5 57.5t-17.5 66h88q2 -20 12.5 -38t28.5 -32.5t44.5 -23t59.5 -8.5q31 0 58.5 12t47.5 34t31.5 54t11.5 72q0 46 -13 78.5t-34.5 53.5t-49 30.5t-55.5 9.5q-54 0 -84 -20t-46 -51h-85v389h415v-76h-327v-217q50 53 142 53
q104 0 164.5 -65.5t60.5 -184.5q0 -56 -17 -102t-48 -79t-75 -51t-97 -18z" />
    <glyph glyph-name="sixoldstyle" unicode="&#xf736;" horiz-adv-x="595" 
d="M315 -10q-58 0 -105 19t-80.5 58.5t-51.5 99.5t-18 143v20q0 103 19 175.5t53 118t82 66t106 20.5q39 0 74 -9.5t63.5 -29t49 -48.5t28.5 -68h-88q-11 36 -45 56.5t-82 20.5q-38 0 -70 -14t-55 -46t-36.5 -85t-15.5 -132q14 28 34.5 47.5t44.5 31.5t49.5 17.5t48.5 5.5
q52 0 94.5 -15t72.5 -44.5t46.5 -72t16.5 -96.5v-10q0 -50 -18.5 -92t-50.5 -72.5t-75 -47.5t-91 -17zM315 68q67 0 107 40.5t40 110.5v10q0 74 -39.5 112t-117.5 38q-75 0 -116 -38.5t-41 -101.5v-10q0 -35 12 -64.5t34 -51t53 -33.5t68 -12z" />
    <glyph glyph-name="sevenoldstyle" unicode="&#xf737;" horiz-adv-x="480" 
d="M368 454h-348v76h440v-64l-256 -666h-94z" />
    <glyph glyph-name="eightoldstyle" unicode="&#xf738;" horiz-adv-x="590" 
d="M295 -10q-60 0 -105 14t-75 39.5t-45 60t-15 76.5q0 30 9.5 58t28 52t45.5 42t62 28q-54 17 -89.5 61t-35.5 104q0 40 14.5 74t42.5 58.5t69 38.5t94 14t94 -14t69 -38.5t42.5 -58.5t14.5 -74q0 -60 -35 -102t-90 -63q71 -25 108 -68.5t37 -111.5q0 -42 -15 -76.5
t-45 -60t-75 -39.5t-105 -14zM295 68q39 0 68 9.5t47.5 26.5t27.5 39t9 48q0 28 -12.5 51t-33.5 40t-48.5 27t-57.5 13q-31 -3 -58.5 -13.5t-48.5 -27t-33 -39.5t-12 -51q0 -26 9 -48t27.5 -39t47.5 -26.5t68 -9.5zM295 632q-63 0 -97.5 -29t-34.5 -83q0 -28 11 -49
t29.5 -36t42 -24.5t49.5 -12.5q25 3 49 12.5t42.5 24.5t29.5 36t11 49q0 54 -35.5 83t-96.5 29z" />
    <glyph glyph-name="nineoldstyle" unicode="&#xf739;" horiz-adv-x="595" 
d="M280 540q61 0 108.5 -19t80 -59t49.5 -102.5t17 -149.5v-20q0 -113 -18 -189.5t-51.5 -123t-80.5 -67t-105 -20.5q-41 0 -77 9.5t-65 29t-49.5 48.5t-28.5 68h88q11 -36 45.5 -56.5t86.5 -20.5q38 0 69 13.5t53.5 47t35 91t14.5 145.5q-14 -28 -34.5 -47.5t-44.5 -31.5
t-49.5 -17.5t-48.5 -5.5q-105 0 -167.5 60t-62.5 173v10q0 52 18.5 95t50.5 74t75 48t91 17zM280 462q-67 0 -107 -41t-40 -115v-10q0 -155 157 -155q75 0 116 39.5t41 105.5v10q0 37 -12 68t-33.5 52.5t-52.5 33.5t-69 12z" />
    </font>
</defs>
</svg>
