<svg width="40" height="40" xmlns="http://www.w3.org/2000/svg"><path d="M20 40C8.954 40 0 31.046 0 20S8.954 0 20 0s20 8.954 20 20-8.954 20-20 20zm10.525-25.011c-.361.18-1.356.542-2.26.632.633-.361 1.447-1.355 1.718-2.169-.542.362-1.898.904-2.531.904-.723-.723-1.808-1.356-2.893-1.356-2.26 0-3.887 1.898-3.887 4.158 0 .271 0 .633.09.904-2.982-.09-6.508-1.717-8.496-4.339-1.266 2.08-.181 4.61 1.265 5.514-.452 0-1.356-.09-1.717-.452 0 1.447.632 3.255 3.073 3.978-.452.09-1.356.09-1.718 0 .09 1.175 1.808 2.712 3.616 2.712-.632.723-3.073 2.079-5.785 1.717C12.898 28.277 14.977 29 17.328 29c6.508 0 11.841-5.243 11.57-11.751v-.181c.543-.452 1.085-1.175 1.627-2.08z" fill="#111214" fill-rule="evenodd"/></svg>