<svg xmlns="http://www.w3.org/2000/svg" width="32" height="16"><g fill="none" fill-rule="evenodd"><path fill="#4D628C" d="M2.564 0h26.872c.892 0 1.215.093 1.54.267.327.174.583.43.757.756.174.326.267.65.267 1.54v10.873c0 .892-.093 1.215-.267 1.54a1.81 1.81 0 01-.756.757c-.326.174-.65.267-1.54.267H2.563c-.892 0-1.215-.093-1.54-.267a1.817 1.817 0 01-.757-.756C.093 14.65 0 14.327 0 13.437V2.563c0-.892.093-1.215.267-1.54a1.81 1.81 0 01.756-.757C1.35.093 1.673 0 2.563 0z"/><path fill="#FFF" fill-rule="nonzero" d="M11.61 3.999L8.72 7.942 11.701 12h-2.16L7.668 9.383 5.782 12h-2.16l2.994-4.058L3.747 4h2.137l1.795 2.48L9.462 4h2.149zM12.446 12V3.999h1.646l2.56 3.829 2.435-3.829h1.6V12h-1.771V7.2l-2.08 3.188h-.47l-2.148-3.223V12h-1.772zm9.727 0V3.999h1.772v6.344h4.32V12h-6.092z"/></g></svg>