<svg xmlns="http://www.w3.org/2000/svg" viewBox="0 0 140.87 28.34"><defs><style>.cls-1{fill:#595959}</style></defs><g id="Layer_2" data-name="Layer 2"><g id="Layer_1-2" data-name="Layer 1"><path class="cls-1" d="M14.17 0a14.17 14.17 0 1014.18 14.17A14.18 14.18 0 0014.17 0zm0 27.25a13.08 13.08 0 1113.08-13.08 13.08 13.08 0 01-13.08 13.08z"/><path class="cls-1" d="M14.17 24.8A.77.77 0 0015 24a.63.63 0 00.45.38 1.09 1.09 0 00.62-.07.82.82 0 00.43-.41.8.8 0 000-.61.75.75 0 001 .26.78.78 0 00.45-1.08l-1.74-4.12c0-.13-.1-.26-.16-.38a1.56 1.56 0 00-.13-.26.41.41 0 00-.14-.12 3 3 0 011.58.61c.06 0 .06.05.3 0a.47.47 0 01.33 0 2 2 0 01.31.2c.33.25.66.5 1 .77s.35.34.32.54-.46.6-.6.73c-.31.3.16.86.8.81a.55.55 0 01-.19-.47.36.36 0 00.3-.09c.14-.12.08-.49.2-.61a2.9 2.9 0 011.4-.26c.18 0 .37-.05.36-.34.28 0 .33.23.33.41.24-.13.45-.78-.44-.93a.39.39 0 01.55 0c.15-.24-.22-.71-.87-.44 0 0-.29-.39-1.18.6l-.32-.26c-.34-.31-1.2-1.16-1.2-1.16a2.59 2.59 0 00-.7-1.94 2 2 0 00-1.09-.46 3.34 3.34 0 00.32-.6c.49.5 1.48.64 1.48-.19.81.81 1.56.38 1.56-.13a2.73 2.73 0 00.17.75c.1.27.47 1.31 1.42 1.31 0 .37 0 1.55 1.16 1.82a.26.26 0 01.15.07 4.39 4.39 0 002.6 1c-.15-.11-.38-.25-.42-.92 0-.44-.07-2.74-.07-6 0-1.15-.12-4.87-3.8-5.38a2.07 2.07 0 00-1.58.31 1.8 1.8 0 00-.58 2.22.36.36 0 000 .09.45.45 0 01-.09.58 1.88 1.88 0 01-1.1.56.8.8 0 01-.67-.27 2.76 2.76 0 01-.8-1.51 2.89 2.89 0 01.13-1.71 2 2 0 011.66-1.1c.34-.63 1.31-.38 1.31-.38.24 0 .33.12.39.24s.42-.65 0-.91a3.94 3.94 0 00-1.29-.36c0-.42-.7-.75-2-.53-1.52.32-1.84-.26-1.84-.26a1.24 1.24 0 00.67 1.2 6.48 6.48 0 00-1.58 3.66 6.55 6.55 0 00-1.57-3.67A1.27 1.27 0 0013.27 4s-.33.59-1.85.32c-1.26-.22-1.95.11-1.95.53a4 4 0 00-1.3.36c-.4.26 0 .91 0 .91s.14-.19.38-.24c0 0 1-.25 1.31.38a2.07 2.07 0 011.67 1.1 2.85 2.85 0 01.12 1.71 2.88 2.88 0 01-.79 1.51.82.82 0 01-.68.27 1.83 1.83 0 01-1.09-.56A.43.43 0 019 9.7v-.09a1.79 1.79 0 00-.58-2.22 2 2 0 00-1.52-.31c-3.67.51-3.8 4.23-3.8 5.38 0 3.24-.05 5.54-.07 6 0 .67-.27.81-.42.92a4.39 4.39 0 002.61-1 .23.23 0 01.14-.07C6.5 18 6.5 16.83 6.52 16.46c1 0 1.32-1 1.42-1.31a3.16 3.16 0 00.18-.75c0 .51.75.94 1.55.13 0 .83 1 .69 1.48.19a4.15 4.15 0 00.32.6 2 2 0 00-1.09.46 2.62 2.62 0 00-.69 1.94s-.87.85-1.21 1.16l-.32.26c-.88-1-1.18-.6-1.18-.6-.65-.27-1 .2-.87.44a.39.39 0 01.55 0c-.88.15-.68.8-.44.93 0-.18.06-.39.33-.41 0 .29.18.34.37.34.43 0 1.17 0 1.39.26s.06.49.2.61a.37.37 0 00.3.09.55.55 0 01-.19.47c.64 0 1.11-.51.8-.81-.13-.13-.58-.55-.6-.73s.18-.41.32-.54c.31-.27.64-.52 1-.77a2.14 2.14 0 01.32-.2.44.44 0 01.32 0c.25.08.24.07.31 0a2.92 2.92 0 011.57-.61.3.3 0 00-.13.12 1.52 1.52 0 00-.14.26c-.06.12-.1.25-.16.38l-1.74 4.12a.78.78 0 00.45 1.08.75.75 0 001-.26.85.85 0 000 .61.8.8 0 00.44.41 1.06 1.06 0 00.61.07.67.67 0 00.46-.38.76.76 0 00.72.78zm22.26-5.09h-1.07a24.94 24.94 0 00.14-2.58v-3.85c-.33.59-.67 1.14-1 1.57a8.08 8.08 0 00-.5-1.15 8.84 8.84 0 001.59-2.58 12.75 12.75 0 00.71-2.27 6 6 0 001.2.39c.25 0 .3.15 0 .37a7.9 7.9 0 00-1 1.91zm2.24-6.37c-.54 0-1.08.08-1.52.16v-1.06a13.08 13.08 0 001.57.05v-1.62a7.05 7.05 0 01-.78.21 1.57 1.57 0 00-.54-.87 10 10 0 002.75-.8 3.32 3.32 0 00.57.81c.11.1.06.21-.12.19a3 3 0 00-1 .21v1.84h1.73a34.1 34.1 0 00-.18-3.6 3.69 3.69 0 001 .14c.22 0 .28.14.09.32a17.15 17.15 0 00-.12 3.09c.76 0 2-.14 2.57-.23l.06 1h-2.59a15.56 15.56 0 00.31 2.61 7.62 7.62 0 00.86-1.94 2.83 2.83 0 001 .54c.2.06.15.16 0 .18s-.46.36-.92 1.25a6.26 6.26 0 01-.65 1 1.79 1.79 0 00.22.38c.89 1.4 1 1.34 1.14.29a2.92 2.92 0 00.86.71c-.54 1.8-.98 1.8-1.92.8a4.86 4.86 0 01-.9-1.46 8.37 8.37 0 01-1.55 1.37 1.92 1.92 0 00-.77-.75 6.12 6.12 0 002-1.51 14.06 14.06 0 01-.57-3.42l-1.74.06V15c.36-.12.73-.25 1.11-.4a2.35 2.35 0 000 .92l-1.13.38v2.54c0 .79-.32 1.07-1.71 1.17a2.16 2.16 0 00-.49-1.25c1.06.31 1.33.18 1.33-.62v-1.59c-.76.27-1.35.49-1.56.6a2.68 2.68 0 00-.31-1.14 11.14 11.14 0 001.87-.4zm4.82-1.55a7.76 7.76 0 00-.88-1.53l.81-.49c.27.48.63 1.06.88 1.47zm3.93 4.86a2.84 2.84 0 00-.88-.65 6.38 6.38 0 003.32-2.88 6.27 6.27 0 001.2.26c.16 0 .18.16 0 .25s-.27.15-.64.56h3.18c1.27 0 2 0 2.52-.07A10.33 10.33 0 0152.63 18a12.5 12.5 0 01-5.46 1.85 3 3 0 00-.57-1.05 11.67 11.67 0 004.51-1.1 7.86 7.86 0 00-1.81-1.5l.7-.54a12 12 0 012 1.5A7 7 0 0054.25 15h-4.61a10.29 10.29 0 01-2.22 1.65zm4.3-3.83c-1.63 0-3 .06-4.29.16.06-.6.1-1.26.1-1.92a11.73 11.73 0 00-.1-1.71c1.25.1 2.66.14 4.29.14s3.06 0 4.28-.14a13.18 13.18 0 00-.1 1.76A14 14 0 0056 13c-1.24-.13-2.63-.18-4.28-.18zM50 10.32h-1.6V12H50zm2.54 0h-1.7V12h1.71zm2.42 0H53.4V12H55zm3.95 9.35a1.85 1.85 0 00-.85-.51A6.85 6.85 0 0059.83 17a3.11 3.11 0 00.82.4c.16 0 .15.11 0 .15s-1.18 1.38-1.74 2.12zM59.23 9a5.42 5.42 0 001.05.08c.18 0 .22.06.1.16s-.15.19-.15.39v1h1.89A8.61 8.61 0 0062 9a7.08 7.08 0 001.09.13c.18 0 .22.09.1.17a.4.4 0 00-.22.38v.94a7.66 7.66 0 00.85-.08v1a5.82 5.82 0 00-.85-.09V16c.35 0 .69 0 1-.08v1a9.71 9.71 0 00-1.45-.1h-2.6a10.26 10.26 0 00-1.49.1v-1a8.75 8.75 0 00.92.08v-4.63a7.12 7.12 0 00-1.07.09v-1a8.65 8.65 0 001.07.08A10 10 0 0059.23 9zm2.89 3.4v-1h-1.89v1zm-1.89.72v1.12h1.89v-1.13zm0 2.89h1.89V15h-1.89zm2.38 2.64a5.24 5.24 0 00-1.2-1.25l.69-.51a12.9 12.9 0 011.23 1zm1.19 1.24a2.33 2.33 0 00-1-.52c1.27-1.27 1.74-2.49 1.71-6.18 0-1.42 0-2.72-.07-3.38A9.42 9.42 0 0068 9.06a3.88 3.88 0 00.67 1c.18.18.13.27-.09.22a4.65 4.65 0 00-1.6.12 9.15 9.15 0 01-1.59.14v2.15H67a7.55 7.55 0 001.86-.16v1.13a6.11 6.11 0 00-1.23-.13v4.13a17.37 17.37 0 00.09 2h-1.05c.06-.64.1-1.22.1-2v-4.15h-1.42c-.01 3.56-.35 4.58-1.55 6.37zm6.31-9.55v-1a21.12 21.12 0 002.47.08A20.28 20.28 0 0075 9.37v1l-.7-.07v6.32a9.36 9.36 0 001-.3 1.62 1.62 0 00-.11 1l-.85.16a18.74 18.74 0 00.1 2.22h-1.18c0-.45.1-1.25.11-2a20.55 20.55 0 00-3 .9 5.24 5.24 0 00-.37-1.24l.83-.11v-7zm1.62-.09V12h1.64v-1.7zm1.64 2.5h-1.64v1.63h1.64zm0 2.45h-1.64v1.92l1.64-.31zm2 4.48a2.93 2.93 0 00-.84-.66A5 5 0 0077 15a20.21 20.21 0 00-2.09.12v-1a19 19 0 002.16.11c0-.62.06-1.33 0-2.15a20.18 20.18 0 00-2 .11v-1c.79.07 1.68.1 2.78.1a10.79 10.79 0 001-2.53 2.88 2.88 0 001 .36c.17 0 .18.11 0 .34a13.13 13.13 0 00-1.12 1.83c.8 0 1.26-.05 1.82-.1v1A21 21 0 0078 12.1c0 .93 0 1.61-.08 2.15a25.1 25.1 0 002.85-.11v1A24.06 24.06 0 0078 15c.65 2 1.54 3 3.06 3.47a2.43 2.43 0 00-.72 1.09A5.51 5.51 0 0177.68 16a6.59 6.59 0 01-2.29 3.68zm.85-8.82a14.08 14.08 0 00-.61-1.6l.95-.26a14.45 14.45 0 01.65 1.54zm6.3.85v-1.1a15.69 15.69 0 002.19.12 8.83 8.83 0 00-.11-1.84 10.35 10.35 0 001.19.11c.25 0 .29.12.06.27s-.23.4-.23 1.46a15 15 0 002.15-.12v1.1a18.35 18.35 0 00-2.13-.12v1.44a12.64 12.64 0 002-.12V14c-.59-.06-1.06-.09-2-.11 0 .54 0 1-.06 1.41a18.1 18.1 0 002.3-.14v1.07c-.57 0-1.35-.07-2.37-.07a5.79 5.79 0 01-1.73 3.53 2.29 2.29 0 00-1.23-.69 3.37 3.37 0 002-2.84c-1 0-1.79 0-2.33.11V15.2a21.69 21.69 0 002.41.11c0-.4 0-.88.06-1.41-1 0-1.52 0-2.11.11v-1.1a15.09 15.09 0 002.14.12v-1.44a19.37 19.37 0 00-2.2.12zm7.64 6.7a2.41 2.41 0 00-.46-1.35c1.53.36 2 .15 2-.59s-.4-1.91-2-2.9a12 12 0 001.3-3.16h-1.83v9.48h-1c.06-1.07.09-1.81.09-2.82v-7.5h4.28a31.4 31.4 0 01-1.63 3.77 3.45 3.45 0 011.88 3.37c-.21 1.13-1.09 1.67-2.63 1.7zM100 15.8v1.75c0 .54 0 1.5.12 2.16h-1.26c.06-.58.12-1.62.12-2.16V15.8H96.2v.85h-1.11c0-.5.09-1.28.09-1.79v-2.59a8.62 8.62 0 00-.09-1.27c.59.08 1.89.12 3.89.13v-.56a6.8 6.8 0 00-.12-1.79 10.93 10.93 0 001.27.07c.19 0 .23 0 0 .22s-.15.3-.15.66v1.4c2.1 0 3.42-.06 4-.13 0 .31-.06 1.05-.06 1.47v2.31c0 .47 0 1.21.06 1.71h-1.14v-.69zm-1-.9v-2.83h-2.8v2.83zm3.91 0v-2.83H100v2.83zm5-3.3a3 3 0 00-.08-.9c.56 0 1.28.05 3.28.05a17.61 17.61 0 00-.08-2.1 8.88 8.88 0 001.33.12c.14 0 .17.08 0 .17a3.78 3.78 0 00-.29 1.81c2 0 2.59 0 3.15-.05a4.33 4.33 0 00-.07.9v2.76a12.32 12.32 0 001.5-.1v1.09a35 35 0 00-4.22-.1 3.73 3.73 0 001.19 1.89 6.07 6.07 0 003.22 1 3.36 3.36 0 00-.68 1.46 7.25 7.25 0 01-3.32-1.79 7 7 0 01-1.29-2.39c-.69 2-1.94 3.17-4.54 4.28a4.53 4.53 0 00-.73-1.13c2.32-.55 3.68-1.59 4.34-3.34-3 0-3.74 0-4.2.1v-1.07a11.48 11.48 0 001.44.1zm1 0v2.73h2a15.34 15.34 0 00.2-2.73zm5.38 0h-2.12a16.39 16.39 0 01-.21 2.73h2.33zm4.24 1.78a3.31 3.31 0 00-.58-.87 9.38 9.38 0 002.15-3.74 3.8 3.8 0 001 .49c.3.09.34.16 0 .39a4.8 4.8 0 00-.76 1.08 18.35 18.35 0 002.28-.09v1a23.62 23.62 0 00-2.79-.09 16.18 16.18 0 01-1.3 1.83zM121 18a11.28 11.28 0 001.45-1 2.81 2.81 0 00.21 1l-1.5 1a4.8 4.8 0 00-.92.78 2.64 2.64 0 00-.56-1c.33-.16.45-.38.45-.93v-2.2c-.68 0-1.2 0-1.6.1v-1c.41 0 .92.08 1.6.09v-1.36c-.35 0-.65 0-.88.09v-1a10.76 10.76 0 001.55.09 10.32 10.32 0 001.54-.09v1a9.9 9.9 0 00-1.32-.1v1.44c.71 0 1.25-.05 1.66-.09v1c-.41-.05-1-.08-1.66-.1zm6.63-3.6a6.31 6.31 0 00.82.62.08.08 0 010 .15 6.34 6.34 0 00-1.68 1.32 4.82 4.82 0 002.41 1.76 1.89 1.89 0 00-.73 1 7 7 0 01-2.16-1.95 6.35 6.35 0 01-1.21-3.16h-.91v4.06c.4-.24 1-.64 1.33-.89a2.8 2.8 0 00.2.85l-1.26 1a3.79 3.79 0 00-.83.75A3.3 3.3 0 00123 19a.78.78 0 00.3-.72v-7.46a11.61 11.61 0 00-.11-1.5 21 21 0 002.57.13 18.19 18.19 0 002.42-.13c0 .41-.07 1-.07 1.5v1.92c0 .37 0 1 .07 1.52a21 21 0 00-2.3-.06 4.5 4.5 0 00.5 1.66 6.45 6.45 0 001.27-1.44zm-3.48-4.22v1.25h3V10.2zm0 2v1.26h3v-1.23zm8.62 7.54h-1.1a17.41 17.41 0 00.11-1.93v-2.7c-.35.4-.72.79-1.06 1.15a2.75 2.75 0 00-.69-.9 8.94 8.94 0 001.89-2 12.52 12.52 0 001-1.65 7.81 7.81 0 001 .66c.21.11.21.2 0 .25a4.36 4.36 0 00-1.13 1.22zm.9-9.85c-.17 0-.43.22-1.07 1a21.76 21.76 0 01-1.6 1.61 2.16 2.16 0 00-.73-.68 6.63 6.63 0 001.53-1.55 6.91 6.91 0 00.84-1.32 5.44 5.44 0 001.06.69c.22.1.2.21-.03.25zm5.08 8.53c0 .94-.32 1.25-2.35 1.33a2.66 2.66 0 00-.57-1.26c1.54.21 1.87-.06 1.87-.44v-4.21c-1.52 0-2.47 0-3.27.11v-1.11c.81.08 1.77.1 3.28.1s2.34 0 3.16-.1v1.11c-.63-.06-1.24-.09-2.12-.1zm-1.13-7.66a20.05 20.05 0 00-2.5.11V9.74a22.71 22.71 0 002.5.1 22.42 22.42 0 002.48-.1v1.11a19.8 19.8 0 00-2.48-.11z"/></g></g></svg>