<?xml version="1.0" encoding="utf-8"?>
<!-- Generator: Adobe Illustrator 24.0.0, SVG Export Plug-In . SVG Version: 6.00 Build 0)  -->
<svg version="1.1" id="Layer_1" xmlns="http://www.w3.org/2000/svg" xmlns:xlink="http://www.w3.org/1999/xlink" x="0px" y="0px"
	 viewBox="0 0 284.7 159.9" style="enable-background:new 0 0 284.7 159.9;" xml:space="preserve">
<style type="text/css">
	.st0{fill:#AAAFB3;}
	.st1{fill:#90959A;}
</style>
<title>sbp</title>
<g id="Layer_2_1_">
	<g id="Layer_1-2">
		<path class="st0" d="M66.4,38.7h22.2c1.4,0,2.6,1.2,2.6,2.6v88c0,1.4-1.2,2.6-2.6,2.6H66.4c-1.4,0-2.6-1.2-2.6-2.6v-88
			C63.8,39.9,65,38.7,66.4,38.7z"/>
		<path class="st0" d="M130.5,38.7h22.2c1.4,0,2.6,1.2,2.6,2.6v88c0,1.4-1.2,2.6-2.6,2.6h-22.2c-1.4,0-2.6-1.2-2.6-2.6v-88
			C128,39.9,129.1,38.7,130.5,38.7z"/>
		<path class="st0" d="M164,38.7h22.2c1.4,0,2.6,1.2,2.6,2.6v88c0,1.4-1.2,2.6-2.6,2.6H164c-1.4,0-2.6-1.2-2.6-2.6v-88
			C161.4,39.9,162.6,38.7,164,38.7z"/>
		<path class="st1" d="M198.5,32h19.4c1.6,0,3,1.3,3,3v40.3c0,1.6-1.3,3-3,3h-19.4c-1.6,0-3-1.3-3-3V34.9
			C195.6,33.3,196.9,32,198.5,32z"/>
		<path class="st1" d="M99.9,74.4h19.4c1.6,0,3,1.3,3,3v40.3c0,1.6-1.3,3-3,3H99.9c-1.6,0-3-1.3-3-3V77.4
			C96.9,75.7,98.3,74.4,99.9,74.4z"/>
	</g>
</g>
</svg>
