<svg xmlns="http://www.w3.org/2000/svg" width="32" height="16"><g fill="none" fill-rule="evenodd"><path fill="#111214" d="M2.564 0h26.872c.892 0 1.215.093 1.54.267.327.174.583.43.757.756.174.326.267.65.267 1.54v10.873c0 .892-.093 1.215-.267 1.54a1.81 1.81 0 01-.756.757c-.326.174-.65.267-1.54.267H2.563c-.892 0-1.215-.093-1.54-.267a1.817 1.817 0 01-.757-.756C.093 14.65 0 14.327 0 13.437V2.563c0-.892.093-1.215.267-1.54a1.81 1.81 0 01.756-.757C1.35.093 1.673 0 2.563 0z"/><path fill="#FFF" fill-rule="nonzero" d="M5.573 12l3.51-8.001h1.314L13.906 12h-1.852l-.652-1.486H8.053L7.402 12H5.573zm4.15-5.372L8.67 9.017h2.08l-1.029-2.39zm12.2-2.629L18.347 12h-1.234l-3.76-8.001h1.954l2.434 5.304 2.275-5.304h1.909zM23.21 12V3.999h1.772V12H23.21z"/></g></svg>