<svg xmlns="http://www.w3.org/2000/svg" width="32" height="16"><g fill="none" fill-rule="evenodd"><path fill="#3060BF" d="M2.564 0h26.872c.892 0 1.215.093 1.54.267.327.174.583.43.757.756.174.326.267.65.267 1.54v10.873c0 .892-.093 1.215-.267 1.54a1.81 1.81 0 01-.756.757c-.326.174-.65.267-1.54.267H2.563c-.892 0-1.215-.093-1.54-.267a1.817 1.817 0 01-.757-.756C.093 14.65 0 14.327 0 13.437V2.563c0-.892.093-1.215.267-1.54a1.81 1.81 0 01.756-.757C1.35.093 1.673 0 2.563 0z"/><path fill="#FFF" fill-rule="nonzero" d="M4.454 5.656V4h6.904v1.657H8.786V12H7.015V5.656h-2.56zM19.7 4l-2.892 3.943L19.791 12h-2.16l-1.875-2.617L13.87 12h-2.16l2.994-4.058L11.835 4h2.138l1.794 2.48L17.55 4h2.15zm.443 1.657V4h6.904v1.657h-2.572V12h-1.772V5.656h-2.56z"/></g></svg>