<svg width="20" height="17" xmlns="http://www.w3.org/2000/svg"><path d="M15 14.707a2 2 0 112-2c0 1.103-.897 2-2 2m-10 0a2 2 0 112-2c0 1.103-.897 2-2 2M19.707 2l-2-2-1.414 1.414L18 3.121v6.969a3.976 3.976 0 00-3-1.383c-1.858 0-3.41 1.279-3.857 3H8.857c-.447-1.721-1.999-3-3.857-3-1.2 0-2.266.543-3 1.383V3.121l1.707-1.707L2.293 0l-2 2A.996.996 0 000 2.707v10c0 .547.382 1 1.143 1 .447 1.721 1.999 3 3.857 3s3.41-1.279 3.857-3h2.286c.447 1.721 1.999 3 3.857 3s3.41-1.279 3.857-3c.761 0 1.143-.453 1.143-1v-10A.996.996 0 0019.707 2" fill="#FFF" fill-rule="evenodd"/></svg>