<svg width="18" height="18" fill="none" xmlns="http://www.w3.org/2000/svg"><path opacity=".8" fill-rule="evenodd" clip-rule="evenodd" d="M0 8.818c3.702-.043 5.774-.285 7.154-1.664C8.533 5.774 8.775 3.702 8.818 0A9.002 9.002 0 000 8.818zM9.355.005c.043 3.7.286 5.77 1.665 7.149C12.377 8.51 14.405 8.767 18 8.816A9.002 9.002 0 009.355.006zm8.64 9.353c-3.59.048-5.619.305-6.976 1.662-1.356 1.357-1.613 3.384-1.661 6.975a9.002 9.002 0 008.637-8.637zM8.815 18c-.048-3.594-.304-5.623-1.661-6.98C5.775 9.64 3.704 9.398.005 9.355A9.002 9.002 0 008.815 18z" fill="#fff"/></svg>