<svg xmlns="http://www.w3.org/2000/svg" width="32" height="16"><g fill="none" fill-rule="evenodd"><path fill="#4C87D9" d="M2.564 0h26.872c.892 0 1.215.093 1.54.267.327.174.583.43.757.756.174.326.267.65.267 1.54v10.873c0 .892-.093 1.215-.267 1.54a1.81 1.81 0 01-.756.757c-.326.174-.65.267-1.54.267H2.563c-.892 0-1.215-.093-1.54-.267a1.817 1.817 0 01-.757-.756C.093 14.65 0 14.327 0 13.437V2.563c0-.892.093-1.215.267-1.54a1.81 1.81 0 01.756-.757C1.35.093 1.673 0 2.563 0z"/><path fill="#FFF" fill-rule="nonzero" d="M3.833 12V3.999h1.646l2.56 3.829 2.435-3.829h1.6V12h-1.772V7.2l-2.08 3.188h-.469L5.604 7.165V12H3.833zm11.498 0H13.56V3.999h3.314c2.72 0 3.395 1.44 3.395 2.755 0 1.348-.869 2.731-3.395 2.731h-1.543V12zm1.59-6.344h-1.59v2.172h1.52c1.11 0 1.578-.411 1.578-1.086 0-.628-.389-1.086-1.509-1.086zm7.806 3.464v-1.6h3.726v3.234c-.777.857-1.943 1.383-3.223 1.383-2.515 0-4.332-1.657-4.332-4.138 0-2.285 1.669-4.137 4.137-4.137 1.372 0 2.675.571 3.235 1.44l-1.223 1.097c-.457-.514-1.12-.823-1.943-.823-1.452 0-2.366.915-2.366 2.424 0 1.565 1.052 2.423 2.503 2.423.526 0 1.086-.149 1.509-.458V9.12h-2.023z"/></g></svg>