<svg id="a" xmlns="http://www.w3.org/2000/svg" viewBox="0 0 200 56"><path d="M50.8 12.7h1.5l3.6 4.7 3.5-4.7h1.5v10.1h-1.7v-7l-3.1 4h-.4l-3.1-4v7h-1.7V12.7zm15.4 8.4h.3c.3 0 .6-.4 1-1l-4.8-7.5h2.1l3.5 5.7 2.7-5.7h1.8l-3.7 7.8c-.7 1.5-1.4 2.4-2.7 2.4s-.6 0-1-.2l.7-1.5zm7.5-.3l1.4-1c.7 1 1.8 1.5 3.3 1.5s2.3-.7 2.3-1.6-.9-1.3-2.3-1.3h-1.7v-1.6h1.6c1.2 0 2.1-.5 2.1-1.3s-1.1-1.3-2.2-1.3-2.1.5-2.7 1.3l-1.4-.9c.8-1.1 2.2-2 4.3-2s3.8 1 3.8 2.9-.6 1.6-1.4 2.1c1.2.4 1.7 1.3 1.7 2.2 0 2-1.8 3.2-4 3.2s-3.8-.7-4.7-2.1zm11-8.1h7.5v1.6h-5.8v2.5h5.4v1.6h-5.4v2.7h5.9v1.6h-7.6v-10zm10.1 10.1V12.7h1.7v7l5.5-7h1.5v10.1h-1.7v-7l-5.5 7h-1.5zm3.1-13.1c.2.6.6.9 1.2.9s1.1-.3 1.2-.9h1.6c-.1 1.3-1.3 2.3-2.8 2.3s-2.7-1-2.9-2.3h1.6zM58.8 28.9h-5.6v2.3H56c2.4 0 3.6 1.1 3.6 3s-1.5 3.2-4.1 3.2h-4V27.3h7.4v1.6zm-5.6 3.9v2.9h2.3c1.5 0 2.2-.4 2.2-1.5s-.6-1.4-2.1-1.4h-2.4zm11.9-5.5h1.3l4.4 10.1H69l-1-2.2h-4.6l-1 2.2h-1.8L65 27.3zm-1 6.4h3.3l-1.7-3.8-1.7 3.8zm15.5-.6h-5.3v4.3h-1.7V27.3h1.7v4.2h5.3v-4.2h1.7v10.1h-1.7v-4.3zm4.5-5.8h1.7v4.4l4.5-4.4h2.3L88 31.8l4.9 5.6h-2.3L86.7 33l-.9.9v3.5h-1.7V27.3zm13.7 0h1.3l4.4 10.1h-1.8l-1-2.2h-4.6l-1 2.2h-1.8l4.4-10.1zm-1 6.4h3.3l-1.7-3.8-1.7 3.8zM39.9 52.6V42.5H44c3.4 0 4.2 1.7 4.2 3.3s-1.1 3.3-4.2 3.3h-2.3v3.5H40zm1.7-8.5v3.4h2.3c1.7 0 2.4-.7 2.4-1.7s-.6-1.7-2.3-1.7h-2.4zm13.3-1.7c2.9 0 5.2 2.2 5.2 5.2s-2.3 5.2-5.2 5.2-5.2-2.2-5.2-5.2 2.3-5.2 5.2-5.2zm0 8.6c1.9 0 3.3-1.4 3.3-3.5S56.6 44 54.9 44s-3.3 1.4-3.3 3.5 1.6 3.5 3.3 3.5zm16.1-.1c-.8 1.2-2.4 1.9-4.1 1.9-3.2 0-5.2-2-5.2-5.2s2-5.2 5.2-5.2 3.3.7 4 1.7l-1.2 1.1C69 44.4 68.1 44 67 44c-2.1 0-3.4 1.4-3.4 3.5S65 51 67.1 51s2.2-.5 2.9-1.3l1 1.1zm10.3 0c-.8 1.2-2.4 1.9-4.1 1.9-3.2 0-5.2-2-5.2-5.2s2-5.2 5.2-5.2 3.3.7 4 1.7L80 45.2c-.7-.8-1.6-1.2-2.7-1.2-2.1 0-3.4 1.4-3.4 3.5s1.4 3.5 3.5 3.5 2.2-.5 2.9-1.3l1 1.1zm2 1.7V42.5H85v7l5.5-7H92v10.1h-1.7v-7l-5.5 7h-1.5zm11.5 0V42.5h1.7v7l5.5-7h1.5v10.1h-1.7v-7l-5.5 7h-1.5zm52.7-35.4c-.6-7.2-4-11.2-8.1-13.3-6.7-3.5-14.9-2.1-20.3 3.3l-4.4 4.4v11.6h10V11.7h6.3c3.3 0 6 2.7 6 6v.2c0 3.1-2.5 5.6-5.6 5.6h-16.6c-3.3.4-5.9 3.2-5.9 6.6v3.5h25c2.7-.3 11.6-2.1 13.6-13.7.1-.9.2-1.8.1-2.6zm-22.7 19.4v-2.9h-10v2.9h-1c-2.7 0-4.8 2.1-4.8 4.8V45h5.8v7.7h4c3.4 0 6.1-2.7 6.1-6.1V45h7.4c2.7 0 4.8-2.1 4.8-4.8v-3.6h-12.2z" fill="#002738"/></svg>