<svg xmlns="http://www.w3.org/2000/svg" width="190" height="78"><g fill="none" fill-rule="evenodd"><path fill="#E6E6E6" d="M0 4h56v74H0z"/><path fill="#A3917C" d="M4 0h56v1H4V0zm0 24h56v50H4V24z"/><path fill="#FAFAFA" d="M4 1h56v23H4V1zm8 27h40v42H12V28z"/><path fill="#8A8F9B" d="M54 9.768a2.768 2.768 0 1 0 0-5.536 2.768 2.768 0 0 0 0 5.536zM54 4a3 3 0 1 1 0 6 3 3 0 0 1 0-6zm0 5.143c-.09 0-.146-.068-.15-.161-.02.042-.045.07-.084.079a.176.176 0 0 1-.194-.1c-.018-.038-.012-.079 0-.126-.042.069-.115.086-.178.053-.088-.045-.12-.127-.084-.222l.324-.848c.01-.026.018-.052.029-.078.01-.023.015-.04.024-.053a.092.092 0 0 1 .026-.026c-.168.02-.248.094-.292.126-.012.01-.012.01-.057-.005a.072.072 0 0 0-.06.007.443.443 0 0 0-.058.041c-.06.053-.122.103-.179.16-.026.025-.064.07-.059.11.004.038.087.125.111.15.059.062-.03.178-.148.167.032-.037.04-.068.035-.095-.011 0-.034.002-.055-.02-.025-.025-.014-.1-.038-.125-.041-.045-.177-.05-.258-.053-.034-.002-.07-.012-.067-.07-.051.003-.062.046-.062.084-.044-.028-.082-.161.081-.192-.027-.027-.073-.038-.101-.002-.027-.05.04-.145.161-.091 0 0 .055-.08.219.124l.06-.054c.063-.064.222-.238.222-.238 0-.097.014-.286.13-.4.049-.048.096-.074.2-.095 0 0-.05-.088-.058-.122-.09.101-.274.131-.274-.04-.15.166-.288.077-.288-.027a.745.745 0 0 1-.032.154c-.019.056-.087.27-.264.27-.004.075-.004.32-.216.375-.009.003-.02.006-.026.014-.085.118-.44.241-.483.208.028-.022.071-.05.078-.19.004-.09.013-.564.013-1.231 0-.236.023-1.002.704-1.108.103-.016.205-.008.293.065.12.1.179.267.108.456l-.007.02c-.024.045-.014.084.017.118a.33.33 0 0 0 .203.116c.05.006.092-.018.125-.057a.606.606 0 0 0 .147-.31c.036-.23-.02-.345-.023-.352a.384.384 0 0 0-.309-.227c-.062-.13-.242-.078-.242-.078-.045.01-.06.025-.072.05 0 0-.078-.134-.004-.187.074-.054.24-.075.24-.075 0-.087.129-.155.362-.108.282.056.342-.067.342-.067a.266.266 0 0 1-.124.248c.107.13.256.387.292.752a1.41 1.41 0 0 1 .292-.752.266.266 0 0 1-.124-.248s.06.123.342.067c.233-.047.362.02.362.108 0 0 .166.021.24.075.074.053-.004.186-.004.186-.012-.024-.027-.038-.072-.05 0 0-.18-.05-.242.08a.384.384 0 0 0-.31.226c-.002.007-.054.121-.022.351.017.121.07.224.147.311.033.039.075.063.125.057a.33.33 0 0 0 .203-.116c.031-.034.04-.073.017-.118l-.007-.02a.393.393 0 0 1 .108-.456c.088-.073.19-.081.293-.065.68.106.704.872.704 1.108 0 .667.009 1.14.013 1.232.007.138.05.167.078.189-.044.033-.398-.09-.483-.208-.006-.008-.017-.011-.026-.014-.212-.055-.212-.3-.216-.374-.177 0-.245-.215-.264-.27A.745.745 0 0 1 55.122 7c0 .104-.138.193-.288.027 0 .171-.183.141-.274.04-.008.034-.059.122-.059.122.105.021.152.047.201.095.116.114.13.303.13.4 0 0 .16.174.223.238.018.02.039.036.06.054.163-.204.218-.124.218-.124.12-.054.188.042.161.09-.028-.035-.074-.024-.101.003.163.03.125.164.081.192 0-.038-.01-.08-.062-.085.002.06-.033.07-.067.071-.081.004-.217.008-.258.053-.024.025-.013.1-.038.126-.021.021-.044.018-.055.019-.004.027.003.058.035.095-.118.01-.207-.105-.148-.166.024-.026.107-.113.11-.15.006-.04-.032-.086-.058-.112-.057-.056-.118-.106-.179-.159a.443.443 0 0 0-.058-.041.072.072 0 0 0-.06-.007c-.045.015-.045.014-.057.005-.044-.032-.124-.106-.292-.126.011.008.02.016.026.026.009.013.015.03.024.053l.03.078.323.848c.036.095.004.177-.084.222-.063.033-.136.016-.178-.053.012.047.018.088 0 .127a.176.176 0 0 1-.195.099c-.038-.009-.064-.037-.084-.079-.003.093-.058.16-.149.16z"/><path fill="#525969" fill-rule="nonzero" d="M11.718 14.875h-.679L10.934 14h-3.15l-.105.875H7v-1.729h.518c.033-.051.086-.166.161-.343.075-.177.15-.428.224-.753.075-.324.138-.73.189-1.218a15.76 15.76 0 0 0 .07-1.732h2.933v4.046h.623v1.729zm-1.582-1.729V9.954H9.051c-.028.83-.094 1.51-.2 2.04-.105.53-.21.914-.318 1.152h1.603zM12.065 9.1h2.905v.854h-1.946v1.141h1.77v.854h-1.77v1.197h1.98V14h-2.94V9.1zm6.212 2.849h-1.792V14h-.959V9.1h.96v1.995h1.791V9.1h.96V14h-.96v-2.051zM19.891 9.1h.959v1.757c.023-.005.062-.01.115-.018.054-.007.112-.012.175-.017l.193-.014a3.122 3.122 0 0 1 .847.063c.214.047.405.13.57.248.166.12.298.28.396.483.098.204.147.461.147.774 0 .56-.174.982-.522 1.267-.347.285-.846.427-1.494.427a9.74 9.74 0 0 1-.263-.004 7.256 7.256 0 0 1-.36-.017 14.16 14.16 0 0 1-.396-.035 2.671 2.671 0 0 1-.367-.063V9.1zm1.435 4.116c.13 0 .254-.013.37-.038a.835.835 0 0 0 .309-.134.633.633 0 0 0 .206-.248.873.873 0 0 0 .074-.378.821.821 0 0 0-.08-.388.622.622 0 0 0-.21-.235.779.779 0 0 0-.305-.112 2.302 2.302 0 0 0-.364-.028c-.033 0-.073.002-.12.007l-.14.014a1.75 1.75 0 0 0-.216.035v1.463c.051.014.12.024.206.032.087.007.176.01.27.01zm5.204-3.262h-1.89V14h-.959V9.1h2.85v.854zm3.02 1.33l.057-.637h-.035l-.33.658L27.417 14h-.721V9.1h.959v2.667l-.07.658h.042l.343-.679L29.796 9.1h.714V14h-.96v-2.716zm-19.274 7l.056-.637h-.035l-.329.658L8.141 21H7.42v-4.9h.959v2.667l-.07.658h.042l.343-.679 1.827-2.646h.714V21h-.959v-2.716zm4.403.623h-.252V21h-.959v-4.9h.96v2.17l.223-.098 1.351-2.072h1.092l-1.428 2.058-.378.266.392.273L17.311 21h-1.183l-1.449-2.093zm2.937-2.758c.196-.037.412-.066.647-.088.236-.02.47-.031.704-.031.242 0 .486.02.731.06.245.04.466.118.662.238.196.119.356.284.48.497.123.212.185.488.185.829 0 .308-.054.568-.161.78a1.49 1.49 0 0 1-.427.522c-.178.135-.38.233-.606.294-.226.06-.46.091-.703.091h-.112a3.873 3.873 0 0 1-.441-.028V21h-.96v-4.851zm1.428.707a3.208 3.208 0 0 0-.47.035v1.589a1.739 1.739 0 0 0 .325.028h.089c.126 0 .25-.012.374-.035a.925.925 0 0 0 .333-.13.675.675 0 0 0 .234-.262.956.956 0 0 0 .088-.441.776.776 0 0 0-.084-.381.688.688 0 0 0-.22-.242.859.859 0 0 0-.312-.126 1.816 1.816 0 0 0-.357-.035zm2.383-.756h2.905v.854h-1.946v1.141h1.771v.854h-1.77v1.197h1.98V21h-2.94v-4.9zm7.76 5.775h-.68L28.404 21h-3.15l-.105.875h-.68v-1.729h.519c.033-.051.086-.166.16-.343.076-.177.15-.428.225-.753.075-.324.138-.73.189-1.218a15.76 15.76 0 0 0 .07-1.732h2.933v4.046h.623v1.729zm-1.582-1.729v-3.192H26.52c-.028.83-.095 1.51-.2 2.04-.105.53-.21.914-.318 1.152h1.603zm4.784-1.862l.056-.637h-.035l-.329.658L30.254 21h-.72v-4.9h.958v2.667l-.07.658h.042l.343-.679 1.827-2.646h.714V21h-.959v-2.716zm5.093-1.33h-1.428V21h-.959v-4.046H33.66V16.1h3.822v.854z"/><path fill="#7E6C56" fill-rule="nonzero" d="M7.987 6h-.886v-.101a1.57 1.57 0 0 1 .287-.085V3.74a.921.921 0 0 1-.287-.087V3.55h.886v.102a.754.754 0 0 1-.126.052c-.044.014-.09.026-.136.035v.913h1.098V3.74a1.8 1.8 0 0 1-.138-.038 1.058 1.058 0 0 1-.124-.05V3.55h.886v.102a.578.578 0 0 1-.139.054c-.05.013-.1.024-.149.033v2.075c.054.01.105.021.154.035a.88.88 0 0 1 .133.05V6h-.885v-.101c.084-.038.171-.066.262-.085v-.98H7.724v.98a1.299 1.299 0 0 1 .263.085V6zm2.9-.458c0 .05.001.095.003.133l.007.119.242.035v.073a1.512 1.512 0 0 1-.399.133h-.088a.538.538 0 0 1-.042-.177 5.042 5.042 0 0 1-.01-.212h-.018a.484.484 0 0 1-.159.27.533.533 0 0 1-.352.126.482.482 0 0 1-.348-.13.45.45 0 0 1-.135-.339.49.49 0 0 1 .065-.264.439.439 0 0 1 .19-.163 1.09 1.09 0 0 1 .312-.086 5.85 5.85 0 0 1 .43-.04c.01-.1.013-.19.01-.271a.651.651 0 0 0-.039-.207.289.289 0 0 0-.098-.133.281.281 0 0 0-.17-.047c-.032 0-.07.002-.11.005a.407.407 0 0 0-.12.03l-.165.42h-.091A2.464 2.464 0 0 1 9.74 4.6a1.345 1.345 0 0 1-.034-.22 1.213 1.213 0 0 1 .658-.172c.12 0 .214.017.286.05a.403.403 0 0 1 .236.31c.011.066.017.131.017.197 0 .14-.003.274-.008.404-.006.13-.01.253-.01.373zm-.676.283c.059 0 .11-.012.154-.035a.414.414 0 0 0 .112-.084.509.509 0 0 0 .112-.186v-.367a2.14 2.14 0 0 0-.332.021.56.56 0 0 0-.203.066.242.242 0 0 0-.102.114.407.407 0 0 0-.028.156c0 .1.026.178.077.233a.274.274 0 0 0 .21.082zm1.06-1.4a.549.549 0 0 1-.097-.035.98.98 0 0 1-.09-.049V4.25h.732v.088a.769.769 0 0 1-.2.087l.449 1.036.066.217h.007l.053-.22.332-1.033a.49.49 0 0 1-.192-.084V4.25h.598v.091a.701.701 0 0 1-.2.084L12.185 6c-.056.15-.11.27-.16.362-.05.092-.1.165-.15.219a.51.51 0 0 1-.154.117.722.722 0 0 1-.17.054.95.95 0 0 1-.068-.146 2.147 2.147 0 0 1-.05-.154l.045-.085h.364a.638.638 0 0 0 .108-.216L12 6l-.729-1.575zm1.576-.175h.752v.091a.621.621 0 0 1-.207.084v.42c0 .11.024.198.07.264.048.067.126.1.235.1a.62.62 0 0 0 .191-.03.888.888 0 0 0 .177-.079v-.675a.622.622 0 0 1-.207-.084V4.25h.753v.091a.643.643 0 0 1-.231.084v1.404c.047.011.089.023.126.036a.612.612 0 0 1 .105.047V6h-.826v-.088a1.32 1.32 0 0 1 .28-.083v-.627a.686.686 0 0 1-.2.149.647.647 0 0 1-.29.058.494.494 0 0 1-.368-.133.495.495 0 0 1-.13-.361v-.49a.678.678 0 0 1-.23-.084V4.25zM15.54 6h-.752v-.088a.574.574 0 0 1 .108-.047l.123-.037V4.425a3.05 3.05 0 0 1-.123-.037.574.574 0 0 1-.108-.047V4.25h.752v.091a.823.823 0 0 1-.206.084v.612h.777v-.612a.498.498 0 0 1-.21-.084V4.25h.756v.091a.643.643 0 0 1-.231.084v1.404c.042.009.082.02.122.031a.36.36 0 0 1 .109.052V6H15.9v-.088a.498.498 0 0 1 .21-.083V5.19h-.777v.638a.544.544 0 0 1 .206.083V6zm1.84-1.036c.04-.005.083-.01.132-.018.05-.007.12-.01.214-.01.175 0 .316.04.422.123.106.081.159.21.159.385a.568.568 0 0 1-.05.246.494.494 0 0 1-.143.179.632.632 0 0 1-.217.108.985.985 0 0 1-.276.037c-.063 0-.134-.002-.212-.007A4.21 4.21 0 0 0 17.16 6h-.326v-.088a.557.557 0 0 1 .116-.052c.037-.012.076-.022.115-.032V4.425a.554.554 0 0 1-.122-.033 1.15 1.15 0 0 1-.109-.051V4.25h.756v.091a.817.817 0 0 1-.21.084v.539zm0 .885l.09.007c.03.003.062.004.095.004.264 0 .395-.14.395-.42 0-.065-.01-.12-.03-.166a.276.276 0 0 0-.08-.109.315.315 0 0 0-.117-.058.548.548 0 0 0-.14-.017c-.033 0-.068 0-.105.002a.657.657 0 0 0-.109.012v.745zM19.17 6h-.752v-.088c.033-.016.065-.031.098-.045a.973.973 0 0 1 .108-.038V4.425a.483.483 0 0 1-.21-.084V4.25h.756v.091a.41.41 0 0 1-.101.047 1.99 1.99 0 0 1-.13.037v1.404a1.15 1.15 0 0 1 .231.084V6zm.177-1.75h.742v.091a.93.93 0 0 1-.21.084v.959l-.038.325h.017l.137-.262.749-1.197h.472v.091a.727.727 0 0 1-.23.084v1.404c.044.011.086.023.125.036a.51.51 0 0 1 .105.047V6h-.742v-.088a.824.824 0 0 1 .21-.083V4.827l.035-.276h-.017l-.133.263L19.828 6h-.48v-.088a1.15 1.15 0 0 1 .116-.047c.037-.013.076-.025.115-.037V4.425a.567.567 0 0 1-.23-.084V4.25zm.97-.21a.938.938 0 0 1-.287-.037.497.497 0 0 1-.179-.096.32.32 0 0 1-.093-.138.5.5 0 0 1-.026-.16.37.37 0 0 1 .123-.066.677.677 0 0 1 .14-.028l.087.046v.311a.439.439 0 0 0 .116.03.944.944 0 0 0 .36-.02v-.321l.088-.046a.531.531 0 0 1 .138.031.327.327 0 0 1 .107.064c0 .053-.01.106-.028.159a.341.341 0 0 1-.093.138.48.48 0 0 1-.175.096.893.893 0 0 1-.278.037zm3.545.21h.606v.091a.732.732 0 0 1-.2.084 7.335 7.335 0 0 1-.23.301c-.08.098-.158.196-.235.294l.112.158a35.818 35.818 0 0 0 .31.43c.057.077.113.15.17.22l.143.084V6h-.371l-.098-.08a3.385 3.385 0 0 1-.128-.188 13.37 13.37 0 0 1-.257-.416 4.04 4.04 0 0 0-.091-.146h-.168v.659a.898.898 0 0 1 .21.083V6h-.704v-.088l.097-.045a.833.833 0 0 1 .1-.038v-.68l-.193.035a2.78 2.78 0 0 0-.084.144l-.114.203c-.04.072-.083.143-.128.214-.044.07-.087.128-.13.175l-.104.08h-.364v-.088l.16-.083c.06-.068.116-.14.17-.214a11.781 11.781 0 0 0 .291-.415c.04-.062.078-.113.11-.155a6.962 6.962 0 0 1-.49-.62.465.465 0 0 1-.175-.084V4.25h.606v.091a.612.612 0 0 1-.175.084c.063.112.131.218.205.317l.232.317h.182v-.634a.5.5 0 0 1-.196-.084V4.25h.68v.091a.408.408 0 0 1-.186.084v.655l.192-.035.223-.31c.066-.095.132-.198.197-.31a1.89 1.89 0 0 1-.09-.035.392.392 0 0 1-.085-.049V4.25zm.727.175a.549.549 0 0 1-.097-.035.98.98 0 0 1-.089-.049V4.25h.732v.088a.769.769 0 0 1-.2.087l.448 1.036.067.217h.007l.052-.22.333-1.033a.49.49 0 0 1-.193-.084V4.25h.599v.091a.701.701 0 0 1-.2.084L25.503 6a2.74 2.74 0 0 1-.16.362c-.05.092-.1.165-.15.219a.51.51 0 0 1-.154.117.722.722 0 0 1-.17.054.95.95 0 0 1-.068-.146 2.147 2.147 0 0 1-.05-.154l.045-.085h.364a.638.638 0 0 0 .109-.216L25.318 6l-.728-1.575zM27 6.7h-.778v-.088c.08-.037.157-.065.231-.083V4.453l-.23-.028v-.091c.074-.033.15-.059.229-.079a2.52 2.52 0 0 1 .229-.047h.087V4.6h.004a.7.7 0 0 1 .196-.285.492.492 0 0 1 .329-.107c.208 0 .369.069.483.207.114.137.171.361.171.671 0 .148-.019.28-.057.4a.85.85 0 0 1-.165.3.722.722 0 0 1-.259.19.835.835 0 0 1-.338.066.981.981 0 0 1-.203-.016.844.844 0 0 1-.16-.054v.556a.556.556 0 0 1 .23.085V6.7zm.185-2.275a.356.356 0 0 0-.273.109.624.624 0 0 0-.144.297v.98c.042.026.09.045.142.058a.88.88 0 0 0 .205.019c.077 0 .146-.02.208-.06a.498.498 0 0 0 .158-.168.907.907 0 0 0 .1-.253 1.39 1.39 0 0 0 .034-.32 1.43 1.43 0 0 0-.022-.265.675.675 0 0 0-.074-.21.37.37 0 0 0-.133-.138.387.387 0 0 0-.201-.049zM28.888 6h-.753v-.088a.574.574 0 0 1 .109-.047l.122-.037V4.425a3.05 3.05 0 0 1-.122-.037.574.574 0 0 1-.109-.047V4.25h.753v.091a.823.823 0 0 1-.207.084v.612h.777v-.612a.498.498 0 0 1-.21-.084V4.25h.756v.091a.643.643 0 0 1-.23.084v1.404c.041.009.082.02.122.031a.36.36 0 0 1 .108.052V6h-.756v-.088a.498.498 0 0 1 .21-.083V5.19h-.777v.638a.554.554 0 0 1 .207.083V6zm2.591-.458c0 .05.002.095.004.133l.007.119.241.035v.073a1.512 1.512 0 0 1-.399.133h-.087a.538.538 0 0 1-.042-.177 5.042 5.042 0 0 1-.01-.212h-.018a.484.484 0 0 1-.16.27.533.533 0 0 1-.351.126.482.482 0 0 1-.348-.13.45.45 0 0 1-.135-.339.49.49 0 0 1 .065-.264.439.439 0 0 1 .19-.163 1.09 1.09 0 0 1 .312-.086 5.85 5.85 0 0 1 .43-.04c.01-.1.013-.19.01-.271a.651.651 0 0 0-.04-.207.289.289 0 0 0-.097-.133.281.281 0 0 0-.17-.047c-.033 0-.07.002-.11.005a.407.407 0 0 0-.121.03l-.165.42h-.09a2.464 2.464 0 0 1-.062-.217 1.345 1.345 0 0 1-.033-.22 1.196 1.196 0 0 1 .658-.172c.119 0 .214.017.285.05a.403.403 0 0 1 .236.31c.012.066.018.131.018.197 0 .14-.003.274-.009.404-.006.13-.009.253-.009.373zm-.675.283a.33.33 0 0 0 .154-.035.414.414 0 0 0 .112-.084.509.509 0 0 0 .112-.186v-.367c-.135 0-.246.007-.333.021a.56.56 0 0 0-.203.066.242.242 0 0 0-.101.114.407.407 0 0 0-.028.156c0 .1.026.178.077.233a.274.274 0 0 0 .21.082zm1.272-.126a.953.953 0 0 0 .088-.224c.025-.093.047-.196.064-.308a4.49 4.49 0 0 0 .055-.707.665.665 0 0 1-.128-.053 1.041 1.041 0 0 1-.107-.066V4.25h1.432v.091a.727.727 0 0 1-.231.084v1.404a1.091 1.091 0 0 1 .23.083V6h-.752v-.088a.534.534 0 0 1 .207-.083V4.404h-.462a4.99 4.99 0 0 1-.074.804 2.89 2.89 0 0 1-.09.377 1.143 1.143 0 0 1-.137.296.403.403 0 0 1-.144.142.212.212 0 0 1-.143.026.705.705 0 0 1-.154-.333l.049-.087.297.07z"/><path fill="#7E6C56" d="M18 32.7h8v.6h-8v-.6zm20 0h8v.6h-8v-.6zm-10-.3h8v1.2h-8v-1.2z"/><path fill="#BCC1CC" d="M18 41h28v1H18v-1zm0 4h28v1H18v-1zm0 4h28v1H18v-1zm0 4h28v1H18v-1zm0 4h28v1H18v-1zm0 4h28v1H18v-1zm0 4h28v1H18v-1z"/><path fill="#7E6C56" fill-rule="nonzero" d="M83.542 14.94H80v-.406c.373-.15.756-.261 1.148-.336V5.896A3.685 3.685 0 0 1 80 5.546V5.14h3.542v.406a3.015 3.015 0 0 1-.504.21c-.177.056-.36.103-.546.14V9.55h4.396V5.896a7.2 7.2 0 0 1-.553-.154 4.232 4.232 0 0 1-.497-.196V5.14h3.542v.406a2.314 2.314 0 0 1-.553.217 9.8 9.8 0 0 1-.595.133v8.302c.215.037.42.084.616.14a3.5 3.5 0 0 1 .532.196v.406h-3.542v-.406c.336-.15.686-.261 1.05-.336v-3.92h-4.396v3.92c.187.037.369.084.546.14.177.056.345.121.504.196v.406zm11.6-1.834c0 .205.004.383.013.532.01.15.019.308.028.476l.966.14v.294a6.048 6.048 0 0 1-1.596.532h-.35a2.152 2.152 0 0 1-.168-.707 20.167 20.167 0 0 1-.042-.847h-.07a1.93 1.93 0 0 1-.217.567 1.905 1.905 0 0 1-.42.511c-.173.15-.376.27-.609.364-.233.093-.5.14-.798.14-.57 0-1.034-.173-1.393-.518-.36-.345-.539-.798-.539-1.358 0-.43.086-.782.26-1.057.172-.275.426-.492.762-.651.336-.159.751-.273 1.246-.343s1.069-.124 1.722-.161c.037-.401.05-.763.035-1.085a2.605 2.605 0 0 0-.154-.826 1.155 1.155 0 0 0-.392-.532c-.173-.126-.399-.189-.679-.189-.13 0-.278.007-.44.021a1.628 1.628 0 0 0-.484.119l-.658 1.68h-.364a9.855 9.855 0 0 1-.245-.868 5.38 5.38 0 0 1-.133-.882 4.732 4.732 0 0 1 1.183-.504 5.377 5.377 0 0 1 1.45-.182c.475 0 .855.068 1.14.203.285.135.502.31.651.525.15.215.247.453.294.714.047.261.07.523.07.784 0 .56-.012 1.099-.035 1.617a33.176 33.176 0 0 0-.035 1.491zm-2.703 1.134c.233 0 .439-.047.616-.14.177-.093.327-.205.448-.336a2.035 2.035 0 0 0 .448-.742v-1.47c-.541 0-.985.028-1.33.084-.345.056-.616.145-.812.266a.97.97 0 0 0-.406.455 1.63 1.63 0 0 0-.112.623c0 .401.103.712.308.931.205.22.485.329.84.329zm4.235-5.6a2.195 2.195 0 0 1-.385-.14 3.917 3.917 0 0 1-.357-.196V7.94h2.926v.35a3.11 3.11 0 0 1-.798.35l1.792 4.144.266.868h.028l.21-.882 1.33-4.13a1.962 1.962 0 0 1-.77-.336V7.94h2.394v.364c-.196.13-.462.243-.798.336l-2.184 6.3a11.7 11.7 0 0 1-.637 1.449c-.2.369-.401.66-.602.875a2.04 2.04 0 0 1-.616.469 2.9 2.9 0 0 1-.679.217 3.802 3.802 0 0 1-.273-.588 8.589 8.589 0 0 1-.203-.616l.182-.336h1.456a2.55 2.55 0 0 0 .147-.217 2.44 2.44 0 0 0 .133-.259c.047-.103.098-.233.154-.392.056-.159.122-.36.196-.602l-2.912-6.3zm6.307-.7h3.01v.364c-.093.065-.21.128-.35.189-.14.06-.298.11-.476.147v1.68c0 .439.094.791.28 1.057.187.266.5.399.938.399.262 0 .516-.04.763-.119.248-.08.483-.184.707-.315V8.64a2.49 2.49 0 0 1-.826-.336V7.94h3.01v.364a2.58 2.58 0 0 1-.924.336v5.614c.187.047.355.096.504.147.15.051.29.114.42.189v.35h-3.304v-.35c.383-.159.756-.27 1.12-.336v-2.506a2.74 2.74 0 0 1-.798.595c-.308.154-.695.231-1.162.231-.634 0-1.124-.177-1.47-.532-.345-.355-.518-.835-.518-1.442V8.64a2.712 2.712 0 0 1-.924-.336V7.94zm10.774 7h-3.01v-.35c.13-.075.275-.138.434-.189.158-.051.322-.1.49-.147V8.64a12.197 12.197 0 0 1-.49-.147 2.298 2.298 0 0 1-.434-.189V7.94h3.01v.364c-.215.13-.49.243-.826.336v2.45h3.108V8.64a1.991 1.991 0 0 1-.84-.336V7.94h3.024v.364a2.58 2.58 0 0 1-.924.336v5.614c.168.037.33.08.49.126.158.047.303.117.434.21v.35h-3.024v-.35c.233-.168.513-.28.84-.336v-2.548h-3.108v2.548c.186.037.345.084.476.14.13.056.247.121.35.196v.35zm7.357-4.144c.158-.019.336-.042.532-.07.196-.028.48-.042.854-.042.7 0 1.262.163 1.687.49.424.327.637.84.637 1.54 0 .373-.068.702-.203.987a1.977 1.977 0 0 1-.567.714 2.528 2.528 0 0 1-.868.434 3.939 3.939 0 0 1-1.106.147c-.252 0-.535-.01-.847-.028a16.84 16.84 0 0 0-1.001-.028h-1.302v-.35a2.23 2.23 0 0 1 .462-.21c.15-.047.303-.089.462-.126V8.64a2.217 2.217 0 0 1-.49-.133 4.603 4.603 0 0 1-.434-.203V7.94h3.024v.364a3.27 3.27 0 0 1-.84.336v2.156zm0 3.542l.364.028c.121.01.247.014.378.014 1.054 0 1.582-.56 1.582-1.68 0-.261-.04-.483-.12-.665a1.103 1.103 0 0 0-.321-.434 1.262 1.262 0 0 0-.47-.231 2.192 2.192 0 0 0-.56-.07c-.13 0-.27.002-.42.007a2.656 2.656 0 0 0-.433.049v2.982zm7.168.602h-3.01v-.35c.13-.065.261-.126.392-.182a3.89 3.89 0 0 1 .434-.154V8.64c-.355-.065-.635-.177-.84-.336V7.94h3.024v.364a1.64 1.64 0 0 1-.406.189c-.159.051-.332.1-.518.147v5.614c.158.047.312.096.462.147.15.051.303.114.462.189v.35zm.707-7h2.968v.364a3.721 3.721 0 0 1-.357.168 5.146 5.146 0 0 1-.483.168v3.836l-.154 1.302h.07l.546-1.05 2.996-4.788h1.89v.364c-.299.168-.607.28-.924.336v5.614c.177.047.345.096.504.147.159.051.299.114.42.189v.35h-2.968v-.35c.261-.15.541-.261.84-.336V10.25l.14-1.106h-.07l-.532 1.05-2.968 4.746h-1.918v-.35c.159-.075.313-.138.462-.189.15-.051.303-.1.462-.147V8.64a2.266 2.266 0 0 1-.924-.336V7.94zm3.878-.84c-.467 0-.85-.049-1.148-.147a1.987 1.987 0 0 1-.714-.385 1.277 1.277 0 0 1-.371-.553 2.003 2.003 0 0 1-.105-.637c.15-.121.313-.21.49-.266.177-.056.364-.093.56-.112l.35.182v1.246c.13.056.285.096.462.119.177.023.34.035.49.035.093 0 .243-.01.448-.028.205-.019.373-.047.504-.084V5.182l.35-.182c.196.019.38.06.553.126.173.065.315.15.427.252 0 .215-.037.427-.112.637-.075.21-.198.394-.371.553a1.917 1.917 0 0 1-.7.385c-.294.098-.665.147-1.113.147zm14.182.84h2.422v.364c-.158.112-.424.224-.798.336-.298.41-.606.812-.924 1.204-.317.392-.63.784-.938 1.176.122.168.27.378.448.63s.371.525.581.819c.21.294.43.595.658.903.229.308.455.602.68.882l.573.336v.35h-1.484l-.392-.322a13.54 13.54 0 0 1-.51-.749 53.475 53.475 0 0 1-.54-.861l-.49-.805c-.15-.247-.27-.441-.364-.581h-.672v2.632c.29.075.57.187.84.336v.35h-2.814v-.35a9.38 9.38 0 0 1 .385-.182c.126-.056.26-.107.4-.154v-2.716l-.77.14c-.085.13-.197.322-.337.574-.14.252-.291.523-.455.812-.163.29-.333.574-.51.854a5.24 5.24 0 0 1-.519.7l-.42.322h-1.456v-.35l.644-.336c.234-.27.46-.555.68-.854a49.808 49.808 0 0 0 1.162-1.659c.163-.247.31-.455.44-.623a28.57 28.57 0 0 1-1.022-1.225 32.14 32.14 0 0 1-.938-1.253 1.862 1.862 0 0 1-.7-.336V7.94h2.422v.364c-.177.13-.41.243-.7.336.252.448.525.87.82 1.267.293.397.604.819.93 1.267h.728V8.64a1.998 1.998 0 0 1-.784-.336V7.94h2.716v.364c-.093.075-.198.14-.315.196a1.992 1.992 0 0 1-.427.14v2.618l.77-.14c.327-.448.623-.861.89-1.239.265-.378.529-.791.79-1.239a7.558 7.558 0 0 1-.364-.14 1.568 1.568 0 0 1-.336-.196V7.94zm2.905.7a2.195 2.195 0 0 1-.385-.14 3.917 3.917 0 0 1-.357-.196V7.94h2.926v.35a3.11 3.11 0 0 1-.798.35l1.792 4.144.266.868h.028l.21-.882 1.33-4.13a1.962 1.962 0 0 1-.77-.336V7.94h2.394v.364c-.196.13-.462.243-.798.336l-2.184 6.3a11.7 11.7 0 0 1-.637 1.449c-.2.369-.401.66-.602.875a2.04 2.04 0 0 1-.616.469 2.9 2.9 0 0 1-.679.217 3.802 3.802 0 0 1-.273-.588 8.588 8.588 0 0 1-.203-.616l.182-.336h1.456a2.55 2.55 0 0 0 .147-.217 2.44 2.44 0 0 0 .133-.259c.047-.103.098-.233.154-.392.056-.159.122-.36.196-.602l-2.912-6.3zm9.64 9.1h-3.108v-.35c.317-.15.625-.261.924-.336V8.752l-.924-.112v-.364a5.91 5.91 0 0 1 .917-.315c.312-.08.618-.142.917-.189h.35V9.34h.014c.186-.476.448-.856.784-1.141.336-.285.774-.427 1.316-.427.83 0 1.474.275 1.932.826.457.55.686 1.447.686 2.688 0 .588-.077 1.12-.231 1.596a3.4 3.4 0 0 1-.658 1.204 2.89 2.89 0 0 1-1.036.756 3.34 3.34 0 0 1-1.351.266 4.07 4.07 0 0 1-.812-.063 3.374 3.374 0 0 1-.644-.217v2.226a2.225 2.225 0 0 1 .924.336v.35zm.742-9.1c-.458 0-.822.145-1.092.434-.271.29-.462.686-.574 1.19v3.92c.168.103.357.18.567.231.21.051.483.077.819.077.308 0 .585-.08.833-.238a1.99 1.99 0 0 0 .63-.672c.172-.29.305-.628.399-1.015a5.47 5.47 0 0 0 .14-1.281c0-.383-.03-.735-.091-1.057a2.7 2.7 0 0 0-.294-.84 1.48 1.48 0 0 0-.532-.553c-.22-.13-.488-.196-.805-.196zm6.81 6.3h-3.01v-.35c.131-.075.276-.138.435-.189.158-.051.322-.1.49-.147V8.64a12.197 12.197 0 0 1-.49-.147 2.298 2.298 0 0 1-.434-.189V7.94h3.01v.364c-.215.13-.49.243-.826.336v2.45h3.108V8.64a1.991 1.991 0 0 1-.84-.336V7.94h3.024v.364a2.58 2.58 0 0 1-.924.336v5.614c.168.037.331.08.49.126.158.047.303.117.434.21v.35h-3.024v-.35c.233-.168.513-.28.84-.336v-2.548h-3.108v2.548c.186.037.345.084.476.14.13.056.247.121.35.196v.35zm10.368-1.834c0 .205.004.383.014.532.01.15.018.308.028.476l.966.14v.294a6.048 6.048 0 0 1-1.596.532h-.35a2.152 2.152 0 0 1-.168-.707 20.17 20.17 0 0 1-.042-.847h-.07a1.96 1.96 0 0 1-.217.567 1.905 1.905 0 0 1-.42.511c-.173.15-.376.27-.61.364-.233.093-.499.14-.797.14-.57 0-1.034-.173-1.393-.518-.36-.345-.54-.798-.54-1.358 0-.43.087-.782.26-1.057.172-.275.427-.492.763-.651.336-.159.751-.273 1.246-.343.494-.07 1.068-.124 1.722-.161.037-.401.049-.763.035-1.085a2.605 2.605 0 0 0-.154-.826 1.155 1.155 0 0 0-.392-.532c-.173-.126-.4-.189-.68-.189-.13 0-.277.007-.44.021a1.628 1.628 0 0 0-.483.119l-.658 1.68h-.364a9.855 9.855 0 0 1-.245-.868 5.38 5.38 0 0 1-.133-.882 4.732 4.732 0 0 1 1.183-.504 5.377 5.377 0 0 1 1.449-.182c.476 0 .856.068 1.14.203.285.135.502.31.652.525.15.215.247.453.294.714.046.261.07.523.07.784 0 .56-.012 1.099-.035 1.617a33.176 33.176 0 0 0-.035 1.491zm-2.702 1.134c.233 0 .438-.047.616-.14a1.66 1.66 0 0 0 .448-.336 2.035 2.035 0 0 0 .448-.742v-1.47c-.542 0-.985.028-1.33.084-.346.056-.616.145-.812.266a.97.97 0 0 0-.406.455 1.63 1.63 0 0 0-.112.623c0 .401.102.712.308.931.205.22.485.329.84.329zm5.089-.504c.13-.224.247-.523.35-.896.103-.373.189-.784.259-1.232a18.717 18.717 0 0 0 .217-2.828 2.66 2.66 0 0 1-.511-.21 4.166 4.166 0 0 1-.427-.266V7.94h5.726v.364c-.299.168-.607.28-.924.336v5.614c.196.047.369.098.518.154.15.056.285.117.406.182v.35h-3.01v-.35c.224-.159.5-.27.826-.336V8.556h-1.848c-.01.495-.037 1.02-.084 1.575a18.69 18.69 0 0 1-.21 1.638 11.58 11.58 0 0 1-.364 1.512c-.15.471-.331.866-.546 1.183-.177.27-.369.46-.574.567-.205.107-.397.142-.574.105a2.818 2.818 0 0 1-.399-.623 2.026 2.026 0 0 1-.217-.707l.196-.35 1.19.28z"/><path fill="#3E4148" fill-rule="nonzero" d="M96.176 47.8h-2.328l-.36-3h-10.8l-.36 3H80v-5.928h1.776c.112-.176.296-.568.552-1.176.256-.608.512-1.468.768-2.58s.472-2.504.648-4.176c.176-1.672.256-3.652.24-5.94H94.04v13.872h2.136V47.8zm-5.424-5.928V30.928h-3.72c-.096 2.848-.324 5.18-.684 6.996-.36 1.816-.724 3.132-1.092 3.948h5.496zM98.144 28h9.96v2.928h-6.672v3.912h6.072v2.928h-6.072v4.104h6.792V44.8h-10.08V28zm22.08 9.768h-6.144V44.8h-3.288V28h3.288v6.84h6.144V28h3.288v16.8h-3.288v-7.032zM126.536 28h3.288v6.024a10.861 10.861 0 0 1 .996-.12l.66-.048c.224-.016.432-.024.624-.024.784 0 1.544.08 2.28.24.736.16 1.388.444 1.956.852.568.408 1.02.96 1.356 1.656.336.696.504 1.58.504 2.652 0 1.92-.596 3.368-1.788 4.344-1.192.976-2.9 1.464-5.124 1.464-.224 0-.524-.004-.9-.012a24.878 24.878 0 0 1-1.236-.06c-.448-.032-.9-.072-1.356-.12a9.158 9.158 0 0 1-1.26-.216V28zm4.92 14.112c.448 0 .872-.044 1.272-.132.4-.088.752-.24 1.056-.456.304-.216.54-.5.708-.852.168-.352.252-.784.252-1.296 0-.544-.092-.988-.276-1.332a2.134 2.134 0 0 0-.72-.804 2.67 2.67 0 0 0-1.044-.384 7.891 7.891 0 0 0-1.248-.096c-.112 0-.248.008-.408.024l-.48.048a5.999 5.999 0 0 0-.744.12v5.016c.176.048.412.084.708.108.296.024.604.036.924.036zm18.624-11.184h-6.48V44.8h-3.288V28h9.768v2.928zm11.136 4.56l.192-2.184h-.12l-1.128 2.256-6.264 9.24h-2.472V28h3.288v9.144l-.24 2.256h.144l1.176-2.328L162.056 28h2.448v16.8h-3.288v-9.312zm-69.984 26l.192-2.184h-.12l-1.128 2.256-6.264 9.24H81.44V54h3.288v9.144l-.24 2.256h.144l1.176-2.328L92.072 54h2.448v16.8h-3.288v-9.312zm16.656 2.136h-.864V70.8h-3.288V54h3.288v7.44l.768-.336L112.424 54h3.744l-4.896 7.056-1.296.912 1.344.936 5.592 7.896h-4.056l-4.968-7.176zm10.848-9.456a22.667 22.667 0 0 1 2.22-.3 27.163 27.163 0 0 1 2.412-.108c.832 0 1.668.068 2.508.204.84.136 1.596.408 2.268.816.672.408 1.22.976 1.644 1.704.424.728.636 1.676.636 2.844 0 1.056-.184 1.948-.552 2.676a5.108 5.108 0 0 1-1.464 1.788c-.608.464-1.3.8-2.076 1.008a9.276 9.276 0 0 1-2.412.312h-.384a13.278 13.278 0 0 1-1.116-.048 4.081 4.081 0 0 1-.396-.048V70.8h-3.288V54.168zm4.896 2.424c-.32 0-.624.012-.912.036-.288.024-.52.052-.696.084v5.448c.064.016.16.032.288.048a7.575 7.575 0 0 0 .828.048h.3c.432 0 .86-.04 1.284-.12.424-.08.804-.228 1.14-.444.336-.216.604-.516.804-.9.2-.384.3-.888.3-1.512 0-.528-.096-.964-.288-1.308a2.357 2.357 0 0 0-.756-.828 2.944 2.944 0 0 0-1.068-.432c-.4-.08-.808-.12-1.224-.12zM132.584 54h9.96v2.928h-6.672v3.912h6.072v2.928h-6.072v4.104h6.792V70.8h-10.08V54zm27.384 19.8h-2.328l-.36-3h-10.8l-.36 3h-2.328v-5.928h1.776c.112-.176.296-.568.552-1.176.256-.608.512-1.468.768-2.58s.472-2.504.648-4.176c.176-1.672.256-3.652.24-5.94h10.056v13.872h2.136V73.8zm-5.424-5.928V56.928h-3.72c-.096 2.848-.324 5.18-.684 6.996-.36 1.816-.724 3.132-1.092 3.948h5.496zm17.184-6.384l.192-2.184h-.12l-1.128 2.256-6.264 9.24h-2.472V54h3.288v9.144l-.24 2.256h.144l1.176-2.328L172.568 54h2.448v16.8h-3.288v-9.312zm18.24-4.56h-4.896V70.8h-3.288V56.928h-4.92V54h13.104v2.928z"/></g></svg>