<svg version="1.1" id="Layer_1" xmlns="http://www.w3.org/2000/svg" x="0" y="0" viewBox="0 0 213 60" xml:space="preserve"><path d="M78.5 14.6v-1.4h-3v1.4c-3.3.1-6.3 2.1-6.3 5.9 0 3.8 3 5.7 6.3 5.9v1.4h3v-1.4c3.3-.1 6.3-2.1 6.3-5.9 0-3.8-3-5.8-6.3-5.9zm-3 9.1c-1.9-.1-3.3-1.3-3.3-3.3 0-2 1.4-3.2 3.3-3.3v6.6zm3 0v-6.6c1.9 0 3.3 1.3 3.3 3.3 0 2-1.4 3.3-3.3 3.3zm18.1-6.4h-2.7l-4 6v-6H87v10.3h2.7l4-6v6h2.8V17.3zm5.6 10.2v-4h3.6v4h2.9V17.3h-2.9V21h-3.6v-3.8h-2.9v10.3h2.9zm15.1-6.8v.5h-2.2c-2.6 0-4.2 1.2-4.2 3.3 0 2.1 1.6 3.3 3.6 3.3 1.3 0 2.4-.5 3-1.4v1.1h2.7v-6.7c0-2.5-1.8-3.8-4.4-3.8-2.7 0-4.2 1.5-4.5 3.2h2.7c.2-.5.7-1 1.7-1 .9.1 1.6.6 1.6 1.5zm-2.1 4.8c-.9 0-1.5-.4-1.5-1.2 0-.7.6-1.2 1.5-1.2h2v.5c.1 1.2-.9 1.9-2 1.9zm10.4 2v-4h3.6v4h2.9V17.3h-2.9V21h-3.6v-3.8h-2.9v10.3h2.9zm13.8-2.2c-1.4 0-2.2-1.1-2.2-2.9 0-1.7.9-2.9 2.2-2.9 1.1 0 1.7.8 1.9 1.4h2.8c-.2-2.1-1.8-3.9-4.7-3.9-3.1 0-5.1 2.3-5.1 5.4 0 3.1 2 5.4 5.1 5.4 2.7 0 4.5-1.7 4.7-3.9h-2.8c-.1.6-.7 1.4-1.9 1.4zm11.4-8.3c-3.1 0-5.2 2.1-5.2 5.4s2.1 5.4 5.2 5.4c3 0 5.2-2.1 5.2-5.4s-2.2-5.4-5.2-5.4zm0 8.3c-1.4 0-2.3-1.2-2.3-2.9s.9-2.9 2.3-2.9 2.3 1.2 2.3 2.9-.9 2.9-2.3 2.9zm7.3 2.2h5c2.5 0 3.8-1.3 3.8-2.9 0-1.4-.9-2.2-1.9-2.5.8-.3 1.5-1 1.5-2.2 0-1.5-1.2-2.7-3.6-2.7H158v10.3zm4.7-4.2c.8 0 1.3.4 1.3 1.1s-.5 1.1-1.3 1.1H161v-2.2h1.8zm-.2-4c.8 0 1.2.4 1.2 1s-.4 1-1.2 1H161v-2h1.6zm12.3 1.4v.5h-2.2c-2.6 0-4.2 1.2-4.2 3.3 0 2.1 1.6 3.3 3.6 3.3 1.3 0 2.4-.5 3-1.4v1.1h2.7v-6.7c0-2.5-1.8-3.8-4.4-3.8-2.7 0-4.2 1.5-4.5 3.2h2.7c.2-.5.7-1 1.7-1 .9.1 1.6.6 1.6 1.5zm-2 4.8c-.9 0-1.5-.4-1.5-1.2 0-.7.6-1.2 1.5-1.2h2v.5c0 1.2-.9 1.9-2 1.9zm15.8 2V17.3H184c-2.6 0-3.9 1.6-3.9 3.6 0 1.3.6 2.4 1.8 3l-2.4 3.7h3.2l2-3.1h1.2v3.1h2.8zm-5.8-6.7c0-.8.6-1.3 1.5-1.3h1.5v2.7h-1.5c-.9 0-1.5-.6-1.5-1.4zM72.6 47.4v-4.5l3.3 4.5h3.4L75.2 42l4-4.8H76l-3.4 4.1v-4.1h-2.9v10.3h2.9zm14.7-10.3L85 43.7l-2.3-6.6h-3.1l3.8 10-1.4 4.1h3l5.4-14.1h-3.1zm3.3 10.3h.8c2.4 0 3.6-1.2 3.8-4.1l.3-3.7h2.6v7.8h2.9V37.1h-8.1l-.5 6c-.1 1.3-.5 1.8-1.5 1.8h-.4v2.5zm15.9-10.3h-2.9v10.3h4.6c2.4 0 3.9-1.6 3.9-3.7s-1.5-3.7-3.9-3.7h-1.8v-2.9zm1.5 5.3c.9 0 1.4.5 1.4 1.3s-.6 1.4-1.4 1.4h-1.4v-2.7h1.4zm4.8-2.8h3.1v7.8h2.9v-7.8h3.1v-2.5h-9.1v2.5zm17.5-2.5l-2.3 6.6-2.3-6.6h-3.1l3.8 10-1.5 4.1h3.1l5.4-14.1h-3.1zm10.4-.2c-1.5 0-2.5.7-3 1.4v-1.2h-2.8v14.1h2.9v-4.8c.5.7 1.5 1.2 2.8 1.2 2.5 0 4.5-2 4.5-5.4 0-3.4-2-5.3-4.4-5.3zm-.7 8.2c-1.4 0-2.2-1.1-2.2-2.8v-.1c0-1.7.9-2.8 2.2-2.8 1.4 0 2.2 1.1 2.2 2.9s-.9 2.8-2.2 2.8zm13.1-4.5v.4h-2.2c-2.6 0-4.2 1.2-4.2 3.3 0 2.1 1.6 3.3 3.6 3.3 1.3 0 2.4-.5 3-1.4v1.1h2.7v-6.7c0-2.5-1.8-3.8-4.4-3.8-2.7 0-4.2 1.5-4.5 3.2h2.7c.2-.5.7-1 1.7-1 .9.1 1.6.6 1.6 1.6zm-2 4.8c-.9 0-1.5-.4-1.5-1.2 0-.7.6-1.2 1.5-1.2h2v.5c0 1.2-.9 1.9-2 1.9z"/><path d="M30.2.7C46.4.7 59.5 13.8 59.5 30c0 16.2-13.1 29.3-29.3 29.3C14 59.3.9 46.2.9 30 .9 13.8 14 .7 30.2.7z" fill="#fac91b"/><path d="M30.2 60C13.7 60 .2 46.6.2 30s13.4-30 30-30 30 13.4 30 30-13.5 30-30 30zm0-58.6C14.4 1.4 1.6 14.2 1.6 30s12.8 28.6 28.6 28.6S58.8 45.8 58.8 30 46 1.4 30.2 1.4z"/><path d="M25.1 20.6v8.7h-3.3v2.8h3.3v1.5h-3.3v2.5h3.3V39h3v-2.9h6.2v-2.5h-6.2v-1.5h4.4c1.8 0 3.2-.5 4.3-1.6 1.1-1.1 1.7-2.5 1.7-4.2 0-1.7-.5-3.1-1.7-4.2-1.1-1.1-2.6-1.6-4.3-1.6h-7.4zm3 2.8h4.2c.9 0 1.7.3 2.2.8.5.5.9 1.2.9 2.1 0 .9-.3 1.6-.9 2.1-.5.5-1.3.8-2.2.8h-4.2v-5.8z"/><path transform="matrix(.9994 -.03568 .03568 .9994 -.115 .993)" d="M27.3 2.5h.9V5h-.9z"/><path transform="rotate(-75.965 36.566 4.437)" d="M35.3 4h2.6v.9h-2.6z"/><path transform="rotate(-50.713 44.777 8.164)" d="M43.5 7.7H46v.9h-2.5z"/><path transform="rotate(-40.615 50.943 13.844)" d="M49.7 13.4h2.5v.9h-2.5z"/><path transform="rotate(-15.921 54.892 21.567)" d="M53.6 21.1h2.6v.9h-2.6z"/><path d="M54.9 29.2h2.7v.9h-2.7z"/><path transform="rotate(-66.026 54.941 38.079)" d="M54.5 36.8h.9v2.6h-.9z"/><path transform="rotate(-47.602 51.032 45.4)" d="M50.6 44h.9v2.8h-.9z"/><path transform="rotate(-32.611 45.134 51.44)" d="M44.7 50.1h.9v2.6h-.9z"/><path transform="rotate(-17.812 37.454 55.12)" d="M37 53.8h.9v2.6H37z"/><path transform="rotate(-86.367 28.798 56.14) scale(1.00001)" d="M27.4 55.7h2.8v.9h-2.8z"/><path transform="rotate(-65.057 20.146 54.146)" d="M18.8 53.7h2.7v.9h-2.7z"/><path transform="rotate(-44.955 12.732 49.525)" d="M11.4 49.1h2.8v.9h-2.8z"/><path transform="rotate(-29.988 7.406 43.003)" d="M6.1 42.6h2.7v.9H6.1z"/><path transform="rotate(-11.275 4.299 34.88)" d="M2.9 34.4h2.7v.9H2.9z"/><path transform="rotate(-75.066 4.299 26.094)" d="M3.9 24.7h.9v2.8h-.9z"/><path transform="rotate(-58.394 6.963 18.017)" d="M6.5 16.7h.9v2.7h-.9z"/><path transform="rotate(-46.338 12.29 10.961)" d="M11.8 9.6h.9v2.7h-.9z"/><path transform="rotate(-25.71 19.612 6.168)" d="M19.2 4.8h.9v2.7h-.9z"/></svg>