<svg width="213" height="60" xmlns="http://www.w3.org/2000/svg"><g id="Page-1" stroke="none" stroke-width="1" fill="none" fill-rule="evenodd"><g id="online"><g id="Group"><g id="Combined-Shape_1_" fill="#E6E6E6"><path d="M23.1 55.4c-1.9 1.3-4.3 2.4-7.3 3.2-3 .8-5.7 1.3-8.1 1.3.9-1.4 1.6-3.2 2.2-5.4.6-2.2.9-3.7 1-4.7C4.4 44.7.3 36.8.3 27.9.3 12.5 12.8.1 28.2.1 43.6.1 56 12.7 56 28.1S43.5 55.9 28.1 55.9c-1.7 0-3.4-.2-5-.5z" id="Path"/></g><g id="Combined-Shape" transform="translate(3)" fill="#E9B32F"><path d="M23.1 55.4c-1.9 1.3-4.3 2.4-7.3 3.2-3 .8-5.7 1.3-8.1 1.3.9-1.4 1.6-3.2 2.2-5.4.6-2.2.9-3.7 1-4.7C4.4 44.7.3 36.8.3 27.9.3 12.5 12.8.1 28.2.1 43.6.1 56 12.7 56 28.1S43.5 55.9 28.1 55.9c-1.7 0-3.4-.2-5-.5z" id="Path"/></g><g id="Group-6" transform="translate(10.1 6.3)" fill="#FEFEFE"><path d="M21.3 41.2c-10.9 0-19.7-8.8-19.7-19.7 0-10.9 8.8-19.7 19.7-19.7C32.2 1.8 41 10.6 41 21.5c0 10.9-8.8 19.7-19.7 19.7m0-41C9.5.2 0 9.7 0 21.5s9.6 21.3 21.4 21.3c11.8 0 21.4-9.6 21.4-21.3C42.7 9.7 33.1.2 21.3.2" id="Fill-1"/><path d="M21 37.6c.7 0 1.2-.5 1.2-1.2.2.3.4.5.7.6.3.1.6 0 .9-.1.3-.1.5-.3.7-.6.1-.3.1-.6 0-.9.3.5.9.6 1.4.4.7-.3 1-.9.7-1.6-.9-2.1-1.7-4.1-2.6-6.2-.1-.2-.1-.4-.2-.6-.1-.2-.1-.3-.2-.4l-.2-.2c1.4.1 2 .7 2.4.9.1.1.1.1.5 0 .2-.1.4 0 .5.1.2.1.3.2.5.3.5.4 1 .7 1.4 1.2.2.2.5.5.5.8 0 .3-.7.9-.9 1.1-.5.5.2 1.3 1.2 1.2-.3-.3-.3-.5-.3-.7.1 0 .3 0 .4-.1.2-.2.1-.7.3-.9.3-.3 1.4-.4 2.1-.4.3 0 .6-.1.5-.5.4 0 .5.3.5.6.4-.2.7-1.2-.7-1.4.2-.2.6-.3.8 0 .2-.4-.3-1.1-1.3-.7 0 0-.4-.6-1.8.9-.2-.1-.3-.3-.5-.4-.5-.5-1.8-1.7-1.8-1.7 0-.7-.1-2.1-1-2.9-.4-.4-.8-.5-1.6-.7 0 0 .4-.6.5-.9.7.7 2.2 1 2.2-.3 1.2 1.2 2.3.6 2.3-.2 0 .4.1.8.3 1.1.2.4.7 2 2.1 2 0 .5 0 2.3 1.7 2.7.1 0 .2 0 .2.1.7.9 3.6 1.8 3.9 1.5-.2-.2-.6-.4-.6-1.4 0-.7-.1-4.1-.1-9 0-1.7-.2-7.3-5.7-8.1-.8-.1-1.7-.1-2.4.5-1 .7-1.4 2-.9 3.3 0 0 0 .1.1.1.2.3.1.6-.1.9-.5.5-1 .8-1.6.8-.4 0-.7-.1-1-.4-.6-.6-1.1-1.4-1.2-2.3-.3-1.7.2-2.5.2-2.6.4-.9 1.4-1.6 2.5-1.7.5-.9 2-.6 2-.6.4.1.5.2.6.4 0 0 .6-1 0-1.4-.6-.4-1.9-.6-1.9-.6 0-.6-1-1.1-2.9-.8-2.3.4-2.8-.5-2.8-.5-.1 1.1.7 1.7 1 1.8-1 1.1-2.2 3-2.5 5.7-.3-2.7-1.5-4.6-2.4-5.5.3-.2 1.1-.7 1-1.8 0 0-.5.9-2.8.5-1.8-.4-2.8.1-2.8.7 0 0-1.3.2-1.9.6-.6.4 0 1.4 0 1.4.1-.2.2-.3.6-.4 0 0 1.5-.4 2 .6 1.1.1 2.1.8 2.5 1.7 0 .1.5.9.2 2.6-.2.9-.6 1.6-1.2 2.3-.3.3-.6.5-1 .4-.6-.1-1.2-.4-1.6-.8-.3-.3-.3-.5-.1-.9 0 0 0-.1.1-.1.6-1.4.1-2.6-.9-3.3-.9-.7-1.7-.8-2.6-.7-5.5.8-5.7 6.4-5.7 8.1 0 4.9-.1 8.4-.1 9-.1 1-.4 1.2-.6 1.4.4.2 3.2-.7 3.9-1.5 0-.1.1-.1.2-.1 1.7-.4 1.7-2.2 1.7-2.7 1.4 0 2-1.6 2.1-2 .1-.4.2-.8.3-1.1 0 .8 1.1 1.4 2.3.2 0 1.3 1.5 1 2.2.3.1.3.5.9.5.9-.8.2-1.2.3-1.6.7-.9.8-1 2.2-1 2.9 0 0-1.3 1.3-1.8 1.7-.2.1-.3.3-.5.4-1.3-1.5-1.8-.9-1.8-.9-1-.4-1.5.3-1.3.7.2-.3.6-.2.8 0-1.3.2-1 1.2-.7 1.4 0-.3.1-.6.5-.6 0 .4.3.5.5.5.7 0 1.8.1 2.1.4.2.2.1.7.3.9.2.2.4.1.4.1 0 .2 0 .4-.3.7 1 .1 1.7-.8 1.2-1.2 0-.2-.7-.8-.7-1.1 0-.3.3-.6.5-.8.5-.4 1-.8 1.4-1.2.1-.1.3-.2.5-.3.1-.1.3-.1.5-.1.4.1.4.1.5 0 .4-.2 1-.8 2.4-.9-.1.1-.2.1-.2.2-.1.1-.1.2-.2.4s-.2.4-.2.6c-.9 2.1-1.7 4.1-2.6 6.2-.3.7 0 1.3.7 1.6.5.2 1.1.1 1.4-.4-.1.3-.1.6 0 .9.1.3.4.5.7.6.3.1.6.2.9.1.3-.1.5-.3.7-.6-.1.8.3 1.3 1 1.3" id="Fill-4"/></g></g><g id="Group" transform="translate(76 18)" fill="#3E4148" fill-rule="nonzero"><path id="Path" d="M.9 1.3h3.3v15.8h9.2V1.3h3.3v15.8H19v6.4h-3.2v-3.3H.9z"/><path d="M34.6 4.4H24v4.3h5.2c4.5 0 6.7 2.1 6.7 5.6 0 4.1-2.8 5.9-7.7 5.9h-7.5V1.3h13.8v3.1h.1zm-10.5 7.3v5.4h4.4c2.7 0 4.1-.8 4.1-2.8 0-1.8-1.2-2.6-4-2.6h-4.5zm26.8-5.9c4.4 0 7.5 3.1 7.5 7.3 0 4.2-3.1 7.3-7.5 7.3s-7.5-3.1-7.5-7.3c0-4.2 3.1-7.3 7.5-7.3zm0 11.8c2.6 0 4.3-1.7 4.3-4.4s-1.9-4.5-4.3-4.5c-2.5 0-4.3 1.7-4.3 4.5 0 2.5 1.8 4.4 4.3 4.4z" id="Shape"/><path id="Path" d="M70.2 14.5h-6.7v5.7h-3.1v-14h3.1v5.5h6.7V6.2h3.1v14h-3.1zM85.6 9h-5v2.2c0 7.4-2.4 9.4-5.9 9.1l-.2-2.9c1.5.1 3.1-.8 3.1-7.3v-4h11.1v14h-3.1V9z"/><path d="M91.3 7.9c1.3-1.3 3.6-2.1 5.9-2.1 3.7 0 5.7 2.1 5.7 5.8v8.6h-3.1v-1.5c-.8.9-2.3 1.7-4.3 1.7-3.1 0-5.1-1.7-5.1-4.4 0-3.1 2.8-4.5 6.6-4.5 1 0 2.2.2 2.9.4 0-2-.8-3.2-3-3.2-1.5 0-2.7.5-4 1.5l-1.6-2.3zm8.6 7.9v-1.3c-.6-.2-1.6-.4-2.6-.4-2.2 0-3.7.5-3.7 1.9 0 1.1 1 1.8 2.6 1.8 1.9-.1 3.1-1.1 3.7-2zm5.6 4.4v-14h3.1v9.2l7.5-9.2h2.7v14h-3.1v-9.1l-7.5 9.1h-2.7zm4.9-20c0 1.1.7 1.8 1.9 1.8s1.8-.7 1.8-1.8h2.8c-.1 2.8-2.2 4.2-4.6 4.2-2.6 0-4.7-1.4-4.8-4.2h2.9z" id="Shape"/><path id="Path" d="M131.1 14.5h-6.7v5.7h-3.1v-14h3.1v5.5h6.7V6.2h3.1v14h-3.1z"/></g><g id="Group" transform="translate(77 5)" fill="#3E4148" fill-rule="nonzero"><path id="Path" d="M.1 2.9h.7l2.6 3.3 2.5-3.3h.7v6.2h-.8V4.2L3.4 7.4.9 4.2v4.9H.1z"/><path d="M10.9 2.7c1.9 0 3.3 1.4 3.3 3.3s-1.3 3.2-3.3 3.2c-2 0-3.3-1.4-3.3-3.2 0-1.9 1.3-3.3 3.3-3.3zm0 5.8c1.4 0 2.5-1 2.5-2.5s-1.1-2.5-2.5-2.5-2.5 1-2.5 2.5 1.1 2.5 2.5 2.5zM20.6.9c-1 .4-2.6.2-3.5.6-1.2.6-1.5 1.9-1.5 2.9.5-.9 1.6-1.4 2.7-1.4 1.8 0 3 1.1 3 3 0 1.8-1.3 3.2-3.2 3.2-2 0-3.3-1.3-3.3-3.7 0-2.3.3-3.8 1.9-4.6 1.1-.6 2.7-.3 3.7-.7l.2.7zm-5 4.8c0 1.8 1 2.8 2.4 2.8s2.4-1.1 2.4-2.4c0-1.4-.8-2.3-2.3-2.3-1.4 0-2.2.9-2.5 1.9z" id="Shape"/><path id="Path" d="M22.2 9.1V2.9h.8V8l4.1-5.1h.8v6.2h-.8V4L23 9.1zm11.7-5.5h-3.1v1.1c0 3.4-1 4.4-2 4.4h-.2l-.1-.8h.1c.6 0 1.4-.6 1.4-3.7V2.9h4.7v6.2h-.8V3.6z"/><path d="M36.1 2.9h.8v2h1.8c1.9 0 2.5.9 2.5 2.1 0 1.1-.6 2.1-2.6 2.1h-2.5V2.9zm.7 2.8v2.7h1.6c1.3 0 1.8-.5 1.8-1.4 0-.9-.5-1.4-1.8-1.4h-1.6v.1z" id="Shape"/><path id="Path" d="M46.8 6.3h-4v2.8H42V2.9h.8v2.7h4V2.9h.8v6.2h-.8z"/><path d="M51.9 2.7c1.9 0 3.3 1.4 3.3 3.3s-1.3 3.2-3.3 3.2c-1.9 0-3.3-1.4-3.3-3.2 0-1.9 1.3-3.3 3.3-3.3zm0 5.8c1.4 0 2.5-1 2.5-2.5s-1.1-2.5-2.5-2.5-2.5 1-2.5 2.5 1 2.5 2.5 2.5zm9.7-.6c-.6.9-1.5 1.3-2.5 1.3-2 0-3.3-1.3-3.3-3.2 0-1.8 1.1-3.3 3.2-3.3 1.6 0 2.9 1.1 2.9 2.8v.7h-5.1c0 1.4 1.1 2.3 2.5 2.3.8 0 1.5-.5 1.9-1l.4.4zm-5-2.4H61c0-1.3-.8-2.1-2.1-2.1-1.4.1-2.2.9-2.3 2.1z" id="Shape"/><path id="Path" d="M70.9 3.6H67v5.5h-.8V2.9h5.5v6.2h-.8V3.6z"/><path d="M73 2.9h.8v.9c.5-.8 1.4-1.1 2.2-1.1 1.8 0 3 1.3 3 3.2 0 1.9-1.3 3.4-3.1 3.4-1 0-1.6-.2-2.1-.7v3H73V2.9zm.8 2.1v2.4c.4.8 1.2 1.1 2 1.1 1.3 0 2.3-1.1 2.3-2.6s-.8-2.5-2.2-2.5c-1.1.1-1.8.8-2.1 1.6z" id="Shape"/><path id="Path" d="M80 9.1V2.9h.8V8l4.1-5.1h.8v6.2h-.8V4l-4.1 5.1zm11.6-5.5h-3.1v1.1c0 3.4-1 4.4-2 4.4h-.2l-.1-.8h.1c.6 0 1.4-.6 1.4-3.7V2.9h4.7v6.2h-.8V3.6z"/><path d="M96.7 2.7c1.9 0 3.3 1.4 3.3 3.3s-1.3 3.2-3.3 3.2c-1.9 0-3.3-1.4-3.3-3.2 0-1.9 1.3-3.3 3.3-3.3zm0 5.8c1.4 0 2.5-1 2.5-2.5s-1.1-2.5-2.5-2.5-2.5 1-2.5 2.5 1.1 2.5 2.5 2.5z" id="Shape"/><path id="Path" d="M100 2.9h1l3 2.9V2.9h.8v2.9l3-2.9h1l-2.9 2.9 3.1 3.4h-1l-2.7-2.9-.4.4v2.5h-.9V6.7l-.5-.4-2.6 2.8h-1l3-3.3z"/><path d="M114.6 7.9c-.6.9-1.5 1.3-2.5 1.3-2 0-3.3-1.3-3.3-3.2 0-1.8 1.1-3.3 3.2-3.3 1.6 0 2.9 1.1 2.9 2.8v.7h-5.1c0 1.4 1.1 2.3 2.5 2.3.8 0 1.5-.5 1.9-1l.4.4zm-5-2.4h4.4c0-1.3-.8-2.1-2.1-2.1-1.3.1-2.1.9-2.3 2.1z" id="Shape"/><path id="Path" d="M120.6 6.3h-4v2.8h-.8V2.9h.8v2.7h4V2.9h.8v6.2h-.8zm2.1 2.8V2.9h.8V8l4.1-5.1h.8v6.2h-.8V4l-4.1 5.1z"/><path d="M135.2 7.9c-.6.9-1.5 1.3-2.5 1.3-2 0-3.3-1.3-3.3-3.2 0-1.8 1.1-3.3 3.2-3.3 1.6 0 2.9 1.1 2.9 2.8v.7h-5.1c0 1.4 1.1 2.3 2.5 2.3.8 0 1.5-.5 1.9-1l.4.4zm-5-2.4h4.4c0-1.3-.8-2.1-2.1-2.1-1.3.1-2.2.9-2.3 2.1z" id="Shape"/></g></g></g></svg>