<?xml version="1.0" encoding="utf-8"?>
<!-- Generator: Adobe Illustrator 26.2.1, SVG Export Plug-In . SVG Version: 6.00 Build 0)  -->
<svg version="1.1" id="Layer_1" xmlns="http://www.w3.org/2000/svg" xmlns:xlink="http://www.w3.org/1999/xlink" x="0px" y="0px"
	 viewBox="0 0 213 60" style="enable-background:new 0 0 213 60;" xml:space="preserve">
<style type="text/css">
	.st0{fill:#FAC91B;}
</style>
<g>
	<g>
		<path d="M78.5,14.6v-1.4h-3v1.4c-3.3,0.1-6.3,2.1-6.3,5.9c0,3.8,3,5.7,6.3,5.9v1.4h3v-1.4c3.3-0.1,6.3-2.1,6.3-5.9
			C84.8,16.7,81.8,14.7,78.5,14.6z M75.5,23.7c-1.9-0.1-3.3-1.3-3.3-3.3c0-2,1.4-3.2,3.3-3.3V23.7z M78.5,23.7v-6.6
			c1.9,0,3.3,1.3,3.3,3.3C81.8,22.4,80.4,23.7,78.5,23.7z M96.6,17.3h-2.7l-4,6v-6H87v10.3h2.7l4-6v6h2.8V17.3z M102.2,27.5v-4h3.6
			v4h2.9V17.3h-2.9V21h-3.6v-3.8h-2.9v10.3H102.2z M117.3,20.7v0.5h-2.2c-2.6,0-4.2,1.2-4.2,3.3c0,2.1,1.6,3.3,3.6,3.3
			c1.3,0,2.4-0.5,3-1.4v1.1h2.7v-6.7c0-2.5-1.8-3.8-4.4-3.8c-2.7,0-4.2,1.5-4.5,3.2h2.7c0.2-0.5,0.7-1,1.7-1
			C116.6,19.3,117.3,19.8,117.3,20.7z M115.2,25.5c-0.9,0-1.5-0.4-1.5-1.2c0-0.7,0.6-1.2,1.5-1.2h2v0.5
			C117.3,24.8,116.3,25.5,115.2,25.5z M125.6,27.5v-4h3.6v4h2.9V17.3h-2.9V21h-3.6v-3.8h-2.9v10.3H125.6z M139.4,25.3
			c-1.4,0-2.2-1.1-2.2-2.9c0-1.7,0.9-2.9,2.2-2.9c1.1,0,1.7,0.8,1.9,1.4h2.8c-0.2-2.1-1.8-3.9-4.7-3.9c-3.1,0-5.1,2.3-5.1,5.4
			c0,3.1,2,5.4,5.1,5.4c2.7,0,4.5-1.7,4.7-3.9h-2.8C141.2,24.5,140.6,25.3,139.4,25.3z M150.8,17c-3.1,0-5.2,2.1-5.2,5.4
			s2.1,5.4,5.2,5.4c3,0,5.2-2.1,5.2-5.4S153.8,17,150.8,17z M150.8,25.3c-1.4,0-2.3-1.2-2.3-2.9c0-1.7,0.9-2.9,2.3-2.9
			c1.4,0,2.3,1.2,2.3,2.9C153.1,24.1,152.2,25.3,150.8,25.3z M158.1,27.5h5c2.5,0,3.8-1.3,3.8-2.9c0-1.4-0.9-2.2-1.9-2.5
			c0.8-0.3,1.5-1,1.5-2.2c0-1.5-1.2-2.7-3.6-2.7h-4.9V27.5z M162.8,23.3c0.8,0,1.3,0.4,1.3,1.1s-0.5,1.1-1.3,1.1h-1.8v-2.2H162.8z
			 M162.6,19.3c0.8,0,1.2,0.4,1.2,1c0,0.6-0.4,1-1.2,1h-1.6v-2H162.6z M174.9,20.7v0.5h-2.2c-2.6,0-4.2,1.2-4.2,3.3
			c0,2.1,1.6,3.3,3.6,3.3c1.3,0,2.4-0.5,3-1.4v1.1h2.7v-6.7c0-2.5-1.8-3.8-4.4-3.8c-2.7,0-4.2,1.5-4.5,3.2h2.7c0.2-0.5,0.7-1,1.7-1
			C174.2,19.3,174.9,19.8,174.9,20.7z M172.9,25.5c-0.9,0-1.5-0.4-1.5-1.2c0-0.7,0.6-1.2,1.5-1.2h2v0.5
			C174.9,24.8,174,25.5,172.9,25.5z M188.7,27.5V17.3H184c-2.6,0-3.9,1.6-3.9,3.6c0,1.3,0.6,2.4,1.8,3l-2.4,3.7h3.2l2-3.1h1.2v3.1
			H188.7z M182.9,20.8c0-0.8,0.6-1.3,1.5-1.3h1.5v2.7h-1.5C183.5,22.2,182.9,21.6,182.9,20.8z M72.6,47.4v-4.5l3.3,4.5h3.4l-4.1-5.4
			l4-4.8H76l-3.4,4.1v-4.1h-2.9v10.3H72.6z M87.3,37.1l-2.3,6.6l-2.3-6.6h-3.1l3.8,10L82,51.2H85l5.4-14.1H87.3z M90.6,47.4h0.8
			c2.4,0,3.6-1.2,3.8-4.1l0.3-3.7h2.6v7.8h2.9V37.1h-8.1l-0.5,6c-0.1,1.3-0.5,1.8-1.5,1.8h-0.4V47.4z M106.5,37.1h-2.9v10.3h4.6
			c2.4,0,3.9-1.6,3.9-3.7c0-2.1-1.5-3.7-3.9-3.7h-1.8V37.1z M108,42.4c0.9,0,1.4,0.5,1.4,1.3c0,0.8-0.6,1.4-1.4,1.4h-1.4v-2.7H108z
			 M112.8,39.6h3.1v7.8h2.9v-7.8h3.1v-2.5h-9.1V39.6z M130.3,37.1l-2.3,6.6l-2.3-6.6h-3.1l3.8,10l-1.5,4.1h3.1l5.4-14.1H130.3z
			 M140.7,36.9c-1.5,0-2.5,0.7-3,1.4v-1.2h-2.8v14.1h2.9v-4.8c0.5,0.7,1.5,1.2,2.8,1.2c2.5,0,4.5-2,4.5-5.4
			C145.1,38.8,143.1,36.9,140.7,36.9z M140,45.1c-1.4,0-2.2-1.1-2.2-2.8v-0.1c0-1.7,0.9-2.8,2.2-2.8c1.4,0,2.2,1.1,2.2,2.9
			S141.3,45.1,140,45.1z M153.1,40.6V41h-2.2c-2.6,0-4.2,1.2-4.2,3.3c0,2.1,1.6,3.3,3.6,3.3c1.3,0,2.4-0.5,3-1.4v1.1h2.7v-6.7
			c0-2.5-1.8-3.8-4.4-3.8c-2.7,0-4.2,1.5-4.5,3.2h2.7c0.2-0.5,0.7-1,1.7-1C152.4,39.1,153.1,39.6,153.1,40.6z M151.1,45.4
			c-0.9,0-1.5-0.4-1.5-1.2c0-0.7,0.6-1.2,1.5-1.2h2v0.5C153.1,44.7,152.2,45.4,151.1,45.4z"/>
	</g>
	<g>
		<path class="st0" d="M30.2,0.7L30.2,0.7c16.2,0,29.3,13.1,29.3,29.3l0,0c0,16.2-13.1,29.3-29.3,29.3l0,0C14,59.3,0.9,46.2,0.9,30
			l0,0C0.9,13.8,14,0.7,30.2,0.7z"/>
	</g>
	<g>
		<path d="M30.2,60c-16.5,0-30-13.4-30-30s13.4-30,30-30s30,13.4,30,30S46.7,60,30.2,60z M30.2,1.4C14.4,1.4,1.6,14.2,1.6,30
			c0,15.8,12.8,28.6,28.6,28.6S58.8,45.8,58.8,30C58.8,14.2,46,1.4,30.2,1.4z"/>
	</g>
	<g>
		<path d="M25.1,20.6V21v8.3h-2.9h-0.4v0.4v2v0.4h0.4h2.9v1.5h-2.9h-0.4v0.4v1.7v0.4h0.4h2.9v2.5v0.4h0.4h2.2h0.4v-0.4v-2.5h5.8h0.4
			v-0.4v-1.7v-0.4h-0.4h-5.8v-1.5h4.4c1.8,0,3.2-0.5,4.3-1.6c1.1-1.1,1.7-2.5,1.7-4.2c0-1.7-0.5-3.1-1.7-4.2
			c-1.1-1.1-2.6-1.6-4.3-1.6h-7.1H25.1z M28.1,23.4h4.2c0.9,0,1.7,0.3,2.2,0.8c0.5,0.5,0.9,1.2,0.9,2.1c0,0.9-0.3,1.6-0.9,2.1
			c-0.5,0.5-1.3,0.8-2.2,0.8h-4.2V23.4z"/>
	</g>
	<g>
		<rect x="27.3" y="2.5" transform="matrix(0.9994 -3.567762e-02 3.567762e-02 0.9994 -0.1153 0.9934)" width="0.9" height="2.5"/>
	</g>
	<g>
		<rect x="35.3" y="4" transform="matrix(0.2425 -0.9701 0.9701 0.2425 23.3928 38.8336)" width="2.6" height="0.9"/>
	</g>
	<g>
		<rect x="43.5" y="7.7" transform="matrix(0.6332 -0.774 0.774 0.6332 10.1054 37.6517)" width="2.5" height="0.9"/>
	</g>
	<g>
		<rect x="49.7" y="13.4" transform="matrix(0.7591 -0.651 0.651 0.7591 3.2596 36.4988)" width="2.5" height="0.9"/>
	</g>
	<g>
		<rect x="53.6" y="21.1" transform="matrix(0.9616 -0.2743 0.2743 0.9616 -3.8104 15.8841)" width="2.6" height="0.9"/>
	</g>
	<g>
		<rect x="54.9" y="29.2" width="2.7" height="0.9"/>
	</g>
	<g>
		<rect x="54.5" y="36.8" transform="matrix(0.4063 -0.9137 0.9137 0.4063 -2.1758 72.8057)" width="0.9" height="2.6"/>
	</g>
	<g>
		<rect x="50.6" y="44" transform="matrix(0.6743 -0.7385 0.7385 0.6743 -16.9046 52.475)" width="0.9" height="2.8"/>
	</g>
	<g>
		<rect x="44.7" y="50.1" transform="matrix(0.8423 -0.5389 0.5389 0.8423 -20.6058 32.4315)" width="0.9" height="2.6"/>
	</g>
	<g>
		<rect x="37" y="53.8" transform="matrix(0.9521 -0.3059 0.3059 0.9521 -15.0659 14.0992)" width="0.9" height="2.6"/>
	</g>
	<g>
		<rect x="27.4" y="55.7" transform="matrix(6.336448e-02 -0.998 0.998 6.336448e-02 -29.0541 81.3238)" width="2.8" height="0.9"/>
	</g>
	<g>
		<rect x="18.8" y="53.7" transform="matrix(0.4217 -0.9067 0.9067 0.4217 -37.4445 49.5774)" width="2.7" height="0.9"/>
	</g>
	<g>
		<rect x="11.4" y="49.1" transform="matrix(0.7077 -0.7066 0.7066 0.7077 -31.2718 23.4756)" width="2.8" height="0.9"/>
	</g>
	<g>
		<rect x="6.1" y="42.6" transform="matrix(0.8661 -0.4998 0.4998 0.8661 -20.5014 9.4579)" width="2.7" height="0.9"/>
	</g>
	<g>
		<rect x="2.9" y="34.4" transform="matrix(0.9807 -0.1955 0.1955 0.9807 -6.736 1.5136)" width="2.7" height="0.9"/>
	</g>
	<g>
		<rect x="3.9" y="24.7" transform="matrix(0.2577 -0.9662 0.9662 0.2577 -22.0211 23.5234)" width="0.9" height="2.8"/>
	</g>
	<g>
		<rect x="6.5" y="16.7" transform="matrix(0.5241 -0.8517 0.8517 0.5241 -12.0307 14.5052)" width="0.9" height="2.7"/>
	</g>
	<g>
		<rect x="11.8" y="9.6" transform="matrix(0.6904 -0.7234 0.7234 0.6904 -4.1245 12.2838)" width="0.9" height="2.7"/>
	</g>
	<g>
		<rect x="19.2" y="4.8" transform="matrix(0.901 -0.4338 0.4338 0.901 -0.7339 9.1184)" width="0.9" height="2.7"/>
	</g>
</g>
</svg>
