<svg xmlns="http://www.w3.org/2000/svg" width="206" height="21"><g fill="none"><path fill="#D10000" d="M103 0h2v21h-2z"/><path fill="#3E4148" d="M0 13.169h4.233c.368 2.275 1.867 3.349 4.234 3.349 2.656 0 4.417-1.61 4.785-4.653H5.995v-3.12h7.284c-.395-2.889-2.077-4.447-4.601-4.447-2.446 0-3.787 1.124-4.129 3.374H.237C.841 3.096 3.971 1 8.731 1c5.31 0 9.124 3.631 9.124 9.05v.205c0 5.777-3.418 9.587-9.44 9.587-4.524 0-7.942-2.276-8.415-6.673zM20.93 1.28h4.26v7.874l6.573-7.9h4.523l-7.441 8.667 7.81 9.638h-4.97l-6.495-8.206v8.206h-4.259V1.28h-.001zm15.487 9.255v-.205c0-5.446 4.102-9.306 9.677-9.306 5.653 0 9.677 3.707 9.677 9.203v.205c0 5.445-3.84 9.408-9.704 9.408-5.89 0-9.65-3.962-9.65-9.305zm14.91-.052v-.204c0-3.554-1.946-5.982-5.233-5.982-3.26 0-5.233 2.326-5.233 6.007v.205c0 3.733 2.208 6.034 5.285 6.034 3.182 0 5.181-2.378 5.181-6.06zm7.52-9.203h4.26v7.465h7.546V1.28h4.259v18.28h-4.26v-7.542h-7.546v7.541h-4.26V1.28zm19.115 9.255v-.205c0-5.547 3.997-9.33 9.335-9.33 4.523 0 7.888 2.147 8.335 6.647h-4.365c-.315-2.2-1.578-3.375-3.944-3.375-2.971 0-4.865 2.25-4.865 6.033v.205c0 3.785 1.789 5.982 4.892 5.982 2.34 0 3.97-1.15 4.312-3.502h4.181c-.473 4.525-3.813 6.851-8.44 6.851-6.153 0-9.441-3.681-9.441-9.305zM112 6.3h1.288c.156.916.761 1.374 1.758 1.374 1.132 0 1.903-.753 2.011-2.059h-2.948v-.972h2.957c-.136-1.25-.84-1.954-1.952-1.954-.996 0-1.592.477-1.729 1.41h-1.298c.234-1.657 1.357-2.43 3.046-2.43 1.992 0 3.319 1.354 3.319 3.403v.075c0 2.107-1.309 3.536-3.417 3.536-1.59.001-2.869-.809-3.035-2.382zm7.8-4.528h1.299v3.089l2.675-3.099h1.395l-2.89 3.26 3.036 3.565h-1.532l-2.685-3.183v3.183h-1.299V1.772h.002zm5.594 3.452v-.077c0-1.991 1.465-3.47 3.534-3.47 2.08 0 3.515 1.44 3.515 3.441v.076c0 1.992-1.396 3.49-3.515 3.49-2.138 0-3.534-1.497-3.534-3.46zm5.701-.02v-.076c0-1.4-.8-2.44-2.167-2.44-1.367 0-2.177.981-2.177 2.45v.076c0 1.488.927 2.451 2.197 2.451 1.317-.001 2.147-.982 2.147-2.46zm2.694-3.432h1.299v2.899h3.134V1.772h1.309v6.816h-1.31V5.69h-3.133v2.898h-1.299V1.772zm7.078 3.452v-.077c0-1.991 1.464-3.47 3.534-3.47 2.08 0 3.515 1.44 3.515 3.441v.076c0 1.992-1.396 3.49-3.515 3.49-2.137 0-3.534-1.497-3.534-3.46zm5.702-.02v-.076c0-1.4-.801-2.44-2.167-2.44-1.366 0-2.177.981-2.177 2.45v.076c0 1.488.927 2.451 2.197 2.451 1.316-.001 2.147-.982 2.147-2.46zm2.694-3.432H151l1.835 4.652 1.797-4.652h1.718v6.816h-1.299V3.441l-2.08 5.147h-.419l-2.119-5.147v5.147h-1.17V1.772zm8.786 6.817V1.772h1.308v5.11l3.24-5.11h1.31v6.816h-1.31V3.451l-3.24 5.138h-1.308zm11.47 0V5.558s-.635.534-1.786.534c-1.513 0-2.383-.887-2.383-2.593V1.772h1.309v1.783c0 1.048.439 1.535 1.309 1.535 1.123 0 1.551-.6 1.551-.6V1.771h1.299v6.816h-1.299v.001zm2.998-6.817h4.364v1.002h-3.066v1.869h2.46v.953h-2.46v1.992h3.232v1.001h-4.53V1.772zm5.35 3.452v-.077c0-2.05 1.444-3.479 3.387-3.479 1.6 0 2.84.781 2.997 2.384h-1.318c-.147-.905-.664-1.373-1.67-1.373-1.23 0-2.03.934-2.03 2.46v.075c0 1.536.751 2.44 2.04 2.44.966 0 1.65-.476 1.787-1.438h1.27c-.206 1.64-1.396 2.468-3.056 2.468-2.187 0-3.408-1.363-3.408-3.46zm7.682-3.452h1.298v3.089l2.675-3.099h1.396l-2.89 3.26 3.035 3.565h-1.532l-2.685-3.183v3.183h-1.298V1.772zm6.532 6.817V1.772h1.307v5.11l3.241-5.11h1.309v6.816h-1.309V3.451l-3.24 5.138h-1.308zm7.546 0V1.772h1.308v5.11l3.24-5.11h1.31v6.816h-1.31V3.451l-3.24 5.138h-1.308zM201.12 0h.899c.028.325.175.62.517.62.36 0 .537-.287.576-.62h.869c-.049.791-.635 1.335-1.445 1.335-.82 0-1.366-.544-1.416-1.335zm-88.65 13.203h2.245c1.562 0 2.586.677 2.586 2.107v.038c0 1.439-1.063 2.078-2.558 2.078h-.975v2.592h-1.298v-6.815zm2.245 3.307c.86 0 1.317-.41 1.317-1.162v-.038c0-.81-.488-1.125-1.317-1.125h-.947v2.327h.947v-.002zm5.106-3.307h1.698l2.304 6.815h-1.348l-.557-1.687h-2.665l-.547 1.687h-1.22l2.335-6.815zm-.264 4.203h2.06l-1.025-3.165-1.035 3.165zm4.852.4h1.24c.117.734.459 1.287 1.455 1.287.879 0 1.337-.439 1.337-1.144 0-.696-.361-1-1.328-1h-.79v-.877h.77c.801 0 1.113-.382 1.113-1.01 0-.602-.4-.944-1.093-.944-.782 0-1.132.372-1.28 1.106h-1.22c.167-1.382 1.094-2.116 2.548-2.116 1.396 0 2.343.753 2.343 1.858 0 .725-.39 1.306-1.162 1.516.927.134 1.435.686 1.435 1.535 0 1.248-1.093 2.097-2.685 2.097-1.62 0-2.527-.925-2.683-2.308zm6.687-4.603h4.226v1.02h-2.918v5.795h-1.308v-6.815zm4.813 3.45v-.077c0-1.991 1.465-3.47 3.534-3.47 2.08 0 3.515 1.44 3.515 3.441v.076c0 1.992-1.396 3.49-3.515 3.49-2.138 0-3.534-1.497-3.534-3.46zm5.701-.02v-.076c0-1.4-.8-2.44-2.167-2.44-1.366 0-2.177.981-2.177 2.45v.075c0 1.488.927 2.45 2.197 2.45 1.318.001 2.147-.98 2.147-2.458zm2.694-3.43h2.5c1.435 0 2.284.534 2.284 1.773v.038c0 .677-.313 1.211-1.103 1.45.947.2 1.396.704 1.396 1.61v.039c0 1.268-.86 1.907-2.392 1.907h-2.685v-6.817zm2.344 2.869c.86 0 1.19-.306 1.19-1.002v-.038c0-.648-.38-.924-1.21-.924h-1.054v1.964h1.074zm.184 3.04c.87 0 1.27-.381 1.27-1.086v-.038c0-.705-.4-1.059-1.358-1.059h-1.17v2.183h1.258zm3.506-2.46v-.076c0-1.991 1.465-3.47 3.534-3.47 2.08 0 3.515 1.44 3.515 3.441v.076c0 1.992-1.396 3.49-3.515 3.49-2.138 0-3.534-1.497-3.534-3.46zm5.701-.018v-.077c0-1.4-.8-2.44-2.167-2.44-1.366 0-2.177.981-2.177 2.45v.075c0 1.488.927 2.45 2.197 2.45 1.317.001 2.147-.98 2.147-2.458zm2.694-3.431h2.245c1.562 0 2.587.677 2.587 2.107v.038c0 1.439-1.064 2.078-2.558 2.078h-.976v2.592h-1.299v-6.815h.001zm2.245 3.307c.86 0 1.318-.41 1.318-1.162v-.038c0-.81-.488-1.125-1.318-1.125h-.946v2.327h.946v-.002z"/></g></svg>