<?xml version="1.0" encoding="UTF-8"?>
<svg width="213px" height="60px" viewBox="0 0 213 60" version="1.1" xmlns="http://www.w3.org/2000/svg" xmlns:xlink="http://www.w3.org/1999/xlink">
    <title>Untitled</title>
    <g id="Page-1" stroke="none" stroke-width="1" fill="none" fill-rule="evenodd">
        <g id="online">
            <g id="Group">
                <g id="Combined-Shape_1_" fill="#E6E6E6">
                    <path d="M23.1,55.4 C21.2,56.7 18.8,57.8 15.8,58.6 C12.8,59.4 10.1,59.9 7.7,59.9 C8.6,58.5 9.3,56.7 9.9,54.5 C10.5,52.3 10.8,50.8 10.9,49.8 C4.4,44.7 0.3,36.8 0.3,27.9 C0.3,12.5 12.8,0.1 28.2,0.1 C43.6,0.1 56,12.7 56,28.1 C56,43.5 43.5,55.9 28.1,55.9 C26.4,55.9 24.7,55.7 23.1,55.4 Z" id="Path"></path>
                </g>
                <g id="Combined-Shape" transform="translate(3.000000, 0.000000)" fill="#E9B32F">
                    <path d="M23.1,55.4 C21.2,56.7 18.8,57.8 15.8,58.6 C12.8,59.4 10.1,59.9 7.7,59.9 C8.6,58.5 9.3,56.7 9.9,54.5 C10.5,52.3 10.8,50.8 10.9,49.8 C4.4,44.7 0.3,36.8 0.3,27.9 C0.3,12.5 12.8,0.1 28.2,0.1 C43.6,0.1 56,12.7 56,28.1 C56,43.5 43.5,55.9 28.1,55.9 C26.4,55.9 24.7,55.7 23.1,55.4 Z" id="Path"></path>
                </g>
                <g id="Group-6" transform="translate(10.100000, 6.300000)" fill="#FEFEFE">
                    <path d="M21.3,41.2 C10.4,41.2 1.6,32.4 1.6,21.5 C1.6,10.6 10.4,1.8 21.3,1.8 C32.2,1.8 41,10.6 41,21.5 C41,32.4 32.2,41.2 21.3,41.2 M21.3,0.2 C9.5,0.2 0,9.7 0,21.5 C0,33.3 9.6,42.8 21.4,42.8 C33.2,42.8 42.8,33.2 42.8,21.5 C42.7,9.7 33.1,0.2 21.3,0.2" id="Fill-1"></path>
                    <path d="M21,37.6 C21.7,37.6 22.2,37.1 22.2,36.4 C22.4,36.7 22.6,36.9 22.9,37 C23.2,37.1 23.5,37 23.8,36.9 C24.1,36.8 24.3,36.6 24.5,36.3 C24.6,36 24.6,35.7 24.5,35.4 C24.8,35.9 25.4,36 25.9,35.8 C26.6,35.5 26.9,34.9 26.6,34.2 C25.7,32.1 24.9,30.1 24,28 C23.9,27.8 23.9,27.6 23.8,27.4 C23.7,27.2 23.7,27.1 23.6,27 C23.5,26.9 23.5,26.9 23.4,26.8 C24.8,26.9 25.4,27.5 25.8,27.7 C25.9,27.8 25.9,27.8 26.3,27.7 C26.5,27.6 26.7,27.7 26.8,27.8 C27,27.9 27.1,28 27.3,28.1 C27.8,28.5 28.3,28.8 28.7,29.3 C28.9,29.5 29.2,29.8 29.2,30.1 C29.2,30.4 28.5,31 28.3,31.2 C27.8,31.7 28.5,32.5 29.5,32.4 C29.2,32.1 29.2,31.9 29.2,31.7 C29.3,31.7 29.5,31.7 29.6,31.6 C29.8,31.4 29.7,30.9 29.9,30.7 C30.2,30.4 31.3,30.3 32,30.3 C32.3,30.3 32.6,30.2 32.5,29.8 C32.9,29.8 33,30.1 33,30.4 C33.4,30.2 33.7,29.2 32.3,29 C32.5,28.8 32.9,28.7 33.1,29 C33.3,28.6 32.8,27.9 31.8,28.3 C31.8,28.3 31.4,27.7 30,29.2 C29.8,29.1 29.7,28.9 29.5,28.8 C29,28.3 27.7,27.1 27.7,27.1 C27.7,26.4 27.6,25 26.7,24.2 C26.3,23.8 25.9,23.7 25.1,23.5 C25.1,23.5 25.5,22.9 25.6,22.6 C26.3,23.3 27.8,23.6 27.8,22.3 C29,23.5 30.1,22.9 30.1,22.1 C30.1,22.5 30.2,22.9 30.4,23.2 C30.6,23.6 31.1,25.2 32.5,25.2 C32.5,25.7 32.5,27.5 34.2,27.9 C34.3,27.9 34.4,27.9 34.4,28 C35.1,28.9 38,29.8 38.3,29.5 C38.1,29.3 37.7,29.1 37.7,28.1 C37.7,27.4 37.6,24 37.6,19.1 C37.6,17.4 37.4,11.8 31.9,11 C31.1,10.9 30.2,10.9 29.5,11.5 C28.5,12.2 28.1,13.5 28.6,14.8 C28.6,14.8 28.6,14.9 28.7,14.9 C28.9,15.2 28.8,15.5 28.6,15.8 C28.1,16.3 27.6,16.6 27,16.6 C26.6,16.6 26.3,16.5 26,16.2 C25.4,15.6 24.9,14.8 24.8,13.9 C24.5,12.2 25,11.4 25,11.3 C25.4,10.4 26.4,9.7 27.5,9.6 C28,8.7 29.5,9 29.5,9 C29.9,9.1 30,9.2 30.1,9.4 C30.1,9.4 30.7,8.4 30.1,8 C29.5,7.6 28.2,7.4 28.2,7.4 C28.2,6.8 27.2,6.3 25.3,6.6 C23,7 22.5,6.1 22.5,6.1 C22.4,7.2 23.2,7.8 23.5,7.9 C22.5,9 21.3,10.9 21,13.6 C20.7,10.9 19.5,9 18.6,8.1 C18.9,7.9 19.7,7.4 19.6,6.3 C19.6,6.3 19.1,7.2 16.8,6.8 C15,6.4 14,6.9 14,7.5 C14,7.5 12.7,7.7 12.1,8.1 C11.5,8.5 12.1,9.5 12.1,9.5 C12.2,9.3 12.3,9.2 12.7,9.1 C12.7,9.1 14.2,8.7 14.7,9.7 C15.8,9.8 16.8,10.5 17.2,11.4 C17.2,11.5 17.7,12.3 17.4,14 C17.2,14.9 16.8,15.6 16.2,16.3 C15.9,16.6 15.6,16.8 15.2,16.7 C14.6,16.6 14,16.3 13.6,15.9 C13.3,15.6 13.3,15.4 13.5,15 C13.5,15 13.5,14.9 13.6,14.9 C14.2,13.5 13.7,12.3 12.7,11.6 C11.8,10.9 11,10.8 10.1,10.9 C4.6,11.7 4.4,17.3 4.4,19 C4.4,23.9 4.3,27.4 4.3,28 C4.2,29 3.9,29.2 3.7,29.4 C4.1,29.6 6.9,28.7 7.6,27.9 C7.6,27.8 7.7,27.8 7.8,27.8 C9.5,27.4 9.5,25.6 9.5,25.1 C10.9,25.1 11.5,23.5 11.6,23.1 C11.7,22.7 11.8,22.3 11.9,22 C11.9,22.8 13,23.4 14.2,22.2 C14.2,23.5 15.7,23.2 16.4,22.5 C16.5,22.8 16.9,23.4 16.9,23.4 C16.1,23.6 15.7,23.7 15.3,24.1 C14.4,24.9 14.3,26.3 14.3,27 C14.3,27 13,28.3 12.5,28.7 C12.3,28.8 12.2,29 12,29.1 C10.7,27.6 10.2,28.2 10.2,28.2 C9.2,27.8 8.7,28.5 8.9,28.9 C9.1,28.6 9.5,28.7 9.7,28.9 C8.4,29.1 8.7,30.1 9,30.3 C9,30 9.1,29.7 9.5,29.7 C9.5,30.1 9.8,30.2 10,30.2 C10.7,30.2 11.8,30.3 12.1,30.6 C12.3,30.8 12.2,31.3 12.4,31.5 C12.6,31.7 12.8,31.6 12.8,31.6 C12.8,31.8 12.8,32 12.5,32.3 C13.5,32.4 14.2,31.5 13.7,31.1 C13.7,30.9 13,30.3 13,30 C13,29.7 13.3,29.4 13.5,29.2 C14,28.8 14.5,28.4 14.9,28 C15,27.9 15.2,27.8 15.4,27.7 C15.5,27.6 15.7,27.6 15.9,27.6 C16.3,27.7 16.3,27.7 16.4,27.6 C16.8,27.4 17.4,26.8 18.8,26.7 C18.7,26.8 18.6,26.8 18.6,26.9 C18.5,27 18.5,27.1 18.4,27.3 C18.3,27.5 18.2,27.7 18.2,27.9 C17.3,30 16.5,32 15.6,34.1 C15.3,34.8 15.6,35.4 16.3,35.7 C16.8,35.9 17.4,35.8 17.7,35.3 C17.6,35.6 17.6,35.9 17.7,36.2 C17.8,36.5 18.1,36.7 18.4,36.8 C18.7,36.9 19,37 19.3,36.9 C19.6,36.8 19.8,36.6 20,36.3 C19.9,37.1 20.3,37.6 21,37.6" id="Fill-4"></path>
                </g>
            </g>
            <g id="Group" transform="translate(76.000000, 18.000000)" fill="#3E4148" fill-rule="nonzero">
                <polygon id="Path" points="0.9 1.3 4.2 1.3 4.2 17.1 13.4 17.1 13.4 1.3 16.7 1.3 16.7 17.1 19 17.1 19 23.5 15.8 23.5 15.8 20.2 0.9 20.2"></polygon>
                <path d="M34.6,4.4 L24,4.4 L24,8.7 L29.2,8.7 C33.7,8.7 35.9,10.8 35.9,14.3 C35.9,18.4 33.1,20.2 28.2,20.2 L20.7,20.2 L20.7,1.3 L34.5,1.3 L34.5,4.4 L34.6,4.4 Z M24.1,11.7 L24.1,17.1 L28.5,17.1 C31.2,17.1 32.6,16.3 32.6,14.3 C32.6,12.5 31.4,11.7 28.6,11.7 L24.1,11.7 L24.1,11.7 Z" id="Shape"></path>
                <path d="M50.9,5.8 C55.3,5.8 58.4,8.9 58.4,13.1 C58.4,17.3 55.3,20.4 50.9,20.4 C46.5,20.4 43.4,17.3 43.4,13.1 C43.4,8.9 46.5,5.8 50.9,5.8 Z M50.9,17.6 C53.5,17.6 55.2,15.9 55.2,13.2 C55.2,10.5 53.3,8.7 50.9,8.7 C48.4,8.7 46.6,10.4 46.6,13.2 C46.6,15.7 48.4,17.6 50.9,17.6 Z" id="Shape"></path>
                <polygon id="Path" points="70.2 14.5 63.5 14.5 63.5 20.2 60.4 20.2 60.4 6.2 63.5 6.2 63.5 11.7 70.2 11.7 70.2 6.2 73.3 6.2 73.3 20.2 70.2 20.2"></polygon>
                <path d="M85.6,9 L80.6,9 L80.6,11.2 C80.6,18.6 78.2,20.6 74.7,20.3 L74.5,17.4 C76,17.5 77.6,16.6 77.6,10.1 L77.6,6.1 L88.7,6.1 L88.7,20.1 L85.6,20.1 L85.6,9 Z" id="Path"></path>
                <path d="M91.3,7.9 C92.6,6.6 94.9,5.8 97.2,5.8 C100.9,5.8 102.9,7.9 102.9,11.6 L102.9,20.2 L99.8,20.2 L99.8,18.7 C99,19.6 97.5,20.4 95.5,20.4 C92.4,20.4 90.4,18.7 90.4,16 C90.4,12.9 93.2,11.5 97,11.5 C98,11.5 99.2,11.7 99.9,11.9 C99.9,9.9 99.1,8.7 96.9,8.7 C95.4,8.7 94.2,9.2 92.9,10.2 L91.3,7.9 Z M99.9,15.8 L99.9,14.5 C99.3,14.3 98.3,14.1 97.3,14.1 C95.1,14.1 93.6,14.6 93.6,16 C93.6,17.1 94.6,17.8 96.2,17.8 C98.1,17.7 99.3,16.7 99.9,15.8 Z" id="Shape"></path>
                <path d="M105.5,20.2 L105.5,6.2 L108.6,6.2 L108.6,15.4 L116.1,6.2 L118.8,6.2 L118.8,20.2 L115.7,20.2 L115.7,11.1 L108.2,20.2 L105.5,20.2 Z M110.4,0.2 C110.4,1.3 111.1,2 112.3,2 C113.5,2 114.1,1.3 114.1,0.2 L116.9,0.2 C116.8,3 114.7,4.4 112.3,4.4 C109.7,4.4 107.6,3 107.5,0.2 L110.4,0.2 Z" id="Shape"></path>
                <polygon id="Path" points="131.1 14.5 124.4 14.5 124.4 20.2 121.3 20.2 121.3 6.2 124.4 6.2 124.4 11.7 131.1 11.7 131.1 6.2 134.2 6.2 134.2 20.2 131.1 20.2"></polygon>
            </g>
            <g id="Group" transform="translate(77.000000, 5.000000)" fill="#3E4148" fill-rule="nonzero">
                <polygon id="Path" points="0.1 2.9 0.8 2.9 3.4 6.2 5.9 2.9 6.6 2.9 6.6 9.1 5.8 9.1 5.8 4.2 3.4 7.4 0.9 4.2 0.9 9.1 0.1 9.1"></polygon>
                <path d="M10.9,2.7 C12.8,2.7 14.2,4.1 14.2,6 C14.2,7.9 12.9,9.2 10.9,9.2 C8.9,9.2 7.6,7.8 7.6,6 C7.6,4.1 8.9,2.7 10.9,2.7 Z M10.9,8.5 C12.3,8.5 13.4,7.5 13.4,6 C13.4,4.5 12.3,3.5 10.9,3.5 C9.5,3.5 8.4,4.5 8.4,6 C8.4,7.5 9.5,8.5 10.9,8.5 Z" id="Shape"></path>
                <path d="M20.6,0.9 C19.6,1.3 18,1.1 17.1,1.5 C15.9,2.1 15.6,3.4 15.6,4.4 C16.1,3.5 17.2,3 18.3,3 C20.1,3 21.3,4.1 21.3,6 C21.3,7.8 20,9.2 18.1,9.2 C16.1,9.2 14.8,7.9 14.8,5.5 C14.8,3.2 15.1,1.7 16.7,0.9 C17.8,0.3 19.4,0.6 20.4,0.2 L20.6,0.9 Z M15.6,5.7 C15.6,7.5 16.6,8.5 18,8.5 C19.4,8.5 20.4,7.4 20.4,6.1 C20.4,4.7 19.6,3.8 18.1,3.8 C16.7,3.8 15.9,4.7 15.6,5.7 L15.6,5.7 Z" id="Shape"></path>
                <polygon id="Path" points="22.2 9.1 22.2 2.9 23 2.9 23 8 27.1 2.9 27.9 2.9 27.9 9.1 27.1 9.1 27.1 4 23 9.1"></polygon>
                <path d="M33.9,3.6 L30.8,3.6 L30.8,4.7 C30.8,8.1 29.8,9.1 28.8,9.1 C28.7,9.1 28.7,9.1 28.6,9.1 L28.5,8.3 C28.5,8.3 28.6,8.3 28.6,8.3 C29.2,8.3 30,7.7 30,4.6 L30,2.9 L34.7,2.9 L34.7,9.1 L33.9,9.1 L33.9,3.6 L33.9,3.6 Z" id="Path"></path>
                <path d="M36.1,2.9 L36.9,2.9 L36.9,4.9 L38.7,4.9 C40.6,4.9 41.2,5.8 41.2,7 C41.2,8.1 40.6,9.1 38.6,9.1 L36.1,9.1 L36.1,2.9 Z M36.8,5.7 L36.8,8.4 L38.4,8.4 C39.7,8.4 40.2,7.9 40.2,7 C40.2,6.1 39.7,5.6 38.4,5.6 L36.8,5.6 L36.8,5.7 Z" id="Shape"></path>
                <polygon id="Path" points="46.8 6.3 42.8 6.3 42.8 9.1 42 9.1 42 2.9 42.8 2.9 42.8 5.6 46.8 5.6 46.8 2.9 47.6 2.9 47.6 9.1 46.8 9.1"></polygon>
                <path d="M51.9,2.7 C53.8,2.7 55.2,4.1 55.2,6 C55.2,7.9 53.9,9.2 51.9,9.2 C50,9.2 48.6,7.8 48.6,6 C48.6,4.1 49.9,2.7 51.9,2.7 Z M51.9,8.5 C53.3,8.5 54.4,7.5 54.4,6 C54.4,4.5 53.3,3.5 51.9,3.5 C50.5,3.5 49.4,4.5 49.4,6 C49.4,7.5 50.4,8.5 51.9,8.5 Z" id="Shape"></path>
                <path d="M61.6,7.9 C61,8.8 60.1,9.2 59.1,9.2 C57.1,9.2 55.8,7.9 55.8,6 C55.8,4.2 56.9,2.7 59,2.7 C60.6,2.7 61.9,3.8 61.9,5.5 C61.9,5.7 61.9,6 61.9,6.2 L56.8,6.2 C56.8,7.6 57.9,8.5 59.3,8.5 C60.1,8.5 60.8,8 61.2,7.5 L61.6,7.9 Z M56.6,5.5 L61,5.5 C61,4.2 60.2,3.4 58.9,3.4 C57.5,3.5 56.7,4.3 56.6,5.5 Z" id="Shape"></path>
                <polygon id="Path" points="70.9 3.6 67 3.6 67 9.1 66.2 9.1 66.2 2.9 71.7 2.9 71.7 9.1 70.9 9.1 70.9 3.6"></polygon>
                <path d="M73,2.9 L73.8,2.9 L73.8,3.8 C74.3,3 75.2,2.7 76,2.7 C77.8,2.7 79,4 79,5.9 C79,7.8 77.7,9.3 75.9,9.3 C74.9,9.3 74.3,9.1 73.8,8.6 L73.8,11.6 L73,11.6 L73,2.9 Z M73.8,5 L73.8,7.4 C74.2,8.2 75,8.5 75.8,8.5 C77.1,8.5 78.1,7.4 78.1,5.9 C78.1,4.4 77.3,3.4 75.9,3.4 C74.8,3.5 74.1,4.2 73.8,5 Z" id="Shape"></path>
                <polygon id="Path" points="80 9.1 80 2.9 80.8 2.9 80.8 8 84.9 2.9 85.7 2.9 85.7 9.1 84.9 9.1 84.9 4 80.8 9.1"></polygon>
                <path d="M91.6,3.6 L88.5,3.6 L88.5,4.7 C88.5,8.1 87.5,9.1 86.5,9.1 C86.4,9.1 86.4,9.1 86.3,9.1 L86.2,8.3 C86.2,8.3 86.3,8.3 86.3,8.3 C86.9,8.3 87.7,7.7 87.7,4.6 L87.7,2.9 L92.4,2.9 L92.4,9.1 L91.6,9.1 L91.6,3.6 Z" id="Path"></path>
                <path d="M96.7,2.7 C98.6,2.7 100,4.1 100,6 C100,7.9 98.7,9.2 96.7,9.2 C94.8,9.2 93.4,7.8 93.4,6 C93.4,4.1 94.7,2.7 96.7,2.7 Z M96.7,8.5 C98.1,8.5 99.2,7.5 99.2,6 C99.2,4.5 98.1,3.5 96.7,3.5 C95.3,3.5 94.2,4.5 94.2,6 C94.2,7.5 95.3,8.5 96.7,8.5 Z" id="Shape"></path>
                <polygon id="Path" points="100 2.9 101 2.9 104 5.8 104 2.9 104.8 2.9 104.8 5.8 107.8 2.9 108.8 2.9 105.9 5.8 109 9.2 108 9.2 105.3 6.3 104.9 6.7 104.9 9.2 104 9.2 104 6.7 103.5 6.3 100.9 9.1 99.9 9.1 102.9 5.8"></polygon>
                <path d="M114.6,7.9 C114,8.8 113.1,9.2 112.1,9.2 C110.1,9.2 108.8,7.9 108.8,6 C108.8,4.2 109.9,2.7 112,2.7 C113.6,2.7 114.9,3.8 114.9,5.5 C114.9,5.7 114.9,6 114.9,6.2 L109.8,6.2 C109.8,7.6 110.9,8.5 112.3,8.5 C113.1,8.5 113.8,8 114.2,7.5 L114.6,7.9 Z M109.6,5.5 L114,5.5 C114,4.2 113.2,3.4 111.9,3.4 C110.6,3.5 109.8,4.3 109.6,5.5 Z" id="Shape"></path>
                <polygon id="Path" points="120.6 6.3 116.6 6.3 116.6 9.1 115.8 9.1 115.8 2.9 116.6 2.9 116.6 5.6 120.6 5.6 120.6 2.9 121.4 2.9 121.4 9.1 120.6 9.1"></polygon>
                <polygon id="Path" points="122.7 9.1 122.7 2.9 123.5 2.9 123.5 8 127.6 2.9 128.4 2.9 128.4 9.1 127.6 9.1 127.6 4 123.5 9.1"></polygon>
                <path d="M135.2,7.9 C134.6,8.8 133.7,9.2 132.7,9.2 C130.7,9.2 129.4,7.9 129.4,6 C129.4,4.2 130.5,2.7 132.6,2.7 C134.2,2.7 135.5,3.8 135.5,5.5 C135.5,5.7 135.5,6 135.5,6.2 L130.4,6.2 C130.4,7.6 131.5,8.5 132.9,8.5 C133.7,8.5 134.4,8 134.8,7.5 L135.2,7.9 Z M130.2,5.5 L134.6,5.5 C134.6,4.2 133.8,3.4 132.5,3.4 C131.2,3.5 130.3,4.3 130.2,5.5 Z" id="Shape"></path>
            </g>
        </g>
    </g>
</svg>