<svg xmlns="http://www.w3.org/2000/svg" width="20" height="16"><g fill="none" fill-rule="evenodd"><path d="M-8-8h32v32H-8z"/><path fill="#FFF" d="M19.525 1.989c-.361.18-1.356.542-2.26.632.633-.361 1.447-1.355 1.718-2.169-.542.362-1.898.904-2.531.904C15.729.633 14.644 0 13.559 0 11.3 0 9.672 1.898 9.672 4.158c0 .271 0 .633.09.904C6.78 4.972 3.255 3.345 1.267.723 0 2.803 1.085 5.333 2.53 6.237c-.452 0-1.356-.09-1.717-.452 0 1.447.632 3.255 3.073 3.978-.452.09-1.356.09-1.718 0 .09 1.175 1.808 2.712 3.616 2.712-.632.723-3.073 2.079-5.785 1.717C1.898 15.277 3.977 16 6.328 16c6.508 0 11.841-5.243 11.57-11.751v-.181c.543-.452 1.085-1.175 1.627-2.08z" opacity=".8"/></g></svg>