<?xml version="1.0" encoding="UTF-8" standalone="no"?>
<!DOCTYPE svg PUBLIC "-//W3C//DTD SVG 1.1//EN" "http://www.w3.org/Graphics/SVG/1.1/DTD/svg11.dtd" >
<svg xmlns="http://www.w3.org/2000/svg">
<metadata>
Generated by SVGconv.
Copyright   : Copyright  2019 ParaType Inc., ParaType Ltd. All rights reserved.
Designer    : ParaType, Ltd
Foundry     : ParaType, Ltd
Foundry URL : http://www.paratype.com
</metadata>
<defs>
<font id="CB_Stem-Light" horiz-adv-x="550" >
<font-face units-per-em="1000" ascent="994" descent="296" >
<font-face-src>
<font-face-name/>
</font-face-src>
</font-face>
<missing-glyph horiz-adv-x="500" />
<glyph unicode="&#13;" horiz-adv-x="300" />
<glyph unicode="&#32;" horiz-adv-x="300" />
<glyph unicode="&#33;" horiz-adv-x="310" d="M121 700h68v-508h-68zM100 51q0 18 15 33.5q15 15.5 40 15.5q22 0 37 -15.5q15 -15.5 15 -33.5q0 -22 -15 -38q-15 -16 -37 -16q-25 0 -40 16t-15 38z" />
<glyph unicode="&#34;" horiz-adv-x="410" d="M93 700h67v-217h-67zM250 700h67v-217l-67 0z" />
<glyph unicode="&#35;" horiz-adv-x="691" d="M385 204h-190l-80 -215l-55 19l73 196h-93v58h115q17 44 33 87q16 43 33 89l-181 0v58h202q20 54 40 108.5q20 54.5 40 106.5l55 -19l-73 -196h191l79 215l55 -18l-74 -197h97v-58h-118q-17 -44 -33 -87q-16 -43 -33 -89l184 0v-58h-205l-79 -215l-55 19zM217 262h191l64 176l-189 0z" />
<glyph unicode="&#36;" horiz-adv-x="600" d="M491 183q0 36 -19 59q-19 23 -50.5 38.5q-31.5 15.5 -71.5 25.5q-40 10 -81.5 20.5q-41.5 10.5 -81.5 24q-40 13.5 -71.5 35q-31.5 21.5 -50.5 54q-19 32.5 -19 81.5q0 36 16 68q16 32 45 57.5q29 25.5 71 41.5q42 16 95 20l0 80h66v-81q68 -5 122.5 -28.5q54.5 -23.5 88.5 -65.5l-45 -45q-32 31 -82.5 53q-50.5 22 -121.5 22q-27 0 -58.5 -6q-31.5 -6 -59 -20q-27.5 -14 -46 -37q-18.5 -23 -18.5 -56q0 -36 19 -59q19 -23 50.5 -38.5q31.5 -15.5 71.5 -26q40 -10.5 81.5 -21q41.5 -10.5 81.5 -24q40 -13.5 71.5 -34.5q31.5 -21 50.5 -53q19 -32 19 -79q0 -41 -17 -76q-17 -35 -47 -60.5q-30 -25.5 -71 -41.5q-41 -16 -90 -19l0 -90h-66v92q-40 4 -77 16q-37 12 -68 29q-31 17 -55.5 38.5q-24.5 21.5 -40.5 45.5l48 49q15 -21 38.5 -41.5q23.5 -20.5 54 -37q30.5 -16.5 67.5 -26.5q37 -10 81 -10q33 0 63.5 8.5q30.5 8.5 54 25q23.5 16.5 38 39.5t14.5 53z" />
<glyph unicode="&#37;" horiz-adv-x="862" d="M47 537q0 37 13.5 67.5q13.5 30.5 37.5 52.5q24 22 56 34q32 12 70 12q37 0 69.5 -12q32.5 -12 56 -34q23.5 -22 37 -52.5q13.5 -30.5 13.5 -67.5q0 -36 -13.5 -66.5q-13.5 -30.5 -37 -52.5q-23.5 -22 -56 -34.5q-32.5 -12.5 -69.5 -12.5q-38 0 -70 12.5q-32 12.5 -56 34.5q-24 22 -37.5 52.5q-13.5 30.5 -13.5 66.5zt0 0zM111 537q0 -25 9.5 -45.5q9.5 -20.5 25 -35q15.5 -14.5 36 -22.5q20.5 -8 42.5 -8q46 0 79 30q33 30 33 81q0 25 -9 45.5q-9 20.5 -24.5 35q-15.5 14.5 -36 22.5q-20.5 8 -42.5 8q-23 0 -43 -8q-20 -8 -36 -22.5q-16 -14.5 -25 -35q-9 -20.5 -9 -45.5zt0 0zM667 718l48 -35l-517 -695l-49 29zM462 162q0 37 13.5 67.5q13.5 30.5 37.5 52.5q24 22 56 34q32 12 70 12q37 0 69 -12q32 -12 56 -34q24 -22 37.5 -52.5q13.5 -30.5 13.5 -67.5q0 -36 -13.5 -66.5q-13.5 -30.5 -37.5 -52.5q-24 -22 -56 -34.5q-32 -12.5 -69 -12.5q-38 0 -70 12.5q-32 12.5 -56 34.5q-24 22 -37.5 52.5q-13.5 30.5 -13.5 66.5zt0 0zM526 162q0 -25 9.5 -45.5q9.5 -20.5 25 -35q15.5 -14.5 36 -22.5q20.5 -8 42.5 -8q22 0 42.5 8q20.5 8 36 22.5q15.5 14.5 24.5 35q9 20.5 9 45.5q0 25 -9 45.5q-9 20.5 -24.5 35q-15.5 14.5 -36 22.5q-20.5 8 -42.5 8q-23 0 -43 -8q-20 -8 -36 -22.5q-16 -14.5 -25 -35t-9 -45.5z" />
<glyph unicode="&#38;" horiz-adv-x="783" d="M664 0q-29 21 -53.5 45q-24.5 24 -50.5 48q-18 -23 -43.5 -41.5q-25.5 -18.5 -55.5 -32q-30 -13.5 -63.5 -21q-33.5 -7.5 -66.5 -7.5q-57 0 -105 15q-48 15 -82.5 41q-34.5 26 -53.5 62.5q-19 36.5 -19 80.5q0 44 20.5 79q20.5 35 51.5 64q31 29 67.5 52.5q36.5 23.5 68.5 44.5q-30 38 -49.5 76q-19.5 38 -19.5 83q0 55 38 87.5q38 32.5 97 32.5q66 0 101.5 -33q35.5 -33 35.5 -90q0 -25 -9.5 -48q-9.5 -23 -26 -44q-16.5 -21 -38 -40q-21.5 -19 -45.5 -36q15 -24 37 -52.5q22 -28.5 48 -59q26 -30.5 54.5 -61.5q28.5 -31 56.5 -61q15 25 28.5 57.5q13.5 32.5 23.5 68q10 35.5 15.5 73.5q5.5 38 5.5 75l66 0q0 -42 -6.5 -85q-6.5 -43 -19 -85q-12.5 -42 -30 -80q-17.5 -38 -39.5 -69q35 -39 73.5 -72q38.5 -33 83.5 -67zM334 54q24 0 49 5.5q25 5.5 49 15.5q24 10 45 25q21 15 36 35q-28 30 -57 64q-29 34 -55.5 66.5q-26.5 32.5 -50 62.5q-23.5 30 -40.5 53q-30 -21 -60 -41q-30 -20 -54 -42q-24 -22 -39 -47.5q-15 -25.5 -15 -57.5q0 -29 13.5 -54.5q13.5 -25.5 38.5 -44q25 -18.5 60.5 -29.5q35.5 -11 79.5 -11zt0 0zM277 580q0 -35 17 -61.5q17 -26.5 37 -55.5q38 28 62 57.5q24 29.5 24 61.5q0 29 -18 50q-18 21 -53 21q-29 0 -49 -18.5t-20 -54.5z" />
<glyph unicode="&#39;" horiz-adv-x="253" d="M93 700h67v-217l-67 0z" />
<glyph unicode="&#40;" horiz-adv-x="299" d="M245 -205q-59 50 -98.5 108q-39.5 58 -63.5 118.5q-24 60.5 -34.5 121q-10.5 60.5 -10.5 114.5q0 54 10.5 113.5q10.5 59.5 34.5 119q24 59.5 64 118q40 58.5 99 111.5l42 -37q-51 -48 -86 -100q-35 -52 -56.5 -106.5q-21.5 -54.5 -31.5 -110q-10 -55.5 -10 -108.5q0 -58 13 -116q13 -58 37 -113q24 -55 58 -104.5q34 -49.5 77 -91.5z" />
<glyph unicode="&#41;" horiz-adv-x="298" d="M10 -168q47 42 82 93.5q35 51.5 57.5 107.5q22.5 56 33.5 113.5q11 57.5 11 110.5q0 53 -10 108.5q-10 55.5 -31.5 110q-21.5 54.5 -56.5 106.5q-35 52 -86 100l43 37q58 -53 98 -111.5q40 -58.5 64 -118q24 -59.5 34.5 -119q10.5 -59.5 10.5 -113.5q0 -54 -10.5 -114.5q-10.5 -60.5 -34.5 -121q-24 -60.5 -63.5 -118.5q-39.5 -58 -97.5 -108z" />
<glyph unicode="&#42;" horiz-adv-x="501" d="M281 555l135 50l21 -65l-139 -39l90 -114l-57 -42l-80 120l-81 -121l-57 42l91 116l-139 39l21 65l137 -50l-6 144l70 0z" />
<glyph unicode="&#43;" horiz-adv-x="591" d="M70 389h194v196h61v-196h197v-58h-197v-198h-61v198l-194 0z" />
<glyph unicode="&#44;" horiz-adv-x="198" d="M113 7q-31 -11 -46.5 4.5q-15.5 15.5 -15.5 40.5q0 23 16 36q16 13 33 13q63 0 63 -86q0 -71 -31.5 -110.5q-31.5 -39.5 -74.5 -50.5l-17 36q15 4 30 14.5q15 10.5 26 25.5q11 15 16 34.5t1 42.5z" />
<glyph unicode="&#45;" horiz-adv-x="404" d="M82 304h240v-61l-240 0z" />
<glyph unicode="&#46;" horiz-adv-x="211" d="M52 52q0 18 15 33.5q15 15.5 40 15.5q22 0 37 -15.5q15 -15.5 15 -33.5q0 -22 -15 -38q-15 -16 -37 -16q-25 0 -40 16t-15 38z" />
<glyph unicode="&#47;" horiz-adv-x="326" d="M302 711l55 -19l-333 -899l-56 21z" />
<glyph unicode="&#48;" horiz-adv-x="681" d="M47 350q0 78 19 143.5q19 65.5 56 113q37 47.5 92 74.5q55 27 126 27q72 0 126.5 -27q54.5 -27 92 -74.5q37.5 -47.5 56.5 -113q19 -65.5 19 -143.5q0 -78 -19 -143.5q-19 -65.5 -55.5 -113q-36.5 -47.5 -91 -74.5q-54.5 -27 -126.5 -27q-71 0 -126 27q-55 27 -92.5 74.5q-37.5 47.5 -57 113q-19.5 65.5 -19.5 143.5zt0 0zM117 350q0 -68 15.5 -122q15.5 -54 44.5 -92.5q29 -38.5 70.5 -59q41.5 -20.5 94.5 -20.5q55 0 96.5 20.5q41.5 20.5 69.5 59q28 38.5 42 92.5q14 54 14 122q0 67 -14.5 121.5q-14.5 54.5 -43 93q-28.5 38.5 -70.5 59q-42 20.5 -96 20.5q-54 0 -95.5 -21q-41.5 -21 -70 -59.5q-28.5 -38.5 -43 -92.5t-14.5 -121z" />
<glyph unicode="&#49;" horiz-adv-x="395" d="M247 705h44v-705h-66v623l-196 -92l-25 58z" />
<glyph unicode="&#50;" horiz-adv-x="589" d="M35 550q13 35 38 64q25 29 58.5 50q33.5 21 73.5 32.5q40 11.5 84 11.5q59 0 104.5 -16.5q45.5 -16.5 76 -45q30.5 -28.5 46.5 -67q16 -38.5 16 -82.5q0 -55 -19.5 -102.5q-19.5 -47.5 -54.5 -91q-35 -43.5 -85.5 -84q-50.5 -40.5 -111.5 -80.5l-117 -76h407v-63h-521v53l175 124q61 44 109 82q48 38 81 75q33 37 50 75q17 38 17 81q0 32 -11.5 59.5q-11.5 27.5 -34 48q-22.5 20.5 -55 32.5q-32.5 12 -75.5 12q-35 0 -65 -9.5q-30 -9.5 -55 -26q-25 -16.5 -43 -37.5q-18 -21 -29 -45z" />
<glyph unicode="&#51;" horiz-adv-x="604" d="M42 559q16 33 43 60.5q27 27.5 62.5 47.5q35.5 20 79 31q43.5 11 91.5 11q46 0 87 -12.5q41 -12.5 71.5 -35q30.5 -22.5 48 -55.5q17.5 -33 17.5 -73q0 -62 -29.5 -103q-29.5 -41 -85.5 -61q27 -5 52.5 -17q25.5 -12 45.5 -32.5q20 -20.5 32 -49q12 -28.5 12 -65.5q0 -54 -19.5 -94q-19.5 -40 -55 -67q-35.5 -27 -84.5 -40q-49 -13 -107 -13q-47 0 -91 11.5q-44 11.5 -82 33.5q-38 22 -66.5 52.5q-28.5 30.5 -43.5 68.5l61 26q33 -57 91 -91q58 -34 134 -34q41 0 76 9q35 9 61 26.5q26 17.5 41 43q15 25.5 15 58.5q0 37 -15 62.5q-15 25.5 -41 40.5q-26 15 -61 21.5q-35 6.5 -76 6.5h-95v65h77q35 0 68 10q33 10 59 27.5q26 17.5 41.5 41.5q15.5 24 15.5 52q0 30 -13.5 53q-13.5 23 -36 38q-22.5 15 -51.5 22.5q-29 7.5 -59 7.5q-76 0 -129 -32q-53 -32 -84 -83z" />
<glyph unicode="&#52;" horiz-adv-x="657" d="M448 150h-433v45l437 505h63v-486h127v-64h-127v-150h-67zM448 214v381l-339 -381z" />
<glyph unicode="&#53;" horiz-adv-x="597" d="M108 700h446v-65h-388l-27 -223q27 13 65 22.5q38 9.5 102 9.5q59 0 106 -16.5q47 -16.5 80 -46.5q33 -30 50.5 -71.5q17.5 -41.5 17.5 -90.5q0 -52 -19.5 -94q-19.5 -42 -54.5 -72q-35 -30 -83.5 -46q-48.5 -16 -106.5 -16q-42 0 -83 9q-41 9 -76.5 27.5q-35.5 18.5 -64 46q-28.5 27.5 -46.5 64.5l60 30q11 -23 31 -43q20 -20 47.5 -35q27.5 -15 61 -24q33.5 -9 71.5 -9q43 0 79 12q36 12 61 33.5q25 21.5 39 50.5q14 29 14 63q0 39 -15 70q-15 31 -41 52.5q-26 21.5 -62 33q-36 11.5 -79 11.5q-57 0 -98 -13.5q-41 -13.5 -74 -33.5l-54 8z" />
<glyph unicode="&#54;" horiz-adv-x="662" d="M50 331q0 94 23 164.5q23 70.5 65 117q42 46.5 101 70.5q59 24 130 26q69 2 122.5 -20.5q53.5 -22.5 83.5 -54.5l-39 -48q-33 32 -77 44.5q-44 12.5 -95 12.5q-49 0 -94 -17.5q-45 -17.5 -79 -54q-34 -36.5 -54 -94.5q-20 -58 -19 -139q16 31 42 54.5q26 23.5 58 39.5q32 16 68 24q36 8 72 8q125 0 194.5 -56.5q69.5 -56.5 69.5 -169.5q0 -63 -24 -109.5q-24 -46.5 -62.5 -77q-38.5 -30.5 -87 -45.5q-48.5 -15 -97.5 -15q-141 0 -221 87.5q-80 87.5 -80 252.5zt0 0zM129 262q0 -37 13.5 -73.5q13.5 -36.5 41 -66q27.5 -29.5 69 -47.5q41.5 -18 97.5 -18q37 0 73 11q36 11 64.5 33.5q28.5 22.5 46.5 56q18 33.5 18 78.5q0 48 -16 79.5q-16 31.5 -44.5 51q-28.5 19.5 -66.5 27.5q-38 8 -83 8q-37 0 -73 -14q-36 -14 -65.5 -35q-29.5 -21 -49.5 -45.5t-25 -45.5z" />
<glyph unicode="&#55;" horiz-adv-x="556" d="M22 700h511v-45l-342 -655h-74l334 635l-429 0z" />
<glyph unicode="&#56;" horiz-adv-x="667" d="M350 392q28 0 58 9.5q30 9.5 54.5 26q24.5 16.5 40 39.5q15.5 23 15.5 51q0 30 -14 53.5q-14 23.5 -39 39.5q-25 16 -59 24.5q-34 8.5 -74 8.5q-38 0 -71.5 -8.5q-33.5 -8.5 -58.5 -24.5q-25 -16 -39 -39.5q-14 -23.5 -14 -53.5q0 -27 13.5 -50.5q13.5 -23.5 36.5 -40q23 -16.5 54 -26q31 -9.5 66 -9.5zM322 328q-41 0 -77 -10.5q-36 -10.5 -62.5 -28.5q-26.5 -18 -42 -42.5q-15.5 -24.5 -15.5 -53.5q0 -33 15.5 -58.5q15.5 -25.5 43.5 -43.5q28 -18 66 -27q38 -9 83 -9q97 0 153 36.5q56 36.5 56 101.5q0 32 -14.5 57q-14.5 25 -40.5 42.5q-26 17.5 -61.5 26.5q-35.5 9 -77.5 9zM334 -9q-63 0 -114.5 13.5q-51.5 13.5 -88 38.5q-36.5 25 -56.5 61q-20 36 -20 81q0 66 38 111.5q38 45.5 107 65.5q-32 9 -55 25.5q-23 16.5 -38 38q-15 21.5 -22 46.5q-7 25 -7 51q0 42 17.5 76.5q17.5 34.5 50.5 58.5q33 24 80.5 37.5q47.5 13.5 106.5 13.5q124 0 190 -51q66 -51 66 -135q0 -57 -33 -97.5q-33 -40.5 -91 -62.5q36 -4 63.5 -19q27.5 -15 46 -38.5q18.5 -23.5 28 -53.5q9.5 -30 9.5 -63q0 -47 -19.5 -84q-19.5 -37 -55.5 -62.5q-36 -25.5 -87.5 -38.5t-115.5 -13z" />
<glyph unicode="&#57;" horiz-adv-x="622" d="M596 369q0 -99 -24 -170q-24 -71 -64.5 -117.5q-40.5 -46.5 -93.5 -68.5q-53 -22 -111 -22q-78 0 -131.5 20.5q-53.5 20.5 -83.5 52.5l39 48q14 -12 31 -22.5q17 -10.5 38 -17.5q21 -7 48 -11q27 -4 62 -4q42 0 82.5 17.5q40.5 17.5 72 54q31.5 36.5 50 93.5q18.5 57 16.5 136q-16 -30 -41.5 -53q-25.5 -23 -57 -38q-31.5 -15 -67 -23q-35.5 -8 -70.5 -8q-62 0 -109.5 17q-47.5 17 -80 48.5q-32.5 31.5 -49.5 74.5q-17 43 -17 96q0 53 22.5 97q22.5 44 60 75q37.5 31 87 48q49.5 17 102.5 17q139 0 214 -87q75 -87 75 -253zt0 0zM517 435q0 37 -13 74q-13 37 -39.5 67q-26.5 30 -65.5 48.5q-39 18.5 -90 18.5q-45 0 -82.5 -12q-37.5 -12 -64.5 -34.5q-27 -22.5 -42 -53.5q-15 -31 -15 -69q0 -87 51 -131.5q51 -44.5 148 -44.5q37 0 73 13.5q36 13.5 65 34q29 20.5 49.5 44.5t25.5 45z" />
<glyph unicode="&#58;" horiz-adv-x="316" d="M103 471q0 18 15 33.5q15 15.5 40 15.5q22 0 37 -15.5q15 -15.5 15 -33.5q0 -22 -15 -38q-15 -16 -37 -16q-25 0 -40 16q-15 16 -15 38zt0 0zM102 54q0 18 15 33.5q15 15.5 40 15.5q22 0 37 -15.5q15 -15.5 15 -33.5q0 -22 -15 -38q-15 -16 -37 -16q-25 0 -40 16t-15 38z" />
<glyph unicode="&#59;" horiz-adv-x="319" d="M170 7q-31 -11 -46.5 4.5q-15.5 15.5 -15.5 40.5q0 23 16 36q16 13 33 13q63 0 63 -86q0 -71 -31.5 -110.5q-31.5 -39.5 -74.5 -50.5l-17 36q15 4 30 14.5q15 10.5 26 25.5q11 15 16 34.5q5 19.5 1 42.5zt0 0zM103 471q0 18 15 33.5q15 15.5 40 15.5q22 0 37 -15.5q15 -15.5 15 -33.5q0 -22 -15 -38q-15 -16 -37 -16q-25 0 -40 16t-15 38z" />
<glyph unicode="&#60;" horiz-adv-x="580" d="M56 348v27l426 266v-72l-335 -207l335 -210l0 -71z" />
<glyph unicode="&#61;" horiz-adv-x="586" d="M70 476h447v-58h-447zM70 301h447v-58l-447 0z" />
<glyph unicode="&#62;" horiz-adv-x="580" d="M98 81v71l336 210l-336 207v72l426 -266l0 -27z" />
<glyph unicode="&#63;" horiz-adv-x="575" d="M465 524q0 51 -40 85q-40 34 -129 34q-45 0 -77.5 -10q-32.5 -10 -55.5 -26q-23 -16 -39 -36q-16 -20 -28 -40l-56 24q12 30 34.5 58q22.5 28 54.5 49.5q32 21.5 75 34q43 12.5 96 12.5q61 0 105.5 -13.5q44.5 -13.5 73 -37q28.5 -23.5 42.5 -55q14 -31.5 14 -66.5q0 -49 -18.5 -84q-18.5 -35 -46 -61q-27.5 -26 -60 -45.5q-32.5 -19.5 -60 -37q-27.5 -17.5 -46 -35.5q-18.5 -18 -18.5 -42q0 -17 1 -23.5q1 -6.5 3 -18.5l-62 0q-4 16 -4 30q0 14 0 26q0 29 17.5 50.5q17.5 21.5 44.5 40.5q27 19 58 37.5q31 18.5 58 39.5q27 21 45 47.5q18 26.5 18 62.5zt0 0zM203 51q0 18 15 33.5q15 15.5 40 15.5q22 0 37 -15.5q15 -15.5 15 -33.5q0 -22 -15 -38q-15 -16 -37 -16q-25 0 -40 16t-15 38z" />
<glyph unicode="&#64;" horiz-adv-x="1004" d="M638 46q-24 -26 -62.5 -40.5q-38.5 -14.5 -82.5 -14.5q-51 0 -92.5 17q-41.5 17 -71 47.5q-29.5 30.5 -45.5 74q-16 43.5 -16 97.5q0 50 19 93q19 43 53 75q34 32 80.5 50.5q46.5 18.5 100.5 18.5q51 0 98.5 -13.5q47.5 -13.5 84.5 -38.5l0 -351q43 1 75 17.5q32 16.5 53.5 44q21.5 27.5 32 65.5q10.5 38 10.5 82q0 73 -27 133.5q-27 60.5 -75 104.5q-48 44 -115 68.5q-67 24.5 -147 24.5q-82 0 -152 -28q-70 -28 -121 -78q-51 -50 -80 -118q-29 -68 -29 -149q0 -79 28.5 -147q28.5 -68 79.5 -118.5q51 -50.5 121 -79q70 -28.5 153 -28.5q62 0 114 13l6 -60q-28 -7 -58.5 -11q-30.5 -4 -61.5 -4q-98 0 -180 33.5q-82 33.5 -140.5 92.5q-58.5 59 -91 138q-32.5 79 -32.5 171q0 91 33 170.5q33 79.5 92 138q59 58.5 140.5 92q81.5 33.5 178.5 33.5q93 0 171 -28.5q78 -28.5 135 -80q57 -51.5 88.5 -123q31.5 -71.5 31.5 -158.5q0 -50 -14.5 -99q-14.5 -49 -44 -87.5q-29.5 -38.5 -75 -62q-45.5 -23.5 -106.5 -23.5h-59zM503 51q21 0 41 6q20 6 38 16q18 10 32.5 22q14.5 12 23.5 24l0 254q-29 16 -59 23.5q-30 7.5 -59 7.5q-39 0 -72.5 -14q-33.5 -14 -58 -38q-24.5 -24 -38.5 -57q-14 -33 -14 -71q0 -80 45.5 -126.5t120.5 -46.5z" />
<glyph unicode="&#65;" horiz-adv-x="678" d="M310 702h58l307 -702h-74l-85 192h-359l-82 -192h-72zM186 256h304l-153 352z" />
<glyph unicode="&#66;" horiz-adv-x="671" d="M77 700h273q72 0 120 -13q48 -13 76.5 -36q28.5 -23 40 -54.5q11.5 -31.5 11.5 -68.5q0 -60 -28 -102.5q-28 -42.5 -80 -61.5q62 -9 98 -52q36 -43 36 -115q0 -53 -19.5 -90q-19.5 -37 -55.5 -61q-36 -24 -87.5 -35q-51.5 -11 -114.5 -11h-270zM148 325v-259h203q103 0 152 32.5q49 32.5 49 102.5q0 62 -46 93q-46 31 -146 31zM148 634v-244h215q74 0 119 32.5q45 32.5 45 91.5q0 30 -9 52.5q-9 22.5 -30 37.5q-21 15 -55 22.5q-34 7.5 -84 7.5z" />
<glyph unicode="&#67;" horiz-adv-x="715" d="M394 -9q-78 0 -143.5 26.5q-65.5 26.5 -112.5 74q-47 47.5 -73.5 113q-26.5 65.5 -26.5 144.5q0 79 26 145q26 66 73 114q47 48 111 74.5q64 26.5 141 26.5q103 0 178 -47q75 -47 109 -132l-72 0q-32 54 -89 83q-57 29 -129 29q-62 0 -112.5 -21q-50.5 -21 -86.5 -59.5q-36 -38.5 -56 -92q-20 -53.5 -20 -118.5q0 -66 21 -120q21 -54 58.5 -92.5q37.5 -38.5 90.5 -59.5q53 -21 118 -21q150 0 211 118l72 0q-33 -89 -107.5 -137t-180.5 -48z" />
<glyph unicode="&#68;" horiz-adv-x="710" d="M77 700h214q105 0 177.5 -27.5q72.5 -27.5 117.5 -74q45 -46.5 65.5 -108.5q20.5 -62 20.5 -130q0 -75 -23.5 -140.5q-23.5 -65.5 -71.5 -114.5q-48 -49 -121.5 -77q-73.5 -28 -173.5 -28h-205zM148 634v-568h138q82 0 141.5 22.5q59.5 22.5 97.5 61.5q38 39 56 93q18 54 18 117q0 58 -16.5 108q-16.5 50 -53.5 87q-37 37 -96 58q-59 21 -144 21z" />
<glyph unicode="&#69;" horiz-adv-x="638" d="M77 700h499v-66h-428v-245h400v-66h-400v-257h438v-66l-509 0z" />
<glyph unicode="&#70;" horiz-adv-x="608" d="M77 700h494v-66h-423v-268h394v-66h-394v-300l-71 0z" />
<glyph unicode="&#71;" horiz-adv-x="713" d="M394 -9q-78 0 -143 26.5q-65 26.5 -112.5 74q-47.5 47.5 -74 113.5q-26.5 66 -26.5 144q0 78 26 144q26 66 73 114q47 48 111 75q64 27 141 27q103 0 178.5 -47q75.5 -47 107.5 -132l-72 0q-33 54 -89 83q-56 29 -128 29q-62 0 -112.5 -21q-50.5 -21 -86.5 -59.5q-36 -38.5 -56 -92q-20 -53.5 -20 -118.5q0 -66 20.5 -120q20.5 -54 58.5 -93q38 -39 91 -60q53 -21 118 -21q125 0 209 87l0 145h-201v66h268v-232q-48 -63 -120.5 -97.5t-160.5 -34.5z" />
<glyph unicode="&#72;" horiz-adv-x="746" d="M598 323h-450v-323h-71v700h71v-311h450v311h71v-700l-71 0z" />
<glyph unicode="&#73;" horiz-adv-x="245" d="M87 700h71v-700l-71 0z" />
<glyph unicode="&#74;" horiz-adv-x="485" d="M409 208q0 -53 -15 -93.5q-15 -40.5 -42.5 -68q-27.5 -27.5 -65.5 -41.5q-38 -14 -84 -14q-41 0 -74 11.5q-33 11.5 -58.5 29.5q-25.5 18 -43.5 40.5q-18 22.5 -28 43.5l54 40q10 -20 25 -38q15 -18 33.5 -31.5q18.5 -13.5 40.5 -22q22 -8.5 47 -8.5q32 1 58 9.5q26 8.5 44 28q18 19.5 28 50.5q10 31 10 76v480l71 0z" />
<glyph unicode="&#75;" horiz-adv-x="650" d="M77 700h71v-358l381 358h93l-339 -319l365 -381h-97l-319 334l-84 -77v-257l-71 0z" />
<glyph unicode="&#76;" horiz-adv-x="584" d="M77 700h71v-634h426v-66l-497 0z" />
<glyph unicode="&#77;" horiz-adv-x="833" d="M77 700h68l278 -370l267 370h65v-700h-71v581l-257 -351h-16l-263 351v-581l-71 0z" />
<glyph unicode="&#78;" horiz-adv-x="736" d="M602 0l-457 572v-572h-68v700h56l457 -574v574h68l0 -700z" />
<glyph unicode="&#79;" horiz-adv-x="783" d="M38 350q0 76 27.5 141.5q27.5 65.5 75 114q47.5 48.5 112 76q64.5 27.5 139.5 27.5q74 0 138.5 -26.5q64.5 -26.5 112 -74.5q47.5 -48 75 -114q27.5 -66 27.5 -144q0 -77 -27.5 -143q-27.5 -66 -75 -114q-47.5 -48 -112 -75q-64.5 -27 -138.5 -27q-74 0 -138.5 26.5q-64.5 26.5 -112.5 74.5q-48 48 -75.5 114q-27.5 66 -27.5 144zt0 0zM111 350q0 -63 22.5 -116.5q22.5 -53.5 60.5 -93q38 -39.5 89.5 -61.5q51.5 -22 108.5 -22q60 0 111 22q51 22 88.5 61.5q37.5 39.5 59 93q21.5 53.5 21.5 116.5q0 64 -22.5 117.5q-22.5 53.5 -60.5 92.5q-38 39 -89 61q-51 22 -108 22q-58 0 -109 -22q-51 -22 -89.5 -61q-38.5 -39 -60.5 -92.5t-22 -117.5z" />
<glyph unicode="&#80;" horiz-adv-x="651" d="M77 0v700h252q87 0 142.5 -18.5q55.5 -18.5 87 -49q31.5 -30.5 43 -69q11.5 -38.5 11.5 -77.5q0 -41 -14.5 -80q-14.5 -39 -48.5 -69q-34 -30 -88.5 -48.5q-54.5 -18.5 -133.5 -18.5h-180v-270zM148 635v-300h178q112 0 163 42q51 42 51 110q0 32 -11 59.5q-11 27.5 -35.5 47q-24.5 19.5 -63.5 30.5q-39 11 -96 11z" />
<glyph unicode="&#81;" horiz-adv-x="783" d="M38 350q0 76 27.5 141.5q27.5 65.5 75 114q47.5 48.5 112 76q64.5 27.5 139.5 27.5q74 0 138.5 -26.5q64.5 -26.5 112 -74.5q47.5 -48 75 -114q27.5 -66 27.5 -144q0 -75 -29.5 -143.5q-29.5 -68.5 -86.5 -125.5l73 -87l-47 -40l-76 90q-41 -26 -88 -39.5q-47 -13.5 -99 -13.5q-75 0 -139.5 26.5q-64.5 26.5 -112 74.5q-47.5 48 -75 114q-27.5 66 -27.5 144zt0 0zM111 350q0 -63 22 -116.5q22 -53.5 60.5 -93q38.5 -39.5 89.5 -61.5q51 -22 109 -22q75 0 145 41l-63 76l45 41l66 -80q40 39 63.5 94q23.5 55 23.5 121q0 64 -22 117.5q-22 53.5 -60 92.5q-38 39 -89 61q-51 22 -109 22q-59 0 -110 -22q-51 -22 -89 -61q-38 -39 -60 -92.5t-22 -117.5z" />
<glyph unicode="&#82;" horiz-adv-x="675" d="M77 0v700h264q78 0 129.5 -16.5q51.5 -16.5 82 -45q30.5 -28.5 42.5 -65.5q12 -37 12 -77q0 -39 -13.5 -72q-13.5 -33 -37.5 -58.5q-24 -25.5 -57.5 -42.5q-33.5 -17 -73.5 -24l233 -299h-86l-220 286h-204v-286zM148 634v-282h196q87 0 138.5 39q51.5 39 51.5 105q0 30 -10 55.5q-10 25.5 -33 43.5q-23 18 -60.5 28.5q-37.5 10.5 -92.5 10.5z" />
<glyph unicode="&#83;" horiz-adv-x="615" d="M315 -9q-115 -1 -189.5 47.5q-74.5 48.5 -94.5 137.5l72 0q21 -59 76 -89.5q55 -30.5 139 -29.5q87 1 135.5 33.5q48.5 32.5 48.5 89.5q0 37 -19.5 60.5q-19.5 23.5 -51 40q-31.5 16.5 -71.5 27.5q-40 11 -82 22q-42 11 -82.5 24.5q-40.5 13.5 -72 35q-31.5 21.5 -50.5 53.5q-19 32 -19 79q0 88 66.5 137.5q66.5 49.5 181.5 49.5q109 0 176.5 -45.5q67.5 -45.5 90.5 -133.5l-72 0q-20 55 -68.5 84q-48.5 29 -125.5 29q-80 0 -128 -31q-48 -31 -48 -87q0 -35 19 -58q19 -23 50.5 -39q31.5 -16 72 -27q40.5 -11 82.5 -22.5q42 -11.5 82 -25q40 -13.5 71.5 -35.5q31.5 -22 51 -53.5q19.5 -31.5 19.5 -78.5q0 -45 -18 -80.5q-18 -35.5 -52 -61q-34 -25.5 -82 -39.5t-108 -14z" />
<glyph unicode="&#84;" horiz-adv-x="577" d="M3 700h571v-66h-250v-634h-71v634l-250 0z" />
<glyph unicode="&#85;" horiz-adv-x="719" d="M651 294q0 -81 -24.5 -138q-24.5 -57 -64 -93.5q-39.5 -36.5 -90.5 -53.5q-51 -17 -103 -17q-60 0 -115 19.5q-55 19.5 -96 58q-41 38.5 -65.5 96.5q-24.5 58 -24.5 135v399h71v-388q0 -64 19 -112q19 -48 50.5 -79.5q31.5 -31.5 73 -47q41.5 -15.5 87.5 -15.5q105 0 158 67q53 67 53 182v393l71 0z" />
<glyph unicode="&#86;" horiz-adv-x="709" d="M389 0h-53l-338 700h75l292 -603l273 603l73 0z" />
<glyph unicode="&#87;" horiz-adv-x="962" d="M751 0h-63l-203 583l-200 -583h-64l-218 700h75l179 -578l198 578h61l202 -578l171 578l70 0z" />
<glyph unicode="&#88;" horiz-adv-x="645" d="M366 356l262 -356h-84l-222 300l-221 -300h-84l262 356l-251 344h83l212 -288l212 288l84 0z" />
<glyph unicode="&#89;" horiz-adv-x="627" d="M348 306v-306h-71v306l-279 394h85l231 -328l235 328l80 0z" />
<glyph unicode="&#90;" horiz-adv-x="629" d="M33 700h566v-48l-486 -586h496v-66h-595v48l484 586l-465 0z" />
<glyph unicode="&#91;" horiz-adv-x="308" d="M60 710h241v-63h-173v-780h173v-63l-241 0z" />
<glyph unicode="&#92;" horiz-adv-x="326" d="M357 -186l-55 -21l-334 899l55 19z" />
<glyph unicode="&#93;" horiz-adv-x="308" d="M248 -196h-241v63h173v780h-173v63l241 0z" />
<glyph unicode="&#94;" horiz-adv-x="488" d="M224 708h42l180 -268h-74l-127 194l-129 -194l-74 0z" />
<glyph unicode="&#95;" horiz-adv-x="297" d="M0 -133h297v-63l-297 0z" />
<glyph unicode="&#96;" horiz-adv-x="372" d="M212 760l50 39l110 -154l-39 -30z" />
<glyph unicode="&#97;" horiz-adv-x="533" d="M215 -7q-42 0 -76.5 11q-34.5 11 -59.5 31q-25 20 -38.5 49q-13.5 29 -13.5 64q0 83 67 120.5q67 37.5 186 37.5q15 0 33.5 -1.5q18.5 -1.5 37 -3.5q18.5 -2 34.5 -5q16 -3 26 -6q0 95 -37 138q-37 43 -118 43q-53 0 -85.5 -18q-32.5 -18 -49.5 -56l-68 0q17 65 71.5 100.5q54.5 35.5 137.5 35.5q103 0 158.5 -54q55.5 -54 55.5 -156v-323h-65v86q-25 -37 -73.5 -65q-48.5 -28 -122.5 -28zt0 0zM233 53q37 0 66.5 12q29.5 12 52 29.5q22.5 17.5 37.5 37.5q15 20 22 37l0 62q-23 7 -55 11.5q-32 4.5 -67 4.5q-90 0 -142 -20.5q-52 -20.5 -52 -74.5q0 -47 39 -73t99 -26z" />
<glyph unicode="&#98;" horiz-adv-x="593" d="M66 730h65v-284q36 46 83 66.5q47 20.5 103 20.5q56 0 101 -19.5q45 -19.5 76.5 -54.5q31.5 -35 48 -83q16.5 -48 16.5 -106q0 -65 -18.5 -117q-18.5 -52 -53.5 -88q-35 -36 -84.5 -55.5q-49.5 -19.5 -110.5 -19.5q-35 0 -68.5 8q-33.5 8 -63.5 22q-30 14 -54 32.5q-24 18.5 -40 39.5zM309 471q-31 0 -58 -9q-27 -9 -49.5 -25q-22.5 -16 -40.5 -36.5q-18 -20.5 -30 -43.5l0 -235q30 -34 76.5 -52q46.5 -18 92.5 -18q41 0 75.5 14.5q34.5 14.5 60 41.5q25.5 27 40 66.5q14.5 39.5 14.5 89.5q0 48 -13.5 86.5q-13.5 38.5 -37.5 65.5q-24 27 -57.5 41t-72.5 14z" />
<glyph unicode="&#99;" horiz-adv-x="555" d="M300 -10q-58 0 -107 20q-49 20 -84 56q-35 36 -55 85.5q-20 49.5 -20 108.5q0 60 20 110q20 50 56 86q36 36 86 56.5q50 20.5 109 20.5q79 0 136 -35.5q57 -35.5 81 -100.5l-68 0q-23 35 -62.5 54.5q-39.5 19.5 -89.5 19.5q-44 0 -81 -15q-37 -15 -63 -43q-26 -28 -40.5 -66.5q-14.5 -38.5 -14.5 -85.5q0 -47 14.5 -85.5q14.5 -38.5 41 -66q26.5 -27.5 64 -42.5q37.5 -15 82.5 -15q54 0 94 21q40 21 60 59l68 0q-22 -66 -83 -104t-144 -38z" />
<glyph unicode="&#100;" horiz-adv-x="596" d="M465 69q-7 -12 -21.5 -25.5q-14.5 -13.5 -36 -25.5q-21.5 -12 -50 -19.5q-28.5 -7.5 -63.5 -7.5q-58 0 -105.5 18.5q-47.5 18.5 -82 53.5q-34.5 35 -53.5 84.5q-19 49.5 -19 111.5q0 61 21 111.5q21 50.5 57 86.5q36 36 84.5 56q48.5 20 104.5 20q57 0 97.5 -16q40.5 -16 66.5 -43l0 256h65v-730h-65zM300 53q34 0 61.5 11.5q27.5 11.5 48 29q20.5 17.5 34.5 37q14 19.5 21 34.5l0 223q-54 83 -162 83q-40 0 -76 -15q-36 -15 -63.5 -42.5q-27.5 -27.5 -44 -66q-16.5 -38.5 -16.5 -86.5q0 -48 14.5 -86.5q14.5 -38.5 41 -65.5q26.5 -27 62.5 -41.5t79 -14.5z" />
<glyph unicode="&#101;" horiz-adv-x="570" d="M517 99q-35 -55 -89.5 -82q-54.5 -27 -117.5 -27q-62 0 -113 19q-51 19 -87 54.5q-36 35.5 -56 85.5q-20 50 -20 112q0 57 17 107q17 50 50.5 86.5q33.5 36.5 82.5 57.5q49 21 113 21q51 0 95 -17q44 -17 76 -47.5q32 -30.5 50 -74q18 -43.5 18 -97.5q0 -14 -1 -28q-1 -14 -3 -28l-429 0q1 -45 17 -80q16 -35 44 -59.5q28 -24.5 66 -37q38 -12.5 83 -12.5q25 0 49 7q24 7 44.5 18.5q20.5 11.5 37.5 27q17 15.5 29 33.5zM292 472q-42 0 -75 -13q-33 -13 -57.5 -36q-24.5 -23 -39 -54q-14.5 -31 -18.5 -68l364 0q-2 81 -48.5 126t-125.5 45z" />
<glyph unicode="&#102;" horiz-adv-x="336" d="M1 520h104v28q0 55 15.5 91.5q15.5 36.5 39.5 58.5q24 22 54 31q30 9 59 9q41 0 74.5 -17.5q33.5 -17.5 50.5 -43.5l-41 -39q-13 17 -33.5 27.5q-20.5 10.5 -47.5 10.5q-23 0 -42 -6.5q-19 -6.5 -33.5 -22.5q-14.5 -16 -22.5 -42.5q-8 -26.5 -8 -65.5v-19h170v-62h-170v-458h-65v458l-104 0z" />
<glyph unicode="&#103;" horiz-adv-x="595" d="M530 38q0 -66 -18 -113q-18 -47 -49.5 -76.5q-31.5 -29.5 -75 -43.5q-43.5 -14 -94.5 -14q-38 0 -73.5 8.5q-35.5 8.5 -64.5 24.5q-29 16 -50 38.5q-21 22.5 -31 49.5l58 27q8 -16 22 -31.5q14 -15.5 34.5 -27.5q20.5 -12 47.5 -19.5q27 -7.5 61 -7.5q83 0 125.5 47q42.5 47 42.5 128v37q-12 -16 -27 -29.5q-15 -13.5 -34.5 -23.5q-19.5 -10 -46 -16q-26.5 -6 -62.5 -6q-59 0 -107 19q-48 19 -82.5 54q-34.5 35 -53 85q-18.5 50 -18.5 113q0 63 20.5 113q20.5 50 55.5 85q35 35 83 54q48 19 104 19q62 0 106 -20.5q44 -20.5 62 -44.5l0 53h65zM305 52q31 0 57.5 9.5q26.5 9.5 47 25q20.5 15.5 34.5 35.5q14 20 21 41l0 221q-20 36 -61 61q-41 25 -100 25q-41 0 -77 -13.5q-36 -13.5 -63.5 -40.5q-27.5 -27 -43.5 -66.5q-16 -39.5 -16 -90.5q0 -48 14.5 -86.5q14.5 -38.5 40.5 -65q26 -26.5 63.5 -41t82.5 -14.5z" />
<glyph unicode="&#104;" horiz-adv-x="591" d="M66 730h65v-283q28 38 73.5 61.5q45.5 23.5 109.5 23.5q107 0 163 -56.5q56 -56.5 56 -179.5v-296h-65v288q0 182 -168 182q-63 0 -106 -36q-43 -36 -63 -87l0 -347l-65 0z" />
<glyph unicode="&#105;" horiz-adv-x="220" d="M77 520h65v-520h-65zM66 686q0 18 13.5 30q13.5 12 31.5 12q17 0 30 -12q13 -12 13 -30q0 -20 -13 -32.5q-13 -12.5 -30 -12.5q-19 0 -32 12.5t-13 32.5z" />
<glyph unicode="&#106;" horiz-adv-x="222" d="M146 -5q0 -97 -37.5 -150.5q-37.5 -53.5 -117.5 -53.5q-46 0 -82 19q-36 19 -53 51l52 34q6 -7 12.5 -14.5q6.5 -7.5 15.5 -13.5q9 -6 22 -10q13 -4 31 -4q45 0 68.5 38q23.5 38 23.5 107v522h65zM69 686q0 18 12.5 30q12.5 12 31.5 12q17 0 30 -12q13 -12 13 -30q0 -20 -12.5 -32.5q-12.5 -12.5 -30.5 -12.5q-19 0 -31.5 12.5t-12.5 32.5z" />
<glyph unicode="&#107;" horiz-adv-x="521" d="M66 730h65v-459l280 249h89l-259 -232l279 -288h-87l-244 246l-58 -47v-199l-65 0z" />
<glyph unicode="&#108;" horiz-adv-x="197" d="M66 730h65v-730l-65 0z" />
<glyph unicode="&#109;" horiz-adv-x="882" d="M823 0h-65v324q0 31 -6.5 58q-6.5 27 -20.5 46.5q-14 19.5 -37 30.5q-23 11 -56 11q-61 0 -100.5 -30.5q-39.5 -30.5 -60.5 -75.5l0 -364h-65v351q0 53 -32 86q-32 33 -90 33q-31 0 -57 -11.5q-26 -11.5 -46 -29q-20 -17.5 -34.5 -38q-14.5 -20.5 -21.5 -38.5l0 -353h-65v520h65v-72q27 37 69.5 60.5q42.5 23.5 99.5 23.5q57 0 99 -23.5q42 -23.5 61 -66.5q30 43 76.5 66.5q46.5 23.5 103.5 23.5q39 0 72.5 -10q33.5 -10 58 -32q24.5 -22 38.5 -58q14 -36 14 -88z" />
<glyph unicode="&#110;" horiz-adv-x="591" d="M66 520h65v-72q35 46 83.5 65q48.5 19 105.5 19q103 0 158.5 -56q55.5 -56 55.5 -179v-297h-65v287q0 94 -42 138.5q-42 44.5 -127 44.5q-26 0 -51 -8.5q-25 -8.5 -47.5 -24q-22.5 -15.5 -40.5 -37q-18 -21.5 -30 -46.5l0 -354l-65 0z" />
<glyph unicode="&#111;" horiz-adv-x="616" d="M34 261q0 59 20 109q20 50 56 86q36 36 86.5 56.5q50.5 20.5 111.5 20.5q61 0 111.5 -20.5q50.5 -20.5 86.5 -56.5q36 -36 56 -86q20 -50 20 -109q0 -59 -20 -108.5q-20 -49.5 -56 -85.5q-36 -36 -86.5 -56.5q-50.5 -20.5 -111.5 -20.5q-61 0 -111.5 20.5q-50.5 20.5 -86.5 56.5q-36 36 -56 85.5q-20 49.5 -20 108.5zt0 0zM103 261q0 -46 15 -84.5q15 -38.5 42.5 -66q27.5 -27.5 65 -43q37.5 -15.5 82.5 -15.5q45 0 82.5 15q37.5 15 65 43q27.5 28 42.5 66q15 38 15 85q0 46 -15.5 85q-15.5 39 -43 66.5q-27.5 27.5 -65 43q-37.5 15.5 -81.5 15.5q-44 0 -81.5 -15q-37.5 -15 -65 -43q-27.5 -28 -43 -66.5t-15.5 -85.5z" />
<glyph unicode="&#112;" horiz-adv-x="597" d="M66 520h65v-77q32 50 82.5 70q50.5 20 102.5 20q57 0 103 -19.5q46 -19.5 77.5 -54.5q31.5 -35 48.5 -83q17 -48 17 -106q0 -60 -19 -111.5q-19 -51.5 -53 -89q-34 -37.5 -82 -58.5q-48 -21 -105 -21q-60 0 -100 15q-40 15 -72 47l0 -252h-65zM310 471q-35 0 -64 -11q-29 -11 -52 -28.5q-23 -17.5 -39 -40q-16 -22.5 -24 -44.5l0 -202q28 -51 73.5 -72q45.5 -21 96.5 -21q42 0 77 16q35 16 60.5 44q25.5 28 40 67q14.5 39 14.5 86q0 46 -12.5 84q-12.5 38 -36.5 65q-24 27 -58 42t-76 15z" />
<glyph unicode="&#113;" horiz-adv-x="596" d="M465 58q-28 -31 -67.5 -49.5q-39.5 -18.5 -102.5 -18.5q-59 0 -107 19q-48 19 -82.5 54.5q-34.5 35.5 -53 85.5q-18.5 50 -18.5 112q0 58 21.5 107.5q21.5 49.5 58.5 86q37 36.5 87 57q50 20.5 107 20.5q60 0 99.5 -15.5q39.5 -15.5 57.5 -37.5l0 41h65v-720h-65zM300 52q61 0 103 28.5q42 28.5 62 72.5l0 244q-25 39 -65 56q-40 17 -92 17q-42 0 -79.5 -16q-37.5 -16 -65 -44.5q-27.5 -28.5 -44 -67q-16.5 -38.5 -16.5 -83.5q0 -47 14.5 -85q14.5 -38 41 -65q26.5 -27 62.5 -42t79 -15z" />
<glyph unicode="&#114;" horiz-adv-x="349" d="M66 520h65v-50q7 16 20.5 28q13.5 12 29 19.5q15.5 7.5 33 11q17.5 3.5 33.5 3.5q35 0 62 -13q27 -13 44 -35l-44 -43q-11 13 -26 21q-15 8 -43 8q-39 0 -69.5 -29q-30.5 -29 -39.5 -73l0 -368l-65 0z" />
<glyph unicode="&#115;" horiz-adv-x="489" d="M244 -10q-94 0 -153 37.5q-59 37.5 -72 104.5l68 0q13 -39 53.5 -60.5q40.5 -21.5 103.5 -21.5q63 0 99.5 22q36.5 22 36.5 61q0 33 -25 52q-25 19 -62 32q-37 13 -80.5 24q-43.5 11 -80.5 28q-37 17 -62 44.5q-25 27.5 -25 74.5q0 66 53 105.5q53 39.5 147 39.5q167 0 203 -136l-68 0q-15 40 -48.5 58q-33.5 18 -87.5 18q-63 0 -96.5 -22q-33.5 -22 -33.5 -59q0 -33 25 -51.5q25 -18.5 62 -31q37 -12.5 80.5 -23q43.5 -10.5 80.5 -28q37 -17.5 62 -46q25 -28.5 25 -75.5q0 -69 -54.5 -108t-150.5 -39z" />
<glyph unicode="&#116;" horiz-adv-x="394" d="M1 520h104v117h65v-117h186v-62h-186v-249q0 -87 25 -120.5q25 -33.5 78 -33.5q30 0 52 14.5q22 14.5 34 29.5l40 -39q-20 -27 -56.5 -47q-36.5 -20 -81.5 -20q-78 0 -117 51q-39 51 -39 150v264l-104 0z" />
<glyph unicode="&#117;" horiz-adv-x="583" d="M518 0h-65v87q-29 -45 -76 -71q-47 -26 -107 -26q-106 0 -159.5 55.5q-53.5 55.5 -53.5 174.5v303h65v-290q0 -37 7 -70q7 -33 24.5 -57.5q17.5 -24.5 47 -39q29.5 -14.5 74.5 -14.5q59 0 106 34.5q47 34.5 72 94.5l0 342l65 0z" />
<glyph unicode="&#118;" horiz-adv-x="507" d="M282 0h-46l-245 520h76l194 -418l186 418l69 0z" />
<glyph unicode="&#119;" horiz-adv-x="766" d="M599 0h-53l-160 424l-161 -424h-51l-177 520h71l137 -414l155 414h53l159 -417l129 417l68 0z" />
<glyph unicode="&#120;" horiz-adv-x="522" d="M306 270l209 -270h-82l-173 225l-177 -225h-76l208 268l-197 252h81l164 -207l162 207l79 0z" />
<glyph unicode="&#121;" horiz-adv-x="535" d="M110 -140q5 -2 12.5 -4q7.5 -2 12.5 -2q16 0 30.5 5.5q14.5 5.5 28 19.5q13.5 14 27 37.5q13.5 23.5 28.5 60.5l14 34l-266 509h78l222 -427l169 427h72l-210 -518q-27 -66 -49.5 -107q-22.5 -41 -45 -64.5q-22.5 -23.5 -46 -32q-23.5 -8.5 -51.5 -8.5q-24 0 -44 7z" />
<glyph unicode="&#122;" horiz-adv-x="490" d="M37 520h433v-42l-351 -416h345v-62h-444v43l350 415l-333 0z" />
<glyph unicode="&#123;" horiz-adv-x="320" d="M106 133q0 42 -21.5 68.5q-21.5 26.5 -66.5 26.5l0 58q15 0 31 4.5q16 4.5 28.5 15.5q12.5 11 20.5 31q8 20 8 51v186q0 66 29.5 101q29.5 35 101.5 35h64v-60h-51q-42 0 -60 -25q-18 -25 -18 -69v-187q0 -45 -19 -74.5q-19 -29.5 -51 -36.5q31 -5 50.5 -31.5q19.5 -26.5 19.5 -80.5v-190q0 -53 19.5 -72.5q19.5 -19.5 63.5 -19.5h46v-60h-67q-63 0 -95.5 31q-32.5 31 -32.5 100z" />
<glyph unicode="&#124;" horiz-adv-x="319" d="M126 700h67v-700l-67 0z" />
<glyph unicode="&#125;" horiz-adv-x="320" d="M213 -65q0 -69 -32 -100q-32 -31 -95 -31h-68v60h47q43 0 62.5 19.5q19.5 19.5 19.5 72.5v190q0 54 20 80.5q20 26.5 51 31.5q-33 7 -52 36.5q-19 29.5 -19 74.5v187q0 44 -17.5 69q-17.5 25 -59.5 25h-52v60h65q72 0 101 -35q29 -35 29 -101v-186q0 -31 8 -51q8 -20 21 -31q13 -11 28.5 -15.5q15.5 -4.5 30.5 -4.5l0 -58q-45 0 -66.5 -26.5q-21.5 -26.5 -21.5 -68.5z" />
<glyph unicode="&#126;" horiz-adv-x="583" d="M50 356q16 16 34.5 30q18.5 14 39 23.5q20.5 9.5 43 13q22.5 3.5 46.5 -0.5q26 -5 50 -16.5q24 -11.5 48 -23q24 -11.5 48 -20.5q24 -9 50 -9q24 0 49 13q25 13 47 37l29 -46q-29 -29 -61.5 -45q-32.5 -16 -62.5 -16q-32 0 -59.5 11q-27.5 11 -54 24.5q-26.5 13.5 -53.5 24.5q-27 11 -57 11q-27 0 -53.5 -14.5q-26.5 -14.5 -49.5 -39.5z" />
<glyph unicode="&#160;" horiz-adv-x="300" />
<glyph unicode="&#161;" horiz-adv-x="310" d="M121 -182h68v508h-68zM100 467q0 -18 15 -33.5q15 -15.5 40 -15.5q22 0 37 15.5q15 15.5 15 33.5q0 22 -15 38q-15 16 -37 16q-25 0 -40 -16t-15 -38z" />
<glyph unicode="&#162;" horiz-adv-x="528" d="M518 99q-13 -25 -34 -44q-21 -19 -46.5 -32.5q-25.5 -13.5 -53.5 -21.5q-28 -8 -56 -10l0 -191h-67v194q-52 7 -94 29q-42 22 -71.5 56.5q-29.5 34.5 -45.5 80q-16 45.5 -16 101.5q0 52 16 97.5q16 45.5 45.5 81q29.5 35.5 71.5 58.5q42 23 94 31l0 171h67v-168q57 -5 106.5 -30.5q49.5 -25.5 74.5 -67.5l-51 -36q-26 34 -58 52q-32 18 -76 20l0 -418q47 2 85.5 25q38.5 23 63.5 58zM104 261q0 -82 43.5 -136q43.5 -54 116.5 -68l0 410q-36 -7 -65.5 -25q-29.5 -18 -50.5 -45q-21 -27 -32.5 -61.5t-11.5 -74.5z" />
<glyph unicode="&#163;" horiz-adv-x="590" d="M77 333h73q-8 19 -16.5 37.5q-8.5 18.5 -16.5 39q-8 20.5 -13 45q-5 24.5 -5 55.5q0 38 14.5 74q14.5 36 42 63.5q27.5 27.5 66.5 44q39 16.5 89 16.5q60 0 110.5 -20.5q50.5 -20.5 82.5 -56.5l-37 -52q-33 34 -72.5 49q-39.5 15 -84.5 15q-27 0 -52.5 -10q-25.5 -10 -44.5 -28q-19 -18 -30.5 -43q-11.5 -25 -11.5 -55q0 -24 5.5 -45.5q5.5 -21.5 13.5 -42.5q8 -21 17 -42q9 -21 17 -44l172 0v-55h-160q2 -8 2 -16q0 -8 0 -18q0 -45 -11.5 -80.5q-11.5 -35.5 -26.5 -55.5q27 0 53 -7.5q26 -7.5 52.5 -17q26.5 -9.5 53 -17q26.5 -7.5 55.5 -7.5q17 0 31 3q14 3 26 9q12 6 24.5 16q12.5 10 26.5 24l32 -51q-32 -32 -67.5 -47.5q-35.5 -15.5 -73.5 -15.5q-30 0 -57.5 8q-27.5 8 -55 17q-27.5 9 -56 17q-28.5 8 -58.5 8q-29 0 -58.5 -13q-29.5 -13 -58.5 -42l-30 51q20 21 41 34q21 13 42 21q21 27 34.5 61q13.5 34 13.5 79q0 11 -1.5 20.5q-1.5 9.5 -3.5 19.5l-88 0z" />
<glyph unicode="&#164;" horiz-adv-x="599" d="M72 347q0 79 45 141l-89 90l42 42l90 -89q27 21 62.5 33.5q35.5 12.5 77.5 12.5q42 0 77 -12.5q35 -12.5 63 -33.5l95 93l42 -41l-95 -96q23 -29 34.5 -65.5q11.5 -36.5 11.5 -74.5q0 -38 -11.5 -74.5q-11.5 -36.5 -33.5 -65.5l90 -91l-41 -42l-91 91q-27 -22 -62.5 -35q-35.5 -13 -78.5 -13q-43 0 -78.5 12.5q-35.5 12.5 -63.5 35.5l-95 -96l-41 42l95 96q-22 29 -33.5 65.5q-11.5 36.5 -11.5 74.5zt0 0zM135 347q0 -34 11.5 -65q11.5 -31 33 -54q21.5 -23 52 -37q30.5 -14 68.5 -14q39 0 69.5 14q30.5 14 51.5 37q21 23 32 54q11 31 11 65q0 35 -11.5 66q-11.5 31 -32.5 54.5q-21 23.5 -51.5 37q-30.5 13.5 -68.5 13.5q-38 0 -68.5 -13.5q-30.5 -13.5 -52 -37q-21.5 -23.5 -33 -54.5t-11.5 -66z" />
<glyph unicode="&#165;" horiz-adv-x="627" d="M90 362h147l-239 338h85l231 -328l235 328h80l-242 -338h149v-58h-189v-117h189v-58h-189v-129h-70v129h-187v58h187v117l-187 0z" />
<glyph unicode="&#166;" horiz-adv-x="319" d="M126 431v269h67v-269zM193 269v-269h-67l0 269z" />
<glyph unicode="&#167;" horiz-adv-x="520" d="M65 251q0 33 9.5 61q9.5 28 26 50.5q16.5 22.5 38.5 38q22 15.5 46 22.5q-13 7 -25.5 18.5q-12.5 11.5 -23 27.5q-10.5 16 -17 36.5q-6.5 20.5 -6.5 46.5q0 33 12 60q12 27 33 46.5q21 19.5 50 30.5q29 11 64 11q27 0 49.5 -6.5q22.5 -6.5 40 -16q17.5 -9.5 30.5 -21.5q13 -12 22 -23l-46 -42q-15 17 -35.5 31.5q-20.5 14.5 -59.5 14.5q-39 0 -65.5 -26q-26.5 -26 -26.5 -64q0 -22 8 -39q8 -17 21 -30.5q13 -13.5 30 -24q17 -10.5 35 -17.5q40 -3 73.5 -18q33.5 -15 57 -39.5q23.5 -24.5 36.5 -57q13 -32.5 13 -70.5q0 -32 -10 -60q-10 -28 -26.5 -50.5q-16.5 -22.5 -39.5 -38q-23 -15.5 -48 -23.5q32 -17 53 -49.5q21 -32.5 21 -72.5q0 -67 -41 -110q-41 -43 -118 -43q-28 0 -50 5.5q-22 5.5 -39.5 14.5q-17.5 9 -30 20.5q-12.5 11.5 -21.5 22.5l44 49q14 -17 35.5 -33q21.5 -16 61.5 -16q38 0 65 25.5q27 25.5 27 65.5q0 21 -8 37.5q-8 16.5 -21.5 30q-13.5 13.5 -30.5 24q-17 10.5 -35 17.5q-43 3 -76 18q-33 15 -55.5 39.5q-22.5 24.5 -34.5 56.5q-12 32 -12 70zt0 0zM131 251q0 -27 10 -50q10 -23 27.5 -40.5q17.5 -17.5 41 -27q23.5 -9.5 50.5 -9.5q27 0 51 9.5q24 9.5 41 27q17 17.5 27 40.5q10 23 10 50q0 27 -10 50.5q-10 23.5 -27.5 41q-17.5 17.5 -41 27q-23.5 9.5 -50.5 9.5q-27 0 -50.5 -9.5q-23.5 -9.5 -41 -27q-17.5 -17.5 -27.5 -41t-10 -50.5z" />
<glyph unicode="&#168;" horiz-adv-x="464" d="M142 689q0 18 12 29q12 11 28 11q16 0 29.5 -11q13.5 -11 13.5 -29q0 -20 -13.5 -31q-13.5 -11 -29.5 -11q-16 0 -28 11q-12 11 -12 31zt0 0zM379 689q0 18 13 29q13 11 30 11q15 0 28.5 -11q13.5 -11 13.5 -29q0 -20 -13.5 -31q-13.5 -11 -28.5 -11q-17 0 -30 11t-13 31z" />
<glyph unicode="&#169;" horiz-adv-x="1005" d="M71 224q0 90 32.5 168q32.5 78 90.5 136.5q58 58.5 137 92q79 33.5 171 33.5q93 0 172 -33q79 -33 136.5 -91q57.5 -58 90.5 -136.5q33 -78.5 33 -169.5q0 -90 -33 -169q-33 -79 -90.5 -137q-57.5 -58 -136.5 -91.5q-79 -33.5 -172 -33.5q-92 0 -171 33q-79 33 -137 91q-58 58 -90.5 136.5q-32.5 78.5 -32.5 170.5zt0 0zM131 224q0 -77 28 -145q28 -68 77.5 -118.5q49.5 -50.5 117.5 -80q68 -29.5 148 -29.5q81 0 149 29q68 29 117.5 79.5q49.5 50.5 77.5 118.5q28 68 28 146q0 78 -28 146q-28 68 -77.5 118q-49.5 50 -117.5 79q-68 29 -149 29q-80 0 -148 -29.5q-68 -29.5 -117.5 -80q-49.5 -50.5 -77.5 -118q-28 -67.5 -28 -144.5zt0 0zM688 70q-29 -38 -76.5 -58.5q-47.5 -20.5 -98.5 -20.5q-53 0 -97.5 17q-44.5 17 -76.5 47.5q-32 30.5 -50 74.5q-18 44 -18 98q0 49 17.5 92.5q17.5 43.5 48 75q30.5 31.5 72.5 50q42 18.5 91 18.5q53 0 99 -14.5q46 -14.5 80 -48.5l-36 -47q-26 24 -60.5 37q-34.5 13 -70.5 13q-28 0 -52 -7q-28 -9 -50 -25.5q-22 -16.5 -37.5 -39q-15.5 -22.5 -23.5 -49q-8 -26.5 -8 -55.5q0 -28 7 -53q14 -59 60.5 -91.5q46.5 -32.5 108.5 -32.5q40 0 75.5 16.5q35.5 16.5 61.5 46.5z" />
<glyph unicode="&#170;" horiz-adv-x="441" d="M72 584q27 19 66.5 31q39.5 12 79.5 12q77 0 115.5 -33.5q38.5 -33.5 38.5 -95.5v-198h-57v48q-17 -22 -47 -38q-30 -16 -85 -16q-60 0 -97 26.5q-37 26.5 -37 69.5q0 52 45 78q45 26 125 26q29 0 55.5 -2.5q26.5 -2.5 40.5 -6.5q0 48 -24 68q-24 20 -80 20q-31 0 -60 -10q-29 -10 -54 -26zM199 348q23 0 42.5 6.5q19.5 6.5 34 16q14.5 9.5 24.5 21q10 11.5 15 21.5l0 23q-14 3 -41 7.5q-27 4.5 -62 4.5q-45 0 -73.5 -13.5q-28.5 -13.5 -28.5 -39.5q0 -22 23 -34.5t66 -12.5z" />
<glyph unicode="&#171;" horiz-adv-x="516" d="M48 250v5l182 209l44 -39l-150 -173l149 -173l-44 -41zM230 250v5l182 209l44 -39l-150 -173l149 -173l-45 -41z" />
<glyph unicode="&#172;" horiz-adv-x="577" d="M58 389h461v-186h-56v128l-405 0z" />
<glyph unicode="&#173;" horiz-adv-x="404" d="M82 304h240v-61l-240 0z" />
<glyph unicode="&#174;" horiz-adv-x="578" d="M50 494q0 49 19 92q19 43 51.5 75q32.5 32 76 50.5q43.5 18.5 93.5 18.5q49 0 92.5 -18.5q43.5 -18.5 75.5 -50.5q32 -32 51 -75q19 -43 19 -92q0 -50 -19 -93.5q-19 -43.5 -51 -76q-32 -32.5 -75.5 -51q-43.5 -18.5 -92.5 -18.5q-50 0 -93.5 18.5q-43.5 18.5 -76 51q-32.5 32.5 -51.5 76q-19 43.5 -19 93.5zt0 0zM92 493q0 -41 15.5 -76.5q15.5 -35.5 42 -62q26.5 -26.5 62.5 -42q36 -15.5 77 -15.5q41 0 77 15.5q36 15.5 62.5 42.5q26.5 27 42 62.5q15.5 35.5 15.5 75.5q0 40 -15.5 76q-15.5 36 -42.5 62.5q-27 26.5 -63 42q-36 15.5 -76 15.5q-41 0 -77 -15.5q-36 -15.5 -62.5 -42.5q-26.5 -27 -42 -62.5q-15.5 -35.5 -15.5 -75.5zt0 0zM194 355v283h89q31 0 52 -7q21 -7 34 -19q13 -12 18 -27.5q5 -15.5 5 -32.5q0 -29 -17.5 -50.5q-17.5 -21.5 -44.5 -30.5l82 -116h-56l-72 104h-43v-104zM341 547q0 31 -15.5 41.5q-15.5 10.5 -44.5 10.5h-40v-100h44q19 0 37.5 12t18.5 36z" />
<glyph unicode="&#175;" horiz-adv-x="446" d="M185 706h261v-59l-261 0z" />
<glyph unicode="&#176;" horiz-adv-x="400" d="M50 564q0 32 12 59.5q12 27.5 32 47.5q20 20 47.5 31.5q27.5 11.5 58.5 11.5q31 0 58.5 -11q27.5 -11 47.5 -31q20 -20 32 -47q12 -27 12 -59q0 -31 -12 -58q-12 -27 -32 -47.5q-20 -20.5 -47.5 -32q-27.5 -11.5 -58.5 -11.5q-31 0 -58.5 11.5q-27.5 11.5 -47.5 31.5q-20 20 -32 46.5q-12 26.5 -12 57.5zt0 0zM110 565q0 -37 26.5 -63q26.5 -26 63.5 -26q37 0 63.5 26q26.5 26 26.5 63q0 38 -26.5 63.5q-26.5 25.5 -63.5 25.5q-37 0 -63.5 -25.5t-26.5 -63.5z" />
<glyph unicode="&#177;" horiz-adv-x="579" d="M67 465h192v196h59v-196h195v-58h-195v-132h-59v132h-192zM67 223h446v-58l-446 0z" />
<glyph unicode="&#178;" horiz-adv-x="415" d="M42 621q9 22 25.5 41.5q16.5 19.5 38 33q21.5 13.5 47.5 21.5q26 8 54 8q69 0 109 -31.5q40 -31.5 40 -88.5q0 -33 -13 -62.5q-13 -29.5 -34 -55q-21 -25.5 -47.5 -47.5q-26.5 -22 -54.5 -40l-70 -45h240v-55h-336v50l104 69q30 20 57 41q27 21 48 43q21 22 33 45q12 23 12 48q0 38 -24 56.5q-24 18.5 -65 18.5q-46 0 -74 -23q-28 -23 -44 -52z" />
<glyph unicode="&#179;" horiz-adv-x="424" d="M50 642q23 38 67 60.5q44 22.5 104 22.5q68 0 107 -28q39 -28 39 -77q0 -37 -18.5 -62q-18.5 -25 -50.5 -36q14 -3 28.5 -10q14.5 -7 26.5 -19.5q12 -12.5 19.5 -30.5q7.5 -18 7.5 -44q0 -30 -13.5 -53q-13.5 -23 -37 -38.5q-23.5 -15.5 -53.5 -23.5q-30 -8 -63 -8q-26 0 -52 6q-26 6 -50 18q-24 12 -43.5 29q-19.5 17 -30.5 40l47 32q16 -32 52.5 -51.5q36.5 -19.5 76.5 -19.5q48 0 76.5 18q28.5 18 28.5 52q0 21 -8.5 34.5q-8.5 13.5 -22.5 21q-14 7.5 -32.5 10.5q-18.5 3 -38.5 3h-59v52h47q46 0 74 18.5q28 18.5 28 52.5q0 30 -22.5 45q-22.5 15 -64.5 15q-45 0 -73 -14q-28 -14 -51 -45z" />
<glyph unicode="&#180;" horiz-adv-x="437" d="M303 614l-42 30l110 155l50 -37z" />
<glyph unicode="&#181;" horiz-adv-x="592" d="M526 0h-66v70q-30 -35 -80.5 -57.5q-50.5 -22.5 -111.5 -22.5q-85 0 -136 52l0 -242h-66v720h66v-287q0 -91 36 -136q36 -45 120 -45q27 0 52.5 7.5q25.5 7.5 48 20q22.5 12.5 41 28.5q18.5 16 30.5 32l0 380l66 0z" />
<glyph unicode="&#182;" horiz-adv-x="438" d="M47 478q0 104 57 163q57 59 154 59h147v-60h-92v-611q0 -40 -3 -81.5q-3 -41.5 -17.5 -75q-14.5 -33.5 -44.5 -55q-30 -21.5 -85 -21.5q-32 0 -61 11.5q-29 11.5 -47 28.5l28 49q14 -11 33.5 -18.5q19.5 -7.5 42.5 -7.5q54 0 71 41.5q17 41.5 17 126.5v231q-42 1 -78.5 17q-36.5 16 -63.5 44q-27 28 -42.5 68t-15.5 91z" />
<glyph unicode="&#183;" horiz-adv-x="236" d="M70 297q0 15 13 28.5q13 13.5 33 13.5q19 0 31.5 -13.5q12.5 -13.5 12.5 -28.5q0 -17 -12.5 -30.5q-12.5 -13.5 -31.5 -13.5q-20 0 -33 13.5t-13 30.5z" />
<glyph unicode="&#184;" horiz-adv-x="418" d="M225 -130q18 -10 37.5 -15.5q19.5 -5.5 37.5 -5.5q35 0 45 9q10 9 10 24q0 19 -15 26q-15 7 -43 7h-22v85h45v-41q52 -2 75 -24q23 -22 23 -54q0 -33 -27.5 -58q-27.5 -25 -89.5 -25q-26 0 -51.5 7.5q-25.5 7.5 -44.5 21.5z" />
<glyph unicode="&#185;" horiz-adv-x="293" d="M173 727h44v-423h-60v358l-127 -54l-20 49z" />
<glyph unicode="&#186;" horiz-adv-x="461" d="M57 460q0 37 13 68q13 31 36 53q23 22 54.5 34q31.5 12 69.5 12q38 0 70 -12q32 -12 55.5 -34q23.5 -22 36.5 -53q13 -31 13 -68q0 -36 -13 -66.5q-13 -30.5 -36.5 -52.5q-23.5 -22 -55.5 -34.5q-32 -12.5 -70 -12.5q-38 0 -69.5 12.5q-31.5 12.5 -54.5 34.5q-23 22 -36 52.5q-13 30.5 -13 66.5zt0 0zM118 460q0 -25 9.5 -45.5q9.5 -20.5 25 -34.5q15.5 -14 35.5 -22q20 -8 42 -8q23 0 44 8q21 8 36.5 22q15.5 14 24.5 34.5q9 20.5 9 45.5q0 25 -9.5 45.5q-9.5 20.5 -25 35q-15.5 14.5 -36.5 22.5q-21 8 -43 8q-23 0 -43 -8q-20 -8 -35.5 -22.5q-15.5 -14.5 -24.5 -35t-9 -45.5z" />
<glyph unicode="&#187;" horiz-adv-x="516" d="M276 38l-45 41l149 173l-150 173l44 39l182 -209v-5zM94 38l-45 41l149 173l-150 173l44 39l182 -209l0 -5z" />
<glyph unicode="&#188;" horiz-adv-x="867" d="M642 706l45 -36l-544 -678l-48 39zM200 723h44v-423h-60v358l-127 -54l-20 49zM683 94h-277v42l280 284h56v-272h89v-54h-89v-94h-59zM683 148v195l-196 -195z" />
<glyph unicode="&#189;" horiz-adv-x="897" d="M642 706l45 -36l-544 -678l-48 39zM200 723h44v-423h-60v358l-127 -54l-20 49zM506 321q9 22 25.5 41.5q16.5 19.5 38 33q21.5 13.5 47.5 21.5q26 8 54 8q69 0 109 -31.5q40 -31.5 40 -88.5q0 -33 -13 -62.5q-13 -29.5 -34 -55q-21 -25.5 -47.5 -47.5q-26.5 -22 -54.5 -40l-70 -45h240v-55h-336v50l104 69q30 20 57 41q27 21 48 43q21 22 33 45q12 23 12 48q0 38 -24 56.5q-24 18.5 -65 18.5q-46 0 -74 -23q-28 -23 -44 -52z" />
<glyph unicode="&#190;" horiz-adv-x="949" d="M724 706l45 -36l-544 -678l-48 39zM764 94h-277v42l280 284h56v-272h89v-54h-89v-94h-59zM764 148v195l-196 -195zM50 642q23 38 67 60.5q44 22.5 104 22.5q68 0 107 -28q39 -28 39 -77q0 -37 -18.5 -62q-18.5 -25 -50.5 -36q14 -3 28.5 -10q14.5 -7 26.5 -19.5q12 -12.5 19.5 -30.5q7.5 -18 7.5 -44q0 -30 -13.5 -53q-13.5 -23 -37 -38.5q-23.5 -15.5 -53.5 -23.5q-30 -8 -63 -8q-26 0 -52 6q-26 6 -50 18q-24 12 -43.5 29q-19.5 17 -30.5 40l47 32q16 -32 52.5 -51.5q36.5 -19.5 76.5 -19.5q48 0 76.5 18q28.5 18 28.5 52q0 21 -8.5 34.5q-8.5 13.5 -22.5 21q-14 7.5 -32.5 10.5q-18.5 3 -38.5 3h-59v52h47q46 0 74 18.5q28 18.5 28 52.5q0 30 -22.5 45q-22.5 15 -64.5 15q-45 0 -73 -14q-28 -14 -51 -45z" />
<glyph unicode="&#191;" horiz-adv-x="575" d="M110 -6q0 -51 40 -85q40 -34 129 -34q45 0 77.5 10q32.5 10 55.5 26q23 16 39 36q16 20 28 40l56 -24q-12 -30 -34.5 -58q-22.5 -28 -54.5 -49.5q-32 -21.5 -75 -34q-43 -12.5 -96 -12.5q-61 0 -105.5 13.5q-44.5 13.5 -73 37q-28.5 23.5 -42.5 55q-14 31.5 -14 66.5q0 49 18.5 84q18.5 35 46 61q27.5 26 60 45.5q32.5 19.5 60 37q27.5 17.5 46 35.5q18.5 18 18.5 42q0 17 -1 23.5q-1 6.5 -3 18.5l62 0q4 -16 4 -30q0 -14 0 -26q0 -29 -17.5 -50.5q-17.5 -21.5 -44.5 -40.5q-27 -19 -58 -37.5q-31 -18.5 -58 -39.5q-27 -21 -45 -47.5q-18 -26.5 -18 -62.5zt0 0zM372 467q0 -18 -15 -33.5q-15 -15.5 -40 -15.5q-22 0 -37 15.5q-15 15.5 -15 33.5q0 22 15 38q15 16 37 16q25 0 40 -16t15 -38z" />
<glyph unicode="&#192;" horiz-adv-x="678" d="M310 702h58l307 -702h-74l-85 192h-359l-82 -192h-72zM186 256h304l-153 352zM184 853l29 58l182 -107l-22 -42z" />
<glyph unicode="&#193;" horiz-adv-x="678" d="M310 702h58l307 -702h-74l-85 192h-359l-82 -192h-72zM186 256h304l-153 352zM325 762l-23 42l183 107l28 -58z" />
<glyph unicode="&#194;" horiz-adv-x="678" d="M310 702h58l307 -702h-74l-85 192h-359l-82 -192h-72zM186 256h304l-153 352zM519 802l-30 -43l-155 83l-153 -83l-23 43l174 103l4 0z" />
<glyph unicode="&#195;" horiz-adv-x="678" d="M310 702h58l307 -702h-74l-85 192h-359l-82 -192h-72zM186 256h304l-153 352zM161 838q22 21 51.5 33q29.5 12 49.5 12q22 0 42.5 -7q20.5 -7 40 -16q19.5 -9 38.5 -16q19 -7 39 -7q17 0 35.5 7q18.5 7 37.5 27l21 -39q-21 -27 -51 -39.5q-30 -12.5 -53 -12.5q-21 0 -41 7q-20 7 -40 16q-20 9 -40.5 16q-20.5 7 -41.5 7q-33 0 -66 -27z" />
<glyph unicode="&#196;" horiz-adv-x="678" d="M310 702h58l307 -702h-74l-85 192h-359l-82 -192h-72zM186 256h304l-153 352zM178 824q0 17 13 28q13 11 33 11q15 0 28.5 -11q13.5 -11 13.5 -28q0 -20 -13.5 -30q-13.5 -10 -28.5 -10q-20 0 -33 10q-13 10 -13 30zt0 0zM411 824q0 17 13 28q13 11 32 11q17 0 29.5 -10.5q12.5 -10.5 12.5 -28.5q0 -20 -12.5 -30q-12.5 -10 -29.5 -10q-19 0 -32 10t-13 30z" />
<glyph unicode="&#197;" horiz-adv-x="678" d="M310 702h58l307 -702h-74l-85 192h-359l-82 -192h-72zM186 256h304l-153 352zM227 822q0 23 9.5 41q9.5 18 25 30q15.5 12 35.5 18q20 6 41 6q22 0 42 -6q20 -6 36 -17.5q16 -11.5 25.5 -29.5q9.5 -18 9.5 -42q0 -44 -31.5 -70.5q-31.5 -26.5 -81.5 -26.5q-50 0 -80.5 25.5q-30.5 25.5 -30.5 71.5zt0 0zM279 822q0 -21 15.5 -36q15.5 -15 44.5 -15q31 0 45.5 14.5q14.5 14.5 14.5 36.5q0 21 -16 34.5q-16 13.5 -44 13.5q-29 0 -44.5 -14t-15.5 -34z" />
<glyph unicode="&#198;" horiz-adv-x="1102" d="M540 192h-322l-142 -192h-76l509 700h530v-66h-428v-245h400v-66h-400v-257h438v-66h-509zM540 256v379l-278 -379z" />
<glyph unicode="&#199;" horiz-adv-x="715" d="M309 -130q19 -10 38 -15.5q19 -5.5 37 -5.5q35 0 45 9q10 9 10 24q0 19 -14.5 26q-14.5 7 -42.5 7h-23v78q-71 6 -130 34.5q-59 28.5 -101.5 75q-42.5 46.5 -66 109.5q-23.5 63 -23.5 137q0 79 26 145q26 66 73 114q47 48 111 74.5q64 26.5 141 26.5q103 0 178 -47q75 -47 109 -132l-72 0q-32 54 -89 83q-57 29 -129 29q-62 0 -112.5 -21q-50.5 -21 -86.5 -59.5q-36 -38.5 -56 -92q-20 -53.5 -20 -118.5q0 -66 21 -120q21 -54 58.5 -92.5q37.5 -38.5 90.5 -59.5q53 -21 118 -21q150 0 211 118l72 0q-32 -87 -104 -134.5q-72 -47.5 -173 -50.5l0 -32q54 -2 76.5 -24q22.5 -22 22.5 -54q0 -33 -26.5 -58q-26.5 -25 -88.5 -25q-29 0 -55.5 7.5q-26.5 7.5 -45.5 21.5z" />
<glyph unicode="&#200;" horiz-adv-x="638" d="M77 700h499v-66h-428v-245h400v-66h-400v-257h438v-66h-509zM174 853l29 58l182 -107l-22 -42z" />
<glyph unicode="&#201;" horiz-adv-x="638" d="M77 700h499v-66h-428v-245h400v-66h-400v-257h438v-66h-509zM293 762l-23 42l183 107l28 -58z" />
<glyph unicode="&#202;" horiz-adv-x="638" d="M77 700h499v-66h-428v-245h400v-66h-400v-257h438v-66h-509zM516 802l-30 -43l-155 83l-153 -83l-23 43l174 103l4 0z" />
<glyph unicode="&#203;" horiz-adv-x="638" d="M77 700h499v-66h-428v-245h400v-66h-400v-257h438v-66h-509zM170 824q0 17 13 28q13 11 33 11q15 0 28.5 -11q13.5 -11 13.5 -28q0 -20 -13.5 -30q-13.5 -10 -28.5 -10q-20 0 -33 10q-13 10 -13 30zt0 0zM403 824q0 17 13 28q13 11 32 11q17 0 29.5 -10.5q12.5 -10.5 12.5 -28.5q0 -20 -12.5 -30q-12.5 -10 -29.5 -10q-19 0 -32 10t-13 30z" />
<glyph unicode="&#204;" horiz-adv-x="245" d="M87 700h71v-700h-71zM-45 853l29 58l182 -107l-22 -42z" />
<glyph unicode="&#205;" horiz-adv-x="245" d="M87 700h71v-700h-71zM105 762l-23 42l183 107l28 -58z" />
<glyph unicode="&#206;" horiz-adv-x="245" d="M87 700h71v-700h-71zM302 802l-30 -43l-155 83l-153 -83l-23 43l174 103l4 0z" />
<glyph unicode="&#207;" horiz-adv-x="245" d="M87 700h71v-700h-71zM-39 824q0 17 13 28q13 11 33 11q15 0 28.5 -11q13.5 -11 13.5 -28q0 -20 -13.5 -30q-13.5 -10 -28.5 -10q-20 0 -33 10q-13 10 -13 30zt0 0zM194 824q0 17 13 28q13 11 32 11q17 0 29.5 -10.5q12.5 -10.5 12.5 -28.5q0 -20 -12.5 -30q-12.5 -10 -29.5 -10q-19 0 -32 10t-13 30z" />
<glyph unicode="&#208;" horiz-adv-x="765" d="M8 377h125v323h213q105 0 177.5 -27.5q72.5 -27.5 118 -74q45.5 -46.5 65.5 -108.5q20 -62 20 -130q0 -75 -23.5 -140.5q-23.5 -65.5 -71.5 -114.5q-48 -49 -121.5 -77q-73.5 -28 -173.5 -28h-204v317h-125zM204 634v-257h198v-60h-198v-251h137q82 0 141.5 22.5q59.5 22.5 97.5 61.5q38 39 56 93q18 54 18 117q0 58 -16.5 108q-16.5 50 -53.5 87q-37 37 -96 58q-59 21 -144 21z" />
<glyph unicode="&#209;" horiz-adv-x="736" d="M602 0l-457 572v-572h-68v700h56l457 -574v574h68v-700zM190 838q22 21 51.5 33q29.5 12 49.5 12q22 0 42.5 -7q20.5 -7 40 -16q19.5 -9 38.5 -16q19 -7 39 -7q17 0 35.5 7q18.5 7 37.5 27l21 -39q-21 -27 -51 -39.5q-30 -12.5 -53 -12.5q-21 0 -41 7q-20 7 -40 16q-20 9 -40.5 16q-20.5 7 -41.5 7q-33 0 -66 -27z" />
<glyph unicode="&#210;" horiz-adv-x="783" d="M38 350q0 76 27.5 141.5q27.5 65.5 75 114q47.5 48.5 112 76q64.5 27.5 139.5 27.5q74 0 138.5 -26.5q64.5 -26.5 112 -74.5q47.5 -48 75 -114q27.5 -66 27.5 -144q0 -77 -27.5 -143q-27.5 -66 -75 -114q-47.5 -48 -112 -75q-64.5 -27 -138.5 -27q-74 0 -138.5 26.5q-64.5 26.5 -112.5 74.5q-48 48 -75.5 114q-27.5 66 -27.5 144zt0 0zM111 350q0 -63 22.5 -116.5q22.5 -53.5 60.5 -93q38 -39.5 89.5 -61.5q51.5 -22 108.5 -22q60 0 111 22q51 22 88.5 61.5q37.5 39.5 59 93q21.5 53.5 21.5 116.5q0 64 -22.5 117.5q-22.5 53.5 -60.5 92.5q-38 39 -89 61q-51 22 -108 22q-58 0 -109 -22q-51 -22 -89.5 -61q-38.5 -39 -60.5 -92.5q-22 -53.5 -22 -117.5zt0 0zM239 853l29 58l182 -107l-22 -42z" />
<glyph unicode="&#211;" horiz-adv-x="783" d="M38 350q0 76 27.5 141.5q27.5 65.5 75 114q47.5 48.5 112 76q64.5 27.5 139.5 27.5q74 0 138.5 -26.5q64.5 -26.5 112 -74.5q47.5 -48 75 -114q27.5 -66 27.5 -144q0 -77 -27.5 -143q-27.5 -66 -75 -114q-47.5 -48 -112 -75q-64.5 -27 -138.5 -27q-74 0 -138.5 26.5q-64.5 26.5 -112.5 74.5q-48 48 -75.5 114q-27.5 66 -27.5 144zt0 0zM111 350q0 -63 22.5 -116.5q22.5 -53.5 60.5 -93q38 -39.5 89.5 -61.5q51.5 -22 108.5 -22q60 0 111 22q51 22 88.5 61.5q37.5 39.5 59 93q21.5 53.5 21.5 116.5q0 64 -22.5 117.5q-22.5 53.5 -60.5 92.5q-38 39 -89 61q-51 22 -108 22q-58 0 -109 -22q-51 -22 -89.5 -61q-38.5 -39 -60.5 -92.5q-22 -53.5 -22 -117.5zt0 0zM362 762l-23 42l183 107l28 -58z" />
<glyph unicode="&#212;" horiz-adv-x="783" d="M38 350q0 76 27.5 141.5q27.5 65.5 75 114q47.5 48.5 112 76q64.5 27.5 139.5 27.5q74 0 138.5 -26.5q64.5 -26.5 112 -74.5q47.5 -48 75 -114q27.5 -66 27.5 -144q0 -77 -27.5 -143q-27.5 -66 -75 -114q-47.5 -48 -112 -75q-64.5 -27 -138.5 -27q-74 0 -138.5 26.5q-64.5 26.5 -112.5 74.5q-48 48 -75.5 114q-27.5 66 -27.5 144zt0 0zM111 350q0 -63 22.5 -116.5q22.5 -53.5 60.5 -93q38 -39.5 89.5 -61.5q51.5 -22 108.5 -22q60 0 111 22q51 22 88.5 61.5q37.5 39.5 59 93q21.5 53.5 21.5 116.5q0 64 -22.5 117.5q-22.5 53.5 -60.5 92.5q-38 39 -89 61q-51 22 -108 22q-58 0 -109 -22q-51 -22 -89.5 -61q-38.5 -39 -60.5 -92.5q-22 -53.5 -22 -117.5zt0 0zM573 802l-30 -43l-155 83l-153 -83l-23 43l174 103l4 0z" />
<glyph unicode="&#213;" horiz-adv-x="783" d="M38 350q0 76 27.5 141.5q27.5 65.5 75 114q47.5 48.5 112 76q64.5 27.5 139.5 27.5q74 0 138.5 -26.5q64.5 -26.5 112 -74.5q47.5 -48 75 -114q27.5 -66 27.5 -144q0 -77 -27.5 -143q-27.5 -66 -75 -114q-47.5 -48 -112 -75q-64.5 -27 -138.5 -27q-74 0 -138.5 26.5q-64.5 26.5 -112.5 74.5q-48 48 -75.5 114q-27.5 66 -27.5 144zt0 0zM111 350q0 -63 22.5 -116.5q22.5 -53.5 60.5 -93q38 -39.5 89.5 -61.5q51.5 -22 108.5 -22q60 0 111 22q51 22 88.5 61.5q37.5 39.5 59 93q21.5 53.5 21.5 116.5q0 64 -22.5 117.5q-22.5 53.5 -60.5 92.5q-38 39 -89 61q-51 22 -108 22q-58 0 -109 -22q-51 -22 -89.5 -61q-38.5 -39 -60.5 -92.5q-22 -53.5 -22 -117.5zt0 0zM214 838q22 21 51.5 33q29.5 12 49.5 12q22 0 42.5 -7q20.5 -7 40 -16q19.5 -9 38.5 -16q19 -7 39 -7q17 0 35.5 7q18.5 7 37.5 27l21 -39q-21 -27 -51 -39.5q-30 -12.5 -53 -12.5q-21 0 -41 7q-20 7 -40 16q-20 9 -40.5 16q-20.5 7 -41.5 7q-33 0 -66 -27z" />
<glyph unicode="&#214;" horiz-adv-x="783" d="M38 350q0 76 27.5 141.5q27.5 65.5 75 114q47.5 48.5 112 76q64.5 27.5 139.5 27.5q74 0 138.5 -26.5q64.5 -26.5 112 -74.5q47.5 -48 75 -114q27.5 -66 27.5 -144q0 -77 -27.5 -143q-27.5 -66 -75 -114q-47.5 -48 -112 -75q-64.5 -27 -138.5 -27q-74 0 -138.5 26.5q-64.5 26.5 -112.5 74.5q-48 48 -75.5 114q-27.5 66 -27.5 144zt0 0zM111 350q0 -63 22.5 -116.5q22.5 -53.5 60.5 -93q38 -39.5 89.5 -61.5q51.5 -22 108.5 -22q60 0 111 22q51 22 88.5 61.5q37.5 39.5 59 93q21.5 53.5 21.5 116.5q0 64 -22.5 117.5q-22.5 53.5 -60.5 92.5q-38 39 -89 61q-51 22 -108 22q-58 0 -109 -22q-51 -22 -89.5 -61q-38.5 -39 -60.5 -92.5q-22 -53.5 -22 -117.5zt0 0zM232 824q0 17 13 28q13 11 33 11q15 0 28.5 -11q13.5 -11 13.5 -28q0 -20 -13.5 -30q-13.5 -10 -28.5 -10q-20 0 -33 10q-13 10 -13 30zt0 0zM465 824q0 17 13 28q13 11 32 11q17 0 29.5 -10.5q12.5 -10.5 12.5 -28.5q0 -20 -12.5 -30q-12.5 -10 -29.5 -10q-19 0 -32 10t-13 30z" />
<glyph unicode="&#215;" horiz-adv-x="591" d="M155 539l138 -138l139 138l42 -42l-138 -138l138 -139l-42 -42l-139 139l-138 -139l-42 42l139 139l-139 138z" />
<glyph unicode="&#216;" horiz-adv-x="783" d="M143 90q-49 48 -77 114q-28 66 -28 146q0 76 27.5 141.5q27.5 65.5 75 114q47.5 48.5 112 76q64.5 27.5 139.5 27.5q57 0 108 -16q51 -16 94 -45l46 56l45 -36l-46 -57q50 -48 78 -114.5q28 -66.5 28 -146.5q0 -77 -27.5 -143q-27.5 -66 -75 -114q-47.5 -48 -112 -75q-64.5 -27 -138.5 -27q-57 0 -108 15.5q-51 15.5 -94 44.5l-49 -61l-48 39zM672 350q0 62 -21 114q-21 52 -57 91l-360 -449q34 -23 74 -36q40 -13 84 -13q60 0 111 22q51 22 88.5 61.5q37.5 39.5 59 93q21.5 53.5 21.5 116.5zt0 0zM111 350q0 -61 20.5 -113q20.5 -52 56.5 -91l362 447q-35 24 -74.5 37q-39.5 13 -83.5 13q-58 0 -109 -22q-51 -22 -89.5 -61q-38.5 -39 -60.5 -92.5t-22 -117.5z" />
<glyph unicode="&#217;" horiz-adv-x="719" d="M651 294q0 -81 -24.5 -138q-24.5 -57 -64 -93.5q-39.5 -36.5 -90.5 -53.5q-51 -17 -103 -17q-60 0 -115 19.5q-55 19.5 -96 58q-41 38.5 -65.5 96.5q-24.5 58 -24.5 135v399h71v-388q0 -64 19 -112q19 -48 50.5 -79.5q31.5 -31.5 73 -47q41.5 -15.5 87.5 -15.5q105 0 158 67q53 67 53 182v393h71zM210 853l29 58l182 -107l-22 -42z" />
<glyph unicode="&#218;" horiz-adv-x="719" d="M651 294q0 -81 -24.5 -138q-24.5 -57 -64 -93.5q-39.5 -36.5 -90.5 -53.5q-51 -17 -103 -17q-60 0 -115 19.5q-55 19.5 -96 58q-41 38.5 -65.5 96.5q-24.5 58 -24.5 135v399h71v-388q0 -64 19 -112q19 -48 50.5 -79.5q31.5 -31.5 73 -47q41.5 -15.5 87.5 -15.5q105 0 158 67q53 67 53 182v393h71zM333 762l-23 42l183 107l28 -58z" />
<glyph unicode="&#219;" horiz-adv-x="719" d="M651 294q0 -81 -24.5 -138q-24.5 -57 -64 -93.5q-39.5 -36.5 -90.5 -53.5q-51 -17 -103 -17q-60 0 -115 19.5q-55 19.5 -96 58q-41 38.5 -65.5 96.5q-24.5 58 -24.5 135v399h71v-388q0 -64 19 -112q19 -48 50.5 -79.5q31.5 -31.5 73 -47q41.5 -15.5 87.5 -15.5q105 0 158 67q53 67 53 182v393h71zM540 802l-30 -43l-155 83l-153 -83l-23 43l174 103l4 0z" />
<glyph unicode="&#220;" horiz-adv-x="719" d="M651 294q0 -81 -24.5 -138q-24.5 -57 -64 -93.5q-39.5 -36.5 -90.5 -53.5q-51 -17 -103 -17q-60 0 -115 19.5q-55 19.5 -96 58q-41 38.5 -65.5 96.5q-24.5 58 -24.5 135v399h71v-388q0 -64 19 -112q19 -48 50.5 -79.5q31.5 -31.5 73 -47q41.5 -15.5 87.5 -15.5q105 0 158 67q53 67 53 182v393h71zM199 824q0 17 13 28q13 11 33 11q15 0 28.5 -11q13.5 -11 13.5 -28q0 -20 -13.5 -30q-13.5 -10 -28.5 -10q-20 0 -33 10q-13 10 -13 30zt0 0zM432 824q0 17 13 28q13 11 32 11q17 0 29.5 -10.5q12.5 -10.5 12.5 -28.5q0 -20 -12.5 -30q-12.5 -10 -29.5 -10q-19 0 -32 10t-13 30z" />
<glyph unicode="&#221;" horiz-adv-x="627" d="M348 306v-306h-71v306l-279 394h85l231 -328l235 328h80zM290 762l-23 42l183 107l28 -58z" />
<glyph unicode="&#222;" horiz-adv-x="651" d="M77 0v700h71v-117h181q87 0 142.5 -18.5q55.5 -18.5 87 -48.5q31.5 -30 43 -68.5q11.5 -38.5 11.5 -77.5q0 -42 -14.5 -81q-14.5 -39 -48.5 -69q-34 -30 -88.5 -48.5q-54.5 -18.5 -133.5 -18.5h-180v-153zM148 518v-299h178q56 0 96.5 10.5q40.5 10.5 66.5 31q26 20.5 38.5 48.5q12.5 28 12.5 62q0 32 -11 59q-11 27 -35.5 46.5q-24.5 19.5 -63.5 30.5q-39 11 -96 11z" />
<glyph unicode="&#223;" horiz-adv-x="553" d="M272 738q105 0 156.5 -53.5q51.5 -53.5 51.5 -149.5q0 -51 -28 -96.5q-28 -45.5 -77 -67.5q71 -13 105.5 -61.5q34.5 -48.5 34.5 -115.5q0 -100 -56.5 -151.5q-56.5 -51.5 -165.5 -51.5q-76 0 -118 22l21 62q19 -9 43 -14.5q24 -5.5 57 -5.5q68 0 109 35q41 35 41 104q0 28 -9 52.5q-9 24.5 -30.5 42.5q-21.5 18 -56 28q-34.5 10 -85.5 10h-51v65h40q37 0 66 12.5q29 12.5 49.5 32.5q20.5 20 31 46.5q10.5 26.5 10.5 54.5q0 65 -36.5 101.5q-36.5 36.5 -101.5 36.5q-28 0 -54 -7.5q-26 -7.5 -45.5 -28.5q-19.5 -21 -31 -58q-11.5 -37 -11.5 -97v-485h-65v499q0 71 18.5 117.5q18.5 46.5 48 73.5q29.5 27 66 37.5t73.5 10.5z" />
<glyph unicode="&#224;" horiz-adv-x="533" d="M215 -7q-42 0 -76.5 11q-34.5 11 -59.5 31q-25 20 -38.5 49q-13.5 29 -13.5 64q0 83 67 120.5q67 37.5 186 37.5q15 0 33.5 -1.5q18.5 -1.5 37 -3.5q18.5 -2 34.5 -5q16 -3 26 -6q0 95 -37 138q-37 43 -118 43q-53 0 -85.5 -18q-32.5 -18 -49.5 -56l-68 0q17 65 71.5 100.5q54.5 35.5 137.5 35.5q103 0 158.5 -54q55.5 -54 55.5 -156v-323h-65v86q-25 -37 -73.5 -65q-48.5 -28 -122.5 -28zt0 0zM233 53q37 0 66.5 12q29.5 12 52 29.5q22.5 17.5 37.5 37.5q15 20 22 37l0 62q-23 7 -55 11.5q-32 4.5 -67 4.5q-90 0 -142 -20.5q-52 -20.5 -52 -74.5q0 -47 39 -73q39 -26 99 -26zt0 0zM149 760l50 39l110 -154l-39 -30z" />
<glyph unicode="&#225;" horiz-adv-x="533" d="M215 -7q-42 0 -76.5 11q-34.5 11 -59.5 31q-25 20 -38.5 49q-13.5 29 -13.5 64q0 83 67 120.5q67 37.5 186 37.5q15 0 33.5 -1.5q18.5 -1.5 37 -3.5q18.5 -2 34.5 -5q16 -3 26 -6q0 95 -37 138q-37 43 -118 43q-53 0 -85.5 -18q-32.5 -18 -49.5 -56l-68 0q17 65 71.5 100.5q54.5 35.5 137.5 35.5q103 0 158.5 -54q55.5 -54 55.5 -156v-323h-65v86q-25 -37 -73.5 -65q-48.5 -28 -122.5 -28zt0 0zM233 53q37 0 66.5 12q29.5 12 52 29.5q22.5 17.5 37.5 37.5q15 20 22 37l0 62q-23 7 -55 11.5q-32 4.5 -67 4.5q-90 0 -142 -20.5q-52 -20.5 -52 -74.5q0 -47 39 -73q39 -26 99 -26zt0 0zM268 614l-42 30l110 155l50 -37z" />
<glyph unicode="&#226;" horiz-adv-x="533" d="M215 -7q-42 0 -76.5 11q-34.5 11 -59.5 31q-25 20 -38.5 49q-13.5 29 -13.5 64q0 83 67 120.5q67 37.5 186 37.5q15 0 33.5 -1.5q18.5 -1.5 37 -3.5q18.5 -2 34.5 -5q16 -3 26 -6q0 95 -37 138q-37 43 -118 43q-53 0 -85.5 -18q-32.5 -18 -49.5 -56l-68 0q17 65 71.5 100.5q54.5 35.5 137.5 35.5q103 0 158.5 -54q55.5 -54 55.5 -156v-323h-65v86q-25 -37 -73.5 -65q-48.5 -28 -122.5 -28zt0 0zM233 53q37 0 66.5 12q29.5 12 52 29.5q22.5 17.5 37.5 37.5q15 20 22 37l0 62q-23 7 -55 11.5q-32 4.5 -67 4.5q-90 0 -142 -20.5q-52 -20.5 -52 -74.5q0 -47 39 -73q39 -26 99 -26zt0 0zM411 658l-36 -42l-109 97l-114 -94l-29 40l141 122l4 0z" />
<glyph unicode="&#227;" horiz-adv-x="533" d="M215 -7q-42 0 -76.5 11q-34.5 11 -59.5 31q-25 20 -38.5 49q-13.5 29 -13.5 64q0 83 67 120.5q67 37.5 186 37.5q15 0 33.5 -1.5q18.5 -1.5 37 -3.5q18.5 -2 34.5 -5q16 -3 26 -6q0 95 -37 138q-37 43 -118 43q-53 0 -85.5 -18q-32.5 -18 -49.5 -56l-68 0q17 65 71.5 100.5q54.5 35.5 137.5 35.5q103 0 158.5 -54q55.5 -54 55.5 -156v-323h-65v86q-25 -37 -73.5 -65q-48.5 -28 -122.5 -28zt0 0zM233 53q37 0 66.5 12q29.5 12 52 29.5q22.5 17.5 37.5 37.5q15 20 22 37l0 62q-23 7 -55 11.5q-32 4.5 -67 4.5q-90 0 -142 -20.5q-52 -20.5 -52 -74.5q0 -47 39 -73q39 -26 99 -26zt0 0zM106 664q26 26 53.5 42.5q27.5 16.5 53.5 16.5q18 0 33 -8q15 -8 29.5 -17q14.5 -9 29 -17q14.5 -8 30.5 -8q35 0 67 35l26 -33q-25 -32 -51 -44.5q-26 -12.5 -48 -12.5q-20 0 -36 8q-16 8 -29.5 17q-13.5 9 -26.5 17q-13 8 -27 8q-19 0 -36.5 -10q-17.5 -10 -36.5 -26z" />
<glyph unicode="&#228;" horiz-adv-x="533" d="M215 -7q-42 0 -76.5 11q-34.5 11 -59.5 31q-25 20 -38.5 49q-13.5 29 -13.5 64q0 83 67 120.5q67 37.5 186 37.5q15 0 33.5 -1.5q18.5 -1.5 37 -3.5q18.5 -2 34.5 -5q16 -3 26 -6q0 95 -37 138q-37 43 -118 43q-53 0 -85.5 -18q-32.5 -18 -49.5 -56l-68 0q17 65 71.5 100.5q54.5 35.5 137.5 35.5q103 0 158.5 -54q55.5 -54 55.5 -156v-323h-65v86q-25 -37 -73.5 -65q-48.5 -28 -122.5 -28zt0 0zM233 53q37 0 66.5 12q29.5 12 52 29.5q22.5 17.5 37.5 37.5q15 20 22 37l0 62q-23 7 -55 11.5q-32 4.5 -67 4.5q-90 0 -142 -20.5q-52 -20.5 -52 -74.5q0 -47 39 -73q39 -26 99 -26zt0 0zM98 689q0 18 12 29q12 11 28 11q16 0 29.5 -11q13.5 -11 13.5 -29q0 -20 -13.5 -31q-13.5 -11 -29.5 -11q-16 0 -28 11q-12 11 -12 31zt0 0zM335 689q0 18 13 29q13 11 30 11q15 0 28.5 -11q13.5 -11 13.5 -29q0 -20 -13.5 -31q-13.5 -11 -28.5 -11q-17 0 -30 11t-13 31z" />
<glyph unicode="&#229;" horiz-adv-x="533" d="M215 -7q-42 0 -76.5 11q-34.5 11 -59.5 31q-25 20 -38.5 49q-13.5 29 -13.5 64q0 83 67 120.5q67 37.5 186 37.5q15 0 33.5 -1.5q18.5 -1.5 37 -3.5q18.5 -2 34.5 -5q16 -3 26 -6q0 95 -37 138q-37 43 -118 43q-53 0 -85.5 -18q-32.5 -18 -49.5 -56l-68 0q17 65 71.5 100.5q54.5 35.5 137.5 35.5q103 0 158.5 -54q55.5 -54 55.5 -156v-323h-65v86q-25 -37 -73.5 -65q-48.5 -28 -122.5 -28zt0 0zM233 53q37 0 66.5 12q29.5 12 52 29.5q22.5 17.5 37.5 37.5q15 20 22 37l0 62q-23 7 -55 11.5q-32 4.5 -67 4.5q-90 0 -142 -20.5q-52 -20.5 -52 -74.5q0 -47 39 -73q39 -26 99 -26zt0 0zM166 701q0 20 7.5 38q7.5 18 21 31.5q13.5 13.5 32 21.5q18.5 8 39.5 8q21 0 39.5 -8q18.5 -8 32 -21.5q13.5 -13.5 21.5 -31.5q8 -18 8 -38q0 -20 -8 -38q-8 -18 -21.5 -31.5q-13.5 -13.5 -32 -21q-18.5 -7.5 -39.5 -7.5q-21 0 -39.5 7.5q-18.5 7.5 -32 21q-13.5 13.5 -21 31.5q-7.5 18 -7.5 38zt0 0zM216 701q0 -21 14 -35.5q14 -14.5 36 -14.5q22 0 36.5 12.5q14.5 12.5 14.5 37.5q0 25 -14 38q-14 13 -37 13q-22 0 -36 -14t-14 -37z" />
<glyph unicode="&#230;" horiz-adv-x="945" d="M892 99q-35 -55 -89 -82q-54 -27 -117 -27q-82 0 -143.5 32.5q-61.5 32.5 -95.5 91.5q-76 -121 -229 -121q-43 0 -78.5 11.5q-35.5 11.5 -60.5 32.5q-25 21 -38.5 49.5q-13.5 28.5 -13.5 61.5q0 83 67 120.5q67 37.5 186 37.5q15 0 33.5 -1.5q18.5 -1.5 37 -3.5q18.5 -2 34.5 -5q16 -3 26 -6q0 95 -37 138q-37 43 -118 43q-53 0 -85.5 -18q-32.5 -18 -49.5 -56l-68 0q17 65 71.5 100.5q54.5 35.5 137.5 35.5q72 0 121.5 -27q49.5 -27 72.5 -79q32 49 86.5 77.5q54.5 28.5 130.5 28.5q51 0 94.5 -17q43.5 -17 75.5 -47.5q32 -30.5 50 -74q18 -43.5 18 -97.5q0 -14 -1 -28q-1 -14 -3 -28l-427 0q1 -45 17 -80q16 -35 43.5 -59.5q27.5 -24.5 65.5 -37q38 -12.5 83 -12.5q25 0 48.5 7q23.5 7 44.5 18.5q21 11.5 37.5 27q16.5 15.5 28.5 33.5zM667 472q-41 0 -74.5 -13q-33.5 -13 -57.5 -36q-24 -23 -38.5 -54q-14.5 -31 -18.5 -68l364 0q-2 81 -48.5 126q-46.5 45 -126.5 45zt0 0zM233 53q39 0 69 12q30 12 52 29.5q22 17.5 36 37.5q14 20 21 37l0 62q-23 7 -55 11.5q-32 4.5 -67 4.5q-90 0 -141 -20.5q-51 -20.5 -51 -74.5q0 -47 38 -73t98 -26z" />
<glyph unicode="&#231;" horiz-adv-x="555" d="M224 -130q18 -10 37.5 -15.5q19.5 -5.5 37.5 -5.5q35 0 45 9q10 9 10 24q0 19 -15 26q-15 7 -43 7h-22v77q-53 4 -97.5 25.5q-44.5 21.5 -76 56.5q-31.5 35 -49 82.5q-17.5 47.5 -17.5 103.5q0 60 20 110q20 50 56 86q36 36 86 56.5q50 20.5 109 20.5q79 0 136 -35.5q57 -35.5 81 -100.5l-68 0q-23 35 -62.5 54.5q-39.5 19.5 -89.5 19.5q-44 0 -81 -15q-37 -15 -63 -43q-26 -28 -40.5 -66.5q-14.5 -38.5 -14.5 -85.5q0 -47 14.5 -85.5q14.5 -38.5 41 -66q26.5 -27.5 64 -42.5q37.5 -15 82.5 -15q54 0 94 21q40 21 60 59l68 0q-21 -62 -76.5 -99q-55.5 -37 -131.5 -42l0 -32q52 -2 75 -24q23 -22 23 -54q0 -33 -27.5 -58q-27.5 -25 -89.5 -25q-26 0 -51.5 7.5q-25.5 7.5 -44.5 21.5z" />
<glyph unicode="&#232;" horiz-adv-x="570" d="M517 99q-35 -55 -89.5 -82q-54.5 -27 -117.5 -27q-62 0 -113 19q-51 19 -87 54.5q-36 35.5 -56 85.5q-20 50 -20 112q0 57 17 107q17 50 50.5 86.5q33.5 36.5 82.5 57.5q49 21 113 21q51 0 95 -17q44 -17 76 -47.5q32 -30.5 50 -74q18 -43.5 18 -97.5q0 -14 -1 -28q-1 -14 -3 -28l-429 0q1 -45 17 -80q16 -35 44 -59.5q28 -24.5 66 -37q38 -12.5 83 -12.5q25 0 49 7q24 7 44.5 18.5q20.5 11.5 37.5 27q17 15.5 29 33.5zM292 472q-42 0 -75 -13q-33 -13 -57.5 -36q-24.5 -23 -39 -54q-14.5 -31 -18.5 -68l364 0q-2 81 -48.5 126q-46.5 45 -125.5 45zt0 0zM185 760l50 39l110 -154l-39 -30z" />
<glyph unicode="&#233;" horiz-adv-x="570" d="M517 99q-35 -55 -89.5 -82q-54.5 -27 -117.5 -27q-62 0 -113 19q-51 19 -87 54.5q-36 35.5 -56 85.5q-20 50 -20 112q0 57 17 107q17 50 50.5 86.5q33.5 36.5 82.5 57.5q49 21 113 21q51 0 95 -17q44 -17 76 -47.5q32 -30.5 50 -74q18 -43.5 18 -97.5q0 -14 -1 -28q-1 -14 -3 -28l-429 0q1 -45 17 -80q16 -35 44 -59.5q28 -24.5 66 -37q38 -12.5 83 -12.5q25 0 49 7q24 7 44.5 18.5q20.5 11.5 37.5 27q17 15.5 29 33.5zM292 472q-42 0 -75 -13q-33 -13 -57.5 -36q-24.5 -23 -39 -54q-14.5 -31 -18.5 -68l364 0q-2 81 -48.5 126q-46.5 45 -125.5 45zt0 0zM285 614l-42 30l110 155l50 -37z" />
<glyph unicode="&#234;" horiz-adv-x="570" d="M517 99q-35 -55 -89.5 -82q-54.5 -27 -117.5 -27q-62 0 -113 19q-51 19 -87 54.5q-36 35.5 -56 85.5q-20 50 -20 112q0 57 17 107q17 50 50.5 86.5q33.5 36.5 82.5 57.5q49 21 113 21q51 0 95 -17q44 -17 76 -47.5q32 -30.5 50 -74q18 -43.5 18 -97.5q0 -14 -1 -28q-1 -14 -3 -28l-429 0q1 -45 17 -80q16 -35 44 -59.5q28 -24.5 66 -37q38 -12.5 83 -12.5q25 0 49 7q24 7 44.5 18.5q20.5 11.5 37.5 27q17 15.5 29 33.5zM292 472q-42 0 -75 -13q-33 -13 -57.5 -36q-24.5 -23 -39 -54q-14.5 -31 -18.5 -68l364 0q-2 81 -48.5 126q-46.5 45 -125.5 45zt0 0zM448 658l-36 -42l-109 97l-114 -94l-29 40l141 122l4 0z" />
<glyph unicode="&#235;" horiz-adv-x="570" d="M517 99q-35 -55 -89.5 -82q-54.5 -27 -117.5 -27q-62 0 -113 19q-51 19 -87 54.5q-36 35.5 -56 85.5q-20 50 -20 112q0 57 17 107q17 50 50.5 86.5q33.5 36.5 82.5 57.5q49 21 113 21q51 0 95 -17q44 -17 76 -47.5q32 -30.5 50 -74q18 -43.5 18 -97.5q0 -14 -1 -28q-1 -14 -3 -28l-429 0q1 -45 17 -80q16 -35 44 -59.5q28 -24.5 66 -37q38 -12.5 83 -12.5q25 0 49 7q24 7 44.5 18.5q20.5 11.5 37.5 27q17 15.5 29 33.5zM292 472q-42 0 -75 -13q-33 -13 -57.5 -36q-24.5 -23 -39 -54q-14.5 -31 -18.5 -68l364 0q-2 81 -48.5 126q-46.5 45 -125.5 45zt0 0zM124 689q0 18 12 29q12 11 28 11q16 0 29.5 -11q13.5 -11 13.5 -29q0 -20 -13.5 -31q-13.5 -11 -29.5 -11q-16 0 -28 11q-12 11 -12 31zt0 0zM361 689q0 18 13 29q13 11 30 11q15 0 28.5 -11q13.5 -11 13.5 -29q0 -20 -13.5 -31q-13.5 -11 -28.5 -11q-17 0 -30 11t-13 31z" />
<glyph unicode="&#236;" horiz-adv-x="238" d="M86 520h65v-520h-65zM11 760l50 39l110 -154l-39 -30z" />
<glyph unicode="&#237;" horiz-adv-x="238" d="M86 520h65v-520h-65zM110 614l-42 30l110 155l50 -37z" />
<glyph unicode="&#238;" horiz-adv-x="238" d="M86 520h65v-520h-65zM263 658l-36 -42l-109 97l-114 -94l-29 40l141 122l4 0z" />
<glyph unicode="&#239;" horiz-adv-x="238" d="M86 520h65v-520h-65zM-41 689q0 18 12 29q12 11 28 11q16 0 29.5 -11q13.5 -11 13.5 -29q0 -20 -13.5 -31q-13.5 -11 -29.5 -11q-16 0 -28 11q-12 11 -12 31zt0 0zM196 689q0 18 13 29q13 11 30 11q15 0 28.5 -11q13.5 -11 13.5 -29q0 -20 -13.5 -31q-13.5 -11 -28.5 -11q-17 0 -30 11t-13 31z" />
<glyph unicode="&#240;" horiz-adv-x="616" d="M359 766l-28 -64q125 -51 188 -155q63 -104 63 -257q0 -70 -20 -125.5q-20 -55.5 -56 -94.5q-36 -39 -86.5 -59.5q-50.5 -20.5 -111.5 -20.5q-61 0 -111.5 20.5q-50.5 20.5 -86.5 56.5q-36 36 -56 85.5q-20 49.5 -20 108.5q0 59 20 107.5q20 48.5 56 83q36 34.5 86.5 53q50.5 18.5 111.5 18.5q25 0 51.5 -4.5q26.5 -4.5 51 -13q24.5 -8.5 46.5 -22q22 -13.5 38 -31.5q-23 63 -70 114.5q-47 51.5 -117 83.5l-34 -79l-53 22l35 76q-25 7 -51 11q-26 4 -55 6l13 56q64 -8 116 -22l31 67zM103 261q0 -46 15 -84.5q15 -38.5 42.5 -66q27.5 -27.5 65 -43q37.5 -15.5 82.5 -15.5q97 0 151.5 61q54.5 61 54.5 174q0 23 -3 45.5q-3 22.5 -11 39.5q-26 40 -75.5 65q-49.5 25 -112.5 25q-46 0 -84.5 -14q-38.5 -14 -66 -40q-27.5 -26 -43 -63t-15.5 -84z" />
<glyph unicode="&#241;" horiz-adv-x="591" d="M66 520h65v-72q35 46 83.5 65q48.5 19 105.5 19q103 0 158.5 -56q55.5 -56 55.5 -179v-297h-65v287q0 94 -42 138.5q-42 44.5 -127 44.5q-26 0 -51 -8.5q-25 -8.5 -47.5 -24q-22.5 -15.5 -40.5 -37q-18 -21.5 -30 -46.5l0 -354h-65zM134 664q26 26 53.5 42.5q27.5 16.5 53.5 16.5q18 0 33 -8q15 -8 29.5 -17q14.5 -9 29 -17q14.5 -8 30.5 -8q35 0 67 35l26 -33q-25 -32 -51 -44.5q-26 -12.5 -48 -12.5q-20 0 -36 8q-16 8 -29.5 17q-13.5 9 -26.5 17q-13 8 -27 8q-19 0 -36.5 -10q-17.5 -10 -36.5 -26z" />
<glyph unicode="&#242;" horiz-adv-x="616" d="M34 261q0 59 20 109q20 50 56 86q36 36 86.5 56.5q50.5 20.5 111.5 20.5q61 0 111.5 -20.5q50.5 -20.5 86.5 -56.5q36 -36 56 -86q20 -50 20 -109q0 -59 -20 -108.5q-20 -49.5 -56 -85.5q-36 -36 -86.5 -56.5q-50.5 -20.5 -111.5 -20.5q-61 0 -111.5 20.5q-50.5 20.5 -86.5 56.5q-36 36 -56 85.5q-20 49.5 -20 108.5zt0 0zM103 261q0 -46 15 -84.5q15 -38.5 42.5 -66q27.5 -27.5 65 -43q37.5 -15.5 82.5 -15.5q45 0 82.5 15q37.5 15 65 43q27.5 28 42.5 66q15 38 15 85q0 46 -15.5 85q-15.5 39 -43 66.5q-27.5 27.5 -65 43q-37.5 15.5 -81.5 15.5q-44 0 -81.5 -15q-37.5 -15 -65 -43q-27.5 -28 -43 -66.5q-15.5 -38.5 -15.5 -85.5zt0 0zM204 760l50 39l110 -154l-39 -30z" />
<glyph unicode="&#243;" horiz-adv-x="616" d="M34 261q0 59 20 109q20 50 56 86q36 36 86.5 56.5q50.5 20.5 111.5 20.5q61 0 111.5 -20.5q50.5 -20.5 86.5 -56.5q36 -36 56 -86q20 -50 20 -109q0 -59 -20 -108.5q-20 -49.5 -56 -85.5q-36 -36 -86.5 -56.5q-50.5 -20.5 -111.5 -20.5q-61 0 -111.5 20.5q-50.5 20.5 -86.5 56.5q-36 36 -56 85.5q-20 49.5 -20 108.5zt0 0zM103 261q0 -46 15 -84.5q15 -38.5 42.5 -66q27.5 -27.5 65 -43q37.5 -15.5 82.5 -15.5q45 0 82.5 15q37.5 15 65 43q27.5 28 42.5 66q15 38 15 85q0 46 -15.5 85q-15.5 39 -43 66.5q-27.5 27.5 -65 43q-37.5 15.5 -81.5 15.5q-44 0 -81.5 -15q-37.5 -15 -65 -43q-27.5 -28 -43 -66.5q-15.5 -38.5 -15.5 -85.5zt0 0zM292 614l-42 30l110 155l50 -37z" />
<glyph unicode="&#244;" horiz-adv-x="616" d="M34 261q0 59 20 109q20 50 56 86q36 36 86.5 56.5q50.5 20.5 111.5 20.5q61 0 111.5 -20.5q50.5 -20.5 86.5 -56.5q36 -36 56 -86q20 -50 20 -109q0 -59 -20 -108.5q-20 -49.5 -56 -85.5q-36 -36 -86.5 -56.5q-50.5 -20.5 -111.5 -20.5q-61 0 -111.5 20.5q-50.5 20.5 -86.5 56.5q-36 36 -56 85.5q-20 49.5 -20 108.5zt0 0zM103 261q0 -46 15 -84.5q15 -38.5 42.5 -66q27.5 -27.5 65 -43q37.5 -15.5 82.5 -15.5q45 0 82.5 15q37.5 15 65 43q27.5 28 42.5 66q15 38 15 85q0 46 -15.5 85q-15.5 39 -43 66.5q-27.5 27.5 -65 43q-37.5 15.5 -81.5 15.5q-44 0 -81.5 -15q-37.5 -15 -65 -43q-27.5 -28 -43 -66.5q-15.5 -38.5 -15.5 -85.5zt0 0zM452 658l-36 -42l-109 97l-114 -94l-29 40l141 122l4 0z" />
<glyph unicode="&#245;" horiz-adv-x="616" d="M34 261q0 59 20 109q20 50 56 86q36 36 86.5 56.5q50.5 20.5 111.5 20.5q61 0 111.5 -20.5q50.5 -20.5 86.5 -56.5q36 -36 56 -86q20 -50 20 -109q0 -59 -20 -108.5q-20 -49.5 -56 -85.5q-36 -36 -86.5 -56.5q-50.5 -20.5 -111.5 -20.5q-61 0 -111.5 20.5q-50.5 20.5 -86.5 56.5q-36 36 -56 85.5q-20 49.5 -20 108.5zt0 0zM103 261q0 -46 15 -84.5q15 -38.5 42.5 -66q27.5 -27.5 65 -43q37.5 -15.5 82.5 -15.5q45 0 82.5 15q37.5 15 65 43q27.5 28 42.5 66q15 38 15 85q0 46 -15.5 85q-15.5 39 -43 66.5q-27.5 27.5 -65 43q-37.5 15.5 -81.5 15.5q-44 0 -81.5 -15q-37.5 -15 -65 -43q-27.5 -28 -43 -66.5q-15.5 -38.5 -15.5 -85.5zt0 0zM147 664q26 26 53.5 42.5q27.5 16.5 53.5 16.5q18 0 33 -8q15 -8 29.5 -17q14.5 -9 29 -17q14.5 -8 30.5 -8q35 0 67 35l26 -33q-25 -32 -51 -44.5q-26 -12.5 -48 -12.5q-20 0 -36 8q-16 8 -29.5 17q-13.5 9 -26.5 17q-13 8 -27 8q-19 0 -36.5 -10q-17.5 -10 -36.5 -26z" />
<glyph unicode="&#246;" horiz-adv-x="616" d="M34 261q0 59 20 109q20 50 56 86q36 36 86.5 56.5q50.5 20.5 111.5 20.5q61 0 111.5 -20.5q50.5 -20.5 86.5 -56.5q36 -36 56 -86q20 -50 20 -109q0 -59 -20 -108.5q-20 -49.5 -56 -85.5q-36 -36 -86.5 -56.5q-50.5 -20.5 -111.5 -20.5q-61 0 -111.5 20.5q-50.5 20.5 -86.5 56.5q-36 36 -56 85.5q-20 49.5 -20 108.5zt0 0zM103 261q0 -46 15 -84.5q15 -38.5 42.5 -66q27.5 -27.5 65 -43q37.5 -15.5 82.5 -15.5q45 0 82.5 15q37.5 15 65 43q27.5 28 42.5 66q15 38 15 85q0 46 -15.5 85q-15.5 39 -43 66.5q-27.5 27.5 -65 43q-37.5 15.5 -81.5 15.5q-44 0 -81.5 -15q-37.5 -15 -65 -43q-27.5 -28 -43 -66.5q-15.5 -38.5 -15.5 -85.5zt0 0zM147 689q0 18 12 29q12 11 28 11q16 0 29.5 -11q13.5 -11 13.5 -29q0 -20 -13.5 -31q-13.5 -11 -29.5 -11q-16 0 -28 11q-12 11 -12 31zt0 0zM384 689q0 18 13 29q13 11 30 11q15 0 28.5 -11q13.5 -11 13.5 -29q0 -20 -13.5 -31q-13.5 -11 -28.5 -11q-17 0 -30 11t-13 31z" />
<glyph unicode="&#247;" horiz-adv-x="582" d="M250 566q0 14 11 26.5q11 12.5 31 12.5q18 0 29 -12.5q11 -12.5 11 -26.5q0 -16 -11 -28q-11 -12 -29 -12q-20 0 -31 12q-11 12 -11 28zt0 0zM250 154q0 15 11 27q11 12 31 12q18 0 29 -12q11 -12 11 -27q0 -16 -11 -28.5q-11 -12.5 -29 -12.5q-20 0 -31 12.5q-11 12.5 -11 28.5zt0 0zM65 389h453v-58l-453 0z" />
<glyph unicode="&#248;" horiz-adv-x="616" d="M34 261q0 59 20 109q20 50 56 86q36 36 86.5 56.5q50.5 20.5 111.5 20.5q42 0 79.5 -10q37.5 -10 69.5 -29l62 76l45 -36l-61 -75q38 -37 58.5 -87.5q20.5 -50.5 20.5 -110.5q0 -59 -20 -108.5q-20 -49.5 -56 -85.5q-36 -36 -86.5 -56.5q-50.5 -20.5 -111.5 -20.5q-43 0 -80.5 10q-37.5 10 -69.5 29l-55 -68l-47 38l54 67q-36 36 -56 85.5q-20 49.5 -20 109.5zt0 0zM513 261q0 44 -13.5 80.5q-13.5 36.5 -38.5 64.5l-262 -326q48 -28 109 -28q45 0 82.5 15q37.5 15 65 43q27.5 28 42.5 66q15 38 15 85zt0 0zM103 261q0 -86 50 -142l262 323q-23 14 -50 21.5q-27 7.5 -57 7.5q-44 0 -81.5 -15q-37.5 -15 -65 -43q-27.5 -28 -43 -66.5t-15.5 -85.5z" />
<glyph unicode="&#249;" horiz-adv-x="583" d="M518 0h-65v87q-29 -45 -76 -71q-47 -26 -107 -26q-106 0 -159.5 55.5q-53.5 55.5 -53.5 174.5v303h65v-290q0 -37 7 -70q7 -33 24.5 -57.5q17.5 -24.5 47 -39q29.5 -14.5 74.5 -14.5q59 0 106 34.5q47 34.5 72 94.5l0 342h65zM192 760l50 39l110 -154l-39 -30z" />
<glyph unicode="&#250;" horiz-adv-x="583" d="M518 0h-65v87q-29 -45 -76 -71q-47 -26 -107 -26q-106 0 -159.5 55.5q-53.5 55.5 -53.5 174.5v303h65v-290q0 -37 7 -70q7 -33 24.5 -57.5q17.5 -24.5 47 -39q29.5 -14.5 74.5 -14.5q59 0 106 34.5q47 34.5 72 94.5l0 342h65zM274 614l-42 30l110 155l50 -37z" />
<glyph unicode="&#251;" horiz-adv-x="583" d="M518 0h-65v87q-29 -45 -76 -71q-47 -26 -107 -26q-106 0 -159.5 55.5q-53.5 55.5 -53.5 174.5v303h65v-290q0 -37 7 -70q7 -33 24.5 -57.5q17.5 -24.5 47 -39q29.5 -14.5 74.5 -14.5q59 0 106 34.5q47 34.5 72 94.5l0 342h65zM436 658l-36 -42l-109 97l-114 -94l-29 40l141 122l4 0z" />
<glyph unicode="&#252;" horiz-adv-x="583" d="M518 0h-65v87q-29 -45 -76 -71q-47 -26 -107 -26q-106 0 -159.5 55.5q-53.5 55.5 -53.5 174.5v303h65v-290q0 -37 7 -70q7 -33 24.5 -57.5q17.5 -24.5 47 -39q29.5 -14.5 74.5 -14.5q59 0 106 34.5q47 34.5 72 94.5l0 342h65zM123 689q0 18 12 29q12 11 28 11q16 0 29.5 -11q13.5 -11 13.5 -29q0 -20 -13.5 -31q-13.5 -11 -29.5 -11q-16 0 -28 11q-12 11 -12 31zt0 0zM360 689q0 18 13 29q13 11 30 11q15 0 28.5 -11q13.5 -11 13.5 -29q0 -20 -13.5 -31q-13.5 -11 -28.5 -11q-17 0 -30 11t-13 31z" />
<glyph unicode="&#253;" horiz-adv-x="535" d="M110 -140q5 -2 12.5 -4q7.5 -2 12.5 -2q16 0 30.5 5.5q14.5 5.5 28 19.5q13.5 14 27 37.5q13.5 23.5 28.5 60.5l14 34l-266 509h78l222 -427l169 427h72l-210 -518q-27 -66 -49.5 -107q-22.5 -41 -45 -64.5q-22.5 -23.5 -46 -32q-23.5 -8.5 -51.5 -8.5q-24 0 -44 7zM260 614l-42 30l110 155l50 -37z" />
<glyph unicode="&#254;" horiz-adv-x="597" d="M66 730h65v-287q32 50 82.5 70q50.5 20 102.5 20q57 0 103 -19.5q46 -19.5 77.5 -54.5q31.5 -35 48.5 -83q17 -48 17 -106q0 -60 -19 -111.5q-19 -51.5 -53 -89q-34 -37.5 -82 -58.5q-48 -21 -105 -21q-53 0 -100.5 18.5q-47.5 18.5 -71.5 50.5l0 -259h-65zM310 471q-35 0 -64 -11q-29 -11 -52 -28.5q-23 -17.5 -39 -40q-16 -22.5 -24 -44.5l0 -202q28 -51 73.5 -72q45.5 -21 96.5 -21q42 0 77 16q35 16 60.5 44q25.5 28 40 67q14.5 39 14.5 86q0 46 -12.5 84q-12.5 38 -36.5 65q-24 27 -58 42t-76 15z" />
<glyph unicode="&#255;" horiz-adv-x="535" d="M110 -140q5 -2 12.5 -4q7.5 -2 12.5 -2q16 0 30.5 5.5q14.5 5.5 28 19.5q13.5 14 27 37.5q13.5 23.5 28.5 60.5l14 34l-266 509h78l222 -427l169 427h72l-210 -518q-27 -66 -49.5 -107q-22.5 -41 -45 -64.5q-22.5 -23.5 -46 -32q-23.5 -8.5 -51.5 -8.5q-24 0 -44 7zM107 689q0 18 12 29q12 11 28 11q16 0 29.5 -11q13.5 -11 13.5 -29q0 -20 -13.5 -31q-13.5 -11 -29.5 -11q-16 0 -28 11q-12 11 -12 31zt0 0zM344 689q0 18 13 29q13 11 30 11q15 0 28.5 -11q13.5 -11 13.5 -29q0 -20 -13.5 -31q-13.5 -11 -28.5 -11q-17 0 -30 11t-13 31z" />
<glyph unicode="&#256;" horiz-adv-x="678" d="M310 702h58l307 -702h-74l-85 192h-359l-82 -192h-72zM186 256h304l-153 352zM190 853h297v-58l-297 0z" />
<glyph unicode="&#257;" horiz-adv-x="533" d="M215 -7q-42 0 -76.5 11q-34.5 11 -59.5 31q-25 20 -38.5 49q-13.5 29 -13.5 64q0 83 67 120.5q67 37.5 186 37.5q15 0 33.5 -1.5q18.5 -1.5 37 -3.5q18.5 -2 34.5 -5q16 -3 26 -6q0 95 -37 138q-37 43 -118 43q-53 0 -85.5 -18q-32.5 -18 -49.5 -56l-68 0q17 65 71.5 100.5q54.5 35.5 137.5 35.5q103 0 158.5 -54q55.5 -54 55.5 -156v-323h-65v86q-25 -37 -73.5 -65q-48.5 -28 -122.5 -28zt0 0zM233 53q37 0 66.5 12q29.5 12 52 29.5q22.5 17.5 37.5 37.5q15 20 22 37l0 62q-23 7 -55 11.5q-32 4.5 -67 4.5q-90 0 -142 -20.5q-52 -20.5 -52 -74.5q0 -47 39 -73q39 -26 99 -26zt0 0zM137 706h261v-59l-261 0z" />
<glyph unicode="&#258;" horiz-adv-x="678" d="M310 702h58l307 -702h-74l-85 192h-359l-82 -192h-72zM186 256h304l-153 352zM198 900q8 -9 20.5 -20q12.5 -11 30.5 -20.5q18 -9.5 40.5 -16q22.5 -6.5 51.5 -6.5q50 0 85 19q35 19 55 44l31 -29q-12 -19 -30 -36q-18 -17 -40 -30q-22 -13 -48 -20.5q-26 -7.5 -53 -7.5q-35 0 -63.5 8.5q-28.5 8.5 -50 22q-21.5 13.5 -37.5 29.5q-16 16 -26 31z" />
<glyph unicode="&#259;" horiz-adv-x="533" d="M215 -7q-42 0 -76.5 11q-34.5 11 -59.5 31q-25 20 -38.5 49q-13.5 29 -13.5 64q0 83 67 120.5q67 37.5 186 37.5q15 0 33.5 -1.5q18.5 -1.5 37 -3.5q18.5 -2 34.5 -5q16 -3 26 -6q0 95 -37 138q-37 43 -118 43q-53 0 -85.5 -18q-32.5 -18 -49.5 -56l-68 0q17 65 71.5 100.5q54.5 35.5 137.5 35.5q103 0 158.5 -54q55.5 -54 55.5 -156v-323h-65v86q-25 -37 -73.5 -65q-48.5 -28 -122.5 -28zt0 0zM233 53q37 0 66.5 12q29.5 12 52 29.5q22.5 17.5 37.5 37.5q15 20 22 37l0 62q-23 7 -55 11.5q-32 4.5 -67 4.5q-90 0 -142 -20.5q-52 -20.5 -52 -74.5q0 -47 39 -73q39 -26 99 -26zt0 0zM137 764q7 -9 20 -19.5q13 -10.5 29.5 -19.5q16.5 -9 35 -14.5q18.5 -5.5 37.5 -5.5q42 0 72 16.5q30 16.5 50 41.5l24 -30q-12 -17 -27 -33.5q-15 -16.5 -33.5 -29q-18.5 -12.5 -40 -20q-21.5 -7.5 -46.5 -7.5q-29 0 -53.5 10.5q-24.5 10.5 -44 25q-19.5 14.5 -33 29.5q-13.5 15 -19.5 25z" />
<glyph unicode="&#260;" horiz-adv-x="678" d="M662 -185q-13 -7 -31.5 -11q-18.5 -4 -42.5 -4q-20 -1 -40 4q-20 5 -36.5 16q-16.5 11 -27 28.5q-10.5 17.5 -10.5 42.5q0 45 33.5 77q33.5 32 87.5 45l-79 179h-359l-82 -192h-72l307 702h58l307 -702h-19q-20 0 -42 -7q-22 -7 -40 -20q-18 -13 -30 -30.5q-12 -17.5 -12 -36.5q0 -16 5.5 -26.5q5.5 -10.5 15 -16.5q9.5 -6 21 -8.5q11.5 -2.5 23.5 -2.5q28 0 54 9zM186 256h304l-153 352z" />
<glyph unicode="&#261;" horiz-adv-x="533" d="M484 -182q-13 -8 -29.5 -13q-16.5 -5 -42.5 -5q-19 0 -38.5 5.5q-19.5 5.5 -35 17.5q-15.5 12 -25 30.5q-9.5 18.5 -9.5 44.5q0 22 9 40q9 18 24 32.5q15 14.5 34 25.5q19 11 40 17l0 73q-25 -37 -73.5 -65q-48.5 -28 -122.5 -28q-42 0 -76.5 11q-34.5 11 -59.5 31q-25 20 -38.5 49q-13.5 29 -13.5 64q0 83 67 120.5q67 37.5 186 37.5q15 0 33.5 -1.5q18.5 -1.5 37 -3.5q18.5 -2 34.5 -5q16 -3 26 -6q0 95 -37 138q-37 43 -118 43q-53 0 -85.5 -18q-32.5 -18 -49.5 -56l-68 0q17 65 71.5 100.5q54.5 35.5 137.5 35.5q103 0 158.5 -54q55.5 -54 55.5 -156v-323h-6q-14 0 -31.5 -6.5q-17.5 -6.5 -32.5 -18.5q-15 -12 -25 -28.5q-10 -16.5 -10 -36.5q0 -23 14 -38.5q14 -15.5 34 -15.5q9 0 21 1.5q12 1.5 25 7.5zM233 53q37 0 66.5 12q29.5 12 52 29.5q22.5 17.5 37.5 37.5q15 20 22 37l0 62q-23 7 -55 11.5q-32 4.5 -67 4.5q-90 0 -142 -20.5q-52 -20.5 -52 -74.5q0 -47 39 -73t99 -26z" />
<glyph unicode="&#262;" horiz-adv-x="715" d="M394 -9q-78 0 -143.5 26.5q-65.5 26.5 -112.5 74q-47 47.5 -73.5 113q-26.5 65.5 -26.5 144.5q0 79 26 145q26 66 73 114q47 48 111 74.5q64 26.5 141 26.5q103 0 178 -47q75 -47 109 -132l-72 0q-32 54 -89 83q-57 29 -129 29q-62 0 -112.5 -21q-50.5 -21 -86.5 -59.5q-36 -38.5 -56 -92q-20 -53.5 -20 -118.5q0 -66 21 -120q21 -54 58.5 -92.5q37.5 -38.5 90.5 -59.5q53 -21 118 -21q150 0 211 118l72 0q-33 -89 -107.5 -137q-74.5 -48 -180.5 -48zt0 0zM343 762l-23 42l183 107l28 -58z" />
<glyph unicode="&#263;" horiz-adv-x="555" d="M300 -10q-58 0 -107 20q-49 20 -84 56q-35 36 -55 85.5q-20 49.5 -20 108.5q0 60 20 110q20 50 56 86q36 36 86 56.5q50 20.5 109 20.5q79 0 136 -35.5q57 -35.5 81 -100.5l-68 0q-23 35 -62.5 54.5q-39.5 19.5 -89.5 19.5q-44 0 -81 -15q-37 -15 -63 -43q-26 -28 -40.5 -66.5q-14.5 -38.5 -14.5 -85.5q0 -47 14.5 -85.5q14.5 -38.5 41 -66q26.5 -27.5 64 -42.5q37.5 -15 82.5 -15q54 0 94 21q40 21 60 59l68 0q-22 -66 -83 -104q-61 -38 -144 -38zt0 0zM297 614l-42 30l110 155l50 -37z" />
<glyph unicode="&#264;" horiz-adv-x="715" d="M394 -9q-78 0 -143.5 26.5q-65.5 26.5 -112.5 74q-47 47.5 -73.5 113q-26.5 65.5 -26.5 144.5q0 79 26 145q26 66 73 114q47 48 111 74.5q64 26.5 141 26.5q103 0 178 -47q75 -47 109 -132l-72 0q-32 54 -89 83q-57 29 -129 29q-62 0 -112.5 -21q-50.5 -21 -86.5 -59.5q-36 -38.5 -56 -92q-20 -53.5 -20 -118.5q0 -66 21 -120q21 -54 58.5 -92.5q37.5 -38.5 90.5 -59.5q53 -21 118 -21q150 0 211 118l72 0q-33 -89 -107.5 -137q-74.5 -48 -180.5 -48zt0 0zM561 802l-30 -43l-155 83l-153 -83l-23 43l174 103l4 0z" />
<glyph unicode="&#265;" horiz-adv-x="555" d="M300 -10q-58 0 -107 20q-49 20 -84 56q-35 36 -55 85.5q-20 49.5 -20 108.5q0 60 20 110q20 50 56 86q36 36 86 56.5q50 20.5 109 20.5q79 0 136 -35.5q57 -35.5 81 -100.5l-68 0q-23 35 -62.5 54.5q-39.5 19.5 -89.5 19.5q-44 0 -81 -15q-37 -15 -63 -43q-26 -28 -40.5 -66.5q-14.5 -38.5 -14.5 -85.5q0 -47 14.5 -85.5q14.5 -38.5 41 -66q26.5 -27.5 64 -42.5q37.5 -15 82.5 -15q54 0 94 21q40 21 60 59l68 0q-22 -66 -83 -104q-61 -38 -144 -38zt0 0zM438 658l-36 -42l-109 97l-114 -94l-29 40l141 122l4 0z" />
<glyph unicode="&#266;" horiz-adv-x="715" d="M394 -9q-78 0 -143.5 26.5q-65.5 26.5 -112.5 74q-47 47.5 -73.5 113q-26.5 65.5 -26.5 144.5q0 79 26 145q26 66 73 114q47 48 111 74.5q64 26.5 141 26.5q103 0 178 -47q75 -47 109 -132l-72 0q-32 54 -89 83q-57 29 -129 29q-62 0 -112.5 -21q-50.5 -21 -86.5 -59.5q-36 -38.5 -56 -92q-20 -53.5 -20 -118.5q0 -66 21 -120q21 -54 58.5 -92.5q37.5 -38.5 90.5 -59.5q53 -21 118 -21q150 0 211 118l72 0q-33 -89 -107.5 -137q-74.5 -48 -180.5 -48zt0 0zM334 826q0 18 13 30q13 12 31 12q17 0 30.5 -12q13.5 -12 13.5 -30q0 -20 -13.5 -32.5q-13.5 -12.5 -30.5 -12.5q-18 0 -31 12.5t-13 32.5z" />
<glyph unicode="&#267;" horiz-adv-x="555" d="M300 -10q-58 0 -107 20q-49 20 -84 56q-35 36 -55 85.5q-20 49.5 -20 108.5q0 60 20 110q20 50 56 86q36 36 86 56.5q50 20.5 109 20.5q79 0 136 -35.5q57 -35.5 81 -100.5l-68 0q-23 35 -62.5 54.5q-39.5 19.5 -89.5 19.5q-44 0 -81 -15q-37 -15 -63 -43q-26 -28 -40.5 -66.5q-14.5 -38.5 -14.5 -85.5q0 -47 14.5 -85.5q14.5 -38.5 41 -66q26.5 -27.5 64 -42.5q37.5 -15 82.5 -15q54 0 94 21q40 21 60 59l68 0q-22 -66 -83 -104q-61 -38 -144 -38zt0 0zM250 690q0 17 13.5 29q13.5 12 31.5 12q17 0 30 -12q13 -12 13 -29q0 -20 -13 -32.5q-13 -12.5 -30 -12.5q-19 0 -32 12.5t-13 32.5z" />
<glyph unicode="&#268;" horiz-adv-x="715" d="M394 -9q-78 0 -143.5 26.5q-65.5 26.5 -112.5 74q-47 47.5 -73.5 113q-26.5 65.5 -26.5 144.5q0 79 26 145q26 66 73 114q47 48 111 74.5q64 26.5 141 26.5q103 0 178 -47q75 -47 109 -132l-72 0q-32 54 -89 83q-57 29 -129 29q-62 0 -112.5 -21q-50.5 -21 -86.5 -59.5q-36 -38.5 -56 -92q-20 -53.5 -20 -118.5q0 -66 21 -120q21 -54 58.5 -92.5q37.5 -38.5 90.5 -59.5q53 -21 118 -21q150 0 211 118l72 0q-33 -89 -107.5 -137q-74.5 -48 -180.5 -48zt0 0zM193 862l29 43l155 -85l153 85l24 -42l-175 -103l-4 0z" />
<glyph unicode="&#269;" horiz-adv-x="555" d="M300 -10q-58 0 -107 20q-49 20 -84 56q-35 36 -55 85.5q-20 49.5 -20 108.5q0 60 20 110q20 50 56 86q36 36 86 56.5q50 20.5 109 20.5q79 0 136 -35.5q57 -35.5 81 -100.5l-68 0q-23 35 -62.5 54.5q-39.5 19.5 -89.5 19.5q-44 0 -81 -15q-37 -15 -63 -43q-26 -28 -40.5 -66.5q-14.5 -38.5 -14.5 -85.5q0 -47 14.5 -85.5q14.5 -38.5 41 -66q26.5 -27.5 64 -42.5q37.5 -15 82.5 -15q54 0 94 21q40 21 60 59l68 0q-22 -66 -83 -104q-61 -38 -144 -38zt0 0zM159 749l36 41l108 -96l115 94l29 -40l-141 -123l-4 0z" />
<glyph unicode="&#270;" horiz-adv-x="710" d="M77 700h214q105 0 177.5 -27.5q72.5 -27.5 117.5 -74q45 -46.5 65.5 -108.5q20.5 -62 20.5 -130q0 -75 -23.5 -140.5q-23.5 -65.5 -71.5 -114.5q-48 -49 -121.5 -77q-73.5 -28 -173.5 -28h-205zM148 634v-568h138q82 0 141.5 22.5q59.5 22.5 97.5 61.5q38 39 56 93q18 54 18 117q0 58 -16.5 108q-16.5 50 -53.5 87q-37 37 -96 58q-59 21 -144 21zM115 862l29 43l155 -85l153 85l24 -42l-175 -103l-4 0z" />
<glyph unicode="&#271;" horiz-adv-x="606" d="M465 69q-7 -12 -21.5 -25.5q-14.5 -13.5 -36 -25.5q-21.5 -12 -50 -19.5q-28.5 -7.5 -63.5 -7.5q-58 0 -105.5 18.5q-47.5 18.5 -82 53.5q-34.5 35 -53.5 84.5q-19 49.5 -19 111.5q0 61 21 111.5q21 50.5 57 86.5q36 36 84.5 56q48.5 20 104.5 20q57 0 97.5 -16q40.5 -16 66.5 -43l0 256h65v-730h-65zM300 53q34 0 61.5 11.5q27.5 11.5 48 29q20.5 17.5 34.5 37q14 19.5 21 34.5l0 223q-54 83 -162 83q-40 0 -76 -15q-36 -15 -63.5 -42.5q-27.5 -27.5 -44 -66q-16.5 -38.5 -16.5 -86.5q0 -48 14.5 -86.5q14.5 -38.5 41 -65.5q26.5 -27 62.5 -41.5q36 -14.5 79 -14.5zt0 0zM677 730q5 -11 8 -25q3 -14 3 -37q0 -24 -8 -46q-8 -22 -20 -40q-12 -18 -27 -32.5q-15 -14.5 -30 -23.5l-29 28q12 9 22 21.5q10 12.5 17 27q7 14.5 11 29.5q4 15 4 27q0 22 -5 42q-5 20 -12 29z" />
<glyph unicode="&#272;" horiz-adv-x="765" d="M8 377h125v323h213q105 0 177.5 -27.5q72.5 -27.5 118 -74q45.5 -46.5 65.5 -108.5q20 -62 20 -130q0 -75 -23.5 -140.5q-23.5 -65.5 -71.5 -114.5q-48 -49 -121.5 -77q-73.5 -28 -173.5 -28h-204v317h-125zM204 634v-257h198v-60h-198v-251h137q82 0 141.5 22.5q59.5 22.5 97.5 61.5q38 39 56 93q18 54 18 117q0 58 -16.5 108q-16.5 50 -53.5 87q-37 37 -96 58q-59 21 -144 21z" />
<glyph unicode="&#273;" horiz-adv-x="596" d="M355 652h110v78h65v-78h65v-61h-65v-591h-65v69q-7 -12 -21.5 -25.5q-14.5 -13.5 -36 -25.5q-21.5 -12 -50 -19.5q-28.5 -7.5 -63.5 -7.5q-58 0 -105.5 18.5q-47.5 18.5 -82 53.5q-34.5 35 -53.5 84.5q-19 49.5 -19 111.5q0 61 21 111.5q21 50.5 57 86.5q36 36 84.5 56q48.5 20 104.5 20q57 0 97.5 -16q40.5 -16 66.5 -43l0 117h-110zM300 53q34 0 61.5 11.5q27.5 11.5 48 29q20.5 17.5 34.5 37q14 19.5 21 34.5l0 223q-54 83 -162 83q-40 0 -76 -15q-36 -15 -63.5 -42.5q-27.5 -27.5 -44 -66q-16.5 -38.5 -16.5 -86.5q0 -48 14.5 -86.5q14.5 -38.5 41 -65.5q26.5 -27 62.5 -41.5t79 -14.5z" />
<glyph unicode="&#274;" horiz-adv-x="638" d="M77 700h499v-66h-428v-245h400v-66h-400v-257h438v-66h-509zM178 853h297v-58l-297 0z" />
<glyph unicode="&#275;" horiz-adv-x="570" d="M517 99q-35 -55 -89.5 -82q-54.5 -27 -117.5 -27q-62 0 -113 19q-51 19 -87 54.5q-36 35.5 -56 85.5q-20 50 -20 112q0 57 17 107q17 50 50.5 86.5q33.5 36.5 82.5 57.5q49 21 113 21q51 0 95 -17q44 -17 76 -47.5q32 -30.5 50 -74q18 -43.5 18 -97.5q0 -14 -1 -28q-1 -14 -3 -28l-429 0q1 -45 17 -80q16 -35 44 -59.5q28 -24.5 66 -37q38 -12.5 83 -12.5q25 0 49 7q24 7 44.5 18.5q20.5 11.5 37.5 27q17 15.5 29 33.5zM292 472q-42 0 -75 -13q-33 -13 -57.5 -36q-24.5 -23 -39 -54q-14.5 -31 -18.5 -68l364 0q-2 81 -48.5 126q-46.5 45 -125.5 45zt0 0zM163 706h261v-59l-261 0z" />
<glyph unicode="&#278;" horiz-adv-x="638" d="M77 700h499v-66h-428v-245h400v-66h-400v-257h438v-66h-509zM284 826q0 18 13 30q13 12 31 12q17 0 30.5 -12q13.5 -12 13.5 -30q0 -20 -13.5 -32.5q-13.5 -12.5 -30.5 -12.5q-18 0 -31 12.5t-13 32.5z" />
<glyph unicode="&#279;" horiz-adv-x="570" d="M517 99q-35 -55 -89.5 -82q-54.5 -27 -117.5 -27q-62 0 -113 19q-51 19 -87 54.5q-36 35.5 -56 85.5q-20 50 -20 112q0 57 17 107q17 50 50.5 86.5q33.5 36.5 82.5 57.5q49 21 113 21q51 0 95 -17q44 -17 76 -47.5q32 -30.5 50 -74q18 -43.5 18 -97.5q0 -14 -1 -28q-1 -14 -3 -28l-429 0q1 -45 17 -80q16 -35 44 -59.5q28 -24.5 66 -37q38 -12.5 83 -12.5q25 0 49 7q24 7 44.5 18.5q20.5 11.5 37.5 27q17 15.5 29 33.5zM292 472q-42 0 -75 -13q-33 -13 -57.5 -36q-24.5 -23 -39 -54q-14.5 -31 -18.5 -68l364 0q-2 81 -48.5 126q-46.5 45 -125.5 45zt0 0zM250 690q0 17 13.5 29q13.5 12 31.5 12q17 0 30 -12q13 -12 13 -29q0 -20 -13 -32.5q-13 -12.5 -30 -12.5q-19 0 -32 12.5t-13 32.5z" />
<glyph unicode="&#280;" horiz-adv-x="638" d="M77 700h499v-66h-428v-245h400v-66h-400v-257h438v-66h-13q-20 -1 -40.5 -9q-20.5 -8 -37.5 -20.5q-17 -12.5 -27.5 -29q-10.5 -16.5 -10.5 -35.5q0 -16 5.5 -26.5q5.5 -10.5 15 -16.5q9.5 -6 21 -8.5q11.5 -2.5 23.5 -2.5q28 0 54 9l11 -46q-13 -7 -31.5 -11q-18.5 -4 -42.5 -4q-20 -1 -40 4q-20 5 -36.5 16q-16.5 11 -27 28.5q-10.5 17.5 -10.5 42.5q0 36 22 64q22 28 60 45l-404 0z" />
<glyph unicode="&#281;" horiz-adv-x="570" d="M517 99q-38 -59 -99 -87q-15 -11 -29.5 -22.5q-14.5 -11.5 -26 -24q-11.5 -12.5 -18.5 -26.5q-7 -14 -7 -29q0 -23 14 -38.5q14 -15.5 34 -15.5q9 0 21 1.5q12 1.5 25 7.5l19 -47q-13 -8 -29.5 -13q-16.5 -5 -42.5 -5q-19 0 -38.5 5.5q-19.5 5.5 -35 16.5q-15.5 11 -25 27q-9.5 16 -9.5 38q0 35 20.5 60q20.5 25 49.5 45q-8 -1 -15 -1.5q-7 -0.5 -15 -0.5q-62 0 -113 19q-51 19 -87 54.5q-36 35.5 -56 85.5q-20 50 -20 112q0 57 17 107q17 50 50.5 86.5q33.5 36.5 82.5 57.5q49 21 113 21q51 0 95 -17q44 -17 76 -47.5q32 -30.5 50 -74q18 -43.5 18 -97.5q0 -14 -1 -28q-1 -14 -3 -28l-429 0q1 -45 17 -80q16 -35 44 -59.5q28 -24.5 66 -37q38 -12.5 83 -12.5q25 0 49 7q24 7 44.5 18.5q20.5 11.5 37.5 27q17 15.5 29 33.5zM292 472q-42 0 -75 -13q-33 -13 -57.5 -36q-24.5 -23 -39 -54q-14.5 -31 -18.5 -68l364 0q-2 81 -48.5 126t-125.5 45z" />
<glyph unicode="&#282;" horiz-adv-x="638" d="M77 700h499v-66h-428v-245h400v-66h-400v-257h438v-66h-509zM153 862l29 43l155 -85l153 85l24 -42l-175 -103l-4 0z" />
<glyph unicode="&#283;" horiz-adv-x="570" d="M517 99q-35 -55 -89.5 -82q-54.5 -27 -117.5 -27q-62 0 -113 19q-51 19 -87 54.5q-36 35.5 -56 85.5q-20 50 -20 112q0 57 17 107q17 50 50.5 86.5q33.5 36.5 82.5 57.5q49 21 113 21q51 0 95 -17q44 -17 76 -47.5q32 -30.5 50 -74q18 -43.5 18 -97.5q0 -14 -1 -28q-1 -14 -3 -28l-429 0q1 -45 17 -80q16 -35 44 -59.5q28 -24.5 66 -37q38 -12.5 83 -12.5q25 0 49 7q24 7 44.5 18.5q20.5 11.5 37.5 27q17 15.5 29 33.5zM292 472q-42 0 -75 -13q-33 -13 -57.5 -36q-24.5 -23 -39 -54q-14.5 -31 -18.5 -68l364 0q-2 81 -48.5 126q-46.5 45 -125.5 45zt0 0zM141 749l36 41l108 -96l115 94l29 -40l-141 -123l-4 0z" />
<glyph unicode="&#284;" horiz-adv-x="713" d="M394 -9q-78 0 -143 26.5q-65 26.5 -112.5 74q-47.5 47.5 -74 113.5q-26.5 66 -26.5 144q0 78 26 144q26 66 73 114q47 48 111 75q64 27 141 27q103 0 178.5 -47q75.5 -47 107.5 -132l-72 0q-33 54 -89 83q-56 29 -128 29q-62 0 -112.5 -21q-50.5 -21 -86.5 -59.5q-36 -38.5 -56 -92q-20 -53.5 -20 -118.5q0 -66 20.5 -120q20.5 -54 58.5 -93q38 -39 91 -60q53 -21 118 -21q125 0 209 87l0 145h-201v66h268v-232q-48 -63 -120.5 -97.5q-72.5 -34.5 -160.5 -34.5zt0 0zM561 802l-30 -43l-155 83l-153 -83l-23 43l174 103l4 0z" />
<glyph unicode="&#285;" horiz-adv-x="595" d="M530 38q0 -66 -18 -113q-18 -47 -49.5 -76.5q-31.5 -29.5 -75 -43.5q-43.5 -14 -94.5 -14q-38 0 -73.5 8.5q-35.5 8.5 -64.5 24.5q-29 16 -50 38.5q-21 22.5 -31 49.5l58 27q8 -16 22 -31.5q14 -15.5 34.5 -27.5q20.5 -12 47.5 -19.5q27 -7.5 61 -7.5q83 0 125.5 47q42.5 47 42.5 128v37q-12 -16 -27 -29.5q-15 -13.5 -34.5 -23.5q-19.5 -10 -46 -16q-26.5 -6 -62.5 -6q-59 0 -107 19q-48 19 -82.5 54q-34.5 35 -53 85q-18.5 50 -18.5 113q0 63 20.5 113q20.5 50 55.5 85q35 35 83 54q48 19 104 19q62 0 106 -20.5q44 -20.5 62 -44.5l0 53h65zM305 52q31 0 57.5 9.5q26.5 9.5 47 25q20.5 15.5 34.5 35.5q14 20 21 41l0 221q-20 36 -61 61q-41 25 -100 25q-41 0 -77 -13.5q-36 -13.5 -63.5 -40.5q-27.5 -27 -43.5 -66.5q-16 -39.5 -16 -90.5q0 -48 14.5 -86.5q14.5 -38.5 40.5 -65q26 -26.5 63.5 -41q37.5 -14.5 82.5 -14.5zt0 0zM444 658l-36 -42l-109 97l-114 -94l-29 40l141 122l4 0z" />
<glyph unicode="&#286;" horiz-adv-x="713" d="M394 -9q-78 0 -143 26.5q-65 26.5 -112.5 74q-47.5 47.5 -74 113.5q-26.5 66 -26.5 144q0 78 26 144q26 66 73 114q47 48 111 75q64 27 141 27q103 0 178.5 -47q75.5 -47 107.5 -132l-72 0q-33 54 -89 83q-56 29 -128 29q-62 0 -112.5 -21q-50.5 -21 -86.5 -59.5q-36 -38.5 -56 -92q-20 -53.5 -20 -118.5q0 -66 20.5 -120q20.5 -54 58.5 -93q38 -39 91 -60q53 -21 118 -21q125 0 209 87l0 145h-201v66h268v-232q-48 -63 -120.5 -97.5q-72.5 -34.5 -160.5 -34.5zt0 0zM241 900q8 -9 20.5 -20q12.5 -11 30.5 -20.5q18 -9.5 40.5 -16q22.5 -6.5 51.5 -6.5q50 0 85 19q35 19 55 44l31 -29q-12 -19 -30 -36q-18 -17 -40 -30q-22 -13 -48 -20.5q-26 -7.5 -53 -7.5q-35 0 -63.5 8.5q-28.5 8.5 -50 22q-21.5 13.5 -37.5 29.5q-16 16 -26 31z" />
<glyph unicode="&#287;" horiz-adv-x="595" d="M530 38q0 -66 -18 -113q-18 -47 -49.5 -76.5q-31.5 -29.5 -75 -43.5q-43.5 -14 -94.5 -14q-38 0 -73.5 8.5q-35.5 8.5 -64.5 24.5q-29 16 -50 38.5q-21 22.5 -31 49.5l58 27q8 -16 22 -31.5q14 -15.5 34.5 -27.5q20.5 -12 47.5 -19.5q27 -7.5 61 -7.5q83 0 125.5 47q42.5 47 42.5 128v37q-12 -16 -27 -29.5q-15 -13.5 -34.5 -23.5q-19.5 -10 -46 -16q-26.5 -6 -62.5 -6q-59 0 -107 19q-48 19 -82.5 54q-34.5 35 -53 85q-18.5 50 -18.5 113q0 63 20.5 113q20.5 50 55.5 85q35 35 83 54q48 19 104 19q62 0 106 -20.5q44 -20.5 62 -44.5l0 53h65zM305 52q31 0 57.5 9.5q26.5 9.5 47 25q20.5 15.5 34.5 35.5q14 20 21 41l0 221q-20 36 -61 61q-41 25 -100 25q-41 0 -77 -13.5q-36 -13.5 -63.5 -40.5q-27.5 -27 -43.5 -66.5q-16 -39.5 -16 -90.5q0 -48 14.5 -86.5q14.5 -38.5 40.5 -65q26 -26.5 63.5 -41q37.5 -14.5 82.5 -14.5zt0 0zM179 764q7 -9 20 -19.5q13 -10.5 29.5 -19.5q16.5 -9 35 -14.5q18.5 -5.5 37.5 -5.5q42 0 72 16.5q30 16.5 50 41.5l24 -30q-12 -17 -27 -33.5q-15 -16.5 -33.5 -29q-18.5 -12.5 -40 -20q-21.5 -7.5 -46.5 -7.5q-29 0 -53.5 10.5q-24.5 10.5 -44 25q-19.5 14.5 -33 29.5q-13.5 15 -19.5 25z" />
<glyph unicode="&#288;" horiz-adv-x="713" d="M394 -9q-78 0 -143 26.5q-65 26.5 -112.5 74q-47.5 47.5 -74 113.5q-26.5 66 -26.5 144q0 78 26 144q26 66 73 114q47 48 111 75q64 27 141 27q103 0 178.5 -47q75.5 -47 107.5 -132l-72 0q-33 54 -89 83q-56 29 -128 29q-62 0 -112.5 -21q-50.5 -21 -86.5 -59.5q-36 -38.5 -56 -92q-20 -53.5 -20 -118.5q0 -66 20.5 -120q20.5 -54 58.5 -93q38 -39 91 -60q53 -21 118 -21q125 0 209 87l0 145h-201v66h268v-232q-48 -63 -120.5 -97.5q-72.5 -34.5 -160.5 -34.5zt0 0zM342 826q0 18 13 30q13 12 31 12q17 0 30.5 -12q13.5 -12 13.5 -30q0 -20 -13.5 -32.5q-13.5 -12.5 -30.5 -12.5q-18 0 -31 12.5t-13 32.5z" />
<glyph unicode="&#289;" horiz-adv-x="595" d="M530 38q0 -66 -18 -113q-18 -47 -49.5 -76.5q-31.5 -29.5 -75 -43.5q-43.5 -14 -94.5 -14q-38 0 -73.5 8.5q-35.5 8.5 -64.5 24.5q-29 16 -50 38.5q-21 22.5 -31 49.5l58 27q8 -16 22 -31.5q14 -15.5 34.5 -27.5q20.5 -12 47.5 -19.5q27 -7.5 61 -7.5q83 0 125.5 47q42.5 47 42.5 128v37q-12 -16 -27 -29.5q-15 -13.5 -34.5 -23.5q-19.5 -10 -46 -16q-26.5 -6 -62.5 -6q-59 0 -107 19q-48 19 -82.5 54q-34.5 35 -53 85q-18.5 50 -18.5 113q0 63 20.5 113q20.5 50 55.5 85q35 35 83 54q48 19 104 19q62 0 106 -20.5q44 -20.5 62 -44.5l0 53h65zM305 52q31 0 57.5 9.5q26.5 9.5 47 25q20.5 15.5 34.5 35.5q14 20 21 41l0 221q-20 36 -61 61q-41 25 -100 25q-41 0 -77 -13.5q-36 -13.5 -63.5 -40.5q-27.5 -27 -43.5 -66.5q-16 -39.5 -16 -90.5q0 -48 14.5 -86.5q14.5 -38.5 40.5 -65q26 -26.5 63.5 -41q37.5 -14.5 82.5 -14.5zt0 0zM264 690q0 17 13.5 29q13.5 12 31.5 12q17 0 30 -12q13 -12 13 -29q0 -20 -13 -32.5q-13 -12.5 -30 -12.5q-19 0 -32 12.5t-13 32.5z" />
<glyph unicode="&#290;" horiz-adv-x="713" d="M394 -9q-78 0 -143 26.5q-65 26.5 -112.5 74q-47.5 47.5 -74 113.5q-26.5 66 -26.5 144q0 78 26 144q26 66 73 114q47 48 111 75q64 27 141 27q103 0 178.5 -47q75.5 -47 107.5 -132l-72 0q-33 54 -89 83q-56 29 -128 29q-62 0 -112.5 -21q-50.5 -21 -86.5 -59.5q-36 -38.5 -56 -92q-20 -53.5 -20 -118.5q0 -66 20.5 -120q20.5 -54 58.5 -93q38 -39 91 -60q53 -21 118 -21q125 0 209 87l0 145h-201v66h268v-232q-48 -63 -120.5 -97.5q-72.5 -34.5 -160.5 -34.5zt0 0zM428 -49q13 -12 24 -31.5q11 -19.5 11 -43.5q0 -23 -7 -43q-7 -20 -18 -36.5q-11 -16.5 -24 -28.5q-13 -12 -25 -19l-30 27q17 16 29 37q12 21 12 46q0 20 -7 32q-7 12 -19 23z" />
<glyph unicode="&#291;" horiz-adv-x="595" d="M288 599q-13 12 -24 31q-11 19 -11 44q0 23 7 43q7 20 18 36.5q11 16.5 24 28.5q13 12 25 19l30 -28q-17 -15 -29 -36.5q-12 -21.5 -12 -45.5q0 -20 7 -32q7 -12 19 -24zM530 38q0 -66 -18 -113q-18 -47 -48.5 -76.5q-30.5 -29.5 -72 -43.5q-41.5 -14 -88.5 -14q-42 0 -79 8.5q-37 8.5 -67 24.5q-30 16 -51.5 38.5q-21.5 22.5 -31.5 49.5l58 27q8 -16 22 -31.5q14 -15.5 35 -27.5q21 -12 48.5 -19.5q27.5 -7.5 62.5 -7.5q81 0 123 47q42 47 42 128v37q-12 -16 -27 -29.5q-15 -13.5 -34.5 -23.5q-19.5 -10 -46 -16q-26.5 -6 -62.5 -6q-59 0 -107 19q-48 19 -82.5 54q-34.5 35 -53 85q-18.5 50 -18.5 113q0 63 20.5 113q20.5 50 55.5 85q35 35 83 54q48 19 104 19q62 0 106 -20.5q44 -20.5 62 -44.5l0 53h65zM305 52q31 0 57.5 9.5q26.5 9.5 47 25q20.5 15.5 34.5 35.5q14 20 21 41l0 221q-20 36 -61 61q-41 25 -100 25q-41 0 -77 -13.5q-36 -13.5 -63.5 -40.5q-27.5 -27 -43.5 -66.5q-16 -39.5 -16 -90.5q0 -48 14.5 -86.5q14.5 -38.5 40.5 -65q26 -26.5 63.5 -41t82.5 -14.5z" />
<glyph unicode="&#292;" horiz-adv-x="746" d="M598 323h-450v-323h-71v700h71v-311h450v311h71v-700h-71zM553 802l-30 -43l-155 83l-153 -83l-23 43l174 103l4 0z" />
<glyph unicode="&#293;" horiz-adv-x="591" d="M66 730h65v-283q28 38 73.5 61.5q45.5 23.5 109.5 23.5q107 0 163 -56.5q56 -56.5 56 -179.5v-296h-65v288q0 182 -168 182q-63 0 -106 -36q-43 -36 -63 -87l0 -347h-65zM289 776l-30 -43l-155 83l-153 -83l-23 43l174 103l4 0z" />
<glyph unicode="&#294;" horiz-adv-x="746" d="M0 578h77v122h71v-122h450v122h71v-122h77v-59h-77v-519h-71v323h-450v-323h-71v519h-77zM598 389v130h-450l0 -130z" />
<glyph unicode="&#295;" horiz-adv-x="591" d="M0 652h66v78h65v-78h109v-61h-109v-144q28 38 73.5 61.5q45.5 23.5 109.5 23.5q107 0 163 -56.5q56 -56.5 56 -179.5v-296h-65v288q0 182 -168 182q-63 0 -106 -36q-43 -36 -63 -87l0 -347h-65v591l-66 0z" />
<glyph unicode="&#298;" horiz-adv-x="245" d="M87 700h71v-700h-71zM-27 853h297v-58l-297 0z" />
<glyph unicode="&#299;" horiz-adv-x="238" d="M86 520h65v-520h-65zM-11 706h261v-59l-261 0z" />
<glyph unicode="&#302;" horiz-adv-x="245" d="M160 -185q-13 -7 -31.5 -11q-18.5 -4 -42.5 -4q-20 -1 -40 4q-20 5 -36.5 16q-16.5 11 -27 28.5q-10.5 17.5 -10.5 42.5q0 44 31.5 75q31.5 31 83.5 45l0 689h71v-700h-4q-20 0 -42 -7q-22 -7 -40 -20q-18 -13 -30 -30.5q-12 -17.5 -12 -36.5q0 -16 5.5 -26.5q5.5 -10.5 15 -16.5q9.5 -6 21 -8.5q11.5 -2.5 23.5 -2.5q28 0 54 9z" />
<glyph unicode="&#303;" horiz-adv-x="238" d="M162 -182q-13 -8 -29.5 -13q-16.5 -5 -42.5 -5q-19 0 -38.5 5.5q-19.5 5.5 -35 17.5q-15.5 12 -25 30.5q-9.5 18.5 -9.5 44.5q0 21 8.5 39.5q8.5 18.5 23 32.5q14.5 14 33.5 25q19 11 39 17l0 508h65v-520h-6q-14 -1 -31 -7.5q-17 -6.5 -31.5 -18.5q-14.5 -12 -24 -28.5q-9.5 -16.5 -9.5 -35.5q0 -23 14 -38.5q14 -15.5 34 -15.5q9 0 21 1.5q12 1.5 25 7.5zM75 686q0 18 13.5 30q13.5 12 31.5 12q17 0 30 -12q13 -12 13 -30q0 -20 -13 -32.5q-13 -12.5 -30 -12.5q-19 0 -32 12.5t-13 32.5z" />
<glyph unicode="&#304;" horiz-adv-x="245" d="M87 700h71v-700h-71zM78 826q0 18 13 30q13 12 31 12q17 0 30.5 -12q13.5 -12 13.5 -30q0 -20 -13.5 -32.5q-13.5 -12.5 -30.5 -12.5q-18 0 -31 12.5t-13 32.5z" />
<glyph unicode="&#305;" horiz-adv-x="238" d="M86 520h65v-520l-65 0z" />
<glyph unicode="&#308;" horiz-adv-x="485" d="M409 208q0 -53 -15 -93.5q-15 -40.5 -42.5 -68q-27.5 -27.5 -65.5 -41.5q-38 -14 -84 -14q-41 0 -74 11.5q-33 11.5 -58.5 29.5q-25.5 18 -43.5 40.5q-18 22.5 -28 43.5l54 40q10 -20 25 -38q15 -18 33.5 -31.5q18.5 -13.5 40.5 -22q22 -8.5 47 -8.5q32 1 58 9.5q26 8.5 44 28q18 19.5 28 50.5q10 31 10 76v480h71zM546 802l-30 -43l-155 83l-153 -83l-23 43l174 103l4 0z" />
<glyph unicode="&#309;" horiz-adv-x="240" d="M155 -5q0 -97 -37.5 -150.5q-37.5 -53.5 -117.5 -53.5q-46 0 -82 19q-36 19 -53 51l52 34q6 -7 12.5 -14.5q6.5 -7.5 15.5 -13.5q9 -6 22 -10q13 -4 31 -4q45 0 68.5 38q23.5 38 23.5 107v522h65zM264 658l-36 -42l-109 97l-114 -94l-29 40l141 122l4 0z" />
<glyph unicode="&#310;" horiz-adv-x="650" d="M77 700h71v-358l381 358h93l-339 -319l365 -381h-97l-319 334l-84 -77v-257h-71zM331 -49q13 -12 24 -31.5q11 -19.5 11 -43.5q0 -23 -7 -43q-7 -20 -18 -36.5q-11 -16.5 -24 -28.5q-13 -12 -25 -19l-30 27q17 16 29 37q12 21 12 46q0 20 -7 32q-7 12 -19 23z" />
<glyph unicode="&#311;" horiz-adv-x="521" d="M66 730h65v-459l280 249h89l-259 -232l279 -288h-87l-244 246l-58 -47v-199h-65zM266 -49q12 -12 23.5 -31.5q11.5 -19.5 11.5 -43.5q0 -23 -7 -43q-7 -20 -18 -36.5q-11 -16.5 -24 -28.5q-13 -12 -25 -19l-30 27q17 16 29 37q12 21 12 46q0 20 -7 32q-7 12 -19 23z" />
<glyph unicode="&#313;" horiz-adv-x="584" d="M77 700h71v-634h426v-66h-497zM255 762l-23 42l183 107l28 -58z" />
<glyph unicode="&#314;" horiz-adv-x="197" d="M66 730h65v-730h-65zM86 762l-23 42l183 107l28 -58z" />
<glyph unicode="&#315;" horiz-adv-x="584" d="M77 700h71v-634h426v-66h-497zM333 -49q13 -12 24 -31.5q11 -19.5 11 -43.5q0 -23 -7 -43q-7 -20 -18 -36.5q-11 -16.5 -24 -28.5q-13 -12 -25 -19l-30 27q17 16 29 37q12 21 12 46q0 20 -7 32q-7 12 -19 23z" />
<glyph unicode="&#316;" horiz-adv-x="197" d="M66 730h65v-730h-65zM116 -49q12 -12 23.5 -31.5q11.5 -19.5 11.5 -43.5q0 -23 -7 -43q-7 -20 -18 -36.5q-11 -16.5 -24 -28.5q-13 -12 -25 -19l-30 27q17 16 29 37q12 21 12 46q0 20 -7 32q-7 12 -19 23z" />
<glyph unicode="&#317;" horiz-adv-x="584" d="M77 700h71v-634h426v-66h-497zM455 700q5 -11 8 -25q3 -14 3 -37q0 -24 -8 -46q-8 -22 -20 -40q-12 -18 -27 -32.5q-15 -14.5 -30 -23.5l-29 28q12 9 22 21.5q10 12.5 17 27q7 14.5 11 29.5q4 15 4 27q0 22 -5 42q-5 20 -12 29z" />
<glyph unicode="&#318;" horiz-adv-x="213" d="M66 730h65v-730h-65zM275 730q5 -11 8 -25q3 -14 3 -37q0 -24 -8 -46q-8 -22 -20 -40q-12 -18 -27 -32.5q-15 -14.5 -30 -23.5l-29 28q12 9 22 21.5q10 12.5 17 27q7 14.5 11 29.5q4 15 4 27q0 22 -5 42q-5 20 -12 29z" />
<glyph unicode="&#319;" horiz-adv-x="584" d="M77 700h71v-634h426v-66h-497zM356 375q0 15 13 28.5q13 13.5 33 13.5q19 0 31.5 -13.5q12.5 -13.5 12.5 -28.5q0 -17 -12.5 -30.5q-12.5 -13.5 -31.5 -13.5q-20 0 -33 13.5t-13 30.5z" />
<glyph unicode="&#320;" horiz-adv-x="269" d="M66 730h65v-730h-65zM193 362q0 15 13 28.5q13 13.5 33 13.5q19 0 31.5 -13.5q12.5 -13.5 12.5 -28.5q0 -17 -12.5 -30.5q-12.5 -13.5 -31.5 -13.5q-20 0 -33 13.5t-13 30.5z" />
<glyph unicode="&#321;" horiz-adv-x="590" d="M0 229l84 62v409h71v-357l209 155v-74l-209 -155v-203h426v-66h-497v217l-84 -62z" />
</font>
</defs>
</svg>
