<svg xmlns="http://www.w3.org/2000/svg" width="40" height="16"><g fill="none" fill-rule="evenodd"><path fill="#111214" d="M2.564 0h34.872c.892 0 1.215.093 1.54.267.327.174.583.43.757.756.174.326.267.65.267 1.54v10.873c0 .892-.093 1.215-.267 1.54a1.81 1.81 0 01-.756.757c-.326.174-.65.267-1.54.267H2.563c-.892 0-1.215-.093-1.54-.267a1.817 1.817 0 01-.757-.756C.093 14.65 0 14.327 0 13.437V2.563c0-.892.093-1.215.267-1.54a1.81 1.81 0 01.756-.757C1.35.093 1.673 0 2.563 0z"/><path fill="#FFF" fill-rule="nonzero" d="M15.614 3.999L13.248 12h-1.44l-1.703-4.846L8.447 12h-1.44L4.515 3.999h1.83l1.462 4.823L9.407 4h1.418l1.634 4.79L13.854 4h1.76zM16.957 12V3.999h1.646l2.56 3.829 2.435-3.829h1.6V12h-1.772V7.2l-2.08 3.188h-.469l-2.149-3.223V12h-1.771zm18.042-8.001L31.421 12h-1.234l-3.76-8.001h1.954l2.435 5.304 2.274-5.304H35z"/></g></svg>