<?xml version="1.0" encoding="utf-8"?>
<!-- Generator: Adobe Illustrator 26.2.1, SVG Export Plug-In . SVG Version: 6.00 Build 0)  -->
<svg version="1.1" id="_x32_" xmlns="http://www.w3.org/2000/svg" xmlns:xlink="http://www.w3.org/1999/xlink" x="0px" y="0px"
	 viewBox="0 0 177.6 145" style="enable-background:new 0 0 177.6 145;" xml:space="preserve">
<style type="text/css">
	.st0{filter:url(#Adobe_OpacityMaskFilter);}
	.st1{filter:url(#Adobe_OpacityMaskFilter_00000025426140768902745980000008316538335158589090_);}
	.st2{mask:url(#SVGID_1_);fill:url(#SVGID_00000015318494004559149190000014037382404550464165_);}
	.st3{fill:url(#SVGID_00000024716973995575405060000016468659886173488818_);}
	.st4{fill:#C0C4EE;}
	.st5{fill:url(#SVGID_00000103958169224417929170000018361749130282998165_);}
	.st6{fill:#FFFFFF;}
	.st7{fill:url(#SVGID_00000075146837912730132560000006297374277441149103_);}
	.st8{opacity:0.2;}
	.st9{fill-rule:evenodd;clip-rule:evenodd;fill:#34485C;}
	.st10{fill-rule:evenodd;clip-rule:evenodd;fill:#3D566E;}
	.st11{fill-rule:evenodd;clip-rule:evenodd;fill:#9DD6F5;}
	.st12{fill-rule:evenodd;clip-rule:evenodd;fill:#2C3E50;}
	.st13{fill-rule:evenodd;clip-rule:evenodd;fill:#E6EAEB;}
	.st14{fill-rule:evenodd;clip-rule:evenodd;fill:#2980B9;}
	.st15{fill-rule:evenodd;clip-rule:evenodd;fill:#9B59B6;}
	.st16{fill-rule:evenodd;clip-rule:evenodd;fill:#FFCB05;}
	.st17{fill-rule:evenodd;clip-rule:evenodd;fill:#6699FF;}
	.st18{fill-rule:evenodd;clip-rule:evenodd;fill:#9C9C9C;}
	.st19{fill-rule:evenodd;clip-rule:evenodd;fill:#30383B;}
	.st20{fill-rule:evenodd;clip-rule:evenodd;fill:#222F3B;}
	.st21{fill-rule:evenodd;clip-rule:evenodd;fill:#293845;}
	.st22{fill-rule:evenodd;clip-rule:evenodd;fill:#40576E;}
	.st23{fill-rule:evenodd;clip-rule:evenodd;fill:#808080;}
	.st24{fill-rule:evenodd;clip-rule:evenodd;fill:#9EB4BA;}
	.st25{fill-rule:evenodd;clip-rule:evenodd;fill:#C5CCD1;}
</style>
<g>
	<defs>
		<filter id="Adobe_OpacityMaskFilter" filterUnits="userSpaceOnUse" x="77.2" y="53.7" width="99.8" height="90.4">
			<feFlood  style="flood-color:white;flood-opacity:1" result="back"/>
			<feBlend  in="SourceGraphic" in2="back" mode="normal"/>
		</filter>
	</defs>
	<mask maskUnits="userSpaceOnUse" x="77.2" y="53.7" width="99.8" height="90.4" id="SVGID_1_">
		<g class="st0">
			<defs>
				
					<filter id="Adobe_OpacityMaskFilter_00000044154898783413875810000007224188060326923395_" filterUnits="userSpaceOnUse" x="77.2" y="53.7" width="99.8" height="90.4">
					<feFlood  style="flood-color:white;flood-opacity:1" result="back"/>
					<feBlend  in="SourceGraphic" in2="back" mode="normal"/>
				</filter>
			</defs>
			<mask maskUnits="userSpaceOnUse" x="77.2" y="53.7" width="99.8" height="90.4" id="SVGID_1_">
				<g style="filter:url(#Adobe_OpacityMaskFilter_00000044154898783413875810000007224188060326923395_);">
				</g>
			</mask>
			
				<linearGradient id="SVGID_00000146483769660690212380000004396252141961629347_" gradientUnits="userSpaceOnUse" x1="77.1967" y1="98.8972" x2="176.995" y2="98.8972">
				<stop  offset="0" style="stop-color:#FFFFFF"/>
				<stop  offset="1" style="stop-color:#000000"/>
			</linearGradient>
			<path style="mask:url(#SVGID_1_);fill:url(#SVGID_00000146483769660690212380000004396252141961629347_);" d="M101.3,53.7H77.2
				l71.1,41c3.2,1.9,3.2,6.5,0,8.3l-71.1,41h24.1c2.3,0,4.7-0.6,6.7-1.8l65.9-38.1c4.1-2.4,4.1-8.3,0-10.7L108,55.5
				C105.9,54.3,103.6,53.7,101.3,53.7z"/>
		</g>
	</mask>
	
		<linearGradient id="SVGID_00000049930312810041003410000002857524715698910381_" gradientUnits="userSpaceOnUse" x1="77.1967" y1="98.8972" x2="176.995" y2="98.8972">
		<stop  offset="1.032873e-03" style="stop-color:#CED2DA"/>
		<stop  offset="1" style="stop-color:#F5F5F5"/>
	</linearGradient>
	<path style="fill:url(#SVGID_00000049930312810041003410000002857524715698910381_);" d="M101.3,53.7H77.2l71.1,41
		c3.2,1.9,3.2,6.5,0,8.3l-71.1,41h24.1c2.3,0,4.7-0.6,6.7-1.8l65.9-38.1c4.1-2.4,4.1-8.3,0-10.7L108,55.5
		C105.9,54.3,103.6,53.7,101.3,53.7z"/>
	<g>
		<path class="st4" d="M154,99.7c-0.1-1.9-1.5-3.8-4.2-5.3L86.3,57.8c-5-2.9-12.6-3.2-17-0.7l-66,38.1c-2.1,1.2-3,2.8-2.9,4.5
			c0.1,1.9,1.5,3.8,4.2,5.3l63.6,36.7c5,2.9,12.6,3.2,17,0.7l66-38.1C153.2,103.1,154.1,101.4,154,99.7z"/>
		
			<linearGradient id="SVGID_00000102545251067947633630000014225513941018347937_" gradientUnits="userSpaceOnUse" x1="152.4672" y1="110.3634" x2="-0.67" y2="110.3634">
			<stop  offset="0.3962" style="stop-color:#D4D8FD"/>
			<stop  offset="0.6076" style="stop-color:#F3F4FF"/>
		</linearGradient>
		<path style="fill:url(#SVGID_00000102545251067947633630000014225513941018347937_);" d="M154,98.4L154,98.4l0-6.3l-25.8,12.5
			L86.3,80.4c-5-2.9-12.6-3.2-17-0.7l-43.1,24.9L0.3,92.1v5.8c0,0.2,0,0.3,0,0.5c0.1,1.9,1.5,3.8,4.2,5.3l63.6,36.7
			c2.6,1.5,5.9,2.3,9.1,2.4l0,0l0,0c3,0.1,5.8-0.5,7.9-1.7l66-38.1C153.2,101.7,154.1,100.1,154,98.4z"/>
		<path class="st6" d="M154,92.1c-0.1-1.9-1.5-3.8-4.2-5.3L86.3,50.1c-5-2.9-12.6-3.2-17-0.7l-66,38.1c-2.1,1.2-3,2.8-2.9,4.5
			c0.1,1.9,1.5,3.8,4.2,5.3L68.1,134c5,2.9,12.6,3.2,17,0.7l66-38.1C153.2,95.4,154.1,93.7,154,92.1z"/>
		
			<linearGradient id="SVGID_00000072992840776693565020000003401988657422893489_" gradientUnits="userSpaceOnUse" x1="0.3385" y1="91.504" x2="154.0468" y2="91.504">
			<stop  offset="0" style="stop-color:#FDFDFF"/>
			<stop  offset="1" style="stop-color:#FCFCFF"/>
		</linearGradient>
		<path style="fill:url(#SVGID_00000072992840776693565020000003401988657422893489_);" d="M154,91.5c-0.1-1.9-1.5-3.8-4.2-5.3
			L86.3,49.5c-5-2.9-12.6-3.2-17-0.7L3.3,87c-2.1,1.2-3,2.8-2.9,4.5c0.1,1.9,1.5,3.8,4.2,5.3l63.6,36.7c5,2.9,12.6,3.2,17,0.7
			l66-38.1C153.2,94.8,154.1,93.2,154,91.5z"/>
		<g class="st8">
			<path class="st6" d="M31.2,90.3c0.4,0.2,0.4,0.6,0,0.9c-0.4,0.2-1.1,0.2-1.5,0c-0.4-0.2-0.4-0.6,0-0.9
				C30.1,90.1,30.8,90.1,31.2,90.3z"/>
			<path class="st6" d="M39.2,85.7c0.4,0.2,0.4,0.6,0,0.9c-0.4,0.2-1.1,0.2-1.5,0c-0.4-0.2-0.4-0.6,0-0.9S38.8,85.5,39.2,85.7z"/>
			<path class="st6" d="M47.2,81.1c0.4,0.2,0.4,0.6,0,0.9s-1.1,0.2-1.5,0c-0.4-0.2-0.4-0.6,0-0.9C46.1,80.9,46.7,80.9,47.2,81.1z"/>
			<path class="st6" d="M55.2,76.5c0.4,0.2,0.4,0.6,0,0.9c-0.4,0.2-1.1,0.2-1.5,0c-0.4-0.2-0.4-0.6,0-0.9
				C54.1,76.2,54.7,76.2,55.2,76.5z"/>
			<path class="st6" d="M39.2,95c0.4,0.2,0.4,0.6,0,0.9c-0.4,0.2-1.1,0.2-1.5,0c-0.4-0.2-0.4-0.6,0-0.9C38.1,94.7,38.8,94.7,39.2,95
				z"/>
			<path class="st6" d="M47.2,90.3c0.4,0.2,0.4,0.6,0,0.9c-0.4,0.2-1.1,0.2-1.5,0s-0.4-0.6,0-0.9C46.1,90.1,46.7,90.1,47.2,90.3z"/>
			<path class="st6" d="M55.2,85.7c0.4,0.2,0.4,0.6,0,0.9c-0.4,0.2-1.1,0.2-1.5,0c-0.4-0.2-0.4-0.6,0-0.9
				C54.1,85.5,54.7,85.5,55.2,85.7z"/>
			<path class="st6" d="M63.2,81.1c0.4,0.2,0.4,0.6,0,0.9c-0.4,0.2-1.1,0.2-1.5,0c-0.4-0.2-0.4-0.6,0-0.9
				C62.1,80.9,62.7,80.9,63.2,81.1z"/>
			<path class="st6" d="M47.2,99.6c0.4,0.2,0.4,0.6,0,0.9c-0.4,0.2-1.1,0.2-1.5,0c-0.4-0.2-0.4-0.6,0-0.9
				C46.1,99.3,46.7,99.3,47.2,99.6z"/>
			<path class="st6" d="M55.2,95c0.4,0.2,0.4,0.6,0,0.9c-0.4,0.2-1.1,0.2-1.5,0c-0.4-0.2-0.4-0.6,0-0.9C54.1,94.7,54.7,94.7,55.2,95
				z"/>
			<path class="st6" d="M63.2,90.3c0.4,0.2,0.4,0.6,0,0.9c-0.4,0.2-1.1,0.2-1.5,0s-0.4-0.6,0-0.9C62.1,90.1,62.7,90.1,63.2,90.3z"/>
			<path class="st6" d="M71.2,85.7c0.4,0.2,0.4,0.6,0,0.9c-0.4,0.2-1.1,0.2-1.5,0s-0.4-0.6,0-0.9C70.1,85.5,70.7,85.5,71.2,85.7z"/>
			<path class="st6" d="M55.2,104.2c0.4,0.2,0.4,0.6,0,0.9c-0.4,0.2-1.1,0.2-1.5,0c-0.4-0.2-0.4-0.6,0-0.9
				C54.1,104,54.7,104,55.2,104.2z"/>
			<path class="st6" d="M63.2,99.6c0.4,0.2,0.4,0.6,0,0.9c-0.4,0.2-1.1,0.2-1.5,0c-0.4-0.2-0.4-0.6,0-0.9
				C62.1,99.3,62.7,99.3,63.2,99.6z"/>
			<path class="st6" d="M71.2,95c0.4,0.2,0.4,0.6,0,0.9c-0.4,0.2-1.1,0.2-1.5,0c-0.4-0.2-0.4-0.6,0-0.9C70.1,94.7,70.7,94.7,71.2,95
				z"/>
			<path class="st6" d="M79.2,90.3c0.4,0.2,0.4,0.6,0,0.9c-0.4,0.2-1.1,0.2-1.5,0c-0.4-0.2-0.4-0.6,0-0.9
				C78.1,90.1,78.7,90.1,79.2,90.3z"/>
			<path class="st6" d="M63.2,108.8c0.4,0.2,0.4,0.6,0,0.9s-1.1,0.2-1.5,0c-0.4-0.2-0.4-0.6,0-0.9C62.1,108.6,62.7,108.6,63.2,108.8
				z"/>
			<path class="st6" d="M71.2,104.2c0.4,0.2,0.4,0.6,0,0.9c-0.4,0.2-1.1,0.2-1.5,0c-0.4-0.2-0.4-0.6,0-0.9
				C70.1,104,70.7,104,71.2,104.2z"/>
			<path class="st6" d="M79.2,99.6c0.4,0.2,0.4,0.6,0,0.9c-0.4,0.2-1.1,0.2-1.5,0c-0.4-0.2-0.4-0.6,0-0.9
				C78.1,99.3,78.7,99.3,79.2,99.6z"/>
			<path class="st6" d="M87.2,95c0.4,0.2,0.4,0.6,0,0.9c-0.4,0.2-1.1,0.2-1.5,0c-0.4-0.2-0.4-0.6,0-0.9C86.1,94.7,86.7,94.7,87.2,95
				z"/>
			<path class="st6" d="M87.2,95c0.4,0.2,0.4,0.6,0,0.9c-0.4,0.2-1.1,0.2-1.5,0c-0.4-0.2-0.4-0.6,0-0.9C86.1,94.7,86.7,94.7,87.2,95
				z"/>
			<path class="st6" d="M63.2,71.9c0.4,0.2,0.4,0.6,0,0.9c-0.4,0.2-1.1,0.2-1.5,0c-0.4-0.2-0.4-0.6,0-0.9
				C62.1,71.6,62.7,71.6,63.2,71.9z"/>
			<path class="st6" d="M71.2,67.3c0.4,0.2,0.4,0.6,0,0.9c-0.4,0.2-1.1,0.2-1.5,0c-0.4-0.2-0.4-0.6,0-0.9C70.1,67,70.7,67,71.2,67.3
				z"/>
			<path class="st6" d="M79.2,62.6c0.4,0.2,0.4,0.6,0,0.9c-0.4,0.2-1.1,0.2-1.5,0c-0.4-0.2-0.4-0.6,0-0.9S78.7,62.4,79.2,62.6z"/>
			<path class="st6" d="M71.2,76.5c0.4,0.2,0.4,0.6,0,0.9c-0.4,0.2-1.1,0.2-1.5,0c-0.4-0.2-0.4-0.6,0-0.9
				C70.1,76.2,70.7,76.2,71.2,76.5z"/>
			<path class="st6" d="M79.2,71.9c0.4,0.2,0.4,0.6,0,0.9c-0.4,0.2-1.1,0.2-1.5,0c-0.4-0.2-0.4-0.6,0-0.9
				C78.1,71.6,78.7,71.6,79.2,71.9z"/>
			<path class="st6" d="M87.2,67.3c0.4,0.2,0.4,0.6,0,0.9c-0.4,0.2-1.1,0.2-1.5,0c-0.4-0.2-0.4-0.6,0-0.9C86.1,67,86.7,67,87.2,67.3
				z"/>
			<path class="st6" d="M79.2,81.1c0.4,0.2,0.4,0.6,0,0.9c-0.4,0.2-1.1,0.2-1.5,0c-0.4-0.2-0.4-0.6,0-0.9
				C78.1,80.9,78.7,80.9,79.2,81.1z"/>
			<path class="st6" d="M87.2,76.5c0.4,0.2,0.4,0.6,0,0.9c-0.4,0.2-1.1,0.2-1.5,0c-0.4-0.2-0.4-0.6,0-0.9
				C86.1,76.2,86.7,76.2,87.2,76.5z"/>
			<path class="st6" d="M95.1,71.9c0.4,0.2,0.4,0.6,0,0.9c-0.4,0.2-1.1,0.2-1.5,0c-0.4-0.2-0.4-0.6,0-0.9
				C94.1,71.6,94.7,71.6,95.1,71.9z"/>
			<path class="st6" d="M87.2,85.7c0.4,0.2,0.4,0.6,0,0.9c-0.4,0.2-1.1,0.2-1.5,0c-0.4-0.2-0.4-0.6,0-0.9
				C86.1,85.5,86.7,85.5,87.2,85.7z"/>
			<path class="st6" d="M95.1,81.1c0.4,0.2,0.4,0.6,0,0.9c-0.4,0.2-1.1,0.2-1.5,0c-0.4-0.2-0.4-0.6,0-0.9
				C94.1,80.9,94.7,80.9,95.1,81.1z"/>
			<path class="st6" d="M103.1,76.5c0.4,0.2,0.4,0.6,0,0.9c-0.4,0.2-1.1,0.2-1.5,0c-0.4-0.2-0.4-0.6,0-0.9
				C102.1,76.2,102.7,76.2,103.1,76.5z"/>
			<path class="st6" d="M95.1,90.3c0.4,0.2,0.4,0.6,0,0.9c-0.4,0.2-1.1,0.2-1.5,0c-0.4-0.2-0.4-0.6,0-0.9
				C94.1,90.1,94.7,90.1,95.1,90.3z"/>
			<path class="st6" d="M103.1,85.7c0.4,0.2,0.4,0.6,0,0.9c-0.4,0.2-1.1,0.2-1.5,0c-0.4-0.2-0.4-0.6,0-0.9
				C102.1,85.5,102.7,85.5,103.1,85.7z"/>
			<path class="st6" d="M111.1,81.1c0.4,0.2,0.4,0.6,0,0.9c-0.4,0.2-1.1,0.2-1.5,0c-0.4-0.2-0.4-0.6,0-0.9
				C110.1,80.9,110.7,80.9,111.1,81.1z"/>
			<path class="st6" d="M71.2,113.4c0.4,0.2,0.4,0.6,0,0.9c-0.4,0.2-1.1,0.2-1.5,0c-0.4-0.2-0.4-0.6,0-0.9
				C70.1,113.2,70.7,113.2,71.2,113.4z"/>
			<path class="st6" d="M79.2,108.8c0.4,0.2,0.4,0.6,0,0.9c-0.4,0.2-1.1,0.2-1.5,0c-0.4-0.2-0.4-0.6,0-0.9
				C78.1,108.6,78.7,108.6,79.2,108.8z"/>
			<path class="st6" d="M87.2,104.2c0.4,0.2,0.4,0.6,0,0.9c-0.4,0.2-1.1,0.2-1.5,0c-0.4-0.2-0.4-0.6,0-0.9
				C86.1,104,86.7,104,87.2,104.2z"/>
			<path class="st6" d="M95.1,99.6c0.4,0.2,0.4,0.6,0,0.9c-0.4,0.2-1.1,0.2-1.5,0c-0.4-0.2-0.4-0.6,0-0.9
				C94.1,99.3,94.7,99.3,95.1,99.6z"/>
			<path class="st6" d="M79.2,118c0.4,0.2,0.4,0.6,0,0.9c-0.4,0.2-1.1,0.2-1.5,0c-0.4-0.2-0.4-0.6,0-0.9
				C78.1,117.8,78.7,117.8,79.2,118z"/>
			<path class="st6" d="M87.2,113.4c0.4,0.2,0.4,0.6,0,0.9s-1.1,0.2-1.5,0c-0.4-0.2-0.4-0.6,0-0.9C86.1,113.2,86.7,113.2,87.2,113.4
				z"/>
			<path class="st6" d="M95.1,108.8c0.4,0.2,0.4,0.6,0,0.9c-0.4,0.2-1.1,0.2-1.5,0c-0.4-0.2-0.4-0.6,0-0.9
				C94.1,108.6,94.7,108.6,95.1,108.8z"/>
			<path class="st6" d="M103.1,104.2c0.4,0.2,0.4,0.6,0,0.9c-0.4,0.2-1.1,0.2-1.5,0c-0.4-0.2-0.4-0.6,0-0.9
				C102.1,104,102.7,104,103.1,104.2z"/>
			<path class="st6" d="M103.1,95c0.4,0.2,0.4,0.6,0,0.9c-0.4,0.2-1.1,0.2-1.5,0s-0.4-0.6,0-0.9C102.1,94.7,102.7,94.7,103.1,95z"/>
			<path class="st6" d="M111.1,90.3c0.4,0.2,0.4,0.6,0,0.9c-0.4,0.2-1.1,0.2-1.5,0c-0.4-0.2-0.4-0.6,0-0.9S110.7,90.1,111.1,90.3z"
				/>
			<path class="st6" d="M119.1,85.7c0.4,0.2,0.4,0.6,0,0.9c-0.4,0.2-1.1,0.2-1.5,0c-0.4-0.2-0.4-0.6,0-0.9
				C118.1,85.5,118.7,85.5,119.1,85.7z"/>
			<path class="st6" d="M111.1,99.6c0.4,0.2,0.4,0.6,0,0.9c-0.4,0.2-1.1,0.2-1.5,0c-0.4-0.2-0.4-0.6,0-0.9
				C110.1,99.3,110.7,99.3,111.1,99.6z"/>
			<path class="st6" d="M119.1,95c0.4,0.2,0.4,0.6,0,0.9c-0.4,0.2-1.1,0.2-1.5,0c-0.4-0.2-0.4-0.6,0-0.9
				C118.1,94.7,118.7,94.7,119.1,95z"/>
			<path class="st6" d="M127.1,90.3c0.4,0.2,0.4,0.6,0,0.9c-0.4,0.2-1.1,0.2-1.5,0c-0.4-0.2-0.4-0.6,0-0.9
				C126.1,90.1,126.7,90.1,127.1,90.3z"/>
		</g>
	</g>
</g>
<g>
	<polygon class="st9" points="85.4,3.5 79.7,0.1 79.5,0.1 79.3,0 79.1,0 78.9,0 78.7,0 78.5,0 78.3,0.1 78,0.1 77.8,0.2 77.6,0.2 
		77.4,0.3 77.1,0.5 76.9,0.6 45.4,18.8 45.2,18.9 44.9,19.1 44.7,19.3 44.5,19.4 44.2,19.6 44,19.8 43.8,20.1 43.6,20.3 43.4,20.5 
		43.2,20.8 43,21 42.8,21.3 42.6,21.5 42.4,21.8 42.3,22.1 42.1,22.4 42,22.7 41.8,23 41.7,23.3 41.6,23.6 41.4,23.9 41.3,24.2 
		41.2,24.5 41.1,24.8 41,25.1 41,25.4 40.9,25.7 40.9,26.1 40.8,26.4 40.8,26.7 40.8,27 40.8,27.3 40.8,99.8 40.8,100.1 40.8,100.3 
		40.8,100.6 40.9,100.9 40.9,101.1 41,101.4 41.1,101.6 41.1,101.8 41.2,102 41.3,102.2 41.5,102.4 41.6,102.6 41.7,102.7 
		41.8,102.9 42,103 47.7,106.3 47.6,106.2 47.5,106 47.3,105.9 47.2,105.7 47.1,105.5 47,105.3 46.9,105.1 46.8,104.9 46.7,104.7 
		46.7,104.5 46.6,104.2 46.6,103.9 46.6,103.7 46.5,103.4 46.5,103.1 46.5,30.6 46.5,30.3 46.5,30 46.6,29.7 46.6,29.4 46.7,29.1 
		46.7,28.8 46.8,28.4 46.9,28.1 47,27.8 47.1,27.5 47.2,27.2 47.3,26.9 47.4,26.6 47.6,26.3 47.7,26 47.9,25.7 48,25.4 48.2,25.1 
		48.4,24.9 48.6,24.6 48.7,24.3 48.9,24.1 49.1,23.8 49.3,23.6 49.6,23.4 49.8,23.2 50,23 50.2,22.8 50.4,22.6 50.7,22.4 50.9,22.2 
		51.1,22.1 82.6,3.9 82.9,3.8 83.1,3.7 83.3,3.6 83.6,3.5 83.8,3.4 84,3.4 84.2,3.3 84.4,3.3 84.6,3.3 84.8,3.3 85,3.4 85.2,3.4 	
		"/>
	<path class="st10" d="M51.2,106.2L82.7,88c2.6-1.5,4.6-5.3,4.6-8.5l0-72.5c0-3.2-2.1-4.6-4.6-3.1L51.1,22.1
		c-2.6,1.5-4.6,5.3-4.6,8.5l0,72.5C46.5,106.3,48.6,107.7,51.2,106.2z"/>
	<path class="st11" d="M63.7,25l19.8-11.5c0.9-0.5,1.7-0.2,1.9,0.8c0,0.1,0.1,0.2,0.1,0.3v0.2l0,0.1l0,56.5l0,0.1v0.1
		c0,0.1,0,0.2-0.1,0.4c-0.2,1.2-1,2.4-1.9,3L56.8,90.5c0,0-0.1,0-0.1,0.1l-6.4,3.7c-0.9,0.5-1.7,0.2-1.9-0.8c0-0.1-0.1-0.2-0.1-0.3
		V93l0-0.1l0-56.5l0-0.1v-0.2c0-0.1,0-0.2,0.1-0.4c0.2-1.2,1-2.4,1.9-3L63.7,25L63.7,25z"/>
	<path class="st12" d="M70,17.1c1.7-1,1.7-3.8,0-2.8l-6.2,3.6c-1.7,1-1.7,3.8,0,2.8L70,17.1z"/>
	<path class="st12" d="M70,17.4c0.7-0.4,1.2-1.1,1.4-1.8c0.1-0.3,0.1-0.5,0.1-0.8s0-0.4-0.1-0.6c-0.2-0.4-0.7-0.6-1.4-0.2l-6.2,3.6
		c-0.7,0.4-1.2,1.1-1.4,1.8c-0.1,0.3-0.1,0.5-0.1,0.8c0,0.2,0,0.4,0.1,0.6c0.2,0.4,0.7,0.6,1.4,0.2L70,17.4L70,17.4z M71,15.6
		c-0.1,0.5-0.5,0.9-0.9,1.2l-6.2,3.6c-0.5,0.3-0.8,0.2-0.9-0.1c-0.1-0.1-0.1-0.3-0.1-0.4s0-0.3,0.1-0.5c0.1-0.5,0.5-0.9,0.9-1.2
		l6.2-3.6c0.5-0.3,0.8-0.2,0.9,0.1c0.1,0.1,0.1,0.3,0.1,0.4C71,15.2,71,15.4,71,15.6z"/>
	<polygon class="st13" points="81.8,27.2 52,44.4 52,84.1 81.8,66.9 	"/>
	<polygon class="st14" points="81.8,27.2 52,44.4 52,38.6 81.8,21.5 	"/>
	<path class="st15" d="M56.2,46.9L56.2,46.9c-0.6,0.3-1,1.1-1,1.8l0,0c0,0.7,0.5,1,1,0.7l0,0c0.6-0.3,1-1.1,1-1.8l0,0
		C57.2,46.9,56.7,46.6,56.2,46.9z"/>
	<path class="st16" d="M56.2,53.6L56.2,53.6c-0.6,0.3-1,1.1-1,1.8l0,0c0,0.7,0.5,1,1,0.7l0,0c0.6-0.3,1-1.1,1-1.8l0,0
		C57.2,53.6,56.7,53.3,56.2,53.6z"/>
	<path class="st17" d="M56.2,60.8L56.2,60.8c-0.6,0.3-1,1.1-1,1.8l0,0c0,0.7,0.5,1,1,0.7l0,0c0.6-0.3,1-1.1,1-1.8l0,0
		C57.2,60.8,56.7,60.5,56.2,60.8z"/>
	<polygon class="st18" points="60,60.5 75.5,51.5 75.5,50.3 60,59.2 	"/>
	<polygon class="st18" points="60,53.8 76.8,44.1 76.8,42.8 60,52.5 	"/>
	<polygon class="st18" points="60,46.6 73.2,38.9 73.2,37.7 60,45.3 	"/>
	<g>
		<path class="st12" d="M69.3,87c0.5-0.3,1-0.3,1.4-0.1c0.4,0.2,0.6,0.7,0.6,1.4c0,0.7-0.2,1.4-0.6,2c-0.4,0.6-0.8,1.2-1.4,1.5l0,0
			l-4.8,2.8c-0.5,0.3-1,0.3-1.4,0.1c-0.4-0.2-0.6-0.7-0.6-1.4c0-0.7,0.2-1.4,0.6-2c0.4-0.6,0.8-1.2,1.4-1.5l0,0L69.3,87z"/>
		<path class="st12" d="M69.3,87.3c0.2-0.1,0.4-0.2,0.6-0.2c0.2,0,0.4,0,0.6,0.1c0.2,0.1,0.3,0.3,0.4,0.5c0.1,0.2,0.1,0.5,0.1,0.8
			c0,0.3,0,0.6-0.1,0.9c-0.1,0.3-0.2,0.6-0.4,0.9c-0.2,0.3-0.3,0.6-0.6,0.8c-0.2,0.2-0.4,0.4-0.6,0.5v0l-4.8,2.8v0
			c-0.2,0.1-0.4,0.2-0.6,0.2c-0.2,0-0.4,0-0.6-0.1c-0.2-0.1-0.3-0.3-0.4-0.5c-0.1-0.2-0.1-0.5-0.1-0.8c0-0.3,0-0.6,0.1-0.9
			c0.1-0.3,0.2-0.6,0.4-0.9c0.2-0.3,0.3-0.6,0.6-0.8c0.2-0.2,0.4-0.4,0.6-0.5v0L69.3,87.3L69.3,87.3L69.3,87.3z M70.2,86.5
			c-0.3,0-0.5,0.1-0.8,0.3v0l-4.8,2.8v0c-0.3,0.2-0.6,0.4-0.8,0.7c-0.3,0.3-0.5,0.6-0.7,1c-0.2,0.4-0.4,0.8-0.5,1.1
			c-0.1,0.4-0.2,0.8-0.2,1.1c0,0.4,0.1,0.7,0.2,0.9c0.1,0.3,0.3,0.5,0.5,0.6c0.2,0.1,0.4,0.2,0.7,0.2c0.3,0,0.5-0.1,0.8-0.3v0
			l4.8-2.8v0c0.3-0.2,0.6-0.4,0.8-0.7c0.3-0.3,0.5-0.6,0.7-1c0.2-0.4,0.4-0.8,0.5-1.1c0.1-0.4,0.2-0.8,0.2-1.1
			c0-0.4-0.1-0.7-0.2-0.9c-0.1-0.3-0.3-0.5-0.5-0.6C70.7,86.5,70.4,86.5,70.2,86.5z"/>
	</g>
	<polygon class="st12" points="41.9,22.9 41.8,23 41.7,23.3 41.6,23.6 41.4,23.9 41.3,24.2 41.2,24.5 41.1,24.8 41,25.1 41,25.4 
		40.9,25.7 40.9,26.1 40.8,26.4 40.8,26.7 40.8,27 40.8,27.3 40.8,99.8 40.8,100.1 40.8,100.3 40.8,100.6 40.9,100.9 40.9,101.1 
		41,101.4 41.1,101.6 41.1,101.8 41.2,102 41.3,102.2 41.5,102.4 41.6,102.6 41.7,102.7 41.8,102.9 42,103 47.7,106.3 47.6,106.2 
		47.5,106 47.3,105.9 47.2,105.7 47.1,105.5 47,105.3 46.9,105.1 46.8,104.9 46.7,104.7 46.7,104.5 46.6,104.2 46.6,103.9 
		46.6,103.7 46.5,103.4 46.5,103.1 46.5,30.6 46.5,30.3 46.5,30 46.6,29.7 46.6,29.4 46.7,29.1 46.7,28.8 46.8,28.4 46.9,28.1 
		47,27.8 47.1,27.5 47.2,27.2 47.3,26.9 47.4,26.6 47.6,26.3 47.6,26.2 	"/>
</g>
<g>
	<polygon class="st19" points="117.3,118.8 116.3,118.6 115.8,117.2 116.1,116.7 116.5,116.3 116.8,115.8 117.1,115.3 117.4,114.8 
		117.6,114.3 117.9,113.8 118.1,113.2 118.4,112.7 118.6,112.1 118.8,111.5 119,110.9 119.1,110.4 119.3,109.8 119.4,109.2 
		119.6,108.6 119.7,107.9 119.8,107.2 119.9,106.6 119.9,105.9 120,105.3 120,104.6 120,103.9 120,103.3 120,102.6 119.9,102 
		119.9,101.4 119.8,100.8 119.7,100.2 119.5,99.6 119.4,99 119.2,98.4 118.2,95.5 119.2,94.3 120.2,94.5 119.2,95.7 120.2,98.6 
		120.4,99.2 120.5,99.8 120.6,100.4 120.8,101 120.9,101.6 120.9,102.2 121,102.8 121,103.5 121,104.1 121,104.8 121,105.5 
		120.9,106.1 120.9,106.8 120.8,107.4 120.7,108.1 120.6,108.8 120.4,109.4 120.3,110 120.1,110.6 120,111.1 119.8,111.7 
		119.6,112.3 119.4,112.9 119.1,113.4 118.9,114 118.6,114.5 118.3,115 118.1,115.5 117.8,116 117.5,116.5 117.1,116.9 116.8,117.4 
			"/>
	<path class="st12" d="M121.2,97.5c1.1,3.4,1.2,7.5,0.4,11.5c-0.7,3.7-2.2,7.2-4.3,9.9l-0.5-1.4c1.8-2.3,3.1-5.4,3.8-8.6
		c0.7-3.5,0.6-7.2-0.4-10.2l-1-2.9l1-1.1L121.2,97.5z"/>
	<path class="st20" d="M115.2,124.5c2.9-0.4,4.9-3.2,4.5-6.1c-0.4-2.9-3.2-4.9-6.1-4.5c-2.9,0.4-4.9,3.2-4.5,6.1
		C109.6,122.9,112.3,124.9,115.2,124.5z"/>
	<path class="st21" d="M115.7,123.3c2.5-0.4,4.2-2.7,3.9-5.2c-0.4-2.5-2.7-4.2-5.2-3.9c-2.5,0.4-4.2,2.7-3.9,5.2
		C110.8,122,113.2,123.7,115.7,123.3z"/>
	<path class="st22" d="M118.1,115.8c-1.4-1.4-3.2-0.6-2.9,1.3c0.2,1.1,1.2,1.9,2.4,1.8C119.4,118.6,119.1,116.8,118.1,115.8z"/>
	<g>
		<g>
			<polygon class="st22" points="67.8,93.1 73,90.2 73.3,90 73.7,89.9 74.1,89.9 74.5,89.8 74.9,89.8 75.4,89.9 75.8,89.9 76.3,90 
				76.7,90.1 77.2,90.3 77.7,90.4 78.2,90.6 78.7,90.9 79.2,91.2 79.7,91.5 80.2,91.8 80.7,92.2 81.2,92.5 81.6,92.9 82.1,93.4 
				82.6,93.8 83,94.3 83.4,94.7 83.9,95.2 84.3,95.7 84.7,96.3 85.1,96.8 85.4,97.3 85.8,97.9 86.1,98.5 86.4,99.1 86.8,99.6 
				87,100.2 87.3,100.8 87.6,101.4 87.8,102.1 88,102.7 88.2,103.3 88.4,103.9 88.5,104.5 88.7,105.1 88.8,105.7 88.9,106.3 
				88.9,106.9 89,107.5 89,108.1 89,108.7 88.9,109.3 88.9,109.8 88.8,110.3 88.7,110.8 88.5,111.2 88.4,111.7 88.2,112.1 88,112.5 
				87.8,112.8 87.6,113.2 87.3,113.5 87,113.8 86.8,114 81.6,117 81.9,116.7 82.2,116.4 82.4,116.1 82.7,115.8 82.9,115.4 
				83.1,115.1 83.3,114.6 83.4,114.2 83.6,113.7 83.7,113.3 83.8,112.8 83.8,112.2 83.9,111.7 83.9,111.1 83.9,110.5 83.8,109.9 
				83.8,109.3 83.7,108.7 83.6,108.1 83.4,107.5 83.3,106.9 83.1,106.2 82.9,105.6 82.7,105 82.4,104.4 82.2,103.8 81.9,103.2 
				81.6,102.6 81.3,102 81,101.4 80.7,100.9 80.3,100.3 79.9,99.8 79.5,99.2 79.1,98.7 78.7,98.2 78.3,97.7 77.9,97.2 77.4,96.8 
				77,96.3 76.5,95.9 76,95.5 75.6,95.1 75.1,94.8 74.6,94.4 74.1,94.1 73.6,93.8 73.1,93.6 72.6,93.4 72.1,93.2 71.6,93.1 71.2,93 
				70.7,92.9 70.3,92.8 69.8,92.8 69.4,92.8 69,92.8 68.6,92.9 68.2,93 			"/>
			<path class="st23" d="M74.1,116.7c-5.4-3.1-9.8-10.7-9.8-17c0-6.2,4.4-8.8,9.8-5.7c5.4,3.1,9.8,10.7,9.8,17
				C83.9,117.3,79.5,119.9,74.1,116.7z"/>
		</g>
		<g>
			<polygon class="st13" points="102.8,71.7 108.3,68.5 108.7,68.4 109.1,68.3 109.6,68.2 110,68.2 110.5,68.2 110.9,68.2 
				111.4,68.2 111.9,68.3 112.4,68.5 112.9,68.6 113.4,68.8 114,69 114.5,69.3 115,69.6 115.6,69.9 116.1,70.3 116.7,70.7 
				117.2,71.1 117.7,71.5 118.2,72 118.7,72.4 119.2,72.9 119.6,73.4 120.1,74 120.5,74.5 120.9,75.1 121.4,75.7 121.8,76.2 
				122.1,76.9 122.5,77.5 122.9,78.1 123.2,78.7 123.5,79.4 123.8,80 124.1,80.7 124.3,81.3 124.6,82 124.8,82.6 125,83.3 125.1,84 
				125.3,84.6 125.4,85.3 125.5,85.9 125.5,86.6 125.6,87.2 125.6,87.9 125.6,88.5 125.5,89.1 125.5,89.7 125.4,90.2 125.3,90.7 
				125.1,91.2 125,91.7 124.8,92.1 124.6,92.6 124.3,92.9 124.1,93.3 123.8,93.6 123.5,93.9 123.2,94.2 117.7,97.4 118,97.1 
				118.3,96.8 118.6,96.5 118.8,96.1 119,95.7 119.2,95.3 119.4,94.9 119.6,94.4 119.7,93.9 119.9,93.4 120,92.8 120,92.3 
				120.1,91.7 120.1,91.1 120.1,90.4 120,89.8 120,89.1 119.9,88.5 119.7,87.8 119.6,87.2 119.4,86.5 119.2,85.8 119,85.2 
				118.8,84.5 118.6,83.9 118.3,83.2 118,82.6 117.7,81.9 117.3,81.3 117,80.7 116.6,80 116.2,79.4 115.8,78.8 115.4,78.3 115,77.7 
				114.6,77.2 114.1,76.6 113.6,76.1 113.2,75.6 112.7,75.1 112.2,74.7 111.7,74.3 111.1,73.8 110.6,73.5 110.1,73.1 109.5,72.8 
				109,72.5 108.4,72.2 107.9,72 107.4,71.8 106.9,71.6 106.4,71.5 105.9,71.4 105.4,71.4 105,71.3 104.5,71.3 104.1,71.4 
				103.6,71.5 103.2,71.6 			"/>
			<path class="st24" d="M109.5,97.1C103.7,93.8,99,85.6,99,78.9c0-6.7,4.7-9.5,10.5-6.1c5.8,3.4,10.6,11.6,10.6,18.3
				C120.1,97.8,115.4,100.5,109.5,97.1z"/>
		</g>
		<polygon class="st13" points="64.9,93.6 70.5,90.4 70.9,90.2 71.3,90.1 71.7,90.1 72.1,90 72.6,90 73.1,90.1 73.5,90.1 74,90.2 
			74.5,90.3 75,90.5 75.6,90.7 76.1,90.9 76.6,91.2 77.2,91.5 77.7,91.8 78.2,92.2 78.8,92.5 79.3,92.9 79.8,93.4 80.3,93.8 
			80.8,94.3 81.3,94.8 81.7,95.3 82.2,95.8 82.6,96.4 83.1,97 83.5,97.5 83.9,98.1 84.3,98.7 84.6,99.3 85,100 85.3,100.6 
			85.6,101.2 85.9,101.9 86.2,102.5 86.4,103.2 86.7,103.9 86.9,104.5 87.1,105.2 87.2,105.8 87.4,106.5 87.5,107.2 87.6,107.8 
			87.7,108.5 87.7,109.1 87.7,109.7 87.7,110.4 87.7,111 87.6,111.5 87.5,112.1 87.4,112.6 87.2,113.1 87.1,113.6 86.9,114 
			86.7,114.4 86.4,114.8 86.2,115.2 85.9,115.5 85.6,115.8 85.3,116.1 79.8,119.3 80.1,119 80.4,118.7 80.7,118.4 80.9,118 
			81.2,117.6 81.4,117.2 81.6,116.7 81.7,116.3 81.9,115.8 82,115.3 82.1,114.7 82.1,114.1 82.2,113.5 82.2,112.9 82.2,112.3 
			82.1,111.7 82.1,111 82,110.4 81.9,109.7 81.7,109 81.6,108.4 81.4,107.7 81.2,107 80.9,106.4 80.7,105.7 80.4,105.1 80.1,104.4 
			79.8,103.8 79.5,103.2 79.1,102.5 78.7,101.9 78.4,101.3 78,100.7 77.5,100.1 77.1,99.6 76.7,99 76.2,98.5 75.7,98 75.3,97.5 
			74.8,97 74.3,96.6 73.8,96.1 73.2,95.7 72.7,95.3 72.2,95 71.6,94.7 71.1,94.4 70.6,94.1 70,93.9 69.5,93.7 69,93.5 68.5,93.4 
			68,93.3 67.5,93.2 67.1,93.2 66.6,93.2 66.2,93.3 65.7,93.3 65.3,93.4 		"/>
		<path class="st24" d="M71.6,119c-5.8-3.4-10.5-11.5-10.5-18.3c0-6.7,4.7-9.5,10.5-6.1c5.8,3.4,10.6,11.6,10.6,18.3
			C82.2,119.7,77.5,122.4,71.6,119z"/>
		<path class="st20" d="M105.2,59.8l-0.2-0.8l-0.3-0.7l-0.3-0.7l-0.3-0.6l-0.4-0.6l-0.4-0.6l-0.4-0.5l-0.1-0.1l0,0
			c3.9,0.9,6.6,4.4,7,9.9c0,0.5,0.1,5.1,0.1,5.7c0,0.7,0,1.4-0.1,2.1l0,0l0,0l-0.2-0.1c-1.5-0.8-2.9-1.3-4.1-1.4l0,0
			C106,68.7,105.8,62.6,105.2,59.8z"/>
		<path class="st20" d="M89.3,50.4l1-0.6l1-0.5l1-0.4l1-0.4l1-0.3l1-0.2l0.9-0.2l0.9-0.1l0.9,0l0.9,0l0.8,0.1l0.8,0.1l0.8,0.2
			l0.8,0.3l0.7,0.3l0.7,0.4l4.1,2.4L107,51l-0.7-0.3l-0.8-0.3l-0.8-0.2l-0.8-0.1l-0.8-0.1l-0.9,0l-0.9,0l-0.9,0.1l-0.9,0.2l-1,0.2
			l-1,0.3l-1,0.4l-1,0.4l-1,0.5l-1,0.6l-1,0.6l-1,0.7l-1,0.7l-1,0.8l-1,0.8l-1,0.9l-0.9,0.9l-0.9,0.9l-0.9,1l-0.9,1l-0.8,1l-0.8,1.1
			l-0.8,1.1l-0.8,1.1l-0.7,1.2l-0.7,1.2l-0.7,1.2l-0.6,1.2l-0.6,1.2l-0.6,1.2L76.2,74l-0.5,1.3l-0.4,1.3l-0.4,1.3L74.5,79l-0.3,1.3
			l-0.3,1.3l-0.2,1.3l-0.2,1.2l-0.1,1.2l-0.1,5.3l0,1.2l0,0.3l0,0.3l0,0.3l0,0.3l0,0.3l0,0.3c-1.5-0.8-2.9-1.3-4.1-1.4l0-1.2l0-0.3
			l0-0.3l0-0.3l0-0.3l0-0.3l0-5.3l0.1-1.2l0.1-1.2l0.2-1.2l0.2-1.3l0.3-1.3l0.3-1.3l0.4-1.3l0.4-1.3l0.4-1.3l0.5-1.3l0.5-1.2
			l0.6-1.2l0.6-1.2l0.6-1.2l0.7-1.2l0.7-1.2l0.7-1.2l0.8-1.1l0.8-1.1l0.8-1.1l0.8-1l0.9-1l0.9-1l0.9-0.9l0.9-0.9l1-0.9l1-0.8l1-0.8
			l1-0.7l1-0.7L89.3,50.4z"/>
		<polygon class="st22" points="102.1,73.7 103.3,73 103.6,72.9 104,72.8 104.4,72.8 104.8,72.7 105.2,72.7 105.6,72.8 106.1,72.8 
			106.5,72.9 107,73 107.4,73.1 107.9,73.3 108.4,73.5 108.8,73.8 109.3,74 109.8,74.3 110.3,74.7 110.8,75 111.3,75.4 111.7,75.8 
			112.2,76.2 112.6,76.6 113.1,77 113.5,77.5 113.9,78 114.3,78.5 114.7,79 115.1,79.5 115.4,80.1 115.8,80.6 116.1,81.2 
			116.4,81.7 116.7,82.3 117,82.9 117.3,83.5 117.5,84.1 117.7,84.7 118,85.3 118.1,85.9 118.3,86.5 118.5,87.1 118.6,87.7 
			118.7,88.3 118.8,88.8 118.9,89.4 118.9,90 118.9,90.6 118.9,91.2 118.9,91.7 118.8,92.2 118.7,92.7 118.6,93.2 118.5,93.6 
			118.3,94.1 118.1,94.5 118,94.8 117.7,95.2 117.5,95.5 117.3,95.8 117,96.1 116.7,96.4 115.5,97 115.8,96.8 116.1,96.5 
			116.3,96.2 116.6,95.9 116.8,95.5 117,95.1 117.1,94.7 117.3,94.3 117.4,93.9 117.5,93.4 117.6,92.9 117.7,92.4 117.7,91.8 
			117.7,91.3 117.7,90.7 117.7,90.1 117.6,89.5 117.5,88.9 117.4,88.3 117.3,87.7 117.1,87.1 117,86.5 116.8,85.9 116.6,85.4 
			116.3,84.8 116.1,84.2 115.8,83.6 115.5,83 115.2,82.4 114.9,81.9 114.6,81.3 114.2,80.8 113.9,80.2 113.5,79.7 113.1,79.2 
			112.7,78.7 112.3,78.2 111.9,77.7 111.4,77.3 111,76.9 110.5,76.4 110.1,76.1 109.6,75.7 109.1,75.3 108.6,75 108.1,74.7 
			107.7,74.5 107.2,74.2 106.7,74 106.2,73.8 105.8,73.7 105.3,73.6 104.9,73.5 104.4,73.4 104,73.4 103.6,73.4 103.2,73.5 
			102.8,73.5 102.4,73.6 		"/>
		<path class="st20" d="M108.1,96.8c-5.3-3-9.6-10.5-9.6-16.6c0-6.1,4.3-8.6,9.6-5.5c5.3,3,9.6,10.5,9.6,16.6
			C117.7,97.4,113.4,99.8,108.1,96.8z"/>
		<path class="st21" d="M108.1,93.9c-3.9-2.2-7-7.7-7-12.2c0-4.5,3.2-6.3,7-4.1c3.9,2.2,7.1,7.7,7.1,12.2
			C115.2,94.3,112,96.1,108.1,93.9z"/>
		<polygon class="st22" points="102.6,77.5 102.7,77.4 102.4,77.9 102.1,78.4 101.9,79 101.7,79.7 101.6,80.4 101.5,81.3 
			101.5,81.7 101.6,82.1 101.6,82.5 101.7,83 101.8,83.4 101.9,83.9 102,84.3 102.1,84.7 102.2,85.2 102.4,85.6 102.6,86.1 
			102.7,86.5 102.9,86.9 103.1,87.4 103.4,87.8 103.6,88.2 103.8,88.6 104.1,89 104.4,89.4 104.6,89.8 104.9,90.2 105.2,90.5 
			105.5,90.9 105.8,91.2 106.2,91.6 106.5,91.9 106.8,92.2 107.2,92.5 107.5,92.7 107.9,93 108.2,93.2 108.6,93.5 109.3,93.8 
			110,94.1 110.7,94.3 111.3,94.4 111.9,94.4 112.5,94.3 113.1,94.2 113.6,94 114,93.6 114.1,93.6 114,93.7 113.6,94.1 113.1,94.4 
			112.6,94.6 112.1,94.8 111.5,94.9 110.9,94.8 110.2,94.7 109.6,94.6 108.9,94.3 108.1,93.9 107.8,93.7 107.4,93.4 107.1,93.2 
			106.7,92.9 106.4,92.6 106.1,92.3 105.7,92 105.4,91.7 105.1,91.3 104.8,91 104.5,90.6 104.2,90.2 103.9,89.8 103.7,89.5 
			103.4,89.1 103.2,88.6 102.9,88.2 102.7,87.8 102.5,87.4 102.3,86.9 102.1,86.5 102,86.1 101.8,85.6 101.7,85.2 101.5,84.7 
			101.4,84.3 101.3,83.9 101.2,83.4 101.2,83 101.1,82.5 101.1,82.1 101.1,81.7 101.1,80.9 101.2,80.1 101.4,79.5 101.7,78.8 
			102,78.3 102.3,77.8 		"/>
		<path class="st12" d="M93.5,52.8c11.1-6.4,20.2-1.2,20.2,11.6l0,4.9c0,0.5,0,0.8-0.1,1.3l-3.8,2.2c0.1-0.8,0.1-1.4,0.1-2.2
			c0-0.5,0-5.1-0.1-5.7c-0.7-9.3-7.7-12.8-16.3-7.9c-8.7,5-15.8,17-16.3,27.2c0,0.4,0,4.9,0,5.3c0,0.6,0,1.3,0.1,1.9l-0.3,0.2
			l-3.5,1.9c0-0.6-0.1-1.1-0.1-1.7c0-0.6,0-5.3,0.1-6C74.2,73.4,82.9,58.9,93.5,52.8z"/>
		<polygon class="st13" points="65.9,98.1 66.4,97.8 66.7,97.6 67,97.5 67.2,97.4 67.5,97.4 67.8,97.3 68.1,97.3 68.4,97.3 
			68.8,97.3 69.1,97.3 69.5,97.4 69.8,97.5 70.2,97.6 70.5,97.7 70.9,97.9 71.3,98.1 71.6,98.3 72,98.5 72.4,98.8 72.8,99 
			73.1,99.3 73.5,99.6 73.8,99.9 74.2,100.3 74.5,100.6 74.9,101 75.2,101.4 75.5,101.7 75.8,102.1 76.1,102.5 76.3,103 76.6,103.4 
			76.9,103.8 77.1,104.2 77.3,104.7 77.6,105.1 77.8,105.6 78,106 78.1,106.5 78.3,107 78.5,107.4 78.6,107.9 78.7,108.4 
			78.8,108.8 78.9,109.3 79,109.7 79,110.2 79,110.6 79,111.1 79,111.5 79,111.9 79,112.3 78.9,112.7 78.8,113.1 78.7,113.4 
			78.6,113.8 78.5,114.1 78.3,114.4 78.1,114.6 78,114.9 77.8,115.1 77.6,115.3 77.3,115.5 77.1,115.7 76.9,115.9 76.3,116.2 
			76.6,116 76.8,115.8 77,115.6 77.2,115.4 77.4,115.2 77.6,114.9 77.8,114.7 77.9,114.4 78.1,114.1 78.2,113.7 78.3,113.4 
			78.4,113 78.4,112.6 78.5,112.2 78.5,111.8 78.5,111.4 78.5,110.9 78.5,110.5 78.4,110 78.4,109.6 78.3,109.1 78.2,108.7 
			78.1,108.2 77.9,107.7 77.8,107.3 77.6,106.8 77.4,106.3 77.2,105.9 77,105.4 76.8,105 76.6,104.5 76.3,104.1 76.1,103.7 
			75.8,103.3 75.5,102.8 75.3,102.4 75,102 74.6,101.7 74.3,101.3 74,100.9 73.7,100.6 73.3,100.2 73,99.9 72.6,99.6 72.2,99.3 
			71.9,99.1 71.5,98.8 71.1,98.6 70.7,98.4 70.4,98.2 70,98 69.6,97.9 69.3,97.8 68.9,97.7 68.6,97.6 68.2,97.6 67.9,97.6 
			67.6,97.6 67.3,97.6 67,97.7 66.7,97.7 66.4,97.8 66.2,97.9 		"/>
		<path class="st25" d="M71.1,115.7c-4.1-2.4-7.4-8.1-7.4-12.8c0-4.7,3.3-6.6,7.4-4.3c4.1,2.4,7.4,8.1,7.4,12.8
			C78.5,116.1,75.2,118,71.1,115.7z"/>
	</g>
</g>
</svg>
