<svg xmlns="http://www.w3.org/2000/svg" width="32" height="16"><g fill="none" fill-rule="evenodd"><path fill="#111214" d="M2.564 0h26.872c.892 0 1.215.093 1.54.267.327.174.583.43.757.756.174.326.267.65.267 1.54v10.873c0 .892-.093 1.215-.267 1.54a1.81 1.81 0 01-.756.757c-.326.174-.65.267-1.54.267H2.563c-.892 0-1.215-.093-1.54-.267a1.817 1.817 0 01-.757-.756C.093 14.65 0 14.327 0 13.437V2.563c0-.892.093-1.215.267-1.54a1.81 1.81 0 01.756-.757C1.35.093 1.673 0 2.563 0z"/><path fill="#FFF" fill-rule="nonzero" d="M7.582 12H5.81V3.999h3.235c2.549 0 3.235 1.28 3.235 2.606 0 1.029-.606 1.966-1.566 2.343L12.942 12h-2.137L8.851 9.268H7.58V12zM9.01 5.656H7.58v1.955h1.5c.869 0 1.36-.366 1.36-1.006 0-.571-.297-.949-1.428-.949zm3.931 0V4h6.904v1.657h-2.572V12h-1.771V5.656h-2.56zM20.59 12V3.999h6.058v1.657h-4.286v1.75h4v1.656h-4V12H20.59z"/></g></svg>