<?xml version="1.0" encoding="utf-8"?>
<!-- Generator: Adobe Illustrator 26.2.1, SVG Export Plug-In . SVG Version: 6.00 Build 0)  -->
<svg version="1.1" id="_x35_" xmlns="http://www.w3.org/2000/svg" xmlns:xlink="http://www.w3.org/1999/xlink" x="0px" y="0px"
	 viewBox="0 0 177.6 145" style="enable-background:new 0 0 177.6 145;" xml:space="preserve">
<style type="text/css">
	.st0{filter:url(#Adobe_OpacityMaskFilter);}
	.st1{filter:url(#Adobe_OpacityMaskFilter_00000003817032760725787360000001156870529362688169_);}
	.st2{mask:url(#SVGID_1_);fill:url(#SVGID_00000170997235737975313510000014237127462504793256_);}
	.st3{fill:url(#SVGID_00000128480336199423153980000004505433481059863431_);}
	.st4{fill:#C0C4EE;}
	.st5{fill:url(#SVGID_00000058549399216837007880000015833252324064672388_);}
	.st6{fill:#FFFFFF;}
	.st7{fill:url(#SVGID_00000166657164421254998710000009705207014797332157_);}
	.st8{opacity:0.2;}
	.st9{opacity:0.2;fill:#ABAAAF;}
	.st10{fill:#B8B8C4;}
	.st11{fill:#4A4C62;}
	.st12{fill:url(#XMLID_00000001642595118934784080000009138691330375093403_);}
	.st13{fill:#ABAAAF;}
	.st14{fill:#F4F5F7;}
	.st15{fill:#525252;}
	.st16{fill:#BABABA;}
	.st17{fill:#CFCCCE;}
	.st18{fill:#505050;}
	.st19{fill:#626365;}
	.st20{opacity:0.2;fill:#686868;}
	.st21{fill:#FFCB05;}
	.st22{fill:#B78B00;}
	.st23{fill-rule:evenodd;clip-rule:evenodd;fill:#EA6A67;}
	.st24{fill-rule:evenodd;clip-rule:evenodd;fill:#E84F53;}
	.st25{fill-rule:evenodd;clip-rule:evenodd;fill:#F0A6A4;}
	.st26{fill-rule:evenodd;clip-rule:evenodd;fill:#4F5059;}
	.st27{fill-rule:evenodd;clip-rule:evenodd;fill:#EBEEF3;}
	.st28{fill-rule:evenodd;clip-rule:evenodd;fill:#FAFAFC;}
	.st29{fill-rule:evenodd;clip-rule:evenodd;fill:#E2E5EA;}
</style>
<g>
	<defs>
		<filter id="Adobe_OpacityMaskFilter" filterUnits="userSpaceOnUse" x="77.2" y="53.7" width="99.8" height="90.4">
			<feFlood  style="flood-color:white;flood-opacity:1" result="back"/>
			<feBlend  in="SourceGraphic" in2="back" mode="normal"/>
		</filter>
	</defs>
	<mask maskUnits="userSpaceOnUse" x="77.2" y="53.7" width="99.8" height="90.4" id="SVGID_1_">
		<g class="st0">
			<defs>
				
					<filter id="Adobe_OpacityMaskFilter_00000053541552968022019730000009938696052207883176_" filterUnits="userSpaceOnUse" x="77.2" y="53.7" width="99.8" height="90.4">
					<feFlood  style="flood-color:white;flood-opacity:1" result="back"/>
					<feBlend  in="SourceGraphic" in2="back" mode="normal"/>
				</filter>
			</defs>
			<mask maskUnits="userSpaceOnUse" x="77.2" y="53.7" width="99.8" height="90.4" id="SVGID_1_">
				<g style="filter:url(#Adobe_OpacityMaskFilter_00000053541552968022019730000009938696052207883176_);">
				</g>
			</mask>
			
				<linearGradient id="SVGID_00000080896071047785271700000011007886285295659653_" gradientUnits="userSpaceOnUse" x1="77.1967" y1="98.8972" x2="176.995" y2="98.8972">
				<stop  offset="0" style="stop-color:#FFFFFF"/>
				<stop  offset="1" style="stop-color:#000000"/>
			</linearGradient>
			<path style="mask:url(#SVGID_1_);fill:url(#SVGID_00000080896071047785271700000011007886285295659653_);" d="M101.3,53.7H77.2
				l71.1,41c3.2,1.9,3.2,6.5,0,8.3l-71.1,41h24.1c2.3,0,4.7-0.6,6.7-1.8l65.9-38.1c4.1-2.4,4.1-8.3,0-10.7L108,55.5
				C105.9,54.3,103.6,53.7,101.3,53.7z"/>
		</g>
	</mask>
	
		<linearGradient id="SVGID_00000025412339339996601510000016726874839305999232_" gradientUnits="userSpaceOnUse" x1="77.1967" y1="98.8972" x2="176.995" y2="98.8972">
		<stop  offset="1.032873e-03" style="stop-color:#CED2DA"/>
		<stop  offset="1" style="stop-color:#F5F5F5"/>
	</linearGradient>
	<path style="fill:url(#SVGID_00000025412339339996601510000016726874839305999232_);" d="M101.3,53.7H77.2l71.1,41
		c3.2,1.9,3.2,6.5,0,8.3l-71.1,41h24.1c2.3,0,4.7-0.6,6.7-1.8l65.9-38.1c4.1-2.4,4.1-8.3,0-10.7L108,55.5
		C105.9,54.3,103.6,53.7,101.3,53.7z"/>
	<g>
		<path class="st4" d="M154,99.7c-0.1-1.9-1.5-3.8-4.2-5.3L86.3,57.8c-5-2.9-12.6-3.2-17-0.7l-66,38.1c-2.1,1.2-3,2.8-2.9,4.5
			c0.1,1.9,1.5,3.8,4.2,5.3l63.6,36.7c5,2.9,12.6,3.2,17,0.7l66-38.1C153.2,103.1,154.1,101.4,154,99.7z"/>
		
			<linearGradient id="SVGID_00000023268529072633766050000004755424471770901435_" gradientUnits="userSpaceOnUse" x1="152.4672" y1="110.3634" x2="-0.67" y2="110.3634">
			<stop  offset="0.3962" style="stop-color:#D4D8FD"/>
			<stop  offset="0.6076" style="stop-color:#F3F4FF"/>
		</linearGradient>
		<path style="fill:url(#SVGID_00000023268529072633766050000004755424471770901435_);" d="M154,98.4L154,98.4l0-6.3l-25.8,12.5
			L86.3,80.4c-5-2.9-12.6-3.2-17-0.7l-43.1,24.9L0.3,92.1v5.8c0,0.2,0,0.3,0,0.5c0.1,1.9,1.5,3.8,4.2,5.3l63.6,36.7
			c2.6,1.5,5.9,2.3,9.1,2.4l0,0l0,0c3,0.1,5.8-0.5,7.9-1.7l66-38.1C153.2,101.7,154.1,100.1,154,98.4z"/>
		<path class="st6" d="M154,92.1c-0.1-1.9-1.5-3.8-4.2-5.3L86.3,50.1c-5-2.9-12.6-3.2-17-0.7l-66,38.1c-2.1,1.2-3,2.8-2.9,4.5
			c0.1,1.9,1.5,3.8,4.2,5.3L68.1,134c5,2.9,12.6,3.2,17,0.7l66-38.1C153.2,95.4,154.1,93.7,154,92.1z"/>
		
			<linearGradient id="SVGID_00000110433150679649539660000007202652500616277896_" gradientUnits="userSpaceOnUse" x1="0.3385" y1="91.504" x2="154.0468" y2="91.504">
			<stop  offset="0" style="stop-color:#FDFDFF"/>
			<stop  offset="1" style="stop-color:#FCFCFF"/>
		</linearGradient>
		<path style="fill:url(#SVGID_00000110433150679649539660000007202652500616277896_);" d="M154,91.5c-0.1-1.9-1.5-3.8-4.2-5.3
			L86.3,49.5c-5-2.9-12.6-3.2-17-0.7L3.3,87c-2.1,1.2-3,2.8-2.9,4.5c0.1,1.9,1.5,3.8,4.2,5.3l63.6,36.7c5,2.9,12.6,3.2,17,0.7
			l66-38.1C153.2,94.8,154.1,93.2,154,91.5z"/>
		<g class="st8">
			<path class="st6" d="M31.2,90.3c0.4,0.2,0.4,0.6,0,0.9c-0.4,0.2-1.1,0.2-1.5,0c-0.4-0.2-0.4-0.6,0-0.9
				C30.1,90.1,30.8,90.1,31.2,90.3z"/>
			<path class="st6" d="M39.2,85.7c0.4,0.2,0.4,0.6,0,0.9c-0.4,0.2-1.1,0.2-1.5,0c-0.4-0.2-0.4-0.6,0-0.9S38.8,85.5,39.2,85.7z"/>
			<path class="st6" d="M47.2,81.1c0.4,0.2,0.4,0.6,0,0.9s-1.1,0.2-1.5,0c-0.4-0.2-0.4-0.6,0-0.9C46.1,80.9,46.7,80.9,47.2,81.1z"/>
			<path class="st6" d="M55.2,76.5c0.4,0.2,0.4,0.6,0,0.9c-0.4,0.2-1.1,0.2-1.5,0c-0.4-0.2-0.4-0.6,0-0.9
				C54.1,76.2,54.7,76.2,55.2,76.5z"/>
			<path class="st6" d="M39.2,95c0.4,0.2,0.4,0.6,0,0.9c-0.4,0.2-1.1,0.2-1.5,0c-0.4-0.2-0.4-0.6,0-0.9C38.1,94.7,38.8,94.7,39.2,95
				z"/>
			<path class="st6" d="M47.2,90.3c0.4,0.2,0.4,0.6,0,0.9c-0.4,0.2-1.1,0.2-1.5,0s-0.4-0.6,0-0.9C46.1,90.1,46.7,90.1,47.2,90.3z"/>
			<path class="st6" d="M55.2,85.7c0.4,0.2,0.4,0.6,0,0.9c-0.4,0.2-1.1,0.2-1.5,0c-0.4-0.2-0.4-0.6,0-0.9
				C54.1,85.5,54.7,85.5,55.2,85.7z"/>
			<path class="st6" d="M63.2,81.1c0.4,0.2,0.4,0.6,0,0.9c-0.4,0.2-1.1,0.2-1.5,0c-0.4-0.2-0.4-0.6,0-0.9
				C62.1,80.9,62.7,80.9,63.2,81.1z"/>
			<path class="st6" d="M47.2,99.6c0.4,0.2,0.4,0.6,0,0.9c-0.4,0.2-1.1,0.2-1.5,0c-0.4-0.2-0.4-0.6,0-0.9
				C46.1,99.3,46.7,99.3,47.2,99.6z"/>
			<path class="st6" d="M55.2,95c0.4,0.2,0.4,0.6,0,0.9c-0.4,0.2-1.1,0.2-1.5,0c-0.4-0.2-0.4-0.6,0-0.9C54.1,94.7,54.7,94.7,55.2,95
				z"/>
			<path class="st6" d="M63.2,90.3c0.4,0.2,0.4,0.6,0,0.9c-0.4,0.2-1.1,0.2-1.5,0s-0.4-0.6,0-0.9C62.1,90.1,62.7,90.1,63.2,90.3z"/>
			<path class="st6" d="M71.2,85.7c0.4,0.2,0.4,0.6,0,0.9c-0.4,0.2-1.1,0.2-1.5,0s-0.4-0.6,0-0.9C70.1,85.5,70.7,85.5,71.2,85.7z"/>
			<path class="st6" d="M55.2,104.2c0.4,0.2,0.4,0.6,0,0.9c-0.4,0.2-1.1,0.2-1.5,0c-0.4-0.2-0.4-0.6,0-0.9
				C54.1,104,54.7,104,55.2,104.2z"/>
			<path class="st6" d="M63.2,99.6c0.4,0.2,0.4,0.6,0,0.9c-0.4,0.2-1.1,0.2-1.5,0c-0.4-0.2-0.4-0.6,0-0.9
				C62.1,99.3,62.7,99.3,63.2,99.6z"/>
			<path class="st6" d="M71.2,95c0.4,0.2,0.4,0.6,0,0.9c-0.4,0.2-1.1,0.2-1.5,0c-0.4-0.2-0.4-0.6,0-0.9C70.1,94.7,70.7,94.7,71.2,95
				z"/>
			<path class="st6" d="M79.2,90.3c0.4,0.2,0.4,0.6,0,0.9c-0.4,0.2-1.1,0.2-1.5,0c-0.4-0.2-0.4-0.6,0-0.9
				C78.1,90.1,78.7,90.1,79.2,90.3z"/>
			<path class="st6" d="M63.2,108.8c0.4,0.2,0.4,0.6,0,0.9s-1.1,0.2-1.5,0c-0.4-0.2-0.4-0.6,0-0.9C62.1,108.6,62.7,108.6,63.2,108.8
				z"/>
			<path class="st6" d="M71.2,104.2c0.4,0.2,0.4,0.6,0,0.9c-0.4,0.2-1.1,0.2-1.5,0c-0.4-0.2-0.4-0.6,0-0.9
				C70.1,104,70.7,104,71.2,104.2z"/>
			<path class="st6" d="M79.2,99.6c0.4,0.2,0.4,0.6,0,0.9c-0.4,0.2-1.1,0.2-1.5,0c-0.4-0.2-0.4-0.6,0-0.9
				C78.1,99.3,78.7,99.3,79.2,99.6z"/>
			<path class="st6" d="M87.2,95c0.4,0.2,0.4,0.6,0,0.9c-0.4,0.2-1.1,0.2-1.5,0c-0.4-0.2-0.4-0.6,0-0.9C86.1,94.7,86.7,94.7,87.2,95
				z"/>
			<path class="st6" d="M87.2,95c0.4,0.2,0.4,0.6,0,0.9c-0.4,0.2-1.1,0.2-1.5,0c-0.4-0.2-0.4-0.6,0-0.9C86.1,94.7,86.7,94.7,87.2,95
				z"/>
			<path class="st6" d="M63.2,71.9c0.4,0.2,0.4,0.6,0,0.9c-0.4,0.2-1.1,0.2-1.5,0c-0.4-0.2-0.4-0.6,0-0.9
				C62.1,71.6,62.7,71.6,63.2,71.9z"/>
			<path class="st6" d="M71.2,67.3c0.4,0.2,0.4,0.6,0,0.9c-0.4,0.2-1.1,0.2-1.5,0c-0.4-0.2-0.4-0.6,0-0.9C70.1,67,70.7,67,71.2,67.3
				z"/>
			<path class="st6" d="M79.2,62.6c0.4,0.2,0.4,0.6,0,0.9c-0.4,0.2-1.1,0.2-1.5,0c-0.4-0.2-0.4-0.6,0-0.9S78.7,62.4,79.2,62.6z"/>
			<path class="st6" d="M71.2,76.5c0.4,0.2,0.4,0.6,0,0.9c-0.4,0.2-1.1,0.2-1.5,0c-0.4-0.2-0.4-0.6,0-0.9
				C70.1,76.2,70.7,76.2,71.2,76.5z"/>
			<path class="st6" d="M79.2,71.9c0.4,0.2,0.4,0.6,0,0.9c-0.4,0.2-1.1,0.2-1.5,0c-0.4-0.2-0.4-0.6,0-0.9
				C78.1,71.6,78.7,71.6,79.2,71.9z"/>
			<path class="st6" d="M87.2,67.3c0.4,0.2,0.4,0.6,0,0.9c-0.4,0.2-1.1,0.2-1.5,0c-0.4-0.2-0.4-0.6,0-0.9C86.1,67,86.7,67,87.2,67.3
				z"/>
			<path class="st6" d="M79.2,81.1c0.4,0.2,0.4,0.6,0,0.9c-0.4,0.2-1.1,0.2-1.5,0c-0.4-0.2-0.4-0.6,0-0.9
				C78.1,80.9,78.7,80.9,79.2,81.1z"/>
			<path class="st6" d="M87.2,76.5c0.4,0.2,0.4,0.6,0,0.9c-0.4,0.2-1.1,0.2-1.5,0c-0.4-0.2-0.4-0.6,0-0.9
				C86.1,76.2,86.7,76.2,87.2,76.5z"/>
			<path class="st6" d="M95.1,71.9c0.4,0.2,0.4,0.6,0,0.9c-0.4,0.2-1.1,0.2-1.5,0c-0.4-0.2-0.4-0.6,0-0.9
				C94.1,71.6,94.7,71.6,95.1,71.9z"/>
			<path class="st6" d="M87.2,85.7c0.4,0.2,0.4,0.6,0,0.9c-0.4,0.2-1.1,0.2-1.5,0c-0.4-0.2-0.4-0.6,0-0.9
				C86.1,85.5,86.7,85.5,87.2,85.7z"/>
			<path class="st6" d="M95.1,81.1c0.4,0.2,0.4,0.6,0,0.9c-0.4,0.2-1.1,0.2-1.5,0c-0.4-0.2-0.4-0.6,0-0.9
				C94.1,80.9,94.7,80.9,95.1,81.1z"/>
			<path class="st6" d="M103.1,76.5c0.4,0.2,0.4,0.6,0,0.9c-0.4,0.2-1.1,0.2-1.5,0c-0.4-0.2-0.4-0.6,0-0.9
				C102.1,76.2,102.7,76.2,103.1,76.5z"/>
			<path class="st6" d="M95.1,90.3c0.4,0.2,0.4,0.6,0,0.9c-0.4,0.2-1.1,0.2-1.5,0c-0.4-0.2-0.4-0.6,0-0.9
				C94.1,90.1,94.7,90.1,95.1,90.3z"/>
			<path class="st6" d="M103.1,85.7c0.4,0.2,0.4,0.6,0,0.9c-0.4,0.2-1.1,0.2-1.5,0c-0.4-0.2-0.4-0.6,0-0.9
				C102.1,85.5,102.7,85.5,103.1,85.7z"/>
			<path class="st6" d="M111.1,81.1c0.4,0.2,0.4,0.6,0,0.9c-0.4,0.2-1.1,0.2-1.5,0c-0.4-0.2-0.4-0.6,0-0.9
				C110.1,80.9,110.7,80.9,111.1,81.1z"/>
			<path class="st6" d="M71.2,113.4c0.4,0.2,0.4,0.6,0,0.9c-0.4,0.2-1.1,0.2-1.5,0c-0.4-0.2-0.4-0.6,0-0.9
				C70.1,113.2,70.7,113.2,71.2,113.4z"/>
			<path class="st6" d="M79.2,108.8c0.4,0.2,0.4,0.6,0,0.9c-0.4,0.2-1.1,0.2-1.5,0c-0.4-0.2-0.4-0.6,0-0.9
				C78.1,108.6,78.7,108.6,79.2,108.8z"/>
			<path class="st6" d="M87.2,104.2c0.4,0.2,0.4,0.6,0,0.9c-0.4,0.2-1.1,0.2-1.5,0c-0.4-0.2-0.4-0.6,0-0.9
				C86.1,104,86.7,104,87.2,104.2z"/>
			<path class="st6" d="M95.1,99.6c0.4,0.2,0.4,0.6,0,0.9c-0.4,0.2-1.1,0.2-1.5,0c-0.4-0.2-0.4-0.6,0-0.9
				C94.1,99.3,94.7,99.3,95.1,99.6z"/>
			<path class="st6" d="M79.2,118c0.4,0.2,0.4,0.6,0,0.9c-0.4,0.2-1.1,0.2-1.5,0c-0.4-0.2-0.4-0.6,0-0.9
				C78.1,117.8,78.7,117.8,79.2,118z"/>
			<path class="st6" d="M87.2,113.4c0.4,0.2,0.4,0.6,0,0.9s-1.1,0.2-1.5,0c-0.4-0.2-0.4-0.6,0-0.9C86.1,113.2,86.7,113.2,87.2,113.4
				z"/>
			<path class="st6" d="M95.1,108.8c0.4,0.2,0.4,0.6,0,0.9c-0.4,0.2-1.1,0.2-1.5,0c-0.4-0.2-0.4-0.6,0-0.9
				C94.1,108.6,94.7,108.6,95.1,108.8z"/>
			<path class="st6" d="M103.1,104.2c0.4,0.2,0.4,0.6,0,0.9c-0.4,0.2-1.1,0.2-1.5,0c-0.4-0.2-0.4-0.6,0-0.9
				C102.1,104,102.7,104,103.1,104.2z"/>
			<path class="st6" d="M103.1,95c0.4,0.2,0.4,0.6,0,0.9c-0.4,0.2-1.1,0.2-1.5,0s-0.4-0.6,0-0.9C102.1,94.7,102.7,94.7,103.1,95z"/>
			<path class="st6" d="M111.1,90.3c0.4,0.2,0.4,0.6,0,0.9c-0.4,0.2-1.1,0.2-1.5,0c-0.4-0.2-0.4-0.6,0-0.9S110.7,90.1,111.1,90.3z"
				/>
			<path class="st6" d="M119.1,85.7c0.4,0.2,0.4,0.6,0,0.9c-0.4,0.2-1.1,0.2-1.5,0c-0.4-0.2-0.4-0.6,0-0.9
				C118.1,85.5,118.7,85.5,119.1,85.7z"/>
			<path class="st6" d="M111.1,99.6c0.4,0.2,0.4,0.6,0,0.9c-0.4,0.2-1.1,0.2-1.5,0c-0.4-0.2-0.4-0.6,0-0.9
				C110.1,99.3,110.7,99.3,111.1,99.6z"/>
			<path class="st6" d="M119.1,95c0.4,0.2,0.4,0.6,0,0.9c-0.4,0.2-1.1,0.2-1.5,0c-0.4-0.2-0.4-0.6,0-0.9
				C118.1,94.7,118.7,94.7,119.1,95z"/>
			<path class="st6" d="M127.1,90.3c0.4,0.2,0.4,0.6,0,0.9c-0.4,0.2-1.1,0.2-1.5,0c-0.4-0.2-0.4-0.6,0-0.9
				C126.1,90.1,126.7,90.1,127.1,90.3z"/>
		</g>
	</g>
</g>
<g>
	<g id="Laptop_1_">
		<path id="XMLID_232_" class="st9" d="M134.1,84.5L134.1,84.5L134.1,84.5c0-0.6-0.3-1.1-0.9-1.5L92.7,60.3c-0.5-0.3-1.2-0.3-1.7,0
			L26,97.8c-0.5,0.3-0.8,0.8-0.8,1.4l0,0v1.8l0,0c0,0.5,0.3,1.1,0.8,1.4l39.7,22.9c0.5,0.3,1.2,0.3,1.7,0l65.9-37.7
			c0.6-0.3,0.8-0.9,0.8-1.4l0,0v0c0,0,0,0,0,0L134.1,84.5L134.1,84.5z"/>
		<g id="Laptop">
			<g id="XMLID_171_">
				<path id="XMLID_166_" class="st10" d="M91,4.3c0-0.6-0.3-1.1-0.8-1.3l-1.7-1c-0.6-0.3-1.3-0.3-1.9,0L24.8,37.5
					C24.3,37.8,24,38.4,24,39v54.8c0,1.3,1.4,2.1,2.6,1.5l63.8-36.8c0.5-0.3,0.9-0.9,0.9-1.5L91,4.3z"/>
				<path id="XMLID_165_" class="st11" d="M91,4.5c0-1.2-1.4-2-2.4-1.4L28.2,37.6c-0.5,0.3-0.8,0.8-0.8,1.4v51.6
					c0,1.2,1.4,2,2.4,1.4l60.6-34.7c0.5-0.3,0.8-0.8,0.8-1.4L91,4.5z"/>
				
					<linearGradient id="XMLID_00000147930385178912972650000014697566803330342839_" gradientUnits="userSpaceOnUse" x1="61.3677" y1="54.0905" x2="47.8128" y2="0.5186">
					<stop  offset="0" style="stop-color:#E3EFF7"/>
					<stop  offset="1" style="stop-color:#CCE6EF"/>
				</linearGradient>
				<polygon id="XMLID_164_" style="fill:url(#XMLID_00000147930385178912972650000014697566803330342839_);" points="32.4,41.2 
					32.4,88.1 87.6,56.8 87.6,9.3 				"/>
			</g>
			<g id="XMLID_178_">
				<g id="XMLID_167_">
					<path id="XMLID_170_" class="st13" d="M132.3,82.8c-0.1-0.2-0.3-0.3-0.5-0.4L92,60c-0.5-0.3-1.1-0.3-1.6,0L26.5,96.9
						c-0.1,0.1-0.2,0.1-0.3,0.2l-0.6-0.4v1.7l0,0c0,0.5,0.3,1,0.8,1.3l39,22.5c0.5,0.3,1.1,0.3,1.6,0l64.7-37
						c0.5-0.3,0.8-0.9,0.8-1.4l0,0v0c0,0,0,0,0,0l0-1.6L132.3,82.8z"/>
					<path id="XMLID_169_" class="st14" d="M131.8,80.9L92,58.5c-0.5-0.3-1.1-0.3-1.6,0L26.5,95.4c-1.1,0.6-1.1,2.2,0,2.9l39,22.5
						c0.5,0.3,1.1,0.3,1.6,0l64.7-37C132.9,83.1,132.9,81.5,131.8,80.9z"/>
					<path id="XMLID_168_" class="st15" d="M29,100.1l-1.1-0.6c-0.1,0-0.2,0-0.2,0.1v0.5c0,0,0,0.1,0.1,0.1l1.1,0.6
						c0.1,0,0.2,0,0.2-0.1v-0.5C29,100.2,29,100.2,29,100.1z"/>
				</g>
				<g id="XMLID_160_">
					<path id="XMLID_162_" class="st16" d="M107.6,94.7l-10.6-6.2c-0.2-0.1-0.5-0.1-0.7,0l-16,9.3c-0.5,0.3-0.5,0.9,0,1.2l10.6,6.1
						c0.2,0.1,0.5,0.1,0.7,0l16-9.1C108,95.6,108,94.9,107.6,94.7z"/>
					<path id="XMLID_161_" class="st17" d="M107.6,94.8l-10.6-6.2c-0.2-0.1-0.5-0.1-0.7,0l-16,9.3c-0.5,0.3-0.5,0.9,0,1.2l10.6,6.1
						c0.2,0.1,0.5,0.1,0.7,0l16-9.1C108,95.8,108,95.1,107.6,94.8z"/>
				</g>
				<g id="XMLID_6_">
					<g id="XMLID_157_">
						<path id="XMLID_159_" class="st18" d="M61.7,105.8l-3.3-1.8c-0.1,0-0.2,0-0.2,0l-3.2,1.9c-0.2,0.1-0.2,0.3,0,0.4l3.1,1.8
							c0.1,0,0.2,0,0.2,0l3.4-1.9C61.9,106.1,61.9,105.8,61.7,105.8z"/>
						<path id="XMLID_158_" class="st19" d="M61.7,105.6l-3.3-1.8c-0.1,0-0.2,0-0.2,0l-3.2,1.9c-0.2,0.1-0.2,0.3,0,0.4l3.1,1.8
							c0.1,0,0.2,0,0.2,0l3.4-1.9C61.8,106,61.8,105.7,61.7,105.6z"/>
					</g>
					<g id="XMLID_154_">
						<path id="XMLID_156_" class="st18" d="M66.3,103.2l-3.3-1.8c-0.1,0-0.2,0-0.2,0l-3.2,1.9c-0.2,0.1-0.2,0.3,0,0.4l3.1,1.8
							c0.1,0,0.2,0,0.2,0l3.4-1.9C66.4,103.5,66.4,103.2,66.3,103.2z"/>
						<path id="XMLID_155_" class="st19" d="M66.2,103l-3.3-1.8c-0.1,0-0.2,0-0.2,0l-3.2,1.9c-0.2,0.1-0.2,0.3,0,0.4l3.1,1.8
							c0.1,0,0.2,0,0.2,0l3.4-1.9C66.4,103.4,66.4,103.1,66.2,103z"/>
					</g>
					<g id="XMLID_151_">
						<path id="XMLID_153_" class="st18" d="M64.5,99l-3.3-1.8c-0.1,0-0.2,0-0.2,0l-3.2,1.9c-0.2,0.1-0.2,0.3,0,0.4l3.1,1.8
							c0.1,0,0.2,0,0.2,0l3.4-1.9C64.7,99.3,64.6,99.1,64.5,99z"/>
						<path id="XMLID_152_" class="st19" d="M64.5,98.9l-3.3-1.8c-0.1,0-0.2,0-0.2,0L57.8,99c-0.2,0.1-0.2,0.3,0,0.4l3.1,1.8
							c0.1,0,0.2,0,0.2,0l3.4-1.9C64.6,99.2,64.6,99,64.5,98.9z"/>
					</g>
					<g id="XMLID_148_">
						<path id="XMLID_150_" class="st18" d="M69.4,96l-3.3-1.8c-0.1,0-0.2,0-0.2,0l-3.2,1.9c-0.2,0.1-0.2,0.3,0,0.4l3.1,1.8
							c0.1,0,0.2,0,0.2,0l3.4-1.9C69.6,96.3,69.6,96.1,69.4,96z"/>
						<path id="XMLID_149_" class="st19" d="M69.4,95.9l-3.3-1.8c-0.1,0-0.2,0-0.2,0L62.7,96c-0.2,0.1-0.2,0.3,0,0.4l3.1,1.8
							c0.1,0,0.2,0,0.2,0l3.4-1.9C69.6,96.2,69.6,96,69.4,95.9z"/>
					</g>
					<g id="XMLID_145_">
						<path id="XMLID_147_" class="st18" d="M74.2,93.2l-3.3-1.8c-0.1,0-0.2,0-0.2,0l-3.2,1.9c-0.2,0.1-0.2,0.3,0,0.4l3.1,1.8
							c0.1,0,0.2,0,0.2,0l3.4-1.9C74.3,93.5,74.3,93.3,74.2,93.2z"/>
						<path id="XMLID_146_" class="st19" d="M74.2,93.1l-3.3-1.8c-0.1,0-0.2,0-0.2,0l-3.2,1.9c-0.2,0.1-0.2,0.3,0,0.4l3.1,1.8
							c0.1,0,0.2,0,0.2,0l3.4-1.9C74.3,93.4,74.3,93.2,74.2,93.1z"/>
					</g>
					<g id="XMLID_142_">
						<path id="XMLID_144_" class="st18" d="M79.2,90.4L76,88.6c-0.1,0-0.2,0-0.2,0l-3.2,1.9c-0.2,0.1-0.2,0.3,0,0.4l3.1,1.8
							c0.1,0,0.2,0,0.2,0l3.4-1.9C79.4,90.7,79.4,90.5,79.2,90.4z"/>
						<path id="XMLID_143_" class="st19" d="M79.2,90.3l-3.3-1.8c-0.1,0-0.2,0-0.2,0l-3.2,1.9c-0.2,0.1-0.2,0.3,0,0.4l3.1,1.8
							c0.1,0,0.2,0,0.2,0l3.4-1.9C79.4,90.6,79.4,90.4,79.2,90.3z"/>
					</g>
					<g id="XMLID_139_">
						<path id="XMLID_141_" class="st18" d="M60.9,95.7l-3.3-1.8c-0.1,0-0.2,0-0.2,0l-3.2,1.9c-0.2,0.1-0.2,0.3,0,0.4l3.1,1.8
							c0.1,0,0.2,0,0.2,0l3.4-1.9C61,96,61,95.8,60.9,95.7z"/>
						<path id="XMLID_140_" class="st19" d="M60.9,95.6l-3.3-1.8c-0.1,0-0.2,0-0.2,0l-3.2,1.9c-0.2,0.1-0.2,0.3,0,0.4l3.1,1.8
							c0.1,0,0.2,0,0.2,0l3.4-1.9C61,95.9,61,95.7,60.9,95.6z"/>
					</g>
					<g id="XMLID_136_">
						<path id="XMLID_138_" class="st18" d="M65.8,92.7l-3.3-1.8c-0.1,0-0.2,0-0.2,0l-3.2,1.9c-0.2,0.1-0.2,0.3,0,0.4l3.1,1.8
							c0.1,0,0.2,0,0.2,0l3.4-1.9C66,93,66,92.8,65.8,92.7z"/>
						<path id="XMLID_137_" class="st19" d="M65.8,92.6l-3.3-1.8c-0.1,0-0.2,0-0.2,0l-3.2,1.9c-0.2,0.1-0.2,0.3,0,0.4l3.1,1.8
							c0.1,0,0.2,0,0.2,0l3.4-1.9C66,92.9,66,92.7,65.8,92.6z"/>
					</g>
					<g id="XMLID_133_">
						<path id="XMLID_135_" class="st18" d="M70.6,89.9l-3.3-1.8c-0.1,0-0.2,0-0.2,0L63.9,90c-0.2,0.1-0.2,0.3,0,0.4l3.1,1.8
							c0.1,0,0.2,0,0.2,0l3.4-1.9C70.7,90.2,70.7,90,70.6,89.9z"/>
						<path id="XMLID_134_" class="st19" d="M70.5,89.8L67.3,88c-0.1,0-0.2,0-0.2,0l-3.2,1.9c-0.2,0.1-0.2,0.3,0,0.4l3.1,1.8
							c0.1,0,0.2,0,0.2,0l3.4-1.9C70.7,90.1,70.7,89.8,70.5,89.8z"/>
					</g>
					<g id="XMLID_130_">
						<path id="XMLID_132_" class="st18" d="M75.6,87.1l-3.3-1.8c-0.1,0-0.2,0-0.2,0L69,87.2c-0.2,0.1-0.2,0.3,0,0.4l3.1,1.8
							c0.1,0,0.2,0,0.2,0l3.4-1.9C75.8,87.4,75.8,87.2,75.6,87.1z"/>
						<path id="XMLID_131_" class="st19" d="M75.6,87l-3.3-1.8c-0.1,0-0.2,0-0.2,0l-3.2,1.9c-0.2,0.1-0.2,0.3,0,0.4l3.1,1.8
							c0.1,0,0.2,0,0.2,0l3.4-1.9C75.8,87.3,75.8,87.1,75.6,87z"/>
					</g>
					<g id="XMLID_127_">
						<path id="XMLID_129_" class="st18" d="M80.5,84.2l-3.3-1.8c-0.1,0-0.2,0-0.2,0l-3.2,1.9c-0.2,0.1-0.2,0.3,0,0.4l3.1,1.8
							c0.1,0,0.2,0,0.2,0l3.4-1.9C80.6,84.5,80.6,84.3,80.5,84.2z"/>
						<path id="XMLID_128_" class="st19" d="M80.4,84.1l-3.3-1.8c-0.1,0-0.2,0-0.2,0l-3.2,1.9c-0.2,0.1-0.2,0.3,0,0.4l3.1,1.8
							c0.1,0,0.2,0,0.2,0l3.4-1.9C80.6,84.4,80.6,84.1,80.4,84.1z"/>
					</g>
					<g id="XMLID_124_">
						<path id="XMLID_126_" class="st18" d="M85.4,81.2l-3.3-1.8c-0.1,0-0.2,0-0.2,0l-3.2,1.9c-0.2,0.1-0.2,0.3,0,0.4l3.1,1.8
							c0.1,0,0.2,0,0.2,0l3.4-1.9C85.6,81.5,85.6,81.2,85.4,81.2z"/>
						<path id="XMLID_125_" class="st19" d="M85.4,81l-3.3-1.8c-0.1,0-0.2,0-0.2,0l-3.2,1.9c-0.2,0.1-0.2,0.3,0,0.4l3.1,1.8
							c0.1,0,0.2,0,0.2,0l3.4-1.9C85.5,81.4,85.5,81.1,85.4,81z"/>
					</g>
					<g id="XMLID_121_">
						<path id="XMLID_123_" class="st18" d="M90.1,78.3l-3.3-1.8c-0.1,0-0.2,0-0.2,0l-3.2,1.9c-0.2,0.1-0.2,0.3,0,0.4l3.1,1.8
							c0.1,0,0.2,0,0.2,0l3.4-1.9C90.3,78.7,90.3,78.4,90.1,78.3z"/>
						<path id="XMLID_122_" class="st19" d="M90.1,78.2l-3.3-1.8c-0.1,0-0.2,0-0.2,0l-3.2,1.9c-0.2,0.1-0.2,0.3,0,0.4l3.1,1.8
							c0.1,0,0.2,0,0.2,0l3.4-1.9C90.3,78.5,90.3,78.3,90.1,78.2z"/>
					</g>
					<g id="XMLID_118_">
						<path id="XMLID_120_" class="st18" d="M88.9,73.8L85.6,72c-0.1,0-0.2,0-0.2,0l-3.2,1.9c-0.2,0.1-0.2,0.3,0,0.4l3.1,1.8
							c0.1,0,0.2,0,0.2,0l3.4-1.9C89,74.1,89,73.9,88.9,73.8z"/>
						<path id="XMLID_119_" class="st19" d="M88.8,73.7l-3.3-1.8c-0.1,0-0.2,0-0.2,0l-3.2,1.9c-0.2,0.1-0.2,0.3,0,0.4l3.1,1.8
							c0.1,0,0.2,0,0.2,0l3.4-1.9C89,74,89,73.7,88.8,73.7z"/>
					</g>
					<g id="XMLID_115_">
						<path id="XMLID_117_" class="st18" d="M93.4,70.7l-3.3-1.8c-0.1,0-0.2,0-0.2,0l-3.2,1.9c-0.2,0.1-0.2,0.3,0,0.4l3.1,1.8
							c0.1,0,0.2,0,0.2,0l3.4-1.9C93.6,71.1,93.6,70.8,93.4,70.7z"/>
						<path id="XMLID_116_" class="st19" d="M93.4,70.6l-3.3-1.8c-0.1,0-0.2,0-0.2,0l-3.2,1.9c-0.2,0.1-0.2,0.3,0,0.4l3.1,1.8
							c0.1,0,0.2,0,0.2,0l3.4-1.9C93.6,70.9,93.6,70.7,93.4,70.6z"/>
					</g>
					<g id="XMLID_112_">
						<path id="XMLID_114_" class="st18" d="M84.7,70.6l-3.3-1.8c-0.1,0-0.2,0-0.2,0L78,70.8c-0.2,0.1-0.2,0.3,0,0.4l3.1,1.8
							c0.1,0,0.2,0,0.2,0l3.4-1.9C84.8,71,84.8,70.7,84.7,70.6z"/>
						<path id="XMLID_113_" class="st19" d="M84.7,70.5l-3.3-1.8c-0.1,0-0.2,0-0.2,0L78,70.6c-0.2,0.1-0.2,0.3,0,0.4l3.1,1.8
							c0.1,0,0.2,0,0.2,0l3.4-1.9C84.8,70.9,84.8,70.6,84.7,70.5z"/>
					</g>
					<g id="XMLID_109_">
						<path id="XMLID_111_" class="st18" d="M89.4,68.1l-3.3-1.8c-0.1,0-0.2,0-0.2,0l-3.2,1.9c-0.2,0.1-0.2,0.3,0,0.4l3.1,1.8
							c0.1,0,0.2,0,0.2,0l3.4-1.9C89.6,68.4,89.6,68.1,89.4,68.1z"/>
						<path id="XMLID_110_" class="st19" d="M89.4,67.9l-3.3-1.8c-0.1,0-0.2,0-0.2,0l-3.2,1.9c-0.2,0.1-0.2,0.3,0,0.4l3.1,1.8
							c0.1,0,0.2,0,0.2,0l3.4-1.9C89.6,68.3,89.6,68,89.4,67.9z"/>
					</g>
					<g id="XMLID_106_">
						<path id="XMLID_108_" class="st18" d="M54.4,94.2l-3.3-1.8c-0.1,0-0.2,0-0.2,0l-3.2,1.9c-0.2,0.1-0.2,0.3,0,0.4l3.1,1.8
							c0.1,0,0.2,0,0.2,0l3.4-1.9C54.6,94.5,54.6,94.3,54.4,94.2z"/>
						<path id="XMLID_107_" class="st19" d="M54.4,94.1l-3.3-1.8c-0.1,0-0.2,0-0.2,0l-3.2,1.9c-0.2,0.1-0.2,0.3,0,0.4l3.1,1.8
							c0.1,0,0.2,0,0.2,0l3.4-1.9C54.6,94.4,54.6,94.2,54.4,94.1z"/>
					</g>
					<g id="XMLID_103_">
						<path id="XMLID_105_" class="st18" d="M59.4,91.2l-3.3-1.8c-0.1,0-0.2,0-0.2,0l-3.2,1.9c-0.2,0.1-0.2,0.3,0,0.4l3.1,1.8
							c0.1,0,0.2,0,0.2,0l3.4-1.9C59.5,91.5,59.5,91.3,59.4,91.2z"/>
						<path id="XMLID_104_" class="st19" d="M59.4,91.1l-3.3-1.8c-0.1,0-0.2,0-0.2,0l-3.2,1.9c-0.2,0.1-0.2,0.3,0,0.4l3.1,1.8
							c0.1,0,0.2,0,0.2,0l3.4-1.9C59.5,91.4,59.5,91.2,59.4,91.1z"/>
					</g>
					<g id="XMLID_100_">
						<path id="XMLID_102_" class="st18" d="M64.1,88.4l-3.3-1.8c-0.1,0-0.2,0-0.2,0l-3.2,1.9c-0.2,0.1-0.2,0.3,0,0.4l3.1,1.8
							c0.1,0,0.2,0,0.2,0l3.4-1.9C64.3,88.7,64.3,88.5,64.1,88.4z"/>
						<path id="XMLID_101_" class="st19" d="M64.1,88.3l-3.3-1.8c-0.1,0-0.2,0-0.2,0l-3.2,1.9c-0.2,0.1-0.2,0.3,0,0.4l3.1,1.8
							c0.1,0,0.2,0,0.2,0l3.4-1.9C64.3,88.6,64.3,88.4,64.1,88.3z"/>
					</g>
					<g id="XMLID_97_">
						<path id="XMLID_99_" class="st18" d="M69.2,85.6l-3.3-1.8c-0.1,0-0.2,0-0.2,0l-3.2,1.9c-0.2,0.1-0.2,0.3,0,0.4l3.1,1.8
							c0.1,0,0.2,0,0.2,0l3.4-1.9C69.4,85.9,69.4,85.7,69.2,85.6z"/>
						<path id="XMLID_98_" class="st19" d="M69.2,85.5l-3.3-1.8c-0.1,0-0.2,0-0.2,0l-3.2,1.9c-0.2,0.1-0.2,0.3,0,0.4l3.1,1.8
							c0.1,0,0.2,0,0.2,0l3.4-1.9C69.4,85.8,69.3,85.6,69.2,85.5z"/>
					</g>
					<g id="XMLID_94_">
						<path id="XMLID_96_" class="st18" d="M74,82.7l-3.3-1.8c-0.1,0-0.2,0-0.2,0l-3.2,1.9c-0.2,0.1-0.2,0.3,0,0.4l3.1,1.8
							c0.1,0,0.2,0,0.2,0l3.4-1.9C74.2,83,74.2,82.8,74,82.7z"/>
						<path id="XMLID_95_" class="st19" d="M74,82.6l-3.3-1.8c-0.1,0-0.2,0-0.2,0l-3.2,1.9c-0.2,0.1-0.2,0.3,0,0.4l3.1,1.8
							c0.1,0,0.2,0,0.2,0L74,83C74.2,82.9,74.2,82.7,74,82.6z"/>
					</g>
					<g id="XMLID_91_">
						<path id="XMLID_93_" class="st18" d="M79,79.7l-3.3-1.8c-0.1,0-0.2,0-0.2,0l-3.2,1.9c-0.2,0.1-0.2,0.3,0,0.4l3.1,1.8
							c0.1,0,0.2,0,0.2,0l3.4-1.9C79.1,80,79.1,79.7,79,79.7z"/>
						<path id="XMLID_92_" class="st19" d="M78.9,79.5l-3.3-1.8c-0.1,0-0.2,0-0.2,0l-3.2,1.9c-0.2,0.1-0.2,0.3,0,0.4l3.1,1.8
							c0.1,0,0.2,0,0.2,0l3.4-1.9C79.1,79.9,79.1,79.6,78.9,79.5z"/>
					</g>
					<g id="XMLID_88_">
						<path id="XMLID_90_" class="st18" d="M83.7,76.8l-3.3-1.8c-0.1,0-0.2,0-0.2,0L77,77c-0.2,0.1-0.2,0.3,0,0.4l3.1,1.8
							c0.1,0,0.2,0,0.2,0l3.4-1.9C83.9,77.2,83.9,76.9,83.7,76.8z"/>
						<path id="XMLID_89_" class="st19" d="M83.7,76.7l-3.3-1.8c-0.1,0-0.2,0-0.2,0L77,76.8c-0.2,0.1-0.2,0.3,0,0.4l3.1,1.8
							c0.1,0,0.2,0,0.2,0l3.4-1.9C83.8,77.1,83.8,76.8,83.7,76.7z"/>
					</g>
					<g id="XMLID_85_">
						<path id="XMLID_87_" class="st18" d="M49.9,91.2l-3.3-1.8c-0.1,0-0.2,0-0.2,0l-3.2,1.9c-0.2,0.1-0.2,0.3,0,0.4l3.1,1.8
							c0.1,0,0.2,0,0.2,0l3.4-1.9C50.1,91.5,50.1,91.3,49.9,91.2z"/>
						<path id="XMLID_86_" class="st19" d="M49.9,91.1l-3.3-1.8c-0.1,0-0.2,0-0.2,0l-3.2,1.9c-0.2,0.1-0.2,0.3,0,0.4l3.1,1.8
							c0.1,0,0.2,0,0.2,0l3.4-1.9C50,91.4,50,91.2,49.9,91.1z"/>
					</g>
					<g id="XMLID_82_">
						<path id="XMLID_84_" class="st18" d="M54.8,88.2l-3.3-1.8c-0.1,0-0.2,0-0.2,0l-3.2,1.9c-0.2,0.1-0.2,0.3,0,0.4l3.1,1.8
							c0.1,0,0.2,0,0.2,0l3.4-1.9C55,88.5,55,88.3,54.8,88.2z"/>
						<path id="XMLID_83_" class="st19" d="M54.8,88.1l-3.3-1.8c-0.1,0-0.2,0-0.2,0l-3.2,1.9c-0.2,0.1-0.2,0.3,0,0.4l3.1,1.8
							c0.1,0,0.2,0,0.2,0l3.4-1.9C55,88.4,55,88.2,54.8,88.1z"/>
					</g>
					<g id="XMLID_79_">
						<path id="XMLID_81_" class="st18" d="M59.6,85.4l-3.3-1.8c-0.1,0-0.2,0-0.2,0l-3.2,1.9c-0.2,0.1-0.2,0.3,0,0.4l3.1,1.8
							c0.1,0,0.2,0,0.2,0l3.4-1.9C59.7,85.7,59.7,85.5,59.6,85.4z"/>
						<path id="XMLID_80_" class="st19" d="M59.6,85.3l-3.3-1.8c-0.1,0-0.2,0-0.2,0l-3.2,1.9c-0.2,0.1-0.2,0.3,0,0.4l3.1,1.8
							c0.1,0,0.2,0,0.2,0l3.4-1.9C59.7,85.6,59.7,85.3,59.6,85.3z"/>
					</g>
					<g id="XMLID_76_">
						<path id="XMLID_78_" class="st18" d="M64.7,82.6l-3.3-1.8c-0.1,0-0.2,0-0.2,0L58,82.7c-0.2,0.1-0.2,0.3,0,0.4l3.1,1.8
							c0.1,0,0.2,0,0.2,0l3.4-1.9C64.8,82.9,64.8,82.7,64.7,82.6z"/>
						<path id="XMLID_77_" class="st19" d="M64.6,82.5l-3.3-1.8c-0.1,0-0.2,0-0.2,0L58,82.6c-0.2,0.1-0.2,0.3,0,0.4l3.1,1.8
							c0.1,0,0.2,0,0.2,0l3.4-1.9C64.8,82.8,64.8,82.6,64.6,82.5z"/>
					</g>
					<g id="XMLID_73_">
						<path id="XMLID_75_" class="st18" d="M69.5,79.7l-3.3-1.8c-0.1,0-0.2,0-0.2,0l-3.2,1.9c-0.2,0.1-0.2,0.3,0,0.4l3.1,1.8
							c0.1,0,0.2,0,0.2,0l3.4-1.9C69.6,80,69.6,79.7,69.5,79.7z"/>
						<path id="XMLID_74_" class="st19" d="M69.5,79.5l-3.3-1.8c-0.1,0-0.2,0-0.2,0l-3.2,1.9c-0.2,0.1-0.2,0.3,0,0.4l3.1,1.8
							c0.1,0,0.2,0,0.2,0l3.4-1.9C69.6,79.9,69.6,79.6,69.5,79.5z"/>
					</g>
					<g id="XMLID_70_">
						<path id="XMLID_72_" class="st18" d="M74.4,76.6l-3.3-1.8c-0.1,0-0.2,0-0.2,0l-3.2,1.9c-0.2,0.1-0.2,0.3,0,0.4l3.1,1.8
							c0.1,0,0.2,0,0.2,0l3.4-1.9C74.6,77,74.6,76.7,74.4,76.6z"/>
						<path id="XMLID_71_" class="st19" d="M74.4,76.5l-3.3-1.8c-0.1,0-0.2,0-0.2,0l-3.2,1.9c-0.2,0.1-0.2,0.3,0,0.4l3.1,1.8
							c0.1,0,0.2,0,0.2,0l3.4-1.9C74.6,76.8,74.6,76.6,74.4,76.5z"/>
					</g>
					<g id="XMLID_67_">
						<path id="XMLID_69_" class="st18" d="M79.5,73.8L76.2,72c-0.1,0-0.2,0-0.2,0l-3.2,1.9c-0.2,0.1-0.2,0.3,0,0.4l3.1,1.8
							c0.1,0,0.2,0,0.2,0l3.4-1.9C79.7,74.1,79.7,73.9,79.5,73.8z"/>
						<path id="XMLID_68_" class="st19" d="M79.5,73.7l-3.3-1.8c-0.1,0-0.2,0-0.2,0l-3.2,1.9c-0.2,0.1-0.2,0.3,0,0.4l3.1,1.8
							c0.1,0,0.2,0,0.2,0l3.4-1.9C79.6,74,79.6,73.8,79.5,73.7z"/>
					</g>
					<g id="XMLID_64_">
						<path id="XMLID_66_" class="st18" d="M95.2,75.6l-3.3-1.8c-0.1,0-0.2,0-0.2,0l-3.2,1.9c-0.2,0.1-0.2,0.3,0,0.4l3.1,1.8
							c0.1,0,0.2,0,0.2,0l3.4-1.9C95.4,75.9,95.4,75.7,95.2,75.6z"/>
						<path id="XMLID_65_" class="st19" d="M95.2,75.5l-3.3-1.8c-0.1,0-0.2,0-0.2,0l-3.2,1.9c-0.2,0.1-0.2,0.3,0,0.4l3.1,1.8
							c0.1,0,0.2,0,0.2,0l3.4-1.9C95.4,75.8,95.4,75.6,95.2,75.5z"/>
					</g>
					<g id="XMLID_61_">
						<path id="XMLID_63_" class="st18" d="M99.5,72.8L96.2,71c-0.1,0-0.2,0-0.2,0l-3.2,1.9c-0.2,0.1-0.2,0.3,0,0.4l3.1,1.8
							c0.1,0,0.2,0,0.2,0l3.4-1.9C99.6,73.1,99.6,72.9,99.5,72.8z"/>
						<path id="XMLID_62_" class="st19" d="M99.4,72.7l-3.3-1.8c-0.1,0-0.2,0-0.2,0l-3.2,1.9c-0.2,0.1-0.2,0.3,0,0.4l3.1,1.8
							c0.1,0,0.2,0,0.2,0l3.4-1.9C99.6,73,99.6,72.7,99.4,72.7z"/>
					</g>
					<g id="XMLID_58_">
						<path id="XMLID_60_" class="st18" d="M105.1,75.2l-3.3-1.8c-0.1,0-0.2,0-0.2,0l-3.2,1.9c-0.2,0.1-0.2,0.3,0,0.4l3.1,1.8
							c0.1,0,0.2,0,0.2,0l3.4-1.9C105.3,75.5,105.3,75.3,105.1,75.2z"/>
						<path id="XMLID_59_" class="st19" d="M105.1,75.1l-3.3-1.8c-0.1,0-0.2,0-0.2,0l-3.2,1.9c-0.2,0.1-0.2,0.3,0,0.4l3.1,1.8
							c0.1,0,0.2,0,0.2,0l3.4-1.9C105.3,75.4,105.3,75.2,105.1,75.1z"/>
					</g>
					<g id="XMLID_55_">
						<path id="XMLID_57_" class="st18" d="M84.2,87.4l-3.3-1.8c-0.1,0-0.2,0-0.2,0l-3.2,1.9c-0.2,0.1-0.2,0.3,0,0.4l3.1,1.8
							c0.1,0,0.2,0,0.2,0l3.4-1.9C84.3,87.7,84.3,87.5,84.2,87.4z"/>
						<path id="XMLID_56_" class="st19" d="M84.2,87.3l-3.3-1.8c-0.1,0-0.2,0-0.2,0l-3.2,1.9c-0.2,0.1-0.2,0.3,0,0.4l3.1,1.8
							c0.1,0,0.2,0,0.2,0l3.4-1.9C84.3,87.6,84.3,87.4,84.2,87.3z"/>
					</g>
					<g id="XMLID_52_">
						<path id="XMLID_54_" class="st18" d="M88.9,84.6l-3.3-1.8c-0.1,0-0.2,0-0.2,0l-3.2,1.9c-0.2,0.1-0.2,0.3,0,0.4l3.1,1.8
							c0.1,0,0.2,0,0.2,0l3.4-1.9C89.1,84.9,89.1,84.7,88.9,84.6z"/>
						<path id="XMLID_53_" class="st19" d="M88.9,84.5l-3.3-1.8c-0.1,0-0.2,0-0.2,0l-3.2,1.9c-0.2,0.1-0.2,0.3,0,0.4l3.1,1.8
							c0.1,0,0.2,0,0.2,0l3.4-1.9C89,84.8,89,84.6,88.9,84.5z"/>
					</g>
					<g id="XMLID_49_">
						<path id="XMLID_51_" class="st18" d="M93.4,81.9l-3.3-1.8c-0.1,0-0.2,0-0.2,0L86.7,82c-0.2,0.1-0.2,0.3,0,0.4l3.1,1.8
							c0.1,0,0.2,0,0.2,0l3.4-1.9C93.5,82.2,93.5,82,93.4,81.9z"/>
						<path id="XMLID_50_" class="st19" d="M93.3,81.8L90.1,80c-0.1,0-0.2,0-0.2,0l-3.2,1.9c-0.2,0.1-0.2,0.3,0,0.4l3.1,1.8
							c0.1,0,0.2,0,0.2,0l3.4-1.9C93.5,82.1,93.5,81.9,93.3,81.8z"/>
					</g>
					<g id="XMLID_46_">
						<path id="XMLID_48_" class="st18" d="M70.7,100.5l-3.3-1.8c-0.1,0-0.2,0-0.2,0l-3.2,1.9c-0.2,0.1-0.2,0.3,0,0.4l3.1,1.8
							c0.1,0,0.2,0,0.2,0l3.4-1.9C70.9,100.9,70.9,100.6,70.7,100.5z"/>
						<path id="XMLID_47_" class="st19" d="M70.7,100.4l-3.3-1.8c-0.1,0-0.2,0-0.2,0l-3.2,1.9c-0.2,0.1-0.2,0.3,0,0.4l3.1,1.8
							c0.1,0,0.2,0,0.2,0l3.4-1.9C70.8,100.7,70.8,100.5,70.7,100.4z"/>
					</g>
					<g id="XMLID_43_">
						<path id="XMLID_45_" class="st18" d="M96,86.2l-3.3-1.8c-0.1,0-0.2,0-0.2,0l-3.2,1.9c-0.2,0.1-0.2,0.3,0,0.4l3.1,1.8
							c0.1,0,0.2,0,0.2,0l3.4-1.9C96.1,86.5,96.1,86.3,96,86.2z"/>
						<path id="XMLID_44_" class="st19" d="M96,86.1l-3.3-1.8c-0.1,0-0.2,0-0.2,0l-3.2,1.9c-0.2,0.1-0.2,0.3,0,0.4l3.1,1.8
							c0.1,0,0.2,0,0.2,0l3.4-1.9C96.1,86.4,96.1,86.1,96,86.1z"/>
					</g>
					<g id="XMLID_40_">
						<path id="XMLID_42_" class="st18" d="M100.7,83.5l-3.3-1.8c-0.1,0-0.2,0-0.2,0L94,83.6c-0.2,0.1-0.2,0.3,0,0.4l3.1,1.8
							c0.1,0,0.2,0,0.2,0l3.4-1.9C100.8,83.8,100.8,83.6,100.7,83.5z"/>
						<path id="XMLID_41_" class="st19" d="M100.6,83.4l-3.3-1.8c-0.1,0-0.2,0-0.2,0L94,83.5c-0.2,0.1-0.2,0.3,0,0.4l3.1,1.8
							c0.1,0,0.2,0,0.2,0l3.4-1.9C100.8,83.7,100.8,83.4,100.6,83.4z"/>
					</g>
					<g id="XMLID_37_">
						<path id="XMLID_39_" class="st18" d="M105.5,80.4l-3.3-1.8c-0.1,0-0.2,0-0.2,0l-3.2,1.9c-0.2,0.1-0.2,0.3,0,0.4l3.1,1.8
							c0.1,0,0.2,0,0.2,0l3.4-1.9C105.7,80.7,105.7,80.5,105.5,80.4z"/>
						<path id="XMLID_38_" class="st19" d="M105.5,80.3l-3.3-1.8c-0.1,0-0.2,0-0.2,0l-3.2,1.9c-0.2,0.1-0.2,0.3,0,0.4l3.1,1.8
							c0.1,0,0.2,0,0.2,0l3.4-1.9C105.7,80.6,105.7,80.4,105.5,80.3z"/>
					</g>
					<g id="XMLID_34_">
						<path id="XMLID_36_" class="st18" d="M59,102.3l-3.3-1.8c0,0-0.1,0-0.1,0l-5.2,2.9c-0.1,0-0.1,0.1,0,0.2l3.3,1.9
							c0,0,0.1,0,0.1,0l5.3-3C59,102.4,59,102.3,59,102.3z"/>
						<path id="XMLID_35_" class="st19" d="M59,102.2l-3.3-1.8c0,0-0.1,0-0.1,0l-5.2,2.9c-0.1,0-0.1,0.1,0,0.2l3.3,1.9
							c0,0,0.1,0,0.1,0l5.3-3C59,102.3,59,102.2,59,102.2z"/>
					</g>
					<g id="XMLID_31_">
						<path id="XMLID_33_" class="st18" d="M49.9,97.1l-3.3-1.8c0,0-0.1,0-0.1,0l-5.2,2.9c-0.1,0-0.1,0.1,0,0.2l3.3,1.9
							c0,0,0.1,0,0.1,0l5.3-3C49.9,97.2,49.9,97.1,49.9,97.1z"/>
						<path id="XMLID_32_" class="st19" d="M49.9,96.9l-3.3-1.8c0,0-0.1,0-0.1,0L41.2,98c-0.1,0-0.1,0.1,0,0.2l3.3,1.9
							c0,0,0.1,0,0.1,0l5.3-3C49.9,97.1,49.9,97,49.9,96.9z"/>
					</g>
					<g id="XMLID_28_">
						<path id="XMLID_30_" class="st18" d="M45.2,94.3l-3.3-1.8c0,0-0.1,0-0.1,0l-5.2,2.9c-0.1,0-0.1,0.1,0,0.2l3.3,1.9
							c0,0,0.1,0,0.1,0l5.3-3C45.3,94.5,45.3,94.4,45.2,94.3z"/>
						<path id="XMLID_29_" class="st19" d="M45.2,94.2l-3.3-1.8c0,0-0.1,0-0.1,0l-5.2,2.9c-0.1,0-0.1,0.1,0,0.2l3.3,1.9
							c0,0,0.1,0,0.1,0l5.3-3C45.3,94.4,45.3,94.3,45.2,94.2z"/>
					</g>
					<g id="XMLID_24_">
						<path id="XMLID_27_" class="st18" d="M54.3,99.7L51,97.8c0,0-0.1,0-0.1,0l-5.2,2.9c-0.1,0-0.1,0.1,0,0.2l3.3,1.9
							c0,0,0.1,0,0.1,0l5.3-3C54.4,99.8,54.4,99.7,54.3,99.7z"/>
						<path id="XMLID_26_" class="st18" d="M56.1,98.7l-3.3-1.8c0,0-0.1,0-0.1,0l-5.2,2.9c-0.1,0-0.1,0.1,0,0.2l3.3,1.9
							c0,0,0.1,0,0.1,0l5.3-3C56.2,98.8,56.2,98.7,56.1,98.7z"/>
						<path id="XMLID_25_" class="st19" d="M56.1,98.5l-3.3-1.8c0,0-0.1,0-0.1,0l-5.2,2.9c0,0,0,0,0,0l-1.8,1c-0.1,0-0.1,0.1,0,0.2
							l3.3,1.9c0,0,0.1,0,0.1,0l5.3-3c0,0,0,0,0,0l1.8-1C56.2,98.7,56.2,98.6,56.1,98.5z"/>
					</g>
					<g id="XMLID_21_">
						<path id="XMLID_23_" class="st18" d="M100.4,78.2L97,76.5c0,0-0.1,0-0.1,0l-5.1,3.2c-0.1,0-0.1,0.1,0,0.2l3.4,1.8
							c0,0,0.1,0,0.1,0l5.1-3.2C100.5,78.3,100.5,78.2,100.4,78.2z"/>
						<path id="XMLID_22_" class="st19" d="M100.4,78.1L97,76.3c0,0-0.1,0-0.1,0l-5.1,3.2c-0.1,0-0.1,0.1,0,0.2l3.4,1.8
							c0,0,0.1,0,0.1,0l5.1-3.2C100.5,78.2,100.5,78.1,100.4,78.1z"/>
					</g>
					<g id="XMLID_18_">
						<path id="XMLID_20_" class="st18" d="M95.7,64.5l-3.3-1.8c0,0-0.1,0-0.1,0l-5.2,2.9c-0.1,0-0.1,0.1,0,0.2l3.3,1.9
							c0,0,0.1,0,0.1,0l5.3-3C95.8,64.6,95.8,64.5,95.7,64.5z"/>
						<path id="XMLID_19_" class="st19" d="M95.7,64.3l-3.3-1.8c0,0-0.1,0-0.1,0l-5.2,2.9c-0.1,0-0.1,0.1,0,0.2l3.3,1.9
							c0,0,0.1,0,0.1,0l5.3-3C95.8,64.5,95.8,64.4,95.7,64.3z"/>
					</g>
					<g id="XMLID_15_">
						<path id="XMLID_17_" class="st18" d="M100.1,67.4l-3.3-1.8c0,0-0.1,0-0.1,0l-5.2,2.9c-0.1,0-0.1,0.1,0,0.2l3.3,1.9
							c0,0,0.1,0,0.1,0l5.3-3C100.1,67.5,100.1,67.4,100.1,67.4z"/>
						<path id="XMLID_16_" class="st19" d="M100.1,67.2l-3.3-1.8c0,0-0.1,0-0.1,0l-5.2,2.9c-0.1,0-0.1,0.1,0,0.2l3.3,1.9
							c0,0,0.1,0,0.1,0l5.3-3C100.1,67.4,100.1,67.3,100.1,67.2z"/>
					</g>
					<g id="XMLID_12_">
						<path id="XMLID_14_" class="st18" d="M90.9,89.1l-3.2-1.9L69,97.8c-0.2,0.1-0.2,0.4,0,0.5l2.8,1.6c0.3,0.1,0.6,0.1,0.8,0
							l18.2-10.4C91,89.4,91,89.2,90.9,89.1z"/>
						<path id="XMLID_13_" class="st19" d="M90.9,88.9L87.6,87L69,97.6c-0.2,0.1-0.2,0.4,0,0.5l2.8,1.6c0.3,0.1,0.6,0.1,0.8,0
							l18.3-10.4C91,89.2,91,89,90.9,88.9z"/>
					</g>
					<g id="XMLID_8_">
						<path id="XMLID_11_" class="st18" d="M107.7,71.7l-6.4-3.6c-0.1,0-0.2,0-0.3,0l-3.6,2.1c-0.2,0.1-0.2,0.4,0,0.5l2,1.1
							c0.3,0.1,0.6,0.1,0.9,0l1.1-0.6c0.2-0.1,0.4-0.1,0.6,0l3.9,2.3c0.1,0.1,0.2,0.1,0.3,0l1.5-1.2
							C107.9,72.1,107.9,71.8,107.7,71.7z"/>
						<path id="XMLID_10_" class="st19" d="M107.7,71.6l-6.4-3.6c-0.1,0-0.2,0-0.3,0L97.5,70c-0.2,0.1-0.2,0.4,0,0.5l2,1.1
							c0.3,0.1,0.6,0.1,0.9,0l1.1-0.6c0.2-0.1,0.4-0.1,0.6,0l3.9,2.3c0.1,0.1,0.2,0.1,0.3,0l1.5-1.2
							C107.9,71.9,107.9,71.7,107.7,71.6z"/>
					</g>
				</g>
			</g>
		</g>
	</g>
	<g>
		<g id="password">
			<polygon id="XMLID_240_" class="st20" points="52.6,45.8 39.6,53.3 80.9,30.5 77.3,29.2 36.9,52.4 36.9,67.5 40.6,68.6 
				78.6,45.8 78.6,30.8 			"/>
			<g id="XMLID_239_">
				<g id="XMLID_231_">
					<polygon id="XMLID_3_" class="st21" points="56.5,46.5 83.1,31.2 83.1,46.5 43.3,69.5 43.3,54.2 					"/>
					<polygon id="XMLID_163_" class="st22" points="43.3,54.2 40.6,53.3 40.6,68.6 43.3,69.5 					"/>
					<polygon id="XMLID_230_" class="st22" points="40.6,53.3 80.4,30.3 83.1,31.2 43.3,54.2 					"/>
				</g>
			</g>
		</g>
		<g>
			<path d="M52.8,60.5l-1.2,0.7v-3.3c0-0.4-0.1-0.6-0.2-0.6c-0.1-0.1-0.4,0-0.6,0.1c-0.4,0.2-0.8,0.7-1.1,1.3v3.7L48.4,63v-7.6
				l1.2-0.7v2.8c0.2-0.3,0.4-0.7,0.7-1c0.3-0.3,0.6-0.6,1-0.8c0.5-0.3,0.9-0.3,1.1-0.2c0.3,0.2,0.4,0.5,0.4,1.1V60.5z"/>
			<path d="M55.5,59.1c-0.4,0.2-0.8,0.3-1,0.2c-0.2-0.1-0.3-0.4-0.3-0.9v-2.9l-0.8,0.4v-1.3l0.8-0.4v-1.5l1.2-0.7v1.5l0.9-0.5v1.3
				l-0.9,0.5v2.5c0,0.2,0,0.3,0.1,0.4c0.1,0.1,0.2,0.1,0.3,0c0.2-0.1,0.3-0.2,0.4-0.4l0.3,0.9C56.3,58.5,56,58.8,55.5,59.1z"/>
			<path d="M58.8,57.2c-0.4,0.2-0.8,0.3-1,0.2c-0.2-0.1-0.3-0.4-0.3-0.9v-2.9L56.7,54v-1.3l0.8-0.4v-1.5l1.2-0.7v1.5l0.9-0.5v1.3
				l-0.9,0.5v2.5c0,0.2,0,0.3,0.1,0.4c0.1,0.1,0.2,0.1,0.3,0c0.2-0.1,0.3-0.2,0.4-0.4l0.3,0.9C59.6,56.6,59.2,56.9,58.8,57.2z"/>
			<path d="M63.1,54.7c-0.6,0.3-1.1,0.3-1.4,0v2.8l-1.2,0.7v-7.6l1.2-0.7v0.7c0.4-0.8,0.8-1.3,1.4-1.7c0.6-0.3,1.1-0.4,1.5-0.1
				c0.4,0.3,0.6,0.9,0.6,1.8s-0.2,1.7-0.6,2.4C64.2,53.8,63.7,54.4,63.1,54.7z M62.7,53.6c0.4-0.2,0.6-0.5,0.8-0.9
				c0.2-0.4,0.3-0.9,0.3-1.3c0-0.5-0.1-0.8-0.3-1c-0.2-0.2-0.5-0.2-0.8,0c-0.2,0.1-0.4,0.3-0.6,0.5s-0.3,0.5-0.5,0.7v1.9
				c0.1,0.1,0.3,0.2,0.5,0.2S62.5,53.8,62.7,53.6z"/>
			<path d="M67.7,52.1c-0.4,0.2-0.8,0.4-1.2,0.4c-0.4,0.1-0.7,0-0.9-0.1l0.5-1.3c0.2,0.1,0.4,0.1,0.7,0.1c0.3,0,0.6-0.1,0.9-0.3
				c0.3-0.1,0.4-0.3,0.6-0.5c0.1-0.2,0.2-0.4,0.2-0.5c0-0.1-0.1-0.2-0.2-0.2c-0.1,0-0.3,0-0.5,0.1c-0.2,0.1-0.4,0.1-0.7,0.2
				c-0.2,0.1-0.5,0.1-0.7,0.1c-0.2,0-0.4-0.1-0.5-0.2c-0.1-0.2-0.2-0.4-0.2-0.7c0-0.5,0.2-1,0.5-1.5c0.3-0.5,0.8-1,1.4-1.3
				c0.7-0.4,1.3-0.5,1.9-0.3l-0.5,1.3c-0.1-0.1-0.3-0.1-0.6-0.1c-0.2,0-0.5,0.1-0.8,0.3c-0.2,0.1-0.4,0.3-0.5,0.5
				C67,48,67,48.2,67,48.4c0,0.1,0.1,0.2,0.2,0.2c0.1,0,0.3,0,0.5-0.1c0.2-0.1,0.4-0.1,0.7-0.2c0.2-0.1,0.5-0.1,0.7-0.1
				c0.2,0,0.4,0.1,0.5,0.2s0.2,0.4,0.2,0.8c0,0.5-0.2,1-0.5,1.6C68.8,51.3,68.3,51.7,67.7,52.1z"/>
			<path d="M71.8,45.6c-0.2,0.3-0.3,0.5-0.5,0.6c-0.2,0.1-0.4,0.1-0.5,0c-0.2-0.1-0.2-0.3-0.2-0.5c0-0.3,0.1-0.5,0.2-0.8
				c0.2-0.3,0.3-0.5,0.5-0.6c0.2-0.1,0.4-0.1,0.5,0c0.2,0.1,0.2,0.3,0.2,0.5C72,45.1,71.9,45.3,71.8,45.6z M71.8,49.4
				c-0.2,0.3-0.3,0.5-0.5,0.6c-0.2,0.1-0.4,0.1-0.5,0c-0.2-0.1-0.2-0.3-0.2-0.5c0-0.3,0.1-0.5,0.2-0.8c0.2-0.3,0.3-0.5,0.5-0.6
				c0.2-0.1,0.4-0.1,0.5,0c0.2,0.1,0.2,0.3,0.2,0.5S71.9,49.2,71.8,49.4z"/>
			<path d="M73.3,49l-0.9,0.5l2.3-9.4l0.9-0.5L73.3,49z"/>
			<path d="M76.5,47.1l-0.9,0.5l2.3-9.4l0.9-0.5L76.5,47.1z"/>
		</g>
	</g>
</g>
<g>
	<path class="st23" d="M102.7,61.6L102.7,61.6v25.2l0,0c0,0.4-0.4,0.9-1.1,1.2l-24,12c-1.2,0.6-3.1,0.7-4,0.2L70,98.4
		c-0.4-0.2-0.6-0.5-0.6-0.8l0,0V72.4l0,0c0,0.3,0.2,0.6,0.6,0.8l3.6,1.8c1,0.5,2.8,0.4,4-0.2l24-12C102.3,62.5,102.7,62,102.7,61.6
		L102.7,61.6z"/>
	<path class="st24" d="M74.4,75.3c1,0.2,2.3,0,3.3-0.5l24-12c0.7-0.4,1.1-0.8,1.1-1.2l0,0v25.2l0,0c0,0.4-0.4,0.9-1.1,1.2l-24,12
		c-1,0.5-2.3,0.7-3.3,0.5V75.3L74.4,75.3z"/>
	<path class="st25" d="M101.6,62.8c1.2-0.6,1.4-1.5,0.4-2L98.5,59c-1-0.5-2.8-0.4-4,0.2l-24,12c-1.2,0.6-1.4,1.5-0.4,2l3.6,1.8
		c1,0.5,2.8,0.4,4-0.2L101.6,62.8L101.6,62.8z"/>
	<path class="st26" d="M77.5,69.8c1.7,0,3.1,0.7,3.1,1.5c0,0.8-1.4,1.5-3.1,1.5c-1.7,0-3.1-0.7-3.1-1.5
		C74.4,70.5,75.8,69.8,77.5,69.8L77.5,69.8z"/>
	<path class="st26" d="M95.4,60.8c1.7,0,3.1,0.7,3.1,1.5c0,0.8-1.4,1.5-3.1,1.5c-1.7,0-3.1-0.7-3.1-1.5
		C92.4,61.5,93.7,60.8,95.4,60.8L95.4,60.8z"/>
	<path class="st27" d="M74.8,71.3c0-4.4,0-7.3,0-11.8c0-5.3,2.3-10.5,5.7-14.3c2.4-2.6,5.5-4.8,9-4.9c0.1,0,0.2,0,0.4,0
		c2.4,0,4.8,1.2,6.2,3.3c0.5,0.8,1,1.6,1.3,2.5c0,0,0,0,0,0.1c0.5,1.4,0.7,2.9,0.7,4.3c0,3.6,0,8.1,0,11.7l-5.2,0.1
		c0-4.4,0-7.3,0-11.8c0-1.3-0.2-2.6-0.9-3.7c-0.5-0.7-1.3-1.3-2.1-1.3c0,0,0,0,0,0c-1.4,0-2.7,0.8-3.8,1.7c-1.7,1.3-3,3.1-4,5
		c-1.2,2.2-1.9,4.7-1.9,7.2c0,3.6,0,8.2,0,11.8H74.8L74.8,71.3z"/>
	<path class="st27" d="M77.5,70c1.4,0,2.6,0.6,2.6,1.3s-1.2,1.3-2.6,1.3c-1.4,0-2.6-0.6-2.6-1.3S76,70,77.5,70L77.5,70z"/>
	<path class="st27" d="M95.4,61c1.4,0,2.6,0.6,2.6,1.3c0,0.7-1.2,1.3-2.6,1.3c-1.4,0-2.6-0.6-2.6-1.3C92.8,61.6,94,61,95.4,61
		L95.4,61z"/>
	<path class="st28" d="M81.8,46.2c-5.7,6.4-6,15.4-6.1,13.8c-0.4-5.3,2.1-10.6,5.5-14.4c2.4-2.6,5.5-4.8,9-4.9c0.1,0,0.7,0,0.8,0
		C87.6,41.4,84.2,43.5,81.8,46.2L81.8,46.2z"/>
	<path class="st29" d="M98,62.4c0-4.6,0-6.5,0-10c0-11.1-9.1-10.5-13.4-7c-3.7,3.1-6.7,6.6-6.9,20.8c0,0.7,0,5.7,0,6.4
		c1.1,0,2.3-0.5,2.4-1.3c0-0.8,0-4.2,0-5c-0.1-4.9,0.1-9.2,1.6-13.3c1.9-4.1,3.5-5.4,5.9-6.8c3.6-2.1,8.8-0.7,8.7,6.4
		c0,0.9,0,9.3-0.1,10.9C97.1,63.4,98,63,98,62.4L98,62.4z"/>
	<path class="st26" d="M88.5,83c-1.2,0.1-2-0.9-2-2.5c0-2,1.4-4.4,3.1-5.3c1.7-0.9,3.1,0.1,3.1,2.2c0,1.6-0.9,3.4-2,4.5v4.2
		c0,0.6-0.5,1.3-1,1.6c-0.6,0.3-1,0.1-1-0.5V83L88.5,83z"/>
</g>
</svg>
