<svg xmlns="http://www.w3.org/2000/svg" width="24" height="14"><g fill="none" fill-rule="evenodd"><path d="M-4-9h32v32H-4z"/><path fill="#FFF" d="M19.267.146l-.313.669s-1.482 3.148-3.287 5.131c-.58.642-.875.835-1.195.835-.258 0-.377-.215-.377-.793V0H8.483v.459c0 .668 1.025.819 1.025 2.629v3.734c0 .752-.04 1.043-.396 1.043-.944 0-3.184-3.233-4.442-6.904L4.358 0H.692C.293 0 0 .271 0 .668c0 .73.86 4.11 4.23 8.638C6.493 12.352 9.468 14 12.148 14c1.635 0 2.031-.271 2.031-.959v-2.337c0-.584.231-.835.567-.835.377 0 1.041.12 2.596 1.649.002 0 2.492 2.482 2.492 2.482h3.56c.315 0 .608-.145.608-.667 0-.69-.9-1.92-2.283-3.38-.565-.75-1.487-1.565-1.78-1.942-.418-.437-.293-.687 0-1.146 0 0 3.163-4.445 3.477-5.904.106-.522-.125-.815-.67-.815h-3.478z" opacity=".8"/></g></svg>