<?xml version="1.0" encoding="utf-8"?>
<!-- Generator: Adobe Illustrator 24.0.0, SVG Export Plug-In . SVG Version: 6.00 Build 0)  -->
<svg version="1.1" id="Layer_1" xmlns="http://www.w3.org/2000/svg" xmlns:xlink="http://www.w3.org/1999/xlink" x="0px" y="0px"
	 viewBox="0 0 284.7 159.9" style="enable-background:new 0 0 284.7 159.9;" xml:space="preserve">
<style type="text/css">
	.st0{fill-rule:evenodd;clip-rule:evenodd;fill:#9EA3A8;}
	.st1{fill-rule:evenodd;clip-rule:evenodd;}
	.st2{font-family:'Verdana-Bold';}
	.st3{font-size:8.6844px;}
</style>
<title>sbp</title>
<g id="layer1" transform="translate(-7.8430101,-312.84124)">
	<g id="g706" transform="translate(0.50000005,-0.50000197)">
		<path id="rect3828" class="st0" d="M90.7,356.9l-26.8,36.4l26.8,36V356.9z"/>
		<path id="B" d="M126.4,336.2c-1.1,0-2.3,0-3.6,0h-17l-15.1,20.6v74.6h46.3c9.5,0,26.8-5.5,26.8-28.2c0-15.4-9.9-21.2-18.6-23.6
			v-0.5c3.7-1.6,6.7-3.2,8.8-7.1c2.1-3.9,3.2-8,3.2-12.4c-0.2-9-4.4-16.6-10.8-20.1C140.7,336.7,134.4,336.2,126.4,336.2
			L126.4,336.2z M114.8,354.6h7.2c4.9-0.1,11.2,1.3,11.2,8.6c0,7.3-5.1,9.8-11.2,9.8h-7.2L114.8,354.6z M114.8,391.3h13.8
			c6,0,10.9,4.9,10.9,10.9s-4.9,10.9-10.9,10.9h-13.8L114.8,391.3z"/>
		<path id="R" class="st1" d="M202.9,336.2c-0.2,0-0.3,0-0.3,0h-16.6h-12.1h-12.6v95.3h24.7v-33.9c1.6,0,3.3,0.1,5,0l20.8,33.9H241
			l-25-39.1c9.6-4.4,16.4-12.5,16.4-27.4C232.4,336.6,206.2,336.2,202.9,336.2L202.9,336.2z M185.9,355.2h10.1
			c0,0,10.5-0.6,10.5,11.3c0,13.4-12.6,12.8-20.7,12.8V355.2z"/>
		<path id="L" d="M236.4,431.5h55.1v-21.2l-29.8,0v-74l-25.3,0V431.5z"/>
		<path id="X" d="M8,354.6l28.6,38.7L8,431.5h27.6l14.6-19.8l14.6,19.8h27.6l-28.6-38.3l28.6-38.7h-27L50.2,375L35,354.6H8z"/>
		<path id="slogan" class="st0" d="M66.8,442.6c-0.7,0-1.2,0.1-1.7,0.3c-0.5,0.2-0.9,0.4-1.2,0.6c-0.3,0.3-0.6,0.6-0.7,1
			c-0.2,0.4-0.2,0.7-0.2,1.1c0,0.4,0.1,0.7,0.2,1c0.1,0.3,0.3,0.6,0.6,0.8c0.2,0.2,0.5,0.4,0.9,0.6s0.7,0.3,1.1,0.4
			c0.8,0.2,1.4,0.4,1.8,0.6c0.4,0.2,0.6,0.5,0.6,0.8c0,0.2-0.1,0.3-0.1,0.4c-0.1,0.1-0.2,0.2-0.3,0.3c-0.1,0.1-0.3,0.2-0.5,0.2
			s-0.4,0.1-0.5,0.1c-0.3,0-0.6,0-0.9-0.1c-0.3-0.1-0.5-0.2-0.7-0.3c-0.2-0.1-0.4-0.3-0.6-0.4c-0.2-0.1-0.3-0.3-0.5-0.4l-1.5,1.5
			c0.2,0.2,0.4,0.4,0.7,0.6c0.3,0.2,0.6,0.4,1,0.5c0.4,0.1,0.7,0.3,1.2,0.4c0.4,0.1,0.9,0.1,1.5,0.1c0.6,0,1.1-0.1,1.6-0.2
			c0.5-0.1,0.9-0.4,1.3-0.6c0.4-0.3,0.6-0.6,0.9-1c0.2-0.4,0.3-0.8,0.3-1.2c0-0.5-0.1-0.9-0.3-1.3c-0.2-0.4-0.4-0.7-0.7-0.9
			c-0.3-0.2-0.6-0.4-1-0.6c-0.4-0.1-0.8-0.3-1.1-0.4c-0.7-0.1-1.2-0.3-1.6-0.5c-0.4-0.2-0.6-0.5-0.6-0.8c0-0.1,0-0.2,0.1-0.4
			c0.1-0.1,0.2-0.2,0.3-0.3c0.1-0.1,0.3-0.1,0.4-0.2c0.2,0,0.3-0.1,0.5-0.1c0.3,0,0.5,0,0.7,0.1c0.2,0.1,0.4,0.1,0.6,0.2
			c0.2,0.1,0.4,0.2,0.5,0.3c0.2,0.1,0.3,0.2,0.4,0.3l1.4-1.4c-0.1-0.1-0.2-0.2-0.4-0.4c-0.2-0.1-0.4-0.3-0.7-0.4
			c-0.3-0.1-0.6-0.3-1.1-0.4C67.8,442.7,67.3,442.6,66.8,442.6L66.8,442.6z M101.8,442.6c-0.7,0-1.2,0.1-1.7,0.3
			c-0.5,0.2-0.9,0.4-1.2,0.6c-0.3,0.3-0.6,0.6-0.7,1c-0.2,0.4-0.2,0.7-0.2,1.1c0,0.4,0.1,0.7,0.2,1c0.1,0.3,0.3,0.6,0.6,0.8
			c0.2,0.2,0.6,0.4,0.9,0.6c0.3,0.2,0.7,0.3,1.1,0.4c0.8,0.2,1.4,0.4,1.8,0.6c0.4,0.2,0.6,0.5,0.6,0.8c0,0.2,0,0.3-0.1,0.4
			c-0.1,0.1-0.2,0.2-0.4,0.3c-0.1,0.1-0.3,0.2-0.5,0.2c-0.2,0-0.4,0.1-0.5,0.1c-0.3,0-0.6,0-0.9-0.1c-0.3-0.1-0.5-0.2-0.8-0.3
			c-0.2-0.1-0.4-0.3-0.6-0.4c-0.2-0.1-0.3-0.3-0.5-0.4l-1.6,1.5c0.2,0.2,0.5,0.4,0.7,0.6c0.3,0.2,0.6,0.4,1,0.5
			c0.4,0.1,0.7,0.3,1.2,0.4c0.4,0.1,0.9,0.1,1.5,0.1c0.6,0,1.1-0.1,1.6-0.2c0.5-0.1,0.9-0.4,1.3-0.6c0.4-0.3,0.6-0.6,0.9-1
			c0.2-0.4,0.3-0.8,0.3-1.2c0-0.5-0.1-0.9-0.3-1.3c-0.2-0.4-0.4-0.7-0.7-0.9c-0.3-0.2-0.6-0.4-1-0.6c-0.4-0.1-0.8-0.3-1.2-0.4
			c-0.7-0.1-1.2-0.3-1.6-0.5c-0.4-0.2-0.6-0.5-0.6-0.8c0-0.1,0-0.2,0.1-0.4c0.1-0.1,0.2-0.2,0.3-0.3c0.1-0.1,0.3-0.1,0.4-0.2
			c0.2,0,0.3-0.1,0.5-0.1c0.3,0,0.5,0,0.7,0.1c0.2,0.1,0.4,0.1,0.6,0.2c0.2,0.1,0.4,0.2,0.5,0.3c0.2,0.1,0.3,0.2,0.4,0.3l1.4-1.4
			c-0.1-0.1-0.2-0.2-0.4-0.4c-0.2-0.1-0.4-0.3-0.7-0.4c-0.3-0.1-0.6-0.3-1.1-0.4C102.8,442.7,102.4,442.6,101.8,442.6L101.8,442.6z
			 M111.2,442.6c-0.7,0-1.2,0.1-1.7,0.3c-0.5,0.2-0.9,0.4-1.2,0.6c-0.3,0.3-0.6,0.6-0.7,1c-0.2,0.4-0.2,0.7-0.2,1.1
			c0,0.4,0.1,0.7,0.2,1c0.1,0.3,0.3,0.6,0.6,0.8c0.2,0.2,0.6,0.4,0.9,0.6c0.3,0.2,0.7,0.3,1.1,0.4c0.8,0.2,1.4,0.4,1.8,0.6
			c0.4,0.2,0.6,0.5,0.6,0.8c0,0.2,0,0.3-0.1,0.4c-0.1,0.1-0.2,0.2-0.4,0.3c-0.1,0.1-0.3,0.2-0.5,0.2c-0.2,0-0.4,0.1-0.5,0.1
			c-0.3,0-0.6,0-0.9-0.1c-0.3-0.1-0.5-0.2-0.8-0.3c-0.2-0.1-0.4-0.3-0.6-0.4c-0.2-0.1-0.4-0.3-0.5-0.4l-1.5,1.5
			c0.2,0.2,0.5,0.4,0.7,0.6c0.3,0.2,0.6,0.4,1,0.5c0.4,0.1,0.7,0.3,1.2,0.4c0.4,0.1,0.9,0.1,1.5,0.1c0.6,0,1.1-0.1,1.6-0.2
			c0.5-0.1,0.9-0.4,1.3-0.6c0.4-0.3,0.6-0.6,0.9-1c0.2-0.4,0.3-0.8,0.3-1.2c0-0.5-0.1-0.9-0.3-1.3c-0.2-0.4-0.4-0.7-0.7-0.9
			c-0.3-0.2-0.6-0.4-1-0.6c-0.4-0.1-0.8-0.3-1.2-0.4c-0.7-0.1-1.2-0.3-1.6-0.5c-0.4-0.2-0.6-0.5-0.6-0.8c0-0.1,0-0.2,0.1-0.4
			c0.1-0.1,0.2-0.2,0.3-0.3c0.1-0.1,0.3-0.1,0.4-0.2c0.2,0,0.3-0.1,0.5-0.1c0.3,0,0.5,0,0.7,0.1c0.2,0.1,0.4,0.1,0.6,0.2
			c0.2,0.1,0.4,0.2,0.5,0.3c0.2,0.1,0.3,0.2,0.4,0.3l1.4-1.4c-0.1-0.1-0.2-0.2-0.4-0.4c-0.2-0.1-0.4-0.3-0.7-0.4
			c-0.3-0.1-0.6-0.3-1.1-0.4C112.2,442.7,111.8,442.6,111.2,442.6L111.2,442.6z M153.6,442.6c-0.8,0-1.5,0.1-2.2,0.4
			c-0.7,0.3-1.2,0.6-1.7,1.1c-0.5,0.5-0.9,1-1.2,1.6c-0.3,0.6-0.4,1.3-0.4,2c0,0.7,0.1,1.4,0.4,2c0.3,0.6,0.7,1.2,1.2,1.6
			c0.5,0.5,1.1,0.8,1.7,1.1c0.7,0.3,1.4,0.4,2.2,0.4c0.8,0,1.5-0.1,2.2-0.4c0.7-0.3,1.3-0.6,1.8-1.1c0.5-0.5,0.9-1,1.1-1.6
			c0.3-0.6,0.4-1.3,0.4-2c0-0.7-0.1-1.4-0.4-2c-0.3-0.6-0.7-1.2-1.1-1.6c-0.5-0.5-1.1-0.8-1.8-1.1
			C155.1,442.8,154.3,442.6,153.6,442.6z M214.9,442.6c-0.7,0-1.2,0.1-1.7,0.3c-0.5,0.2-0.9,0.4-1.2,0.6c-0.3,0.3-0.6,0.6-0.7,1
			c-0.2,0.4-0.2,0.7-0.2,1.1c0,0.4,0.1,0.7,0.2,1s0.3,0.6,0.6,0.8c0.2,0.2,0.6,0.4,0.9,0.6s0.7,0.3,1.1,0.4c0.8,0.2,1.4,0.4,1.8,0.6
			c0.4,0.2,0.6,0.5,0.6,0.8c0,0.2,0,0.3-0.1,0.4c-0.1,0.1-0.2,0.2-0.4,0.3c-0.1,0.1-0.3,0.2-0.5,0.2c-0.2,0-0.4,0.1-0.5,0.1
			c-0.3,0-0.6,0-0.9-0.1c-0.3-0.1-0.5-0.2-0.8-0.3c-0.2-0.1-0.4-0.3-0.6-0.4c-0.2-0.1-0.3-0.3-0.5-0.4l-1.5,1.5
			c0.2,0.2,0.5,0.4,0.7,0.6c0.3,0.2,0.6,0.4,0.9,0.5c0.4,0.1,0.7,0.3,1.2,0.4c0.4,0.1,0.9,0.1,1.5,0.1c0.6,0,1.1-0.1,1.6-0.2
			c0.5-0.1,0.9-0.4,1.3-0.6c0.4-0.3,0.6-0.6,0.9-1c0.2-0.4,0.3-0.8,0.3-1.2c0-0.5-0.1-0.9-0.3-1.3c-0.2-0.4-0.4-0.7-0.7-0.9
			c-0.3-0.2-0.6-0.4-1-0.6c-0.4-0.1-0.8-0.3-1.1-0.4c-0.7-0.1-1.2-0.3-1.6-0.5c-0.4-0.2-0.6-0.5-0.6-0.8c0-0.1,0-0.2,0.1-0.4
			c0.1-0.1,0.2-0.2,0.3-0.3c0.1-0.1,0.3-0.1,0.4-0.2c0.2,0,0.3-0.1,0.5-0.1c0.3,0,0.5,0,0.7,0.1c0.2,0.1,0.4,0.1,0.6,0.2
			c0.2,0.1,0.4,0.2,0.5,0.3c0.2,0.1,0.3,0.2,0.4,0.3l1.4-1.4c-0.1-0.1-0.2-0.2-0.4-0.4c-0.2-0.1-0.4-0.3-0.7-0.4
			c-0.3-0.1-0.6-0.3-1.1-0.4C215.9,442.7,215.4,442.6,214.9,442.6L214.9,442.6z M201.2,442.6c-0.8,0-1.6,0.1-2.2,0.4
			c-0.7,0.3-1.3,0.6-1.7,1.1c-0.5,0.5-0.9,1-1.1,1.6c-0.3,0.6-0.4,1.3-0.4,2c0,0.7,0.1,1.4,0.4,2s0.6,1.2,1.1,1.6s1.1,0.8,1.7,1
			c0.7,0.2,1.5,0.4,2.3,0.4c0.9,0,1.8-0.1,2.5-0.3c0.7-0.2,1.4-0.6,1.9-1v-4.2h-4.1v1.8h1.9v1.2c-0.3,0.2-0.6,0.4-0.9,0.4
			c-0.4,0.1-0.7,0.1-1.2,0.1c-0.5,0-0.9-0.1-1.3-0.2c-0.4-0.1-0.7-0.3-1-0.6c-0.3-0.3-0.5-0.6-0.7-1c-0.2-0.4-0.2-0.8-0.2-1.3
			c0-0.4,0.1-0.8,0.2-1.2s0.3-0.7,0.6-1s0.6-0.5,1-0.7c0.4-0.2,0.8-0.2,1.3-0.2c0.6,0,1.1,0.1,1.5,0.3c0.4,0.2,0.8,0.5,1.1,0.9
			l1.6-1.4c-0.5-0.6-1.1-1-1.8-1.4C203,442.8,202.2,442.6,201.2,442.6L201.2,442.6z M7.6,442.9v1.9h3.4v7.7h2.4v-7.7h3.4v-1.9H7.6z
			 M18.3,442.9v9.7h2.4v-4h4.6v4h2.4v-9.7h-2.4v3.7h-4.6v-3.7H18.3z M29.8,442.9v9.7h7.6v-1.9h-5.2v-2.1h3.8v-1.8h-3.8v-1.9H37v-1.9
			H29.8z M42.5,442.9v9.7h4c0.6,0,1.2,0,1.7-0.1c0.5-0.1,1-0.3,1.3-0.5c0.4-0.2,0.6-0.5,0.8-0.9c0.2-0.3,0.3-0.8,0.3-1.3
			c0-0.4-0.1-0.7-0.2-1c-0.2-0.3-0.3-0.5-0.6-0.7c-0.2-0.2-0.5-0.3-0.7-0.4c-0.2-0.1-0.5-0.2-0.6-0.2c0.1,0,0.3-0.1,0.5-0.2
			c0.2-0.1,0.4-0.2,0.5-0.4c0.2-0.2,0.3-0.4,0.4-0.6c0.1-0.2,0.2-0.5,0.2-0.8c0-0.3-0.1-0.6-0.2-0.9c-0.1-0.3-0.3-0.6-0.6-0.8
			c-0.3-0.2-0.7-0.4-1.1-0.6c-0.5-0.1-1-0.2-1.7-0.2L42.5,442.9z M52.1,442.9v6c0,0.6,0.1,1.1,0.3,1.6c0.2,0.5,0.5,0.9,0.9,1.2
			c0.4,0.3,0.9,0.6,1.4,0.8c0.6,0.2,1.2,0.3,1.8,0.3c0.7,0,1.3-0.1,1.8-0.3c0.6-0.2,1-0.5,1.4-0.8c0.4-0.3,0.7-0.8,0.9-1.2
			c0.2-0.5,0.3-1,0.3-1.6v-6h-2.4v5.7c0,0.3,0,0.6-0.1,0.9c-0.1,0.3-0.2,0.5-0.3,0.7c-0.2,0.2-0.4,0.3-0.6,0.4
			c-0.3,0.1-0.6,0.2-1,0.2c-0.4,0-0.7-0.1-1-0.2c-0.3-0.1-0.5-0.2-0.6-0.4c-0.2-0.2-0.3-0.4-0.3-0.7c-0.1-0.3-0.1-0.5-0.1-0.9v-5.7
			H52.1z M72.4,442.9v9.7h2.4v-9.7H72.4z M77.5,442.9v9.7h2.4v-6.4l4.7,6.4h2.2v-9.7h-2.4v6.3l-4.6-6.3H77.5z M88.8,442.9v9.7h7.6
			v-1.9h-5.2v-2.1H95v-1.8h-3.8v-1.9h4.8v-1.9H88.8z M120.4,442.9v9.7h2.3V449h1.3l2,3.6h2.6l-2.3-3.9c0.6-0.3,1-0.6,1.3-1.1
			c0.3-0.5,0.5-1,0.5-1.7c0-0.4-0.1-0.8-0.2-1.2c-0.2-0.4-0.4-0.7-0.7-1c-0.3-0.3-0.7-0.5-1.2-0.6c-0.5-0.2-1-0.2-1.6-0.2H120.4z
			 M130,442.9v9.7h7.6v-1.9h-5.2v-2.1h3.8v-1.8h-3.8v-1.9h4.8v-1.9H130z M139.3,442.9v9.7h2.3v-3.4h1.6c0.5,0,0.9-0.1,1.4-0.2
			s0.8-0.3,1.1-0.6c0.3-0.3,0.6-0.6,0.8-1c0.2-0.4,0.3-0.8,0.3-1.4c0-0.4-0.1-0.8-0.2-1.2c-0.1-0.4-0.4-0.7-0.7-1
			c-0.3-0.3-0.7-0.5-1.1-0.7c-0.5-0.2-1-0.3-1.7-0.3L139.3,442.9z M160.7,442.9v9.7h2.3V449h1.3l2,3.6h2.6l-2.3-3.9
			c0.6-0.3,1-0.6,1.3-1.1c0.3-0.5,0.4-1,0.4-1.7c0-0.4-0.1-0.8-0.2-1.2c-0.2-0.4-0.4-0.7-0.7-1c-0.3-0.3-0.7-0.5-1.2-0.6
			c-0.5-0.2-1-0.2-1.6-0.2H160.7z M169.7,442.9v1.9h3.4v7.7h2.4v-7.7h3.4v-1.9H169.7z M180.3,442.9v9.7h2.4v-9.7H180.3z
			 M184.8,442.9v9.7h2.4v-6.4l4.7,6.4h2.2v-9.7h-2.4v6.3l-4.6-6.3H184.8z M219.8,442.9v1.9h3.4v7.7h2.4v-7.7h3.4v-1.9H219.8z
			 M231.8,442.9l-4,9.7h2.5l0.8-2.2h3.7l0.8,2.2h2.6l-3.9-9.7H231.8z M239.5,442.9v9.7h2.4v-6.4l4.7,6.4h2.2v-9.7h-2.4v6.3l-4.6-6.3
			H239.5z M250.9,442.9v9.7h4c0.8,0,1.6-0.1,2.3-0.3c0.7-0.2,1.3-0.5,1.8-0.9c0.5-0.4,0.9-0.9,1.2-1.5c0.3-0.6,0.4-1.3,0.4-2.1
			c0-0.8-0.1-1.6-0.4-2.2c-0.3-0.6-0.7-1.1-1.2-1.5c-0.5-0.4-1.1-0.7-1.8-0.9c-0.7-0.2-1.4-0.3-2.3-0.3L250.9,442.9z M264.7,442.9
			l-4,9.7h2.5l0.8-2.2h3.7l0.8,2.2h2.6l-3.9-9.7H264.7z M272.4,442.9v9.7h2.3V449h1.3l2,3.6h2.6l-2.3-3.9c0.6-0.3,1-0.6,1.3-1.1
			c0.3-0.5,0.4-1,0.4-1.7c0-0.4-0.1-0.8-0.2-1.2c-0.2-0.4-0.4-0.7-0.7-1c-0.3-0.3-0.7-0.5-1.2-0.6c-0.5-0.2-1-0.2-1.6-0.2H272.4z
			 M282.1,442.9v9.7h4c0.8,0,1.6-0.1,2.3-0.3c0.7-0.2,1.3-0.5,1.8-0.9c0.5-0.4,0.9-0.9,1.2-1.5c0.3-0.6,0.4-1.3,0.4-2.1
			c0-0.8-0.1-1.6-0.4-2.2c-0.3-0.6-0.7-1.1-1.2-1.5c-0.5-0.4-1.1-0.7-1.8-0.9c-0.7-0.2-1.4-0.3-2.3-0.3L282.1,442.9z M44.8,444.6
			h1.4c0.2,0,0.3,0,0.5,0.1c0.2,0,0.3,0.1,0.5,0.2c0.1,0.1,0.3,0.2,0.3,0.3c0.1,0.1,0.1,0.3,0.1,0.5c0,0.2,0,0.4-0.1,0.5
			c-0.1,0.1-0.2,0.2-0.3,0.3c-0.1,0.1-0.3,0.2-0.5,0.2c-0.2,0-0.4,0.1-0.5,0.1h-1.4V444.6L44.8,444.6z M153.6,444.7
			c0.5,0,0.9,0.1,1.3,0.3c0.4,0.2,0.7,0.4,1,0.6c0.3,0.3,0.5,0.6,0.6,1c0.1,0.4,0.2,0.8,0.2,1.2c0,0.4-0.1,0.8-0.2,1.2
			c-0.1,0.4-0.3,0.7-0.6,1c-0.3,0.3-0.6,0.5-1,0.7c-0.4,0.2-0.8,0.3-1.3,0.3c-0.5,0-0.9-0.1-1.3-0.3c-0.4-0.2-0.7-0.4-1-0.7
			c-0.3-0.3-0.5-0.6-0.6-1c-0.1-0.4-0.2-0.7-0.2-1.2s0.1-0.8,0.2-1.2c0.1-0.4,0.3-0.7,0.6-1c0.3-0.3,0.6-0.5,1-0.6
			C152.7,444.7,153.1,444.7,153.6,444.7z M141.6,444.7h1.4c0.4,0,0.8,0.1,1.1,0.4c0.3,0.3,0.4,0.6,0.4,1c0,0.4-0.1,0.7-0.4,1
			c-0.3,0.2-0.6,0.4-1.1,0.4h-1.4V444.7z M122.7,444.7h1.5c0.4,0,0.8,0.1,1.1,0.3c0.3,0.2,0.4,0.6,0.4,1c0,0.4-0.1,0.7-0.4,0.9
			c-0.3,0.2-0.6,0.4-1.1,0.4h-1.5L122.7,444.7z M163.1,444.7h1.5c0.4,0,0.8,0.1,1,0.3c0.3,0.2,0.4,0.6,0.4,1c0,0.4-0.1,0.7-0.4,0.9
			c-0.3,0.2-0.6,0.4-1,0.4h-1.5V444.7z M274.8,444.7h1.5c0.4,0,0.8,0.1,1.1,0.3c0.3,0.2,0.4,0.6,0.4,1c0,0.4-0.1,0.7-0.4,0.9
			c-0.3,0.2-0.6,0.4-1.1,0.4h-1.5V444.7z M253.3,444.8h1.5c0.6,0,1.1,0.1,1.5,0.2c0.4,0.1,0.8,0.3,1,0.6c0.3,0.3,0.5,0.6,0.6,0.9
			c0.1,0.4,0.2,0.8,0.2,1.2c0,0.9-0.3,1.6-0.9,2.1s-1.4,0.8-2.4,0.8h-1.5L253.3,444.8z M284.5,444.8h1.5c0.6,0,1.1,0.1,1.5,0.2
			c0.4,0.1,0.8,0.3,1,0.6c0.3,0.3,0.5,0.6,0.6,0.9c0.1,0.4,0.2,0.8,0.2,1.2c0,0.9-0.3,1.6-0.9,2.1s-1.4,0.8-2.4,0.8h-1.5
			L284.5,444.8z M233,445l1.3,3.7h-2.6L233,445z M266,445l1.3,3.7h-2.6L266,445z M44.8,448.4h1.6c0.2,0,0.4,0,0.6,0.1
			c0.2,0,0.4,0.1,0.6,0.2c0.2,0.1,0.3,0.2,0.4,0.4c0.1,0.2,0.2,0.4,0.2,0.6c0,0.3-0.1,0.5-0.2,0.7c-0.1,0.2-0.3,0.3-0.4,0.4
			c-0.2,0.1-0.4,0.2-0.6,0.2c-0.2,0-0.4,0-0.6,0h-1.6L44.8,448.4L44.8,448.4z"/>
		<text transform="matrix(0.9588 0 0 1 266.1311 341.981)" class="st2 st3">TM</text>
	</g>
</g>
</svg>
