<svg xmlns="http://www.w3.org/2000/svg" width="20" height="20"><path fill="#49C6E8" fill-rule="evenodd" d="M10 20C4.477 20 0 15.523 0 10S4.477 0 10 0s10 4.477 10 10-4.477 10-10 10zm5.263-12.506c-.181.09-.678.272-1.13.317.316-.181.723-.678.859-1.085-.272.18-.95.452-1.266.452-.362-.362-.904-.678-1.446-.678-1.13 0-1.944.95-1.944 2.08 0 .135 0 .315.045.451-1.491-.045-3.254-.859-4.248-2.17-.633 1.04-.09 2.306.633 2.758-.226 0-.678-.046-.86-.226 0 .723.317 1.627 1.538 1.988-.226.046-.678.046-.86 0 .046.588.905 1.356 1.809 1.356-.317.362-1.537 1.04-2.893.859.95.542 1.989.904 3.164.904 3.254 0 5.92-2.621 5.785-5.876v-.089c.271-.226.543-.588.814-1.04z"/></svg>