<svg xmlns="http://www.w3.org/2000/svg" width="32" height="16"><g fill="none" fill-rule="evenodd"><path fill="#2AA65E" d="M2.564 0h26.872c.892 0 1.215.093 1.54.267.327.174.583.43.757.756.174.326.267.65.267 1.54v10.873c0 .892-.093 1.215-.267 1.54a1.81 1.81 0 01-.756.757c-.326.174-.65.267-1.54.267H2.563c-.892 0-1.215-.093-1.54-.267a1.817 1.817 0 01-.757-.756C.093 14.65 0 14.327 0 13.437V2.563c0-.892.093-1.215.267-1.54a1.81 1.81 0 01.756-.757C1.35.093 1.673 0 2.563 0z"/><path fill="#FFF" fill-rule="nonzero" d="M12.637 3.999L9.745 7.942 12.728 12h-2.16L8.693 9.383 6.807 12h-2.16l2.995-4.058L4.772 4H6.91l1.795 2.48L10.488 4h2.149zM13.67 12V3.999h1.772v6.344h4.32V12H13.67zm11.31-2.217c0-1.395-4.458-.63-4.458-3.532 0-1.269 1.2-2.435 3.098-2.435 1.36 0 2.446.56 3.132 1.475l-1.189 1.143c-.457-.503-1.12-.96-2.012-.96-.823 0-1.2.297-1.2.754 0 1.223 4.458.526 4.458 3.417 0 1.452-1.303 2.538-3.029 2.538-1.932 0-3.155-.915-3.703-1.955l1.291-1.074c.526.846 1.383 1.372 2.366 1.372.892 0 1.246-.343 1.246-.743z"/></g></svg>