<svg xmlns="http://www.w3.org/2000/svg" width="21" height="14"><g fill="none" fill-rule="evenodd"><path d="M-6-9h32v32H-6z"/><path fill="#FFF" d="M19.948 2.193a1.743 1.743 0 00-.08-.33A1.943 1.943 0 0018.03.54h.133S14.723.02 10.149 0C5.574.021 2.135.54 2.135.54h.133A1.943 1.943 0 00.349 2.193 38.553 38.553 0 000 7c.018 2.134.225 3.913.35 4.806a1.874 1.874 0 00.079.33 1.94 1.94 0 001.839 1.323h-.133s3.439.52 8.014.541c4.575-.022 8.014-.54 8.014-.54h-.133a1.942 1.942 0 001.918-1.654A38.11 38.11 0 0020.298 7a38.315 38.315 0 00-.35-4.807zm-6.793 5.24l-4.098 2.978a.493.493 0 01-.783-.4V4.06a.494.494 0 01.783-.4l4.098 2.976a.494.494 0 010 .798z" opacity=".8"/></g></svg>