<svg width="32" height="16" fill="none" xmlns="http://www.w3.org/2000/svg"><g clip-path="url(#clip0_6254_12)"><path fill-rule="evenodd" clip-rule="evenodd" d="M2.564 0h26.872c.892 0 1.215.093 1.54.267.327.174.583.43.757.756.174.326.267.65.267 1.54v10.873c0 .892-.093 1.215-.267 1.54a1.81 1.81 0 01-.756.757c-.326.174-.65.267-1.54.267H2.563c-.892 0-1.215-.093-1.54-.267a1.817 1.817 0 01-.757-.756C.093 14.65 0 14.327 0 13.437V2.563c0-.892.093-1.215.267-1.54a1.81 1.81 0 01.756-.757C1.35.093 1.673 0 2.563 0z" fill="#16C974"/><path d="M11.59 7.006H9.641a1.69 1.69 0 00-.16-.541 1.318 1.318 0 00-.791-.675 1.806 1.806 0 00-.597-.093c-.387 0-.72.094-1.001.284-.279.19-.493.464-.644.823-.148.358-.222.792-.222 1.302 0 .53.075.974.226 1.333.154.356.368.625.643.807.279.18.607.269.987.269.213 0 .406-.027.58-.082.177-.054.332-.134.464-.238.136-.106.246-.235.332-.386.088-.153.15-.326.183-.518l1.95.012a2.95 2.95 0 01-.309 1.044 3.335 3.335 0 01-.698.94c-.296.28-.657.504-1.083.67-.424.167-.91.25-1.458.25-.723 0-1.37-.159-1.942-.476a3.424 3.424 0 01-1.348-1.395c-.33-.611-.496-1.354-.496-2.23 0-.879.168-1.623.503-2.234A3.442 3.442 0 016.12 4.48a3.895 3.895 0 011.923-.475c.483 0 .93.067 1.34.202.411.133.773.328 1.085.585.311.255.565.568.76.94.195.371.315.796.362 1.274zm5.609-.499a.904.904 0 00-.347-.666c-.203-.161-.492-.242-.87-.242-.249 0-.457.033-.623.098a.812.812 0 00-.374.269.65.65 0 00-.129.386.574.574 0 00.07.315.793.793 0 00.234.242c.104.068.229.127.374.18a4.1 4.1 0 00.492.136l.686.156c.395.085.743.2 1.044.343.305.143.56.313.764.51.208.198.366.425.472.683.107.257.161.545.164.865-.003.504-.13.937-.382 1.298s-.615.638-1.088.83c-.47.193-1.038.289-1.703.289-.668 0-1.25-.1-1.747-.3a2.468 2.468 0 01-1.158-.912c-.275-.408-.417-.924-.425-1.548h1.848c.016.257.085.472.207.643.122.172.29.302.503.39.216.088.465.133.748.133.26 0 .481-.036.663-.106a.962.962 0 00.425-.292.69.69 0 00.152-.429.59.59 0 00-.14-.386 1.062 1.062 0 00-.421-.28 4.321 4.321 0 00-.718-.223l-.834-.195c-.691-.158-1.236-.414-1.633-.768-.398-.356-.595-.836-.593-1.442-.002-.494.13-.926.398-1.298.267-.372.638-.661 1.11-.87.474-.207 1.013-.311 1.619-.311.618 0 1.155.105 1.61.315.457.208.812.5 1.064.878.252.376.38.813.386 1.31h-1.848zm4.747-2.393L23.73 9.96h.066l1.786-5.847h2.16l-2.694 7.984h-2.57l-2.693-7.984h2.16z" fill="#fff"/></g><defs><clipPath id="clip0_6254_12"><path fill="#fff" d="M0 0h32v16H0z"/></clipPath></defs></svg>