<svg xmlns="http://www.w3.org/2000/svg" width="18" height="17"><path fill="#FFF" d="M14.367 0C16.37 0 18 1.586 18 3.536v9.928C18 15.414 16.37 17 14.367 17H3.633C1.63 17 0 15.414 0 13.464V3.536C0 1.586 1.63 0 3.633 0h10.734zM9 11.707c1.818 0 3.296-1.439 3.296-3.207 0-1.768-1.478-3.208-3.296-3.208-1.818 0-3.296 1.44-3.296 3.208 0 1.768 1.478 3.207 3.296 3.207zm0-7.96c2.693 0 4.884 2.132 4.884 4.753S11.693 13.253 9 13.253c-2.693 0-4.884-2.132-4.884-4.753S6.307 3.747 9 3.747zm4.859-.97c.458 0 .828.36.828.806 0 .445-.37.806-.828.806a.817.817 0 01-.828-.806c0-.446.371-.806.828-.806z" opacity=".801" fill-rule="evenodd"/></svg>