<?xml version="1.0" standalone="no"?>
<!DOCTYPE svg PUBLIC "-//W3C//DTD SVG 1.1//EN" "http://www.w3.org/Graphics/SVG/1.1/DTD/svg11.dtd" >
<svg xmlns="http://www.w3.org/2000/svg" xmlns:xlink="http://www.w3.org/1999/xlink" version="1.1">
<metadata>
Created by FontForge 20170910 at Tue Oct 23 16:35:20 2018
 By Jimmy Wärting
Copyright (c) 2017 ParaType Inc., ParaType Ltd. All rights reserved.
</metadata>
<defs>
<font id="PTRussiaText-Black" horiz-adv-x="550" >
  <font-face 
    font-family="PT_Russia Text Black"
    font-weight="900"
    font-stretch="normal"
    units-per-em="1000"
    panose-1="2 0 5 3 0 0 0 2 0 4"
    ascent="775"
    descent="-225"
    x-height="530"
    cap-height="700"
    bbox="-399 -210 1240 955"
    underline-thickness="50"
    underline-position="-100"
    unicode-range="U+000D-FEFF"
  />
<missing-glyph horiz-adv-x="500" 
d="M442 8v496h-384v-496h384zM50 512h400v-512h-400v512z" />
    <glyph glyph-name=".notdef" horiz-adv-x="500" 
d="M442 8v496h-384v-496h384zM50 512h400v-512h-400v512z" />
    <glyph glyph-name=".null" horiz-adv-x="0" 
 />
    <glyph glyph-name=".null" horiz-adv-x="0" 
 />
    <glyph glyph-name="nonmarkingreturn" unicode="&#xd;" horiz-adv-x="250" 
 />
    <glyph glyph-name="space" unicode=" " horiz-adv-x="250" 
 />
    <glyph glyph-name="exclam" unicode="!" horiz-adv-x="342" 
d="M61 700h220v-440h-220v440zM171 -10q-25 0 -47 9.5t-38.5 26t-26 38.5t-9.5 47q0 26 9.5 48t26 38.5t38.5 25.5t47 9t47 -9t38.5 -25.5t26 -38.5t9.5 -48q0 -25 -9.5 -47t-26 -38.5t-38.5 -26t-47 -9.5z" />
    <glyph glyph-name="quotedbl" unicode="&#x22;" horiz-adv-x="286" 
d="M286 700h186v-308h-186v308zM50 700h186v-308h-186v308z" />
    <glyph glyph-name="numbersign" unicode="#" horiz-adv-x="600" 
d="M341 216h-134l-42 -216h-90l42 216h-92v78h107l25 132h-92v78h107l39 196h90l-39 -196h134l39 196h90l-39 -196h89v-78h-104l-25 -132h89v-78h-104l-42 -216h-90zM222 294h134l25 132h-134z" />
    <glyph glyph-name="dollar" unicode="$" horiz-adv-x="635" 
d="M273 -12q-137 11 -202.5 71t-65.5 166h235q-1 -14 6.5 -26t26.5 -20v65q-10 1 -23 5q-49 12 -90.5 29.5t-71.5 45t-47 67.5t-17 96q0 103 67.5 158.5t181.5 66.5v88h84v-85q148 -5 220.5 -63.5t72.5 -168.5h-234q2 22 -13.5 34t-45.5 14v-67q15 -2 32 -4.5t34 -5.5
q44 -8 87 -22t77.5 -39.5t56 -64.5t21.5 -97q0 -62 -21.5 -107t-61.5 -75t-97 -46t-128 -18v-85h-84v88zM411 197q0 14 -15 21t-39 12v-62q31 0 42.5 7.5t11.5 21.5z" />
    <glyph glyph-name="percent" unicode="%" horiz-adv-x="839" 
d="M198 363q-88 0 -133 43t-45 114v30q0 71 45 114t133 43t133 -43t45 -114v-30q0 -71 -45 -114t-133 -43zM198 493q11 0 14.5 5t3.5 22v30q0 17 -3.5 22t-14.5 5t-14.5 -5t-3.5 -22v-30q0 -17 3.5 -22t14.5 -5zM641 -17q-88 0 -133 43t-45 114v30q0 71 45 114t133 43
t133 -43t45 -114v-30q0 -71 -45 -114t-133 -43zM641 113q11 0 14.5 5t3.5 22v30q0 17 -3.5 22t-14.5 5t-14.5 -5t-3.5 -22v-30q0 -17 3.5 -22t14.5 -5zM552 700h211l-469 -700h-211z" />
    <glyph glyph-name="ampersand" unicode="&#x26;" horiz-adv-x="700" 
d="M493 63q-40 -35 -91.5 -54t-111.5 -19q-53 0 -95 15t-71 41.5t-44 63t-15 80.5q0 28 6.5 53.5t21.5 50.5t39.5 50t61.5 53q-24 28 -38.5 49t-22.5 39.5t-10.5 36t-2.5 38.5q0 32 11.5 59.5t32.5 47.5t50.5 31.5t65.5 11.5t65.5 -11.5t50.5 -31.5t32.5 -47.5t11.5 -59.5
q0 -18 -5.5 -37.5t-19 -40.5t-37.5 -44.5t-60 -50.5l169 -188q25 58 25 131h88q0 -60 -13.5 -110t-38.5 -90l117 -130h-114zM290 68q87 0 147 58l-190 211q-30 -23 -48.5 -41.5t-28.5 -35.5t-13.5 -34t-3.5 -36q0 -54 35.5 -88t101.5 -34zM208 560q0 -13 2.5 -24.5t8.5 -24
t17 -28t29 -36.5q30 22 47.5 38.5t26 30t11 24t2.5 20.5q0 31 -20.5 51.5t-51.5 20.5q-30 0 -51 -21t-21 -51z" />
    <glyph glyph-name="quotesingle" unicode="'" horiz-adv-x="286" 
d="M50 700h186v-308h-186v308z" />
    <glyph glyph-name="parenleft" unicode="(" horiz-adv-x="406" 
d="M30 310q0 114 24.5 197t54.5 137q34 63 79 106h208q-48 -45 -86 -108q-16 -27 -31.5 -61.5t-27.5 -75.5t-19.5 -90t-7.5 -105v-20q0 -53 7.5 -99.5t19.5 -87.5t27.5 -75.5t31.5 -62.5q38 -66 86 -115h-209q-45 48 -79 113q-29 56 -53.5 137.5t-24.5 189.5v20z" />
    <glyph glyph-name="parenright" unicode=")" horiz-adv-x="405" 
d="M375 290q0 -54 -7 -101t-18 -88t-25 -75.5t-29 -62.5q-34 -65 -78 -113h-208q47 49 85 115q16 28 31.5 62.5t27.5 75.5t19.5 87.5t7.5 99.5v20q0 56 -7.5 105t-19.5 90t-27.5 75.5t-31.5 61.5q-38 63 -85 108h207q44 -43 79 -106q15 -27 29 -61t25 -76t18 -91t7 -106v-20
v0z" />
    <glyph glyph-name="asterisk" unicode="*" horiz-adv-x="450" 
d="M195 473l-109 -69l-36 62l115 59l-115 59l36 62l109 -69l-6 123h72l-6 -123l109 69l36 -62l-115 -59l115 -59l-36 -62l-109 69l6 -123h-72z" />
    <glyph glyph-name="plus" unicode="+" 
d="M229 319h-179v82h179v184h92v-184h179v-82h-179v-184h-92v184z" />
    <glyph glyph-name="comma" unicode="," horiz-adv-x="316" 
d="M51 -1v211h215v-211l-154 -178h-107z" />
    <glyph glyph-name="hyphen" unicode="-" horiz-adv-x="384" 
d="M60 411h264v-192h-264v192z" />
    <glyph glyph-name="period" unicode="." horiz-adv-x="342" 
d="M171 -10q-25 0 -47 9.5t-38.5 26t-26 38.5t-9.5 47q0 26 9.5 48t26 38.5t38.5 25.5t47 9t47 -9t38.5 -25.5t26 -38.5t9.5 -48q0 -25 -9.5 -47t-26 -38.5t-38.5 -26t-47 -9.5z" />
    <glyph glyph-name="slash" unicode="/" horiz-adv-x="531" 
d="M334 750h187l-324 -900h-187z" />
    <glyph glyph-name="zero" unicode="0" horiz-adv-x="640" 
d="M315 -15q-59 0 -112.5 18t-94 59t-64.5 109t-24 168v40q0 93 24 157.5t65 104t95.5 57t115.5 17.5q65 0 120 -17.5t95 -57t62.5 -104t22.5 -157.5v-40q0 -100 -24 -168t-65.5 -109t-97 -59t-118.5 -18zM320 197q11 0 18.5 5.5t12.5 21.5t7 43.5t2 71.5v40q0 67 -7 96
t-33 29q-22 0 -31 -29t-9 -96v-40q0 -44 2 -71.5t7 -43.5t12.5 -21.5t18.5 -5.5z" />
    <glyph glyph-name="one" unicode="1" horiz-adv-x="529" 
d="M20 212h127v225l-118 -78v233l158 108h224v-488h108v-212h-499v212z" />
    <glyph glyph-name="two" unicode="2" horiz-adv-x="636" 
d="M40 160l169 133q64 50 97.5 91.5t33.5 77.5q0 18 -7.5 29.5t-27.5 11.5q-24 0 -34.5 -17.5t-8.5 -65.5h-220q0 68 14.5 122.5t48.5 93t91 59t141 20.5q140 0 207 -57t67 -154q0 -36 -10.5 -67t-28.5 -58t-42.5 -51.5t-52.5 -47.5l-85 -68h224v-212h-576v160z" />
    <glyph glyph-name="three" unicode="3" horiz-adv-x="616" 
d="M306 440q39 0 39 43q0 24 -11.5 34.5t-36.5 10.5q-20 0 -31.5 -8t-16.5 -22.5t-6 -34t-1 -43.5h-220q0 148 75.5 221.5t216.5 73.5q137 0 205.5 -53t68.5 -149q0 -54 -27 -92.5t-78 -55.5q65 -15 94.5 -55t29.5 -96q0 -55 -20.5 -97.5t-59 -72t-92 -44.5t-119.5 -15
q-78 0 -135 21t-94.5 59t-55 92.5t-16.5 122.5h222q0 -51 14 -79.5t60 -28.5q24 0 38.5 13t14.5 41q0 30 -15 42t-53 12h-29v160h39v0z" />
    <glyph glyph-name="four" unicode="4" horiz-adv-x="650" 
d="M300 99h-280v200l266 401h276v-389h68v-212h-68v-99h-262v99zM300 311v127l-84 -127h84z" />
    <glyph glyph-name="five" unicode="5" horiz-adv-x="627" 
d="M315 -15q-87 0 -143.5 20.5t-90.5 55.5t-47.5 81.5t-13.5 97.5h214q0 -12 2.5 -23t8.5 -20t16 -14.5t25 -5.5q30 0 40.5 17t10.5 49q0 34 -12 48t-38 14q-39 0 -49 -28h-202v423h541v-212h-349v-81q17 21 52.5 39.5t100.5 18.5q48 0 89.5 -10.5t72 -36t47.5 -67.5
t17 -104q0 -60 -19.5 -108.5t-56.5 -82.5t-91.5 -52.5t-124.5 -18.5z" />
    <glyph glyph-name="six" unicode="6" horiz-adv-x="654" 
d="M346 -15q-76 0 -136.5 23t-102.5 66.5t-64.5 106t-22.5 142.5v33q0 90 22.5 157t64.5 112t102 67.5t135 22.5q69 0 121.5 -16.5t87.5 -46.5t53.5 -72t18.5 -92h-220q-1 15 -14.5 25t-39.5 10q-38 0 -50.5 -22.5t-12.5 -51.5v-40q19 23 53.5 39.5t90.5 16.5q52 0 92 -16.5
t66.5 -46t40 -68.5t13.5 -84v-14q0 -46 -17 -91t-53 -80.5t-92.5 -57.5t-135.5 -22zM335 177q23 0 31 18.5t8 37.5v16q0 21 -8.5 38.5t-31.5 17.5q-12 0 -20 -5.5t-12.5 -13.5t-6 -17.5t-1.5 -18.5v-14q0 -10 1.5 -20.5t6 -19t12.5 -14t21 -5.5z" />
    <glyph glyph-name="seven" unicode="7" horiz-adv-x="546" 
d="M260 488h-250v212h526v-190l-185 -510h-279z" />
    <glyph glyph-name="eight" unicode="8" horiz-adv-x="650" 
d="M326 280q-32 0 -50 -12t-18 -42q0 -28 22 -41t46 -13q29 0 48 13t19 41q0 30 -18 42t-49 12zM326 528q-21 0 -35 -10.5t-14 -34.5q0 -21 15 -32t36 -11q19 0 32.5 11t13.5 32q0 45 -48 45zM326 715q68 0 122 -13.5t91.5 -39.5t57.5 -63.5t20 -85.5q0 -54 -29.5 -92.5
t-80.5 -55.5q32 -8 56.5 -23.5t40.5 -37t24 -47t8 -53.5q0 -55 -23.5 -96t-65.5 -68.5t-98.5 -41t-122.5 -13.5t-123 13.5t-98.5 41t-65.5 68.5t-24 96q0 28 8 53.5t24 47t40.5 37t56.5 23.5q-51 17 -80.5 55.5t-29.5 92.5q0 48 20 85.5t58 63.5t92 39.5t122 13.5z" />
    <glyph glyph-name="nine" unicode="9" horiz-adv-x="654" 
d="M322 715q84 0 143 -23t96.5 -66.5t55 -106.5t17.5 -142v-33q0 -359 -324 -359q-69 0 -120 17t-85.5 47.5t-53 72t-22.5 90.5h220q1 -15 14.5 -25t39.5 -10q38 0 50.5 22.5t12.5 51.5v40q-19 -23 -53.5 -39.5t-90.5 -16.5q-53 0 -92.5 16.5t-66 46t-40 68.5t-13.5 84v14
q0 46 18.5 91t56.5 80.5t97 57.5t140 22zM319 523q-23 0 -31 -18.5t-8 -37.5v-16q0 -21 8.5 -38.5t31.5 -17.5q12 0 19.5 5.5t12 13.5t6.5 17.5t2 18.5v14q0 10 -1.5 20.5t-6 19t-12.5 14t-21 5.5z" />
    <glyph glyph-name="colon" unicode=":" horiz-adv-x="342" 
d="M171 300q-25 0 -47 9.5t-38.5 26t-26 38.5t-9.5 47q0 26 9.5 48t26 38.5t38.5 25.5t47 9t47 -9t38.5 -25.5t26 -38.5t9.5 -48q0 -25 -9.5 -47t-26 -38.5t-38.5 -26t-47 -9.5zM171 -10q-25 0 -47 9.5t-38.5 26t-26 38.5t-9.5 47q0 26 9.5 48t26 38.5t38.5 25.5t47 9t47 -9
t38.5 -25.5t26 -38.5t9.5 -48q0 -25 -9.5 -47t-26 -38.5t-38.5 -26t-47 -9.5z" />
    <glyph glyph-name="semicolon" unicode=";" horiz-adv-x="342" 
d="M171 300q-25 0 -47 9.5t-38.5 26t-26 38.5t-9.5 47q0 26 9.5 48t26 38.5t38.5 25.5t47 9t47 -9t38.5 -25.5t26 -38.5t9.5 -48q0 -25 -9.5 -47t-26 -38.5t-38.5 -26t-47 -9.5zM64 -1v211h215v-211l-154 -178h-107z" />
    <glyph glyph-name="less" unicode="&#x3c;" 
d="M50 310v100l450 190v-94l-350 -144l350 -144v-98z" />
    <glyph glyph-name="equal" unicode="=" 
d="M50 302h450v-82h-450v82zM50 501h450v-82h-450v82z" />
    <glyph glyph-name="greater" unicode="&#x3e;" 
d="M499.939 409.95v-99.9883l-449.945 -189.977v93.9883l349.957 143.982l-349.957 143.982v97.9883z" />
    <glyph glyph-name="question" unicode="?" horiz-adv-x="556" 
d="M182 302q0 34 10 58t24.5 41.5t32 29t32 21.5t24.5 19t10 21q0 16 -9.5 24.5t-32.5 8.5q-26 0 -38.5 -18.5t-12.5 -66.5h-202q-2 60 12 109.5t46.5 84.5t84 54t125.5 19q69 0 116.5 -14.5t76.5 -40t42 -60.5t13 -76q0 -49 -12 -77.5t-30.5 -44.5t-39.5 -24.5t-39.5 -17.5
t-30.5 -22.5t-12 -39.5v-30h-190v42zM279 -10q-25 0 -47 9.5t-38.5 26t-26 38.5t-9.5 47q0 26 9.5 48t26 38.5t38.5 25.5t47 9t47.5 -9t38.5 -25.5t25.5 -38.5t9.5 -48q0 -25 -9.5 -47t-25.5 -38.5t-38.5 -26t-47.5 -9.5z" />
    <glyph glyph-name="at" unicode="@" horiz-adv-x="864" 
d="M457 -128q-95 0 -172 25.5t-131.5 78.5t-84 136t-29.5 198q0 106 30.5 184t83.5 129t124.5 75.5t153.5 24.5q95 0 168 -21t123 -67.5t75.5 -121t25.5 -180.5q0 -72 -15.5 -123t-43.5 -83t-65.5 -47t-82.5 -15q-42 0 -72 13t-47 52q-14 -35 -44 -51t-69 -16
q-79 0 -123.5 53.5t-44.5 160.5v55q0 109 40 157t111 48q24 0 40 -3.5t26.5 -9.5t17 -15t12.5 -19v40h163v-250q0 -31 3.5 -45.5t24.5 -14.5q10 0 17 4.5t11.5 16.5t6.5 34t2 58q0 80 -17 132.5t-50 83t-81.5 42.5t-111.5 12q-55 0 -102.5 -14t-82 -47.5t-54 -90
t-19.5 -141.5q0 -89 20 -149.5t57 -98t89 -54t117 -16.5q58 0 107.5 16t85.5 41v-129q-38 -22 -84.5 -35t-108.5 -13zM423 219q17 0 23.5 13t6.5 48v40q0 20 -1.5 32.5t-5 19t-9.5 8.5t-15 2q-19 0 -25 -12.5t-6 -49.5v-40q0 -34 7 -47.5t25 -13.5z" />
    <glyph glyph-name="A" unicode="A" horiz-adv-x="742" 
d="M449 94h-191l-28 -94h-228l226 700h287l225 -700h-262zM317 286h72l-36 119z" />
    <glyph glyph-name="B" unicode="B" horiz-adv-x="720" 
d="M40 700h410q123 0 179.5 -45t56.5 -142q0 -54 -27 -92.5t-78 -55.5q129 -30 129 -167q0 -49 -14 -86t-45 -62t-81 -37.5t-121 -12.5h-409v700zM369 172q46 0 62 11t16 43t-16 43t-64 11h-63v-108h65zM361 440q35 0 48.5 8.5t13.5 34.5t-12.5 35.5t-47.5 9.5h-59v-88h57z
" />
    <glyph glyph-name="C" unicode="C" horiz-adv-x="720" 
d="M706 280q0 -82 -27 -138.5t-73 -91t-107.5 -50t-129.5 -15.5q-73 0 -136.5 20.5t-111 64t-74.5 110t-27 158.5v18q0 94 27 162t74.5 112t111 64.5t136.5 20.5q66 0 126.5 -16t107 -51.5t74 -91.5t26.5 -136h-242q-4 47 -27 64.5t-54 17.5q-44 0 -67 -33.5t-23 -112.5v-21
q0 -72 24.5 -104.5t68.5 -32.5q36 0 56.5 17t25.5 65h241z" />
    <glyph glyph-name="D" unicode="D" horiz-adv-x="726" 
d="M40 700h340q79 0 140 -19t102.5 -60t62.5 -105t21 -153v-16q0 -93 -23.5 -159t-67 -107.5t-106.5 -61t-142 -19.5h-327v700zM334 222q25 0 44 5.5t32 19.5t19.5 38t6.5 62v18q0 67 -20 95t-73 28h-39v-266h30z" />
    <glyph glyph-name="E" unicode="E" horiz-adv-x="614" 
d="M40 700h549v-192h-285v-67h253v-162h-253v-87h285v-192h-549v700z" />
    <glyph glyph-name="F" unicode="F" horiz-adv-x="595" 
d="M40 700h540v-192h-276v-97h244v-192h-244v-219h-264v700z" />
    <glyph glyph-name="G" unicode="G" horiz-adv-x="725" 
d="M706 304q0 -90 -27 -151.5t-72 -98.5t-103.5 -53t-122.5 -16q-78 0 -144 20.5t-114 64t-75.5 110t-27.5 158.5v18q0 94 27 162t74.5 112t111 64.5t136.5 20.5q66 0 126.5 -16.5t107 -51.5t74 -89t26.5 -128h-242q-1 31 -18.5 51.5t-60.5 20.5q-45 0 -68.5 -33.5
t-23.5 -112.5v-21q0 -72 26 -104.5t78 -32.5q28 0 48 9t23 29h-82v150h323v-82z" />
    <glyph glyph-name="H" unicode="H" horiz-adv-x="754" 
d="M40 700h264v-239h146v239h264v-700h-264v249h-146v-249h-264v700z" />
    <glyph glyph-name="I" unicode="I" horiz-adv-x="354" 
d="M45 700h264v-700h-264v700z" />
    <glyph glyph-name="J" unicode="J" horiz-adv-x="617" 
d="M298 -15q-142 0 -217.5 75.5t-75.5 230.5h224q0 -51 10.5 -72t33.5 -21q26 0 33 19t7 57v426h264v-438q0 -77 -22.5 -130t-61 -85.5t-89 -47t-106.5 -14.5z" />
    <glyph glyph-name="K" unicode="K" horiz-adv-x="747" 
d="M304 471l164 229h282l-233 -306l235 -394h-304l-121 211l-23 -30v-181h-264v700h264v-229z" />
    <glyph glyph-name="L" unicode="L" horiz-adv-x="568" 
d="M40 700h264v-488h254v-212h-518v700z" />
    <glyph glyph-name="M" unicode="M" horiz-adv-x="894" 
d="M450 417l132 283h272v-700h-252v323l-90 -186h-130l-90 186v-323h-252v700h278z" />
    <glyph glyph-name="N" unicode="N" horiz-adv-x="744" 
d="M40 700h222l200 -288v288h242v-700h-222l-200 289v-289h-242v700z" />
    <glyph glyph-name="O" unicode="O" horiz-adv-x="758" 
d="M379 715q73 0 138.5 -20.5t114.5 -64.5t77.5 -112t28.5 -162v-21q0 -91 -28.5 -157t-77.5 -109t-114.5 -63.5t-138.5 -20.5t-138.5 20.5t-114.5 64t-77.5 110t-28.5 158.5v18q0 94 28.5 162t77.5 112t114.5 64.5t138.5 20.5zM380 502q-44 0 -67 -33.5t-23 -112.5v-21
q0 -72 24.5 -104.5t68.5 -32.5t64.5 32.5t20.5 104.5v21q0 79 -22 112.5t-66 33.5z" />
    <glyph glyph-name="P" unicode="P" horiz-adv-x="677" 
d="M40 700h318q304 0 304 -253q0 -59 -20 -107t-61 -83t-102.5 -54t-144.5 -19h-30v-184h-264v700zM334 375q35 0 51.5 19t16.5 49q0 24 -14 44.5t-54 20.5h-30v-133h30z" />
    <glyph glyph-name="Q" unicode="Q" horiz-adv-x="778" 
d="M379 715q73 0 138.5 -20.5t114.5 -64.5t77.5 -112t28.5 -162v-21q0 -51 -9 -93.5t-26 -77.5l55 -49l-110 -130l-60 52q-45 -26 -98 -39t-111 -13q-73 0 -138.5 20.5t-114.5 64t-77.5 110t-28.5 158.5v18q0 94 28.5 162t77.5 112t114.5 64.5t138.5 20.5zM380 502
q-44 0 -67 -33.5t-23 -112.5v-21q0 -72 24.5 -104.5t68.5 -32.5h10.5t10.5 2l-79 70l110 131l33 -29q-2 70 -24 100t-64 30z" />
    <glyph glyph-name="R" unicode="R" horiz-adv-x="692" 
d="M40 700h318q152 0 228 -58t76 -185q0 -62 -22.5 -110.5t-67.5 -81.5l110 -265h-288l-67 204h-23v-204h-264v700zM334 395q68 0 68 58q0 24 -14 39.5t-54 15.5h-30v-113h30z" />
    <glyph glyph-name="S" unicode="S" horiz-adv-x="675" 
d="M335 -15q-169 0 -249.5 61t-80.5 179h235q0 -12 5 -22.5t18 -18t35 -12t54 -4.5q34 0 46.5 7t12.5 22q0 14 -14 21t-37 11.5t-51.5 8.5t-58.5 11q-49 12 -90.5 29.5t-71.5 45t-47 67.5t-17 96q0 58 22.5 101t63.5 71.5t98 42t127 13.5q159 0 237 -58.5t78 -173.5h-234
q2 24 -16 36.5t-54 12.5q-22 0 -35.5 -3t-20.5 -8t-9.5 -10.5t-2.5 -11.5q0 -11 12 -17t32 -10.5t46 -8.5t55 -9q44 -8 87 -22t77.5 -39.5t56 -64.5t21.5 -97q0 -64 -23 -110.5t-66 -76.5t-104 -44.5t-137 -14.5z" />
    <glyph glyph-name="T" unicode="T" horiz-adv-x="664" 
d="M200 488h-180v212h624v-212h-180v-488h-264v488z" />
    <glyph glyph-name="U" unicode="U" horiz-adv-x="712" 
d="M356 -7q-74 0 -134.5 17.5t-103 53t-65.5 89.5t-23 127v420h254v-379q0 -27 2.5 -48.5t10.5 -36.5t22.5 -22.5t38.5 -7.5t38 7.5t21 22t9 35.5t2 48v381h254v-420q0 -73 -23 -127t-65.5 -89.5t-103 -53t-134.5 -17.5z" />
    <glyph glyph-name="V" unicode="V" horiz-adv-x="737" 
d="M389 295l118 405h228l-221 -700h-287l-225 700h262z" />
    <glyph glyph-name="W" unicode="W" horiz-adv-x="1102" 
d="M2 700h261l74 -333l89 333h250l91 -337l76 337h257l-166 -700h-293l-91 349l-89 -349h-293z" />
    <glyph glyph-name="X" unicode="X" horiz-adv-x="790" 
d="M785 0h-296l-96 191l-96 -191h-292l209 362l-189 338h294l78 -164l78 164h290l-188 -335z" />
    <glyph glyph-name="Y" unicode="Y" horiz-adv-x="742" 
d="M513 0h-264v247l-247 453h307l82 -192l76 192h273l-227 -453v-247z" />
    <glyph glyph-name="Z" unicode="Z" horiz-adv-x="636" 
d="M20 209l267 279h-257v212h586v-208l-257 -280h257v-212h-596v209z" />
    <glyph glyph-name="bracketleft" unicode="[" horiz-adv-x="360" 
d="M85 700h215v-82h-121v-736h121v-82h-215v900z" />
    <glyph glyph-name="backslash" unicode="\" horiz-adv-x="531" 
d="M334 -150l-324 900h187l324 -900h-187z" />
    <glyph glyph-name="bracketright" unicode="]" horiz-adv-x="360" 
d="M274.967 -199.976h-214.975v81.9902h120.985v735.91h-120.985v81.9893h214.975v-899.89z" />
    <glyph glyph-name="asciicircum" unicode="^" 
d="M225 700h100l170 -260h-102l-120 190l-120 -190h-98z" />
    <glyph glyph-name="underscore" unicode="_" horiz-adv-x="500" 
d="M0 -62h500v-76h-500v76z" />
    <glyph glyph-name="grave" unicode="`" horiz-adv-x="250" 
d="M20 740h102l108 -160h-78z" />
    <glyph glyph-name="a" unicode="a" horiz-adv-x="589" 
d="M186 -12q-47 0 -80 14.5t-54.5 38.5t-31.5 54.5t-10 62.5q0 38 12 69.5t38.5 54t68.5 35t101 12.5h98v9q0 20 -7.5 29t-31.5 9q-32 0 -35 -32h-216q3 41 17.5 77t46 63t81 42.5t122.5 15.5q48 0 91.5 -11t77.5 -36.5t54 -67t20 -102.5v-192q0 -39 0.5 -69t5.5 -64h-208
q-2 13 -5 28t-3 40q-18 -37 -56 -58.5t-96 -21.5zM273 154q28 0 41.5 7.5t13.5 25.5v12h-52q-22 0 -34 -4t-12 -18q0 -10 8.5 -16.5t34.5 -6.5z" />
    <glyph glyph-name="b" unicode="b" horiz-adv-x="623" 
d="M40 700h220v-218q30 36 65 48t77 12q97 0 151.5 -65t54.5 -199v-19q0 -69 -16 -120t-44.5 -84t-67 -49t-83.5 -16q-57 0 -91 14t-56 43v-47h-210v700zM325 166q30 0 46.5 19.5t16.5 74.5v18q0 48 -16 68t-48 20q-28 0 -46 -19t-18 -68v-25q0 -47 16 -67.5t49 -20.5z" />
    <glyph glyph-name="c" unicode="c" horiz-adv-x="590" 
d="M308 -15q-63 0 -116.5 17.5t-93 52t-61.5 86.5t-22 121v22q0 63 22.5 111.5t60.5 82t88.5 50.5t106.5 17q80 0 133.5 -19t85.5 -51t46.5 -75.5t16.5 -91.5h-200q-5 34 -21.5 46.5t-45.5 12.5q-35 0 -50 -24.5t-15 -62.5v-21q0 -45 14.5 -70.5t58.5 -25.5q20 0 39.5 13
t22.5 46h197q-1 -54 -17.5 -97.5t-50 -74.5t-83 -48t-116.5 -17z" />
    <glyph glyph-name="d" unicode="d" horiz-adv-x="623" 
d="M583 0h-220v48q-30 -36 -65.5 -47t-74.5 -11q-44 0 -82 16t-66 48.5t-44 81.5t-16 116v19q0 69 17.5 120t48 84t71.5 49t87 16q47 0 79.5 -14t54.5 -43v217h210v-700zM298 364q-30 0 -46.5 -19.5t-16.5 -74.5v-18q0 -48 16 -68t48 -20q28 0 46 19t18 68v25q0 47 -16 67.5
t-49 20.5z" />
    <glyph glyph-name="e" unicode="e" horiz-adv-x="605" 
d="M319 -15q-151 0 -227.5 74t-76.5 203v22q0 63 22.5 111.5t61 82t90.5 50.5t111 17q73 0 127.5 -21.5t90.5 -60.5t54 -94t18 -122v-46h-347q4 -50 73 -50q26 0 39.5 6t19.5 17h205q-16 -91 -80.5 -140t-180.5 -49zM308 379q-26 0 -43 -12.5t-21 -35.5h128q0 26 -17.5 37
t-46.5 11z" />
    <glyph glyph-name="f" unicode="f" horiz-adv-x="381" 
d="M389 560q-20 5 -47 5q-28 0 -40.5 -6.5t-12.5 -25.5v-3h90v-176h-90v-354h-220v354h-59v176h59v8q0 88 50.5 127.5t164.5 39.5q23 0 53.5 -3.5t51.5 -8.5v-133z" />
    <glyph glyph-name="g" unicode="g" horiz-adv-x="623" 
d="M363 48q-30 -36 -65.5 -47t-74.5 -11q-44 0 -82 16t-66 48.5t-44 81.5t-16 116v19q0 69 17.5 120t48 84t71.5 49t87 16q47 0 79.5 -14t54.5 -43v47h210v-475q0 -140 -71 -201t-203 -61q-73 0 -123 14.5t-81.5 39.5t-46.5 58t-18 69h200q10 -21 59 -21q29 0 46.5 13.5
t17.5 45.5v36zM298 364q-30 0 -46.5 -19.5t-16.5 -74.5v-18q0 -48 16 -68t48 -20q28 0 46 19t18 68v25q0 47 -16 67.5t-49 20.5z" />
    <glyph glyph-name="h" unicode="h" horiz-adv-x="615" 
d="M40 700h210v-228q18 27 52.5 48.5t100.5 21.5q177 0 177 -192v-350h-220v307q0 30 -10 44.5t-37 14.5q-29 0 -41 -15t-12 -44v-307h-220v700z" />
    <glyph glyph-name="i" unicode="i" horiz-adv-x="325" 
d="M53 530h220v-530h-220v530zM166 557q-70 0 -98 20t-28 57q0 38 28.5 57.5t97.5 19.5q64 0 92 -18t28 -59q0 -36 -30 -56.5t-90 -20.5z" />
    <glyph glyph-name="j" unicode="j" horiz-adv-x="302" 
d="M-52 -24h17q21 0 33.5 5t19 15.5t8.5 28t2 41.5v464h220v-510q0 -66 -18 -108.5t-49.5 -67t-75 -34.5t-93.5 -10h-64v176zM142 557q-70 0 -98 20t-28 57q0 38 28.5 57.5t97.5 19.5q64 0 92 -18t28 -59q0 -36 -30 -56.5t-90 -20.5z" />
    <glyph glyph-name="k" unicode="k" horiz-adv-x="590" 
d="M260 385l81 145h247l-146 -237l136 -293h-242l-59 134l-17 -30v-104h-220v700h220v-315z" />
    <glyph glyph-name="l" unicode="l" horiz-adv-x="346" 
d="M264 0q-56 0 -97.5 10t-68.5 34.5t-40 67t-13 108.5v480h220v-434q0 -24 2 -41.5t8.5 -28t19 -15.5t33.5 -5h17v-176h-81z" />
    <glyph glyph-name="m" unicode="m" horiz-adv-x="875" 
d="M250 472q9 14 20 27t27 22.5t38.5 15t53.5 5.5q56 0 84.5 -17.5t45.5 -52.5q14 28 51.5 49t100.5 21q90 0 129.5 -47.5t39.5 -144.5v-350h-220v307q0 30 -6 44.5t-29 14.5t-29 -15t-6 -44v-307h-220v307q0 30 -6 44.5t-29 14.5t-29 -15t-6 -44v-307h-220v530h210v-58z
" />
    <glyph glyph-name="n" unicode="n" horiz-adv-x="615" 
d="M40 530h210v-58q18 29 52.5 49.5t100.5 20.5q177 0 177 -192v-350h-220v307q0 30 -10 44.5t-37 14.5q-29 0 -41 -15t-12 -44v-307h-220v530z" />
    <glyph glyph-name="o" unicode="o" horiz-adv-x="616" 
d="M308 -15q-61 0 -114.5 17.5t-93 52.5t-62.5 87.5t-23 122.5v13q0 65 23 115t62.5 83.5t93 51t114.5 17.5t114.5 -17.5t93 -51t62.5 -83.5t23 -115v-18q0 -68 -23 -119.5t-62.5 -86t-93 -52t-114.5 -17.5zM308 161q22 0 35 10t20 25t8.5 32t1.5 32v18q0 12 -1.5 27.5
t-8.5 29.5t-20 24t-35 10q-23 0 -35.5 -10t-19.5 -24t-8.5 -29.5t-1.5 -27.5v-13q0 -17 1.5 -35t8.5 -33.5t19.5 -25.5t35.5 -10z" />
    <glyph glyph-name="p" unicode="p" horiz-adv-x="623" 
d="M40 530h220v-48q30 36 65 48t77 12q97 0 151.5 -65t54.5 -199v-19q0 -69 -16 -120t-44.5 -84t-67 -49t-83.5 -16q-57 0 -91 14t-56 43v-247h-210v730zM325 166q30 0 46.5 19.5t16.5 74.5v18q0 48 -16 68t-48 20q-28 0 -46 -19t-18 -68v-25q0 -47 16 -67.5t49 -20.5z" />
    <glyph glyph-name="q" unicode="q" horiz-adv-x="623" 
d="M583 -200h-220v248q-30 -36 -65.5 -47t-74.5 -11q-44 0 -82 16t-66 48.5t-44 81.5t-16 116v19q0 69 17.5 120t48 84t71.5 49t87 16q47 0 79.5 -14t54.5 -43v47h210v-730zM298 364q-30 0 -46.5 -19.5t-16.5 -74.5v-18q0 -48 16 -68t48 -20q28 0 46 19t18 68v25
q0 47 -16 67.5t-49 20.5z" />
    <glyph glyph-name="r" unicode="r" horiz-adv-x="403" 
d="M394 353q-11 5 -29 9t-36 4q-69 0 -69 -59v-307h-220v530h210v-58q8 27 33.5 48.5t66.5 21.5q25 0 44 -8v-181z" />
    <glyph glyph-name="s" unicode="s" horiz-adv-x="562" 
d="M297 -15q-78 0 -131.5 19t-87.5 48.5t-50 65t-18 69.5h199q1 -14 19 -25t55 -11q42 0 42 19q0 11 -22.5 15.5t-56.5 9t-73.5 13t-73.5 26.5t-56.5 50t-22.5 84q0 81 64.5 129t188.5 48q79 0 129.5 -18.5t80 -47.5t41.5 -64t14 -68h-199q-2 14 -12.5 23t-34.5 9
q-28 0 -36 -5.5t-8 -13.5q0 -12 22.5 -16.5t56.5 -8t73 -10.5t73 -23.5t56.5 -46.5t22.5 -80q0 -89 -67 -139.5t-188 -50.5z" />
    <glyph glyph-name="t" unicode="t" horiz-adv-x="409" 
d="M288 0q-56 0 -97.5 10t-68.5 34.5t-40 67t-13 108.5v134h-59v176h59v120h220v-120h103v-176h-103v-88q0 -24 2 -41.5t8.5 -28t19 -15.5t33.5 -5h47v-176h-111z" />
    <glyph glyph-name="u" unicode="u" horiz-adv-x="615" 
d="M575 0h-210v58q-18 -29 -53 -49.5t-89 -20.5q-97 0 -140 47.5t-43 144.5v350h220v-307q0 -30 9.5 -44.5t36.5 -14.5q29 0 39 15t10 44v307h220v-530z" />
    <glyph glyph-name="v" unicode="v" horiz-adv-x="580" 
d="M2 530h236l67 -226l60 226h213l-161 -530h-234z" />
    <glyph glyph-name="w" unicode="w" horiz-adv-x="832" 
d="M2 530h238l55 -223l48 223h167l47 -217l49 217h224l-129 -530h-235l-41 178l-39 -178h-245z" />
    <glyph glyph-name="x" unicode="x" horiz-adv-x="610" 
d="M127 275l-106 255h238l50 -139l47 139h233l-106 -250l125 -280h-238l-69 163l-65 -163h-234z" />
    <glyph glyph-name="y" unicode="y" horiz-adv-x="580" 
d="M141 -24q19 -2 31 -0.5t19 5t10 8.5t4 11l-203 530h236l68 -224l59 224h213l-165 -530q-21 -68 -45 -109.5t-56 -63t-73.5 -27t-97.5 -0.5v176z" />
    <glyph glyph-name="z" unicode="z" horiz-adv-x="526" 
d="M20 171l199 183h-189v176h476v-171l-197 -183h197v-176h-486v171z" />
    <glyph glyph-name="braceleft" unicode="{" horiz-adv-x="360" 
d="M250 -200q-86 0 -125.5 39.5t-39.5 125.5v195q0 23 -13.5 36.5t-36.5 13.5v90q23 0 36.5 13.5t13.5 36.5v185q0 86 39.5 125.5t125.5 39.5h50v-82h-40q-43 0 -62 -19t-19 -64v-220q0 -26 -12.5 -40.5t-31.5 -19.5q19 -5 31.5 -19.5t12.5 -40.5v-230q0 -45 19 -64t62 -19
h40v-82h-50z" />
    <glyph glyph-name="bar" unicode="|" horiz-adv-x="320" 
d="M113 700h94v-900h-94v900z" />
    <glyph glyph-name="braceright" unicode="}" horiz-adv-x="360" 
d="M109.986 699.914q85.9902 0 125.485 -39.4951t39.4951 -125.484v-194.976q0 -22.998 13.498 -36.4961t36.4951 -13.498v-89.9893q-22.9971 0 -36.4951 -13.498q-13.498 -13.499 -13.498 -36.4961v-184.978q0 -85.9893 -39.4951 -125.484t-125.485 -39.4951h-49.9941
v81.9902h39.9961q42.9941 0 61.9922 18.9971q18.9971 18.998 18.9971 63.9922v219.974q0 25.9971 12.499 40.4951q12.498 14.498 31.4961 19.4971q-18.998 5 -31.4961 19.498q-12.499 14.498 -12.499 40.4951v229.972q0 44.9951 -18.9971 63.9922
q-18.998 18.998 -61.9922 18.998h-39.9961v81.9893h49.9941z" />
    <glyph glyph-name="asciitilde" unicode="~" 
d="M370 280q-32 0 -58 12t-49 26t-44.5 26t-43.5 12q-20 0 -34 -11t-24 -24q-11 -15 -19 -34l-63 38q13 31 33 57q17 22 44.5 40t67.5 18q32 0 58 -12t49 -26.5t44 -26.5t44 -12q20 0 34 10.5t24 24.5q11 15 19 35l63 -38q-13 -32 -33 -58q-17 -22 -45 -39.5t-67 -17.5z" />
    <glyph glyph-name="exclamdown" unicode="&#xa1;" horiz-adv-x="300" 
d="M103 310h94v-510h-94v510zM171 400q-25 0 -47 9.5t-38.5 26t-26 38.5t-9.5 47q0 26 9.5 48t26 38.5t38.5 25.5t47 9t47 -9t38.5 -25.5t26 -38.5t9.5 -48q0 -25 -9.5 -47t-26 -38.5t-38.5 -26t-47 -9.5z" />
    <glyph glyph-name="cent" unicode="&#xa2;" 
d="M239 -8q-49 9 -89.5 30t-70 54.5t-45.5 80t-16 105.5v22q0 55 17 99t47 76t70 52.5t87 28.5v90h78v-86q73 -3 122.5 -22.5t79.5 -51.5t43.5 -74t15.5 -88h-200q-5 34 -21.5 46.5t-45.5 12.5q-35 0 -50 -24.5t-15 -62.5v-21q0 -45 14.5 -70.5t58.5 -25.5q20 0 39.5 13
t22.5 46h197q-2 -107 -66 -171t-195 -66v-85h-78v92z" />
    <glyph glyph-name="sterling" unicode="&#xa3;" 
d="M50 82h75v224h-65v72h65v122q0 49 14 88t39.5 66t61 41.5t78.5 14.5q41 0 75.5 -13.5t60 -38.5t40 -59t16.5 -74h-94q-4 48 -30 74.5t-68 26.5q-47 0 -73 -29.5t-26 -96.5v-122h161v-72h-161v-224h291v-82h-460v82z" />
    <glyph glyph-name="currency" unicode="&#xa4;" 
d="M375 198q-45 -28 -100 -28q-29 0 -54 7.5t-48 21.5l-79 -79l-59 59l79 79q-14 23 -21.5 48t-7.5 54q0 55 28 100l-78 78l62 62l78 -78q45 28 100 28q28 0 53.5 -8t47.5 -22l80 80l59 -59l-80 -80q14 -22 22 -47.5t8 -53.5q0 -55 -28 -100l78 -78l-62 -62zM275 248
q45 0 75.5 32t30.5 80t-30.5 80t-75.5 32t-75.5 -32t-30.5 -80t30.5 -80t75.5 -32z" />
    <glyph glyph-name="yen" unicode="&#xa5;" 
d="M238 162h-153v72h153v72h-153v72h103l-163 322h104l155 -321l141 321h100l-148 -322h108v-72h-153v-72h153v-72h-153v-162h-94v162z" />
    <glyph glyph-name="brokenbar" unicode="&#xa6;" horiz-adv-x="310" 
d="M108 170h94v-370h-94v370zM108 700h94v-370h-94v370z" />
    <glyph glyph-name="section" unicode="&#xa7;" 
d="M275 -210q-85 0 -130 43.5t-45 116.5h94q0 -75 81 -75t81 77q0 18 -7 32t-25 27.5t-48.5 27.5t-78.5 33q-60 24 -96 69.5t-36 108.5q0 57 33 100.5t90 67.5q-39 23 -63.5 52.5t-24.5 77.5q0 74 45.5 118t129.5 44q85 0 130 -43.5t45 -116.5h-94q0 76 -81 76
q-40 0 -60.5 -20t-20.5 -58q0 -18 7 -32t25 -27.5t49 -27.5t78 -33q60 -24 96 -70.5t36 -108.5q0 -57 -33.5 -100t-89.5 -67q38 -22 63 -52t25 -78q0 -74 -45.5 -118t-129.5 -44zM275 142q51 0 84.5 30t33.5 77q0 23 -9 43t-25 34.5t-37.5 23t-46.5 8.5q-51 0 -84.5 -30.5
t-33.5 -77.5t33.5 -77.5t84.5 -30.5z" />
    <glyph glyph-name="dieresis" unicode="&#xa8;" horiz-adv-x="360" 
d="M78 602q-24 0 -41 17t-17 41t17 41t41 17t41 -17t17 -41t-17 -41t-41 -17zM282 602q-24 0 -41 17t-17 41t17 41t41 17t41 -17t17 -41t-17 -41t-41 -17z" />
    <glyph glyph-name="copyright" unicode="&#xa9;" horiz-adv-x="879" 
d="M440 -50q-83 0 -156 31.5t-127 85.5t-85.5 126.5t-31.5 155.5t31.5 156t85.5 127t127 85.5t156 31.5q82 0 155 -31.5t127 -85.5t85.5 -127t31.5 -156t-31.5 -155.5t-85.5 -126.5t-127 -85.5t-155 -31.5zM440 72q57 0 107 21.5t87.5 59t59 88t21.5 109.5q0 58 -21.5 109
t-59 88.5t-87.5 59t-107 21.5t-107 -21.5t-87.5 -59t-59 -88.5t-21.5 -109q0 -59 21.5 -109.5t59 -88t87.5 -59t107 -21.5zM440 113q-102 0 -157.5 57t-55.5 160v50q0 95 56.5 151t156.5 56q49 0 86.5 -15t62.5 -42t38 -63.5t15 -79.5h-165q-1 30 -9 42.5t-24 12.5
q-17 0 -24.5 -13.5t-7.5 -48.5v-50q0 -42 8 -57t24 -15t24 12.5t9 42.5h165q1 -44 -13 -80.5t-40.5 -63t-64.5 -41.5t-84 -15z" />
    <glyph glyph-name="ordfeminine" unicode="&#xaa;" horiz-adv-x="360" 
d="M150 370q-62 0 -91 27t-29 75q0 45 30.5 72.5t94.5 27.5h95v13q0 65 -60 65q-30 0 -43 -10.5t-17 -29.5h-80q4 45 36 72.5t104 27.5q75 0 107.5 -30.5t32.5 -94.5v-125q0 -26 1 -45.5t4 -34.5h-70q-3 15 -4 25t-1 26q-12 -23 -40 -42t-70 -19zM165 430q42 0 63.5 20
t21.5 50v16h-85q-29 0 -42 -11.5t-13 -32.5q0 -19 13 -30.5t42 -11.5z" />
    <glyph glyph-name="guillemotleft" unicode="&#xab;" horiz-adv-x="517" 
d="M50 168v204l187 166v-227l-53 -39l53 -38v-231zM280 168v204l187 166v-227l-53 -39l53 -38v-231z" />
    <glyph glyph-name="logicalnot" unicode="&#xac;" 
d="M418 319h-368v82h450v-250h-82v168z" />
    <glyph glyph-name="registered" unicode="&#xae;" horiz-adv-x="630" 
d="M315 140q-59 0 -111 22.5t-90.5 61t-61 90.5t-22.5 111t22.5 111t61 90.5t90.5 61t111 22.5t111 -22.5t90.5 -61t61 -90.5t22.5 -111t-22.5 -111t-61 -90.5t-90.5 -61t-111 -22.5zM315 200q45 0 85 17.5t69.5 48t47 71.5t17.5 88t-17.5 88t-47 71.5t-69.5 48t-85 17.5
t-85 -17.5t-69.5 -48t-47 -71.5t-17.5 -88t17.5 -88t47 -71.5t69.5 -48t85 -17.5zM337 383h-7h-56v-108h-64v300h120q54 0 82 -26.5t28 -69.5q0 -58 -48 -83l58 -121h-66zM274 521v-84h51q28 0 39.5 11t11.5 31t-11.5 31t-39.5 11h-51z" />
    <glyph glyph-name="macron" unicode="&#xaf;" horiz-adv-x="320" 
d="M20 693h280v-66h-280v66z" />
    <glyph glyph-name="degree" unicode="&#xb0;" horiz-adv-x="350" 
d="M175 410q-33 0 -61.5 12t-49 32t-32.5 47.5t-12 58.5t12 58.5t32.5 47.5t49 32t61.5 12t61.5 -12t49 -32t32.5 -47.5t12 -58.5t-12 -58.5t-32.5 -47.5t-49 -32t-61.5 -12zM175 488q32 0 52.5 20t20.5 52t-20.5 52t-52.5 20t-52.5 -20t-20.5 -52t20.5 -52t52.5 -20z" />
    <glyph glyph-name="plusminus" unicode="&#xb1;" 
d="M50 172h450v-82h-450v82zM229 364h-179v82h179v184h92v-184h179v-82h-179v-104h-92v104z" />
    <glyph glyph-name="twosuperior" unicode="&#xb2;" horiz-adv-x="360" 
d="M30 440l151 132q18 16 29 28t16.5 23t7.5 21t2 21q0 20 -16.5 35.5t-44.5 15.5t-44.5 -15.5t-16.5 -35.5h-84q0 53 38.5 89t106.5 36t106.5 -36t38.5 -89q0 -39 -22 -71t-69 -70l-89 -74h190v-70h-300v60z" />
    <glyph glyph-name="threesuperior" unicode="&#xb3;" horiz-adv-x="370" 
d="M185 370q-38 0 -66.5 9.5t-48.5 26t-30 38.5t-10 46h84q0 -22 16.5 -36t54.5 -14t54.5 16t16.5 42t-17 40t-55 14h-50v66h50q32 0 47 14t15 37t-15 37t-46 14q-35 0 -50.5 -13t-15.5 -32h-84q0 48 37.5 81.5t112.5 33.5q72 0 108.5 -32.5t36.5 -81.5q0 -39 -17.5 -57
t-47.5 -29q30 -11 52.5 -33.5t22.5 -64.5q0 -25 -10 -47.5t-30 -39t-49 -26t-66 -9.5z" />
    <glyph glyph-name="acute" unicode="&#xb4;" horiz-adv-x="250" 
d="M130 740h100l-134 -160h-76z" />
    <glyph glyph-name="mu" unicode="&#xb5;" horiz-adv-x="600" 
d="M80 530h88v-327q0 -70 34.5 -102.5t95.5 -32.5q66 0 100 40t34 112v310h88v-530h-80v90q-9 -21 -25 -39.5t-37 -32t-46 -21t-52 -7.5q-73 0 -112 33v-223h-88v730z" />
    <glyph glyph-name="mu" unicode="&#x3bc;" horiz-adv-x="600" 
d="M80 530h88v-327q0 -70 34.5 -102.5t95.5 -32.5q66 0 100 40t34 112v310h88v-530h-80v90q-9 -21 -25 -39.5t-37 -32t-46 -21t-52 -7.5q-73 0 -112 33v-223h-88v730z" />
    <glyph glyph-name="paragraph" unicode="&#xb6;" horiz-adv-x="625" 
d="M431 618h-139v-818h-94v505q-33 8 -61 26t-48.5 44t-32 58t-11.5 67q0 41 16 77.5t43 63.5t63.5 43t77.5 16h280v-900h-94v818z" />
    <glyph glyph-name="periodcentered" unicode="&#xb7;" horiz-adv-x="300" 
d="M171 205q-25 0 -47 9.5t-38.5 26t-26 38.5t-9.5 47q0 26 9.5 48t26 38.5t38.5 25.5t47 9t47 -9t38.5 -25.5t26 -38.5t9.5 -48q0 -25 -9.5 -47t-26 -38.5t-38.5 -26t-47 -9.5z" />
    <glyph glyph-name="cedilla" unicode="&#xb8;" horiz-adv-x="210" 
d="M75 -210q-12 0 -22 0.5t-18 1.5q-9 1 -15 3v58q7 -2 15 -3q7 -1 14.5 -1.5t15.5 -0.5q28 0 39.5 9.5t11.5 25.5q0 14 -12.5 23t-48.5 9l20 95h60l-11 -52q37 -8 51.5 -29.5t14.5 -46.5q0 -41 -28.5 -66.5t-86.5 -25.5z" />
    <glyph glyph-name="onesuperior" unicode="&#xb9;" horiz-adv-x="320" 
d="M30 450h100v243l-100 -68v87l100 68h80v-330h80v-70h-260v70z" />
    <glyph glyph-name="ordmasculine" unicode="&#xba;" horiz-adv-x="390" 
d="M195 370q-36 0 -66.5 12t-52.5 34t-34 52.5t-12 66.5v10q0 36 12.5 66.5t34 52t52 34t66.5 12.5t66.5 -12t52.5 -34t34 -52.5t12 -66.5v-10q0 -36 -12.5 -66.5t-34 -52t-52 -34t-66.5 -12.5zM195 444q38 0 59.5 23t21.5 68v10q0 45 -21.5 68t-59.5 23t-59.5 -23
t-21.5 -68v-10q0 -45 21.5 -68t59.5 -23z" />
    <glyph glyph-name="guillemotright" unicode="&#xbb;" horiz-adv-x="517" 
d="M280 234l53 38l-53 39v227l187 -166v-204l-187 -165v231zM50 234l53 38l-53 39v227l187 -166v-204l-187 -165v231z" />
    <glyph glyph-name="onequarter" unicode="&#xbc;" horiz-adv-x="870" 
d="M50 371h100v243l-100 -68v87l100 68h80v-330h80v-70h-260v70zM639 700h211l-469 -700h-211zM700 86h-200v60l187 255h93v-245h40v-70h-40v-85h-80v85zM700 156v150l-110 -150h110z" />
    <glyph glyph-name="onehalf" unicode="&#xbd;" horiz-adv-x="940" 
d="M50 371h100v243l-100 -68v87l100 68h80v-330h80v-70h-260v70zM639 700h211l-469 -700h-211zM590 61l151 132q18 16 29 28t16.5 23t7.5 21t2 21q0 20 -16.5 35.5t-44.5 15.5t-44.5 -15.5t-16.5 -35.5h-84q0 53 38.5 89t106.5 36t106.5 -36t38.5 -89q0 -39 -22 -71t-69 -70
l-89 -74h190v-70h-300v60z" />
    <glyph glyph-name="threequarters" unicode="&#xbe;" horiz-adv-x="895" 
d="M205 271q-38 0 -66.5 9.5t-48.5 26t-30 38.5t-10 46h84q0 -22 16.5 -36t54.5 -14t54.5 16t16.5 42t-17 40t-55 14h-50v66h50q32 0 47 14t15 37t-15 37t-46 14q-35 0 -50.5 -13t-15.5 -32h-84q0 48 37.5 81.5t112.5 33.5q72 0 108.5 -32.5t36.5 -81.5q0 -39 -17.5 -57
t-47.5 -29q30 -11 52.5 -33.5t22.5 -64.5q0 -25 -10 -47.5t-30 -39t-49 -26t-66 -9.5zM664 700h211l-469 -700h-211zM725 86h-200v60l187 255h93v-245h40v-70h-40v-85h-80v85zM725 156v150l-110 -150h110z" />
    <glyph glyph-name="questiondown" unicode="&#xbf;" horiz-adv-x="500" 
d="M250 -210q-48 0 -87 14.5t-66.5 40t-42 60t-14.5 75.5q0 28 9 53t24.5 47.5t35.5 43t41 38.5q17 14 27.5 26.5t16.5 24t8 23t2 24.5v50h94v-62q0 -19 -3 -35t-12 -32t-25 -34t-42 -40q-42 -36 -59 -65t-17 -62q0 -48 29.5 -77t80.5 -29t80.5 29t29.5 77h100
q0 -41 -14.5 -75.5t-42 -60t-66.5 -40t-87 -14.5zM271 400q-25 0 -47 9.5t-38.5 26t-26 38.5t-9.5 47q0 26 9.5 48t26 38.5t38.5 25.5t47 9t47 -9t38.5 -25.5t26 -38.5t9.5 -48q0 -25 -9.5 -47t-26 -38.5t-38.5 -26t-47 -9.5z" />
    <glyph glyph-name="Agrave" unicode="&#xc0;" horiz-adv-x="670" 
d="M449 94h-191l-28 -94h-228l226 700h287l225 -700h-262zM317 286h72l-36 119zM155 900h104l116 -150h-80z" />
    <glyph glyph-name="Aacute" unicode="&#xc1;" horiz-adv-x="670" 
d="M449 94h-191l-28 -94h-228l226 700h287l225 -700h-262zM317 286h72l-36 119zM414 900h102l-142 -150h-78z" />
    <glyph glyph-name="Acircumflex" unicode="&#xc2;" horiz-adv-x="670" 
d="M449 94h-191l-28 -94h-228l226 700h287l225 -700h-262zM317 286h72l-36 119zM297 900h76l117 -150h-80l-75 85l-77 -85h-78z" />
    <glyph glyph-name="Atilde" unicode="&#xc3;" horiz-adv-x="670" 
d="M449 94h-191l-28 -94h-228l226 700h287l225 -700h-262zM317 286h72l-36 119zM395 765q-26 0 -42.5 8t-29.5 17t-24.5 17t-28.5 8q-14 0 -23.5 -6.5t-16.5 -14.5q-8 -10 -13 -21l-52 27q9 24 25 42q13 16 34 29.5t51 13.5q24 0 40.5 -8t29.5 -17t25.5 -17t29.5 -8
q13 0 23 6.5t17 14.5q8 9 13 21l52 -27q-10 -25 -25 -43q-14 -16 -34.5 -29t-50.5 -13z" />
    <glyph glyph-name="Adieresis" unicode="&#xc4;" horiz-adv-x="670" 
d="M449 94h-191l-28 -94h-228l226 700h287l225 -700h-262zM317 286h72l-36 119zM225 765q-25 0 -42.5 17.5t-17.5 42.5t17.5 42.5t42.5 17.5t42.5 -17.5t17.5 -42.5t-17.5 -42.5t-42.5 -17.5zM445 765q-25 0 -42.5 17.5t-17.5 42.5t17.5 42.5t42.5 17.5t42.5 -17.5
t17.5 -42.5t-17.5 -42.5t-42.5 -17.5z" />
    <glyph glyph-name="Aring" unicode="&#xc5;" horiz-adv-x="670" 
d="M449 94h-191l-28 -94h-228l226 700h287l225 -700h-262zM317 286h72l-36 119zM335 735q-54 0 -87 31.5t-33 78.5t33 78.5t87 31.5t87 -31.5t33 -78.5t-33 -78.5t-87 -31.5zM335 797q22 0 35.5 13.5t13.5 34.5t-13.5 34.5t-35.5 13.5t-35.5 -13.5t-13.5 -34.5t13.5 -34.5
t35.5 -13.5z" />
    <glyph glyph-name="AE" unicode="&#xc6;" horiz-adv-x="957" 
d="M407 700h490v-82h-356v-217h324v-82h-324v-237h356v-82h-450v174h-233l-96 -174h-103zM447 256v344l-188 -344h188z" />
    <glyph glyph-name="Ccedilla" unicode="&#xc7;" horiz-adv-x="670" 
d="M706 280q0 -82 -27 -138.5t-73 -91t-107.5 -50t-129.5 -15.5q-73 0 -136.5 20.5t-111 64t-74.5 110t-27 158.5v18q0 94 27 162t74.5 112t111 64.5t136.5 20.5q66 0 126.5 -16t107 -51.5t74 -91.5t26.5 -136h-242q-4 47 -27 64.5t-54 17.5q-44 0 -67 -33.5t-23 -112.5v-21
q0 -72 24.5 -104.5t68.5 -32.5q36 0 56.5 17t25.5 65h241zM325 -210q-12 0 -23 0.5t-19 1.5q-10 1 -18 3v58q8 -2 17 -3q8 -1 16.5 -1.5t16.5 -0.5q32 0 44 9.5t12 25.5q0 14 -13 23t-53 9l20 95h60l-11 -52q41 -8 56 -29.5t15 -46.5q0 -41 -29 -66.5t-91 -25.5z" />
    <glyph glyph-name="Egrave" unicode="&#xc8;" horiz-adv-x="610" 
d="M40 700h549v-192h-285v-67h253v-162h-253v-87h285v-192h-549v700zM145 900h104l116 -150h-80z" />
    <glyph glyph-name="Eacute" unicode="&#xc9;" horiz-adv-x="610" 
d="M40 700h549v-192h-285v-67h253v-162h-253v-87h285v-192h-549v700zM404 900h102l-142 -150h-78z" />
    <glyph glyph-name="Ecircumflex" unicode="&#xca;" horiz-adv-x="610" 
d="M40 700h549v-192h-285v-67h253v-162h-253v-87h285v-192h-549v700zM287 900h76l117 -150h-80l-75 85l-77 -85h-78z" />
    <glyph glyph-name="Edieresis" unicode="&#xcb;" horiz-adv-x="610" 
d="M40 700h549v-192h-285v-67h253v-162h-253v-87h285v-192h-549v700zM215 765q-25 0 -42.5 17.5t-17.5 42.5t17.5 42.5t42.5 17.5t42.5 -17.5t17.5 -42.5t-17.5 -42.5t-42.5 -17.5zM435 765q-25 0 -42.5 17.5t-17.5 42.5t17.5 42.5t42.5 17.5t42.5 -17.5t17.5 -42.5
t-17.5 -42.5t-42.5 -17.5z" />
    <glyph glyph-name="Igrave" unicode="&#xcc;" horiz-adv-x="304" 
d="M45 700h264v-700h-264v700zM-27 900h104l116 -150h-80z" />
    <glyph glyph-name="Iacute" unicode="&#xcd;" horiz-adv-x="304" 
d="M45 700h264v-700h-264v700zM231 900h102l-142 -150h-78z" />
    <glyph glyph-name="Icircumflex" unicode="&#xce;" horiz-adv-x="304" 
d="M45 700h264v-700h-264v700zM115 900h76l117 -150h-80l-75 85l-77 -85h-78z" />
    <glyph glyph-name="Idieresis" unicode="&#xcf;" horiz-adv-x="304" 
d="M45 700h264v-700h-264v700zM43 765q-25 0 -42.5 17.5t-17.5 42.5t17.5 42.5t42.5 17.5t42.5 -17.5t17.5 -42.5t-17.5 -42.5t-42.5 -17.5zM263 765q-25 0 -42.5 17.5t-17.5 42.5t17.5 42.5t42.5 17.5t42.5 -17.5t17.5 -42.5t-17.5 -42.5t-42.5 -17.5z" />
    <glyph glyph-name="Eth" unicode="&#xd0;" horiz-adv-x="695" 
d="M10 396h30v304h340q79 0 140 -19t102.5 -60t62.5 -105t21 -153v-16q0 -93 -23.5 -159t-67 -107.5t-106.5 -61t-142 -19.5h-327v324h-30v72zM334 222q25 0 44 5.5t32 19.5t19.5 38t6.5 62v18q0 67 -20 95t-73 28h-39v-92h61v-72h-61v-102h30z" />
    <glyph glyph-name="Ntilde" unicode="&#xd1;" horiz-adv-x="750" 
d="M40 700h222l200 -288v288h242v-700h-222l-200 289v-289h-242v700zM435 765q-26 0 -42.5 8t-29.5 17t-24.5 17t-28.5 8q-14 0 -23.5 -6.5t-16.5 -14.5q-8 -10 -13 -21l-52 27q9 24 25 42q13 16 34 29.5t51 13.5q24 0 40.5 -8t29.5 -17t25.5 -17t29.5 -8q13 0 23 6.5
t17 14.5q8 9 13 21l52 -27q-10 -25 -25 -43q-14 -16 -34.5 -29t-50.5 -13z" />
    <glyph glyph-name="Ograve" unicode="&#xd2;" horiz-adv-x="740" 
d="M379 715q73 0 138.5 -20.5t114.5 -64.5t77.5 -112t28.5 -162v-21q0 -91 -28.5 -157t-77.5 -109t-114.5 -63.5t-138.5 -20.5t-138.5 20.5t-114.5 64t-77.5 110t-28.5 158.5v18q0 94 28.5 162t77.5 112t114.5 64.5t138.5 20.5zM380 502q-44 0 -67 -33.5t-23 -112.5v-21
q0 -72 24.5 -104.5t68.5 -32.5t64.5 32.5t20.5 104.5v21q0 79 -22 112.5t-66 33.5zM190 900h104l116 -150h-80z" />
    <glyph glyph-name="Oacute" unicode="&#xd3;" horiz-adv-x="740" 
d="M379 715q73 0 138.5 -20.5t114.5 -64.5t77.5 -112t28.5 -162v-21q0 -91 -28.5 -157t-77.5 -109t-114.5 -63.5t-138.5 -20.5t-138.5 20.5t-114.5 64t-77.5 110t-28.5 158.5v18q0 94 28.5 162t77.5 112t114.5 64.5t138.5 20.5zM380 502q-44 0 -67 -33.5t-23 -112.5v-21
q0 -72 24.5 -104.5t68.5 -32.5t64.5 32.5t20.5 104.5v21q0 79 -22 112.5t-66 33.5zM449 900h102l-142 -150h-78z" />
    <glyph glyph-name="Ocircumflex" unicode="&#xd4;" horiz-adv-x="740" 
d="M379 715q73 0 138.5 -20.5t114.5 -64.5t77.5 -112t28.5 -162v-21q0 -91 -28.5 -157t-77.5 -109t-114.5 -63.5t-138.5 -20.5t-138.5 20.5t-114.5 64t-77.5 110t-28.5 158.5v18q0 94 28.5 162t77.5 112t114.5 64.5t138.5 20.5zM380 502q-44 0 -67 -33.5t-23 -112.5v-21
q0 -72 24.5 -104.5t68.5 -32.5t64.5 32.5t20.5 104.5v21q0 79 -22 112.5t-66 33.5zM332 900h76l117 -150h-80l-75 85l-77 -85h-78z" />
    <glyph glyph-name="Otilde" unicode="&#xd5;" horiz-adv-x="740" 
d="M379 715q73 0 138.5 -20.5t114.5 -64.5t77.5 -112t28.5 -162v-21q0 -91 -28.5 -157t-77.5 -109t-114.5 -63.5t-138.5 -20.5t-138.5 20.5t-114.5 64t-77.5 110t-28.5 158.5v18q0 94 28.5 162t77.5 112t114.5 64.5t138.5 20.5zM380 502q-44 0 -67 -33.5t-23 -112.5v-21
q0 -72 24.5 -104.5t68.5 -32.5t64.5 32.5t20.5 104.5v21q0 79 -22 112.5t-66 33.5zM430 765q-26 0 -42.5 8t-29.5 17t-24.5 17t-28.5 8q-14 0 -23.5 -6.5t-16.5 -14.5q-8 -10 -13 -21l-52 27q9 24 25 42q13 16 34 29.5t51 13.5q24 0 40.5 -8t29.5 -17t25.5 -17t29.5 -8
q13 0 23 6.5t17 14.5q8 9 13 21l52 -27q-10 -25 -25 -43q-14 -16 -34.5 -29t-50.5 -13z" />
    <glyph glyph-name="Odieresis" unicode="&#xd6;" horiz-adv-x="740" 
d="M379 715q73 0 138.5 -20.5t114.5 -64.5t77.5 -112t28.5 -162v-21q0 -91 -28.5 -157t-77.5 -109t-114.5 -63.5t-138.5 -20.5t-138.5 20.5t-114.5 64t-77.5 110t-28.5 158.5v18q0 94 28.5 162t77.5 112t114.5 64.5t138.5 20.5zM380 502q-44 0 -67 -33.5t-23 -112.5v-21
q0 -72 24.5 -104.5t68.5 -32.5t64.5 32.5t20.5 104.5v21q0 79 -22 112.5t-66 33.5zM260 765q-25 0 -42.5 17.5t-17.5 42.5t17.5 42.5t42.5 17.5t42.5 -17.5t17.5 -42.5t-17.5 -42.5t-42.5 -17.5zM480 765q-25 0 -42.5 17.5t-17.5 42.5t17.5 42.5t42.5 17.5t42.5 -17.5
t17.5 -42.5t-17.5 -42.5t-42.5 -17.5z" />
    <glyph glyph-name="multiply" unicode="&#xd7;" 
d="M75 219l141 141l-141 141l59 59l141 -141l141 141l59 -59l-141 -141l141 -141l-59 -59l-141 141l-141 -141z" />
    <glyph glyph-name="Oslash" unicode="&#xd8;" horiz-adv-x="740" 
d="M379 715q51 0 98 -10t89 -31l48 66l55 -40l-46 -63q53 -44 84 -113t31 -168v-21q0 -91 -28.5 -157t-77.5 -109t-114.5 -63.5t-138.5 -20.5q-56 0 -106.5 11.5t-93.5 35.5l-53 -72l-55 40l53 72q-48 43 -76 109t-28 157v18q0 94 28.5 162t77.5 112t114.5 64.5t138.5 20.5z
M468 356q0 18 -1.5 33.5t-3.5 29.5l-143 -195q22 -26 63 -26q44 0 64.5 32.5t20.5 104.5v21zM380 502q-44 0 -67 -33.5t-23 -112.5v-21v-18.5t1 -16.5l137 187q-20 15 -48 15z" />
    <glyph glyph-name="Ugrave" unicode="&#xd9;" horiz-adv-x="710" 
d="M356 -7q-74 0 -134.5 17.5t-103 53t-65.5 89.5t-23 127v420h254v-379q0 -27 2.5 -48.5t10.5 -36.5t22.5 -22.5t38.5 -7.5t38 7.5t21 22t9 35.5t2 48v381h254v-420q0 -73 -23 -127t-65.5 -89.5t-103 -53t-134.5 -17.5zM175 900h104l116 -150h-80z" />
    <glyph glyph-name="Uacute" unicode="&#xda;" horiz-adv-x="710" 
d="M356 -7q-74 0 -134.5 17.5t-103 53t-65.5 89.5t-23 127v420h254v-379q0 -27 2.5 -48.5t10.5 -36.5t22.5 -22.5t38.5 -7.5t38 7.5t21 22t9 35.5t2 48v381h254v-420q0 -73 -23 -127t-65.5 -89.5t-103 -53t-134.5 -17.5zM434 900h102l-142 -150h-78z" />
    <glyph glyph-name="Ucircumflex" unicode="&#xdb;" horiz-adv-x="710" 
d="M356 -7q-74 0 -134.5 17.5t-103 53t-65.5 89.5t-23 127v420h254v-379q0 -27 2.5 -48.5t10.5 -36.5t22.5 -22.5t38.5 -7.5t38 7.5t21 22t9 35.5t2 48v381h254v-420q0 -73 -23 -127t-65.5 -89.5t-103 -53t-134.5 -17.5zM317 900h76l117 -150h-80l-75 85l-77 -85h-78z" />
    <glyph glyph-name="Udieresis" unicode="&#xdc;" horiz-adv-x="710" 
d="M356 -7q-74 0 -134.5 17.5t-103 53t-65.5 89.5t-23 127v420h254v-379q0 -27 2.5 -48.5t10.5 -36.5t22.5 -22.5t38.5 -7.5t38 7.5t21 22t9 35.5t2 48v381h254v-420q0 -73 -23 -127t-65.5 -89.5t-103 -53t-134.5 -17.5zM245 765q-25 0 -42.5 17.5t-17.5 42.5t17.5 42.5
t42.5 17.5t42.5 -17.5t17.5 -42.5t-17.5 -42.5t-42.5 -17.5zM465 765q-25 0 -42.5 17.5t-17.5 42.5t17.5 42.5t42.5 17.5t42.5 -17.5t17.5 -42.5t-17.5 -42.5t-42.5 -17.5z" />
    <glyph glyph-name="Yacute" unicode="&#xdd;" horiz-adv-x="628" 
d="M513 0h-264v247l-247 453h307l82 -192l76 192h273l-227 -453v-247zM395 900h102l-142 -150h-78z" />
    <glyph glyph-name="Thorn" unicode="&#xde;" horiz-adv-x="660" 
d="M100 700h94v-116h161q126 0 190.5 -60.5t64.5 -162.5q0 -103 -64 -163t-191 -60h-161v-138h-94v700zM350 220q83 0 121.5 36t38.5 105t-38.5 105t-121.5 36h-156v-282h156z" />
    <glyph glyph-name="germandbls" unicode="&#xdf;" horiz-adv-x="575" 
d="M75 490q0 103 58.5 161.5t161.5 58.5q49 0 88 -14t66 -39.5t41.5 -60.5t14.5 -76q0 -48 -24.5 -86t-71.5 -60q59 -20 87.5 -61.5t28.5 -100.5v-20q0 -92 -53 -142t-162 -50h-60v76h60q63 0 95 31t32 85v20q0 57 -32 88.5t-95 31.5h-60v76h50q57 0 87 29t30 83
q0 50 -32.5 81t-89.5 31q-61 0 -96.5 -36.5t-35.5 -105.5v-490h-88v490z" />
    <glyph glyph-name="agrave" unicode="&#xe0;" horiz-adv-x="569" 
d="M183 -12q-47 0 -80 14.5t-54.5 38.5t-31.5 54.5t-10 62.5q0 38 12 69.5t38.5 54t68.5 35t101 12.5h98v9q0 20 -7.5 29t-31.5 9q-32 0 -35 -32h-216q3 41 17.5 77t46 63t81 42.5t122.5 15.5q48 0 91.5 -11t77.5 -36.5t54 -67t20 -102.5v-192q0 -39 0.5 -69t5.5 -64h-208
q-2 13 -5 28t-3 40q-18 -37 -56 -58.5t-96 -21.5zM270 154q28 0 41.5 7.5t13.5 25.5v12h-52q-22 0 -34 -4t-12 -18q0 -10 8.5 -16.5t34.5 -6.5zM112 740h102l108 -160h-78z" />
    <glyph glyph-name="aacute" unicode="&#xe1;" horiz-adv-x="569" 
d="M183 -12q-47 0 -80 14.5t-54.5 38.5t-31.5 54.5t-10 62.5q0 38 12 69.5t38.5 54t68.5 35t101 12.5h98v9q0 20 -7.5 29t-31.5 9q-32 0 -35 -32h-216q3 41 17.5 77t46 63t81 42.5t122.5 15.5q48 0 91.5 -11t77.5 -36.5t54 -67t20 -102.5v-192q0 -39 0.5 -69t5.5 -64h-208
q-2 13 -5 28t-3 40q-18 -37 -56 -58.5t-96 -21.5zM270 154q28 0 41.5 7.5t13.5 25.5v12h-52q-22 0 -34 -4t-12 -18q0 -10 8.5 -16.5t34.5 -6.5zM355 740h100l-134 -160h-76z" />
    <glyph glyph-name="acircumflex" unicode="&#xe2;" horiz-adv-x="569" 
d="M183 -12q-47 0 -80 14.5t-54.5 38.5t-31.5 54.5t-10 62.5q0 38 12 69.5t38.5 54t68.5 35t101 12.5h98v9q0 20 -7.5 29t-31.5 9q-32 0 -35 -32h-216q3 41 17.5 77t46 63t81 42.5t122.5 15.5q48 0 91.5 -11t77.5 -36.5t54 -67t20 -102.5v-192q0 -39 0.5 -69t5.5 -64h-208
q-2 13 -5 28t-3 40q-18 -37 -56 -58.5t-96 -21.5zM270 154q28 0 41.5 7.5t13.5 25.5v12h-52q-22 0 -34 -4t-12 -18q0 -10 8.5 -16.5t34.5 -6.5zM246 740h74l108 -160h-78l-67 85l-69 -85h-76z" />
    <glyph glyph-name="atilde" unicode="&#xe3;" horiz-adv-x="569" 
d="M183 -12q-47 0 -80 14.5t-54.5 38.5t-31.5 54.5t-10 62.5q0 38 12 69.5t38.5 54t68.5 35t101 12.5h98v9q0 20 -7.5 29t-31.5 9q-32 0 -35 -32h-216q3 41 17.5 77t46 63t81 42.5t122.5 15.5q48 0 91.5 -11t77.5 -36.5t54 -67t20 -102.5v-192q0 -39 0.5 -69t5.5 -64h-208
q-2 13 -5 28t-3 40q-18 -37 -56 -58.5t-96 -21.5zM270 154q28 0 41.5 7.5t13.5 25.5v12h-52q-22 0 -34 -4t-12 -18q0 -10 8.5 -16.5t34.5 -6.5zM338 605q-24 0 -39.5 7t-27.5 15l-22.5 15t-25.5 7q-14 0 -23 -6t-15 -14q-7 -9 -12 -19l-50 25q9 22 24 40q13 15 32.5 27.5
t48.5 12.5q22 0 37.5 -7t27.5 -15t23.5 -15t26.5 -7q13 0 22.5 5.5t15.5 13.5q7 9 12 20l50 -25q-9 -22 -24 -40q-13 -15 -33 -27.5t-48 -12.5z" />
    <glyph glyph-name="adieresis" unicode="&#xe4;" horiz-adv-x="569" 
d="M183 -12q-47 0 -80 14.5t-54.5 38.5t-31.5 54.5t-10 62.5q0 38 12 69.5t38.5 54t68.5 35t101 12.5h98v9q0 20 -7.5 29t-31.5 9q-32 0 -35 -32h-216q3 41 17.5 77t46 63t81 42.5t122.5 15.5q48 0 91.5 -11t77.5 -36.5t54 -67t20 -102.5v-192q0 -39 0.5 -69t5.5 -64h-208
q-2 13 -5 28t-3 40q-18 -37 -56 -58.5t-96 -21.5zM270 154q28 0 41.5 7.5t13.5 25.5v12h-52q-22 0 -34 -4t-12 -18q0 -10 8.5 -16.5t34.5 -6.5zM181 602q-24 0 -41 17t-17 41t17 41t41 17t41 -17t17 -41t-17 -41t-41 -17zM385 602q-24 0 -41 17t-17 41t17 41t41 17t41 -17
t17 -41t-17 -41t-41 -17z" />
    <glyph glyph-name="aring" unicode="&#xe5;" horiz-adv-x="569" 
d="M183 -12q-47 0 -80 14.5t-54.5 38.5t-31.5 54.5t-10 62.5q0 38 12 69.5t38.5 54t68.5 35t101 12.5h98v9q0 20 -7.5 29t-31.5 9q-32 0 -35 -32h-216q3 41 17.5 77t46 63t81 42.5t122.5 15.5q48 0 91.5 -11t77.5 -36.5t54 -67t20 -102.5v-192q0 -39 0.5 -69t5.5 -64h-208
q-2 13 -5 28t-3 40q-18 -37 -56 -58.5t-96 -21.5zM270 154q28 0 41.5 7.5t13.5 25.5v12h-52q-22 0 -34 -4t-12 -18q0 -10 8.5 -16.5t34.5 -6.5zM283 570q-54 0 -87 31.5t-33 78.5t33 78.5t87 31.5t87 -31.5t33 -78.5t-33 -78.5t-87 -31.5zM283 630q23 0 37 14t14 36t-14 36
t-37 14t-37 -14t-14 -36t14 -36t37 -14z" />
    <glyph glyph-name="ae" unicode="&#xe6;" horiz-adv-x="930" 
d="M655 -10q-64 0 -117.5 28t-85.5 85q-29 -49 -83.5 -81t-127.5 -32q-42 0 -77.5 12t-60.5 33.5t-39 52t-14 67.5q0 82 47.5 118.5t131.5 36.5h178v30q0 68 -31 95t-96 27q-57 0 -84 -20t-30 -47h-86q3 31 18.5 58t42 46t62 30t77.5 11q66 0 111 -24.5t68 -70.5
q30 47 79 71t112 24q110 0 172.5 -62.5t62.5 -172.5v-65h-392q0 -46 15 -78.5t38 -53.5t51.5 -30.5t57.5 -9.5q63 0 98 20.5t43 56.5h79q-8 -38 -28.5 -67t-49.5 -48.5t-65.5 -29.5t-76.5 -10zM257 66q27 0 54 9.5t48.5 27t34.5 42.5t13 57v38h-161q-50 0 -76 -20.5
t-26 -64.5q0 -18 6.5 -34t20 -28t35 -19.5t51.5 -7.5zM650 462q-29 0 -57 -8.5t-50 -26.5t-36 -47t-14 -70h309q-1 41 -13.5 70t-33 47t-48 26.5t-57.5 8.5z" />
    <glyph glyph-name="ccedilla" unicode="&#xe7;" horiz-adv-x="545" 
d="M308 -15q-63 0 -116.5 17.5t-93 52t-61.5 86.5t-22 121v22q0 63 22.5 111.5t60.5 82t88.5 50.5t106.5 17q80 0 133.5 -19t85.5 -51t46.5 -75.5t16.5 -91.5h-200q-5 34 -21.5 46.5t-45.5 12.5q-35 0 -50 -24.5t-15 -62.5v-21q0 -45 14.5 -70.5t58.5 -25.5q20 0 39.5 13
t22.5 46h197q-1 -54 -17.5 -97.5t-50 -74.5t-83 -48t-116.5 -17zM255 -210q-12 0 -22 0.5t-18 1.5q-9 1 -15 3v58q7 -2 15 -3q7 -1 14.5 -1.5t15.5 -0.5q28 0 39.5 9.5t11.5 25.5q0 14 -12.5 23t-48.5 9l20 95h60l-11 -52q37 -8 51.5 -29.5t14.5 -46.5q0 -41 -28.5 -66.5
t-86.5 -25.5z" />
    <glyph glyph-name="egrave" unicode="&#xe8;" horiz-adv-x="570" 
d="M319 -15q-151 0 -227.5 74t-76.5 203v22q0 63 22.5 111.5t61 82t90.5 50.5t111 17q73 0 127.5 -21.5t90.5 -60.5t54 -94t18 -122v-46h-347q4 -50 73 -50q26 0 39.5 6t19.5 17h205q-16 -91 -80.5 -140t-180.5 -49zM308 379q-26 0 -43 -12.5t-21 -35.5h128q0 26 -17.5 37
t-46.5 11zM114 740h102l108 -160h-78z" />
    <glyph glyph-name="eacute" unicode="&#xe9;" horiz-adv-x="570" 
d="M319 -15q-151 0 -227.5 74t-76.5 203v22q0 63 22.5 111.5t61 82t90.5 50.5t111 17q73 0 127.5 -21.5t90.5 -60.5t54 -94t18 -122v-46h-347q4 -50 73 -50q26 0 39.5 6t19.5 17h205q-16 -91 -80.5 -140t-180.5 -49zM308 379q-26 0 -43 -12.5t-21 -35.5h128q0 26 -17.5 37
t-46.5 11zM357 740h100l-134 -160h-76z" />
    <glyph glyph-name="ecircumflex" unicode="&#xea;" horiz-adv-x="570" 
d="M319 -15q-151 0 -227.5 74t-76.5 203v22q0 63 22.5 111.5t61 82t90.5 50.5t111 17q73 0 127.5 -21.5t90.5 -60.5t54 -94t18 -122v-46h-347q4 -50 73 -50q26 0 39.5 6t19.5 17h205q-16 -91 -80.5 -140t-180.5 -49zM308 379q-26 0 -43 -12.5t-21 -35.5h128q0 26 -17.5 37
t-46.5 11zM248 740h74l108 -160h-78l-67 85l-69 -85h-76z" />
    <glyph glyph-name="edieresis" unicode="&#xeb;" horiz-adv-x="570" 
d="M319 -15q-151 0 -227.5 74t-76.5 203v22q0 63 22.5 111.5t61 82t90.5 50.5t111 17q73 0 127.5 -21.5t90.5 -60.5t54 -94t18 -122v-46h-347q4 -50 73 -50q26 0 39.5 6t19.5 17h205q-16 -91 -80.5 -140t-180.5 -49zM308 379q-26 0 -43 -12.5t-21 -35.5h128q0 26 -17.5 37
t-46.5 11zM183 602q-24 0 -41 17t-17 41t17 41t41 17t41 -17t17 -41t-17 -41t-41 -17zM387 602q-24 0 -41 17t-17 41t17 41t41 17t41 -17t17 -41t-17 -41t-41 -17z" />
    <glyph glyph-name="igrave" unicode="&#xec;" horiz-adv-x="278" 
d="M95 530h88v-530h-88v530zM-31 740h102l108 -160h-78z" />
    <glyph glyph-name="iacute" unicode="&#xed;" horiz-adv-x="278" 
d="M95 530h88v-530h-88v530zM211 740h100l-134 -160h-76z" />
    <glyph glyph-name="icircumflex" unicode="&#xee;" horiz-adv-x="278" 
d="M95 530h88v-530h-88v530zM103 740h74l108 -160h-78l-67 85l-69 -85h-76z" />
    <glyph glyph-name="idieresis" unicode="&#xef;" horiz-adv-x="278" 
d="M95 530h88v-530h-88v530zM38 602q-24 0 -41 17t-17 41t17 41t41 17t41 -17t17 -41t-17 -41t-41 -17zM242 602q-24 0 -41 17t-17 41t17 41t41 17t41 -17t17 -41t-17 -41t-41 -17z" />
    <glyph glyph-name="eth" unicode="&#xf0;" horiz-adv-x="565" 
d="M160 582l77 39q-23 20 -47.5 39.5t-49.5 39.5h113l52 -44l104 54v-62l-60 -31q34 -33 65 -71t54.5 -82t37.5 -95t14 -109v-20q0 -58 -17.5 -104t-49 -78.5t-75.5 -50t-98 -17.5q-55 0 -99 17t-75.5 49.5t-48.5 78.5t-17 105v20q0 58 17 104t47 78.5t71.5 50t89.5 17.5
q56 0 100 -21q-18 24 -39.5 47t-45.5 46l-120 -62v62zM280 68q70 0 111 43.5t41 128.5v28q-2 81 -43 122.5t-109 41.5q-70 0 -111 -43.5t-41 -128.5v-20q0 -84 41.5 -128t110.5 -44z" />
    <glyph glyph-name="ntilde" unicode="&#xf1;" horiz-adv-x="610" 
d="M40 530h210v-58q18 29 52.5 49.5t100.5 20.5q177 0 177 -192v-350h-220v307q0 30 -10 44.5t-37 14.5q-29 0 -41 -15t-12 -44v-307h-220v530zM362 605q-24 0 -39.5 7t-27.5 15l-22.5 15t-25.5 7q-14 0 -23 -6t-15 -14q-7 -9 -12 -19l-50 25q9 22 24 40q13 15 32.5 27.5
t48.5 12.5q22 0 37.5 -7t27.5 -15t23.5 -15t26.5 -7q13 0 22.5 5.5t15.5 13.5q7 9 12 20l50 -25q-9 -22 -24 -40q-13 -15 -33 -27.5t-48 -12.5z" />
    <glyph glyph-name="ograve" unicode="&#xf2;" horiz-adv-x="600" 
d="M308 -15q-61 0 -114.5 17.5t-93 52.5t-62.5 87.5t-23 122.5v13q0 65 23 115t62.5 83.5t93 51t114.5 17.5t114.5 -17.5t93 -51t62.5 -83.5t23 -115v-18q0 -68 -23 -119.5t-62.5 -86t-93 -52t-114.5 -17.5zM308 161q22 0 35 10t20 25t8.5 32t1.5 32v18q0 12 -1.5 27.5
t-8.5 29.5t-20 24t-35 10q-23 0 -35.5 -10t-19.5 -24t-8.5 -29.5t-1.5 -27.5v-13q0 -17 1.5 -35t8.5 -33.5t19.5 -25.5t35.5 -10zM129 740h102l108 -160h-78z" />
    <glyph glyph-name="oacute" unicode="&#xf3;" horiz-adv-x="600" 
d="M308 -15q-61 0 -114.5 17.5t-93 52.5t-62.5 87.5t-23 122.5v13q0 65 23 115t62.5 83.5t93 51t114.5 17.5t114.5 -17.5t93 -51t62.5 -83.5t23 -115v-18q0 -68 -23 -119.5t-62.5 -86t-93 -52t-114.5 -17.5zM308 161q22 0 35 10t20 25t8.5 32t1.5 32v18q0 12 -1.5 27.5
t-8.5 29.5t-20 24t-35 10q-23 0 -35.5 -10t-19.5 -24t-8.5 -29.5t-1.5 -27.5v-13q0 -17 1.5 -35t8.5 -33.5t19.5 -25.5t35.5 -10zM372 740h100l-134 -160h-76z" />
    <glyph glyph-name="ocircumflex" unicode="&#xf4;" horiz-adv-x="600" 
d="M308 -15q-61 0 -114.5 17.5t-93 52.5t-62.5 87.5t-23 122.5v13q0 65 23 115t62.5 83.5t93 51t114.5 17.5t114.5 -17.5t93 -51t62.5 -83.5t23 -115v-18q0 -68 -23 -119.5t-62.5 -86t-93 -52t-114.5 -17.5zM308 161q22 0 35 10t20 25t8.5 32t1.5 32v18q0 12 -1.5 27.5
t-8.5 29.5t-20 24t-35 10q-23 0 -35.5 -10t-19.5 -24t-8.5 -29.5t-1.5 -27.5v-13q0 -17 1.5 -35t8.5 -33.5t19.5 -25.5t35.5 -10zM263 740h74l108 -160h-78l-67 85l-69 -85h-76z" />
    <glyph glyph-name="otilde" unicode="&#xf5;" horiz-adv-x="600" 
d="M308 -15q-61 0 -114.5 17.5t-93 52.5t-62.5 87.5t-23 122.5v13q0 65 23 115t62.5 83.5t93 51t114.5 17.5t114.5 -17.5t93 -51t62.5 -83.5t23 -115v-18q0 -68 -23 -119.5t-62.5 -86t-93 -52t-114.5 -17.5zM308 161q22 0 35 10t20 25t8.5 32t1.5 32v18q0 12 -1.5 27.5
t-8.5 29.5t-20 24t-35 10q-23 0 -35.5 -10t-19.5 -24t-8.5 -29.5t-1.5 -27.5v-13q0 -17 1.5 -35t8.5 -33.5t19.5 -25.5t35.5 -10zM355 605q-24 0 -39.5 7t-27.5 15l-22.5 15t-25.5 7q-14 0 -23 -6t-15 -14q-7 -9 -12 -19l-50 25q9 22 24 40q13 15 32.5 27.5t48.5 12.5
q22 0 37.5 -7t27.5 -15t23.5 -15t26.5 -7q13 0 22.5 5.5t15.5 13.5q7 9 12 20l50 -25q-9 -22 -24 -40q-13 -15 -33 -27.5t-48 -12.5z" />
    <glyph glyph-name="odieresis" unicode="&#xf6;" horiz-adv-x="600" 
d="M308 -15q-61 0 -114.5 17.5t-93 52.5t-62.5 87.5t-23 122.5v13q0 65 23 115t62.5 83.5t93 51t114.5 17.5t114.5 -17.5t93 -51t62.5 -83.5t23 -115v-18q0 -68 -23 -119.5t-62.5 -86t-93 -52t-114.5 -17.5zM308 161q22 0 35 10t20 25t8.5 32t1.5 32v18q0 12 -1.5 27.5
t-8.5 29.5t-20 24t-35 10q-23 0 -35.5 -10t-19.5 -24t-8.5 -29.5t-1.5 -27.5v-13q0 -17 1.5 -35t8.5 -33.5t19.5 -25.5t35.5 -10zM198 602q-24 0 -41 17t-17 41t17 41t41 17t41 -17t17 -41t-17 -41t-41 -17zM402 602q-24 0 -41 17t-17 41t17 41t41 17t41 -17t17 -41t-17 -41
t-41 -17z" />
    <glyph glyph-name="divide" unicode="&#xf7;" 
d="M50 401h450v-82h-450v82zM296 125q-25 0 -47 9.5t-38.5 26t-26 38.5t-9.5 47q0 26 9.5 48t26 38.5t38.5 25.5t47 9t47 -9t38.5 -25.5t26 -38.5t9.5 -48q0 -25 -9.5 -47t-26 -38.5t-38.5 -26t-47 -9.5zM296 455q-25 0 -47 9.5t-38.5 26t-26 38.5t-9.5 47q0 26 9.5 48
t26 38.5t38.5 25.5t47 9t47 -9t38.5 -25.5t26 -38.5t9.5 -48q0 -25 -9.5 -47t-26 -38.5t-38.5 -26t-47 -9.5z" />
    <glyph glyph-name="oslash" unicode="&#xf8;" horiz-adv-x="600" 
d="M55 0l43 56q-39 35 -61 87t-22 122v13q0 65 23 115t62.5 83.5t93 51t114.5 17.5q78 0 144 -29l41 54l52 -40l-37 -48q43 -34 68 -84.5t25 -119.5v-18q0 -68 -23 -119.5t-62.5 -86t-93 -52t-114.5 -17.5q-86 0 -156 34l-45 -59zM308 161q22 0 35 10t20 25t8.5 32t1.5 32
v18q0 5 -0.5 11.5t-1.5 14.5l-101 -132q14 -11 38 -11zM243 245l92 119q-13 5 -27 5q-23 0 -35.5 -10t-19.5 -24t-8.5 -29.5t-1.5 -27.5v-13v-20z" />
    <glyph glyph-name="ugrave" unicode="&#xf9;" horiz-adv-x="595" 
d="M575 0h-210v58q-18 -29 -53 -49.5t-89 -20.5q-97 0 -140 47.5t-43 144.5v350h220v-307q0 -30 9.5 -44.5t36.5 -14.5q29 0 39 15t10 44v307h220v-530zM124 740h102l108 -160h-78z" />
    <glyph glyph-name="uacute" unicode="&#xfa;" horiz-adv-x="595" 
d="M575 0h-210v58q-18 -29 -53 -49.5t-89 -20.5q-97 0 -140 47.5t-43 144.5v350h220v-307q0 -30 9.5 -44.5t36.5 -14.5q29 0 39 15t10 44v307h220v-530zM367 740h100l-134 -160h-76z" />
    <glyph glyph-name="ucircumflex" unicode="&#xfb;" horiz-adv-x="595" 
d="M575 0h-210v58q-18 -29 -53 -49.5t-89 -20.5q-97 0 -140 47.5t-43 144.5v350h220v-307q0 -30 9.5 -44.5t36.5 -14.5q29 0 39 15t10 44v307h220v-530zM258 740h74l108 -160h-78l-67 85l-69 -85h-76z" />
    <glyph glyph-name="udieresis" unicode="&#xfc;" horiz-adv-x="595" 
d="M575 0h-210v58q-18 -29 -53 -49.5t-89 -20.5q-97 0 -140 47.5t-43 144.5v350h220v-307q0 -30 9.5 -44.5t36.5 -14.5q29 0 39 15t10 44v307h220v-530zM193 602q-24 0 -41 17t-17 41t17 41t41 17t41 -17t17 -41t-17 -41t-41 -17zM397 602q-24 0 -41 17t-17 41t17 41t41 17
t41 -17t17 -41t-17 -41t-41 -17z" />
    <glyph glyph-name="yacute" unicode="&#xfd;" horiz-adv-x="561" 
d="M142 -24q19 -2 31 -0.5t19 5t10 8.5t4 11l-203 530h236l68 -224l59 224h213l-165 -530q-21 -68 -45 -109.5t-56 -63t-73.5 -27t-97.5 -0.5v176zM355 740h100l-134 -160h-76z" />
    <glyph glyph-name="thorn" unicode="&#xfe;" horiz-adv-x="615" 
d="M80 700h88v-260q24 45 68.5 72.5t108.5 27.5q103 0 164 -65.5t61 -194.5v-21q0 -135 -63 -202t-172 -67q-57 0 -102.5 27.5t-64.5 72.5v-290h-88v900zM330 68q32 0 59.5 12.5t48 36.5t32.5 60t12 83v20q0 90 -42.5 136t-109.5 46q-36 0 -66 -11.5t-51 -32t-33 -48.5
t-12 -60v-80q0 -36 12 -66t33 -51t51 -33t66 -12z" />
    <glyph glyph-name="ydieresis" unicode="&#xff;" horiz-adv-x="561" 
d="M142 -24q19 -2 31 -0.5t19 5t10 8.5t4 11l-203 530h236l68 -224l59 224h213l-165 -530q-21 -68 -45 -109.5t-56 -63t-73.5 -27t-97.5 -0.5v176zM181 602q-24 0 -41 17t-17 41t17 41t41 17t41 -17t17 -41t-17 -41t-41 -17zM385 602q-24 0 -41 17t-17 41t17 41t41 17
t41 -17t17 -41t-17 -41t-41 -17z" />
    <glyph glyph-name="dotlessi" unicode="&#x131;" horiz-adv-x="278" 
d="M95 530h88v-530h-88v530z" />
    <glyph glyph-name="Lslash" unicode="&#x141;" horiz-adv-x="568" 
d="M10 310l30 15v375h264v-237l86 45v-82l-86 -45v-169h254v-212h-518v243l-30 -15v82z" />
    <glyph glyph-name="lslash" unicode="&#x142;" horiz-adv-x="319" 
d="M-5 351l50 26v323h220v-206l25 14v-76l-25 -14v-152q0 -24 2 -41.5t8.5 -28t19 -15.5t33.5 -5h17v-176h-81q-56 0 -97.5 10t-68.5 34.5t-40 67t-13 108.5v81l-50 -26v76z" />
    <glyph glyph-name="OE" unicode="&#x152;" horiz-adv-x="1090" 
d="M580 78q-37 -47 -90 -67.5t-120 -20.5q-70 0 -127 23t-97.5 68t-63 111t-22.5 153v20q0 83 22.5 147t63 108t97.5 67t127 23q67 0 120 -21t90 -66v77h450v-82h-356v-217h324v-82h-324v-237h356v-82h-450v78zM370 626q-47 0 -85.5 -16t-66.5 -48.5t-43 -81.5t-15 -115v-20
q0 -69 15.5 -120t43.5 -84.5t66.5 -50t84.5 -16.5q45 0 82.5 14.5t65 45.5t44 79.5t18.5 116.5v48q-2 65 -18.5 112t-44 77t-65.5 44.5t-82 14.5z" />
    <glyph glyph-name="oe" unicode="&#x153;" horiz-adv-x="990" 
d="M715 -10q-69 0 -122 29t-84 86q-31 -57 -84.5 -86t-124.5 -29q-51 0 -97 16.5t-81 50t-56 84.5t-21 119v20q0 64 21 113t56 81.5t81 49t97 16.5q69 0 122 -28t85 -81q58 109 203 109q110 0 172.5 -62.5t62.5 -172.5v-66h-392q0 -46 15 -78.5t38 -53t52 -30t57 -9.5
q63 0 98 20.5t43 56.5h79q-8 -38 -28.5 -67t-49.5 -48.5t-65.5 -29.5t-76.5 -10zM300 68q31 0 61 10.5t53.5 33.5t38 59.5t14.5 88.5v20q0 48 -14.5 82.5t-38 56.5t-53.5 32.5t-61 10.5t-61 -10.5t-53.5 -32.5t-38 -56.5t-14.5 -82.5v-20q0 -52 14.5 -88.5t38 -59.5
t53.5 -33.5t61 -10.5zM710 462q-29 0 -57 -8.5t-50 -26.5t-36 -47t-14 -69h309q-1 40 -13.5 69t-33 47t-48 26.5t-57.5 8.5z" />
    <glyph glyph-name="Scaron" unicode="&#x160;" horiz-adv-x="635" 
d="M335 -15q-169 0 -249.5 61t-80.5 179h235q0 -12 5 -22.5t18 -18t35 -12t54 -4.5q34 0 46.5 7t12.5 22q0 14 -14 21t-37 11.5t-51.5 8.5t-58.5 11q-49 12 -90.5 29.5t-71.5 45t-47 67.5t-17 96q0 58 22.5 101t63.5 71.5t98 42t127 13.5q159 0 237 -58.5t78 -173.5h-234
q2 24 -16 36.5t-54 12.5q-22 0 -35.5 -3t-20.5 -8t-9.5 -10.5t-2.5 -11.5q0 -11 12 -17t32 -10.5t46 -8.5t55 -9q44 -8 87 -22t77.5 -39.5t56 -64.5t21.5 -97q0 -64 -23 -110.5t-66 -76.5t-104 -44.5t-137 -14.5zM160 900h80l75 -85l77 85h78l-117 -150h-76z" />
    <glyph glyph-name="scaron" unicode="&#x161;" horiz-adv-x="530" 
d="M297 -15q-78 0 -131.5 19t-87.5 48.5t-50 65t-18 69.5h199q1 -14 19 -25t55 -11q42 0 42 19q0 11 -22.5 15.5t-56.5 9t-73.5 13t-73.5 26.5t-56.5 50t-22.5 84q0 81 64.5 129t188.5 48q79 0 129.5 -18.5t80 -47.5t41.5 -64t14 -68h-199q-2 14 -12.5 23t-34.5 9
q-28 0 -36 -5.5t-8 -13.5q0 -12 22.5 -16.5t56.5 -8t73 -10.5t73 -23.5t56.5 -46.5t22.5 -80q0 -89 -67 -139.5t-188 -50.5zM120 740h78l67 -85l69 85h76l-108 -160h-74z" />
    <glyph glyph-name="Ydieresis" unicode="&#x178;" horiz-adv-x="630" 
d="M513 0h-264v247l-247 453h307l82 -192l76 192h273l-227 -453v-247zM207 765q-25 0 -42.5 17.5t-17.5 42.5t17.5 42.5t42.5 17.5t42.5 -17.5t17.5 -42.5t-17.5 -42.5t-42.5 -17.5zM427 765q-25 0 -42.5 17.5t-17.5 42.5t17.5 42.5t42.5 17.5t42.5 -17.5t17.5 -42.5
t-17.5 -42.5t-42.5 -17.5z" />
    <glyph glyph-name="Zcaron" unicode="&#x17d;" horiz-adv-x="590" 
d="M20 209l267 279h-257v212h586v-208l-257 -280h257v-212h-596v209zM145 900h80l75 -85l77 85h78l-117 -150h-76z" />
    <glyph glyph-name="zcaron" unicode="&#x17e;" horiz-adv-x="530" 
d="M20 171l199 183h-189v176h476v-171l-197 -183h197v-176h-486v171zM126 740h78l67 -85l69 85h76l-108 -160h-74z" />
    <glyph glyph-name="florin" unicode="&#x192;" 
d="M100 -124h38q44 0 60.5 16t16.5 58v504h-95v76h95v20q0 76 37.5 113t117.5 37h70v-76h-60q-44 0 -60.5 -16t-16.5 -58v-20h137v-76h-137v-504q0 -76 -37.5 -113t-117.5 -37h-48v76z" />
    <glyph glyph-name="dotlessj" unicode="&#x237;" horiz-adv-x="278" 
d="M-27 -123h41q23 0 38.5 5.5t25 19t13.5 37.5t4 61v530h88v-530q0 -58 -8.5 -96.5t-26.5 -61.5t-47.5 -32.5t-71.5 -9.5h-56v77z" />
    <glyph glyph-name="afii57929" unicode="&#x2bc;" horiz-adv-x="250" 
d="M37 419v211h215v-211l-154 -178h-107z" />
    <glyph glyph-name="circumflex" unicode="&#x2c6;" horiz-adv-x="330" 
d="M128 740h74l108 -160h-78l-67 85l-69 -85h-76z" />
    <glyph glyph-name="caron" unicode="&#x2c7;" horiz-adv-x="330" 
d="M20 740h78l67 -85l69 85h76l-108 -160h-74z" />
    <glyph glyph-name="dotaccent" unicode="&#x2d9;" horiz-adv-x="162" 
d="M81 599q-26 0 -43.5 17.5t-17.5 43.5t17.5 43.5t43.5 17.5t43.5 -17.5t17.5 -43.5t-17.5 -43.5t-43.5 -17.5z" />
    <glyph glyph-name="ring" unicode="&#x2da;" horiz-adv-x="280" 
d="M140 570q-54 0 -87 31.5t-33 78.5t33 78.5t87 31.5t87 -31.5t33 -78.5t-33 -78.5t-87 -31.5zM140 630q23 0 37 14t14 36t-14 36t-37 14t-37 -14t-14 -36t14 -36t37 -14z" />
    <glyph glyph-name="tilde" unicode="&#x2dc;" horiz-adv-x="360" 
d="M235 605q-24 0 -39.5 7t-27.5 15l-22.5 15t-25.5 7q-14 0 -23 -6t-15 -14q-7 -9 -12 -19l-50 25q9 22 24 40q13 15 32.5 27.5t48.5 12.5q22 0 37.5 -7t27.5 -15t23.5 -15t26.5 -7q13 0 22.5 5.5t15.5 13.5q7 9 12 20l50 -25q-9 -22 -24 -40q-13 -15 -33 -27.5t-48 -12.5z
" />
    <glyph glyph-name="Delta" unicode="&#x394;" horiz-adv-x="670" 
d="M285 700h100l265 -700h-630zM148 82h369l-184 498z" />
    <glyph glyph-name="Delta" unicode="&#x2206;" horiz-adv-x="670" 
d="M285 700h100l265 -700h-630zM148 82h369l-184 498z" />
    <glyph glyph-name="afii10023" unicode="&#x401;" horiz-adv-x="614" 
d="M176 727q-55 0 -85.5 20t-30.5 60t30.5 59.5t85.5 19.5t85.5 -19.5t30.5 -59.5t-30.5 -60t-85.5 -20zM455 727q-55 0 -85.5 20t-30.5 60t30.5 59.5t85.5 19.5t85.5 -19.5t30.5 -59.5t-30.5 -60t-85.5 -20zM40 700h549v-192h-285v-67h253v-162h-253v-87h285v-192h-549v700
z" />
    <glyph glyph-name="afii10051" unicode="&#x402;" horiz-adv-x="775" 
d="M248 618h-228v82h550v-82h-228v-273q9 18 24.5 35.5t37 30.5t49.5 21t62 8q96 0 148 -54.5t52 -165.5v-20q0 -96 -52.5 -148t-152.5 -52h-30v84h30q111 0 111 116v20q0 68 -33.5 102t-98.5 34q-33 0 -60 -10.5t-46.5 -30t-30 -46t-10.5 -58.5v-211h-94v618z" />
    <glyph glyph-name="afii10052" unicode="&#x403;" horiz-adv-x="558" 
d="M40 700h498v-212h-234v-488h-264v700zM399 900h102l-142 -150h-78z" />
    <glyph glyph-name="afii10053" unicode="&#x404;" horiz-adv-x="670" 
d="M350 -10q-66 0 -120 21.5t-91.5 65.5t-58 112t-20.5 161v20q0 85 20.5 148.5t58.5 106t91.5 64t119.5 21.5q52 0 98.5 -14t82.5 -41.5t59.5 -68t29.5 -94.5h-94q-9 61 -53.5 97.5t-122.5 36.5q-85 0 -137.5 -53.5t-58.5 -172.5h293v-82h-293q3 -66 18 -112.5t40.5 -75.5
t60.5 -42.5t77 -13.5q67 0 115 32t62 99h93q-6 -52 -29 -92t-58.5 -67.5t-82 -41.5t-100.5 -14z" />
    <glyph glyph-name="afii10054" unicode="&#x405;" horiz-adv-x="635" 
d="M335 -15q-169 0 -249.5 61t-80.5 179h235q0 -12 5 -22.5t18 -18t35 -12t54 -4.5q34 0 46.5 7t12.5 22q0 14 -14 21t-37 11.5t-51.5 8.5t-58.5 11q-49 12 -90.5 29.5t-71.5 45t-47 67.5t-17 96q0 58 22.5 101t63.5 71.5t98 42t127 13.5q159 0 237 -58.5t78 -173.5h-234
q2 24 -16 36.5t-54 12.5q-22 0 -35.5 -3t-20.5 -8t-9.5 -10.5t-2.5 -11.5q0 -11 12 -17t32 -10.5t46 -8.5t55 -9q44 -8 87 -22t77.5 -39.5t56 -64.5t21.5 -97q0 -64 -23 -110.5t-66 -76.5t-104 -44.5t-137 -14.5z" />
    <glyph glyph-name="afii10055" unicode="&#x406;" horiz-adv-x="304" 
d="M45 700h264v-700h-264v700z" />
    <glyph glyph-name="afii10056" unicode="&#x407;" horiz-adv-x="304" 
d="M45 700h264v-700h-264v700zM43 765q-25 0 -42.5 17.5t-17.5 42.5t17.5 42.5t42.5 17.5t42.5 -17.5t17.5 -42.5t-17.5 -42.5t-42.5 -17.5zM263 765q-25 0 -42.5 17.5t-17.5 42.5t17.5 42.5t42.5 17.5t42.5 -17.5t17.5 -42.5t-17.5 -42.5t-42.5 -17.5z" />
    <glyph glyph-name="afii10057" unicode="&#x408;" horiz-adv-x="547" 
d="M298 -15q-142 0 -217.5 75.5t-75.5 230.5h224q0 -51 10.5 -72t33.5 -21q26 0 33 19t7 57v426h264v-438q0 -77 -22.5 -130t-61 -85.5t-89 -47t-106.5 -14.5z" />
    <glyph glyph-name="afii10058" unicode="&#x409;" horiz-adv-x="1055" 
d="M15 84q34 0 59 15t40.5 64t23 142t7.5 250v145h450v-274h155q127 0 191 -58.5t64 -154.5t-64 -154.5t-191 -58.5h-249v618h-262v-63q0 -183 -14 -294.5t-42.5 -171.5t-70.5 -79.5t-97 -19.5v94zM745 82q87 0 126.5 35.5t39.5 95.5t-39.5 95.5t-126.5 35.5h-150v-262h150z
" />
    <glyph glyph-name="afii10059" unicode="&#x40a;" horiz-adv-x="1050" 
d="M516 334h-322v-334h-94v700h94v-284h322v284h94v-284h135q64 0 111.5 -15t79.5 -42.5t48 -66t16 -84.5t-16 -84.5t-48 -66t-79.5 -42.5t-111.5 -15h-229v334zM740 82q86 0 126 35t40 91t-40 91t-126 35h-130v-252h130z" />
    <glyph glyph-name="afii10060" unicode="&#x40b;" horiz-adv-x="790" 
d="M248 618h-228v82h550v-82h-228v-273q9 18 24.5 35.5t37 30.5t49.5 21t62 8q96 0 148 -55t52 -170v-215h-94v210q0 75 -33.5 110.5t-98.5 35.5q-66 0 -106.5 -40.5t-40.5 -105.5v-210h-94v618z" />
    <glyph glyph-name="afii10061" unicode="&#x40c;" horiz-adv-x="685" 
d="M40 700h264v-266h32l116 266h287l-162 -331l182 -369h-296l-127 274h-32v-274h-264v700zM442 900h102l-142 -150h-78z" />
    <glyph glyph-name="afii10062" unicode="&#x40e;" horiz-adv-x="648" 
d="M552 205q-26 -67 -56.5 -111.5t-72.5 -69.5t-99.5 -32t-139.5 1v194q16 -4 34 -5.5t34 -1t27 4.5t14 11l-284 504h302l105 -208l77 208h254l-195 -495v0zM332 750q-85 0 -125 38t-40 112h88q0 -46 18.5 -66t58.5 -20q41 0 60 20t19 66h86q0 -74 -40 -112t-125 -38z" />
    <glyph glyph-name="afii10145" unicode="&#x40f;" horiz-adv-x="730" 
d="M320 0h-220v700h94v-618h342v618h94v-700h-220v-130h-90v130z" />
    <glyph glyph-name="afii10017" unicode="&#x410;" horiz-adv-x="742" 
d="M449 94h-191l-28 -94h-228l226 700h287l225 -700h-262zM317 286h72l-36 119z" />
    <glyph glyph-name="afii10018" unicode="&#x411;" horiz-adv-x="682" 
d="M626 700v-192h-322v-52h54q76 0 133 -11.5t95 -37t57 -67t19 -102.5q0 -118 -80.5 -178t-247.5 -60h-294v700h586zM304 294v-103h30q35 0 51.5 11.5t16.5 41.5q0 24 -14 37t-54 13h-30z" />
    <glyph glyph-name="afii10019" unicode="&#x412;" horiz-adv-x="720" 
d="M40 700h410q123 0 179.5 -45t56.5 -142q0 -54 -27 -92.5t-78 -55.5q129 -30 129 -167q0 -49 -14 -86t-45 -62t-81 -37.5t-121 -12.5h-409v700zM369 172q46 0 62 11t16 43t-16 43t-64 11h-63v-108h65zM361 440q35 0 48.5 8.5t13.5 34.5t-12.5 35.5t-47.5 9.5h-59v-88h57z
" />
    <glyph glyph-name="afii10020" unicode="&#x413;" horiz-adv-x="548" 
d="M40 700h498v-212h-234v-488h-264v700z" />
    <glyph glyph-name="afii10021" unicode="&#x414;" horiz-adv-x="766" 
d="M10 212h61q26 60 32 130t6 159v199h572v-488h70v-342h-217v130h-306v-130h-218v342zM329 415q0 -54 -8 -107.5t-22 -95.5h118v276h-88v-73z" />
    <glyph glyph-name="afii10022" unicode="&#x415;" horiz-adv-x="614" 
d="M40 700h549v-192h-285v-67h253v-162h-253v-87h285v-192h-549v700z" />
    <glyph glyph-name="afii10024" unicode="&#x416;" horiz-adv-x="1076" 
d="M124 361l-96 339h284l58 -261h41v261h254v-261h41l55 261h285l-91 -337l116 -363h-292l-73 279h-41v-279h-254v279h-39l-80 -279h-287z" />
    <glyph glyph-name="afii10025" unicode="&#x417;" horiz-adv-x="701" 
d="M326 440q37 0 58 8.5t21 34.5t-15.5 35.5t-46.5 9.5q-30 0 -48 -9.5t-27.5 -24.5t-12.5 -34.5t-3 -39.5h-230q0 148 86 221.5t246 73.5q153 0 233.5 -48.5t80.5 -153.5q0 -54 -27 -92.5t-78 -55.5q129 -30 129 -167q0 -99 -85.5 -156t-250.5 -57q-92 0 -157 21t-106 59
t-60 92.5t-18 122.5h232q0 -20 3.5 -39.5t14.5 -34.5t33 -24.5t58 -9.5q35 0 54 12.5t19 41.5q0 15 -4 25.5t-15 16.5t-31.5 9t-53.5 3h-38v160h39v0z" />
    <glyph glyph-name="afii10026" unicode="&#x418;" horiz-adv-x="759" 
d="M40 700h264v-322l151 322h264v-700h-264v322l-151 -322h-264v700z" />
    <glyph glyph-name="afii10027" unicode="&#x419;" horiz-adv-x="759" 
d="M372 733q-82 0 -135 13.5t-83.5 38.5t-42.5 59t-12 76h229q0 -31 12 -41t32 -10t32.5 10t12.5 41h228q0 -42 -12 -76t-43 -59t-83.5 -38.5t-134.5 -13.5zM40 700h264v-322l151 322h264v-700h-264v322l-151 -322h-264v700z" />
    <glyph glyph-name="afii10028" unicode="&#x41a;" horiz-adv-x="764" 
d="M40 700h264v-266h32l116 266h287l-162 -331l182 -369h-296l-127 274h-32v-274h-264v700z" />
    <glyph glyph-name="afii10029" unicode="&#x41b;" horiz-adv-x="710" 
d="M10 210q23 0 38.5 5.5t25 28.5t13.5 68.5t4 125.5v262h579v-700h-264v488h-85v-127q0 -130 -21 -205t-60.5 -113t-97.5 -48t-132 -10v225z" />
    <glyph glyph-name="afii10030" unicode="&#x41c;" horiz-adv-x="894" 
d="M450 417l132 283h272v-700h-252v323l-90 -186h-130l-90 186v-323h-252v700h278z" />
    <glyph glyph-name="afii10031" unicode="&#x41d;" horiz-adv-x="754" 
d="M40 700h264v-239h146v239h264v-700h-264v249h-146v-249h-264v700z" />
    <glyph glyph-name="afii10032" unicode="&#x41e;" horiz-adv-x="758" 
d="M379 715q73 0 138.5 -20.5t114.5 -64.5t77.5 -112t28.5 -162v-21q0 -91 -28.5 -157t-77.5 -109t-114.5 -63.5t-138.5 -20.5t-138.5 20.5t-114.5 64t-77.5 110t-28.5 158.5v18q0 94 28.5 162t77.5 112t114.5 64.5t138.5 20.5zM380 502q-44 0 -67 -33.5t-23 -112.5v-21
q0 -72 24.5 -104.5t68.5 -32.5t64.5 32.5t20.5 104.5v21q0 79 -22 112.5t-66 33.5z" />
    <glyph glyph-name="afii10033" unicode="&#x41f;" horiz-adv-x="744" 
d="M40 700h664v-700h-264v488h-136v-488h-264v700z" />
    <glyph glyph-name="afii10034" unicode="&#x420;" horiz-adv-x="677" 
d="M40 700h318q304 0 304 -253q0 -59 -20 -107t-61 -83t-102.5 -54t-144.5 -19h-30v-184h-264v700zM334 375q35 0 51.5 19t16.5 49q0 24 -14 44.5t-54 20.5h-30v-133h30z" />
    <glyph glyph-name="afii10035" unicode="&#x421;" horiz-adv-x="720" 
d="M706 280q0 -82 -27 -138.5t-73 -91t-107.5 -50t-129.5 -15.5q-73 0 -136.5 20.5t-111 64t-74.5 110t-27 158.5v18q0 94 27 162t74.5 112t111 64.5t136.5 20.5q66 0 126.5 -16t107 -51.5t74 -91.5t26.5 -136h-242q-4 47 -27 64.5t-54 17.5q-44 0 -67 -33.5t-23 -112.5v-21
q0 -72 24.5 -104.5t68.5 -32.5q36 0 56.5 17t25.5 65h241z" />
    <glyph glyph-name="afii10036" unicode="&#x422;" horiz-adv-x="664" 
d="M200 488h-180v212h624v-212h-180v-488h-264v488z" />
    <glyph glyph-name="afii10037" unicode="&#x423;" horiz-adv-x="748" 
d="M548 205q-26 -67 -56.5 -111.5t-72.5 -69.5t-99.5 -32t-139.5 1v194q16 -4 34 -5.5t34 -1t27 4.5t14 11l-284 504h302l105 -208l77 208h254l-195 -495v0z" />
    <glyph glyph-name="afii10038" unicode="&#x424;" horiz-adv-x="960" 
d="M353 34q-76 0 -138 21t-106.5 61t-69 97t-24.5 129v36q0 64 24.5 117.5t69 91t106.5 58.5t138 21v54h254v-54q76 0 138 -21t106.5 -58.5t69 -91t24.5 -117.5v-36q0 -72 -24.5 -129t-69 -97t-106.5 -61t-138 -21v-54h-254v54zM681 378q0 31 -6.5 50t-17 29t-23.5 13.5
t-27 3.5v-248q17 0 30.5 3.5t23.5 15.5t15 35t5 62v36zM279 342q0 -39 5 -62t14.5 -35t23 -15.5t31.5 -3.5v248q-16 0 -29.5 -3.5t-23.5 -13.5t-15.5 -29t-5.5 -50v-36z" />
    <glyph glyph-name="afii10039" unicode="&#x425;" horiz-adv-x="790" 
d="M785 0h-296l-96 191l-96 -191h-292l209 362l-189 338h294l78 -164l78 164h290l-188 -335z" />
    <glyph glyph-name="afii10040" unicode="&#x426;" horiz-adv-x="792" 
d="M562 0h-522v700h264v-488h136v488h264v-488h73v-342h-215v130z" />
    <glyph glyph-name="afii10041" unicode="&#x427;" horiz-adv-x="692" 
d="M388 254q-26 -17 -63 -29t-93 -12q-108 0 -160 54.5t-52 175.5v257h264v-214q0 -34 10 -47t36 -13q14 0 30.5 3.5t27.5 10.5v260h264v-700h-264v254z" />
    <glyph glyph-name="afii10042" unicode="&#x428;" horiz-adv-x="1065" 
d="M40 700h264v-488h96v488h264v-488h96v488h265v-700h-985v700z" />
    <glyph glyph-name="afii10043" unicode="&#x429;" horiz-adv-x="1113" 
d="M40 0v700h264v-488h96v488h264v-488h96v488h265v-488h73v-342h-215v130h-843z" />
    <glyph glyph-name="afii10044" unicode="&#x42a;" horiz-adv-x="759" 
d="M122 508h-102v192h366v-184h54q304 0 304 -253q0 -59 -20 -107t-61 -83t-102.5 -54t-144.5 -19h-294v508zM416 191q35 0 51.5 19t16.5 49q0 24 -14 44.5t-54 20.5h-30v-133h30z" />
    <glyph glyph-name="afii10045" unicode="&#x42b;" horiz-adv-x="984" 
d="M680 700h264v-700h-264v700zM40 700h264v-184h39q304 0 304 -253q0 -59 -20 -107t-61 -83t-102.5 -54t-144.5 -19h-279v700zM319 191q35 0 51.5 19t16.5 49q0 24 -14 44.5t-54 20.5h-15v-133h15z" />
    <glyph glyph-name="afii10046" unicode="&#x42c;" horiz-adv-x="677" 
d="M40 700h264v-184h54q304 0 304 -253q0 -59 -20 -107t-61 -83t-102.5 -54t-144.5 -19h-294v700zM334 191q35 0 51.5 19t16.5 49q0 24 -14 44.5t-54 20.5h-30v-133h30z" />
    <glyph glyph-name="afii10047" unicode="&#x42d;" horiz-adv-x="747" 
d="M22 420q0 68 28.5 122.5t76.5 93t111 59t131 20.5q73 0 138.5 -20.5t114.5 -64t77.5 -110t28.5 -158.5v-18q0 -95 -29 -162.5t-80 -111.5t-120 -64.5t-149 -20.5q-66 0 -127 21t-107.5 59t-74 92.5t-26.5 122.5h242q0 -40 28 -61t76 -21q44 0 67.5 21t28.5 50h-160v160
h160q-2 35 -25 54t-74 19q-42 0 -69 -20.5t-27 -61.5h-240z" />
    <glyph glyph-name="afii10048" unicode="&#x42e;" horiz-adv-x="1038" 
d="M40 700h264v-239h55q10 63 38 110.5t70 79.5t95 48t112 16q73 0 136 -20.5t109 -64.5t72.5 -112t26.5 -162v-21q0 -91 -26.5 -157t-72.5 -109t-109 -63.5t-136 -20.5q-59 0 -112 16.5t-95 49.5t-70.5 82.5t-37.5 115.5h-55v-249h-264v700zM670 502q-40 0 -57.5 -33.5
t-17.5 -112.5v-21q0 -72 19 -104.5t59 -32.5q44 0 59.5 32.5t15.5 104.5v21q0 79 -17 112.5t-61 33.5z" />
    <glyph glyph-name="afii10049" unicode="&#x42f;" horiz-adv-x="677" 
d="M15 0l102 233q-102 66 -102 214q0 58 19.5 105t57.5 80t93 50.5t126 17.5h326v-700h-264v184h-20l-62 -184h-276zM373 509h-30q-35 0 -51.5 -19t-16.5 -49q0 -24 17.5 -44.5t50.5 -20.5h30v133z" />
    <glyph glyph-name="afii10065" unicode="&#x430;" horiz-adv-x="589" 
d="M186 -12q-47 0 -80 14.5t-54.5 38.5t-31.5 54.5t-10 62.5q0 38 12 69.5t38.5 54t68.5 35t101 12.5h98v9q0 20 -7.5 29t-31.5 9q-32 0 -35 -32h-216q3 41 17.5 77t46 63t81 42.5t122.5 15.5q48 0 91.5 -11t77.5 -36.5t54 -67t20 -102.5v-192q0 -39 0.5 -69t5.5 -64h-208
q-2 13 -5 28t-3 40q-18 -37 -56 -58.5t-96 -21.5zM273 154q28 0 41.5 7.5t13.5 25.5v12h-52q-22 0 -34 -4t-12 -18q0 -10 8.5 -16.5t34.5 -6.5z" />
    <glyph glyph-name="afii10066" unicode="&#x431;" horiz-adv-x="616" 
d="M313 -15q-63 0 -117.5 17.5t-94.5 54.5t-63 95.5t-23 141.5v28q0 88 16 157.5t51 117.5t92 75t138 31q31 1 66.5 2t68 2.5t60 5.5t44.5 12v-180q-8 -5 -22 -9t-39.5 -8t-64.5 -6t-97 -2q-40 0 -66.5 -7t-44 -21.5t-27.5 -36.5t-16 -52q10 13 25.5 27.5t39.5 26.5
t57.5 19.5t79.5 7.5q48 0 89 -13t71 -40t47.5 -68t17.5 -97v-19q0 -65 -22.5 -114t-61.5 -82t-91.5 -49.5t-112.5 -16.5zM308 163q39 0 52 20.5t13 54.5v21q0 67 -66 67q-64 0 -64 -67v-14q0 -42 18 -62t47 -20z" />
    <glyph glyph-name="afii10067" unicode="&#x432;" horiz-adv-x="604" 
d="M40 530h338q56 0 94.5 -10.5t62 -29t34 -43.5t10.5 -53q0 -42 -21.5 -74.5t-67.5 -43.5q49 -12 74 -46t25 -79q0 -69 -46.5 -110t-144.5 -41h-358v530zM321 156q48 0 48 27q0 14 -10 21.5t-37 7.5h-72v-56h71zM323 322q23 0 29.5 8t6.5 18t-6.5 18t-29.5 8h-73v-52h73z
" />
    <glyph glyph-name="afii10068" unicode="&#x433;" horiz-adv-x="463" 
d="M40 530h408v-176h-188v-354h-220v530z" />
    <glyph glyph-name="afii10069" unicode="&#x434;" horiz-adv-x="640" 
d="M10 176h42q20 32 29 87t9 143v124h485v-354h50v-301h-184v125h-245v-125h-186v301zM355 176v178h-72v-25q0 -56 -8 -95.5t-16 -57.5h96z" />
    <glyph glyph-name="afii10070" unicode="&#x435;" horiz-adv-x="605" 
d="M319 -15q-151 0 -227.5 74t-76.5 203v22q0 63 22.5 111.5t61 82t90.5 50.5t111 17q73 0 127.5 -21.5t90.5 -60.5t54 -94t18 -122v-46h-347q4 -50 73 -50q26 0 39.5 6t19.5 17h205q-16 -91 -80.5 -140t-180.5 -49zM308 379q-26 0 -43 -12.5t-21 -35.5h128q0 26 -17.5 37
t-46.5 11z" />
    <glyph glyph-name="afii10072" unicode="&#x436;" horiz-adv-x="856" 
d="M317 182h-30l-57 -182h-228l95 266l-89 264h232l49 -172h28v172h218v-172h27l50 172h227l-84 -256l99 -274h-232l-58 182h-29v-182h-218v182z" />
    <glyph glyph-name="afii10073" unicode="&#x437;" horiz-adv-x="577" 
d="M309 -15q-79 0 -134 16.5t-90 47t-52 74.5t-18 99h196q0 -11 3 -22t12.5 -19.5t26.5 -14t45 -5.5q29 0 37.5 7t8.5 15q0 12 -9.5 15.5t-35.5 3.5h-45v130h36q23 0 31.5 4t8.5 15q0 9 -8 14t-30 5q-44 0 -59 -19t-14 -43h-200q4 122 74 179.5t201 57.5q122 0 188 -39.5
t66 -117.5q0 -38 -21 -70t-64 -43q30 -6 49 -16t30 -24.5t15.5 -32t4.5 -37.5q0 -83 -63.5 -131.5t-189.5 -48.5z" />
    <glyph glyph-name="afii10074" unicode="&#x438;" horiz-adv-x="635" 
d="M40 530h215v-235l122 235h218v-530h-215v235l-122 -235h-218v530z" />
    <glyph glyph-name="afii10075" unicode="&#x439;" horiz-adv-x="635" 
d="M310 562q-113 0 -164.5 34.5t-50.5 105.5h171q0 -19 9.5 -25t34.5 -6q29 0 37 6.5t8 24.5h170q1 -71 -50 -105.5t-165 -34.5zM40 530h215v-235l122 235h218v-530h-215v235l-122 -235h-218v530z" />
    <glyph glyph-name="afii10076" unicode="&#x43a;" horiz-adv-x="613" 
d="M260 358h29l68 172h244l-117 -257l127 -273h-249l-72 182h-30v-182h-220v530h220v-172z" />
    <glyph glyph-name="afii10077" unicode="&#x43b;" horiz-adv-x="608" 
d="M10 176q24 0 38.5 6.5t22 26.5t10 57t2.5 99v165h485v-530h-220v354h-63v-75q0 -104 -21 -163.5t-58 -88.5t-87.5 -34t-108.5 0v183z" />
    <glyph glyph-name="afii10078" unicode="&#x43c;" horiz-adv-x="770" 
d="M40 530h282l66 -201l65 201h277v-530h-215v265l-58 -185h-144l-58 185v-265h-215v530z" />
    <glyph glyph-name="afii10079" unicode="&#x43d;" horiz-adv-x="625" 
d="M40 530h220v-172h105v172h220v-530h-220v182h-105v-182h-220v530z" />
    <glyph glyph-name="afii10080" unicode="&#x43e;" horiz-adv-x="616" 
d="M308 -15q-61 0 -114.5 17.5t-93 52.5t-62.5 87.5t-23 122.5v13q0 65 23 115t62.5 83.5t93 51t114.5 17.5t114.5 -17.5t93 -51t62.5 -83.5t23 -115v-18q0 -68 -23 -119.5t-62.5 -86t-93 -52t-114.5 -17.5zM308 161q22 0 35 10t20 25t8.5 32t1.5 32v18q0 12 -1.5 27.5
t-8.5 29.5t-20 24t-35 10q-23 0 -35.5 -10t-19.5 -24t-8.5 -29.5t-1.5 -27.5v-13q0 -17 1.5 -35t8.5 -33.5t19.5 -25.5t35.5 -10z" />
    <glyph glyph-name="afii10081" unicode="&#x43f;" horiz-adv-x="620" 
d="M40 530h540v-530h-220v354h-100v-354h-220v530z" />
    <glyph glyph-name="afii10082" unicode="&#x440;" horiz-adv-x="623" 
d="M40 530h220v-48q30 36 65 48t77 12q97 0 151.5 -65t54.5 -199v-19q0 -69 -16 -120t-44.5 -84t-67 -49t-83.5 -16q-57 0 -91 14t-56 43v-247h-210v730zM325 166q30 0 46.5 19.5t16.5 74.5v18q0 48 -16 68t-48 20q-28 0 -46 -19t-18 -68v-25q0 -47 16 -67.5t49 -20.5z" />
    <glyph glyph-name="afii10083" unicode="&#x441;" horiz-adv-x="590" 
d="M308 -15q-63 0 -116.5 17.5t-93 52t-61.5 86.5t-22 121v22q0 63 22.5 111.5t60.5 82t88.5 50.5t106.5 17q80 0 133.5 -19t85.5 -51t46.5 -75.5t16.5 -91.5h-200q-5 34 -21.5 46.5t-45.5 12.5q-35 0 -50 -24.5t-15 -62.5v-21q0 -45 14.5 -70.5t58.5 -25.5q20 0 39.5 13
t22.5 46h197q-1 -54 -17.5 -97.5t-50 -74.5t-83 -48t-116.5 -17z" />
    <glyph glyph-name="afii10084" unicode="&#x442;" horiz-adv-x="518" 
d="M149 354h-139v176h498v-176h-139v-354h-220v354z" />
    <glyph glyph-name="afii10085" unicode="&#x443;" horiz-adv-x="580" 
d="M141 -24q19 -2 31 -0.5t19 5t10 8.5t4 11l-203 530h236l68 -224l59 224h213l-165 -530q-21 -68 -45 -109.5t-56 -63t-73.5 -27t-97.5 -0.5v176z" />
    <glyph glyph-name="afii10086" unicode="&#x444;" horiz-adv-x="800" 
d="M290 -10q-131 0 -203 66.5t-72 203.5v16q0 132 72 198t203 66v160h220v-160q128 0 201.5 -65.5t73.5 -195.5v-19q0 -137 -73.5 -203.5t-201.5 -66.5v-190h-220v190zM565 275q0 43 -15.5 66t-49.5 23v-198q34 0 49.5 25.5t15.5 68.5v15zM235 260q0 -45 16.5 -69.5
t48.5 -24.5v198q-36 -1 -50.5 -24t-14.5 -61v-19z" />
    <glyph glyph-name="afii10087" unicode="&#x445;" horiz-adv-x="610" 
d="M127 275l-106 255h238l50 -139l47 139h233l-106 -250l125 -280h-238l-69 163l-65 -163h-234z" />
    <glyph glyph-name="afii10088" unicode="&#x446;" horiz-adv-x="635" 
d="M436 0h-396v530h220v-354h90v354h220v-354h50v-301h-184v125z" />
    <glyph glyph-name="afii10089" unicode="&#x447;" horiz-adv-x="577" 
d="M317 163q-23 -12 -50.5 -19.5t-67.5 -7.5q-94 0 -134 46t-40 145v203h220v-180q0 -20 8 -29t28 -9q14 0 22.5 4t13.5 9v205h220v-530h-220v163z" />
    <glyph glyph-name="afii10090" unicode="&#x448;" horiz-adv-x="840" 
d="M40 530h220v-354h50v354h220v-354h50v354h220v-530h-760v530z" />
    <glyph glyph-name="afii10091" unicode="&#x449;" horiz-adv-x="865" 
d="M665 0h-625v530h220v-353h50v353h220v-353h50v353h220v-353h50v-302h-185v125z" />
    <glyph glyph-name="afii10092" unicode="&#x44a;" horiz-adv-x="625" 
d="M95 354h-85v176h305v-152h69q110 0 168 -41t58 -143q0 -41 -11 -76.5t-37 -61.5t-69.5 -41t-108.5 -15h-289v354zM349 156q22 0 31.5 7.5t9.5 25.5q0 20 -11 26.5t-31 6.5h-33v-66h34z" />
    <glyph glyph-name="afii10093" unicode="&#x44b;" horiz-adv-x="826" 
d="M566 530h220v-530h-220v530zM40 530h220v-152h59q110 0 168 -41t58 -143q0 -41 -11 -76.5t-37 -61.5t-69.5 -41t-108.5 -15h-279v530zM284 156q22 0 31.5 7.5t9.5 25.5q0 20 -11 26.5t-31 6.5h-23v-66h24z" />
    <glyph glyph-name="afii10094" unicode="&#x44c;" horiz-adv-x="570" 
d="M40 530h220v-152h69q110 0 168 -41t58 -143q0 -41 -11 -76.5t-37 -61.5t-69.5 -41t-108.5 -15h-289v530zM294 156q22 0 31.5 7.5t9.5 25.5q0 20 -11 26.5t-31 6.5h-33v-66h34z" />
    <glyph glyph-name="afii10095" unicode="&#x44d;" horiz-adv-x="600" 
d="M302 545q63 0 115 -17.5t89.5 -52t58 -86.5t20.5 -121v-22q0 -63 -22.5 -111.5t-60.5 -82t-88.5 -50.5t-106.5 -17q-80 0 -135 19t-89 51t-50 75.5t-18 91.5h200q5 -34 22.5 -46.5t51.5 -12.5q32 0 47.5 10t19.5 29h-97v130h95q-4 16 -18 25.5t-43 9.5q-35 0 -56.5 -13
t-24.5 -46h-197q1 54 21 97.5t56.5 74.5t89.5 48t120 17z" />
    <glyph glyph-name="afii10096" unicode="&#x44e;" horiz-adv-x="857" 
d="M564 -15q-53 0 -97.5 14.5t-78.5 40.5t-56 62t-31 80h-41v-182h-220v530h220v-172h42q9 41 31 75.5t56 59t78 38.5t97 14q61 0 112 -17.5t88 -51t57.5 -83.5t20.5 -115v-18q0 -68 -20.5 -119.5t-57.5 -86t-88 -52t-112 -17.5zM549 161q22 0 35 10t20 25t8.5 32t1.5 32v18
q0 12 -1.5 27.5t-8.5 29.5t-20 24t-35 10q-36 0 -50.5 -27t-14.5 -64v-13q0 -45 15 -74.5t50 -29.5z" />
    <glyph glyph-name="afii10097" unicode="&#x44f;" horiz-adv-x="585" 
d="M545 0h-220v152h-25l-42 -152h-248l74 189q-32 21 -48 57t-16 90q0 41 11 76.5t37 61.5t69.5 41t108.5 15h299v-530zM281 374q-22 0 -31.5 -7.5t-9.5 -25.5q0 -20 11 -26.5t31 -6.5h43v66h-44z" />
    <glyph glyph-name="afii10071" unicode="&#x451;" horiz-adv-x="605" 
d="M171 555q-38 0 -65.5 19.5t-27.5 58.5q0 40 27.5 59t65.5 19q40 0 67 -19t27 -59q0 -39 -27 -58.5t-67 -19.5zM423 555q-40 0 -67.5 19.5t-27.5 58.5q0 40 27.5 59t67.5 19q38 0 66 -19t28 -59q0 -39 -28 -58.5t-66 -19.5zM319 -15q-151 0 -227.5 74t-76.5 203v22
q0 63 22.5 111.5t61 82t90.5 50.5t111 17q73 0 127.5 -21.5t90.5 -60.5t54 -94t18 -122v-46h-347q4 -50 73 -50q26 0 39.5 6t19.5 17h205q-16 -91 -80.5 -140t-180.5 -49zM308 379q-26 0 -43 -12.5t-21 -35.5h128q0 26 -17.5 37t-46.5 11z" />
    <glyph glyph-name="afii10099" unicode="&#x452;" horiz-adv-x="620" 
d="M0 623h90v77h88v-77h182v-66h-182v-152q9 18 24.5 35.5t37 30.5t49.5 21t62 8q194 0 194 -225v-275q0 -58 -8.5 -96.5t-26.5 -61.5t-47.5 -32.5t-71.5 -9.5h-56v77h41q23 0 38.5 5.5t25 19t13.5 37.5t4 61v270q0 75 -30.5 113.5t-101.5 38.5q-39 0 -66.5 -13t-45.5 -34
t-26.5 -48.5t-8.5 -56.5v-270h-88v557h-90v66z" />
    <glyph glyph-name="afii10100" unicode="&#x453;" horiz-adv-x="463" 
d="M40 530h408v-176h-188v-354h-220v530zM332 740h100l-134 -160h-76z" />
    <glyph glyph-name="afii10101" unicode="&#x454;" horiz-adv-x="545" 
d="M280 -10q-52 0 -95 17.5t-74 52t-48.5 85t-17.5 115.5v20q0 61 17.5 109t48.5 81.5t74.5 51.5t94.5 18q41 0 78.5 -12t67.5 -34t50.5 -53.5t28.5 -70.5h-86q-13 40 -50 66t-89 26q-61 0 -100.5 -38t-45.5 -116h212v-77h-212q6 -84 46 -123.5t100 -39.5q28 0 51.5 7.5
t41.5 20.5t30.5 29.5t18.5 34.5h83q-4 -36 -22 -67t-47.5 -54t-69 -36t-86.5 -13z" />
    <glyph glyph-name="afii10102" unicode="&#x455;" horiz-adv-x="522" 
d="M294 -15q-78 0 -131.5 19t-87.5 48.5t-50 65t-18 69.5h199q1 -14 19 -25t55 -11q42 0 42 19q0 11 -22.5 15.5t-56.5 9t-73.5 13t-73.5 26.5t-56.5 50t-22.5 84q0 81 64.5 129t188.5 48q79 0 129.5 -18.5t80 -47.5t41.5 -64t14 -68h-199q-2 14 -12.5 23t-34.5 9
q-28 0 -36 -5.5t-8 -13.5q0 -12 22.5 -16.5t56.5 -8t73 -10.5t73 -23.5t56.5 -46.5t22.5 -80q0 -89 -67 -139.5t-188 -50.5z" />
    <glyph glyph-name="afii10103" unicode="&#x456;" horiz-adv-x="282" 
d="M97 530h88v-530h-88v530zM141 599q-26 0 -43.5 17.5t-17.5 43.5t17.5 43.5t43.5 17.5t43.5 -17.5t17.5 -43.5t-17.5 -43.5t-43.5 -17.5z" />
    <glyph glyph-name="afii10104" unicode="&#x457;" horiz-adv-x="278" 
d="M95 530h88v-530h-88v530zM38 602q-24 0 -41 17t-17 41t17 41t41 17t41 -17t17 -41t-17 -41t-41 -17zM242 602q-24 0 -41 17t-17 41t17 41t41 17t41 -17t17 -41t-17 -41t-41 -17z" />
    <glyph glyph-name="afii10105" unicode="&#x458;" horiz-adv-x="285" 
d="M-22 -123h41q23 0 38.5 5.5t25 19t13.5 37.5t4 61v530h88v-530q0 -58 -8.5 -96.5t-26.5 -61.5t-47.5 -32.5t-71.5 -9.5h-56v77zM144 599q-26 0 -43.5 17.5t-17.5 43.5t17.5 43.5t43.5 17.5t43.5 -17.5t17.5 -43.5t-17.5 -43.5t-43.5 -17.5z" />
    <glyph glyph-name="afii10106" unicode="&#x459;" horiz-adv-x="860" 
d="M407 454h-204v-148q0 -92 -13 -153t-37 -97t-59 -51t-79 -15v86q58 0 79 60t21 189v205h380v-192h135q98 0 146.5 -45.5t48.5 -124.5q0 -78 -48.5 -123t-146.5 -45h-223v454zM625 76q60 0 86 23.5t26 69.5t-26 69.5t-86 23.5h-130v-186h130z" />
    <glyph glyph-name="afii10107" unicode="&#x45a;" horiz-adv-x="835" 
d="M80 530h88v-208h244v208h88v-208h105q98 0 146.5 -44.5t48.5 -117.5q0 -72 -48.5 -116t-146.5 -44h-193v246h-244v-246h-88v530zM600 76q60 0 86 22.5t26 62.5t-26 62.5t-86 22.5h-100v-170h100z" />
    <glyph glyph-name="afii10108" unicode="&#x45b;" horiz-adv-x="620" 
d="M0 623h90v77h88v-77h182v-66h-182v-152q9 18 24.5 35.5t37 30.5t49.5 21t62 8q194 0 194 -225v-275h-88v270q0 75 -30.5 113.5t-101.5 38.5q-39 0 -66.5 -13t-45.5 -34t-26.5 -48.5t-8.5 -56.5v-270h-88v557h-90v66z" />
    <glyph glyph-name="afii10109" unicode="&#x45c;" horiz-adv-x="565" 
d="M260 358h29l68 172h244l-117 -257l127 -273h-249l-72 182h-30v-182h-220v530h220v-172zM369 740h100l-134 -160h-76z" />
    <glyph glyph-name="afii10110" unicode="&#x45e;" horiz-adv-x="560" 
d="M141 -24q19 -2 31 -0.5t19 5t10 8.5t4 11l-203 530h236l68 -224l59 224h213l-165 -530q-21 -68 -45 -109.5t-56 -63t-73.5 -27t-97.5 -0.5v176zM282 595q-75 0 -110 33.5t-35 96.5h82q0 -38 15 -54t48 -16q35 0 50 16t15 54h80q0 -63 -35 -96.5t-110 -33.5z" />
    <glyph glyph-name="afii10193" unicode="&#x45f;" horiz-adv-x="600" 
d="M257 0h-177v530h90v-454h260v454h90v-530h-177v-125h-86v125z" />
    <glyph glyph-name="afii10050" unicode="&#x490;" horiz-adv-x="558" 
d="M100 700h348v130h90v-212h-344v-618h-94v700z" />
    <glyph glyph-name="afii10098" unicode="&#x491;" horiz-adv-x="468" 
d="M85 530h273v125h85v-201h-268v-454h-90v530z" />
    <glyph glyph-name="figuredash" unicode="&#x2012;" horiz-adv-x="500" 
d="M50 451h400v-182h-400v182z" />
    <glyph glyph-name="endash" unicode="&#x2013;" horiz-adv-x="500" 
d="M50 451h400v-182h-400v182z" />
    <glyph glyph-name="emdash" unicode="&#x2014;" horiz-adv-x="750" 
d="M25 411h700v-182h-700v182z" />
    <glyph glyph-name="quoteleft" unicode="&#x2018;" horiz-adv-x="305" 
d="M245 650v-191h-195v191l144 148h107z" />
    <glyph glyph-name="quoteright" unicode="&#x2019;" horiz-adv-x="306" 
d="M61 509v191h195v-191l-144 -148h-107z" />
    <glyph glyph-name="quotesinglbase" unicode="&#x201a;" horiz-adv-x="306" 
d="M61 1v191h195v-191l-144 -148h-107z" />
    <glyph glyph-name="quotedblleft" unicode="&#x201c;" horiz-adv-x="555" 
d="M495 650v-191h-195v191l144 148h107zM245 650v-191h-195v191l144 148h107z" />
    <glyph glyph-name="quotedblright" unicode="&#x201d;" horiz-adv-x="556" 
d="M311 509v191h195v-191l-144 -148h-107zM61 509v191h195v-191l-144 -148h-107z" />
    <glyph glyph-name="quotedblbase" unicode="&#x201e;" horiz-adv-x="556" 
d="M311 0v191h195v-191l-144 -148h-107zM61 0v191h195v-191l-144 -148h-107z" />
    <glyph glyph-name="dagger" unicode="&#x2020;" horiz-adv-x="500" 
d="M203 448h-183v82h183v170h94v-170h183v-82h-183v-648h-94v648z" />
    <glyph glyph-name="daggerdbl" unicode="&#x2021;" horiz-adv-x="500" 
d="M203 0h-183v82h183v366h-183v82h183v170h94v-170h183v-82h-183v-366h183v-82h-183v-200h-94v200z" />
    <glyph glyph-name="bullet" unicode="&#x2022;" horiz-adv-x="400" 
d="M200 155q-25 0 -46.5 9.5t-38 26t-26 38t-9.5 46.5t9.5 46.5t26 38t38 26t46.5 9.5t46.5 -9.5t38 -26t26 -38t9.5 -46.5t-9.5 -46.5t-26 -38t-38 -26t-46.5 -9.5z" />
    <glyph glyph-name="ellipsis" unicode="&#x2026;" horiz-adv-x="982" 
d="M811 -10q-25 0 -47 9.5t-38.5 26t-26 38.5t-9.5 47q0 26 9.5 48t26 38.5t38.5 25.5t47 9t47 -9t38.5 -25.5t26 -38.5t9.5 -48q0 -25 -9.5 -47t-26 -38.5t-38.5 -26t-47 -9.5zM491 -10q-25 0 -47 9.5t-38.5 26t-26 38.5t-9.5 47q0 26 9.5 48t26 38.5t38.5 25.5t47 9t47 -9
t38.5 -25.5t26 -38.5t9.5 -48q0 -25 -9.5 -47t-26 -38.5t-38.5 -26t-47 -9.5zM171 -10q-25 0 -47 9.5t-38.5 26t-26 38.5t-9.5 47q0 26 9.5 48t26 38.5t38.5 25.5t47 9t47 -9t38.5 -25.5t26 -38.5t9.5 -48q0 -25 -9.5 -47t-26 -38.5t-38.5 -26t-47 -9.5z" />
    <glyph glyph-name="perthousand" unicode="&#x2030;" horiz-adv-x="1290" 
d="M629 700h211l-270 -404q22 21 51 32.5t64 11.5q36 0 66.5 -12t52.5 -34.5t34 -54t12 -69.5v-10q0 -38 -12.5 -69t-34 -53.5t-52 -35t-66.5 -12.5t-66.5 12t-52.5 34.5t-34 54t-12 69.5v10q0 40 14 73l-163 -243h-211zM215 360q-36 0 -66.5 12t-52.5 34.5t-34 54t-12 69.5
v10q0 38 12.5 69t34 53.5t52 35t66.5 12.5t66.5 -12t52.5 -34.5t34 -54t12 -69.5v-10q0 -38 -12.5 -69t-34 -53.5t-52 -35t-66.5 -12.5zM1075 -10q-36 0 -66.5 12t-52.5 34.5t-34 54t-12 69.5v10q0 38 12.5 69t34 53.5t52 35t66.5 12.5t66.5 -12t52.5 -34.5t34 -54t12 -69.5
v-10q0 -38 -12.5 -69t-34 -53.5t-52 -35t-66.5 -12.5zM685 64q38 0 59.5 23.5t21.5 72.5v10q0 49 -21.5 72.5t-59.5 23.5t-59.5 -23.5t-21.5 -72.5v-10q0 -48 21.5 -72t59.5 -24zM215 434q38 0 59.5 23.5t21.5 72.5v10q0 49 -21.5 72.5t-59.5 23.5t-59.5 -23.5t-21.5 -72.5
v-10q0 -48 21.5 -72t59.5 -24zM1075 64q38 0 59.5 23.5t21.5 72.5v10q0 49 -21.5 72.5t-59.5 23.5t-59.5 -23.5t-21.5 -72.5v-10q0 -48 21.5 -72t59.5 -24z" />
    <glyph glyph-name="guilsinglleft" unicode="&#x2039;" horiz-adv-x="287" 
d="M50 168v204l187 166v-227l-53 -39l53 -38v-231z" />
    <glyph glyph-name="guilsinglright" unicode="&#x203a;" horiz-adv-x="287" 
d="M50 234l53 38l-53 39v227l187 -166v-204l-187 -165v231z" />
    <glyph glyph-name="fraction" unicode="&#x2044;" horiz-adv-x="700" 
d="M479 700h211l-469 -700h-211z" />
    <glyph glyph-name="foursuperior" unicode="&#x2074;" horiz-adv-x="380" 
d="M220 465h-200v60l187 255h93v-245h40v-70h-40v-85h-80v85zM220 535v150l-110 -150h110z" />
    <glyph glyph-name="Euro" unicode="&#x20ac;" 
d="M25 463h65q8 67 28 114t49.5 76.5t68 43t84.5 13.5q39 0 74 -15.5t61.5 -43.5t43.5 -67.5t21 -88.5h-94q-4 65 -34 98t-72 33q-26 0 -48 -7.5t-38.5 -26t-27.5 -50t-17 -79.5h156v-72h-160v-26v-20v-26h160v-72h-156q5 -52 16.5 -85.5t29.5 -53t41.5 -27t53.5 -7.5
q35 0 63.5 33.5t32.5 100.5h94q-4 -50 -21 -90t-43.5 -68.5t-61.5 -44t-74 -15.5q-47 0 -85.5 13.5t-68 44t-49 79.5t-27.5 120h-65v72h60v26v20v26h-60v72z" />
    <glyph glyph-name="uni20B4" unicode="&#x20b4;" 
d="M40 466h291q18 23 27 42.5t9 46.5q0 35 -23 56t-69 21q-45 0 -65.5 -22.5t-24.5 -54.5h-90q2 31 14.5 59.5t35 49.5t55 33.5t75.5 12.5t76.5 -11.5t56.5 -32t35 -48t12 -58.5q0 -26 -8.5 -48.5t-21.5 -45.5h85v-72h-470v72zM275 -10q-45 0 -80.5 12t-60 33t-37 49.5
t-12.5 60.5q0 29 8 54t26 51h-79v72h470v-72h-292q-26 -27 -35.5 -51t-9.5 -54q0 -32 25.5 -54.5t76.5 -22.5t74 22.5t27 54.5h89q-2 -32 -14.5 -60.5t-36 -49.5t-58.5 -33t-81 -12z" />
    <glyph glyph-name="uni20BD" unicode="&#x20bd;" 
d="M105 117h-80v72h80v72h-80v82h80v357h165q120 0 182.5 -59.5t62.5 -159.5q0 -101 -62.5 -160.5t-182.5 -59.5h-71v-72h190v-72h-190v-117h-94v117zM270 343q76 0 113.5 36t37.5 102q0 67 -37.5 102t-113.5 35h-71v-275h71z" />
    <glyph glyph-name="afii61352" unicode="&#x2116;" horiz-adv-x="1110" 
d="M740 303h310v-66h-310v66zM895 360q-36 0 -66.5 12t-52.5 34.5t-34 54t-12 69.5v10q0 38 12.5 69t34 53.5t52 35t66.5 12.5t66.5 -12t52.5 -34.5t34 -54t12 -69.5v-10q0 -38 -12.5 -69t-34 -53.5t-52 -35t-66.5 -12.5zM895 432q38 0 60.5 24t22.5 74v10q0 50 -22.5 74
t-60.5 24t-60.5 -24t-22.5 -74v-10q0 -49 22.5 -73.5t60.5 -24.5zM40 700h222l200 -288v288h242v-700h-222l-200 289v-289h-242v700z" />
    <glyph glyph-name="trademark" unicode="&#x2122;" horiz-adv-x="870" 
d="M153 636h-133v64h340v-64h-133v-336h-74v336zM420 700h74l127 -241l128 241h71v-400h-70v280l-100 -190h-60l-99 190v-280h-71v400z" />
    <glyph glyph-name="arrowleft" unicode="&#x2190;" horiz-adv-x="800" 
d="M40 350l350 350h115l-307 -307h552v-86h-552l307 -307h-115z" />
    <glyph glyph-name="arrowup" unicode="&#x2191;" horiz-adv-x="800" 
d="M355 549l-305 -304v116l350 350l350 -350v-116l-305 304v-549h-90v549z" />
    <glyph glyph-name="arrowright" unicode="&#x2192;" horiz-adv-x="800" 
d="M601 306h-551v88h551l-306 306h115l350 -350l-350 -350h-115z" />
    <glyph glyph-name="arrowdown" unicode="&#x2193;" horiz-adv-x="800" 
d="M50 339v116l305 -304v549h90v-549l305 304v-116l-350 -350z" />
    <glyph glyph-name="arrownorthwest" unicode="&#x2196;" horiz-adv-x="800" 
d="M115 148v487h489l81 -81h-424l424 -425l-64 -64l-423 423v-423z" />
    <glyph glyph-name="arrownortheast" unicode="&#x2197;" horiz-adv-x="800" 
d="M115 127l426 427h-426l82 81h488v-487l-83 -83v424l-425 -424z" />
    <glyph glyph-name="arrowsoutheast" unicode="&#x2198;" horiz-adv-x="800" 
d="M115 147h424l-424 424l64 64l423 -423v423l83 -82v-488h-488z" />
    <glyph glyph-name="arrowsouthwest" unicode="&#x2199;" horiz-adv-x="800" 
d="M115 552l83 83v-424l425 424l62 -62l-426 -426h426l-81 -82h-489v487z" />
    <glyph glyph-name="minus" unicode="&#x2212;" 
d="M50 401h450v-82h-450v82z" />
    <glyph glyph-name="division" unicode="&#x2215;" 
d="M398 700h92l-338 -700h-92z" />
    <glyph glyph-name="radical" unicode="&#x221a;" horiz-adv-x="620" 
d="M0 391h136l130 -377l196 786h158v-82h-91l-209 -818h-100l-146 409h-74v82z" />
    <glyph glyph-name="approxequal" unicode="&#x2248;" 
d="M370 181q-32 0 -58 12t-49 26t-44.5 26t-43.5 12q-20 0 -34 -11t-24 -24q-11 -15 -19 -34l-63 38q13 31 33 57q17 22 44.5 40t67.5 18q32 0 58 -12t49 -26.5t44 -26.5t44 -12q20 0 34 10.5t24 24.5q11 15 19 35l63 -38q-13 -32 -33 -58q-17 -22 -45 -39.5t-67 -17.5z
M370 380q-32 0 -58 12t-49 26t-44.5 26t-43.5 12q-20 0 -34 -11t-24 -24q-11 -15 -19 -34l-63 38q13 31 33 57q17 22 44.5 40t67.5 18q32 0 58 -12t49 -26.5t44 -26.5t44 -12q20 0 34 10.5t24 24.5q11 15 19 35l63 -38q-13 -32 -33 -58q-17 -22 -45 -39.5t-67 -17.5z" />
    <glyph glyph-name="lessequal" unicode="&#x2264;" 
d="M50 183h450v-82h-450v82zM50 390v100l450 190v-94l-350 -144l350 -144v-98z" />
    <glyph glyph-name="greaterequal" unicode="&#x2265;" 
d="M50 183h450v-82h-450v82zM499.939 489.94v-99.9883l-449.945 -189.977v93.9883l349.957 143.982l-349.957 143.982v97.9883z" />
    <glyph glyph-name="angleleft" unicode="&#x2329;" horiz-adv-x="360" 
d="M40 249l200 451h100l-203 -449l203 -451h-102z" />
    <glyph glyph-name="angleright" unicode="&#x232a;" horiz-adv-x="360" 
d="M319.961 250.97l-199.976 -450.945h-99.9873l202.975 448.945l-202.975 450.944h101.987z" />
    <glyph glyph-name="accent" unicode="&#xf400;" horiz-adv-x="0" 
d="M-229 740h100l-134 -160h-76z" />
    <glyph glyph-name="Accent" unicode="&#xf401;" horiz-adv-x="0" 
d="M-281 900h102l-142 -150h-78z" />
    <glyph glyph-name="Cedilla" unicode="&#xf407;" horiz-adv-x="220" 
d="M80 -210q-12 0 -23 0.5t-19 1.5q-10 1 -18 3v58q8 -2 17 -3q8 -1 16.5 -1.5t16.5 -0.5q32 0 44 9.5t12 25.5q0 14 -13 23t-53 9l20 95h60l-11 -52q41 -8 56 -29.5t15 -46.5q0 -41 -29 -66.5t-91 -25.5z" />
    <glyph glyph-name="Circumflex" unicode="&#xf408;" horiz-adv-x="350" 
d="M137 900h76l117 -150h-80l-75 85l-77 -85h-78z" />
    <glyph glyph-name="Apostrophe" unicode="&#xf40a;" horiz-adv-x="250" 
d="M37 589v211h215v-211l-154 -178h-107z" />
    <glyph glyph-name="Dotaccent" unicode="&#xf40b;" horiz-adv-x="168" 
d="M84 761q-26 0 -45 19t-19 45t19 45t45 19t45 -19t19 -45t-19 -45t-45 -19z" />
    <glyph glyph-name="Ring" unicode="&#xf40c;" horiz-adv-x="280" 
d="M140 735q-54 0 -87 31.5t-33 78.5t33 78.5t87 31.5t87 -31.5t33 -78.5t-33 -78.5t-87 -31.5zM140 797q22 0 35.5 13.5t13.5 34.5t-13.5 34.5t-35.5 13.5t-35.5 -13.5t-13.5 -34.5t13.5 -34.5t35.5 -13.5z" />
    <glyph glyph-name="Tilde" unicode="&#xf40d;" horiz-adv-x="380" 
d="M250 765q-26 0 -42.5 8t-29.5 17t-24.5 17t-28.5 8q-14 0 -23.5 -6.5t-16.5 -14.5q-8 -10 -13 -21l-52 27q9 24 25 42q13 16 34 29.5t51 13.5q24 0 40.5 -8t29.5 -17t25.5 -17t29.5 -8q13 0 23 6.5t17 14.5q8 9 13 21l52 -27q-10 -25 -25 -43q-14 -16 -34.5 -29
t-50.5 -13z" />
    <glyph glyph-name="Acute" unicode="&#xf6c9;" horiz-adv-x="260" 
d="M138 900h102l-142 -150h-78z" />
    <glyph glyph-name="Caron" unicode="&#xf6ca;" horiz-adv-x="350" 
d="M20 900h80l75 -85l77 85h78l-117 -150h-76z" />
    <glyph glyph-name="Dieresis" unicode="&#xf6cb;" horiz-adv-x="380" 
d="M80 765q-25 0 -42.5 17.5t-17.5 42.5t17.5 42.5t42.5 17.5t42.5 -17.5t17.5 -42.5t-17.5 -42.5t-42.5 -17.5zM300 765q-25 0 -42.5 17.5t-17.5 42.5t17.5 42.5t42.5 17.5t42.5 -17.5t17.5 -42.5t-17.5 -42.5t-42.5 -17.5z" />
    <glyph glyph-name="Grave" unicode="&#xf6ce;" horiz-adv-x="260" 
d="M20 900h104l116 -150h-80z" />
    <glyph glyph-name="Macron" unicode="&#xf6d0;" horiz-adv-x="340" 
d="M20 862h300v-74h-300v74z" />
    <glyph glyph-name="cyrBreve" unicode="&#xf6d1;" horiz-adv-x="370" 
d="M185 750q-85 0 -125 38t-40 112h88q0 -46 18.5 -66t58.5 -20q41 0 60 20t19 66h86q0 -74 -40 -112t-125 -38z" />
    <glyph glyph-name="cyrbreve" unicode="&#xf6d4;" horiz-adv-x="330" 
d="M165 595q-75 0 -110 33.5t-35 96.5h82q0 -38 15 -54t48 -16q35 0 50 16t15 54h80q0 -63 -35 -96.5t-110 -33.5z" />
    <glyph glyph-name="zerooldstyle" unicode="&#xf730;" horiz-adv-x="610" 
d="M305 -10q-122 0 -191 70t-69 200v20q0 59 18.5 107t52.5 82t82 52.5t107 18.5q122 0 191 -69t69 -191v-20q0 -130 -69 -200t-191 -70zM305 66q81 0 126.5 48t45.5 146v20q0 88 -47 136t-125 48q-79 0 -125.5 -48t-46.5 -136v-20q0 -46 13 -82t35.5 -61t54 -38t69.5 -13z
" />
    <glyph glyph-name="oneoldstyle" unicode="&#xf731;" horiz-adv-x="410" 
d="M212 0v431l-172 -125v103l166 121h94v-530h-88z" />
    <glyph glyph-name="twooldstyle" unicode="&#xf732;" horiz-adv-x="510" 
d="M40 64l183 133q41 30 68 51t42.5 39t22 36t6.5 42q0 43 -29 70t-83 27t-88 -34.5t-34 -92.5h-88q0 94 56 149.5t154 55.5q45 0 82 -14t63 -38t40.5 -55.5t14.5 -67.5t-8 -63t-29 -53t-58 -54.5t-96 -66.5l-80 -52h281v-76h-420v64z" />
    <glyph glyph-name="threeoldstyle" unicode="&#xf733;" horiz-adv-x="540" 
d="M265 -210q-51 0 -93 15.5t-71 42t-45 62t-16 75.5h88q0 -51 35.5 -84t101.5 -33t101.5 35t35.5 100q0 60 -36.5 95.5t-99.5 35.5h-71v82h71q61 0 93.5 31.5t32.5 90.5q0 124 -127 124q-61 0 -94 -30.5t-33 -76.5h-88q0 37 15 71t43 59t68 40t89 15q50 0 90 -15t67.5 -41
t42.5 -61t15 -75q0 -66 -31 -107.5t-84 -60.5q56 -19 90.5 -63t34.5 -124q0 -43 -16 -80t-45 -64.5t-70.5 -43t-93.5 -15.5z" />
    <glyph glyph-name="fouroldstyle" unicode="&#xf734;" horiz-adv-x="570" 
d="M377 0h-357v64l343 466h102v-454h85v-76h-85v-200h-88v200zM377 76v337l-244 -337h244z" />
    <glyph glyph-name="fiveoldstyle" unicode="&#xf735;" horiz-adv-x="590" 
d="M303 -210q-57 0 -99.5 15.5t-71.5 41t-44.5 57.5t-17.5 66h88q2 -20 12.5 -38t28.5 -32.5t44.5 -23t59.5 -8.5q31 0 58.5 12t47.5 34t31.5 54t11.5 72q0 46 -13 78.5t-34.5 53.5t-49 30.5t-55.5 9.5q-54 0 -84 -20t-46 -51h-85v389h415v-76h-327v-217q50 53 142 53
q104 0 164.5 -65.5t60.5 -184.5q0 -56 -17 -102t-48 -79t-75 -51t-97 -18z" />
    <glyph glyph-name="sixoldstyle" unicode="&#xf736;" horiz-adv-x="595" 
d="M315 -10q-58 0 -105 19t-80.5 58.5t-51.5 99.5t-18 143v20q0 103 19 175.5t53 118t82 66t106 20.5q39 0 74 -9.5t63.5 -29t49 -48.5t28.5 -68h-88q-11 36 -45 56.5t-82 20.5q-38 0 -70 -14t-55 -46t-36.5 -85t-15.5 -132q14 28 34.5 47.5t44.5 31.5t49.5 17.5t48.5 5.5
q52 0 94.5 -15t72.5 -44.5t46.5 -72t16.5 -96.5v-10q0 -50 -18.5 -92t-50.5 -72.5t-75 -47.5t-91 -17zM315 68q67 0 107 40.5t40 110.5v10q0 74 -39.5 112t-117.5 38q-75 0 -116 -38.5t-41 -101.5v-10q0 -35 12 -64.5t34 -51t53 -33.5t68 -12z" />
    <glyph glyph-name="sevenoldstyle" unicode="&#xf737;" horiz-adv-x="480" 
d="M368 454h-348v76h440v-64l-256 -666h-94z" />
    <glyph glyph-name="eightoldstyle" unicode="&#xf738;" horiz-adv-x="590" 
d="M295 -10q-60 0 -105 14t-75 39.5t-45 60t-15 76.5q0 30 9.5 58t28 52t45.5 42t62 28q-54 17 -89.5 61t-35.5 104q0 40 14.5 74t42.5 58.5t69 38.5t94 14t94 -14t69 -38.5t42.5 -58.5t14.5 -74q0 -60 -35 -102t-90 -63q71 -25 108 -68.5t37 -111.5q0 -42 -15 -76.5
t-45 -60t-75 -39.5t-105 -14zM295 68q39 0 68 9.5t47.5 26.5t27.5 39t9 48q0 28 -12.5 51t-33.5 40t-48.5 27t-57.5 13q-31 -3 -58.5 -13.5t-48.5 -27t-33 -39.5t-12 -51q0 -26 9 -48t27.5 -39t47.5 -26.5t68 -9.5zM295 632q-63 0 -97.5 -29t-34.5 -83q0 -28 11 -49
t29.5 -36t42 -24.5t49.5 -12.5q25 3 49 12.5t42.5 24.5t29.5 36t11 49q0 54 -35.5 83t-96.5 29z" />
    <glyph glyph-name="nineoldstyle" unicode="&#xf739;" horiz-adv-x="595" 
d="M280 540q61 0 108.5 -19t80 -59t49.5 -102.5t17 -149.5v-20q0 -113 -18 -189.5t-51.5 -123t-80.5 -67t-105 -20.5q-41 0 -77 9.5t-65 29t-49.5 48.5t-28.5 68h88q11 -36 45.5 -56.5t86.5 -20.5q38 0 69 13.5t53.5 47t35 91t14.5 145.5q-14 -28 -34.5 -47.5t-44.5 -31.5
t-49.5 -17.5t-48.5 -5.5q-105 0 -167.5 60t-62.5 173v10q0 52 18.5 95t50.5 74t75 48t91 17zM280 462q-67 0 -107 -41t-40 -115v-10q0 -155 157 -155q75 0 116 39.5t41 105.5v10q0 37 -12 68t-33.5 52.5t-52.5 33.5t-69 12z" />
    <glyph glyph-name="uniFEFF" unicode="&#xfeff;" horiz-adv-x="0" 
 />
  </font>
</defs>
</svg>
