<svg xmlns="http://www.w3.org/2000/svg" width="20" height="20"><path fill="#5081B7" fill-rule="evenodd" d="M10 20C4.477 20 0 15.523 0 10S4.477 0 10 0s10 4.477 10 10-4.477 10-10 10zm3.633-12.927l-.156.334s-.741 1.574-1.644 2.566c-.29.32-.437.418-.597.418-.13 0-.189-.108-.189-.397V7H8.241v.23c0 .333.513.409.513 1.314v1.867c0 .376-.02.522-.198.522-.472 0-1.592-1.617-2.22-3.453L6.178 7H4.346c-.2 0-.346.136-.346.334 0 .365.43 2.055 2.115 4.319C7.246 13.176 8.734 14 10.074 14c.817 0 1.015-.135 1.015-.48v-1.168c0-.292.116-.417.284-.417.188 0 .52.06 1.297.824L13.916 14h1.78c.158 0 .305-.072.305-.333 0-.345-.45-.96-1.142-1.69-.282-.376-.743-.783-.89-.971-.209-.219-.146-.344 0-.573 0 0 1.581-2.223 1.739-2.953.052-.26-.063-.407-.335-.407h-1.74z"/></svg>