<svg width="32" height="32" fill="none" xmlns="http://www.w3.org/2000/svg"><path opacity=".8" fill-rule="evenodd" clip-rule="evenodd" d="M19.428 14.802a4.553 4.553 0 01-6.459 0 4.553 4.553 0 010-6.459 4.553 4.553 0 016.46 0 4.553 4.553 0 010 6.46zm-3.23-5.319c-.57 0-1.085.23-1.465.61a2.061 2.061 0 000 2.931 2.061 2.061 0 002.931 0 2.062 2.062 0 000-2.93 2.12 2.12 0 00-1.465-.61zm4.804 6.676l1.343 1.832c.068.095.055.217-.04.285a9.46 9.46 0 01-3.813 1.859l2.591 4.993c.068.15-.027.312-.19.312h-2.768a.238.238 0 01-.203-.136l-1.723-4.125-1.737 4.112a.209.209 0 01-.204.135H11.49c-.162 0-.258-.176-.19-.312l2.592-4.98a9.523 9.523 0 01-3.813-1.858c-.081-.068-.108-.204-.04-.285l1.343-1.832c.081-.109.217-.122.312-.04 1.262 1.071 2.822 1.777 4.491 1.777 1.67 0 3.216-.692 4.491-1.778.109-.081.258-.068.326.04z" fill="#fff"/></svg>