<svg xmlns="http://www.w3.org/2000/svg" width="32" height="16"><g fill="none" fill-rule="evenodd"><path fill="#ED1A34" d="M2.564 0h26.872c.892 0 1.215.093 1.54.267.327.174.583.43.757.756.174.326.267.65.267 1.54v10.873c0 .892-.093 1.215-.267 1.54a1.81 1.81 0 01-.756.757c-.326.174-.65.267-1.54.267H2.563c-.892 0-1.215-.093-1.54-.267a1.817 1.817 0 01-.757-.756C.093 14.65 0 14.327 0 13.437V2.563c0-.892.093-1.215.267-1.54a1.81 1.81 0 01.756-.757C1.35.093 1.673 0 2.563 0z"/><path fill="#FFF" fill-rule="nonzero" d="M6.987 12H5.216V3.999H8.53c2.72 0 3.395 1.44 3.395 2.755 0 1.348-.868 2.731-3.395 2.731H6.987V12zm1.59-6.344h-1.59v2.172h1.52c1.11 0 1.578-.411 1.578-1.086 0-.628-.389-1.086-1.509-1.086zM12.953 12V3.999h2.537c3.43 0 4.607 1.806 4.607 3.898 0 2.286-1.418 4.103-4.778 4.103h-2.366zm2.515-6.344h-.743v4.687h.743c2 0 2.8-.96 2.8-2.446 0-1.35-.72-2.24-2.8-2.24zM21.184 12V3.999h6.057v1.657h-4.286v1.75h4v1.656h-4V12h-1.771z"/></g></svg>