<svg xmlns="http://www.w3.org/2000/svg" viewBox="0 0 65 78.18"><defs><style>.cls-1{fill:#1c9edf;}.cls-2{fill:#fff;}.cls-3{fill:#333;}.cls-4{fill:#f2f3f5;}.cls-5{fill:#eb5c55;}.cls-6{fill:#c14848;}</style></defs><g id="Layer_2" data-name="Layer 2"><g id="Layer_5" data-name="Layer 5"><circle class="cls-1" cx="32.5" cy="45.68" r="32.5"/><path class="cls-2" d="M24.91,55.23a.52.52,0,0,0-.39-.2h0l-.12,0-8.89,4.45A4,4,0,0,1,13.7,60a2.51,2.51,0,0,1-1-.2c-1.51-.66-1.84-2.43-1.85-3.79,0-10.18,0-20.69,0-31.25A9.13,9.13,0,0,1,11,23a10,10,0,0,1,4.81-7C24.38,11.59,33.16,7.18,42,2.8a4,4,0,0,1,1.71-.44A2.51,2.51,0,0,1,45,2.7c1.29.77,1.57,2.41,1.58,3.65,0,10.37,0,20.88,0,31.25A10.09,10.09,0,0,1,46,40.81a9.72,9.72,0,0,1-4.43,5.62l-4.86,2.45L34.36,50l-.17.17L29.45,62.06Z" transform="translate(0 -2.1)"/><path class="cls-3" d="M43.66,2.61a2.31,2.31,0,0,1,1.18.31c1.19.71,1.45,2.26,1.46,3.43,0,10.37,0,20.88,0,31.25a9.77,9.77,0,0,1-.57,3.12,9.41,9.41,0,0,1-4.3,5.48l-4.81,2.42-2.37,1.19-.08,0-.07.07L34,50l-.06.06,0,.09L29.39,61.52l-4.27-6.43,0,0,0,0a.71.71,0,0,0-.54-.24.83.83,0,0,0-.22,0h-.05l0,0-8.84,4.44a3.84,3.84,0,0,1-1.67.43,2.19,2.19,0,0,1-.9-.18c-1.39-.61-1.69-2.27-1.7-3.56,0-10.3,0-20.81,0-31.24A9.55,9.55,0,0,1,11.29,23,9.88,9.88,0,0,1,16,16.13C24.5,11.81,33.28,7.41,42.06,3a3.74,3.74,0,0,1,1.6-.42h0m0-.51h0a4.32,4.32,0,0,0-1.82.48q-13.07,6.51-26.1,13.1a10.4,10.4,0,0,0-5,7.22,10.25,10.25,0,0,0-.2,1.83q0,15.63,0,31.25c0,1.6.46,3.35,2,4a2.61,2.61,0,0,0,1.1.22,4.34,4.34,0,0,0,1.89-.48l8.85-4.44h.08a.23.23,0,0,1,.18.08l4.8,7.23,4.88-12.23.1-.11,7.18-3.61a10,10,0,0,0,4.55-5.76,10.27,10.27,0,0,0,.59-3.29q0-15.62,0-31.25a4.33,4.33,0,0,0-1.7-3.87,2.9,2.9,0,0,0-1.44-.38Z" transform="translate(0 -2.1)"/><path class="cls-3" d="M50.72,5.6a3.22,3.22,0,0,1,2.47,1.23,5.57,5.57,0,0,1,1,3.38q0,15.46,0,30.94a11.42,11.42,0,0,1-3.8,8.26,7,7,0,0,1-1.57,1.08l-7,3.52-5,12.4-.13.12-.16,0-.07-.06-4.89-7.34-8.63,4.32a3.64,3.64,0,0,1-4.46-.58,5.44,5.44,0,0,1-1.09-3.5q0-15.47,0-30.94a11.4,11.4,0,0,1,3.73-8.21,7.63,7.63,0,0,1,1.6-1.11c8.63-4.35,17.28-8.64,25.92-13a4.74,4.74,0,0,1,2-.53Z" transform="translate(0 -2.1)"/><path class="cls-3" d="M15.48,59.1c-.49-.25-1-.5-1.44-.77A1,1,0,0,1,13.6,58a3.52,3.52,0,0,1-.47-1.92c0-9.85,0-20,0-30.92a9.07,9.07,0,0,1,3-6.51,5.2,5.2,0,0,1,1.08-.76c7.9-4,16.38-8.22,25.92-13a2.35,2.35,0,0,1,1-.27.83.83,0,0,1,.36.08l1.36.68c-8.79,4.36-16.65,8.29-24,12a12.49,12.49,0,0,0-6.14,8.75,11.09,11.09,0,0,0-.24,2.27C15.45,39.27,15.45,49.31,15.48,59.1Z" transform="translate(0 -2.1)"/><path class="cls-3" d="M44.12,2.31a4.67,4.67,0,0,0-2,.52q-13,6.45-25.94,13a7.35,7.35,0,0,0-1.57,1.09,11.36,11.36,0,0,0-3.76,8.23q0,15.48,0,31a5.65,5.65,0,0,0,.9,3.26,3.48,3.48,0,0,0,1.18,1c2.06,1.16,4.23,2.11,6.34,3.17h.08a.23.23,0,0,0,.19-.1c.09-.25-.07-.28-.07-.28a4.4,4.4,0,0,1-1.65-3.8q0-15.47,0-30.94a9.31,9.31,0,0,1,.2-1.82,10.27,10.27,0,0,1,4.91-7.14q13-6.54,26-13A4.22,4.22,0,0,1,50.7,6a2.72,2.72,0,0,1,1.22.27.45.45,0,0,0,.19.06.22.22,0,0,0,.16-.1l0-.16L52.18,6,45.52,2.64l0,0a3.33,3.33,0,0,0-1.35-.31ZM31.67,58.66h-.12l-3.28,1.65-.11.13,0,.16,1.7,2.55.08.07,6.57,3.28h.17l.11-.13,0-.17-5-7.48a.28.28,0,0,0-.11-.08Z" transform="translate(0 -2.1)"/><path class="cls-2" d="M32,58.6a.5.5,0,0,0-.39-.19h0l-.12,0-8.84,4.41a4,4,0,0,1-1.76.46,2.51,2.51,0,0,1-1-.2c-1.5-.65-1.83-2.4-1.84-3.75,0-10.08,0-20.49,0-30.94a10,10,0,0,1,.19-1.77,10,10,0,0,1,4.79-7C31.51,15.39,40.24,11,49,6.7a3.87,3.87,0,0,1,1.7-.44A2.57,2.57,0,0,1,52,6.6c1.28.76,1.56,2.39,1.57,3.61,0,10.27,0,20.68,0,30.94A9.86,9.86,0,0,1,53,44.32a9.61,9.61,0,0,1-4.4,5.57l-4.71,2.36-2.43,1.21-.17.16L36.53,65.36Z" transform="translate(0 -2.1)"/><path class="cls-3" d="M50.66,6.51a2.3,2.3,0,0,1,1.17.31c1.18.7,1.44,2.23,1.45,3.39,0,10.27,0,20.68,0,30.94a9.6,9.6,0,0,1-.57,3.09,9.3,9.3,0,0,1-4.27,5.42c-1.59.81-3.18,1.6-4.78,2.4L41.3,53.23l-.08,0-.06.07-.1.11-.06.07,0,.08L36.47,64.82l-4.24-6.36,0,0,0,0a.77.77,0,0,0-.55-.24.93.93,0,0,0-.22,0h0l0,0-8.8,4.4a3.74,3.74,0,0,1-1.65.42,2.37,2.37,0,0,1-.9-.17c-1.37-.6-1.67-2.25-1.68-3.52,0-10.19,0-20.6,0-30.94a8.6,8.6,0,0,1,.18-1.72,9.81,9.81,0,0,1,4.65-6.79c8.48-4.28,17.21-8.64,25.94-13a3.85,3.85,0,0,1,1.58-.42h0m0-.51h0a4.38,4.38,0,0,0-1.8.47q-13,6.45-25.95,13A10.27,10.27,0,0,0,18,26.59a9.31,9.31,0,0,0-.2,1.82q0,15.47,0,30.94c0,1.58.45,3.31,2,4a2.77,2.77,0,0,0,1.1.22,4.3,4.3,0,0,0,1.88-.48l8.79-4.4h.08a.25.25,0,0,1,.18.08l4.78,7.16,4.84-12.11.1-.1,7.14-3.57a9.94,9.94,0,0,0,4.52-5.71,10.37,10.37,0,0,0,.59-3.26q0-15.46,0-30.94a4.28,4.28,0,0,0-1.69-3.83A2.86,2.86,0,0,0,50.66,6Z" transform="translate(0 -2.1)"/><path class="cls-4" d="M44.08,2.72a4.23,4.23,0,0,0-1.81.47q-13,6.45-25.94,13a9.94,9.94,0,0,0-4.52,5.71,10.31,10.31,0,0,0-.59,3.25c0,10.3,0,20.6,0,30.9,0,1.53.43,3.18,1.77,3.92l.09.05,5.2,2.59c-.06-.08,0,0-.06-.09a5.71,5.71,0,0,1-.83-3.14q0-15.47,0-30.94a11.4,11.4,0,0,1,3.73-8.21,7.63,7.63,0,0,1,1.6-1.11q13-6.54,26-13a4.87,4.87,0,0,1,1.87-.51h0C48.81,4.73,47.07,3.85,45.32,3a1.8,1.8,0,0,0-.24-.1,2.84,2.84,0,0,0-1-.17Z" transform="translate(0 -2.1)"/><path class="cls-4" d="M28.65,60.57l1.55,2.32L36,65.81l-4.47-6.7c-1,.49-1.94,1-2.92,1.46Z" transform="translate(0 -2.1)"/><path class="cls-3" d="M38.81,45a2,2,0,0,1,1.7,1.17,4.52,4.52,0,0,1,.1,3.26,5.59,5.59,0,0,1-2.84,3.69,2,2,0,0,1-2.6-1,4.58,4.58,0,0,1-.08-3.36,5.62,5.62,0,0,1,2.75-3.58,2.23,2.23,0,0,1,1-.23Zm1-26.37A2.81,2.81,0,0,1,42.16,20a5,5,0,0,1,.51,3.1c-.64,5.25-1.28,10.5-2,15.75a5.32,5.32,0,0,1-3.2,4.25,1.94,1.94,0,0,1-2-.37A2.15,2.15,0,0,1,35,41.51q-1-6.87-2-13.74a9.07,9.07,0,0,1,4.15-8.3,4.89,4.89,0,0,1,2.57-.87Z" transform="translate(0 -2.1)"/><path class="cls-3" d="M37.75,44.25h0l1.75.88a.2.2,0,0,1,0,.32l-.14.06a2.88,2.88,0,0,0-.64-.14,2.76,2.76,0,0,0-1.91,1,6,6,0,0,0-1.61,4.73,2.11,2.11,0,0,0,1,1.64s.16,0,.09.27a.32.32,0,0,1-.12.1h-.15c-.6-.3-1.22-.59-1.81-.91a2,2,0,0,1-.91-.9A3.6,3.6,0,0,1,33,49.44a5.94,5.94,0,0,1,2.88-5.08,2.06,2.06,0,0,1,1.81-.12ZM38,17.7a2.93,2.93,0,0,1,1.21.27l0,0,1.8.9.06.05a.21.21,0,0,1,0,.14l-.06.14-.15.06a5.36,5.36,0,0,0-.71-.23,3.75,3.75,0,0,0-2.29.44h0a8.93,8.93,0,0,0-4.22,5.36,6.61,6.61,0,0,0-.3,2.86c.63,4.59,1.26,9.18,2,13.75a1.57,1.57,0,0,0,.68,1.16l.08.07,0,.17-.11.13h-.17l-1.67-.83-.15-.08a2,2,0,0,1-.9-1.47q-1-6.87-2-13.75a9.11,9.11,0,0,1,4.51-8.5,4.58,4.58,0,0,1,2.2-.66Z" transform="translate(0 -2.1)"/><path class="cls-5" d="M38.78,45.38a3.15,3.15,0,0,0-2.3,1.5,6,6,0,0,0-1.21,4.21,2,2,0,0,0,1.18,1.72A2.33,2.33,0,0,0,38.68,52a5.93,5.93,0,0,0,1.72-4.81c-.11-.83-.6-1.77-1.58-1.79Z" transform="translate(0 -2.1)"/><path class="cls-5" d="M39.73,19a4.06,4.06,0,0,0-1.8.48h0A8.91,8.91,0,0,0,33.68,25a6.42,6.42,0,0,0-.27,2.75c.63,4.59,1.26,9.18,2,13.76a1.45,1.45,0,0,0,1.11,1.31,3.19,3.19,0,0,0,2.76-1.56,5.21,5.21,0,0,0,1.07-2.48q1-7.86,2-15.73c.16-1.37,0-2.9-1.25-3.66A2.42,2.42,0,0,0,39.73,19Z" transform="translate(0 -2.1)"/><path class="cls-6" d="M33,27.77c-.45-3.35,1.76-6.92,4.44-8.47a4.74,4.74,0,0,1,2.11-.69A3.67,3.67,0,0,0,38,18.1h0a4.21,4.21,0,0,0-1.8.49l-.43.24a9.11,9.11,0,0,0-4.08,6.46,5.53,5.53,0,0,0,0,1.52c.64,4.59,1.27,9.17,2,13.75a1.56,1.56,0,0,0,.7,1.17l.12.06.78.39,0,0a2.69,2.69,0,0,1-.16-.62" transform="translate(0 -2.1)"/><path class="cls-6" d="M37,44.47A3.19,3.19,0,0,0,34.67,46a6,6,0,0,0-1.21,4.18,2.13,2.13,0,0,0,1,1.68l.71.36a4.57,4.57,0,0,1-.09-3.49c.53-1.67,1.65-3.35,3.27-3.69h0l-.82-.41a1.28,1.28,0,0,0-.59-.14Z" transform="translate(0 -2.1)"/></g></g></svg>