<?xml version="1.0" encoding="utf-8"?>
<!-- Generator: Adobe Illustrator 26.2.1, SVG Export Plug-In . SVG Version: 6.00 Build 0)  -->
<svg version="1.1" id="_x31_" xmlns="http://www.w3.org/2000/svg" xmlns:xlink="http://www.w3.org/1999/xlink" x="0px" y="0px"
	 viewBox="0 0 177.6 145" style="enable-background:new 0 0 177.6 145;" xml:space="preserve">
<style type="text/css">
	.st0{filter:url(#Adobe_OpacityMaskFilter);}
	.st1{filter:url(#Adobe_OpacityMaskFilter_00000000906153058573794650000008806982473953907329_);}
	.st2{mask:url(#SVGID_1_);fill:url(#SVGID_00000173859246459912985600000011589295101219868065_);}
	.st3{fill:url(#SVGID_00000036240444647307137510000007908469358043898302_);}
	.st4{fill:#C0C4EE;}
	.st5{fill:url(#SVGID_00000027587924518305656050000006156021601045753782_);}
	.st6{fill:#FFFFFF;}
	.st7{fill:url(#SVGID_00000144321868897502340170000000791768972869783977_);}
	.st8{opacity:0.2;}
	.st9{fill-rule:evenodd;clip-rule:evenodd;fill:#BC2F2F;}
	.st10{fill-rule:evenodd;clip-rule:evenodd;fill:#A32121;}
	.st11{fill-rule:evenodd;clip-rule:evenodd;fill:#EBEBEB;}
	.st12{fill-rule:evenodd;clip-rule:evenodd;fill:#7A1515;}
	.st13{fill:#FACC4D;}
	.st14{fill-rule:evenodd;clip-rule:evenodd;fill:#626F70;}
	.st15{fill-rule:evenodd;clip-rule:evenodd;fill:#E6EAEB;}
	.st16{fill-rule:evenodd;clip-rule:evenodd;fill:#2C3E50;}
	.st17{fill-rule:evenodd;clip-rule:evenodd;fill:#405D79;}
	.st18{fill-rule:evenodd;clip-rule:evenodd;fill:#FFCB05;}
</style>
<g>
	<defs>
		<filter id="Adobe_OpacityMaskFilter" filterUnits="userSpaceOnUse" x="77.2" y="53.7" width="99.8" height="90.4">
			<feFlood  style="flood-color:white;flood-opacity:1" result="back"/>
			<feBlend  in="SourceGraphic" in2="back" mode="normal"/>
		</filter>
	</defs>
	<mask maskUnits="userSpaceOnUse" x="77.2" y="53.7" width="99.8" height="90.4" id="SVGID_1_">
		<g class="st0">
			<defs>
				
					<filter id="Adobe_OpacityMaskFilter_00000095317872585035458340000002663214397836879537_" filterUnits="userSpaceOnUse" x="77.2" y="53.7" width="99.8" height="90.4">
					<feFlood  style="flood-color:white;flood-opacity:1" result="back"/>
					<feBlend  in="SourceGraphic" in2="back" mode="normal"/>
				</filter>
			</defs>
			<mask maskUnits="userSpaceOnUse" x="77.2" y="53.7" width="99.8" height="90.4" id="SVGID_1_">
				<g style="filter:url(#Adobe_OpacityMaskFilter_00000095317872585035458340000002663214397836879537_);">
				</g>
			</mask>
			
				<linearGradient id="SVGID_00000075882070342590853380000010426244041506388915_" gradientUnits="userSpaceOnUse" x1="77.1967" y1="98.8972" x2="176.995" y2="98.8972">
				<stop  offset="0" style="stop-color:#FFFFFF"/>
				<stop  offset="1" style="stop-color:#000000"/>
			</linearGradient>
			<path style="mask:url(#SVGID_1_);fill:url(#SVGID_00000075882070342590853380000010426244041506388915_);" d="M101.3,53.7H77.2
				l71.1,41c3.2,1.9,3.2,6.5,0,8.3l-71.1,41h24.1c2.3,0,4.7-0.6,6.7-1.8l65.9-38.1c4.1-2.4,4.1-8.3,0-10.7L108,55.5
				C105.9,54.3,103.6,53.7,101.3,53.7z"/>
		</g>
	</mask>
	
		<linearGradient id="SVGID_00000155126416140183703920000018112291484862896781_" gradientUnits="userSpaceOnUse" x1="77.1967" y1="98.8972" x2="176.995" y2="98.8972">
		<stop  offset="1.032873e-03" style="stop-color:#CED2DA"/>
		<stop  offset="1" style="stop-color:#F5F5F5"/>
	</linearGradient>
	<path style="fill:url(#SVGID_00000155126416140183703920000018112291484862896781_);" d="M101.3,53.7H77.2l71.1,41
		c3.2,1.9,3.2,6.5,0,8.3l-71.1,41h24.1c2.3,0,4.7-0.6,6.7-1.8l65.9-38.1c4.1-2.4,4.1-8.3,0-10.7L108,55.5
		C105.9,54.3,103.6,53.7,101.3,53.7z"/>
	<g>
		<path class="st4" d="M154,99.7c-0.1-1.9-1.5-3.8-4.2-5.3L86.3,57.8c-5-2.9-12.6-3.2-17-0.7l-66,38.1c-2.1,1.2-3,2.8-2.9,4.5
			c0.1,1.9,1.5,3.8,4.2,5.3l63.6,36.7c5,2.9,12.6,3.2,17,0.7l66-38.1C153.2,103.1,154.1,101.4,154,99.7z"/>
		
			<linearGradient id="SVGID_00000062886427080558297990000007081736500155264173_" gradientUnits="userSpaceOnUse" x1="152.4672" y1="110.3634" x2="-0.67" y2="110.3634">
			<stop  offset="0.3962" style="stop-color:#D4D8FD"/>
			<stop  offset="0.6076" style="stop-color:#F3F4FF"/>
		</linearGradient>
		<path style="fill:url(#SVGID_00000062886427080558297990000007081736500155264173_);" d="M154,98.4L154,98.4l0-6.3l-25.8,12.5
			L86.3,80.4c-5-2.9-12.6-3.2-17-0.7l-43.1,24.9L0.3,92.1v5.8c0,0.2,0,0.3,0,0.5c0.1,1.9,1.5,3.8,4.2,5.3l63.6,36.7
			c2.6,1.5,5.9,2.3,9.1,2.4l0,0l0,0c3,0.1,5.8-0.5,7.9-1.7l66-38.1C153.2,101.7,154.1,100.1,154,98.4z"/>
		<path class="st6" d="M154,92.1c-0.1-1.9-1.5-3.8-4.2-5.3L86.3,50.1c-5-2.9-12.6-3.2-17-0.7l-66,38.1c-2.1,1.2-3,2.8-2.9,4.5
			c0.1,1.9,1.5,3.8,4.2,5.3L68.1,134c5,2.9,12.6,3.2,17,0.7l66-38.1C153.2,95.4,154.1,93.7,154,92.1z"/>
		
			<linearGradient id="SVGID_00000141441496531957405400000001818894842893629356_" gradientUnits="userSpaceOnUse" x1="0.3385" y1="91.504" x2="154.0468" y2="91.504">
			<stop  offset="0" style="stop-color:#FDFDFF"/>
			<stop  offset="1" style="stop-color:#FCFCFF"/>
		</linearGradient>
		<path style="fill:url(#SVGID_00000141441496531957405400000001818894842893629356_);" d="M154,91.5c-0.1-1.9-1.5-3.8-4.2-5.3
			L86.3,49.5c-5-2.9-12.6-3.2-17-0.7L3.3,87c-2.1,1.2-3,2.8-2.9,4.5c0.1,1.9,1.5,3.8,4.2,5.3l63.6,36.7c5,2.9,12.6,3.2,17,0.7
			l66-38.1C153.2,94.8,154.1,93.2,154,91.5z"/>
		<g class="st8">
			<path class="st6" d="M31.2,90.3c0.4,0.2,0.4,0.6,0,0.9c-0.4,0.2-1.1,0.2-1.5,0c-0.4-0.2-0.4-0.6,0-0.9
				C30.1,90.1,30.8,90.1,31.2,90.3z"/>
			<path class="st6" d="M39.2,85.7c0.4,0.2,0.4,0.6,0,0.9c-0.4,0.2-1.1,0.2-1.5,0c-0.4-0.2-0.4-0.6,0-0.9S38.8,85.5,39.2,85.7z"/>
			<path class="st6" d="M47.2,81.1c0.4,0.2,0.4,0.6,0,0.9s-1.1,0.2-1.5,0c-0.4-0.2-0.4-0.6,0-0.9C46.1,80.9,46.7,80.9,47.2,81.1z"/>
			<path class="st6" d="M55.2,76.5c0.4,0.2,0.4,0.6,0,0.9c-0.4,0.2-1.1,0.2-1.5,0c-0.4-0.2-0.4-0.6,0-0.9
				C54.1,76.2,54.7,76.2,55.2,76.5z"/>
			<path class="st6" d="M39.2,95c0.4,0.2,0.4,0.6,0,0.9c-0.4,0.2-1.1,0.2-1.5,0c-0.4-0.2-0.4-0.6,0-0.9C38.1,94.7,38.8,94.7,39.2,95
				z"/>
			<path class="st6" d="M47.2,90.3c0.4,0.2,0.4,0.6,0,0.9c-0.4,0.2-1.1,0.2-1.5,0s-0.4-0.6,0-0.9C46.1,90.1,46.7,90.1,47.2,90.3z"/>
			<path class="st6" d="M55.2,85.7c0.4,0.2,0.4,0.6,0,0.9c-0.4,0.2-1.1,0.2-1.5,0c-0.4-0.2-0.4-0.6,0-0.9
				C54.1,85.5,54.7,85.5,55.2,85.7z"/>
			<path class="st6" d="M63.2,81.1c0.4,0.2,0.4,0.6,0,0.9c-0.4,0.2-1.1,0.2-1.5,0c-0.4-0.2-0.4-0.6,0-0.9
				C62.1,80.9,62.7,80.9,63.2,81.1z"/>
			<path class="st6" d="M47.2,99.6c0.4,0.2,0.4,0.6,0,0.9c-0.4,0.2-1.1,0.2-1.5,0c-0.4-0.2-0.4-0.6,0-0.9
				C46.1,99.3,46.7,99.3,47.2,99.6z"/>
			<path class="st6" d="M55.2,95c0.4,0.2,0.4,0.6,0,0.9c-0.4,0.2-1.1,0.2-1.5,0c-0.4-0.2-0.4-0.6,0-0.9C54.1,94.7,54.7,94.7,55.2,95
				z"/>
			<path class="st6" d="M63.2,90.3c0.4,0.2,0.4,0.6,0,0.9c-0.4,0.2-1.1,0.2-1.5,0s-0.4-0.6,0-0.9C62.1,90.1,62.7,90.1,63.2,90.3z"/>
			<path class="st6" d="M71.2,85.7c0.4,0.2,0.4,0.6,0,0.9c-0.4,0.2-1.1,0.2-1.5,0s-0.4-0.6,0-0.9C70.1,85.5,70.7,85.5,71.2,85.7z"/>
			<path class="st6" d="M55.2,104.2c0.4,0.2,0.4,0.6,0,0.9c-0.4,0.2-1.1,0.2-1.5,0c-0.4-0.2-0.4-0.6,0-0.9
				C54.1,104,54.7,104,55.2,104.2z"/>
			<path class="st6" d="M63.2,99.6c0.4,0.2,0.4,0.6,0,0.9c-0.4,0.2-1.1,0.2-1.5,0c-0.4-0.2-0.4-0.6,0-0.9
				C62.1,99.3,62.7,99.3,63.2,99.6z"/>
			<path class="st6" d="M71.2,95c0.4,0.2,0.4,0.6,0,0.9c-0.4,0.2-1.1,0.2-1.5,0c-0.4-0.2-0.4-0.6,0-0.9C70.1,94.7,70.7,94.7,71.2,95
				z"/>
			<path class="st6" d="M79.2,90.3c0.4,0.2,0.4,0.6,0,0.9c-0.4,0.2-1.1,0.2-1.5,0c-0.4-0.2-0.4-0.6,0-0.9
				C78.1,90.1,78.7,90.1,79.2,90.3z"/>
			<path class="st6" d="M63.2,108.8c0.4,0.2,0.4,0.6,0,0.9s-1.1,0.2-1.5,0c-0.4-0.2-0.4-0.6,0-0.9C62.1,108.6,62.7,108.6,63.2,108.8
				z"/>
			<path class="st6" d="M71.2,104.2c0.4,0.2,0.4,0.6,0,0.9c-0.4,0.2-1.1,0.2-1.5,0c-0.4-0.2-0.4-0.6,0-0.9
				C70.1,104,70.7,104,71.2,104.2z"/>
			<path class="st6" d="M79.2,99.6c0.4,0.2,0.4,0.6,0,0.9c-0.4,0.2-1.1,0.2-1.5,0c-0.4-0.2-0.4-0.6,0-0.9
				C78.1,99.3,78.7,99.3,79.2,99.6z"/>
			<path class="st6" d="M87.2,95c0.4,0.2,0.4,0.6,0,0.9c-0.4,0.2-1.1,0.2-1.5,0c-0.4-0.2-0.4-0.6,0-0.9C86.1,94.7,86.7,94.7,87.2,95
				z"/>
			<path class="st6" d="M87.2,95c0.4,0.2,0.4,0.6,0,0.9c-0.4,0.2-1.1,0.2-1.5,0c-0.4-0.2-0.4-0.6,0-0.9C86.1,94.7,86.7,94.7,87.2,95
				z"/>
			<path class="st6" d="M63.2,71.9c0.4,0.2,0.4,0.6,0,0.9c-0.4,0.2-1.1,0.2-1.5,0c-0.4-0.2-0.4-0.6,0-0.9
				C62.1,71.6,62.7,71.6,63.2,71.9z"/>
			<path class="st6" d="M71.2,67.3c0.4,0.2,0.4,0.6,0,0.9c-0.4,0.2-1.1,0.2-1.5,0c-0.4-0.2-0.4-0.6,0-0.9C70.1,67,70.7,67,71.2,67.3
				z"/>
			<path class="st6" d="M79.2,62.6c0.4,0.2,0.4,0.6,0,0.9c-0.4,0.2-1.1,0.2-1.5,0c-0.4-0.2-0.4-0.6,0-0.9S78.7,62.4,79.2,62.6z"/>
			<path class="st6" d="M71.2,76.5c0.4,0.2,0.4,0.6,0,0.9c-0.4,0.2-1.1,0.2-1.5,0c-0.4-0.2-0.4-0.6,0-0.9
				C70.1,76.2,70.7,76.2,71.2,76.5z"/>
			<path class="st6" d="M79.2,71.9c0.4,0.2,0.4,0.6,0,0.9c-0.4,0.2-1.1,0.2-1.5,0c-0.4-0.2-0.4-0.6,0-0.9
				C78.1,71.6,78.7,71.6,79.2,71.9z"/>
			<path class="st6" d="M87.2,67.3c0.4,0.2,0.4,0.6,0,0.9c-0.4,0.2-1.1,0.2-1.5,0c-0.4-0.2-0.4-0.6,0-0.9C86.1,67,86.7,67,87.2,67.3
				z"/>
			<path class="st6" d="M79.2,81.1c0.4,0.2,0.4,0.6,0,0.9c-0.4,0.2-1.1,0.2-1.5,0c-0.4-0.2-0.4-0.6,0-0.9
				C78.1,80.9,78.7,80.9,79.2,81.1z"/>
			<path class="st6" d="M87.2,76.5c0.4,0.2,0.4,0.6,0,0.9c-0.4,0.2-1.1,0.2-1.5,0c-0.4-0.2-0.4-0.6,0-0.9
				C86.1,76.2,86.7,76.2,87.2,76.5z"/>
			<path class="st6" d="M95.1,71.9c0.4,0.2,0.4,0.6,0,0.9c-0.4,0.2-1.1,0.2-1.5,0c-0.4-0.2-0.4-0.6,0-0.9
				C94.1,71.6,94.7,71.6,95.1,71.9z"/>
			<path class="st6" d="M87.2,85.7c0.4,0.2,0.4,0.6,0,0.9c-0.4,0.2-1.1,0.2-1.5,0c-0.4-0.2-0.4-0.6,0-0.9
				C86.1,85.5,86.7,85.5,87.2,85.7z"/>
			<path class="st6" d="M95.1,81.1c0.4,0.2,0.4,0.6,0,0.9c-0.4,0.2-1.1,0.2-1.5,0c-0.4-0.2-0.4-0.6,0-0.9
				C94.1,80.9,94.7,80.9,95.1,81.1z"/>
			<path class="st6" d="M103.1,76.5c0.4,0.2,0.4,0.6,0,0.9c-0.4,0.2-1.1,0.2-1.5,0c-0.4-0.2-0.4-0.6,0-0.9
				C102.1,76.2,102.7,76.2,103.1,76.5z"/>
			<path class="st6" d="M95.1,90.3c0.4,0.2,0.4,0.6,0,0.9c-0.4,0.2-1.1,0.2-1.5,0c-0.4-0.2-0.4-0.6,0-0.9
				C94.1,90.1,94.7,90.1,95.1,90.3z"/>
			<path class="st6" d="M103.1,85.7c0.4,0.2,0.4,0.6,0,0.9c-0.4,0.2-1.1,0.2-1.5,0c-0.4-0.2-0.4-0.6,0-0.9
				C102.1,85.5,102.7,85.5,103.1,85.7z"/>
			<path class="st6" d="M111.1,81.1c0.4,0.2,0.4,0.6,0,0.9c-0.4,0.2-1.1,0.2-1.5,0c-0.4-0.2-0.4-0.6,0-0.9
				C110.1,80.9,110.7,80.9,111.1,81.1z"/>
			<path class="st6" d="M71.2,113.4c0.4,0.2,0.4,0.6,0,0.9c-0.4,0.2-1.1,0.2-1.5,0c-0.4-0.2-0.4-0.6,0-0.9
				C70.1,113.2,70.7,113.2,71.2,113.4z"/>
			<path class="st6" d="M79.2,108.8c0.4,0.2,0.4,0.6,0,0.9c-0.4,0.2-1.1,0.2-1.5,0c-0.4-0.2-0.4-0.6,0-0.9
				C78.1,108.6,78.7,108.6,79.2,108.8z"/>
			<path class="st6" d="M87.2,104.2c0.4,0.2,0.4,0.6,0,0.9c-0.4,0.2-1.1,0.2-1.5,0c-0.4-0.2-0.4-0.6,0-0.9
				C86.1,104,86.7,104,87.2,104.2z"/>
			<path class="st6" d="M95.1,99.6c0.4,0.2,0.4,0.6,0,0.9c-0.4,0.2-1.1,0.2-1.5,0c-0.4-0.2-0.4-0.6,0-0.9
				C94.1,99.3,94.7,99.3,95.1,99.6z"/>
			<path class="st6" d="M79.2,118c0.4,0.2,0.4,0.6,0,0.9c-0.4,0.2-1.1,0.2-1.5,0c-0.4-0.2-0.4-0.6,0-0.9
				C78.1,117.8,78.7,117.8,79.2,118z"/>
			<path class="st6" d="M87.2,113.4c0.4,0.2,0.4,0.6,0,0.9s-1.1,0.2-1.5,0c-0.4-0.2-0.4-0.6,0-0.9C86.1,113.2,86.7,113.2,87.2,113.4
				z"/>
			<path class="st6" d="M95.1,108.8c0.4,0.2,0.4,0.6,0,0.9c-0.4,0.2-1.1,0.2-1.5,0c-0.4-0.2-0.4-0.6,0-0.9
				C94.1,108.6,94.7,108.6,95.1,108.8z"/>
			<path class="st6" d="M103.1,104.2c0.4,0.2,0.4,0.6,0,0.9c-0.4,0.2-1.1,0.2-1.5,0c-0.4-0.2-0.4-0.6,0-0.9
				C102.1,104,102.7,104,103.1,104.2z"/>
			<path class="st6" d="M103.1,95c0.4,0.2,0.4,0.6,0,0.9c-0.4,0.2-1.1,0.2-1.5,0s-0.4-0.6,0-0.9C102.1,94.7,102.7,94.7,103.1,95z"/>
			<path class="st6" d="M111.1,90.3c0.4,0.2,0.4,0.6,0,0.9c-0.4,0.2-1.1,0.2-1.5,0c-0.4-0.2-0.4-0.6,0-0.9S110.7,90.1,111.1,90.3z"
				/>
			<path class="st6" d="M119.1,85.7c0.4,0.2,0.4,0.6,0,0.9c-0.4,0.2-1.1,0.2-1.5,0c-0.4-0.2-0.4-0.6,0-0.9
				C118.1,85.5,118.7,85.5,119.1,85.7z"/>
			<path class="st6" d="M111.1,99.6c0.4,0.2,0.4,0.6,0,0.9c-0.4,0.2-1.1,0.2-1.5,0c-0.4-0.2-0.4-0.6,0-0.9
				C110.1,99.3,110.7,99.3,111.1,99.6z"/>
			<path class="st6" d="M119.1,95c0.4,0.2,0.4,0.6,0,0.9c-0.4,0.2-1.1,0.2-1.5,0c-0.4-0.2-0.4-0.6,0-0.9
				C118.1,94.7,118.7,94.7,119.1,95z"/>
			<path class="st6" d="M127.1,90.3c0.4,0.2,0.4,0.6,0,0.9c-0.4,0.2-1.1,0.2-1.5,0c-0.4-0.2-0.4-0.6,0-0.9
				C126.1,90.1,126.7,90.1,127.1,90.3z"/>
		</g>
	</g>
</g>
<g>
	<path class="st9" d="M41.9,27l20.6-11.9v0l20.8-12c0,0,0.1-0.1,0.1-0.1c0,0,0.1-0.1,0.1-0.1c0,0,0.1-0.1,0.1-0.1l0,0
		c0,0,0.1-0.1,0.1-0.1l0,0v0l0,0c0,0,0-0.1,0.1-0.1l0,0c0,0,0-0.1,0.1-0.2c0-0.1,0-0.1,0-0.2c0,0,0-0.1,0-0.1v5l-38.1,22
		c-1.2,0.7-2.8,1.1-4.1,0.3c-1.1-0.6-0.6-1.9,0-2.2C42.3,26.8,41.8,27.1,41.9,27L41.9,27z"/>
	<polygon class="st10" points="49.7,106.1 49.5,106.2 49.3,106.4 48.5,106.7 48.4,106.7 47.8,107 47.1,107.1 46.4,107.3 45.7,107.4 
		45,107.5 44.3,107.5 43.6,107.6 42.8,107.5 42.1,107.5 41.4,107.4 40.7,107.3 40.1,107.1 39.4,106.9 38.8,106.7 38.2,106.4 
		37.6,106.1 37,105.8 36.6,105.4 36.1,105 35.8,104.6 35.5,104.1 35.3,103.7 35.1,103.2 35,102.8 35,102.3 35,28 35,28.5 35.1,28.9 
		35.3,29.4 35.5,29.8 35.8,30.2 36.1,30.7 36.6,31.1 37,31.4 37.6,31.8 38.2,32.1 38.8,32.3 39.4,32.6 40.1,32.8 40.7,32.9 
		41.4,33.1 42.1,33.2 42.8,33.2 43.6,33.2 44.3,33.2 45,33.2 45.7,33.1 46.4,33 47.1,32.8 47.8,32.6 48.4,32.4 48.5,32.4 49.3,32 
		49.5,31.9 49.7,31.8 50.3,31.4 91.8,7.5 91.9,7.4 92,7.3 92.1,7.2 92.2,7 92.3,6.9 92.3,6.7 92.4,6.6 92.4,6.4 92.4,80.7 
		92.4,80.9 92.3,81.1 92.3,81.2 92.2,81.4 92.1,81.5 92,81.6 91.9,81.7 91.8,81.8 50.3,105.8 	"/>
	<path class="st10" d="M59.5,26.1l-9.2,5.3l-0.6,0.4l-0.2,0.1L49.3,32l-0.8,0.3l-0.1,0c-3.3,1.3-7.8,1.1-10.8-0.6
		c-3-1.8-3.5-4.8-0.7-6.7l0,0l0.3-0.2c0.1-0.1,0.2-0.1,0.3-0.2l0.2-0.1h0l6.9-4l0,0l35-20.2c0.9-0.5,2-0.5,2.9,0l1,0.6
		c0.4,0.2,0.6,0.6,0.6,1.1c0,0.5-0.2,0.8-0.6,1.1l-20.8,12v0L41.9,27l0,0c-0.1,0,0.4-0.2-0.2,0.1c-0.6,0.3-1.1,1.6,0,2.2
		c1.3,0.8,2.9,0.4,4.1-0.3L87.9,4.8c0.9-0.5,2-0.5,2.9,0l1,0.6c0.4,0.2,0.6,0.6,0.6,1.1c0,0.5-0.2,0.8-0.6,1.1L59.5,26.1z"/>
	<path class="st11" d="M85.8,6l-1.9-1.1L41.6,29.3l0.1,0.1c1.3,0.8,2.9,0.4,4.1-0.3L85.8,6z"/>
	<polygon class="st12" points="44.8,107.5 44.8,33.2 44.3,33.2 43.6,33.2 42.8,33.2 42.1,33.2 41.4,33.1 40.7,32.9 40.1,32.8 
		39.4,32.6 38.8,32.3 38.2,32.1 37.6,31.8 37,31.4 36.6,31.1 36.1,30.7 35.8,30.2 35.5,29.8 35.3,29.4 35.1,28.9 35,28.5 35,28 
		35,102.3 35,102.8 35.1,103.2 35.3,103.7 35.5,104.1 35.8,104.6 36.1,105 36.6,105.4 37,105.8 37.6,106.1 38.2,106.4 38.8,106.7 
		39.4,106.9 40.1,107.1 40.7,107.3 41.4,107.4 42.1,107.5 42.8,107.5 43.6,107.6 44.3,107.5 	"/>
	<polygon class="st9" points="41.1,107.3 41.1,33 41.4,33.1 42.1,33.2 42.8,33.2 43.6,33.2 44.3,33.2 44.8,33.2 44.8,107.5 
		44.3,107.5 43.6,107.6 42.8,107.5 42.1,107.5 41.4,107.4 	"/>
	<g>
		<path class="st13" d="M59,91.8l-0.8,0.5v-6l-2.3,1.4v6L55,94.1V87l3.9-2.3V91.8z"/>
		<path class="st13" d="M63.9,88.8L63,89.4l-0.3-1.2l-2.1,1.2L60.3,91l-0.9,0.5l1.8-8.2l1-0.6L63.9,88.8z M62.5,87.2l-0.8-2.9
			l-0.8,3.9L62.5,87.2z"/>
		<path class="st13" d="M66.3,87.5c-0.7,0.4-1.2,0.4-1.7,0c-0.4-0.4-0.7-1.2-0.7-2.3c0-1.1,0.2-2.1,0.7-3c0.4-1,1-1.6,1.7-2
			c0.8-0.5,1.4-0.3,1.8,0.5l-0.7,0.9c-0.1-0.2-0.3-0.4-0.5-0.5c-0.2-0.1-0.4,0-0.7,0.1c-0.4,0.3-0.8,0.7-1.1,1.4
			c-0.3,0.7-0.4,1.4-0.4,2.1c0,0.7,0.1,1.3,0.4,1.6c0.3,0.3,0.7,0.3,1.1,0.1c0.2-0.1,0.5-0.4,0.7-0.7c0.2-0.3,0.4-0.7,0.5-1l0.7,0.1
			C67.7,86.2,67.1,87.1,66.3,87.5z"/>
		<path class="st13" d="M72.7,83.7l-0.8,0.5v-6l-2.3,1.4v6L68.8,86v-7.1l3.9-2.3V83.7z"/>
		<path class="st13" d="M77.4,80c-0.4,0.9-1,1.6-1.6,2s-1.2,0.4-1.6-0.1c-0.4-0.4-0.6-1.2-0.6-2.3s0.2-2.1,0.6-3
			c0.4-0.9,1-1.6,1.6-2c0.7-0.4,1.2-0.4,1.6,0.1c0.4,0.4,0.6,1.2,0.6,2.3S77.8,79,77.4,80z M75.7,80.9c0.4-0.3,0.8-0.7,1.1-1.4
			c0.3-0.6,0.4-1.3,0.4-2.1c0-0.7-0.1-1.3-0.4-1.6c-0.3-0.3-0.6-0.4-1.1-0.1c-0.4,0.3-0.8,0.7-1.1,1.4c-0.3,0.6-0.4,1.3-0.4,2.1
			c0,0.7,0.1,1.3,0.4,1.6C74.9,81.1,75.3,81.1,75.7,80.9z"/>
		<path class="st13" d="M79.6,79.6L78.8,80v-7.1l2-1.2c0.5-0.3,0.8-0.3,1.1,0c0.3,0.3,0.4,0.7,0.4,1.4c0,0.6-0.1,1.2-0.4,1.8
			c-0.3,0.6-0.6,1-1.1,1.3l-1.2,0.7V79.6z M80.6,75.2c0.2-0.1,0.4-0.3,0.6-0.6c0.1-0.3,0.2-0.6,0.2-0.9c0-0.3-0.1-0.6-0.2-0.7
			c-0.1-0.1-0.3-0.1-0.6,0l-1.1,0.6v2.3L80.6,75.2z"/>
		<path class="st13" d="M84.7,76.5L83.9,77v-6l-1.4,0.8v-1.1l3.5-2.1v1.1l-1.4,0.8V76.5z"/>
	</g>
	<g>
		<g>
			<path class="st13" d="M74.6,58.1c-2.1,0.4-3.4-0.6-3.8-0.9v-1.6c0-1.3,0.8-2.8,1.8-3.4c1-0.6,1.8,0,1.8,1.3
				c0,0.4,0.2,0.5,0.5,0.4c0.3-0.2,0.5-0.6,0.5-0.9c0-2-1.3-2.9-2.8-2c-1.5,0.9-2.8,3.2-2.8,5.2v2.1l0.1,0.1
				c0.1,0.1,1.6,1.7,4.4,1.1c0.3-0.1,0.4,0,0.4,0c-0.1,0.5-1.4,2.4-3.4,4.3l-0.6-2c-0.1-0.3-0.4-0.3-0.6-0.1c-0.3,0.3-0.4,0.7-0.3,1
				l1.1,3.9c-1.3,1.6-3.1,2.2-3.8,2.3l1.2-5.3c0.1-0.4-0.1-0.7-0.3-0.6c-0.3,0-0.5,0.4-0.6,0.8l-0.6,2.7c-2,0.4-3.3,0-3.4-0.4
				c0-0.1,0.1-0.2,0.4-0.5c2.8-2.7,4.3-6.1,4.4-6.2l0.1-0.2v-2.1c0-2-1.3-2.9-2.8-2c-1.5,0.9-2.8,3.2-2.8,5.2c0,0.4,0.2,0.5,0.5,0.4
				c0.3-0.2,0.5-0.6,0.5-0.9c0-1.3,0.8-2.8,1.8-3.4c1-0.6,1.8,0,1.8,1.3v1.6c-0.4,0.7-1.7,3.2-3.8,5.3c-1,0.9-1.1,1.7-1.1,2.1
				c0,1.6,2.4,1.5,4.1,1.2l-0.5,2.4l0.3,0.1c0.4,0.1,1.5-0.1,2.8-0.9c0.9-0.5,1.9-1.3,2.7-2.5l0.3-0.4l-0.5-1.6
				c1.8-1.7,4.1-4.4,4.1-5.9C75.8,58.5,75.6,57.9,74.6,58.1z"/>
			<path class="st13" d="M54.6,46.8l3.9,1.2c-0.1,0.6-0.2,1.2-0.2,1.8c0,3.9,2.4,5.7,5.3,4.2c-1.7,1.8-2.9,4.3-2.9,6.5
				c0,0.4,0.2,0.5,0.5,0.4c0.3-0.2,0.5-0.6,0.5-0.9c0-2.2,1.7-4.9,3.7-6.1c0.1,0,0.2-0.1,0.2-0.2c0,0,0.1,0,0.1,0l1.9-1.1
				c0.2-0.1,0.7,0.5,1,1.1c0.1,0.2,0.3,0.2,0.4,0.1c0,0,0,0,0,0c0.2-0.1,0.4-0.4,0.4-0.6c0.3-1,0.8-2.1,1-2.2l1.8-1
				c0,0,0.1-0.1,0.1-0.1c0.1,0,0.1,0,0.2-0.1c2-1.2,3.7-0.3,3.7,1.8c0,0.4,0.2,0.5,0.5,0.4c0.3-0.2,0.5-0.6,0.5-0.9
				c0-2.2-1.2-3.4-2.9-3.2c3-1.9,5.3-6.5,5.3-10.4c0-0.6-0.1-1.1-0.2-1.6l3.9-5.6c0.2-0.3,0.3-0.8,0.1-1c-0.2-0.2-0.5-0.1-0.7,0.2
				l-5.4,7.9c-0.2,0.3-0.3,0.8-0.1,1c0.1,0.1,0.3,0.1,0.4,0c0.1-0.1,0.2-0.1,0.3-0.3l0.7-1c0,0.3,0.1,0.6,0.1,0.9
				c0,3.3-2.1,7.3-4.7,8.7c-0.4,0.3-0.9,0.4-1.3,0.5v-3.6c0.4,0.1,0.8,0.1,1.3-0.2c1.2-0.7,2.3-2.6,2.3-4.2c0-0.7-0.2-1.2-0.5-1.5
				L83,27c0.2-0.3,0.3-0.8,0.1-1c-0.2-0.2-0.5-0.1-0.7,0.3l-7.5,11.4c0,0,0,0,0,0c0,0,0,0,0,0.1c0,0,0,0,0,0.1c0,0,0,0,0,0
				c0,0,0,0,0,0c0,0,0,0,0,0.1c0,0,0,0,0,0.1c0,0,0,0,0,0.1c0,0,0,0,0,0.1c0,0,0,0,0,0.1c0,0,0,0,0,0.1c0,0,0,0,0,0.1c0,0,0,0,0,0.1
				c0,0,0,0,0,0.1c0,0,0,0,0,0.1c0,0,0,0,0,0c0,0,0,0,0,0c0,0,0,0,0,0c0,0,0,0,0,0c0,0,0,0,0.1,0c0,0,0,0,0,0c0,0,0,0,0,0
				c0.3,0.1,0.6,0.5,0.6,1c0,0.9-0.6,2-1.3,2.4c-0.7,0.4-1.3,0-1.3-0.9c0-0.1,0-0.1,0-0.2V41c0-0.4-0.2-0.5-0.5-0.4l-1.2,0.7
				c0-2.8,0.5-4.9,1.5-6.3c0.1,0.3,0.2,0.5,0.3,0.7c0.3,0.3,0.7,0.4,1.1,0.2c0,0,0,0,0.1,0c0.2-0.1,0.5-0.5,0.5-0.8
				c0-0.4-0.2-0.6-0.4-0.5c-0.2,0.1-0.4,0.1-0.5-0.1c-0.1-0.1-0.2-0.3-0.1-0.5c1.2-0.9,2.4-0.9,2.4-0.9c0,0,0.1,0,0.1,0c0,0,0,0,0,0
				c0,0,0.1,0,0.1,0c0,0,0,0,0,0c0,0,0,0,0,0c0,0,0,0,0.1,0c0,0,0,0,0,0c0,0,0,0,0.1-0.1c0,0,0,0,0,0c0,0,0,0,0,0c0,0,0,0,0-0.1
				c0,0,0,0,0-0.1c0,0,0,0,0-0.1c0,0,0,0,0-0.1c0,0,0,0,0-0.1c0,0,0-0.1,0-0.1c0,0,0,0,0,0c0,0,0,0,0,0c0,0,0-0.1,0-0.1
				c0,0,0,0,0-0.1c0,0,0,0,0-0.1c0,0,0,0,0-0.1c0,0,0,0,0-0.1c0,0,0,0,0-0.1c0,0,0,0,0-0.1c0,0,0,0,0-0.1c0,0,0,0,0,0
				c0-0.1-1.2-2.3-3.1-1.3c0,0,0,0,0,0c-1.8,1-3,2.5-3.9,4.6c-0.2,0.4-0.1,0.7,0.1,0.8c0.2,0.1,0.5-0.2,0.7-0.5
				c0.7-1.6,1.7-2.8,3.1-3.6c0,0,0,0,0,0c0.5-0.3,1-0.2,1.4,0.1c-0.8,0.3-1.8,0.9-2.7,2.1c-1.3,1.8-2,4.4-2,7.7l-0.3,0.2
				c-0.1-6.2-1.9-8.2-5.3-6.2c-1.9,1.1-3,4.7-3.1,4.8c0,0,0,0,0,0c0,0,0,0.1,0,0.1c0,0,0,0,0,0.1c0,0,0,0,0,0.1c0,0,0,0,0,0.1
				c0,0,0,0,0,0.1c0,0,0,0,0,0.1c0,0,0,0,0,0.1c0,0,0,0,0,0.1c0,0,0,0,0,0c0,0,0,0,0,0c0,0,0,0,0,0c0,0,0,0,0,0c0,0,0,0,0,0
				c0,0,0,0,0,0c0,0,0,0,0,0c0,0,0,0,0.1,0c0,0,0,0,0,0c0,0,0,0,0,0c0,0,0,0,0.1,0c0,0,0,0,0,0c0,0,0,0,0.1,0c0,0,0,0,0,0
				c0,0,0,0,0.1,0c0,0,0,0,0,0c0,0,0,0,0.1-0.1c0,0,0,0,0,0c0,0,0,0,0,0c0,0,1.2-1.5,2.4-1.9c0,0.2,0,0.4-0.1,0.7
				c-0.1,0.3-0.3,0.5-0.5,0.6c-0.3,0.2-0.5,0.6-0.4,1c0,0.3,0.2,0.4,0.5,0.3c0,0,0,0,0.1,0c0.4-0.3,0.9-0.8,1.1-1.5
				c0.2-0.4,0.3-0.7,0.3-1.1c0.9,0.3,1.4,1.8,1.5,4.6l-1.1,0.6c-0.3,0.2-0.5,0.6-0.5,0.9v0.3c0,0.9-0.6,2-1.3,2.4
				c-0.7,0.4-1.3,0-1.3-0.9c0-0.5,0.2-1.2,0.5-1.7c0,0,0,0,0,0c0,0,0,0,0-0.1c0,0,0-0.1,0.1-0.1c0,0,0,0,0,0c0,0,0,0,0,0
				c0,0,0-0.1,0-0.1c0,0,0,0,0-0.1c0,0,0,0,0-0.1c0,0,0,0,0-0.1c0,0,0,0,0-0.1c0,0,0,0,0-0.1c0,0,0,0,0-0.1c0,0,0,0,0-0.1
				c0,0,0,0,0-0.1c0,0,0,0,0,0c0,0,0,0,0,0c0,0,0,0,0,0c0,0,0,0,0,0c0,0,0,0,0,0c0,0,0,0,0,0c0,0,0,0,0,0c0,0,0,0,0,0l-7.5-2.8
				c-0.2-0.1-0.5,0.2-0.7,0.5c-0.2,0.4-0.1,0.7,0.1,0.8l7.1,2.6c-0.3,0.7-0.5,1.4-0.5,2.1c0,1.6,1,2.3,2.3,1.6
				c0.5-0.3,0.9-0.7,1.3-1.3v3.6c-0.4,0.4-0.8,0.7-1.3,1c-2.6,1.5-4.7,0-4.7-3.4c0-0.3,0-0.6,0.1-1l0.7,0.2c0.1,0,0.2,0,0.3,0
				c0.2-0.1,0.3-0.3,0.4-0.5c0.2-0.4,0.1-0.7-0.1-0.8l-5.4-1.7c-0.2-0.1-0.5,0.2-0.7,0.6C54.3,46.4,54.4,46.8,54.6,46.8z M71.8,48.9
				l-1.3,0.8c-0.6,0.3-1.1,1.3-1.4,2.2c-0.4-0.5-0.9-0.9-1.4-0.5l-1.4,0.8v-6.7l5.6-3.2V48.9z M65.8,37.8c-0.9-0.2-1.9,0.4-2.7,1
				c0.4-0.7,0.8-1.4,1.4-1.7c2-1.1,4.2-1.5,4.4,5.5l-1,0.6C67.8,39.9,67.1,38.1,65.8,37.8z"/>
			<path class="st13" d="M57,50.3c0.1,0,0.1,0,0.2-0.1c0.2-0.1,0.4-0.4,0.5-0.7c0.1-0.4,0-0.7-0.3-0.7L55.1,49
				c-0.3,0-0.5,0.3-0.6,0.7c-0.1,0.4,0,0.7,0.3,0.7L57,50.3z"/>
			<path class="st13" d="M58,56.8c0.1,0,0.2-0.1,0.2-0.2l0.8-1c0.2-0.3,0.3-0.7,0.2-1c-0.1-0.2-0.4-0.2-0.7,0.1l-0.8,1
				c-0.2,0.3-0.3,0.7-0.2,1C57.7,56.9,57.9,56.9,58,56.8z"/>
			<path class="st13" d="M60.9,55.2c-0.2-0.1-0.5,0.1-0.7,0.4l-0.4,0.9c-0.2,0.4-0.2,0.8,0,0.9c0.1,0.1,0.2,0,0.3,0
				c0.1-0.1,0.3-0.2,0.4-0.4l0.4-0.9C61.1,55.7,61.1,55.3,60.9,55.2z"/>
			<path class="st13" d="M58.2,53.2c-0.1-0.3-0.4-0.3-0.6-0.1L56,54.7c-0.3,0.3-0.4,0.7-0.3,1c0.1,0.2,0.3,0.3,0.5,0.2
				c0,0,0.1-0.1,0.1-0.1l1.6-1.6C58.2,53.9,58.3,53.5,58.2,53.2z"/>
			<path class="st13" d="M57.2,52.4c0.3-0.2,0.5-0.6,0.5-0.9c0-0.4-0.2-0.5-0.5-0.4l-2,1.2c-0.3,0.2-0.5,0.6-0.5,0.9
				c0,0.4,0.2,0.5,0.5,0.4L57.2,52.4z"/>
			<path class="st13" d="M83.7,32.9c-0.1-0.3-0.4-0.2-0.6,0l-2.3,2.5c-0.3,0.3-0.4,0.7-0.3,1c0.1,0.2,0.3,0.2,0.5,0.1
				c0.1,0,0.1-0.1,0.2-0.2l2.3-2.5C83.6,33.6,83.8,33.2,83.7,32.9z"/>
			<path class="st13" d="M80.3,42.8l-0.8-0.1c-0.2,0-0.5,0.3-0.7,0.7c-0.1,0.4,0,0.7,0.2,0.7l0.8,0.1c0.1,0,0.1,0,0.2-0.1
				c0.2-0.1,0.4-0.3,0.4-0.6C80.6,43.1,80.5,42.8,80.3,42.8z"/>
			<path class="st13" d="M77.2,45.8c-0.2,0.4-0.2,0.8,0,0.9l0.4,0.4c0.1,0.1,0.2,0.1,0.4,0c0.1-0.1,0.2-0.2,0.3-0.4
				c0.2-0.4,0.2-0.8,0-0.9l-0.4-0.4C77.7,45.3,77.4,45.5,77.2,45.8z"/>
			<path class="st13" d="M82.1,39.7L80.5,40c-0.3,0-0.5,0.4-0.6,0.8c-0.1,0.4,0.1,0.7,0.3,0.6l1.6-0.3c0,0,0.1,0,0.1-0.1
				c0.2-0.1,0.4-0.4,0.5-0.7C82.5,39.9,82.4,39.6,82.1,39.7z"/>
			<path class="st13" d="M83,36.3l-2,1.2c-0.3,0.2-0.5,0.6-0.5,0.9c0,0.4,0.2,0.5,0.5,0.4l2-1.2c0.3-0.2,0.5-0.6,0.5-0.9
				C83.5,36.3,83.3,36.1,83,36.3z"/>
			<path class="st13" d="M67.6,32.7c-0.3,0.2-0.5,0.6-0.5,0.9c0,0.4,0.2,0.5,0.5,0.4l2.8-1.6c0.3-0.2,0.5-0.6,0.5-0.9
				c0-0.4-0.2-0.5-0.5-0.4L67.6,32.7z"/>
			<path class="st13" d="M67.9,31.8l2.2-1.2c0.9-0.5,1.7-1.9,1.7-3.1c0-1.2-0.7-1.7-1.7-1.2c-0.4,0.2-0.8,0.7-1.1,1.3
				c-0.3-0.2-0.6-0.3-1.1,0c-0.9,0.5-1.7,1.9-1.7,3.1C66.2,31.8,67,32.3,67.9,31.8z M67.9,28.8c0.1-0.1,0.3,0,0.5,0.1
				c0.1,0.1,0.2,0.1,0.3,0.2c0.1,0,0.2,0,0.3,0c0,0,0,0,0,0c0.2-0.1,0.3-0.3,0.4-0.5c0.4-0.8,0.6-1,0.7-1c0.4-0.2,0.7,0,0.7,0.5
				c0,0.5-0.3,1.1-0.7,1.3l-2.2,1.2c-0.4,0.2-0.7,0-0.7-0.5C67.2,29.6,67.5,29,67.9,28.8z"/>
			<path class="st13" d="M69,26.3c0.4-0.2,0.7-0.8,0.7-1.3c0-0.5-0.3-0.7-0.7-0.5c-0.4,0.2-0.7,0.8-0.7,1.3
				C68.3,26.3,68.6,26.5,69,26.3z"/>
			<path class="st13" d="M80,48.2c-0.4,0.2-0.7,0.8-0.7,1.3c0,0.5,0.3,0.7,0.7,0.5c0.4-0.2,0.7-0.8,0.7-1.3
				C80.7,48.2,80.4,48,80,48.2z"/>
			<path class="st13" d="M79.4,51.2c-1.1,0.6-2.1,2.1-2.5,3.6L73.2,55v-1.5c0-0.4-0.2-0.5-0.5-0.4c-0.3,0.2-0.5,0.6-0.5,0.9V56
				c0,0.3,0.1,0.4,0.3,0.4l4-0.2c0,0.1,0,0.2,0,0.3c0,2,1.3,2.9,2.8,2c1.5-0.9,2.8-3.2,2.8-5.2C82.2,51.2,80.9,50.3,79.4,51.2z
				 M79.4,57.2c-1,0.6-1.8,0-1.8-1.3c0-1.3,0.8-2.8,1.8-3.4c1-0.6,1.8,0,1.8,1.3C81.2,55.1,80.4,56.6,79.4,57.2z"/>
			<path class="st13" d="M61,65.3l4.4-4.8c0.2-0.2,0.3-0.5,0.3-0.8v-1.9c0-0.4-0.2-0.5-0.5-0.4c-0.3,0.2-0.5,0.6-0.5,0.9v1.5
				l-4.3,4.7l-4.6-6.3c-0.2-0.2-0.5-0.1-0.7,0.2c-0.2,0.3-0.3,0.8-0.1,1l4.5,6.1l-0.1,0.1c-0.3,0.3-0.4,0.7-0.3,1
				c0.1,0.2,0.3,0.3,0.5,0.1c0.1,0,0.1-0.1,0.2-0.1l0.3-0.4l0.8,1.1c0.1,0.1,0.3,0.1,0.4,0c0.1-0.1,0.2-0.1,0.3-0.3
				c0.2-0.3,0.3-0.8,0.1-1L61,65.3z"/>
		</g>
	</g>
</g>
<g>
	<g>
		<polygon class="st14" points="125.4,57.1 124.5,56.6 124,56.4 123.4,56.4 122.8,56.5 122.1,56.8 83.5,79.1 82.9,79.5 82.2,80.1 
			81.7,80.8 81.2,81.6 80.8,82.4 80.5,83.2 80.3,84 80.2,84.9 80.2,109.9 80.3,110.6 80.5,111.2 80.8,111.7 81.2,112 82.1,112.6 
			81.7,112.2 81.4,111.7 81.2,111.1 81.1,110.4 81.1,85.4 81.2,84.6 81.4,83.8 81.7,82.9 82.1,82.1 82.6,81.4 83.2,80.7 83.8,80.1 
			84.5,79.6 123.1,57.3 123.7,57 124.4,56.9 124.9,56.9 		"/>
		<path class="st15" d="M81.1,85.4v25c0,2.1,1.5,3,3.3,1.9l38.6-22.3c1.8-1.1,3.3-3.7,3.3-5.8v-25c0-2.1-1.5-3-3.3-1.9L84.5,79.6
			C82.6,80.7,81.1,83.3,81.1,85.4z"/>
		<polygon class="st16" points="81.1,88.4 81.1,96.1 126.4,70 126.4,62.2 		"/>
	</g>
	<g>
		<polygon class="st14" points="75,126.7 74.1,126.2 73.7,125.8 73.4,125.4 73.2,124.7 73.1,124 73.1,99 73.2,98.2 73.4,97.3 
			73.7,96.5 74.1,95.7 74.6,94.9 75.1,94.2 75.8,93.7 76.4,93.2 115,70.9 115.7,70.6 116.3,70.5 116.9,70.5 117.4,70.7 118.3,71.2 
			117.8,71 117.2,71 116.6,71.2 116,71.5 77.4,93.7 76.7,94.2 76.1,94.8 75.5,95.5 75,96.2 74.6,97 74.3,97.9 74.1,98.7 74,99.5 
			74,124.6 74.1,125.3 74.3,125.9 74.6,126.4 		"/>
		<path class="st17" d="M77.4,93.7L116,71.5c1.8-1.1,3.3-0.2,3.3,1.9v25c0,2.1-1.5,4.7-3.3,5.8l-38.6,22.3c-1.8,1.1-3.3,0.2-3.3-1.9
			v-25C74,97.4,75.5,94.8,77.4,93.7z"/>
		<path class="st15" d="M115.1,83.1c0-1.7,0-3.4,0-5.1c0-0.3-0.2-0.5-0.5-0.3c-3.3,1.9-6.6,3.8-9.9,5.7c-0.3,0.2-0.5,0.6-0.5,0.9
			c0,1.7,0,3.4,0,5.1c0,0.3,0.2,0.5,0.5,0.3c3.3-1.9,6.6-3.8,9.9-5.7C114.9,83.9,115.1,83.5,115.1,83.1z"/>
		<path class="st15" d="M79.6,119.1l6.8-3.9c0.3-0.2,0.5-0.6,0.5-0.9v-1.2c0-0.3-0.2-0.5-0.5-0.3l-6.8,3.9c-0.3,0.2-0.5,0.6-0.5,0.9
			v1.2C79.1,119.2,79.3,119.3,79.6,119.1z"/>
		<path class="st15" d="M89,113.7l6.8-3.9c0.3-0.2,0.5-0.6,0.5-0.9v-1.2c0-0.3-0.2-0.5-0.5-0.3l-6.8,3.9c-0.3,0.2-0.5,0.6-0.5,0.9
			v1.2C88.5,113.7,88.7,113.8,89,113.7z"/>
		<path class="st15" d="M98.4,108.2l6.8-3.9c0.3-0.2,0.5-0.6,0.5-0.9v-1.2c0-0.3-0.2-0.5-0.5-0.3l-6.8,3.9c-0.3,0.2-0.5,0.6-0.5,0.9
			v1.2C97.9,108.3,98.1,108.4,98.4,108.2z"/>
		<path class="st15" d="M107.9,102.8l6.8-3.9c0.3-0.2,0.5-0.6,0.5-0.9v-1.2c0-0.3-0.2-0.5-0.5-0.3l-6.8,3.9
			c-0.3,0.2-0.5,0.6-0.5,0.9v1.2C107.3,102.8,107.6,103,107.9,102.8z"/>
		<path class="st18" d="M79.1,103.4c0-0.6,0.4-1.4,1-1.7c2.1-1.2,4.1-2.4,6.2-3.6c0.5-0.3,1-0.1,1,0.6c0,1.7,0,3.8,0,5.5
			c0,0.6-0.4,1.4-1,1.7c-2.1,1.2-4.1,2.4-6.2,3.6c-0.5,0.3-1,0.1-1-0.6C79.1,107.2,79.1,105.1,79.1,103.4z"/>
	</g>
</g>
</svg>
