<svg width="24" height="24" fill="none" xmlns="http://www.w3.org/2000/svg"><mask id="a" style="mask-type:alpha" maskUnits="userSpaceOnUse" x="0" y="0" width="24" height="24"><path fill="#D9D9D9" d="M0 0h24v24H0z"/></mask><g mask="url(#a)"><path d="M4 17a.965.965 0 01-.712-.288A.965.965 0 013 16c0-.283.096-.521.288-.713A.967.967 0 014 15a.97.97 0 01.713.287A.97.97 0 015 16a.97.97 0 01-.287.712A.968.968 0 014 17zm0-4a.965.965 0 01-.712-.288A.965.965 0 013 12c0-.283.096-.521.288-.713A.967.967 0 014 11a.97.97 0 01.713.287A.97.97 0 015 12a.97.97 0 01-.287.712A.968.968 0 014 13zm0-4a.965.965 0 01-.712-.288A.965.965 0 013 8c0-.283.096-.521.288-.713A.967.967 0 014 7a.97.97 0 01.713.287A.97.97 0 015 8a.97.97 0 01-.287.712A.968.968 0 014 9zm3 8v-2h14v2H7zm0-4v-2h14v2H7zm0-4V7h14v2H7z" fill="#08C"/></g></svg>